<svg width="30" height="16" viewBox="0 0 30 16" fill="none" xmlns="http://www.w3.org/2000/svg">
<path fill-rule="evenodd" clip-rule="evenodd" d="M11.0547 12.9409C11.0547 12.9409 18.6299 7.46531 27.1635 4.66895C29.0095 5.61963 29.9314 6.18744 29.9314 6.18744C29.9314 6.18744 19.3044 11.0185 14.6091 15.3622C12.685 13.8738 11.0547 12.9409 11.0547 12.9409Z" fill="#E81D2C"/>
<path fill-rule="evenodd" clip-rule="evenodd" d="M6.46777 10.4353C7.81128 11.1071 9.81349 12.2275 9.81349 12.2275C9.81349 12.2275 17.7212 6.63777 26.1635 4.26568C24.6345 3.38208 23.1321 2.79883 23.1321 2.79883C23.1321 2.79883 13.7484 5.54297 6.46777 10.4353Z" fill="#E81D2C"/>
<path fill-rule="evenodd" clip-rule="evenodd" d="M11.8359 0.728446C11.8359 0.728446 15.4462 1.63297 18.7739 3.37853C20.3593 2.88703 21.1518 2.62794 21.1518 2.62794C21.1518 2.62794 16.4706 0.73162 14.0394 0.137695C13.5017 0.137695 11.8359 0.728446 11.8359 0.728446Z" fill="#E81D2C"/>
<path fill-rule="evenodd" clip-rule="evenodd" d="M8.24219 1.97845C8.24219 1.97845 11.8525 2.88297 15.1802 4.62853C16.7656 4.13703 17.558 3.87794 17.558 3.87794C17.558 3.87794 13.0331 1.82537 10.6019 1.23145C10.0642 1.23145 8.24219 1.97845 8.24219 1.97845Z" fill="#E81D2C"/>
<path fill-rule="evenodd" clip-rule="evenodd" d="M3.67969 7.79724L6.26327 9.16426C6.26327 9.16426 8.95302 7.10392 14.1348 5.09782C12.8494 4.48038 12.7611 4.51039 11.5168 3.96436C7.75868 5.09782 3.67969 7.79724 3.67969 7.79724Z" fill="#0050C7"/>
<path fill-rule="evenodd" clip-rule="evenodd" d="M0 6.33007L2.4963 7.36674C2.4963 7.36674 5.35672 5.43089 10.3842 3.56819C9.45447 3.10366 8.91507 2.9581 8.05989 2.79321C4.4346 3.8557 0 6.33007 0 6.33007Z" fill="#0050C7"/>
</svg>
