<svg width="30" height="30" viewBox="0 0 30 30" fill="none" xmlns="http://www.w3.org/2000/svg">
<path fill-rule="evenodd" clip-rule="evenodd" d="M8.73104 16.526C8.46797 17.1517 8.21916 17.7455 7.96806 18.3382C7.93689 18.4118 7.95723 18.4351 8.03217 18.4349C8.48182 18.434 8.9315 18.4339 9.38115 18.4353C9.45169 18.4356 9.48007 18.4215 9.44907 18.3436C9.21289 17.7501 8.97935 17.1556 8.73104 16.526M13.6987 16.9568C13.6987 17.1766 13.6992 17.3964 13.6983 17.6162C13.698 17.6797 13.6994 17.7318 13.7892 17.7256C14.2422 17.6942 14.698 17.7052 15.1488 17.6476C15.4135 17.6138 15.6745 17.525 15.7546 17.2368C15.894 16.7352 15.7533 16.297 15.1704 16.2112C14.7089 16.1433 14.2438 16.1937 13.7806 16.1788C13.7002 16.1762 13.6981 16.2246 13.6983 16.2827C13.6992 16.5074 13.6987 16.7321 13.6987 16.9568M15.529 18.0997C15.601 18.1266 15.6725 18.155 15.7452 18.1802C16.2272 18.3471 16.4646 18.6942 16.4916 19.195C16.4992 19.3365 16.4981 19.4786 16.5061 19.6201C16.5114 19.7128 16.5261 19.8045 16.576 19.8869C16.6442 19.9992 16.7407 20.0497 16.872 20.0295C16.9989 20.0101 17.0529 19.92 17.0748 19.8083C17.104 19.6591 17.1124 19.5071 17.1052 19.3554C17.1013 19.273 17.1174 19.2349 17.2149 19.2333C17.5588 19.2275 17.5592 19.2232 17.5506 19.5651C17.5454 19.7717 17.5131 19.9734 17.4381 20.1671C17.3092 20.4996 17.0648 20.6882 16.7136 20.7269C16.4594 20.7548 16.2047 20.7385 15.958 20.6642C15.5665 20.5464 15.3565 20.2447 15.3482 19.7973C15.3432 19.5287 15.3597 19.2599 15.3199 18.9918C15.254 18.5478 15.0429 18.3384 14.6035 18.299C14.34 18.2754 14.0758 18.2793 13.8116 18.2766C13.7208 18.2757 13.6945 18.3091 13.6953 18.3964C13.6997 18.8464 13.6958 19.2965 13.7022 19.7464C13.7054 19.9654 13.7696 20.0247 13.985 20.0299C14.1659 20.0344 14.3471 20.0361 14.5279 20.0314C14.6141 20.0292 14.6527 20.0508 14.6474 20.1449C14.6403 20.2717 14.6404 20.3995 14.6474 20.5263C14.6525 20.6202 14.6134 20.6403 14.5276 20.6402C12.7176 20.6383 10.9077 20.6383 9.09767 20.6401C9.0131 20.6402 8.97183 20.6223 8.97732 20.527C8.98466 20.4002 8.98469 20.2724 8.97729 20.1456C8.9718 20.0517 9.00926 20.0295 9.09609 20.0314C9.29652 20.036 9.49727 20.0353 9.6977 20.0298C9.88912 20.0246 9.95561 19.9496 9.92658 19.7591C9.88839 19.5086 9.74124 19.2991 9.64768 19.0693C9.62922 19.0239 9.58293 19.0329 9.54471 19.0329C8.96746 19.0326 8.39024 19.0338 7.81302 19.0312C7.74861 19.0309 7.71673 19.0534 7.69293 19.1107C7.59935 19.3363 7.49969 19.5593 7.40696 19.7852C7.34423 19.938 7.39592 20.0209 7.56521 20.0281C7.77524 20.037 7.98603 20.0398 8.196 20.0321C8.30992 20.028 8.34036 20.0679 8.33276 20.175C8.32407 20.2966 8.32713 20.4195 8.33191 20.5416C8.33496 20.6201 8.30294 20.642 8.22864 20.6418C7.42639 20.64 6.62411 20.64 5.82186 20.6419C5.7466 20.6421 5.71125 20.6188 5.72062 20.5413C5.72238 20.5269 5.72062 20.512 5.72079 20.4974C5.72241 20.3556 5.67665 20.1863 5.73873 20.0798C5.80431 19.9673 5.98824 20.0459 6.11919 20.0272C6.34219 19.9951 6.45782 19.8498 6.53942 19.6616C6.7181 19.2493 6.89614 18.8367 7.07385 18.424C7.45624 17.5357 7.83967 16.6479 8.2184 15.7581C8.26026 15.6598 8.30875 15.6189 8.42129 15.6223C8.72922 15.6315 9.03767 15.6298 9.34572 15.623C9.44948 15.6207 9.49848 15.6529 9.53805 15.7514C10.0423 17.0067 10.5512 18.2602 11.0602 19.5136C11.0951 19.5993 11.1351 19.6836 11.1807 19.7641C11.2802 19.9399 11.4318 20.0325 11.6367 20.0322C11.7834 20.032 11.9302 20.0363 12.0768 20.0322C12.4087 20.0229 12.5382 19.8942 12.5392 19.5632C12.5419 18.7512 12.5407 17.9391 12.54 17.1271C12.5399 16.907 12.5409 16.6868 12.5324 16.4669C12.5247 16.2667 12.4527 16.1957 12.2525 16.1857C12.0915 16.1776 11.9297 16.1765 11.7685 16.1807C11.6769 16.183 11.6327 16.16 11.64 16.0586C11.6478 15.9516 11.6475 15.8431 11.64 15.736C11.6333 15.6402 11.6757 15.6238 11.7604 15.624C12.9491 15.6269 14.1378 15.6239 15.3265 15.6295C15.6301 15.631 15.9314 15.6725 16.22 15.775C16.602 15.9108 16.8648 16.1563 16.9324 16.5728C17.0073 17.0335 16.8939 17.4266 16.5087 17.7169C16.2192 17.9349 15.88 18.0206 15.529 18.0997" fill="#FEFC00"/>
<path fill-rule="evenodd" clip-rule="evenodd" d="M4.40738 10.3865C4.1793 10.9559 3.95263 11.5218 3.72601 12.0877C3.60255 12.396 3.47662 12.7033 3.35753 13.0133C3.32826 13.0895 3.28919 13.1184 3.20741 13.1166C2.9776 13.1117 2.74752 13.1115 2.51774 13.1167C2.43507 13.1185 2.39903 13.0868 2.36923 13.012C1.88351 11.7913 1.39089 10.5734 0.908831 9.35133C0.757364 8.96735 0.5257 8.70666 0.0849468 8.70193C0.0181659 8.70123 0.00237337 8.66946 0.00331271 8.61114C0.00522073 8.49378 0.0113558 8.37572 0.0015221 8.25912C-0.00869316 8.13783 0.0314047 8.10046 0.155368 8.10178C0.747236 8.10798 1.33919 8.10454 1.93112 8.10454C2.09254 8.10454 2.25405 8.10701 2.41541 8.10372C2.4895 8.10222 2.52129 8.12653 2.51838 8.20458C2.51368 8.3316 2.51251 8.45914 2.51885 8.58601C2.52325 8.67431 2.49581 8.70853 2.40399 8.7046C2.30685 8.7004 2.2079 8.70451 2.11171 8.71849C1.90737 8.74816 1.83557 8.86793 1.91674 9.06272C2.28317 9.94203 2.63222 10.8278 2.93768 11.7304C2.94736 11.7591 2.9478 11.8076 2.99363 11.8043C3.03387 11.8013 3.03754 11.7573 3.04972 11.7268C3.36366 10.9423 3.67899 10.1584 3.98982 9.37267C4.0824 9.13863 3.88235 8.79457 3.62568 8.72779C3.48111 8.69016 3.33387 8.70005 3.18766 8.70287C3.10359 8.70451 3.06064 8.68705 3.06616 8.59082C3.07338 8.46404 3.07039 8.33647 3.0671 8.20937C3.06528 8.13768 3.08539 8.10343 3.16535 8.10363C3.98718 8.10566 4.80901 8.10545 5.63087 8.1039C5.70152 8.10375 5.72941 8.13076 5.72178 8.19886C5.72122 8.20367 5.72184 8.20863 5.72178 8.21351C5.72028 8.36506 5.77321 8.55293 5.70275 8.65846C5.62458 8.77555 5.42377 8.69081 5.27712 8.70035C4.98619 8.71928 4.90866 8.83144 5.01827 9.09906C5.37 9.95782 5.71018 10.8211 6.03155 11.6918C6.04699 11.7337 6.04353 11.8047 6.10508 11.8016C6.15152 11.7992 6.15226 11.7349 6.16726 11.6955C6.46089 10.9242 6.75367 10.1525 7.04706 9.38104C7.10339 9.23289 7.1267 9.0794 7.12773 8.92162C7.12843 8.81213 7.07512 8.75016 6.96892 8.72562C6.8092 8.68872 6.64734 8.70073 6.48651 8.70322C6.39645 8.7046 6.36507 8.67519 6.37012 8.58563C6.37646 8.47347 6.37946 8.35998 6.36948 8.24835C6.35879 8.12853 6.40708 8.1017 6.51907 8.10234C7.25771 8.10663 7.99641 8.10454 8.7351 8.10454C10.3641 8.10454 11.9931 8.10654 13.6221 8.10108C13.7656 8.10058 13.8 8.13886 13.7978 8.2792C13.7892 8.82695 13.792 9.37493 13.7964 9.9228C13.7971 10.0221 13.7748 10.0649 13.6678 10.0564C13.5366 10.046 13.3767 10.0943 13.28 10.0348C13.1744 9.96991 13.2467 9.79135 13.2114 9.66636C13.1903 9.5916 13.1882 9.51167 13.1711 9.43555C13.071 8.99083 12.8274 8.77714 12.3719 8.72838C11.8985 8.67771 11.4237 8.70968 10.9495 8.70211C10.8184 8.70002 10.6457 8.65937 10.5667 8.72556C10.4738 8.80329 10.5389 8.98241 10.5366 9.11709C10.5313 9.43006 10.5414 9.74342 10.5318 10.0562C10.5279 10.1832 10.5707 10.2175 10.6894 10.2074C10.8256 10.1959 10.9636 10.2055 11.0998 10.1937C11.358 10.1715 11.4929 10.0524 11.5647 9.79837C11.6036 9.66114 11.6212 9.52065 11.6262 9.37863C11.6292 9.29204 11.6557 9.24404 11.7569 9.25358C11.8587 9.26318 11.9628 9.26277 12.0647 9.25376C12.1732 9.24416 12.1931 9.29104 12.1927 9.38832C12.1894 10.1319 12.1891 10.8755 12.1929 11.619C12.1935 11.7244 12.1694 11.7743 12.0551 11.7607C11.9827 11.7522 11.9085 11.7592 11.8351 11.7592C11.6338 11.7591 11.6327 11.7591 11.6223 11.5506C11.6165 11.433 11.6008 11.3169 11.5719 11.2031C11.505 10.9397 11.3945 10.8396 11.1249 10.8189C10.9594 10.8062 10.7924 10.8149 10.6262 10.8096C10.5558 10.8074 10.5337 10.8341 10.534 10.9032C10.536 11.4119 10.5358 11.9207 10.5342 12.4294C10.534 12.4914 10.5533 12.517 10.6181 12.5155C11.229 12.5014 11.8417 12.5522 12.4508 12.4885C12.875 12.4441 13.0945 12.2323 13.2029 11.8191C13.254 11.6242 13.2764 11.4245 13.2857 11.2247C13.2904 11.1245 13.328 11.1016 13.4179 11.1066C13.53 11.1129 13.6433 11.1148 13.7552 11.1062C13.8616 11.0979 13.9002 11.1286 13.8991 11.242C13.8939 11.8241 13.8951 12.4063 13.8983 12.9884C13.8988 13.0803 13.8762 13.1169 13.7763 13.1168C12.0201 13.1142 10.2639 13.114 8.5077 13.117C8.40017 13.1171 8.37158 13.0768 8.38003 12.9796C8.39142 12.8491 8.32799 12.6852 8.40622 12.596C8.48142 12.5103 8.64642 12.5706 8.77162 12.5657C9.28852 12.5454 9.38465 12.4488 9.38465 11.9354C9.38465 11.0402 9.38492 10.145 9.38412 9.24977C9.38407 9.17665 9.3831 9.10256 9.37171 9.03061C9.33995 8.83033 9.26139 8.7548 9.05721 8.72324C8.84327 8.69016 8.62881 8.69057 8.41444 8.72151C8.2593 8.74391 8.1435 8.82443 8.05908 8.95517C7.9657 9.09974 7.89593 9.2554 7.83666 9.41615C7.39916 10.6029 6.96049 11.7893 6.52743 12.9777C6.48933 13.0823 6.44322 13.1229 6.33023 13.1177C6.12032 13.1081 5.90938 13.1087 5.69941 13.1177C5.59723 13.122 5.5539 13.0815 5.51727 12.993C5.17708 12.1717 4.83308 11.3521 4.48952 10.5323C4.4692 10.4838 4.46107 10.4279 4.40738 10.3865" fill="#FEFC00"/>
<path fill-rule="evenodd" clip-rule="evenodd" d="M25.328 12.1053C25.328 11.8118 25.3307 11.5182 25.3263 11.2247C25.325 11.1385 25.3457 11.101 25.4396 11.1063C25.5713 11.1137 25.7037 11.1096 25.8357 11.1075C25.8963 11.1066 25.9334 11.1178 25.9472 11.1897C26.125 12.1141 26.7862 12.451 27.5791 12.5096C27.8914 12.5327 28.2047 12.5333 28.5085 12.4308C28.8271 12.3234 29.0143 12.1151 29.0451 11.7713C29.0668 11.5293 28.9784 11.3688 28.7488 11.2749C28.5191 11.181 28.272 11.1753 28.0314 11.1366C27.4864 11.049 26.9389 10.9742 26.4076 10.8174C26.3468 10.7994 26.2865 10.7794 26.2267 10.7582C25.5681 10.5253 25.3099 10.1973 25.2784 9.55472C25.2492 8.95865 25.5369 8.49638 26.1087 8.22782C26.6278 7.98403 27.1745 7.96425 27.7311 8.03734C28.1436 8.09147 28.5336 8.20874 28.8755 8.45552C28.921 8.48843 28.9516 8.4908 28.9794 8.43779C28.9953 8.40761 29.0229 8.38193 29.0325 8.35034C29.1181 8.0686 29.3408 8.08833 29.5643 8.10171C29.631 8.10571 29.6433 8.13594 29.6431 8.19394C29.6417 8.71742 29.6415 9.24089 29.6433 9.76437C29.6435 9.82536 29.6261 9.85715 29.5616 9.85296C29.5422 9.85166 29.5225 9.85354 29.5029 9.85346C29.3806 9.85299 29.2458 9.88454 29.1394 9.84321C29.0201 9.79692 29.0623 9.63274 29.013 9.52636C28.9335 9.35467 28.841 9.19266 28.6917 9.07745C28.1354 8.64797 27.5082 8.51253 26.8267 8.67477C26.5659 8.73682 26.3538 8.88823 26.2638 9.16193C26.1649 9.46278 26.2725 9.68273 26.5712 9.78797C26.8448 9.88434 27.1309 9.92209 27.4166 9.96171C27.9393 10.0342 28.464 10.0987 28.969 10.2605C29.672 10.4856 30.0744 10.9047 29.9765 11.868C29.9063 12.5593 29.5089 12.9475 28.7365 13.1212C27.8028 13.3311 26.9188 13.2118 26.1103 12.6749C26.0361 12.6256 26.0111 12.6412 25.9905 12.7146C25.9852 12.7333 25.9768 12.7512 25.9695 12.7693C25.8254 13.129 25.8254 13.1262 25.4424 13.1169C25.3548 13.1148 25.3241 13.0925 25.3259 13.0006C25.3316 12.7023 25.328 12.4038 25.328 12.1053" fill="#FEFC00"/>
<path fill-rule="evenodd" clip-rule="evenodd" d="M28.29 18.1549C28.2884 17.9219 28.2694 17.7176 28.2324 17.5152C28.0861 16.7146 27.5743 16.2293 26.7767 16.1332C26.0491 16.0456 25.3752 16.4122 25.0864 17.0859C24.7937 17.7686 24.7935 18.4693 25.0763 19.1547C25.3402 19.7942 25.9413 20.1609 26.6224 20.1369C27.36 20.1109 27.9173 19.704 28.1532 19.0222C28.2536 18.732 28.2821 18.4317 28.29 18.1549M26.5841 20.6855C25.7934 20.6792 25.0684 20.4811 24.4525 19.9592C23.2742 18.9608 23.2391 16.7227 25.0373 15.866C25.9904 15.4119 26.9773 15.3935 27.9532 15.7933C28.9705 16.2101 29.546 17.1532 29.4909 18.2471C29.4356 19.3432 28.7592 20.1915 27.6677 20.5266C27.5094 20.5751 27.3464 20.6111 27.1834 20.641C26.986 20.6772 26.7852 20.6859 26.5841 20.6855" fill="#FEFC00"/>
<path fill-rule="evenodd" clip-rule="evenodd" d="M22.0969 17.9783C22.449 17.9784 22.8011 17.9816 23.1532 17.9763C23.2507 17.9749 23.2812 18.0061 23.2753 18.1014C23.2672 18.233 23.3168 18.3928 23.2581 18.49C23.1903 18.6021 23.0174 18.5177 22.8913 18.5328C22.7486 18.5499 22.6815 18.6196 22.6807 18.7612C22.6778 19.2991 22.6734 19.8369 22.6704 20.3747C22.6692 20.5884 22.6668 20.5653 22.4648 20.5944C22.2244 20.629 22.1326 20.4867 22.0515 20.3161C21.9974 20.2023 21.9479 20.2056 21.8455 20.2704C21.1613 20.7038 20.4113 20.8772 19.6308 20.6495C18.6376 20.3598 18.0513 19.6297 17.8271 18.6496C17.6129 17.7132 17.8225 16.8528 18.5307 16.1558C18.8096 15.8814 19.1476 15.7126 19.5248 15.6199C20.0826 15.4827 20.6383 15.4862 21.1889 15.6568C21.4104 15.7255 21.6171 15.8274 21.7837 15.992C21.8613 16.0686 21.8892 16.0421 21.9227 15.9592C21.9647 15.8551 22.0229 15.7571 22.059 15.6513C22.0955 15.5442 22.1597 15.5064 22.2675 15.5207C22.3156 15.5271 22.3653 15.5245 22.414 15.5215C22.4867 15.517 22.5196 15.5425 22.5192 15.6211C22.5169 16.1248 22.5173 16.6286 22.5188 17.1323C22.519 17.2001 22.4951 17.2334 22.4254 17.2281C22.4108 17.227 22.3957 17.2262 22.3814 17.2286C22.14 17.2679 22.0022 17.1994 21.8902 16.9455C21.6043 16.2971 21.0363 16.0913 20.3707 16.132C19.7661 16.1689 19.3794 16.526 19.182 17.0745C18.9283 17.7795 18.9419 18.4978 19.194 19.2011C19.5529 20.2029 20.7645 20.2834 21.4039 19.79C21.6132 19.6285 21.7252 19.4136 21.7188 19.1434C21.7158 19.0212 21.7169 18.8989 21.7163 18.7767C21.7155 18.6293 21.6417 18.5469 21.4946 18.5407C21.3384 18.5341 21.1817 18.5304 21.0255 18.5345C20.9409 18.5367 20.92 18.5066 20.9173 18.4254C20.9024 17.9783 20.9003 17.9783 21.3486 17.9783C21.598 17.9783 21.8474 17.9783 22.0969 17.9783" fill="#FEFC00"/>
<path fill-rule="evenodd" clip-rule="evenodd" d="M4.02543 15.6255C4.82269 15.6255 5.61997 15.6292 6.41715 15.6219C6.55159 15.6206 6.57713 15.6609 6.5756 15.7855C6.56888 16.3382 6.56947 16.8909 6.57537 17.4436C6.57657 17.5554 6.54302 17.5905 6.43491 17.5822C6.30851 17.5724 6.15469 17.6184 6.06126 17.5611C5.95541 17.4962 6.03231 17.327 6.00683 17.2059C5.97774 17.0674 5.95279 16.9281 5.92414 16.7895C5.85886 16.474 5.64622 16.3253 5.34449 16.2702C5.18952 16.2419 5.03345 16.2316 4.87755 16.2294C4.44722 16.2232 4.01677 16.2267 3.5864 16.2219C3.49335 16.2209 3.45892 16.2467 3.46015 16.3461C3.46546 16.7667 3.46508 17.1874 3.46039 17.608C3.4593 17.7038 3.48719 17.7384 3.58417 17.7342C3.75498 17.7267 3.92624 17.7372 4.09699 17.7164C4.38146 17.6817 4.50666 17.5645 4.54265 17.2818C4.55747 17.1656 4.5649 17.048 4.56733 16.9309C4.56886 16.8592 4.58685 16.8307 4.66623 16.8269C5.07199 16.8074 5.07184 16.8048 5.07184 17.2093C5.07184 17.8647 5.06923 18.5202 5.07431 19.1755C5.07522 19.2909 5.05447 19.3502 4.92484 19.3339C4.81432 19.32 4.67671 19.3768 4.59748 19.311C4.52128 19.2477 4.57755 19.108 4.56117 19.0031C4.54312 18.8874 4.53645 18.7693 4.511 18.6554C4.46421 18.446 4.32657 18.3283 4.11466 18.2993C3.92979 18.274 3.74362 18.2834 3.55787 18.281C3.47726 18.2799 3.46115 18.3202 3.46159 18.3906C3.46441 18.8308 3.45912 19.271 3.46752 19.7111C3.4726 19.9763 3.53075 20.0267 3.79265 20.0321C3.99798 20.0364 4.20352 20.0373 4.40885 20.0334C4.49116 20.0318 4.52189 20.0579 4.51831 20.1419C4.51268 20.2738 4.51394 20.4061 4.5179 20.538C4.5201 20.6112 4.49859 20.6422 4.41936 20.642C3.46558 20.64 2.5118 20.6403 1.55803 20.6415C1.49274 20.6416 1.45843 20.6252 1.46031 20.5517C1.46398 20.41 1.46389 20.268 1.46031 20.1263C1.45849 20.055 1.48805 20.0332 1.55574 20.0339C1.69262 20.0354 1.82991 20.0362 1.96637 20.0272C2.189 20.0124 2.2817 19.9206 2.30635 19.7001C2.31284 19.642 2.31211 19.5829 2.31214 19.5242C2.31246 18.5803 2.31237 17.6363 2.31234 16.6923C2.31234 16.6678 2.31261 16.6433 2.31211 16.6189C2.30544 16.289 2.21031 16.1914 1.88213 16.1813C1.77951 16.1782 1.67638 16.1741 1.57414 16.1806C1.48138 16.1865 1.4547 16.1489 1.45978 16.0618C1.46571 15.9595 1.46782 15.8559 1.45925 15.7539C1.45056 15.6504 1.48673 15.6214 1.58967 15.6231C1.9613 15.6291 2.3331 15.6255 2.70481 15.6255C3.14503 15.6255 3.58523 15.6255 4.02543 15.6255" fill="#FEFC00"/>
<path fill-rule="evenodd" clip-rule="evenodd" d="M22.387 13.1149C21.6143 13.1149 20.8417 13.1125 20.0691 13.1174C19.951 13.1182 19.8994 13.0923 19.912 12.9653C19.924 12.8443 19.8774 12.6961 19.9325 12.6064C19.9937 12.5066 20.1562 12.5717 20.2734 12.5529C20.5127 12.5145 20.6049 12.436 20.6062 12.1908C20.6113 11.1541 20.6121 10.1175 20.6074 9.08088C20.6062 8.82159 20.5135 8.73109 20.2537 8.70961C20.0933 8.69637 19.9311 8.69913 19.7699 8.7028C19.6879 8.70465 19.6543 8.68022 19.662 8.59554C19.6766 8.43647 19.5953 8.23257 19.6951 8.12983C19.7813 8.04118 19.9833 8.1057 20.1339 8.10535C20.9456 8.1035 21.7574 8.1072 22.5691 8.10159C22.6934 8.10074 22.7344 8.13717 22.7202 8.25773C22.7033 8.40142 22.7816 8.58931 22.6868 8.67917C22.6002 8.76124 22.4162 8.69605 22.2753 8.70253C22.2509 8.70365 22.2264 8.703 22.202 8.704C21.8507 8.71818 21.7735 8.79145 21.7725 9.1461C21.7692 10.2268 21.7707 11.3075 21.771 12.3882C21.771 12.4481 21.7508 12.5175 21.8575 12.5161C22.3562 12.5097 22.8562 12.5296 23.3533 12.4994C23.9119 12.4655 24.1012 12.3699 24.2389 11.636C24.2639 11.5024 24.2705 11.3637 24.27 11.2275C24.2696 11.1284 24.305 11.1014 24.3981 11.1063C24.5248 11.1131 24.6524 11.1114 24.7794 11.1069C24.8564 11.1042 24.8813 11.1341 24.8811 11.2092C24.8792 11.8107 24.878 12.4122 24.8817 13.0136C24.8825 13.1353 24.8045 13.1145 24.7342 13.1146C23.9518 13.1151 23.1694 13.1149 22.387 13.1149" fill="#FEFC00"/>
<path fill-rule="evenodd" clip-rule="evenodd" d="M16.9322 13.1148C16.1254 13.1148 15.3186 13.1128 14.5118 13.117C14.3926 13.1177 14.3263 13.1 14.3459 12.9598C14.3633 12.8356 14.2958 12.6762 14.3736 12.5921C14.4471 12.5128 14.6055 12.5772 14.7259 12.564C14.7891 12.5571 14.8526 12.5531 14.9155 12.5445C15.1168 12.5169 15.2108 12.4264 15.2396 12.2274C15.2494 12.16 15.2512 12.0911 15.2513 12.0229C15.252 11.0987 15.2518 10.1745 15.2517 9.25035C15.2517 9.21613 15.2523 9.18187 15.251 9.14767C15.2399 8.8462 15.1518 8.74461 14.8526 8.71273C14.7121 8.69776 14.5692 8.69814 14.4278 8.70325C14.3288 8.70683 14.2848 8.68076 14.2937 8.57406C14.3021 8.47209 14.3038 8.368 14.2933 8.26637C14.2802 8.13862 14.3217 8.10023 14.4536 8.10134C15.2212 8.10777 15.9889 8.10448 16.7566 8.10448C16.8984 8.10448 17.0404 8.10871 17.182 8.10304C17.2737 8.09935 17.3169 8.12383 17.3102 8.22495C17.3001 8.37536 17.3565 8.56919 17.2822 8.66568C17.2026 8.76918 16.9991 8.68711 16.8505 8.70246C16.8311 8.70445 16.8114 8.70319 16.7918 8.70425C16.4325 8.72333 16.3524 8.80079 16.3516 9.15795C16.349 10.2337 16.3503 11.3094 16.3509 12.3852C16.351 12.4439 16.3276 12.5173 16.435 12.5156C16.958 12.5077 17.4821 12.5393 18.004 12.4993C18.5548 12.4572 18.7305 12.349 18.8701 11.6632C18.8995 11.5189 18.9075 11.372 18.9043 11.2254C18.9024 11.1389 18.9284 11.1012 19.021 11.1064C19.1428 11.1132 19.2658 11.1148 19.3875 11.106C19.4946 11.0982 19.517 11.1413 19.5163 11.2401C19.5122 11.8171 19.5108 12.3941 19.5171 12.971C19.5184 13.0905 19.4786 13.1174 19.3673 13.1169C18.5556 13.113 17.7439 13.1148 16.9322 13.1148" fill="#FEFC00"/>
<rect opacity="0.01" width="30" height="30" fill="#1B1C29"/>
</svg>
