<svg width="37" height="32" viewBox="0 0 37 32" fill="none" xmlns="http://www.w3.org/2000/svg">
<rect width="37" height="32" fill="#3ABC29"/>
<path fill-rule="evenodd" clip-rule="evenodd" d="M16.2771 11.309V23.25H13.2728V11.309H9V9.25003H23.8293C23.8293 9.25003 26.6809 9.27694 27.8057 10.9459C28.9304 12.615 29.2622 16.0119 28.7949 18.6647C28.3275 21.3175 27.352 22.9689 23.9959 23.25C21.8826 23.25 17.1139 23.25 17.1139 23.25V11.9549H20.0535V21.1621H23.0679C23.0679 21.1621 24.7477 20.9942 25.422 19.2767C26.0442 16.9738 25.6378 13.9288 25.6378 13.9288C25.6378 13.9288 25.2385 11.309 22.7418 11.309C20.4784 11.309 16.2771 11.309 16.2771 11.309Z" fill="white"/>
</svg>
