<svg width="27" height="27" viewBox="0 0 27 27" fill="none" xmlns="http://www.w3.org/2000/svg">
<g clip-path="url(#clip0_2784_81718)">
<rect x="0.5" width="26.5" height="26.5" rx="13.25" fill="#F93939"/>
<path d="M34.0667 0H4.03333C2.08193 0 0.5 1.58193 0.5 3.53333V22.9667C0.5 24.9181 2.08193 26.5 4.03333 26.5H34.0667C36.0181 26.5 37.6 24.9181 37.6 22.9667V3.53333C37.6 1.58193 36.0181 0 34.0667 0Z" fill="#F93939"/>
<path fill-rule="evenodd" clip-rule="evenodd" d="M10.2133 12.773L7.61634 14.1387L8.11101 11.2466L6.01221 9.19732L8.91484 8.77862L10.2133 6.14628L11.5101 8.77862L14.4127 9.19732L12.3104 11.2466L12.8086 14.1369L10.2133 12.773ZM16.4002 5.30005H18.1669V7.06672H16.4002V5.30005ZM18.1669 8.83338H19.9335V10.6H18.1669V8.83338ZM18.1669 12.3667H19.9335V14.1334H18.1669V12.3667ZM16.4002 15.9H18.1669V17.6667H16.4002V15.9Z" fill="#FFDA2C"/>
</g>
<defs>
<clipPath id="clip0_2784_81718">
<rect x="0.5" width="26.5" height="26.5" rx="13.25" fill="white"/>
</clipPath>
</defs>
</svg>
