<svg width="27" height="27" viewBox="0 0 27 27" fill="none" xmlns="http://www.w3.org/2000/svg">
<rect width="26.5" height="26.5" rx="13.25" fill="white"/>
<path fill-rule="evenodd" clip-rule="evenodd" d="M19.4333 13.2501C19.4333 16.6651 16.665 19.4334 13.25 19.4334C9.83502 19.4334 7.06665 16.6651 7.06665 13.2501C7.06665 11.2714 11.2183 10.4411 14.7128 10.7538C15.0838 10.6549 15.4831 10.6001 15.9 10.6001C17.8521 10.6001 19.4333 11.7873 19.4333 13.2501Z" fill="#232C80"/>
<path fill-rule="evenodd" clip-rule="evenodd" d="M12.3667 12.3667C12.3667 12.3667 13.9478 10.6 15.9 10.6C17.8521 10.6 19.4333 11.7872 19.4333 13.25C19.4333 9.83502 16.665 7.06665 13.25 7.06665C10.782 7.06665 8.65135 8.51178 7.66025 10.6035C7.06665 12.3667 7.06665 12.8825 7.06665 13.25C7.94998 14.1333 8.93225 14.1333 9.71665 14.1333C10.5011 14.1333 11.206 13.7924 11.6918 13.25L12.3667 12.3667Z" fill="#F93939"/>
<path fill-rule="evenodd" clip-rule="evenodd" d="M21.2 8.83338H24.7333L21.2 5.30005H19.4333L21.2 8.83338ZM5.3 8.83338H1.76666L5.3 5.30005H7.06666L5.3 8.83338ZM21.2 17.6667H24.7333L21.2 21.2H19.4333L21.2 17.6667ZM5.3 17.6667H1.76666L5.3 21.2H7.06666L5.3 17.6667Z" fill="#151515"/>
</svg>
