<svg width="18" height="14" viewBox="0 0 18 14" fill="none" xmlns="http://www.w3.org/2000/svg">
<path fill-rule="evenodd" clip-rule="evenodd" d="M2.93889 6.6215C1.96074 5.03131 1.21187 3.51694 2.15674 2.08023C2.18078 3.40785 3.31424 4.73177 2.93889 6.6215Z" fill="#C4C4C4"/>
<path fill-rule="evenodd" clip-rule="evenodd" d="M2.15674 2.08023C1.21187 3.51694 1.96074 5.03871 2.93889 6.6215C2.68002 4.90188 1.68893 3.84792 2.15674 2.08023Z" fill="url(#paint0_radial_341_13307)"/>
<path fill-rule="evenodd" clip-rule="evenodd" d="M2.15656 2.08023C1.68875 3.85347 2.67984 4.90188 2.93871 6.6215C3.30852 4.73177 2.1806 3.40785 2.15656 2.08023Z" fill="url(#paint1_radial_341_13307)"/>
<path fill-rule="evenodd" clip-rule="evenodd" d="M2.03834 2.80508C2.15483 4.35829 2.72803 5.1053 2.93882 6.62152C2.5986 5.1959 1.93664 4.00512 2.03834 2.80508Z" fill="url(#paint2_radial_341_13307)"/>
<path fill-rule="evenodd" clip-rule="evenodd" d="M1.01398 2.11908C1.16561 4.25288 3.44363 5.84307 3.43069 8.012C1.16561 6.22212 -0.195295 4.3139 1.01398 2.11908Z" fill="#B3B3B3"/>
<path fill-rule="evenodd" clip-rule="evenodd" d="M1.01398 2.11908C-0.195295 4.3213 1.16561 6.22212 3.43069 8.012C2.94439 6.71767 2.12341 6.12597 1.48734 5.04243C0.766211 3.81466 0.782852 3.06209 1.01398 2.11908Z" fill="url(#paint3_radial_341_13307)"/>
<path fill-rule="evenodd" clip-rule="evenodd" d="M1.48714 5.04243C2.12322 6.12597 2.94419 6.70657 3.43049 8.012C3.44344 5.84307 1.16541 4.24364 1.01379 2.11908C0.782655 3.06209 0.766014 3.81466 1.48714 5.04243Z" fill="url(#paint4_radial_341_13307)"/>
<path fill-rule="evenodd" clip-rule="evenodd" d="M0.873305 3.04544C1.16545 5.53426 2.72235 5.97064 3.43054 8.01199C2.5393 6.20732 0.867758 5.15151 0.873305 3.04544Z" fill="url(#paint5_radial_341_13307)"/>
<path fill-rule="evenodd" clip-rule="evenodd" d="M4.04644 9.18058C3.50585 8.75173 2.94295 8.35177 2.3601 7.9824C1.05652 7.08191 -0.0954348 6.30162 0.00626294 4.46921C0.716298 5.57864 2.16225 6.25169 3.0461 7.4092C3.46829 7.94766 3.80563 8.54752 4.04644 9.18798V9.18058Z" fill="#BDBDBD"/>
<path fill-rule="evenodd" clip-rule="evenodd" d="M0.00626294 4.4618C-0.0954348 6.31085 1.05652 7.08191 2.3601 7.975C2.94295 8.34437 3.50585 8.74432 4.04644 9.17318C3.10712 7.79934 2.66335 7.60704 1.37456 6.54568C0.450034 5.77463 0.233696 5.33271 0.00626294 4.45441V4.4618Z" fill="url(#paint6_radial_341_13307)"/>
<path fill-rule="evenodd" clip-rule="evenodd" d="M1.3744 6.55309C2.66873 7.61444 3.10696 7.80674 4.04628 9.18059C3.80598 8.53818 3.46862 7.93641 3.04594 7.39626C2.16209 6.23875 0.716138 5.57125 0.00610352 4.45627C0.233537 5.33457 0.44063 5.77649 1.3744 6.54754V6.55309Z" fill="url(#paint7_radial_341_13307)"/>
<path fill-rule="evenodd" clip-rule="evenodd" d="M0.31311 5.34753C1.36707 6.90258 2.70208 7.09119 4.04634 9.18061C3.86144 8.95133 3.58408 8.58892 3.38438 8.36333C2.43767 7.29273 0.969523 6.64557 0.31311 5.34753Z" fill="url(#paint8_radial_341_13307)"/>
<path fill-rule="evenodd" clip-rule="evenodd" d="M4.25891 9.49679C3.55997 9.1991 2.76488 9.05672 2.16209 8.77567C1.11553 8.28752 0.472057 7.94175 0.144775 6.39224C0.902886 7.2613 1.8496 7.47763 2.83884 8.05639C3.43725 8.39222 3.9293 8.88939 4.25891 9.49125V9.49679Z" fill="#D1D1D1"/>
<path fill-rule="evenodd" clip-rule="evenodd" d="M0.144775 6.39224C0.472057 7.94175 1.11553 8.28752 2.16209 8.77567C2.76488 9.05672 3.55997 9.1991 4.25891 9.49679C3.41389 8.73684 2.99601 8.65363 1.94575 8.10816C0.864055 7.55345 0.599642 7.30937 0.144775 6.39224Z" fill="url(#paint9_radial_341_13307)"/>
<path fill-rule="evenodd" clip-rule="evenodd" d="M0.144775 6.39224C0.599642 7.31677 0.864055 7.5479 1.94575 8.10816C2.99601 8.66287 3.41389 8.73684 4.25891 9.49679C3.9293 8.89493 3.43725 8.39776 2.83884 8.06193C1.8496 7.47763 0.902886 7.2613 0.144775 6.39779V6.39224Z" fill="url(#paint10_radial_341_13307)"/>
<path fill-rule="evenodd" clip-rule="evenodd" d="M0.518188 7.04492C1.51113 8.08779 3.15863 8.41507 4.25882 9.49676C3.1235 8.61291 1.27445 8.08039 0.518188 7.04492Z" fill="url(#paint11_radial_341_13307)"/>
<path fill-rule="evenodd" clip-rule="evenodd" d="M4.29031 9.43023C2.99598 9.85366 1.587 9.71868 0.950928 8.33374C1.783 8.9014 3.36764 8.92174 4.29031 9.43023Z" fill="#E6E6E6"/>
<path fill-rule="evenodd" clip-rule="evenodd" d="M4.29031 9.43023C3.0385 9.2786 1.7756 9.37476 0.950928 8.33374C1.587 9.71868 2.98488 9.85366 4.29031 9.43023Z" fill="url(#paint12_radial_341_13307)"/>
<path fill-rule="evenodd" clip-rule="evenodd" d="M0.950928 8.32077C1.7756 9.36179 3.0385 9.26563 4.29031 9.41726C3.36579 8.90877 1.783 8.88843 0.950928 8.32077Z" fill="url(#paint13_radial_341_13307)"/>
<path fill-rule="evenodd" clip-rule="evenodd" d="M1.35034 8.72571C2.30075 9.28042 3.12358 9.29706 4.29033 9.42465C3.24562 9.42465 2.3026 9.42465 1.35034 8.72571Z" fill="url(#paint14_radial_341_13307)"/>
<path fill-rule="evenodd" clip-rule="evenodd" d="M14.2826 6.6215C15.2626 5.03131 16.0096 3.51694 15.0666 2.08023C15.0407 3.40785 13.9091 4.73177 14.2826 6.6215Z" fill="#C4C4C4"/>
<path fill-rule="evenodd" clip-rule="evenodd" d="M15.0665 2.08023C16.0095 3.51694 15.2625 5.03871 14.2825 6.6215C14.5413 4.90188 15.5324 3.84792 15.0665 2.08023Z" fill="url(#paint15_radial_341_13307)"/>
<path fill-rule="evenodd" clip-rule="evenodd" d="M15.0664 2.08023C15.5324 3.85347 14.5413 4.90188 14.2824 6.6215C13.9126 4.73177 15.0405 3.40785 15.0664 2.08023Z" fill="url(#paint16_radial_341_13307)"/>
<path fill-rule="evenodd" clip-rule="evenodd" d="M15.183 2.80508C15.0665 4.35829 14.4933 5.1053 14.2825 6.62152C14.6227 5.1959 15.2847 4.00512 15.183 2.80508Z" fill="url(#paint17_radial_341_13307)"/>
<path fill-rule="evenodd" clip-rule="evenodd" d="M16.2073 2.11908C16.0575 4.24364 13.7795 5.84307 13.7906 8.012C16.0557 6.22212 17.4166 4.3139 16.2073 2.11908Z" fill="#B3B3B3"/>
<path fill-rule="evenodd" clip-rule="evenodd" d="M16.2076 2.11908C17.4169 4.3213 16.056 6.22212 13.7909 8.012C14.2772 6.71767 15.0982 6.12597 15.7342 5.04243C16.4554 3.81466 16.4387 3.06209 16.2076 2.11908Z" fill="url(#paint18_radial_341_13307)"/>
<path fill-rule="evenodd" clip-rule="evenodd" d="M15.7339 5.04243C15.0978 6.12597 14.2769 6.70657 13.7906 8.012C13.7795 5.84307 16.0575 4.24364 16.2073 2.11908C16.4384 3.06209 16.455 3.81466 15.7339 5.04243Z" fill="url(#paint19_radial_341_13307)"/>
<path fill-rule="evenodd" clip-rule="evenodd" d="M16.3481 3.04544C16.056 5.53426 14.4991 5.97064 13.7909 8.01199C14.6821 6.20732 16.3555 5.15151 16.3481 3.04544Z" fill="url(#paint20_radial_341_13307)"/>
<path fill-rule="evenodd" clip-rule="evenodd" d="M13.1752 9.18058C13.7158 8.75173 14.2787 8.35177 14.8615 7.9824C16.1558 7.08191 17.317 6.30162 17.2153 4.46921C16.5053 5.57864 15.0594 6.25169 14.1755 7.4092C13.754 7.94811 13.4167 8.54786 13.1752 9.18798V9.18058Z" fill="#BDBDBD"/>
<path fill-rule="evenodd" clip-rule="evenodd" d="M17.2153 4.4618C17.317 6.31085 16.1651 7.08191 14.8615 7.975C14.2787 8.34437 13.7158 8.74432 13.1752 9.17318C14.1145 7.79934 14.5583 7.60704 15.847 6.54568C16.7827 5.77463 16.9879 5.33271 17.2153 4.45441V4.4618Z" fill="url(#paint21_radial_341_13307)"/>
<path fill-rule="evenodd" clip-rule="evenodd" d="M15.847 6.5531C14.5527 7.61445 14.1145 7.80675 13.1752 9.18059C13.4167 8.54047 13.754 7.94072 14.1755 7.40181C15.0594 6.2443 16.5053 5.5768 17.2153 4.46182C16.9879 5.34012 16.7827 5.78204 15.847 6.5531Z" fill="url(#paint22_radial_341_13307)"/>
<path fill-rule="evenodd" clip-rule="evenodd" d="M16.9084 5.34753C15.8544 6.90258 14.5194 7.09119 13.1752 9.18061C13.3601 8.95133 13.6374 8.58892 13.8371 8.36333C14.7838 7.29273 16.252 6.64557 16.9084 5.34753Z" fill="url(#paint23_radial_341_13307)"/>
<path fill-rule="evenodd" clip-rule="evenodd" d="M12.9642 9.49679C13.6613 9.1991 14.4564 9.05672 15.0592 8.77567C16.1076 8.28752 16.7492 7.94175 17.0765 6.39224C16.3184 7.2613 15.3735 7.47763 14.3825 8.05639C13.7842 8.39185 13.2927 8.88916 12.9642 9.49125V9.49679Z" fill="#D1D1D1"/>
<path fill-rule="evenodd" clip-rule="evenodd" d="M17.0765 6.39224C16.7492 7.94175 16.1076 8.28752 15.0592 8.77567C14.4564 9.05672 13.6613 9.1991 12.9642 9.49679C13.8092 8.73684 14.2253 8.65363 15.2774 8.10816C16.3572 7.55345 16.6217 7.30937 17.0765 6.39224Z" fill="url(#paint24_radial_341_13307)"/>
<path fill-rule="evenodd" clip-rule="evenodd" d="M17.0765 6.39224C16.6217 7.31677 16.3572 7.5479 15.2774 8.10816C14.2253 8.66287 13.8092 8.73684 12.9642 9.49679C13.2927 8.8947 13.7842 8.3974 14.3825 8.06193C15.3735 7.47763 16.3184 7.2613 17.0765 6.39779V6.39224Z" fill="url(#paint25_radial_341_13307)"/>
<path fill-rule="evenodd" clip-rule="evenodd" d="M16.703 7.04492C15.7119 8.08779 14.0626 8.41507 12.9642 9.49676C14.0977 8.61291 15.9486 8.08039 16.703 7.04492Z" fill="url(#paint26_radial_341_13307)"/>
<path fill-rule="evenodd" clip-rule="evenodd" d="M12.9347 9.43023C14.229 9.85366 15.638 9.71868 16.2741 8.33374C15.442 8.9014 13.8574 8.92174 12.9347 9.43023Z" fill="#E6E6E6"/>
<path fill-rule="evenodd" clip-rule="evenodd" d="M12.9347 9.43023C14.1865 9.2786 15.4512 9.37476 16.2741 8.33374C15.638 9.71868 14.2401 9.85366 12.9347 9.43023Z" fill="url(#paint27_radial_341_13307)"/>
<path fill-rule="evenodd" clip-rule="evenodd" d="M16.2628 8.32077C15.44 9.36179 14.1753 9.26563 12.9235 9.41726C13.848 8.90877 15.4308 8.88843 16.2628 8.32077Z" fill="url(#paint28_radial_341_13307)"/>
<path fill-rule="evenodd" clip-rule="evenodd" d="M15.871 8.72571C14.9206 9.28042 14.0978 9.29706 12.931 9.42465C13.9757 9.42465 14.9188 9.42465 15.871 8.72571Z" fill="url(#paint29_radial_341_13307)"/>
<path fill-rule="evenodd" clip-rule="evenodd" d="M8.60978 1.15573L10.971 2.51848L13.3323 3.88123V6.60858V9.33408L10.971 10.6968L8.60978 12.0596L6.2504 10.6968L3.88916 9.33408V6.60858V3.88123L6.2504 2.51848L8.60978 1.15573Z" fill="url(#paint30_radial_341_13307)"/>
<path fill-rule="evenodd" clip-rule="evenodd" d="M8.61144 6.10352e-05L11.4701 1.66421L14.3287 3.31541V9.91836L11.4701 11.5696L8.61144 13.2208L5.75096 11.5696L2.89233 9.91836V3.30616L5.75096 1.66421L8.61144 6.10352e-05ZM8.61144 1.31658L10.9006 2.6442L13.1897 3.96442V9.24531L10.9006 10.5729L8.61329 11.8931L6.32417 10.5729L4.0332 9.24531V3.96442L6.32232 2.6442L8.61144 1.32213V1.31658Z" fill="#999999"/>
<path fill-rule="evenodd" clip-rule="evenodd" d="M6.03572 2.14866C6.89861 1.65558 7.75718 1.1625 8.61144 0.669417V6.10352e-05L5.75096 1.66421L2.89233 3.31541L3.46184 3.64454L6.03572 2.1653V2.14866Z" fill="url(#paint31_radial_341_13307)"/>
<path fill-rule="evenodd" clip-rule="evenodd" d="M8.61152 0.663883C7.74863 1.15696 6.89005 1.65004 6.03579 2.14312L3.46191 3.62236L4.03327 3.95149L6.32239 2.63127L8.61152 1.3092V0.65094V0.663883Z" fill="url(#paint32_radial_341_13307)"/>
<path fill-rule="evenodd" clip-rule="evenodd" d="M8.61145 0.663869L11.1853 2.14311L13.7592 3.62235L14.3287 3.29322L11.4701 1.66421L8.61145 6.10352e-05V0.658322V0.663869Z" fill="url(#paint33_radial_341_13307)"/>
<path fill-rule="evenodd" clip-rule="evenodd" d="M11.1853 2.14864L8.61145 0.669403V1.32766L10.9006 2.64419L13.1897 3.96441L13.7611 3.63528L11.1872 2.15604L11.1853 2.14864Z" fill="url(#paint34_radial_341_13307)"/>
<path fill-rule="evenodd" clip-rule="evenodd" d="M13.1879 3.96441V9.2453L13.7592 9.57443V3.63528L13.1879 3.96441Z" fill="url(#paint35_radial_341_13307)"/>
<path fill-rule="evenodd" clip-rule="evenodd" d="M13.7595 3.63528V9.57998L14.329 9.90911V3.30615L13.7595 3.63528Z" fill="url(#paint36_radial_341_13307)"/>
<path fill-rule="evenodd" clip-rule="evenodd" d="M3.46184 6.60855V3.63528L2.89233 3.30615V9.90911L3.46184 9.57998V6.60855Z" fill="url(#paint37_radial_341_13307)"/>
<path fill-rule="evenodd" clip-rule="evenodd" d="M3.46191 3.63528V9.57998L4.03327 9.2453V3.96441L3.46191 3.63528Z" fill="url(#paint38_radial_341_13307)"/>
<path fill-rule="evenodd" clip-rule="evenodd" d="M6.32239 10.5729L4.03327 9.2453L3.46191 9.57443L6.03579 11.0537L8.61152 12.5329V11.8746L6.32239 10.5544V10.5729Z" fill="url(#paint39_radial_341_13307)"/>
<path fill-rule="evenodd" clip-rule="evenodd" d="M6.03572 11.0666L3.46184 9.58737L2.89233 9.9165L5.75096 11.5677L8.61144 13.2189V12.5588L6.03572 11.0796V11.0666Z" fill="url(#paint40_radial_341_13307)"/>
<path fill-rule="evenodd" clip-rule="evenodd" d="M10.9009 10.5729L8.61365 11.8931V12.5514L11.1875 11.0722L13.7614 9.59292L13.1882 9.2453L10.9009 10.5729Z" fill="url(#paint41_radial_341_13307)"/>
<path fill-rule="evenodd" clip-rule="evenodd" d="M11.1853 11.0666L8.61145 12.5459V13.206L11.4701 11.5548L14.3287 9.90356L13.7592 9.57443L11.1853 11.0537V11.0666Z" fill="url(#paint42_radial_341_13307)"/>
<path style="mix-blend-mode:multiply" fill-rule="evenodd" clip-rule="evenodd" d="M4.0332 4.83903C4.4289 4.08647 6.70323 2.63127 7.96613 1.94897C8.16378 1.83802 8.38664 1.77974 8.6133 1.77974C8.83996 1.77974 9.06282 1.83802 9.26047 1.94897C10.5234 2.63127 12.7921 4.08647 13.1934 4.83903V3.96444L10.9006 2.64421L8.6133 1.32214L6.32233 2.64421L4.0332 3.96444V4.83903Z" fill="url(#paint43_radial_341_13307)"/>
<path style="mix-blend-mode:screen" fill-rule="evenodd" clip-rule="evenodd" d="M5.64758 2.37426L8.55799 0.617662L8.60976 0.0795898L8.61531 0.0906837L8.65414 0.612116L10.3349 1.65868L8.60976 0.7397L5.64758 2.37426Z" fill="url(#paint44_radial_341_13307)"/>
<path style="mix-blend-mode:screen" fill-rule="evenodd" clip-rule="evenodd" d="M5.55682 2.42603L3.43781 3.55949L3.09204 3.42081L3.39528 3.66674L3.46185 6.93031L3.55985 3.69078L5.55682 2.42603Z" fill="url(#paint45_radial_341_13307)"/>
<path style="mix-blend-mode:screen" fill-rule="evenodd" clip-rule="evenodd" d="M4.74902 10.3233L8.55252 12.6605L8.60984 13.0562L8.66346 12.6605L10.6179 11.3939L8.60984 12.4497L4.74902 10.3233Z" fill="url(#paint46_radial_341_13307)"/>
<path style="mix-blend-mode:screen" fill-rule="evenodd" clip-rule="evenodd" d="M7.06961 3.93852C6.19132 4.44516 5.29268 4.6578 4.69359 4.55056C4.45691 4.50803 4.19619 4.31203 4.61038 4.0735L8.41572 1.87499C8.82991 1.63646 8.86874 1.96004 8.78553 2.18563C8.57844 2.75883 7.94606 3.43189 7.06776 3.93852H7.06961Z" fill="url(#paint47_radial_341_13307)"/>
<path fill-rule="evenodd" clip-rule="evenodd" d="M8.6115 3.25439L9.5989 5.24767L11.8011 5.57125L10.2109 7.12815L10.5826 9.32113L8.6115 8.2912L6.63857 9.32113L7.01023 7.12815L5.42004 5.57125L7.62226 5.24767L8.6115 3.25439Z" fill="#B05B00"/>
<path fill-rule="evenodd" clip-rule="evenodd" d="M8.6115 6.60858L5.42004 5.57126L7.01023 7.12816L8.6115 6.60858Z" fill="url(#paint48_radial_341_13307)"/>
<path fill-rule="evenodd" clip-rule="evenodd" d="M5.42004 5.57123L8.6115 6.60855L7.62226 5.24765L5.42004 5.57123Z" fill="url(#paint49_radial_341_13307)"/>
<path fill-rule="evenodd" clip-rule="evenodd" d="M7.62231 5.24767L8.61156 6.60857V3.25439L7.62231 5.24767Z" fill="url(#paint50_radial_341_13307)"/>
<path fill-rule="evenodd" clip-rule="evenodd" d="M8.61145 3.25439V6.60857L9.59884 5.24767L8.61145 3.25439Z" fill="url(#paint51_radial_341_13307)"/>
<path fill-rule="evenodd" clip-rule="evenodd" d="M9.59884 5.24765L8.61145 6.60855L11.8011 5.57123L9.59884 5.24765Z" fill="url(#paint52_radial_341_13307)"/>
<path fill-rule="evenodd" clip-rule="evenodd" d="M11.8011 5.57126L8.61145 6.60858L10.2109 7.12816L11.8011 5.57126Z" fill="url(#paint53_radial_341_13307)"/>
<path fill-rule="evenodd" clip-rule="evenodd" d="M10.2109 7.12813L8.61145 6.60855L10.5825 9.32111L10.2109 7.12813Z" fill="url(#paint54_radial_341_13307)"/>
<path fill-rule="evenodd" clip-rule="evenodd" d="M10.5825 9.32111L8.61145 6.60855V8.29118L10.5825 9.32111Z" fill="url(#paint55_radial_341_13307)"/>
<path fill-rule="evenodd" clip-rule="evenodd" d="M8.61149 8.29118V6.60855L6.63855 9.32111L8.61149 8.29118Z" fill="url(#paint56_radial_341_13307)"/>
<path fill-rule="evenodd" clip-rule="evenodd" d="M6.63855 9.32111L8.61149 6.60855L7.01021 7.12813L6.63855 9.32111Z" fill="url(#paint57_radial_341_13307)"/>
<path style="mix-blend-mode:screen" fill-rule="evenodd" clip-rule="evenodd" d="M5.90833 5.73212L8.45262 6.39223C8.38044 6.24477 8.32701 6.08885 8.2936 5.92812L8.61164 3.41156V6.61042L5.90833 5.73212Z" fill="url(#paint58_radial_341_13307)"/>
<path style="mix-blend-mode:screen" fill-rule="evenodd" clip-rule="evenodd" d="M8.61145 6.60858C8.77478 6.39944 9.00767 6.25577 9.26786 6.20364L11.5348 5.64893L8.61145 6.59934V6.60858Z" fill="url(#paint59_radial_341_13307)"/>
<path style="mix-blend-mode:screen" fill-rule="evenodd" clip-rule="evenodd" d="M8.61164 6.60855C8.30072 6.79789 8.02741 7.04299 7.80545 7.33153L6.64795 9.32111L8.62088 6.60855H8.61164Z" fill="url(#paint60_radial_341_13307)"/>
<defs>
<radialGradient id="paint0_radial_341_13307" cx="0" cy="0" r="1" gradientUnits="userSpaceOnUse" gradientTransform="translate(2.35459 1.53476) scale(4.4747)">
<stop stop-color="#FFC600"/>
<stop offset="1" stop-color="#D64F00"/>
</radialGradient>
<radialGradient id="paint1_radial_341_13307" cx="0" cy="0" r="1" gradientUnits="userSpaceOnUse" gradientTransform="translate(2.59848 1.88978) scale(4.44511)">
<stop stop-color="#FFEB68"/>
<stop offset="1" stop-color="#E67D2D"/>
</radialGradient>
<radialGradient id="paint2_radial_341_13307" cx="0" cy="0" r="1" gradientUnits="userSpaceOnUse" gradientTransform="translate(2.21769 2.86795) scale(3.66297)">
<stop stop-color="#FF9900"/>
<stop offset="1" stop-color="#C44800"/>
</radialGradient>
<radialGradient id="paint3_radial_341_13307" cx="0" cy="0" r="1" gradientUnits="userSpaceOnUse" gradientTransform="translate(1.64266 1.66791) scale(5.43436)">
<stop stop-color="#FFC600"/>
<stop offset="1" stop-color="#D64F00"/>
</radialGradient>
<radialGradient id="paint4_radial_341_13307" cx="0" cy="0" r="1" gradientUnits="userSpaceOnUse" gradientTransform="translate(1.31518 2.25036) scale(4.64481)">
<stop stop-color="#FFEB68"/>
<stop offset="1" stop-color="#E67D2D"/>
</radialGradient>
<radialGradient id="paint5_radial_341_13307" cx="0" cy="0" r="1" gradientUnits="userSpaceOnUse" gradientTransform="translate(0.973153 3.07503) scale(4.8704)">
<stop stop-color="#FF9900"/>
<stop offset="1" stop-color="#C44800"/>
</radialGradient>
<radialGradient id="paint6_radial_341_13307" cx="0" cy="0" r="1" gradientUnits="userSpaceOnUse" gradientTransform="translate(0.629392 3.75177) scale(5.24945 5.24945)">
<stop stop-color="#FFC600"/>
<stop offset="1" stop-color="#D64F00"/>
</radialGradient>
<radialGradient id="paint7_radial_341_13307" cx="0" cy="0" r="1" gradientUnits="userSpaceOnUse" gradientTransform="translate(0.276065 4.56351) scale(4.72247 4.72247)">
<stop stop-color="#FFEB68"/>
<stop offset="1" stop-color="#E67D2D"/>
</radialGradient>
<radialGradient id="paint8_radial_341_13307" cx="0" cy="0" r="1" gradientUnits="userSpaceOnUse" gradientTransform="translate(0.658883 5.30501) scale(4.26945)">
<stop stop-color="#FF9900"/>
<stop offset="1" stop-color="#C44800"/>
</radialGradient>
<radialGradient id="paint9_radial_341_13307" cx="0" cy="0" r="1" gradientUnits="userSpaceOnUse" gradientTransform="translate(0.908433 5.56017) scale(4.97764 4.97764)">
<stop stop-color="#FFC600"/>
<stop offset="1" stop-color="#D64F00"/>
</radialGradient>
<radialGradient id="paint10_radial_341_13307" cx="0" cy="0" r="1" gradientUnits="userSpaceOnUse" gradientTransform="translate(0.425831 6.3719) scale(4.21398 4.21398)">
<stop stop-color="#FFEB68"/>
<stop offset="1" stop-color="#E67D2D"/>
</radialGradient>
<radialGradient id="paint11_radial_341_13307" cx="0" cy="0" r="1" gradientUnits="userSpaceOnUse" gradientTransform="translate(1.07475 6.7879) scale(3.8941 3.8941)">
<stop stop-color="#FF9900"/>
<stop offset="1" stop-color="#C44800"/>
</radialGradient>
<radialGradient id="paint12_radial_341_13307" cx="0" cy="0" r="1" gradientUnits="userSpaceOnUse" gradientTransform="translate(1.55557 7.15775) scale(3.57421 3.57421)">
<stop stop-color="#FFC600"/>
<stop offset="1" stop-color="#D64F00"/>
</radialGradient>
<radialGradient id="paint13_radial_341_13307" cx="0" cy="0" r="1" gradientUnits="userSpaceOnUse" gradientTransform="translate(1.35217 8.21722) scale(3.16742 3.16742)">
<stop stop-color="#FFEB68"/>
<stop offset="1" stop-color="#E67D2D"/>
</radialGradient>
<radialGradient id="paint14_radial_341_13307" cx="0" cy="0" r="1" gradientUnits="userSpaceOnUse" gradientTransform="translate(1.67947 8.29488) scale(3.05463 3.05463)">
<stop stop-color="#FF9900"/>
<stop offset="1" stop-color="#C44800"/>
</radialGradient>
<radialGradient id="paint15_radial_341_13307" cx="0" cy="0" r="1" gradientUnits="userSpaceOnUse" gradientTransform="translate(14.8668 1.53476) rotate(180) scale(4.4747)">
<stop stop-color="#FFC600"/>
<stop offset="1" stop-color="#D64F00"/>
</radialGradient>
<radialGradient id="paint16_radial_341_13307" cx="0" cy="0" r="1" gradientUnits="userSpaceOnUse" gradientTransform="translate(14.6226 1.88978) rotate(180) scale(4.44511)">
<stop stop-color="#FFEB68"/>
<stop offset="1" stop-color="#E67D2D"/>
</radialGradient>
<radialGradient id="paint17_radial_341_13307" cx="0" cy="0" r="1" gradientUnits="userSpaceOnUse" gradientTransform="translate(15.0036 2.86795) rotate(180) scale(3.66297 3.66297)">
<stop stop-color="#FF9900"/>
<stop offset="1" stop-color="#C44800"/>
</radialGradient>
<radialGradient id="paint18_radial_341_13307" cx="0" cy="0" r="1" gradientUnits="userSpaceOnUse" gradientTransform="translate(15.5789 1.66791) rotate(180) scale(5.43436)">
<stop stop-color="#FFC600"/>
<stop offset="1" stop-color="#D64F00"/>
</radialGradient>
<radialGradient id="paint19_radial_341_13307" cx="0" cy="0" r="1" gradientUnits="userSpaceOnUse" gradientTransform="translate(15.9059 2.25036) rotate(180) scale(4.64481)">
<stop stop-color="#FFEB68"/>
<stop offset="1" stop-color="#E67D2D"/>
</radialGradient>
<radialGradient id="paint20_radial_341_13307" cx="0" cy="0" r="1" gradientUnits="userSpaceOnUse" gradientTransform="translate(16.2483 3.07503) rotate(180) scale(4.8704)">
<stop stop-color="#FF9900"/>
<stop offset="1" stop-color="#C44800"/>
</radialGradient>
<radialGradient id="paint21_radial_341_13307" cx="0" cy="0" r="1" gradientUnits="userSpaceOnUse" gradientTransform="translate(16.5922 3.75177) rotate(180) scale(5.24945 5.24945)">
<stop stop-color="#FFC600"/>
<stop offset="1" stop-color="#D64F00"/>
</radialGradient>
<radialGradient id="paint22_radial_341_13307" cx="0" cy="0" r="1" gradientUnits="userSpaceOnUse" gradientTransform="translate(16.9454 4.56352) rotate(180) scale(4.72247 4.72247)">
<stop stop-color="#FFEB68"/>
<stop offset="1" stop-color="#E67D2D"/>
</radialGradient>
<radialGradient id="paint23_radial_341_13307" cx="0" cy="0" r="1" gradientUnits="userSpaceOnUse" gradientTransform="translate(16.5626 5.30501) rotate(180) scale(4.26945)">
<stop stop-color="#FF9900"/>
<stop offset="1" stop-color="#C44800"/>
</radialGradient>
<radialGradient id="paint24_radial_341_13307" cx="0" cy="0" r="1" gradientUnits="userSpaceOnUse" gradientTransform="translate(16.3129 5.56017) rotate(180) scale(4.97764 4.97764)">
<stop stop-color="#FFC600"/>
<stop offset="1" stop-color="#D64F00"/>
</radialGradient>
<radialGradient id="paint25_radial_341_13307" cx="0" cy="0" r="1" gradientUnits="userSpaceOnUse" gradientTransform="translate(16.7955 6.3719) rotate(180) scale(4.21398 4.21398)">
<stop stop-color="#FFEB68"/>
<stop offset="1" stop-color="#E67D2D"/>
</radialGradient>
<radialGradient id="paint26_radial_341_13307" cx="0" cy="0" r="1" gradientUnits="userSpaceOnUse" gradientTransform="translate(16.1464 6.7879) rotate(180) scale(3.8941)">
<stop stop-color="#FF9900"/>
<stop offset="1" stop-color="#C44800"/>
</radialGradient>
<radialGradient id="paint27_radial_341_13307" cx="0" cy="0" r="1" gradientUnits="userSpaceOnUse" gradientTransform="translate(15.6657 7.15775) rotate(180) scale(3.57421 3.57421)">
<stop stop-color="#FFC600"/>
<stop offset="1" stop-color="#D64F00"/>
</radialGradient>
<radialGradient id="paint28_radial_341_13307" cx="0" cy="0" r="1" gradientUnits="userSpaceOnUse" gradientTransform="translate(15.869 8.21722) rotate(180) scale(3.16742 3.16742)">
<stop stop-color="#FFEB68"/>
<stop offset="1" stop-color="#E67D2D"/>
</radialGradient>
<radialGradient id="paint29_radial_341_13307" cx="0" cy="0" r="1" gradientUnits="userSpaceOnUse" gradientTransform="translate(15.5419 8.29488) rotate(180) scale(3.05463)">
<stop stop-color="#FF9900"/>
<stop offset="1" stop-color="#C44800"/>
</radialGradient>
<radialGradient id="paint30_radial_341_13307" cx="0" cy="0" r="1" gradientUnits="userSpaceOnUse" gradientTransform="translate(7.05103 3.29878) scale(8.99193)">
<stop stop-color="#F7FF12"/>
<stop offset="0.7" stop-color="#FFAA00"/>
<stop offset="1" stop-color="#A82200"/>
</radialGradient>
<radialGradient id="paint31_radial_341_13307" cx="0" cy="0" r="1" gradientUnits="userSpaceOnUse" gradientTransform="translate(7.72945 0.336588) scale(14.3375)">
<stop stop-color="#FFF8C7"/>
<stop offset="1" stop-color="#FFC521"/>
</radialGradient>
<radialGradient id="paint32_radial_341_13307" cx="0" cy="0" r="1" gradientUnits="userSpaceOnUse" gradientTransform="translate(9.51755 7.81046) scale(7.80114 7.80114)">
<stop stop-color="#FF9900"/>
<stop offset="1" stop-color="#C44800"/>
</radialGradient>
<radialGradient id="paint33_radial_341_13307" cx="0" cy="0" r="1" gradientUnits="userSpaceOnUse" gradientTransform="translate(6.49984 8.46501) scale(11.9837 11.9837)">
<stop stop-color="#FFEB68"/>
<stop offset="1" stop-color="#E67D2D"/>
</radialGradient>
<radialGradient id="paint34_radial_341_13307" cx="0" cy="0" r="1" gradientUnits="userSpaceOnUse" gradientTransform="translate(6.94915 7.61443) scale(11.1978)">
<stop stop-color="#FFC600"/>
<stop offset="1" stop-color="#D64F00"/>
</radialGradient>
<radialGradient id="paint35_radial_341_13307" cx="0" cy="0" r="1" gradientUnits="userSpaceOnUse" gradientTransform="translate(8.70578 5.59343) scale(9.48376 9.48377)">
<stop stop-color="#FFEB68"/>
<stop offset="1" stop-color="#E67D2D"/>
</radialGradient>
<radialGradient id="paint36_radial_341_13307" cx="0" cy="0" r="1" gradientUnits="userSpaceOnUse" gradientTransform="translate(5.95468 5.82086) scale(10.8188 10.8188)">
<stop stop-color="#FFC600"/>
<stop offset="1" stop-color="#D64F00"/>
</radialGradient>
<radialGradient id="paint37_radial_341_13307" cx="0" cy="0" r="1" gradientUnits="userSpaceOnUse" gradientTransform="translate(-2.18701 3.95702) scale(10.0256 10.0255)">
<stop stop-color="#FFEB68"/>
<stop offset="1" stop-color="#E67D2D"/>
</radialGradient>
<radialGradient id="paint38_radial_341_13307" cx="0" cy="0" r="1" gradientUnits="userSpaceOnUse" gradientTransform="translate(11.7863 6.12595) scale(11.0388 11.0388)">
<stop stop-color="#FFC600"/>
<stop offset="1" stop-color="#D64F00"/>
</radialGradient>
<radialGradient id="paint39_radial_341_13307" cx="0" cy="0" r="1" gradientUnits="userSpaceOnUse" gradientTransform="translate(9.51016 4.13083) scale(10.3011 10.3011)">
<stop stop-color="#FFEB68"/>
<stop offset="1" stop-color="#E67D2D"/>
</radialGradient>
<radialGradient id="paint40_radial_341_13307" cx="0" cy="0" r="1" gradientUnits="userSpaceOnUse" gradientTransform="translate(13.5114 3.6094) scale(12.6031 12.6031)">
<stop stop-color="#FFC600"/>
<stop offset="1" stop-color="#D64F00"/>
</radialGradient>
<radialGradient id="paint41_radial_341_13307" cx="0" cy="0" r="1" gradientUnits="userSpaceOnUse" gradientTransform="translate(12.5299 12.4238) scale(8.96789)">
<stop stop-color="#FFEB68"/>
<stop offset="1" stop-color="#FFAC6B"/>
</radialGradient>
<radialGradient id="paint42_radial_341_13307" cx="0" cy="0" r="1" gradientUnits="userSpaceOnUse" gradientTransform="translate(6.22063 3.68706) scale(10.9778)">
<stop stop-color="#FF9900"/>
<stop offset="1" stop-color="#C44800"/>
</radialGradient>
<radialGradient id="paint43_radial_341_13307" cx="0" cy="0" r="1" gradientUnits="userSpaceOnUse" gradientTransform="translate(8.53379 10.9538) scale(11.9319 11.9319)">
<stop offset="0.26" stop-color="white"/>
<stop offset="0.32" stop-color="#FFF9F4"/>
<stop offset="0.43" stop-color="#FDE8D6"/>
<stop offset="0.58" stop-color="#FCCCA6"/>
<stop offset="0.76" stop-color="#F9A663"/>
<stop offset="0.97" stop-color="#F6750F"/>
<stop offset="1" stop-color="#F56D00"/>
</radialGradient>
<radialGradient id="paint44_radial_341_13307" cx="0" cy="0" r="1" gradientUnits="userSpaceOnUse" gradientTransform="translate(8.32131 -0.19222) scale(11.9356 11.9356)">
<stop stop-color="#FFEF8F"/>
<stop offset="1"/>
</radialGradient>
<radialGradient id="paint45_radial_341_13307" cx="0" cy="0" r="1" gradientUnits="userSpaceOnUse" gradientTransform="translate(3.33612 3.68893) scale(5.86149 5.86148)">
<stop stop-color="#FFEF8F"/>
<stop offset="1"/>
</radialGradient>
<radialGradient id="paint46_radial_341_13307" cx="0" cy="0" r="1" gradientUnits="userSpaceOnUse" gradientTransform="translate(8.62278 13.034) scale(8.81812 8.81812)">
<stop stop-color="#FFEF8F"/>
<stop offset="1"/>
</radialGradient>
<radialGradient id="paint47_radial_341_13307" cx="0" cy="0" r="1" gradientUnits="userSpaceOnUse" gradientTransform="translate(5.16139 0.787744) scale(5.14036)">
<stop stop-color="#FFF2BB"/>
<stop offset="1"/>
</radialGradient>
<radialGradient id="paint48_radial_341_13307" cx="0" cy="0" r="1" gradientUnits="userSpaceOnUse" gradientTransform="translate(6.2928 2.06731) scale(5.09968 5.09968)">
<stop stop-color="#FFC600"/>
<stop offset="1" stop-color="#D64F00"/>
</radialGradient>
<radialGradient id="paint49_radial_341_13307" cx="0" cy="0" r="1" gradientUnits="userSpaceOnUse" gradientTransform="translate(7.89592 4.22882) scale(4.34527)">
<stop stop-color="#FFEB68"/>
<stop offset="1" stop-color="#E67D2D"/>
</radialGradient>
<radialGradient id="paint50_radial_341_13307" cx="0" cy="0" r="1" gradientUnits="userSpaceOnUse" gradientTransform="translate(7.94035 4.19186) scale(5.48429 5.48428)">
<stop stop-color="#FFEB68"/>
<stop offset="1" stop-color="#FFAC6B"/>
</radialGradient>
<radialGradient id="paint51_radial_341_13307" cx="0" cy="0" r="1" gradientUnits="userSpaceOnUse" gradientTransform="translate(5.62709 3.6242) scale(5.38628 5.38628)">
<stop stop-color="#FFC600"/>
<stop offset="1" stop-color="#D64F00"/>
</radialGradient>
<radialGradient id="paint52_radial_341_13307" cx="0" cy="0" r="1" gradientUnits="userSpaceOnUse" gradientTransform="translate(10.3865 3.1083) scale(4.80198)">
<stop stop-color="#FFEB68"/>
<stop offset="1" stop-color="#E67D2D"/>
</radialGradient>
<radialGradient id="paint53_radial_341_13307" cx="0" cy="0" r="1" gradientUnits="userSpaceOnUse" gradientTransform="translate(6.98983 1.30365) scale(6.57337 6.57337)">
<stop stop-color="#FFC600"/>
<stop offset="1" stop-color="#D64F00"/>
</radialGradient>
<radialGradient id="paint54_radial_341_13307" cx="0" cy="0" r="1" gradientUnits="userSpaceOnUse" gradientTransform="translate(12.7921 7.62368) scale(5.07379)">
<stop stop-color="#FFEB68"/>
<stop offset="1" stop-color="#E67D2D"/>
</radialGradient>
<radialGradient id="paint55_radial_341_13307" cx="0" cy="0" r="1" gradientUnits="userSpaceOnUse" gradientTransform="translate(12.1099 6.11485) scale(5.75979 5.75979)">
<stop stop-color="#FFC600"/>
<stop offset="1" stop-color="#D64F00"/>
</radialGradient>
<radialGradient id="paint56_radial_341_13307" cx="0" cy="0" r="1" gradientUnits="userSpaceOnUse" gradientTransform="translate(3.96667 5.19033) scale(5.86889 5.86888)">
<stop stop-color="#FFC600"/>
<stop offset="1" stop-color="#D64F00"/>
</radialGradient>
<radialGradient id="paint57_radial_341_13307" cx="0" cy="0" r="1" gradientUnits="userSpaceOnUse" gradientTransform="translate(7.65923 9.26194) scale(3.62229 3.62229)">
<stop stop-color="#FFC600"/>
<stop offset="1" stop-color="#D64F00"/>
</radialGradient>
<radialGradient id="paint58_radial_341_13307" cx="0" cy="0" r="1" gradientUnits="userSpaceOnUse" gradientTransform="translate(9.02952 5.954) scale(4.55791)">
<stop stop-color="#FFEF8F"/>
<stop offset="1"/>
</radialGradient>
<radialGradient id="paint59_radial_341_13307" cx="0" cy="0" r="1" gradientUnits="userSpaceOnUse" gradientTransform="translate(10.9376 4.78542) scale(4.78719 4.78719)">
<stop stop-color="#FFEF8F"/>
<stop offset="1"/>
</radialGradient>
<radialGradient id="paint60_radial_341_13307" cx="0" cy="0" r="1" gradientUnits="userSpaceOnUse" gradientTransform="translate(5.99708 8.70907) scale(4.11413)">
<stop stop-color="#FFEF8F"/>
<stop offset="1"/>
</radialGradient>
</defs>
</svg>
