<svg width="14" height="14" viewBox="0 0 14 14" fill="none" xmlns="http://www.w3.org/2000/svg">
<path fill-rule="evenodd" clip-rule="evenodd" d="M6.60266 0.860299C7.739 0.860299 8.8498 1.19728 9.7946 1.82863C10.7394 2.45998 11.4758 3.35734 11.9105 4.40721C12.3453 5.45708 12.459 6.6123 12.2371 7.72677C12.0153 8.84124 11.468 9.8649 10.6643 10.6683C9.8607 11.4717 8.83687 12.0187 7.72232 12.2401C6.60778 12.4616 5.45259 12.3476 4.40287 11.9124C3.35314 11.4773 2.45602 10.7407 1.82498 9.7957C1.19393 8.8507 0.857301 7.73978 0.857666 6.60345C0.857423 5.84902 1.00587 5.10195 1.29452 4.40492C1.58317 3.7079 2.00636 3.0746 2.53991 2.54123C3.07345 2.00786 3.70689 1.58487 4.404 1.29644C5.10111 1.00802 5.84824 0.859813 6.60266 0.860299Z" fill="url(#paint0_radial_341_13334)"/>
<path fill-rule="evenodd" clip-rule="evenodd" d="M6.60295 0.000488281C7.90889 0.000488281 9.18551 0.387745 10.2714 1.11329C11.3572 1.83883 12.2035 2.87007 12.7033 4.0766C13.203 5.28313 13.3338 6.61077 13.079 7.89162C12.8243 9.17246 12.1954 10.349 11.2719 11.2724C10.3485 12.1959 9.17197 12.8247 7.89113 13.0795C6.61028 13.3343 5.28265 13.2035 4.07611 12.7038C2.86958 12.204 1.83834 11.3577 1.1128 10.2718C0.387256 9.186 0 7.90938 0 6.60344C0 4.85223 0.695663 3.17274 1.93396 1.93445C3.17225 0.696155 4.85174 0.000488281 6.60295 0.000488281ZM6.60295 1.14135C7.68325 1.14135 8.73929 1.4617 9.63753 2.06188C10.5358 2.66206 11.2359 3.51512 11.6493 4.51319C12.0627 5.51126 12.1708 6.6095 11.9601 7.66904C11.7493 8.72859 11.2291 9.70184 10.4652 10.4657C9.70135 11.2296 8.7281 11.7498 7.66856 11.9606C6.60901 12.1713 5.51077 12.0632 4.5127 11.6498C3.51463 11.2363 2.66157 10.5363 2.06139 9.63802C1.46121 8.73978 1.14086 7.68374 1.14086 6.60344C1.14135 5.15496 1.71698 3.76594 2.74121 2.7417C3.76545 1.71747 5.15447 1.14184 6.60295 1.14135Z" fill="#808080"/>
<path fill-rule="evenodd" clip-rule="evenodd" d="M6.60296 0.571844C7.79634 0.571844 8.96292 0.925747 9.95515 1.58879C10.9474 2.25184 11.7207 3.19424 12.1773 4.29682C12.6339 5.3994 12.7533 6.61262 12.5203 7.78304C12.2874 8.95347 11.7126 10.0285 10.8686 10.8722C10.0246 11.716 8.94938 12.2904 7.77889 12.523C6.60839 12.7556 5.39521 12.6359 4.29277 12.1789C3.19034 11.722 2.24817 10.9484 1.58543 9.95595C0.922688 8.96351 0.569142 7.79683 0.569508 6.60344C0.569265 5.81114 0.725171 5.02655 1.02832 4.29454C1.33146 3.56252 1.7759 2.89742 2.33623 2.33726C2.89656 1.7771 3.5618 1.33287 4.29391 1.02995C5.02602 0.727025 5.81065 0.571358 6.60296 0.571844ZM6.60296 0.000488281C5.29702 0.000488281 4.0204 0.387745 2.93455 1.11329C1.8487 1.83883 1.00239 2.87007 0.502623 4.0766C0.00286101 5.28313 -0.1279 6.61077 0.126877 7.89162C0.381653 9.17246 1.01052 10.349 1.93396 11.2724C2.8574 12.1959 4.03394 12.8247 5.31478 13.0795C6.59563 13.3343 7.92326 13.2035 9.1298 12.7038C10.3363 12.204 11.3676 11.3577 12.0931 10.2718C12.8187 9.186 13.2059 7.90938 13.2059 6.60344C13.2059 4.85223 12.5102 3.17274 11.272 1.93445C10.0337 0.696155 8.35417 0.000488281 6.60296 0.000488281Z" fill="url(#paint1_radial_341_13334)"/>
<path style="mix-blend-mode:multiply" fill-rule="evenodd" clip-rule="evenodd" d="M6.60266 0.860299C7.739 0.860299 8.8498 1.19728 9.7946 1.82863C10.7394 2.45998 11.4758 3.35734 11.9105 4.40721C12.3453 5.45708 12.459 6.6123 12.2371 7.72677C12.0153 8.84124 11.468 9.8649 10.6643 10.6683C9.8607 11.4717 8.83687 12.0187 7.72232 12.2401C6.60778 12.4616 5.45259 12.3476 4.40287 11.9124C3.35314 11.4773 2.45602 10.7407 1.82498 9.7957C1.19393 8.8507 0.857301 7.73978 0.857666 6.60345C0.857423 5.84902 1.00587 5.10195 1.29452 4.40492C1.58317 3.7079 2.00636 3.0746 2.53991 2.54123C3.07345 2.00786 3.70689 1.58487 4.404 1.29644C5.10111 1.00802 5.84824 0.859813 6.60266 0.860299Z" fill="url(#paint2_radial_341_13334)"/>
<path style="mix-blend-mode:screen" fill-rule="evenodd" clip-rule="evenodd" d="M6.47726 1.9161C7.11149 2.55032 6.60485 4.08503 5.34379 5.34608C4.08274 6.60714 2.54618 7.11378 1.91196 6.47955C1.27774 5.84533 1.78622 4.30877 3.04543 3.04956C4.30463 1.79036 5.84304 1.28002 6.47726 1.9161Z" fill="url(#paint3_radial_341_13334)"/>
<path style="mix-blend-mode:screen" fill-rule="evenodd" clip-rule="evenodd" d="M11.2774 7.83306C11.6472 8.20287 11.1701 9.26792 10.2179 10.2183C9.2656 11.1687 8.19869 11.644 7.83073 11.2778C7.46277 10.9117 7.93983 9.84298 8.89024 8.89072C9.84065 7.93846 10.9113 7.46325 11.2774 7.83306Z" fill="url(#paint4_radial_341_13334)"/>
<path style="mix-blend-mode:multiply" fill-rule="evenodd" clip-rule="evenodd" d="M6.60298 1.57402C9.26006 1.57402 11.4771 3.38054 12.004 5.78615C11.8091 4.49321 11.1569 3.31307 10.1658 2.46018C9.1747 1.60728 7.91053 1.13822 6.60298 1.13822C5.29542 1.13822 4.03125 1.60728 3.04015 2.46018C2.04906 3.31307 1.3968 4.49321 1.2019 5.78615C1.72703 3.38239 3.94589 1.57402 6.60298 1.57402Z" fill="url(#paint5_radial_341_13334)"/>
<path style="mix-blend-mode:multiply" fill-rule="evenodd" clip-rule="evenodd" d="M11.8284 9.62109C11.0275 11.0059 9.71028 12.0166 8.16541 12.4316L8.31148 12.9864C10.0028 12.5318 11.445 11.4254 12.3221 9.90955L11.8284 9.62479V9.62109Z" fill="url(#paint6_radial_341_13334)"/>
<path style="mix-blend-mode:multiply" fill-rule="evenodd" clip-rule="evenodd" d="M12.6345 6.60344C12.6374 7.13057 12.5716 7.65583 12.4385 8.16589L12.9932 8.31381C13.1422 7.75592 13.2175 7.18089 13.2169 6.60344H12.6345Z" fill="url(#paint7_radial_341_13334)"/>
<path fill-rule="evenodd" clip-rule="evenodd" d="M6.60289 2.37096L7.851 4.88566L10.6264 5.29615L8.62205 7.25984L9.08987 10.0279L6.60289 8.72614L4.11592 10.0279L4.58373 7.25984L2.57751 5.29615L5.35478 4.88566L6.60289 2.37096Z" fill="#B05B00"/>
<path fill-rule="evenodd" clip-rule="evenodd" d="M6.60289 6.60344L2.57751 5.29617L4.58373 7.25986L6.60289 6.60344Z" fill="url(#paint8_radial_341_13334)"/>
<path fill-rule="evenodd" clip-rule="evenodd" d="M2.57751 5.29617L6.60289 6.60345L5.35478 4.88568L2.57751 5.29617Z" fill="url(#paint9_radial_341_13334)"/>
<path fill-rule="evenodd" clip-rule="evenodd" d="M5.35461 4.88566L6.60272 6.60343V2.37096L5.35461 4.88566Z" fill="url(#paint10_radial_341_13334)"/>
<path fill-rule="evenodd" clip-rule="evenodd" d="M6.60278 2.37096V6.60343L7.85089 4.88566L6.60278 2.37096Z" fill="url(#paint11_radial_341_13334)"/>
<path fill-rule="evenodd" clip-rule="evenodd" d="M7.85089 4.88568L6.60278 6.60345L10.6263 5.29617L7.85089 4.88568Z" fill="url(#paint12_radial_341_13334)"/>
<path fill-rule="evenodd" clip-rule="evenodd" d="M10.6263 5.29617L6.60278 6.60344L8.62194 7.25986L10.6263 5.29617Z" fill="url(#paint13_radial_341_13334)"/>
<path fill-rule="evenodd" clip-rule="evenodd" d="M8.62194 7.25985L6.60278 6.60344L9.08976 10.0279L8.62194 7.25985Z" fill="url(#paint14_radial_341_13334)"/>
<path fill-rule="evenodd" clip-rule="evenodd" d="M9.08976 10.0279L6.60278 6.60344V8.72615L9.08976 10.0279Z" fill="url(#paint15_radial_341_13334)"/>
<path fill-rule="evenodd" clip-rule="evenodd" d="M6.60294 8.72615V6.60344L4.11597 10.0279L6.60294 8.72615Z" fill="url(#paint16_radial_341_13334)"/>
<path fill-rule="evenodd" clip-rule="evenodd" d="M4.11597 10.0279L6.60294 6.60344L4.58378 7.25985L4.11597 10.0279Z" fill="url(#paint17_radial_341_13334)"/>
<path style="mix-blend-mode:screen" fill-rule="evenodd" clip-rule="evenodd" d="M3.19324 5.49586L6.40318 6.32978C6.31252 6.14328 6.24484 5.94646 6.20164 5.74363L6.60288 2.56882V6.60344L3.19324 5.49401V5.49586Z" fill="url(#paint18_radial_341_13334)"/>
<path style="mix-blend-mode:screen" fill-rule="evenodd" clip-rule="evenodd" d="M6.60278 6.60344C6.80933 6.34012 7.10308 6.15915 7.43116 6.0931L10.2916 5.40526L6.60278 6.60344Z" fill="url(#paint19_radial_341_13334)"/>
<path style="mix-blend-mode:screen" fill-rule="evenodd" clip-rule="evenodd" d="M6.60292 6.60344C6.21103 6.8433 5.86635 7.15288 5.58594 7.51687L4.1178 10.0279L6.60477 6.60344H6.60292Z" fill="url(#paint20_radial_341_13334)"/>
<path style="mix-blend-mode:screen" fill-rule="evenodd" clip-rule="evenodd" d="M10.7892 10.7915C9.97035 11.6196 8.93028 12.1943 7.79339 12.4468C6.6565 12.6993 5.47094 12.6189 4.37854 12.2153C5.47449 12.6808 6.68455 12.8082 7.85342 12.5811C9.02229 12.3541 10.0966 11.7829 10.9386 10.9409C11.7806 10.099 12.3517 9.02462 12.5788 7.85575C12.8059 6.68688 12.6785 5.47683 12.213 4.38087C12.6161 5.47334 12.6963 6.65878 12.4438 7.79557C12.1913 8.93236 11.6169 9.97243 10.7892 10.7915Z" fill="url(#paint21_radial_341_13334)"/>
<g style="mix-blend-mode:screen">
<path d="M11.0607 10.6602C10.9114 10.7775 10.7767 10.9122 10.6594 11.0615C10.82 10.9576 10.9568 10.8208 11.0607 10.6602Z" fill="#FFCC14"/>
</g>
<defs>
<radialGradient id="paint0_radial_341_13334" cx="0" cy="0" r="1" gradientUnits="userSpaceOnUse" gradientTransform="translate(3.71075 3.25667) scale(10.473)">
<stop stop-color="#FF5C5C"/>
<stop offset="0.75" stop-color="#A10500"/>
<stop offset="1" stop-color="#850400"/>
</radialGradient>
<radialGradient id="paint1_radial_341_13334" cx="0" cy="0" r="1" gradientUnits="userSpaceOnUse" gradientTransform="translate(2.79946 1.62026) scale(13.0691 13.0691)">
<stop stop-color="#FFEB68"/>
<stop offset="1" stop-color="#C75600"/>
</radialGradient>
<radialGradient id="paint2_radial_341_13334" cx="0" cy="0" r="1" gradientUnits="userSpaceOnUse" gradientTransform="translate(6.60266 6.60345) scale(5.74315)">
<stop offset="0.78" stop-color="white"/>
<stop offset="0.8" stop-color="#FCF9F9"/>
<stop offset="0.83" stop-color="#F5E8E8"/>
<stop offset="0.86" stop-color="#E9CCCC"/>
<stop offset="0.9" stop-color="#D8A5A5"/>
<stop offset="0.94" stop-color="#C37373"/>
<stop offset="0.98" stop-color="#A93737"/>
<stop offset="1" stop-color="#991313"/>
</radialGradient>
<radialGradient id="paint3_radial_341_13334" cx="0" cy="0" r="1" gradientUnits="userSpaceOnUse" gradientTransform="translate(-0.255127 -0.596761) scale(8.37249)">
<stop stop-color="#FF8C9B"/>
<stop offset="1"/>
</radialGradient>
<radialGradient id="paint4_radial_341_13334" cx="0" cy="0" r="1" gradientUnits="userSpaceOnUse" gradientTransform="translate(12.5588 12.7127) scale(5.42142 5.42141)">
<stop stop-color="#FF8C9B"/>
<stop offset="1"/>
</radialGradient>
<radialGradient id="paint5_radial_341_13334" cx="0" cy="0" r="1" gradientUnits="userSpaceOnUse" gradientTransform="translate(6.60298 6.65891) scale(5.47873 5.47873)">
<stop offset="0.9" stop-color="white"/>
<stop offset="0.91" stop-color="#FBF4F4"/>
<stop offset="0.93" stop-color="#EFD6D6"/>
<stop offset="0.95" stop-color="#DBA6A6"/>
<stop offset="0.98" stop-color="#C16464"/>
<stop offset="1" stop-color="#A82525"/>
</radialGradient>
<radialGradient id="paint6_radial_341_13334" cx="0" cy="0" r="1" gradientUnits="userSpaceOnUse" gradientTransform="translate(9.72415 10.6307) scale(3.19146 3.19146)">
<stop stop-color="#B05B00"/>
<stop offset="1" stop-color="white"/>
</radialGradient>
<radialGradient id="paint7_radial_341_13334" cx="0" cy="0" r="1" gradientUnits="userSpaceOnUse" gradientTransform="translate(11.3734 7.12857) scale(2.20406 2.20407)">
<stop stop-color="#B05B00"/>
<stop offset="1" stop-color="white"/>
</radialGradient>
<radialGradient id="paint8_radial_341_13334" cx="0" cy="0" r="1" gradientUnits="userSpaceOnUse" gradientTransform="translate(3.6777 0.876936) scale(6.43469 6.43469)">
<stop stop-color="#FFC600"/>
<stop offset="1" stop-color="#D64F00"/>
</radialGradient>
<radialGradient id="paint9_radial_341_13334" cx="0" cy="0" r="1" gradientUnits="userSpaceOnUse" gradientTransform="translate(5.70056 3.60244) scale(5.48243 5.48243)">
<stop stop-color="#FFEB68"/>
<stop offset="1" stop-color="#E67D2D"/>
</radialGradient>
<radialGradient id="paint10_radial_341_13334" cx="0" cy="0" r="1" gradientUnits="userSpaceOnUse" gradientTransform="translate(5.75771 3.5562) scale(6.91914)">
<stop stop-color="#FFEB68"/>
<stop offset="1" stop-color="#FFAC6B"/>
</radialGradient>
<radialGradient id="paint11_radial_341_13334" cx="0" cy="0" r="1" gradientUnits="userSpaceOnUse" gradientTransform="translate(2.83997 2.83877) scale(6.79526)">
<stop stop-color="#FFC600"/>
<stop offset="1" stop-color="#D64F00"/>
</radialGradient>
<radialGradient id="paint12_radial_341_13334" cx="0" cy="0" r="1" gradientUnits="userSpaceOnUse" gradientTransform="translate(8.84383 2.18792) scale(6.05934 6.05933)">
<stop stop-color="#FFEB68"/>
<stop offset="1" stop-color="#E67D2D"/>
</radialGradient>
<radialGradient id="paint13_radial_341_13334" cx="0" cy="0" r="1" gradientUnits="userSpaceOnUse" gradientTransform="translate(4.55773 -0.088267) scale(8.29299 8.29299)">
<stop stop-color="#FFC600"/>
<stop offset="1" stop-color="#D64F00"/>
</radialGradient>
<radialGradient id="paint14_radial_341_13334" cx="0" cy="0" r="1" gradientUnits="userSpaceOnUse" gradientTransform="translate(11.8781 7.88483) scale(6.39957 6.39956)">
<stop stop-color="#FFEB68"/>
<stop offset="1" stop-color="#E67D2D"/>
</radialGradient>
<radialGradient id="paint15_radial_341_13334" cx="0" cy="0" r="1" gradientUnits="userSpaceOnUse" gradientTransform="translate(11.0165 5.98216) scale(7.26677 7.26677)">
<stop stop-color="#FFC600"/>
<stop offset="1" stop-color="#D64F00"/>
</radialGradient>
<radialGradient id="paint16_radial_341_13334" cx="0" cy="0" r="1" gradientUnits="userSpaceOnUse" gradientTransform="translate(0.743298 4.81541) scale(7.4036 7.4036)">
<stop stop-color="#FFC600"/>
<stop offset="1" stop-color="#D64F00"/>
</radialGradient>
<radialGradient id="paint17_radial_341_13334" cx="0" cy="0" r="1" gradientUnits="userSpaceOnUse" gradientTransform="translate(5.40291 9.95022) scale(4.56901 4.569)">
<stop stop-color="#FFC600"/>
<stop offset="1" stop-color="#D64F00"/>
</radialGradient>
<radialGradient id="paint18_radial_341_13334" cx="0" cy="0" r="1" gradientUnits="userSpaceOnUse" gradientTransform="translate(7.12986 5.77692) scale(5.75054 5.75054)">
<stop stop-color="#FFEF8F"/>
<stop offset="1"/>
</radialGradient>
<radialGradient id="paint19_radial_341_13334" cx="0" cy="0" r="1" gradientUnits="userSpaceOnUse" gradientTransform="translate(9.53723 4.30507) scale(6.039 6.03899)">
<stop stop-color="#FFEF8F"/>
<stop offset="1"/>
</radialGradient>
<radialGradient id="paint20_radial_341_13334" cx="0" cy="0" r="1" gradientUnits="userSpaceOnUse" gradientTransform="translate(3.30422 9.25313) scale(5.19029 5.19028)">
<stop stop-color="#FFEF8F"/>
<stop offset="1"/>
</radialGradient>
<radialGradient id="paint21_radial_341_13334" cx="0" cy="0" r="1" gradientUnits="userSpaceOnUse" gradientTransform="translate(12.2167 12.0655) scale(6.77862 6.77861)">
<stop stop-color="#FFEF8F"/>
<stop offset="1"/>
</radialGradient>
</defs>
</svg>
