<svg width="34" height="34" viewBox="0 0 34 34" fill="none" xmlns="http://www.w3.org/2000/svg">
<g clip-path="url(#clip0_2264_69353)">
<path d="M11.7675 13.8775C11.8979 13.8005 11.9632 13.6671 11.9632 13.4774C11.9632 13.2806 11.9021 13.1425 11.78 13.063C11.6579 12.9836 11.4202 12.9438 11.0668 12.9438H10.761V13.9931H11.0455C11.3963 13.9931 11.6371 13.9547 11.7675 13.8775Z" fill="#FFD79B"/>
<path d="M16.5753 13.2023C16.5468 13.0862 16.51 12.9368 16.465 12.7542C16.4342 12.8822 16.404 13.0044 16.3743 13.1205C16.3446 13.2367 16.3144 13.3481 16.2837 13.4548L15.7607 15.1728H17.1728L16.6428 13.4548C16.6262 13.4028 16.6037 13.3185 16.5753 13.2023Z" fill="#FFD79B"/>
<path d="M11.4323 18.7944C11.4109 18.7073 11.3834 18.5953 11.3496 18.4583C11.3264 18.5543 11.3038 18.6458 11.2816 18.733C11.2593 18.8201 11.2366 18.9037 11.2135 18.9837L10.8214 20.2722H11.8804L11.4829 18.9837C11.4705 18.9447 11.4536 18.8815 11.4323 18.7944Z" fill="#FFD79B"/>
<path d="M31.5181 6.35547H1.96137C0.87275 6.35547 -0.00976562 7.23798 -0.00976562 8.3266V25.201C-0.00976562 26.2896 0.87275 27.1721 1.96137 27.1721H31.5181C32.6067 27.1721 33.4892 26.2896 33.4892 25.201V8.3266C33.4892 7.23798 32.6067 6.35547 31.5181 6.35547ZM2.54108 11.8983H8.30798V12.9302H2.54108V11.8983ZM2.54108 13.9015H8.30798V14.9335H2.54108V13.9015ZM2.54108 16.0868H8.30798V17.1188H2.54108V16.0868ZM5.76297 18.7499H4.88797V21.7324H3.82356V18.7499H2.94864V17.8269H5.76297V18.7499ZM12.2987 21.7324L12.1013 21.0334H10.5887L10.386 21.7324H9.38025H9.32692H8.17712L7.28087 20.2038V21.7324H6.28313V17.8269H7.39557C7.83126 17.8269 8.13492 17.847 8.30654 17.8869C8.47817 17.927 8.62623 17.9941 8.75075 18.0883C8.89129 18.195 8.99925 18.3311 9.07488 18.4965C9.15046 18.6618 9.18827 18.8442 9.18827 19.0433C9.18827 19.3456 9.11401 19.5916 8.96555 19.7809C8.81696 19.9703 8.60045 20.0961 8.3159 20.1585L9.34498 21.6801L10.6741 17.8269H12.008L13.3578 21.7323H12.2987V21.7324ZM13.3574 16.3648C13.24 16.5758 13.0722 16.7395 12.8541 16.8556C12.6763 16.9505 12.4569 17.018 12.1961 17.0584C11.9352 17.0988 11.5083 17.1189 10.9156 17.1189H9.44659V11.9116H10.8729C11.461 11.9116 11.8718 11.9307 12.1053 11.9686C12.3388 12.0065 12.5398 12.0717 12.7083 12.1642C12.9003 12.2709 13.0467 12.4138 13.1475 12.5928C13.2483 12.7718 13.2987 12.9787 13.2987 13.2135C13.2987 13.5099 13.2234 13.7452 13.0728 13.9195C12.9222 14.0938 12.6821 14.226 12.3526 14.3161C12.7225 14.3446 13.0118 14.4744 13.2204 14.7056C13.429 14.9368 13.5335 15.2457 13.5335 15.6322C13.5334 15.9095 13.4748 16.1538 13.3574 16.3648ZM17.5487 21.7324H16.5269L15.0518 19.7156C15.0215 19.6747 14.9739 19.5925 14.9091 19.4689C14.8441 19.3452 14.7734 19.1999 14.6969 19.0327C14.7183 19.1963 14.7338 19.3412 14.7436 19.4675C14.7533 19.5939 14.7583 19.7059 14.7583 19.8037V21.7324H13.7313V17.827H14.7583L16.2335 19.8357C16.262 19.8767 16.3086 19.9588 16.3736 20.0825C16.4385 20.2061 16.5101 20.3532 16.5884 20.5239C16.567 20.3621 16.5515 20.2181 16.5417 20.0918C16.5318 19.9655 16.527 19.8535 16.527 19.7557V17.8269H17.5487V21.7324H17.5487ZM17.4744 16.1869H15.4577L15.1873 17.1188H13.7752L15.5715 11.9116H17.3499L19.1497 17.1188H17.7376L17.4744 16.1869ZM20.5551 21.4589C20.2831 21.7106 19.9202 21.8364 19.4667 21.8364C19.1946 21.8364 18.9469 21.7901 18.7237 21.6977C18.5006 21.6052 18.2859 21.4602 18.0795 21.2628L18.5597 20.4706C18.718 20.6503 18.874 20.7845 19.0279 20.8734C19.1817 20.9623 19.335 21.0068 19.488 21.0068C19.6303 21.0068 19.7472 20.9685 19.8388 20.8921C19.9303 20.8157 19.9762 20.7187 19.9762 20.6013C19.9762 20.4715 19.9366 20.3715 19.8576 20.3012C19.7783 20.2309 19.5993 20.1585 19.32 20.0838C18.9376 19.9807 18.6673 19.8463 18.5091 19.681C18.3508 19.5157 18.2716 19.2889 18.2716 19.0008C18.2716 18.6273 18.3965 18.3228 18.6465 18.0871C18.8962 17.8515 19.2203 17.7337 19.6187 17.7337C19.8339 17.7337 20.038 17.7625 20.231 17.8204C20.4238 17.8782 20.6066 17.9657 20.7791 18.0832L20.4457 18.8487C20.3247 18.7457 20.2006 18.6678 20.0735 18.6154C19.9464 18.5629 19.8205 18.5366 19.696 18.5366C19.5679 18.5366 19.4639 18.5674 19.3839 18.6286C19.3038 18.6901 19.2639 18.7687 19.2639 18.8648C19.2639 18.9626 19.2989 19.0408 19.3692 19.0995C19.4394 19.1582 19.575 19.2142 19.776 19.2675L19.8241 19.2808C20.2579 19.3982 20.5434 19.5273 20.6803 19.6677C20.7728 19.7638 20.8431 19.8788 20.8911 20.0131C20.9391 20.1475 20.9632 20.2963 20.9632 20.46C20.9633 20.8743 20.8272 21.2072 20.5551 21.4589ZM21.218 14.1008C21.1315 13.9361 21.0371 13.7422 20.9353 13.5193C20.9637 13.7375 20.9845 13.9308 20.9975 14.0991C21.0105 14.2674 21.0171 14.4169 21.0171 14.5473V17.1189H19.6477V11.9116H21.0171L22.9841 14.5899C23.0219 14.6446 23.0841 14.7542 23.1708 14.919C23.2573 15.0838 23.3527 15.28 23.4572 15.5076C23.4287 15.2919 23.4078 15.0998 23.3949 14.9314C23.3819 14.7631 23.3753 14.6137 23.3753 14.4833V11.9116H24.7376V17.1189H23.3753L21.4084 14.4299C21.3679 14.3754 21.3046 14.2657 21.218 14.1008ZM23.9537 18.6832H22.5985V19.3607H23.8763V20.1984H22.5985V21.7323H21.5608V17.8269H23.9537V18.6832ZM26.9254 18.6832H25.5702V19.3607H26.8481V20.1984H25.5702V20.8572H26.9254V21.7323H24.5326V17.8269H26.9254V18.6832ZM29.5238 21.7324L28.6274 20.2038V21.7324H27.6297V17.8269H28.7421C29.1778 17.8269 29.4815 17.847 29.6531 17.8869C29.8247 17.927 29.9729 17.9941 30.0972 18.0883C30.2378 18.195 30.3458 18.3311 30.4214 18.4965C30.4969 18.6618 30.5348 18.8442 30.5348 19.0433C30.5348 19.3456 30.4604 19.5916 30.3121 19.7809C30.1635 19.9703 29.947 20.0961 29.6625 20.1585L30.7268 21.7324H29.5238ZM28.956 17.1188L27.2593 14.782V17.1188H25.8544V11.9116H27.2594V14.2768L28.9062 11.9116H30.5602L28.6359 14.4512L30.7273 17.1188H28.956Z" fill="#FFD79B"/>
<path d="M29.336 18.7703C29.2372 18.6875 29.0714 18.6462 28.8384 18.6462H28.6249V19.6733H28.8224C29.0519 19.6733 29.2194 19.6341 29.3252 19.5558C29.431 19.4777 29.484 19.355 29.484 19.1877C29.484 18.9921 29.4347 18.8529 29.336 18.7703Z" fill="#FFD79B"/>
<path d="M11.9916 15.05C11.8636 14.9635 11.6265 14.9202 11.2803 14.9202H10.761V16.0548H11.2589C11.5956 16.0548 11.8339 16.0127 11.9738 15.9285C12.1138 15.8444 12.1837 15.7038 12.1837 15.5071C12.1837 15.2889 12.1197 15.1366 11.9916 15.05Z" fill="#FFD79B"/>
<path d="M7.989 18.7703C7.89033 18.6875 7.72447 18.6462 7.49147 18.6462H7.27811V19.6733H7.47551C7.7049 19.6733 7.87247 19.6341 7.97834 19.5558C8.0842 19.4777 8.13713 19.355 8.13713 19.1877C8.13707 18.9921 8.08773 18.8529 7.989 18.7703Z" fill="#FFD79B"/>
</g>
<defs>
<clipPath id="clip0_2264_69353">
<rect width="33.5" height="33.5" fill="white"/>
</clipPath>
</defs>
</svg>
