<svg width="15" height="15" viewBox="0 0 15 15" fill="none" xmlns="http://www.w3.org/2000/svg">
<g clip-path="url(#clip0_2793_77578)">
<path opacity="0.993" d="M5.00445 5.80078L5.00531 5.78441C5.03758 5.16952 5.21257 4.64194 5.55159 4.22536C5.84515 3.86463 6.24503 3.6076 6.7334 3.44388V3.43884V3.43163V3.42442V3.41721V3.41V3.40279V3.39558V3.38837V3.38116V3.37395V3.36674V3.35953V3.35232V3.34511V3.3379V3.33069V3.32348V3.31627V3.30906V3.30185V3.29464V3.28743V3.28022V3.27301V3.2658V3.25859V3.25138V3.24417V3.23696V3.22975V3.22254V3.21533V3.20812V3.20091V3.1937V3.18649V3.17928V3.17207V3.16486V3.15765V3.15044V3.14323V3.13602V3.12882V3.12161V3.1144V3.10719V3.09998V3.09277V3.08556V3.07835V3.07114V3.06393V3.05672V3.04951V3.0423V3.03509V3.02788V3.02067V3.01346V3.00625V2.99904V2.99183V2.98462V2.97741V2.9702V2.96299V2.95578V2.94857V2.94136V2.93415V2.92694V2.91973V2.91252V2.90531V2.8981V2.89089V2.88368V2.87647V2.86926V2.86205V2.85484V2.84763V2.84042V2.83321V2.826V2.81879V2.81158V2.80437V2.79717V2.78996V2.78275V2.77554V2.76833V2.76112V2.75391V2.7467V2.73949V2.73228V2.72507V2.71786V2.71065V2.70344V2.69623V2.68902V2.68181V2.6746V2.66739V2.66018V2.65297V2.64576V2.63855V2.63134V2.62413V2.61692V2.60971V2.6025V2.59529V2.58808V2.58087V2.57366V2.56645V2.55924V2.55203V2.54482V2.53761V2.5304V2.52319V2.51598V2.50877V2.50156V2.49435V2.48714V2.47993V2.47273V2.46552V2.45831V2.4511V2.44389V2.43668V2.42947V2.42226V2.41505V2.40784V2.40063V2.39342V2.38621V2.379V2.37179V2.36458V2.35737V2.35016V2.34295V2.33574V2.32853V2.32132V2.31411V2.3069V2.29969V2.29248V2.28527V2.27806V2.27085V2.26364V2.25643V2.24922V2.24201V2.2348V2.22759V2.22038V2.21317V2.20596V2.19875V2.19154V2.18433V2.17712V2.16991V2.1627V2.15549V2.14829V2.14108V2.13387V2.12666V2.11945V2.11224V2.10503V2.09782V2.09061V2.0834V2.07619V2.06898V2.06177V2.05456V2.04735V2.04014V2.03293V2.02572V2.01851V2.0113V2.00409V1.99688V1.98967V1.98246V1.97525V1.96804V1.96083V1.95362V1.94641V1.9392V1.93199V1.92478V1.91757V1.91036V1.90315V1.89594V1.88873V1.88152V1.87431V1.8671V1.85989V1.85268V1.84547V1.83826V1.83105V1.82385V1.81664V1.80943V1.80222V1.79501V1.7878V1.78059V1.77338V1.76617V1.75896V1.75175V1.74454V1.73733V1.73012V1.72291V1.7157V1.70849V1.70128V1.69407V1.68686V1.67965V1.67244V1.66523V1.65802V1.65081V1.6436V1.63639V1.62918V1.62197V1.61476V1.60755V1.60034V1.59313V1.58592V1.57871V1.5715V1.56429V1.55708V1.54987V1.54266V1.53545V1.52824V1.52103V1.51382V1.50661V1.49941V1.4922V1.48499V1.47778V1.47057V1.46336V1.45615V1.44894V1.44173V1.43452V1.42731V1.4201V1.41289V1.40568V1.39847V1.39126V1.38405V1.37684V1.36963V1.36242V1.35521V1.348V1.34079V1.33358V1.32637V1.31916V1.31195V1.30474V1.29753V1.29032V1.28311V1.2759V1.26869V1.26148V1.25427V1.24706V1.23985V1.23264V1.22543V1.21822V1.21101V1.2038V1.19659V1.18938V1.18217V1.17497V1.16776V1.16055V1.15334V1.14613V1.13892V1.13171V1.1245V1.11729V1.11008V1.10287V1.09566V1.08845V1.08124V1.07403V1.06682V1.05961V1.0524V1.04519V1.03798V1.03077V1.02356V1.01635V1.00914V1.00193V0.994721V0.987511V0.980301V0.973091V0.965881V0.958672V0.951462V0.944252V0.937042V0.929833V0.922623V0.915413V0.908203V0.900993V0.893784V0.886574V0.879364V0.872154V0.864945V0.857735V0.850525V0.843315V0.836105V0.828896V0.821686V0.814476V0.807266V0.800057V0.792847V0.785637V0.778427V0.771217V0.764008V0.756798V0.749588V0.742378V0.735169V0.727959V0.720749V0.713539V0.706329V0.69912V0.69191V0.6847V0.67749V0.670281V0.663071V0.655861V0.648651V0.641441V0.634232V0.627022V0.619812V0.612602V0.605393V0.598183V0.590973V0.583763V0.576553V0.569344V0.562134V0.554924V0.547714V0.540505V0.533295V0.526085V0.518875V0.511665V0.504456V0.497246V0.490036V0.482826V0.475617V0.468407V0.461197V0.453987V0.446777V0.439568V0.432358V0.425148V0.417938V0.410728V0.403519V0.396309V0.389099V0.381889V0.37468V0.36747V0.36026V0.35305V0.34584V0.338631V0.331421V0.324211V0.317001V0.309792V0.302582V0.297852H6.72764H6.71585H6.70406H6.69228H6.68049H6.6687H6.65691H6.64513H6.63334H6.62155H6.60976H6.59798H6.58619H6.5744H6.56261H6.55083H6.53904H6.52725H6.51546H6.50368H6.49189H6.4801H6.46831H6.45653H6.44474H6.43295H6.42116H6.40938H6.39759H6.3858H6.37401H6.36223H6.35044H6.33865H6.32686H6.31508H6.30329H6.2915H6.27971H6.26793H6.25614H6.24435H6.23256H6.22078H6.20899H6.1972H6.18541H6.17363H6.16184H6.15005H6.13827H6.12648H6.11469H6.1029H6.09112H6.07933H6.06754H6.05575H6.04397H6.03218H6.02039H6.0086H5.99682H5.98503H5.97324H5.96145H5.94967H5.93788H5.92609H5.9143H5.90252H5.89073H5.87894H5.86715H5.85537H5.84358H5.83179H5.82H5.80822H5.79643H5.78464H5.77286H5.76107H5.74928H5.73749H5.72571H5.71392H5.70213H5.69034H5.67856H5.66677H5.65498H5.64319H5.63141H5.61962H5.60783H5.59604H5.58426H5.57247H5.56068H5.54889H5.53711H5.52532H5.51353H5.50174H5.48996H5.47817H5.46638H5.4546H5.44281H5.43102H5.41923H5.40745H5.39566H5.38387H5.37208H5.3603H5.34851H5.33672H5.32493H5.31315H5.30136H5.28957H5.27778H5.266H5.25421H5.24242H5.23063H5.21885H5.20706H5.19527H5.18349H5.1717H5.15991H5.14812H5.13634H5.12455H5.11276H5.10097H5.08919H5.0774H5.06561H5.05382H5.04204H5.03025H5.01846H5.00667H4.99489H4.9831H4.97131H4.95952H4.94774H4.93595H4.92416H4.91237H4.90059H4.8888H4.87701H4.86523H4.85344H4.84165H4.82986H4.81808H4.80629H4.7945H4.78271H4.77093H4.75914H4.74735H4.73556H4.72378H4.71199H4.7002H4.68841H4.67663H4.66484H4.65305H4.64126H4.62948H4.61769H4.6059H4.59412H4.58233H4.57054H4.55875H4.54697H4.53518H4.52339H4.5116H4.49982H4.48803H4.47624H4.46445H4.45267H4.44088H4.42909H4.4173H4.40552H4.39373H4.38194H4.37015H4.35837H4.34658H4.33479H4.32301H4.31122H4.29943H4.28764H4.27586H4.26407H4.25228H4.24049H4.22871H4.21692H4.20513H4.19334H4.18156H4.16977H4.15798H4.14619H4.13441H4.12262H4.11083H4.09904H4.08726H4.07547H4.06368H4.0519H4.04011H4.02832H4.01653H4.00475H3.99296H3.98117H3.96938H3.9576H3.94581H3.93402H3.92223H3.91045H3.89866H3.88687H3.87508H3.8633H3.85151H3.83972H3.82793H3.81615H3.80436H3.79257H3.78079H3.769H3.75721H3.74542H3.73364H3.72185H3.71006H3.69827H3.68649H3.6747H3.66291H3.65112H3.63934H3.62755H3.61576H3.60397H3.59219H3.5804H3.56861H3.55683H3.54504H3.53325H3.52146H3.50968H3.49789H3.4861H3.47431H3.46253H3.45074H3.43895H3.42716H3.41538H3.40359H3.3918H3.38001H3.36823H3.35644H3.34465H3.33286H3.32108H3.30929H3.2975H3.28572H3.27393H3.26214H3.25035H3.23857H3.22678H3.21499H3.2032H3.19142H3.17963H3.16784H3.15605H3.14427H3.13248H3.12069H3.1089H3.09712H3.08533H3.07354H3.06175H3.04997H3.03818H3.02639H3.01461H3.00282H2.99103H2.97924H2.96746H2.95567H2.94388H2.93209H2.92031H2.90852H2.89673H2.88494H2.87316H2.86137H2.84958H2.83779H2.82601H2.81422H2.80243H2.79064H2.77886H2.76707H2.75528H2.74349H2.73171H2.71992H2.70813H2.69635H2.68456H2.67277H2.66098H2.6492H2.63741H2.62562H2.61383H2.60205H2.59026H2.57847H2.56668H2.5549H2.54311H2.53132H2.51953H2.50775H2.49596H2.48417H2.47238H2.4606H2.44881H2.43702H2.42524H2.41345H2.40166H2.38987H2.37809H2.3663H2.35451H2.34272H2.33094H2.31915H2.30736H2.29557H2.28379H2.272H2.26021H2.24842H2.23664H2.22485H2.21306H2.20127H2.18949H2.1777H2.16591H2.15412H2.14234H2.13055H2.11876H2.10697H2.09519H2.0834H2.07161H2.05982H2.04804H2.03625H2.02446H2.01268H2.00089H1.9891H1.97731H1.96553H1.95374H1.94195H1.93016H1.91838H1.90659H1.8948H1.88301H1.87123H1.85944H1.84765H1.83586H1.82408H1.81229H1.8005H1.78871H1.77693H1.76514H1.75335H1.74156H1.72978H1.71799H1.7062H1.69441H1.68263H1.67084H1.65905H1.64726H1.63548H1.62369H1.6119H1.60012H1.58833H1.57654H1.56475H1.55297H1.54118H1.52939H1.5176H1.50582H1.49403H1.48224H1.47045H1.45867H1.44688H1.43509H1.4233H1.41152H1.39973H1.38794H1.37615H1.36437H1.35258H1.34079H1.329H1.31722H1.30543H1.29364H1.28185H1.27007H1.25828H1.24649H1.2347H1.22292H1.21113H1.19934H1.18755H1.17577H1.16398H1.15219H1.1404H1.12862H1.11683H1.10504H1.09325H1.08147H1.06968H1.05789H1.0461H1.03432H1.02253H1.01074V-0.0146484C0.483398 0.141601 0.141601 0.483398 -0.0146484 1.01074V2.44629C0.424913 2.44141 0.864366 2.44629 1.30371 2.46094M5.00445 5.80078H3.91113C3.85187 4.67121 3.27568 3.96322 2.18262 3.67676C2.21934 3.02599 1.92638 2.6207 1.30371 2.46094M5.00445 5.80078L5.00531 5.81716M5.00445 5.80078L5.00531 5.81716M1.30371 2.46094L1.31412 2.14861L1.34828 2.14975L1.38138 2.15824L1.30371 2.46094ZM5.00531 5.81716C5.03758 6.43204 5.21257 6.95962 5.55159 7.37621C5.84515 7.73694 6.24503 7.99396 6.7334 8.15769V8.16273V8.16994V8.17715V8.18436V8.19157V8.19878V8.20599V8.2132V8.22041V8.22762V8.23483V8.24204V8.24925V8.25646V8.26367V8.27087V8.27808V8.28529V8.2925V8.29971V8.30692V8.31413V8.32134V8.32855V8.33576V8.34297V8.35018V8.35739V8.3646V8.37181V8.37902V8.38623V8.39344V8.40065V8.40786V8.41507V8.42228V8.42949V8.4367V8.44391V8.45112V8.45833V8.46554V8.47275V8.47996V8.48717V8.49438V8.50159V8.5088V8.51601V8.52322V8.53043V8.53764V8.54485V8.55206V8.55927V8.56648V8.57369V8.5809V8.58811V8.59531V8.60252V8.60973V8.61694V8.62415V8.63136V8.63857V8.64578V8.65299V8.6602V8.66741V8.67462V8.68183V8.68904V8.69625V8.70346V8.71067V8.71788V8.72509V8.7323V8.73951V8.74672V8.75393V8.76114V8.76835V8.77556V8.78277V8.78998V8.79719V8.8044V8.81161V8.81882V8.82603V8.83324V8.84045V8.84766V8.85487V8.86208V8.86929V8.8765V8.88371V8.89092V8.89813V8.90534V8.91255V8.91975V8.92696V8.93417V8.94138V8.94859V8.9558V8.96301V8.97022V8.97743V8.98464V8.99185V8.99906V9.00627V9.01348V9.02069V9.0279V9.03511V9.04232V9.04953V9.05674V9.06395V9.07116V9.07837V9.08558V9.09279V9.1V9.10721V9.11442V9.12163V9.12884V9.13605V9.14326V9.15047V9.15768V9.16489V9.1721V9.17931V9.18652V9.19373V9.20094V9.20815V9.21536V9.22257V9.22978V9.23699V9.24419V9.2514V9.25861V9.26582V9.27303V9.28024V9.28745V9.29466V9.30187V9.30908V9.31629V9.3235V9.33071V9.33792V9.34513V9.35234V9.35955V9.36676V9.37397V9.38118V9.38839V9.3956V9.40281V9.41002V9.41723V9.42444V9.43165V9.43886V9.44607V9.45328V9.46049V9.4677V9.47491V9.48212V9.48933V9.49654V9.50375V9.51096V9.51817V9.52538V9.53259V9.5398V9.54701V9.55422V9.56143V9.56863V9.57584V9.58305V9.59026V9.59747V9.60468V9.61189V9.6191V9.62631V9.63352V9.64073V9.64794V9.65515V9.66236V9.66957V9.67678V9.68399V9.6912V9.69841V9.70562V9.71283V9.72004V9.72725V9.73446V9.74167V9.74888V9.75609V9.7633V9.77051V9.77772V9.78493V9.79214V9.79935V9.80656V9.81377V9.82098V9.82819V9.8354V9.84261V9.84982V9.85703V9.86424V9.87145V9.87866V9.88587V9.89307V9.90028V9.90749V9.9147V9.92191V9.92912V9.93633V9.94354V9.95075V9.95796V9.96517V9.97238V9.97959V9.9868V9.99401V10.0012V10.0084V10.0156V10.0229V10.0301V10.0373V10.0445V10.0517V10.0589V10.0661V10.0733V10.0805V10.0877V10.0949V10.1022V10.1094V10.1166V10.1238V10.131V10.1382V10.1454V10.1526V10.1598V10.167V10.1743V10.1815V10.1887V10.1959V10.2031V10.2103V10.2175V10.2247V10.2319V10.2391V10.2464V10.2536V10.2608V10.268V10.2752V10.2824V10.2896V10.2968V10.304V10.3112V10.3185V10.3257V10.3329V10.3401V10.3473V10.3545V10.3617V10.3689V10.3761V10.3833V10.3905V10.3978V10.405V10.4122V10.4194V10.4266V10.4338V10.441V10.4482V10.4554V10.4626V10.4699V10.4771V10.4843V10.4915V10.4987V10.5059V10.5131V10.5203V10.5275V10.5347V10.542V10.5492V10.5564V10.5636V10.5708V10.578V10.5852V10.5924V10.5996V10.6068V10.6141V10.6213V10.6285V10.6357V10.6429V10.6501V10.6573V10.6645V10.6717V10.6789V10.6862V10.6934V10.7006V10.7078V10.715V10.7222V10.7294V10.7366V10.7438V10.751V10.7582V10.7655V10.7727V10.7799V10.7871V10.7943V10.8015V10.8087V10.8159V10.8231V10.8303V10.8376V10.8448V10.852V10.8592V10.8664V10.8736V10.8808V10.888V10.8952V10.9024V10.9097V10.9169V10.9241V10.9313V10.9385V10.9457V10.9529V10.9601V10.9673V10.9745V10.9818V10.989V10.9962V11.0034V11.0106V11.0178V11.025V11.0322V11.0394V11.0466V11.0539V11.0611V11.0683V11.0755V11.0827V11.0899V11.0971V11.1043V11.1115V11.1187V11.1259V11.1332V11.1404V11.1476V11.1548V11.162V11.1692V11.1764V11.1836V11.1908V11.198V11.2053V11.2125V11.2197V11.2269V11.2341V11.2413V11.2485V11.2557V11.2629V11.2701V11.2774V11.2846V11.2918V11.299V11.3044C4.84094 11.308 2.94849 11.303 1.05605 11.2894C0.662998 11.1705 0.419143 10.9297 0.297852 10.545V10.5432V10.5404V10.5375V10.5347V10.5319V10.5291V10.5263V10.5235V10.5207V10.5179V10.5151V10.5123V10.5095V10.5067V10.5039V10.5011V10.4983V10.4955V10.4927V10.4899V10.4871V10.4843V10.4815V10.4787V10.4759V10.4731V10.4703V10.4675V10.4647V10.4618V10.459V10.4562V10.4534V10.4506V10.4478V10.445V10.4422V10.4394V10.4366V10.4338V10.431V10.4282V10.4254V10.4226V10.4198V10.417V10.4142V10.4114V10.4086V10.4058V10.403V10.4002V10.3974V10.3946V10.3918V10.389V10.3861V10.3833V10.3805V10.3777V10.3749V10.3721V10.3693V10.3665V10.3637V10.3609V10.3581V10.3553V10.3525V10.3497V10.3469V10.3441V10.3413V10.3385V10.3357V10.3329V10.3301V10.3273V10.3245V10.3217V10.3189V10.3161V10.3132V10.3104V10.3076V10.3048V10.302V10.2992V10.2964V10.2936V10.2908V10.288V10.2852V10.2824V10.2796V10.2768V10.274V10.2712V10.2684V10.2656V10.2628V10.26V10.2572V10.2544V10.2516V10.2488V10.246V10.2432V10.2403V10.2375V10.2347V10.2319V10.2291V10.2263V10.2235V10.2207V10.2179V10.2151V10.2123V10.2095V10.2067V10.2039V10.2011V10.1983V10.1955V10.1927V10.1899V10.1871V10.1843V10.1815V10.1787V10.1759V10.1731V10.1703V10.1674V10.1646V10.1618V10.159V10.1562V10.1534V10.1506V10.1478V10.145V10.1422V10.1394V10.1366V10.1338V10.131V10.1282V10.1254V10.1226V10.1198V10.117V10.1142V10.1114V10.1086V10.1058V10.103V10.1002V10.0974V10.0946V10.0917V10.0889V10.0861V10.0833V10.0805V10.0777V10.0749V10.0721V10.0693V10.0665V10.0637V10.0609V10.0581V10.0553V10.0525V10.0497V10.0469V10.0441V10.0413V10.0385V10.0357V10.0329V10.0301V10.0273V10.0245V10.0217V10.0188V10.016V10.0132V10.0104V10.0076V10.0048V10.002V9.99922V9.99642V9.99361V9.99081V9.98801V9.9852V9.9824V9.97959V9.97679V9.97399V9.97118V9.96838V9.96557V9.96277V9.95997V9.95716V9.95436V9.95156V9.94875V9.94595V9.94314V9.94034V9.93754V9.93473V9.93193V9.92912V9.92632V9.92352V9.92071V9.91791V9.91511V9.9123V9.9095V9.90669V9.90389V9.90109V9.89828V9.89548V9.89268V9.88987V9.88707V9.88426V9.88146V9.87866V9.87585V9.87305V9.87024V9.86744V9.86464V9.86183V9.85903V9.85623V9.85342V9.85062V9.84781V9.84501V9.84221V9.8394V9.8366V9.83379V9.83099V9.82819V9.82538V9.82258V9.81978V9.81697V9.81417V9.81136V9.80856V9.80576V9.80295V9.80015V9.79735V9.79454V9.79174V9.78893V9.78613V9.78333V9.78052V9.77772V9.77491V9.77211V9.76931V9.7665V9.7637V9.76089V9.75809V9.75529V9.75248V9.74968V9.74688V9.74407V9.74127V9.73846V9.73566V9.73286V9.73005V9.72725V9.72445V9.72164V9.71884V9.71603V9.71323V9.71043V9.70762V9.70482V9.70201V9.69921V9.69641V9.6936V9.6908V9.68799V9.68519V9.68239V9.67958V9.67678V9.67398V9.67117V9.66837V9.66556V9.66276V9.65996V9.65715V9.65435V9.65155V9.64874V9.64594V9.64313V9.64033V9.63753V9.63472V9.63192V9.62912V9.62631V9.62351V9.6207V9.6179V9.6151V9.61229V9.60949V9.60668V9.60388V9.60108V9.59827V9.59547V9.59267V9.58986V9.58706V9.58425V9.58145V9.57865V9.57584V9.57304V9.57024V9.56743V9.56463V9.56182V9.55902V9.55622V9.55341V9.55061V9.5478V9.545V9.5422V9.53939V9.53659V9.53378V9.53098V9.52818V9.52537V9.52257V9.51977V9.51696V9.51416V9.51135V9.50855V9.50575V9.50294V9.50014V9.49734V9.49453V9.49173V9.48892V9.48612V9.48332V9.48051V9.47771V9.47491V9.4721V9.4696L5.00531 5.81716ZM1.30371 9.14063L1.31412 9.45295L1.34828 9.45181L1.38137 9.44332L1.30371 9.14063ZM1.30371 9.14063C0.968488 9.1518 0.633201 9.1573 0.297852 9.1571L2.18262 7.92481C2.21934 8.57558 1.92638 8.98087 1.30371 9.14063Z" fill="#656E79" stroke="#656E79" stroke-width="0.625"/>
<path opacity="0.993" d="M14.6729 2.13196V2.12946V2.12666V2.12385V2.12105V2.11824V2.11544V2.11264V2.10983V2.10703V2.10423V2.10142V2.09862V2.09581V2.09301V2.09021V2.0874V2.0846V2.0818V2.07899V2.07619V2.07338V2.07058V2.06778V2.06497V2.06217V2.05936V2.05656V2.05376V2.05095V2.04815V2.04535V2.04254V2.03974V2.03693V2.03413V2.03133V2.02852V2.02572V2.02292V2.02011V2.01731V2.0145V2.0117V2.0089V2.00609V2.00329V2.00048V1.99768V1.99488V1.99207V1.98927V1.98647V1.98366V1.98086V1.97805V1.97525V1.97245V1.96964V1.96684V1.96404V1.96123V1.95843V1.95562V1.95282V1.95002V1.94721V1.94441V1.9416V1.9388V1.936V1.93319V1.93039V1.92759V1.92478V1.92198V1.91917V1.91637V1.91357V1.91076V1.90796V1.90516V1.90235V1.89955V1.89674V1.89394V1.89114V1.88833V1.88553V1.88273V1.87992V1.87712V1.87431V1.87151V1.86871V1.8659V1.8631V1.86029V1.85749V1.85469V1.85188V1.84908V1.84628V1.84347V1.84067V1.83786V1.83506V1.83226V1.82945V1.82665V1.82385V1.82104V1.81824V1.81543V1.81263V1.80983V1.80702V1.80422V1.80141V1.79861V1.79581V1.793V1.7902V1.7874V1.78459V1.78179V1.77898V1.77618V1.77338V1.77057V1.76777V1.76497V1.76216V1.75936V1.75655V1.75375V1.75095V1.74814V1.74534V1.74253V1.73973V1.73693V1.73412V1.73132V1.72852V1.72571V1.72291V1.7201V1.7173V1.7145V1.71169V1.70889V1.70609V1.70328V1.70048V1.69767V1.69487V1.69207V1.68926V1.68646V1.68365V1.68085V1.67805V1.67524V1.67244V1.66964V1.66683V1.66403V1.66122V1.65842V1.65562V1.65281V1.65001V1.64721V1.6444V1.6416V1.63879V1.63599V1.63319V1.63038V1.62758V1.62478V1.62197V1.61917V1.61636V1.61356V1.61076V1.60795V1.60515V1.60234V1.59954V1.59674V1.59393V1.59113V1.58833V1.58552V1.58272V1.57991V1.57711V1.57431V1.5715V1.5687V1.5659V1.56309V1.56029V1.55748V1.55468V1.55188V1.54907V1.54627V1.54346V1.54066V1.53786V1.53505V1.53225V1.52945V1.52664V1.52384V1.52103V1.51823V1.51543V1.51262V1.50982V1.50702V1.50421V1.50141V1.4986V1.4958V1.493V1.49019V1.48739V1.48458V1.48178V1.47898V1.47617V1.47337V1.47057V1.46776V1.46496V1.46215V1.45935V1.45655V1.45374V1.45094V1.44814V1.44533V1.44253V1.43972V1.43692V1.43412V1.43131V1.42851V1.4257V1.4229V1.4201V1.41729V1.41449V1.41169V1.40888V1.40608V1.40327V1.40047V1.39767V1.39486V1.39206V1.38926V1.38645V1.38365V1.38084V1.37804V1.37524V1.37243V1.36963V1.36682V1.36402V1.36122V1.35841V1.35561V1.35281V1.35V1.3472V1.34439V1.34159V1.33879V1.33598V1.33318V1.33038V1.32757V1.32477V1.32196V1.31916V1.31636V1.31355V1.31075V1.30795V1.30514V1.30234V1.29953V1.29673V1.29393V1.29112V1.28832V1.28551V1.28271V1.27991V1.2771V1.2743V1.2715V1.26869V1.26589V1.26308V1.26028V1.25748V1.25467V1.25187V1.24907V1.24626V1.24346V1.24065V1.23785V1.23505V1.23224V1.22944V1.22663V1.22383V1.22103V1.21822V1.21542V1.21262V1.20981V1.20701V1.2042V1.2014V1.1986V1.19579V1.19299V1.19019V1.18738V1.18458V1.18177V1.17897V1.17617V1.17336V1.17056V1.16776V1.16495V1.16215V1.15934V1.15654V1.15374V1.15093V1.14813V1.14532V1.14252V1.13972V1.13691V1.13411V1.13131V1.1285V1.1257V1.12289V1.12009V1.11729V1.11448V1.11168V1.10888V1.10607V1.10327V1.10046V1.09766V1.09486V1.09205V1.08925V1.08644V1.08364V1.08084V1.07803V1.07523V1.07243V1.06962V1.06682V1.06401V1.06121V1.05841V1.05808C14.5466 0.670166 14.3005 0.424146 13.9126 0.297852H13.901H13.8892H13.8774H13.8657H13.8539H13.8421H13.8303H13.8185H13.8067H13.7949H13.7831H13.7714H13.7596H13.7478H13.736H13.7242H13.7124H13.7006H13.6888H13.6771H13.6653H13.6535H13.6417H13.6299H13.6181H13.6063H13.5946H13.5828H13.571H13.5592H13.5474H13.5356H13.5238H13.512H13.5003H13.4885H13.4767H13.4649H13.4531H13.4413H13.4295H13.4177H13.406H13.3942H13.3824H13.3706H13.3588H13.347H13.3352H13.3234H13.3117H13.2999H13.2881H13.2763H13.2645H13.2527H13.2409H13.2291H13.2174H13.2056H13.1938H13.182H13.1702H13.1584H13.1466H13.1348H13.1231H13.1113H13.0995H13.0877H13.0759H13.0641H13.0523H13.0405H13.0288H13.017H13.0052H12.9934H12.9816H12.9698H12.958H12.9462H12.9345H12.9227H12.9109H12.8991H12.8873H12.8755H12.8637H12.8519H12.8402H12.8284H12.8166H12.8048H12.793H12.7812H12.7694H12.7576H12.7459H12.7341H12.7223H12.7105H12.6987H12.6869H12.6751H12.6633H12.6516H12.6398H12.628H12.6162H12.6044H12.5926H12.5808H12.569H12.5573H12.5455H12.5337H12.5219H12.5101H12.4983H12.4865H12.4747H12.463H12.4512H12.4394H12.4276H12.4158H12.404H12.3922H12.3804H12.3687H12.3569H12.3451H12.3333H12.3215H12.3097H12.2979H12.2861H12.2744H12.2626H12.2508H12.239H12.2272H12.2154H12.2036H12.1918H12.1801H12.1683H12.1565H12.1447H12.1329H12.1211H12.1093H12.0975H12.0858H12.074H12.0622H12.0504H12.0386H12.0268H12.015H12.0032H11.9915H11.9797H11.9679H11.9561H11.9443H11.9325H11.9207H11.9089H11.8972H11.8854H11.8736H11.8618H11.85H11.8382H11.8264H11.8146H11.8029H11.7911H11.7793H11.7675H11.7557H11.7439H11.7321H11.7204H11.7086H11.6968H11.685H11.6732H11.6614H11.6496H11.6378H11.6261H11.6143H11.6025H11.5907H11.5789H11.5671H11.5553H11.5435H11.5318H11.52H11.5082H11.4964H11.4846H11.4728H11.461H11.4492H11.4375H11.4257H11.4139H11.4021H11.3903H11.3785H11.3667H11.3549H11.3432H11.3314H11.3196H11.3078H11.296H11.2842H11.2724H11.2606H11.2489H11.2371H11.2253H11.2135H11.2017H11.1899H11.1781H11.1663H11.1546H11.1428H11.131H11.1192H11.1074H11.0956H11.0838H11.072H11.0603H11.0485H11.0367H11.0249H11.0131H11.0013H10.9895H10.9777H10.966H10.9542H10.9424H10.9306H10.9188H10.907H10.8952H10.8834H10.8717H10.8599H10.8481H10.8363H10.8245H10.8127H10.8009H10.7891H10.7774H10.7656H10.7538H10.742H10.7302H10.7184H10.7066H10.6948H10.6831H10.6713H10.6595H10.6477H10.6359H10.6241H10.6123H10.6005H10.5888H10.577H10.5652H10.5534H10.5416H10.5298H10.518H10.5062H10.4945H10.4827H10.4709H10.4591H10.4473H10.4355H10.4237H10.412H10.4002H10.3884H10.3766H10.3648H10.353H10.3412H10.3294H10.3177H10.3059H10.2941H10.2823H10.2705H10.2587H10.2469H10.2351H10.2234H10.2116H10.1998H10.188H10.1762H10.1644H10.1526H10.1408H10.1291H10.1173H10.1055H10.0937H10.0819H10.0701H10.0583H10.0465H10.0348H10.023H10.0112H9.99939H9.9876H9.97582H9.96403H9.95224H9.94045H9.92867H9.91688H9.90509H9.89331H9.88152H9.86973H9.85794H9.84616H9.83437H9.82258H9.81079H9.79901H9.78722H9.77543H9.76364H9.75186H9.74007H9.72828H9.71649H9.70471H9.69292H9.68113H9.66934H9.65756H9.64577H9.63398H9.6222H9.61041H9.59862H9.58683H9.57505H9.56326H9.55147H9.53968H9.5279H9.51611H9.50432H9.49253H9.48075H9.46896H9.45717H9.44538H9.4336H9.42181H9.41002H9.39823H9.38645H9.37466H9.36287H9.35108H9.3393H9.32751H9.31572H9.30394H9.29215H9.28036H9.26857H9.25679H9.245H9.23321H9.22142H9.20964H9.19785H9.18606H9.17427H9.16249H9.1507H9.13891H9.12712H9.11534H9.10355H9.09176H9.07997H9.06819H9.0564H9.04461H9.03282H9.02104H9.00925H8.99746H8.98567H8.97389H8.9621H8.95031H8.93853H8.92674H8.91495H8.90316H8.89138H8.87959H8.8678H8.85601H8.84423H8.83244H8.82065H8.80886H8.79708H8.78529H8.7735H8.76171H8.74993H8.73814H8.72635H8.71456H8.70278H8.69099H8.6792H8.66741H8.65563H8.64384H8.63205H8.62026H8.60848H8.59669H8.5849H8.57311H8.56133H8.54954H8.53775H8.52596H8.51418H8.50239H8.4906H8.47882H8.46703H8.45524H8.44345H8.43167H8.41988H8.40809H8.3963H8.38452H8.37273H8.36094H8.34915H8.33737H8.32558H8.31379H8.302H8.29022H8.27843H8.26664H8.25485H8.24307H8.23128H8.21949H8.2077H8.19592H8.18413H8.17234H8.16055H8.14877H8.13698H8.12519H8.1134H8.10162H8.08983H8.07804H8.06625H8.05447H8.04268H8.03089H8.0191H8.00732H7.99553H7.98374H7.97195H7.96017H7.94838H7.93659H7.9248V3.67676C9.01787 3.96322 9.59405 4.67121 9.65332 5.80078M14.6729 2.13196L7.9248 7.92481C9.01787 7.63834 9.59405 6.93035 9.65332 5.80078M14.6729 2.13196C14.334 2.13177 13.9953 2.13732 13.6566 2.14861L13.6224 2.14975L13.5893 2.15824C13.2278 2.25099 12.9272 2.42466 12.727 2.70164C12.5727 2.91508 12.4945 3.16712 12.4766 3.44355C11.9878 3.60725 11.5875 3.86438 11.2938 4.22536C10.9548 4.64194 10.7798 5.16952 10.7475 5.78441L10.7466 5.80078L10.7475 5.81716C10.7798 6.43204 10.9548 6.95962 11.2938 7.37621C11.5875 7.73718 11.9878 7.99431 12.4766 8.15802C12.4945 8.43444 12.5727 8.68649 12.727 8.89992C12.9272 9.1769 13.2278 9.35058 13.5893 9.44332L13.6224 9.45181L13.6566 9.45295C13.9953 9.46424 14.334 9.4698 14.6729 9.4696V9.4721V9.47491V9.47771V9.48051V9.48332V9.48612V9.48892V9.49173V9.49453V9.49734V9.50014V9.50294V9.50575V9.50855V9.51135V9.51416V9.51696V9.51977V9.52257V9.52537V9.52818V9.53098V9.53378V9.53659V9.53939V9.5422V9.545V9.5478V9.55061V9.55341V9.55622V9.55902V9.56182V9.56463V9.56743V9.57024V9.57304V9.57584V9.57865V9.58145V9.58425V9.58706V9.58986V9.59267V9.59547V9.59827V9.60108V9.60388V9.60668V9.60949V9.61229V9.6151V9.6179V9.6207V9.62351V9.62631V9.62912V9.63192V9.63472V9.63753V9.64033V9.64313V9.64594V9.64874V9.65155V9.65435V9.65715V9.65996V9.66276V9.66556V9.66837V9.67117V9.67398V9.67678V9.67958V9.68239V9.68519V9.68799V9.6908V9.6936V9.69641V9.69921V9.70201V9.70482V9.70762V9.71043V9.71323V9.71603V9.71884V9.72164V9.72445V9.72725V9.73005V9.73286V9.73566V9.73846V9.74127V9.74407V9.74688V9.74968V9.75248V9.75529V9.75809V9.76089V9.7637V9.7665V9.76931V9.77211V9.77491V9.77772V9.78052V9.78333V9.78613V9.78893V9.79174V9.79454V9.79735V9.80015V9.80295V9.80576V9.80856V9.81136V9.81417V9.81697V9.81978V9.82258V9.82538V9.82819V9.83099V9.83379V9.8366V9.8394V9.84221V9.84501V9.84781V9.85062V9.85342V9.85623V9.85903V9.86183V9.86464V9.86744V9.87024V9.87305V9.87585V9.87866V9.88146V9.88426V9.88707V9.88987V9.89268V9.89548V9.89828V9.90109V9.90389V9.90669V9.9095V9.9123V9.91511V9.91791V9.92071V9.92352V9.92632V9.92912V9.93193V9.93473V9.93754V9.94034V9.94314V9.94595V9.94875V9.95156V9.95436V9.95716V9.95997V9.96277V9.96557V9.96838V9.97118V9.97399V9.97679V9.97959V9.9824V9.9852V9.98801V9.99081V9.99361V9.99642V9.99922V10.002V10.0048V10.0076V10.0104V10.0132V10.016V10.0188V10.0217V10.0245V10.0273V10.0301V10.0329V10.0357V10.0385V10.0413V10.0441V10.0469V10.0497V10.0525V10.0553V10.0581V10.0609V10.0637V10.0665V10.0693V10.0721V10.0749V10.0777V10.0805V10.0833V10.0861V10.0889V10.0917V10.0946V10.0974V10.1002V10.103V10.1058V10.1086V10.1114V10.1142V10.117V10.1198V10.1226V10.1254V10.1282V10.131V10.1338V10.1366V10.1394V10.1422V10.145V10.1478V10.1506V10.1534V10.1562V10.159V10.1618V10.1646V10.1674V10.1703V10.1731V10.1759V10.1787V10.1815V10.1843V10.1871V10.1899V10.1927V10.1955V10.1983V10.2011V10.2039V10.2067V10.2095V10.2123V10.2151V10.2179V10.2207V10.2235V10.2263V10.2291V10.2319V10.2347V10.2375V10.2403V10.2432V10.246V10.2488V10.2516V10.2544V10.2572V10.26V10.2628V10.2656V10.2684V10.2712V10.274V10.2768V10.2796V10.2824V10.2852V10.288V10.2908V10.2936V10.2964V10.2992V10.302V10.3048V10.3076V10.3104V10.3132V10.3161V10.3189V10.3217V10.3245V10.3273V10.3301V10.3329V10.3357V10.3385V10.3413V10.3441V10.3469V10.3497V10.3525V10.3553V10.3581V10.3609V10.3637V10.3665V10.3693V10.3721V10.3749V10.3777V10.3805V10.3833V10.3861V10.389V10.3918V10.3946V10.3974V10.4002V10.403V10.4058V10.4086V10.4114V10.4142V10.417V10.4198V10.4226V10.4254V10.4282V10.431V10.4338V10.4366V10.4394V10.4422V10.445V10.4478V10.4506V10.4534V10.4562V10.459V10.4618V10.4647V10.4675V10.4703V10.4731V10.4759V10.4787V10.4815V10.4843V10.4871V10.4899V10.4927V10.4955V10.4983V10.5011V10.5039V10.5067V10.5095V10.5123V10.5151V10.5179V10.5207V10.5235V10.5263V10.5291V10.5319V10.5347V10.5375V10.5404V10.5432V10.5449C14.5513 10.93 14.3074 11.1707 13.9147 11.2894C12.0223 11.303 10.1298 11.308 8.2373 11.3044V11.299V11.2918V11.2846V11.2774V11.2701V11.2629V11.2557V11.2485V11.2413V11.2341V11.2269V11.2197V11.2125V11.2053V11.198V11.1908V11.1836V11.1764V11.1692V11.162V11.1548V11.1476V11.1404V11.1332V11.1259V11.1187V11.1115V11.1043V11.0971V11.0899V11.0827V11.0755V11.0683V11.0611V11.0539V11.0466V11.0394V11.0322V11.025V11.0178V11.0106V11.0034V10.9962V10.989V10.9818V10.9745V10.9673V10.9601V10.9529V10.9457V10.9385V10.9313V10.9241V10.9169V10.9097V10.9024V10.8952V10.888V10.8808V10.8736V10.8664V10.8592V10.852V10.8448V10.8376V10.8303V10.8231V10.8159V10.8087V10.8015V10.7943V10.7871V10.7799V10.7727V10.7655V10.7582V10.751V10.7438V10.7366V10.7294V10.7222V10.715V10.7078V10.7006V10.6934V10.6862V10.6789V10.6717V10.6645V10.6573V10.6501V10.6429V10.6357V10.6285V10.6213V10.6141V10.6068V10.5996V10.5924V10.5852V10.578V10.5708V10.5636V10.5564V10.5492V10.542V10.5347V10.5275V10.5203V10.5131V10.5059V10.4987V10.4915V10.4843V10.4771V10.4699V10.4626V10.4554V10.4482V10.441V10.4338V10.4266V10.4194V10.4122V10.405V10.3978V10.3905V10.3833V10.3761V10.3689V10.3617V10.3545V10.3473V10.3401V10.3329V10.3257V10.3185V10.3112V10.304V10.2968V10.2896V10.2824V10.2752V10.268V10.2608V10.2536V10.2464V10.2391V10.2319V10.2247V10.2175V10.2103V10.2031V10.1959V10.1887V10.1815V10.1743V10.167V10.1598V10.1526V10.1454V10.1382V10.131V10.1238V10.1166V10.1094V10.1022V10.0949V10.0877V10.0805V10.0733V10.0661V10.0589V10.0517V10.0445V10.0373V10.0301V10.0229V10.0156V10.0084V10.0012V9.99401V9.9868V9.97959V9.97238V9.96517V9.95796V9.95075V9.94354V9.93633V9.92912V9.92191V9.9147V9.90749V9.90028V9.89307V9.88587V9.87866V9.87145V9.86424V9.85703V9.84982V9.84261V9.8354V9.82819V9.82098V9.81377V9.80656V9.79935V9.79214V9.78493V9.77772V9.77051V9.7633V9.75609V9.74888V9.74167V9.73446V9.72725V9.72004V9.71283V9.70562V9.69841V9.6912V9.68399V9.67678V9.66957V9.66236V9.65515V9.64794V9.64073V9.63352V9.62631V9.6191V9.61189V9.60468V9.59747V9.59026V9.58305V9.57584V9.56863V9.56143V9.55422V9.54701V9.5398V9.53259V9.52538V9.51817V9.51096V9.50375V9.49654V9.48933V9.48212V9.47491V9.4677V9.46049V9.45328V9.44607V9.43886V9.43165V9.42444V9.41723V9.41002V9.40281V9.3956V9.38839V9.38118V9.37397V9.36676V9.35955V9.35234V9.34513V9.33792V9.33071V9.3235V9.31629V9.30908V9.30187V9.29466V9.28745V9.28024V9.27303V9.26582V9.25861V9.2514V9.24419V9.23699V9.22978V9.22257V9.21536V9.20815V9.20094V9.19373V9.18652V9.17931V9.1721V9.16489V9.15768V9.15047V9.14326V9.13605V9.12884V9.12163V9.11442V9.10721V9.1V9.09279V9.08558V9.07837V9.07116V9.06395V9.05674V9.04953V9.04232V9.03511V9.0279V9.02069V9.01348V9.00627V8.99906V8.99185V8.98464V8.97743V8.97022V8.96301V8.9558V8.94859V8.94138V8.93417V8.92696V8.91975V8.91255V8.90534V8.89813V8.89092V8.88371V8.8765V8.86929V8.86208V8.85487V8.84766V8.84045V8.83324V8.82603V8.81882V8.81161V8.8044V8.79719V8.78998V8.78277V8.77556V8.76835V8.76114V8.75393V8.74672V8.73951V8.7323V8.72509V8.71788V8.71067V8.70346V8.69625V8.68904V8.68183V8.67462V8.66741V8.6602V8.65299V8.64578V8.63857V8.63136V8.62415V8.61694V8.60973V8.60252V8.59531V8.58811V8.5809V8.57369V8.56648V8.55927V8.55206V8.54485V8.53764V8.53043V8.52322V8.51601V8.5088V8.50159V8.49438V8.48717V8.47996V8.47275V8.46554V8.45833V8.45112V8.44391V8.4367V8.42949V8.42228V8.41507V8.40786V8.40065V8.39344V8.38623V8.37902V8.37181V8.3646V8.35739V8.35018V8.34297V8.33576V8.32855V8.32134V8.31413V8.30692V8.29971V8.2925V8.28529V8.27808V8.27087V8.26367V8.25646V8.24925V8.24204V8.23483V8.22762V8.22041V8.2132V8.20599V8.19878V8.19157V8.18436V8.17715V8.16994V8.16273V8.15769L14.6729 2.13196ZM9.65332 5.80078L9.96539 5.78441L9.96625 5.80078L9.96539 5.81716L9.65332 5.80078Z" fill="#656E79" stroke="#656E79" stroke-width="0.625"/>
<path opacity="0.993" fill-rule="evenodd" clip-rule="evenodd" d="M-0.0146484 3.2959C0.405387 3.29101 0.825308 3.2959 1.24512 3.31055C1.25977 3.3252 1.27441 3.33985 1.28906 3.3545C1.30859 4.98537 1.30859 6.61621 1.28906 8.24708C1.27441 8.26172 1.25977 8.27637 1.24512 8.29102C0.825308 8.30567 0.405387 8.31056 -0.0146484 8.30567C-0.0146484 6.63575 -0.0146484 4.96582 -0.0146484 3.2959Z" fill="#656E79"/>
<path opacity="0.994" fill-rule="evenodd" clip-rule="evenodd" d="M14.9854 3.2959C14.9854 4.96582 14.9854 6.63575 14.9854 8.30567C14.5653 8.31056 14.1454 8.30567 13.7256 8.29102C13.7109 8.27637 13.6963 8.26172 13.6816 8.24708C13.6621 6.61621 13.6621 4.98537 13.6816 3.3545C13.6963 3.33985 13.7109 3.3252 13.7256 3.31055C14.1454 3.2959 14.5653 3.29101 14.9854 3.2959Z" fill="#656E79"/>
<path opacity="0.968" fill-rule="evenodd" clip-rule="evenodd" d="M2.18262 4.55566C2.75259 4.77208 3.04556 5.1871 3.06152 5.80078C3.04518 6.41555 2.7522 6.8306 2.18262 7.0459C2.18262 6.21583 2.18262 5.38573 2.18262 4.55566Z" fill="#656E79"/>
<path opacity="0.969" fill-rule="evenodd" clip-rule="evenodd" d="M6.95801 4.55566C6.9873 4.55566 7.0166 4.55566 7.0459 4.55566C7.0459 5.38573 7.0459 6.21583 7.0459 7.0459C6.47631 6.8306 6.18334 6.41555 6.16699 5.80078C6.18709 5.22929 6.45076 4.81424 6.95801 4.55566Z" fill="#656E79"/>
<path opacity="0.968" fill-rule="evenodd" clip-rule="evenodd" d="M7.9248 4.55566C8.49478 4.77208 8.78774 5.1871 8.80371 5.80078C8.78736 6.41555 8.49439 6.8306 7.9248 7.0459C7.9248 6.21583 7.9248 5.38573 7.9248 4.55566Z" fill="#656E79"/>
<path opacity="0.969" fill-rule="evenodd" clip-rule="evenodd" d="M12.7002 4.55566C12.7295 4.55566 12.7588 4.55566 12.7881 4.55566C12.7881 5.38573 12.7881 6.21583 12.7881 7.0459C12.2185 6.8306 11.9255 6.41555 11.9092 5.80078C11.9293 5.22929 12.1929 4.81424 12.7002 4.55566Z" fill="#656E79"/>
<path opacity="0.992" fill-rule="evenodd" clip-rule="evenodd" d="M12.3488 14.9854C9.10661 14.9854 5.86444 14.9854 2.62224 14.9854C2.37973 14.8511 2.29672 14.6461 2.37322 14.3701C2.41717 14.248 2.50017 14.165 2.62224 14.1211C3.16992 14.1173 3.7168 14.0978 4.26287 14.0625C4.76056 13.9359 5.08769 13.6283 5.24431 13.1396C5.29397 12.9256 5.33792 12.7107 5.37615 12.4951C6.7824 12.4951 8.18865 12.4951 9.5949 12.4951C9.6271 12.898 9.74918 13.2691 9.96111 13.6084C10.1658 13.8327 10.4149 13.984 10.7082 14.0625C11.2542 14.0978 11.8011 14.1173 12.3488 14.1211C12.5953 14.2485 12.6783 14.4487 12.5978 14.7217C12.5484 14.8443 12.4654 14.9322 12.3488 14.9854Z" fill="#656E79"/>
</g>
<defs>
<clipPath id="clip0_2793_77578">
<rect width="15" height="15" fill="white"/>
</clipPath>
</defs>
</svg>
