<svg width="24" height="24" viewBox="0 0 24 24" fill="none" xmlns="http://www.w3.org/2000/svg">
<g opacity="0.25" clip-path="url(#clip0_1129_59419)">
<path opacity="0.986" fill-rule="evenodd" clip-rule="evenodd" d="M10.9453 -0.0234375C11.289 -0.0234375 11.6328 -0.0234375 11.9766 -0.0234375C11.9766 0.679688 11.9766 1.38281 11.9766 2.08594C10.6674 2.06975 9.41742 2.31975 8.22656 2.83594C6.99614 3.33299 5.91802 4.05174 4.99219 4.99219C4.06464 5.90864 3.3459 6.97111 2.83594 8.17969C2.33911 9.39469 2.08911 10.6603 2.08594 11.9766C2.08883 13.2793 2.33883 14.5293 2.83594 15.7266C3.3339 16.9583 4.05265 18.0365 4.99219 18.9609C5.90864 19.8885 6.97111 20.6072 8.17969 21.1172C9.39469 21.614 10.6603 21.864 11.9766 21.8672C11.9766 22.5703 11.9766 23.2734 11.9766 23.9766C11.6328 23.9766 11.289 23.9766 10.9453 23.9766C6.24534 23.3887 2.89378 20.9512 0.890625 16.6641C0.407997 15.4836 0.103309 14.2648 -0.0234375 13.0078C-0.0234375 12.3203 -0.0234375 11.6328 -0.0234375 10.9453C0.564412 6.24534 3.00191 2.89378 7.28906 0.890625C8.46956 0.407997 9.68831 0.103309 10.9453 -0.0234375Z" fill="#E3E3E3"/>
<path opacity="0.986" fill-rule="evenodd" clip-rule="evenodd" d="M11.9766 -0.0234375C12.3203 -0.0234375 12.6641 -0.0234375 13.0078 -0.0234375C17.7078 0.564412 21.0593 3.00191 23.0625 7.28906C23.5451 8.46956 23.8498 9.68831 23.9766 10.9453C23.9766 11.6328 23.9766 12.3203 23.9766 13.0078C23.3887 17.7078 20.9512 21.0593 16.6641 23.0625C15.4836 23.5451 14.2648 23.8498 13.0078 23.9766C12.6641 23.9766 12.3203 23.9766 11.9766 23.9766C11.9766 23.2734 11.9766 22.5703 11.9766 21.8672C13.3058 21.8745 14.5714 21.6089 15.7734 21.0703C16.9875 20.5896 18.05 19.8865 18.9609 18.9609C19.8885 18.0445 20.6072 16.982 21.1172 15.7734C21.5939 14.5544 21.8438 13.2887 21.8672 11.9766C21.8886 10.63 21.6229 9.34875 21.0703 8.13281C20.5883 6.93352 19.8852 5.88661 18.9609 4.99219C18.0351 4.05174 16.957 3.33299 15.7266 2.83594C14.5255 2.35442 13.2755 2.10442 11.9766 2.08594C11.9766 1.38281 11.9766 0.679688 11.9766 -0.0234375Z" fill="#D6D6D6"/>
<path fill-rule="evenodd" clip-rule="evenodd" d="M11.9766 2.08594C11.9766 3.50782 11.9766 4.92971 11.9766 6.35157C11.2283 6.35344 10.5096 6.49407 9.82031 6.77344C9.26297 5.47126 8.73169 4.15877 8.22656 2.83594C9.41742 2.31975 10.6674 2.06975 11.9766 2.08594Z" fill="#777777"/>
<path fill-rule="evenodd" clip-rule="evenodd" d="M11.9766 2.08594C13.2755 2.10443 14.5255 2.35442 15.7266 2.83594C15.2046 4.15163 14.6734 5.46413 14.1328 6.77344C13.4409 6.49687 12.7222 6.35625 11.9766 6.35156C11.9766 4.9297 11.9766 3.50781 11.9766 2.08594Z" fill="black"/>
<path fill-rule="evenodd" clip-rule="evenodd" d="M8.22656 2.83594C8.73169 4.15876 9.26297 5.47125 9.82031 6.77344C9.13837 7.07503 8.529 7.4813 7.99219 7.99219C7.00781 6.97655 6.00783 5.97656 4.99219 4.99219C5.91802 4.05174 6.99614 3.33299 8.22656 2.83594Z" fill="#333333"/>
<path fill-rule="evenodd" clip-rule="evenodd" d="M15.7266 2.83594C16.957 3.33299 18.0351 4.05174 18.9609 4.99219C17.9766 6.00783 16.9766 7.00781 15.9609 7.99219C15.4208 7.48008 14.8115 7.07386 14.1328 6.77344C14.6734 5.46413 15.2046 4.15163 15.7266 2.83594Z" fill="#686868"/>
<path fill-rule="evenodd" clip-rule="evenodd" d="M4.99219 4.99219C6.00783 5.97656 7.00781 6.97655 7.99219 7.99219C7.4813 8.529 7.07503 9.13837 6.77344 9.82031C5.45311 9.29166 4.1406 8.74481 2.83594 8.17969C3.3459 6.97111 4.06464 5.90864 4.99219 4.99219Z" fill="#777777"/>
<path fill-rule="evenodd" clip-rule="evenodd" d="M18.9609 4.99219C19.8852 5.88661 20.5883 6.93352 21.0703 8.13281C21.0667 8.19141 21.0354 8.23045 20.9766 8.25C19.7097 8.77416 18.4441 9.29761 17.1797 9.82031C16.8781 9.13837 16.4718 8.529 15.9609 7.99219C16.9766 7.00781 17.9766 6.00783 18.9609 4.99219Z" fill="black"/>
<path fill-rule="evenodd" clip-rule="evenodd" d="M11.9766 6.35156C11.9766 7.52344 11.9766 8.69531 11.9766 9.86719C11.6671 9.87783 11.3702 9.94031 11.086 10.0547C10.5642 9.55636 10.0486 9.04852 9.53913 8.53125C9.16521 8.80303 8.82147 9.12338 8.50788 9.49219C9.02449 10.0244 9.54011 10.5556 10.0548 11.0859C9.80505 11.6781 9.80505 12.2718 10.0548 12.8672C9.55642 13.389 9.04858 13.9046 8.53131 14.4141C8.8031 14.788 9.12344 15.1317 9.49225 15.4453C10.0245 14.9287 10.5557 14.4131 11.086 13.8984C11.3702 14.0128 11.6671 14.0753 11.9766 14.0859C11.9766 15.2578 11.9766 16.4297 11.9766 17.6016C11.2287 17.6051 10.51 17.4645 9.82038 17.1797C9.13844 16.8781 8.52906 16.4718 7.99225 15.9609C7.48136 15.4241 7.0751 14.8148 6.7735 14.1328C6.50327 13.4403 6.36264 12.7216 6.35163 11.9766C6.34811 11.2286 6.48874 10.5099 6.7735 9.82031C7.0751 9.13838 7.48136 8.529 7.99225 7.99219C8.52906 7.4813 9.13844 7.07503 9.82038 6.77344C10.5097 6.49406 11.2284 6.35344 11.9766 6.35156Z" fill="#ADADAD"/>
<path fill-rule="evenodd" clip-rule="evenodd" d="M11.9766 6.35156C12.7222 6.35625 13.4409 6.49687 14.1328 6.77344C14.8115 7.07386 15.4208 7.48008 15.9609 7.99219C16.4718 8.529 16.8781 9.13838 17.1797 9.82031C17.4592 10.5105 17.5998 11.2292 17.6016 11.9766C17.5969 12.7222 17.4563 13.4409 17.1797 14.1328C16.8793 14.8115 16.473 15.4208 15.9609 15.9609C15.4241 16.4718 14.8147 16.8781 14.1328 17.1797C13.4403 17.4499 12.7215 17.5905 11.9766 17.6016C11.9766 16.4297 11.9766 15.2578 11.9766 14.0859C12.2814 14.0594 12.5783 13.9968 12.8672 13.8984C13.389 14.3968 13.9046 14.9046 14.4141 15.4219C14.788 15.1501 15.1317 14.8298 15.4453 14.4609C14.9287 13.9287 14.4131 13.3975 13.8984 12.8672C14.1412 12.2711 14.1412 11.6774 13.8984 11.0859C14.3968 10.5641 14.9046 10.0485 15.4219 9.53906C15.1501 9.16514 14.8298 8.82141 14.4609 8.50781C13.9287 9.02442 13.3975 9.54005 12.8672 10.0547C12.5783 9.9563 12.2814 9.89377 11.9766 9.86719C11.9766 8.69531 11.9766 7.52344 11.9766 6.35156Z" fill="#969696"/>
<path fill-rule="evenodd" clip-rule="evenodd" d="M2.83594 8.17969C4.1406 8.74481 5.45311 9.29166 6.77344 9.82031C6.48867 10.5099 6.34805 11.2286 6.35156 11.9766C4.9297 11.9766 3.50781 11.9766 2.08594 11.9766C2.08911 10.6603 2.33911 9.39469 2.83594 8.17969Z" fill="#333333"/>
<path fill-rule="evenodd" clip-rule="evenodd" d="M21.0703 8.13281C21.6229 9.34875 21.8886 10.63 21.8672 11.9766C20.4453 11.9766 19.0234 11.9766 17.6016 11.9766C17.5998 11.2292 17.4592 10.5105 17.1797 9.82031C18.4441 9.29761 19.7097 8.77416 20.9766 8.25C21.0354 8.23045 21.0667 8.19141 21.0703 8.13281Z" fill="#686868"/>
<path fill-rule="evenodd" clip-rule="evenodd" d="M11.0859 10.0547C10.6328 10.2891 10.2891 10.6328 10.0547 11.0859C9.54005 10.5556 9.02442 10.0244 8.50781 9.49219C8.82141 9.12337 9.16514 8.80303 9.53906 8.53125C10.0485 9.04852 10.5641 9.55636 11.0859 10.0547Z" fill="#D7D7D7"/>
<path fill-rule="evenodd" clip-rule="evenodd" d="M13.8984 11.0859C13.6641 10.6328 13.3203 10.2891 12.8672 10.0547C13.3975 9.54005 13.9287 9.02442 14.4609 8.50781C14.8298 8.82141 15.1501 9.16514 15.4219 9.53906C14.9046 10.0485 14.3968 10.5641 13.8984 11.0859Z" fill="#C6C6C6"/>
<path fill-rule="evenodd" clip-rule="evenodd" d="M11.9763 9.86719C11.9763 11.2734 11.9763 12.6797 11.9763 14.0859C11.6668 14.0753 11.3699 14.0128 11.0857 13.8984C10.6326 13.6641 10.2888 13.3203 10.0545 12.8672C9.80476 12.2718 9.80476 11.6781 10.0545 11.0859C10.2888 10.6328 10.6326 10.2891 11.0857 10.0547C11.3699 9.94031 11.6668 9.87783 11.9763 9.86719Z" fill="#E5E5E5"/>
<path fill-rule="evenodd" clip-rule="evenodd" d="M11.9766 9.86719C12.2814 9.89377 12.5783 9.9563 12.8672 10.0547C13.3203 10.2891 13.6641 10.6328 13.8984 11.0859C14.1412 11.6774 14.1412 12.2711 13.8984 12.8672C13.6641 13.3203 13.3203 13.6641 12.8672 13.8984C12.5783 13.9968 12.2814 14.0594 11.9766 14.0859C11.9766 12.6797 11.9766 11.2734 11.9766 9.86719Z" fill="#D8D8D8"/>
<path fill-rule="evenodd" clip-rule="evenodd" d="M2.08594 11.9766C3.50781 11.9766 4.9297 11.9766 6.35156 11.9766C6.36258 12.7216 6.5032 13.4403 6.77344 14.1328C5.47125 14.6902 4.15876 15.2214 2.83594 15.7266C2.33883 14.5293 2.08883 13.2793 2.08594 11.9766Z" fill="#777777"/>
<path fill-rule="evenodd" clip-rule="evenodd" d="M17.6016 11.9766C19.0234 11.9766 20.4453 11.9766 21.8672 11.9766C21.8438 13.2887 21.5939 14.5544 21.1172 15.7734C19.8047 15.2265 18.4922 14.6797 17.1797 14.1328C17.4563 13.4409 17.5969 12.7222 17.6016 11.9766Z" fill="black"/>
<path fill-rule="evenodd" clip-rule="evenodd" d="M10.0547 12.8672C10.2891 13.3203 10.6328 13.6641 11.0859 13.8984C10.5556 14.4131 10.0244 14.9287 9.49219 15.4453C9.12337 15.1317 8.80303 14.788 8.53125 14.4141C9.04852 13.9046 9.55636 13.389 10.0547 12.8672Z" fill="#D7D7D7"/>
<path fill-rule="evenodd" clip-rule="evenodd" d="M13.8984 12.8672C14.4131 13.3975 14.9287 13.9287 15.4453 14.4609C15.1317 14.8298 14.788 15.1501 14.4141 15.4219C13.9046 14.9046 13.389 14.3968 12.8672 13.8984C13.3203 13.6641 13.6641 13.3203 13.8984 12.8672Z" fill="#C6C6C6"/>
<path fill-rule="evenodd" clip-rule="evenodd" d="M6.77344 14.1328C7.07503 14.8148 7.4813 15.4241 7.99219 15.9609C6.97655 16.9453 5.97656 17.9453 4.99219 18.9609C4.05265 18.0365 3.3339 16.9583 2.83594 15.7266C4.15876 15.2214 5.47125 14.6902 6.77344 14.1328Z" fill="#333333"/>
<path fill-rule="evenodd" clip-rule="evenodd" d="M17.1797 14.1328C18.4922 14.6797 19.8047 15.2265 21.1172 15.7734C20.6072 16.982 19.8885 18.0445 18.9609 18.9609C17.9466 17.9778 16.9466 16.9778 15.9609 15.9609C16.473 15.4208 16.8793 14.8115 17.1797 14.1328Z" fill="#686868"/>
<path fill-rule="evenodd" clip-rule="evenodd" d="M7.99219 15.9609C8.529 16.4718 9.13837 16.8781 9.82031 17.1797C9.27342 18.4922 8.72658 19.8047 8.17969 21.1172C6.97111 20.6072 5.90864 19.8885 4.99219 18.9609C5.97656 17.9453 6.97655 16.9453 7.99219 15.9609Z" fill="#777777"/>
<path fill-rule="evenodd" clip-rule="evenodd" d="M15.9609 15.9609C16.9466 16.9778 17.9466 17.9778 18.9609 18.9609C18.05 19.8865 16.9875 20.5896 15.7734 21.0703C15.2154 19.7818 14.6685 18.4849 14.1328 17.1797C14.8148 16.8781 15.4241 16.4718 15.9609 15.9609Z" fill="black"/>
<path fill-rule="evenodd" clip-rule="evenodd" d="M9.82031 17.1797C10.5099 17.4645 11.2286 17.6051 11.9766 17.6016C11.9766 19.0234 11.9766 20.4453 11.9766 21.8672C10.6603 21.864 9.39469 21.614 8.17969 21.1172C8.72658 19.8047 9.27342 18.4922 9.82031 17.1797Z" fill="#333333"/>
<path fill-rule="evenodd" clip-rule="evenodd" d="M14.1328 17.1797C14.6685 18.4849 15.2154 19.7818 15.7734 21.0703C14.5714 21.6089 13.3058 21.8745 11.9766 21.8672C11.9766 20.4453 11.9766 19.0234 11.9766 17.6016C12.7215 17.5905 13.4403 17.4499 14.1328 17.1797Z" fill="#686868"/>
</g>
<defs>
<clipPath id="clip0_1129_59419">
<rect width="24" height="24" fill="white"/>
</clipPath>
</defs>
</svg>
