<svg width="37" height="37" viewBox="0 0 37 37" fill="none" xmlns="http://www.w3.org/2000/svg">
<g clip-path="url(#clip0_461_17430)">
<path opacity="0.995" fill-rule="evenodd" clip-rule="evenodd" d="M13.0439 -0.0361328C13.5257 -0.0361328 14.0075 -0.0361328 14.4893 -0.0361328C14.4893 1.52962 14.4893 3.09538 14.4893 4.66113C11.9189 4.71051 9.71481 5.62588 7.87695 7.40723C7.84928 7.36705 7.81314 7.34298 7.76855 7.33496C6.70866 6.22689 5.62467 5.14291 4.5166 4.08301C6.88313 1.74361 9.72558 0.370562 13.0439 -0.0361328Z" fill="#2C80FC"/>
<path opacity="0.994" fill-rule="evenodd" clip-rule="evenodd" d="M14.5615 -0.0361328C15.0192 -0.0361328 15.4769 -0.0361328 15.9346 -0.0361328C19.2834 0.349729 22.15 1.72278 24.5342 4.08301C23.402 5.16699 22.2939 6.27506 21.21 7.40723C19.3479 5.65783 17.1317 4.74246 14.5615 4.66113C14.5615 3.09538 14.5615 1.52962 14.5615 -0.0361328Z" fill="#BDC2D1"/>
<path opacity="0.995" fill-rule="evenodd" clip-rule="evenodd" d="M4.5166 4.08301C5.62467 5.14291 6.70866 6.22689 7.76855 7.33496C7.77932 7.41098 7.76733 7.48325 7.73242 7.55176C6.02775 9.37618 5.14851 11.5441 5.09473 14.0557C3.52897 14.0557 1.96322 14.0557 0.397461 14.0557C0.422351 10.1545 1.7954 6.83024 4.5166 4.08301Z" fill="#DBE0EB"/>
<path opacity="0.995" fill-rule="evenodd" clip-rule="evenodd" d="M24.5342 4.08301C27.2294 6.84126 28.6024 10.1655 28.6533 14.0557C27.0635 14.0557 25.4736 14.0557 23.8838 14.0557C23.9169 12.288 23.4712 10.6499 22.5469 9.1416C22.1181 8.5483 21.6725 7.97018 21.21 7.40723C22.2939 6.27506 23.402 5.16699 24.5342 4.08301Z" fill="#2B5AAD"/>
<path fill-rule="evenodd" clip-rule="evenodd" d="M14.4893 -0.0361328C14.5133 -0.0361328 14.5375 -0.0361328 14.5615 -0.0361328C14.5615 1.52962 14.5615 3.09538 14.5615 4.66113C17.1317 4.74246 19.3479 5.65783 21.21 7.40723C21.6725 7.97018 22.1181 8.5483 22.5469 9.1416C23.4712 10.6499 23.9169 12.288 23.8838 14.0557C23.9027 15.1471 23.734 16.2069 23.3779 17.2354C22.8541 17.5542 22.4085 17.9636 22.041 18.4639C21.4078 19.5173 20.7935 20.5771 20.1982 21.6436C20.2029 21.6119 20.1909 21.5878 20.1621 21.5713C18.4997 22.7959 16.6329 23.4222 14.5615 23.4502C14.5615 25.016 14.5615 26.5817 14.5615 28.1475C14.5375 28.1475 14.5133 28.1475 14.4893 28.1475C14.4893 26.5817 14.4893 25.016 14.4893 23.4502C14.4893 22.2699 14.4893 21.0895 14.4893 19.9092C14.9494 19.866 15.2987 19.6492 15.5371 19.2588C16.332 17.6449 17.127 16.0309 17.9219 14.417C17.9701 14.1761 17.9701 13.9352 17.9219 13.6943C17.0788 12.0082 16.2357 10.3219 15.3926 8.63574C15.147 8.38115 14.846 8.26076 14.4893 8.27441C14.417 8.27441 14.3447 8.27441 14.2725 8.27441C14.3237 8.20909 14.396 8.18502 14.4893 8.20215C14.4893 7.02181 14.4893 5.84147 14.4893 4.66113C14.4893 3.09538 14.4893 1.52962 14.4893 -0.0361328Z" fill="#9095AA"/>
<path fill-rule="evenodd" clip-rule="evenodd" d="M14.4893 4.66113C14.4893 5.84147 14.4893 7.02181 14.4893 8.20215C14.396 8.18502 14.3237 8.20909 14.2725 8.27441C13.9928 8.33606 13.764 8.48059 13.5859 8.70801C12.6804 10.4586 11.8253 12.2292 11.0205 14.0195C11.03 14.1823 11.0661 14.3389 11.1289 14.4893C11.9479 16.1273 12.767 17.7653 13.5859 19.4033C13.7519 19.6548 13.9808 19.7993 14.2725 19.8369C14.3237 19.9022 14.396 19.9263 14.4893 19.9092C14.4893 21.0895 14.4893 22.2699 14.4893 23.4502C12.7462 23.4662 11.1323 23.0205 9.64746 22.1133C9.01521 21.7016 8.41302 21.2559 7.84082 20.7764C6.44576 19.2628 5.56653 17.4803 5.20312 15.4287C5.15608 14.9715 5.11995 14.5138 5.09473 14.0557C5.14851 11.5441 6.02775 9.37618 7.73242 7.55176C7.76733 7.48325 7.77932 7.41098 7.76855 7.33496C7.81314 7.34298 7.84928 7.36705 7.87695 7.40723C9.71481 5.62588 11.9189 4.71051 14.4893 4.66113Z" fill="#BDC2D2"/>
<path fill-rule="evenodd" clip-rule="evenodd" d="M14.2725 8.27441C14.3447 8.27441 14.417 8.27441 14.4893 8.27441C14.4893 12.1286 14.4893 15.9828 14.4893 19.8369C14.417 19.8369 14.3447 19.8369 14.2725 19.8369C13.9808 19.7993 13.7519 19.6548 13.5859 19.4033C12.767 17.7653 11.9479 16.1273 11.1289 14.4893C11.0661 14.3389 11.03 14.1823 11.0205 14.0195C11.8253 12.2292 12.6804 10.4586 13.5859 8.70801C13.764 8.48059 13.9928 8.33606 14.2725 8.27441Z" fill="#2D80FC"/>
<path fill-rule="evenodd" clip-rule="evenodd" d="M14.4893 8.27448C14.846 8.26082 15.147 8.38122 15.3926 8.63581C16.2357 10.322 17.0788 12.0082 17.9219 13.6944C17.9701 13.9353 17.9701 14.1762 17.9219 14.4171C17.127 16.031 16.332 17.6449 15.5371 19.2589C15.2987 19.6493 14.9494 19.8661 14.4893 19.9092C14.396 19.9264 14.3237 19.9023 14.2725 19.837C14.3447 19.837 14.417 19.837 14.4893 19.837C14.4893 15.9828 14.4893 12.1286 14.4893 8.27448Z" fill="#2B5AAD"/>
<path opacity="0.994" fill-rule="evenodd" clip-rule="evenodd" d="M0.397461 14.0557C1.96322 14.0557 3.52897 14.0557 5.09473 14.0557C5.11995 14.5138 5.15608 14.9715 5.20312 15.4287C5.56653 17.4803 6.44576 19.2628 7.84082 20.7764C6.73275 21.8604 5.62467 22.9443 4.5166 24.0283C1.79511 21.2806 0.422059 17.9563 0.397461 14.0557Z" fill="#2C80FC"/>
<path opacity="0.992" fill-rule="evenodd" clip-rule="evenodd" d="M23.8838 14.0557C25.4736 14.0557 27.0635 14.0557 28.6533 14.0557C28.6439 15.2534 28.4994 16.4337 28.2197 17.5967C26.6812 16.4927 25.0673 16.3724 23.3779 17.2354C23.734 16.2069 23.9027 15.1471 23.8838 14.0557Z" fill="#BDC2D1"/>
<path opacity="0.998" fill-rule="evenodd" clip-rule="evenodd" d="M28.2197 17.5968C28.6797 17.9489 29.0531 18.3825 29.3398 18.8976C31.4837 22.6554 33.6276 26.4132 35.7715 30.171C36.8657 32.049 36.7693 33.8556 35.4824 35.5909C34.8041 36.2851 33.9971 36.7429 33.0615 36.964C28.0511 36.964 23.0407 36.964 18.0303 36.964C15.9906 36.4419 14.8103 35.1412 14.4893 33.0616C14.4893 32.8689 14.4893 32.6763 14.4893 32.4835C14.4893 32.4595 14.4893 32.4353 14.4893 32.4113C14.4893 32.3149 14.4893 32.2185 14.4893 32.1222C14.5961 31.7935 14.7045 31.4563 14.8145 31.1105C15.3631 30.0851 15.9292 29.0734 16.5127 28.0753C17.7595 25.9432 18.988 23.7994 20.1982 21.6437C20.7935 20.5773 21.4078 19.5174 22.041 18.464C22.4085 17.9638 22.8541 17.5543 23.3779 17.2355C25.0673 16.3725 26.6812 16.4929 28.2197 17.5968Z" fill="#FBC000"/>
<path opacity="0.996" fill-rule="evenodd" clip-rule="evenodd" d="M7.84082 20.7764C8.41302 21.2559 9.01521 21.7016 9.64746 22.1133C11.1323 23.0205 12.7462 23.4662 14.4893 23.4502C14.4893 25.016 14.4893 26.5817 14.4893 28.1475C13.518 28.1702 12.5545 28.098 11.5986 27.9307C8.85774 27.3072 6.49705 26.0064 4.5166 24.0283C5.62467 22.9443 6.73275 21.8604 7.84082 20.7764Z" fill="#DBE0EA"/>
<path fill-rule="evenodd" clip-rule="evenodd" d="M20.1982 21.6436C18.988 23.7992 17.7595 25.9431 16.5127 28.0752C15.8624 28.1027 15.2121 28.1268 14.5615 28.1475C14.5615 26.5817 14.5615 25.016 14.5615 23.4502C16.6329 23.4222 18.4997 22.7959 20.1621 21.5713C20.1909 21.5878 20.2029 21.6119 20.1982 21.6436Z" fill="#2C5AAC"/>
<path fill-rule="evenodd" clip-rule="evenodd" d="M25.3291 22.3661C25.9979 22.2849 26.4677 22.5498 26.7383 23.161C26.7865 24.5581 26.7865 25.9553 26.7383 27.3524C26.5269 28.103 26.0331 28.404 25.2569 28.2558C24.9002 28.0846 24.6714 27.8076 24.5703 27.4247C24.5221 26.0034 24.5221 24.5823 24.5703 23.161C24.7407 22.8102 24.9936 22.5452 25.3291 22.3661Z" fill="#414951"/>
<path opacity="0.997" fill-rule="evenodd" clip-rule="evenodd" d="M10.0089 27.9306C10.0089 29.4241 10.0089 30.9175 10.0089 32.411C11.5024 32.411 12.9959 32.411 14.4894 32.411C14.4894 32.4351 14.4894 32.4592 14.4894 32.4833C12.9959 32.4833 11.5024 32.4833 10.0089 32.4833C6.99784 32.4833 3.98677 32.4833 0.975705 32.4833C0.963666 31.2064 0.975712 29.9297 1.01184 28.6532C1.14432 28.328 1.37317 28.0991 1.69836 27.9667C4.46844 27.9306 7.23861 27.9185 10.0089 27.9306Z" fill="#2F80FC"/>
<path opacity="0.999" fill-rule="evenodd" clip-rule="evenodd" d="M10.0088 27.9307C10.5387 27.9307 11.0687 27.9307 11.5986 27.9307C12.5545 28.098 13.518 28.1702 14.4893 28.1475C14.4893 29.4723 14.4893 30.7972 14.4893 32.1221C14.4893 32.2184 14.4893 32.3148 14.4893 32.4111C12.9957 32.4111 11.5023 32.4111 10.0088 32.4111C10.0088 30.9176 10.0088 29.4242 10.0088 27.9307Z" fill="#BEC3D2"/>
<path fill-rule="evenodd" clip-rule="evenodd" d="M16.5127 28.0752C15.9292 29.0733 15.3631 30.085 14.8145 31.1104C14.7045 31.4562 14.5961 31.7934 14.4893 32.1221C14.4893 30.7972 14.4893 29.4723 14.4893 28.1475C14.5133 28.1475 14.5375 28.1475 14.5615 28.1475C15.2121 28.1268 15.8624 28.1027 16.5127 28.0752Z" fill="#9297A9"/>
<path fill-rule="evenodd" clip-rule="evenodd" d="M25.2568 30.2431C26.3022 30.1204 26.796 30.5782 26.7383 31.6161C26.4706 32.2924 25.9768 32.5454 25.2568 32.3749C24.497 31.9434 24.3405 31.3532 24.7871 30.6044C24.9552 30.4912 25.1117 30.3708 25.2568 30.2431Z" fill="#434A51"/>
<path opacity="0.999" fill-rule="evenodd" clip-rule="evenodd" d="M0.975705 32.4834C3.98677 32.4834 6.99784 32.4834 10.0089 32.4834C10.0089 33.9769 10.0089 35.4704 10.0089 36.9639C7.23875 36.9639 4.46854 36.9639 1.69836 36.9639C1.38682 36.8087 1.15798 36.5679 1.01184 36.2412C0.975712 34.9888 0.963666 33.7363 0.975705 32.4834Z" fill="#BDC2D2"/>
<path fill-rule="evenodd" clip-rule="evenodd" d="M10.0088 32.4834C11.5023 32.4834 12.9957 32.4834 14.4893 32.4834C14.4893 32.6761 14.4893 32.8688 14.4893 33.0615C14.4893 34.3623 14.4893 35.6631 14.4893 36.9639C12.9957 36.9639 11.5023 36.9639 10.0088 36.9639C10.0088 35.4704 10.0088 33.9769 10.0088 32.4834Z" fill="#2C7FFD"/>
<path fill-rule="evenodd" clip-rule="evenodd" d="M14.4893 33.0615C14.8103 35.141 15.9906 36.4418 18.0303 36.9639C16.85 36.9639 15.6696 36.9639 14.4893 36.9639C14.4893 35.6631 14.4893 34.3623 14.4893 33.0615Z" fill="#2E5BAD"/>
</g>
<defs>
<clipPath id="clip0_461_17430">
<rect width="37" height="37" fill="white"/>
</clipPath>
</defs>
</svg>
