<svg width="22" height="23" viewBox="0 0 22 23" fill="none" xmlns="http://www.w3.org/2000/svg">
<path opacity="0.985" fill-rule="evenodd" clip-rule="evenodd" d="M16.3922 19.2988C14.8902 19.969 13.329 20.1552 11.7086 19.8574C10.3804 19.5726 9.16295 19.0427 8.05625 18.2676C7.31633 17.7426 6.65749 17.1267 6.07969 16.4199C5.06747 15.1834 4.33701 13.7941 3.88828 12.2519C3.73321 11.6601 3.63295 11.0585 3.5875 10.4472C3.50468 9.47903 3.56197 8.51937 3.75938 7.56834C4.15633 5.79184 5.05867 4.33806 6.46641 3.20701C6.52326 3.17195 6.55187 3.12182 6.55235 3.05662C8.95297 1.49318 11.4881 1.25685 14.1578 2.34764C17.5894 3.97595 19.6734 6.66148 20.4098 10.4043C20.81 12.6725 20.4233 14.7923 19.2496 16.7637C18.5299 17.8776 17.5774 18.7227 16.3922 19.2988Z" fill="#FED374"/>
<path fill-rule="evenodd" clip-rule="evenodd" d="M4.57607 6.45118C5.0412 6.69086 5.51386 6.92005 5.99404 7.13868C6.05131 7.19595 6.05131 7.25327 5.99404 7.31055C5.72058 7.44728 5.44842 7.58336 5.17763 7.71876C5.34985 7.69749 5.52172 7.66165 5.69325 7.61133C5.0229 10.2004 5.47407 12.6066 7.04677 14.8301C8.33287 16.5583 10.0444 17.5968 12.1815 17.9453C14.9332 18.1273 16.9169 16.9887 18.1327 14.5293C19.0384 12.0702 18.8092 9.72119 17.4452 7.48243C16.4126 5.81945 14.9732 4.66645 13.1268 4.02344C11.045 3.39139 9.15434 3.74231 7.45497 5.07618C7.46138 5.03097 7.45424 4.98801 7.43349 4.94727C7.32839 5.11459 7.23532 5.28647 7.15419 5.4629C7.02984 5.52228 6.92242 5.60822 6.83193 5.72071C6.64218 5.95996 6.46313 6.20346 6.29482 6.45118C6.19887 6.24497 6.09145 6.04448 5.97255 5.84961C6.03829 6.14735 6.13141 6.44099 6.25185 6.73047C6.24562 6.76365 6.23131 6.79231 6.20888 6.81641C6.13725 6.84507 6.06567 6.84507 5.99404 6.81641C5.53925 6.63904 5.08091 6.47429 4.61904 6.32227C5.71375 3.88349 7.59007 2.48701 10.2479 2.13282C12.8312 2.07156 15.0513 2.93093 16.9081 4.71094C19.5492 7.36379 20.5303 10.5363 19.8515 14.2285C19.051 17.1776 17.1532 18.9322 14.1581 19.4922C12.5078 19.6882 10.9466 19.4017 9.4745 18.6328C6.46725 16.9398 4.6697 14.3832 4.08193 10.9629C3.87556 9.63959 3.9615 8.33622 4.33974 7.05274C4.39865 6.83944 4.47741 6.63891 4.57607 6.45118Z" fill="#FFB961"/>
<path opacity="0.989" fill-rule="evenodd" clip-rule="evenodd" d="M6.55078 3.05664C6.55031 3.12184 6.52169 3.17197 6.46484 3.20703C5.0571 4.33808 4.15476 5.79186 3.75781 7.56836C3.06299 7.98026 2.36116 8.38133 1.65234 8.77148C2.08454 6.83858 3.10146 5.29888 4.70312 4.15234C5.3202 3.78662 5.93607 3.42138 6.55078 3.05664Z" fill="#F3A250"/>
<path fill-rule="evenodd" clip-rule="evenodd" d="M5.69114 7.61133C5.83289 7.52612 5.99046 7.48315 6.16379 7.48242C5.97709 8.1071 5.77656 8.73015 5.56223 9.35156C5.5826 9.42065 5.61126 9.42779 5.64817 9.37304C5.71009 9.23451 5.78172 9.10561 5.86301 8.98633C5.64877 12.0592 6.76596 14.5155 9.21457 16.3555C10.9707 17.5701 12.8613 17.8422 14.8864 17.1719C15.4521 16.9415 15.9534 16.6193 16.3904 16.2051C17.4411 15.2352 18.0498 14.0321 18.2165 12.5957C18.3976 9.26936 17.087 6.72703 14.2849 4.96875C12.663 4.05855 10.9729 3.901 9.21457 4.49609C8.41355 4.83215 7.72605 5.32629 7.15207 5.97851C7.24489 5.67142 7.34518 5.37064 7.45286 5.07617C9.15223 3.7423 11.0429 3.39139 13.1247 4.02344C14.9711 4.66644 16.4105 5.81944 17.4431 7.48242C18.8071 9.72118 19.0362 12.0702 18.1306 14.5293C16.9147 16.9887 14.9311 18.1273 12.1794 17.9453C10.0423 17.5967 8.33075 16.5583 7.04465 14.8301C5.47195 12.6066 5.02078 10.2004 5.69114 7.61133Z" fill="#FED274"/>
<path fill-rule="evenodd" clip-rule="evenodd" d="M16.3945 16.2051C17.4827 14.4674 17.7477 12.6054 17.1895 10.6192C16.451 8.19104 14.9256 6.46511 12.6133 5.44142C11.5575 5.03941 10.4689 4.92485 9.34766 5.09767C8.57594 5.2616 7.87413 5.57673 7.24219 6.04299C7.20193 6.07272 7.17331 6.06555 7.15625 6.0215C7.15625 6.00719 7.15625 5.99284 7.15625 5.97853C7.73023 5.32631 8.41773 4.83217 9.21875 4.49611C10.9771 3.90102 12.6672 4.05857 14.2891 4.96877C17.0912 6.72705 18.4018 9.26938 18.2207 12.5957C18.054 14.0321 17.4452 15.2352 16.3945 16.2051Z" fill="#DD8536"/>
<path fill-rule="evenodd" clip-rule="evenodd" d="M16.393 16.2051C15.9561 16.6193 15.4548 16.9415 14.8891 17.1719C12.864 17.8422 10.9734 17.5701 9.21726 16.3555C6.76864 14.5155 5.65146 12.0592 5.8657 8.98633C6.06022 8.56146 6.26075 8.13894 6.46726 7.71875C6.53653 7.68782 6.60098 7.69495 6.66062 7.74024C6.76688 8.01004 6.89579 8.26785 7.04734 8.51368C6.99182 8.2248 6.91306 7.93832 6.81101 7.6543C6.80818 7.57842 6.84401 7.53545 6.91843 7.52539C7.49654 7.7802 8.09097 7.97356 8.70164 8.10547C8.15142 7.78381 7.58565 7.49016 7.00437 7.22461C6.97498 7.16944 6.98216 7.1193 7.02586 7.07422C7.32432 6.95365 7.61075 6.81044 7.88523 6.64453C7.55291 6.72192 7.22351 6.80786 6.89695 6.90235C6.85166 6.84271 6.84453 6.77825 6.87547 6.70899C6.95711 6.47034 7.05018 6.24119 7.15476 6.02149C7.17182 6.06553 7.20044 6.07271 7.2407 6.04297C7.87264 5.57672 8.57445 5.26159 9.34617 5.09766C10.4674 4.92484 11.556 5.03939 12.6118 5.44141C14.9242 6.4651 16.4495 8.19102 17.188 10.6191C17.7462 12.6054 17.4812 14.4673 16.393 16.2051Z" fill="#F2A250"/>
<path fill-rule="evenodd" clip-rule="evenodd" d="M7.45478 5.07617C7.3471 5.37064 7.24681 5.67142 7.154 5.97852C7.154 5.99282 7.154 6.00718 7.154 6.02148C7.04941 6.24118 6.95634 6.47034 6.8747 6.70898C6.84376 6.77825 6.8509 6.8427 6.89619 6.90234C7.22275 6.80786 7.55215 6.72192 7.88447 6.64453C7.60998 6.81043 7.32355 6.95365 7.02509 7.07422C6.98139 7.11929 6.97422 7.16944 7.00361 7.22461C7.58489 7.49016 8.15066 7.7838 8.70087 8.10547C8.0902 7.97355 7.49577 7.78019 6.91767 7.52539C6.84325 7.53544 6.80741 7.57841 6.81025 7.6543C6.9123 7.93832 6.99106 8.22479 7.04658 8.51367C6.89503 8.26785 6.76612 8.01003 6.65986 7.74023C6.60022 7.69495 6.53576 7.68781 6.4665 7.71875C6.25999 8.13894 6.05946 8.56145 5.86494 8.98633C5.78364 9.10561 5.71201 9.23452 5.65009 9.37305C5.61318 9.42779 5.58452 9.42066 5.56416 9.35156C5.77848 8.73015 5.97902 8.1071 6.16572 7.48242C5.99238 7.48315 5.83482 7.52612 5.69306 7.61133C5.52153 7.66164 5.34966 7.69748 5.17744 7.71875C5.44823 7.58336 5.72039 7.44727 5.99384 7.31055C6.05112 7.25327 6.05112 7.19595 5.99384 7.13867C5.51367 6.92005 5.04101 6.69085 4.57587 6.45117C4.16399 6.24041 4.17831 6.19744 4.61884 6.32227C5.08071 6.47429 5.53906 6.63903 5.99384 6.81641C6.06547 6.84507 6.13706 6.84507 6.20869 6.81641C6.23112 6.7923 6.24542 6.76364 6.25166 6.73047C6.13121 6.44099 6.0381 6.14734 5.97236 5.84961C6.09125 6.04447 6.19867 6.24496 6.29462 6.45117C6.33162 6.53221 6.37459 6.61102 6.42353 6.6875C6.4787 6.71689 6.52885 6.70971 6.57392 6.66602C6.75615 6.25859 6.94951 5.85756 7.154 5.46289C7.23512 5.28646 7.32819 5.11459 7.4333 4.94727C7.45405 4.988 7.46118 5.03097 7.45478 5.07617Z" fill="#FFFBF7"/>
<path fill-rule="evenodd" clip-rule="evenodd" d="M7.15625 5.46289C6.95176 5.85756 6.7584 6.25859 6.57617 6.66602C6.5311 6.70972 6.48095 6.71689 6.42578 6.6875C6.37684 6.61102 6.33387 6.53221 6.29688 6.45117C6.46518 6.20346 6.64423 5.95995 6.83398 5.7207C6.92448 5.60821 7.0319 5.52227 7.15625 5.46289Z" fill="#FFD478"/>
<path fill-rule="evenodd" clip-rule="evenodd" d="M15.2302 12.6817C15.1894 12.8702 15.0892 13.0206 14.9294 13.1328C13.742 13.5585 12.5389 13.9309 11.32 14.25C10.8016 14.3045 10.4649 14.0825 10.3103 13.584C9.98864 12.1258 9.57326 10.6935 9.06417 9.28713C9.04083 9.14241 9.04801 8.99919 9.08565 8.85744C9.20846 8.68471 9.36602 8.54867 9.55831 8.44924C10.7359 8.16556 11.896 7.82181 13.0388 7.41799C13.494 7.39964 13.8019 7.60731 13.9626 8.04103C14.4616 9.36598 14.8912 10.7123 15.2517 12.0801C15.2825 12.2829 15.2753 12.4834 15.2302 12.6817Z" fill="#F6F5F8"/>
<path fill-rule="evenodd" clip-rule="evenodd" d="M3.76045 7.56836C3.56304 8.51939 3.50575 9.47905 3.58857 10.4473C2.90365 10.8185 2.23047 11.2124 1.56904 11.6289C1.52831 11.6497 1.48534 11.6568 1.44014 11.6504C1.35634 10.6773 1.42796 9.71766 1.65498 8.77148C2.3638 8.38133 3.06562 7.98026 3.76045 7.56836Z" fill="#DD8536"/>
<path fill-rule="evenodd" clip-rule="evenodd" d="M13.4297 7.74025C13.211 8.53023 12.9532 9.30367 12.6562 10.0606C12.4394 10.4195 12.1243 10.5341 11.7109 10.4043C10.9315 9.92135 10.1437 9.44869 9.34766 8.98635C9.40897 8.8461 9.50926 8.73867 9.64844 8.66408C10.8058 8.42122 11.9373 8.09178 13.043 7.6758C13.1822 7.64172 13.3111 7.66321 13.4297 7.74025Z" fill="#E3E7F0"/>
<path fill-rule="evenodd" clip-rule="evenodd" d="M13.4277 7.74023C13.5865 7.84203 13.6939 7.98529 13.75 8.16992C14.2346 9.45189 14.65 10.7553 14.9961 12.0801C15.031 12.2601 15.0238 12.4319 14.9746 12.5957C14.3324 12.1825 13.7022 11.7528 13.084 11.3066C12.7176 10.9665 12.5744 10.5512 12.6543 10.0605C12.9512 9.30365 13.209 8.53021 13.4277 7.74023Z" fill="#C9CEE2"/>
<path fill-rule="evenodd" clip-rule="evenodd" d="M9.09011 8.85742C9.05247 8.99918 9.04529 9.14239 9.06862 9.28711C9.57772 10.6935 9.9931 12.1258 10.3147 13.584C10.4694 14.0825 10.806 14.3045 11.3245 14.25C12.5434 13.9309 13.7465 13.5585 14.9339 13.1328C15.0937 13.0206 15.1939 12.8702 15.2346 12.6816C15.2224 13.1048 15.0075 13.3985 14.5901 13.5625C13.4766 13.9657 12.3451 14.3094 11.1956 14.5937C10.7429 14.6931 10.4063 14.5427 10.1858 14.1426C9.83454 12.6447 9.40485 11.1694 8.89675 9.7168C8.82967 9.39621 8.89413 9.10973 9.09011 8.85742Z" fill="#DE873A"/>
<path fill-rule="evenodd" clip-rule="evenodd" d="M9.34347 8.98633C10.1396 9.44867 10.9273 9.92133 11.7068 10.4043C11.8521 10.5427 11.9738 10.7002 12.072 10.877C12.0871 11.1021 12.0943 11.317 12.0935 11.5215C11.7035 12.3443 11.3025 13.1607 10.8903 13.9707C10.6831 13.8433 10.5614 13.6571 10.5251 13.4121C10.2115 12.0128 9.81046 10.6378 9.32199 9.28711C9.28778 9.17801 9.29496 9.07777 9.34347 8.98633Z" fill="#C9CEE2"/>
<path fill-rule="evenodd" clip-rule="evenodd" d="M12.6523 10.0605C12.5724 10.5512 12.7156 10.9665 13.082 11.3066C12.6841 11.0809 12.3547 11.1526 12.0938 11.5215C12.0946 11.317 12.0874 11.1021 12.0723 10.877C11.9741 10.7002 11.8524 10.5427 11.707 10.4043C12.1203 10.5341 12.4355 10.4195 12.6523 10.0605Z" fill="#EFF4F8"/>
<path opacity="0.996" fill-rule="evenodd" clip-rule="evenodd" d="M3.58594 10.4473C3.63139 11.0585 3.73165 11.6601 3.88672 12.252C3.16183 12.6499 2.46001 13.0796 1.78125 13.541C1.60258 12.9278 1.488 12.2976 1.4375 11.6504C1.4827 11.6568 1.52567 11.6497 1.56641 11.6289C2.22784 11.2124 2.90102 10.8185 3.58594 10.4473Z" fill="#F2A14F"/>
<path fill-rule="evenodd" clip-rule="evenodd" d="M13.082 11.3066C13.7002 11.7528 14.3304 12.1825 14.9727 12.5957C14.963 12.7702 14.8771 12.892 14.7148 12.9609C13.5298 13.3789 12.3267 13.7298 11.1055 14.0137C11.0299 14.0097 10.9583 13.9954 10.8906 13.9707C11.3028 13.1607 11.7038 12.3443 12.0938 11.5215C12.3547 11.1526 12.6841 11.0809 13.082 11.3066Z" fill="#B0B8CF"/>
<path fill-rule="evenodd" clip-rule="evenodd" d="M3.89063 12.252C4.33935 13.7941 5.06982 15.1835 6.08203 16.4199C6.06325 16.4876 6.02029 16.5377 5.95313 16.5703C5.29893 16.9618 4.64009 17.3413 3.97656 17.709C2.9211 16.5008 2.19063 15.1115 1.78516 13.541C2.46392 13.0796 3.16574 12.6499 3.89063 12.252Z" fill="#DD8536"/>
<path fill-rule="evenodd" clip-rule="evenodd" d="M7.96875 13.9277C8.32715 13.9067 8.542 14.0714 8.61328 14.4219C8.56198 14.6861 8.40441 14.772 8.14063 14.6797C7.96871 14.5577 7.86846 14.393 7.83984 14.1855C7.84534 14.08 7.88831 13.9941 7.96875 13.9277Z" fill="#FAE1C7"/>
<path fill-rule="evenodd" clip-rule="evenodd" d="M8.91328 14.7871C9.06818 14.8 9.21144 14.8501 9.34296 14.9375C10.0159 15.4461 10.732 15.8901 11.4914 16.2695C11.6783 16.4814 11.6353 16.639 11.3625 16.7422C10.3474 16.7109 9.53808 16.2884 8.93476 15.4746C8.81058 15.2454 8.80345 15.0163 8.91328 14.7871Z" fill="#FAE1C8"/>
<path opacity="0.997" fill-rule="evenodd" clip-rule="evenodd" d="M6.07812 16.4199C6.65593 17.1268 7.31477 17.7426 8.05469 18.2676C7.33853 18.683 6.62241 19.0983 5.90625 19.5137C5.16414 19.0201 4.51961 18.4186 3.97266 17.709C4.63618 17.3413 5.29502 16.9618 5.94922 16.5703C6.01638 16.5377 6.05935 16.4876 6.07812 16.4199Z" fill="#F2A24F"/>
<path fill-rule="evenodd" clip-rule="evenodd" d="M8.05859 18.2676C9.1653 19.0427 10.3827 19.5727 11.7109 19.8574C11.012 20.2701 10.3245 20.6998 9.64844 21.1465C8.26729 20.8923 7.0212 20.3481 5.91016 19.5137C6.62632 19.0983 7.34243 18.683 8.05859 18.2676Z" fill="#DD8536"/>
<path opacity="0.987" fill-rule="evenodd" clip-rule="evenodd" d="M16.3945 19.2988C15.6016 19.8318 14.7709 20.3116 13.9023 20.7383C12.5229 21.2715 11.1049 21.4076 9.64844 21.1465C10.3245 20.6998 11.012 20.2701 11.7109 19.8574C13.3313 20.1552 14.8925 19.969 16.3945 19.2988Z" fill="#F3A250"/>
</svg>
