<svg width="19" height="19" viewBox="0 0 19 19" fill="none" xmlns="http://www.w3.org/2000/svg">
<path opacity="0.974" fill-rule="evenodd" clip-rule="evenodd" d="M1.83704 1.65136C1.75796 1.68156 1.67136 1.70011 1.57727 1.70702C1.54461 1.75735 1.53224 1.81301 1.54016 1.87402C2.05388 1.86181 2.56105 1.87418 3.06164 1.91113C2.41193 1.89888 1.7687 1.91125 1.13196 1.94823C1.10106 3.17894 1.08251 4.4159 1.07629 5.65917C1.01932 5.5006 0.969834 5.33981 0.927855 5.17675C0.921532 4.84859 0.902977 4.52696 0.872191 4.21191C0.866009 3.42014 0.872191 2.62848 0.890746 1.83691C0.921669 1.7565 0.977333 1.70084 1.05774 1.66991C1.31721 1.65137 1.57698 1.64519 1.83704 1.65136Z" fill="#C572DD"/>
<path opacity="0.989" fill-rule="evenodd" clip-rule="evenodd" d="M1.83704 1.65136C2.28252 1.64519 2.72783 1.65137 3.17297 1.66992C3.24268 1.72717 3.29834 1.79521 3.33997 1.87402C3.34634 2.12807 3.36489 2.37546 3.39563 2.61621C3.3934 2.63636 3.38104 2.64873 3.35852 2.65332C3.32769 2.40684 3.30913 2.15945 3.30286 1.91113C3.2649 2.22 3.23397 2.52925 3.21008 2.83886C3.16222 2.81817 3.13129 2.78106 3.11731 2.72754C3.11096 2.44879 3.0924 2.17665 3.06165 1.91113C2.56105 1.87418 2.05389 1.86181 1.54016 1.87402C1.53224 1.81302 1.54461 1.75735 1.57727 1.70703C1.67137 1.70012 1.75796 1.68156 1.83704 1.65136Z" fill="#CA7EE0"/>
<path opacity="0.999" fill-rule="evenodd" clip-rule="evenodd" d="M8.47949 1.76272C8.18158 1.75043 7.8847 1.7628 7.58887 1.79983C7.54693 1.84147 7.52218 1.89096 7.51465 1.94826C6.79257 2.00944 6.07514 2.10839 5.3623 2.24514C5.32531 2.24625 5.30055 2.22769 5.28809 2.18947C5.31098 2.10684 5.36049 2.05117 5.43652 2.02248C6.43855 1.777 7.45286 1.69041 8.47949 1.76272Z" fill="#D69DE7"/>
<path opacity="0.999" fill-rule="evenodd" clip-rule="evenodd" d="M8.47949 1.76265C8.92547 1.76628 9.35843 1.82812 9.77832 1.94819C9.879 2.01178 9.95322 2.09837 10.001 2.20796C9.63397 2.12547 9.26287 2.06362 8.8877 2.02241C8.43793 1.95755 7.98026 1.93281 7.51465 1.94819C7.52218 1.89089 7.54693 1.8414 7.58887 1.79976C7.8847 1.76273 8.18158 1.75036 8.47949 1.76265Z" fill="#D6A3E6"/>
<path opacity="0.999" fill-rule="evenodd" clip-rule="evenodd" d="M14.7881 2.80172C14.795 3.23165 14.7023 3.63986 14.5098 4.02633C14.0614 4.81171 13.6038 5.59101 13.1367 6.36422C12.8601 6.8666 12.6313 7.37378 12.4502 7.8857C12.3847 7.92136 12.3105 7.93376 12.2275 7.92281C12.4398 7.34969 12.6934 6.79305 12.9883 6.25289C13.4243 5.5169 13.8696 4.78707 14.3242 4.06343C14.5347 3.67926 14.6337 3.27105 14.6211 2.83883C14.4727 2.16446 14.0583 1.87996 13.3779 1.98531C13.3753 1.91811 13.3443 1.86863 13.2852 1.83687C13.1949 1.87319 13.1021 1.89794 13.0068 1.91109C13.6007 1.63466 14.1264 1.73362 14.584 2.20797C14.7074 2.38652 14.7754 2.58444 14.7881 2.80172Z" fill="#B371CE"/>
<path fill-rule="evenodd" clip-rule="evenodd" d="M3.06152 1.91119C3.09228 2.17671 3.11083 2.44884 3.11719 2.72759C3.13117 2.78111 3.16209 2.81822 3.20996 2.83892C3.24396 2.8568 3.28107 2.86916 3.32129 2.87603C3.67376 2.74203 4.03249 2.6307 4.39746 2.54204C4.42489 2.53718 4.44964 2.54337 4.47168 2.5606C4.27953 2.6876 4.09398 2.82367 3.91504 2.9688C3.93708 2.98603 3.96183 2.99222 3.98926 2.98736C3.87392 3.02644 3.76259 3.07592 3.65527 3.13579C3.54605 3.15361 3.4471 3.19072 3.3584 3.24712C3.16048 3.32134 2.96256 3.39556 2.76465 3.46978C2.76465 3.04921 2.76465 2.62863 2.76465 2.20806C2.31934 2.20806 1.87402 2.20806 1.42871 2.20806C1.42871 3.46978 1.42871 4.7315 1.42871 5.99322C1.50293 5.99322 1.57715 5.99322 1.65137 5.99322C1.81217 5.99322 1.97298 5.99322 2.13379 5.99322C2.08069 6.07801 2.04358 6.17078 2.02246 6.27154C1.72584 6.29009 1.42897 6.29625 1.13184 6.29009C1.13184 4.84283 1.13184 3.39556 1.13184 1.94829C1.76858 1.91131 2.41181 1.89894 3.06152 1.91119Z" fill="#BD5DD8"/>
<path opacity="0.999" fill-rule="evenodd" clip-rule="evenodd" d="M9.77832 1.94824C10.219 2.0423 10.6643 2.10415 11.1143 2.13379C11.3174 2.17049 11.5277 2.18286 11.7451 2.1709C11.7501 2.24713 11.7254 2.30898 11.6709 2.35645C11.3617 2.35645 11.0524 2.35645 10.7432 2.35645C10.4958 2.30697 10.2484 2.25749 10.001 2.20801C9.95322 2.09842 9.879 2.01183 9.77832 1.94824Z" fill="#CC97DF"/>
<path fill-rule="evenodd" clip-rule="evenodd" d="M12.2275 7.92284C12.1945 7.94548 12.1574 7.95784 12.1162 7.95995C12.0034 7.97888 11.8921 8.00363 11.7822 8.03417C11.7594 8.00812 11.7594 7.97101 11.7822 7.92284C12.2523 7.20533 12.6234 6.43843 12.8955 5.62206C12.9603 5.48004 13.0345 5.344 13.1182 5.21386C13.4606 4.71522 13.776 4.19569 14.0645 3.65526C14.2264 3.33314 14.2635 2.99916 14.1758 2.65331C14.0443 2.44209 13.8526 2.33076 13.6006 2.31933C13.281 2.4155 12.9594 2.50827 12.6357 2.59765C12.4321 2.62637 12.2342 2.6573 12.042 2.69042C11.9554 2.69042 11.8688 2.69042 11.7822 2.69042C11.5098 2.69659 11.2377 2.69041 10.9658 2.67187C10.8463 2.58027 10.735 2.48131 10.6318 2.37499C10.667 2.35707 10.7041 2.35089 10.7432 2.35644C11.0524 2.35644 11.3617 2.35644 11.6709 2.35644C12.2604 2.32266 12.8294 2.19896 13.3779 1.98534C14.0583 1.87999 14.4727 2.16449 14.6211 2.83886C14.6337 3.27109 14.5347 3.67929 14.3242 4.06347C13.8696 4.7871 13.4243 5.51693 12.9883 6.25292C12.6934 6.79308 12.4398 7.34973 12.2275 7.92284Z" fill="#9C45C0"/>
<path fill-rule="evenodd" clip-rule="evenodd" d="M7.51465 1.94827C7.98026 1.93289 8.43793 1.95763 8.8877 2.02249C8.84046 2.04389 8.84046 2.06863 8.8877 2.09671C8.93356 2.12438 8.98307 2.13676 9.03613 2.13382C9.02444 2.23441 9.0492 2.321 9.11035 2.39358C7.78243 2.2299 6.47124 2.31649 5.17676 2.65335C4.7788 2.75525 4.38295 2.86658 3.98926 2.98733C3.96183 2.99219 3.93708 2.98601 3.91504 2.96878C4.09398 2.82364 4.27953 2.68758 4.47168 2.56058C4.44964 2.54335 4.42488 2.53716 4.39746 2.54202C4.71582 2.43152 5.03741 2.33256 5.3623 2.24515C6.07514 2.1084 6.79257 2.00944 7.51465 1.94827Z" fill="#C169DA"/>
<path opacity="0.998" fill-rule="evenodd" clip-rule="evenodd" d="M13.3779 1.98535C12.8294 2.19897 12.2604 2.32267 11.6709 2.35645C11.7254 2.30898 11.7501 2.24713 11.7451 2.1709C11.5277 2.18286 11.3174 2.17049 11.1143 2.13379C11.7577 2.16004 12.3886 2.08582 13.0068 1.91113C13.1021 1.89798 13.1949 1.87324 13.2852 1.83691C13.3443 1.86867 13.3753 1.91815 13.3779 1.98535Z" fill="#BD82D5"/>
<path fill-rule="evenodd" clip-rule="evenodd" d="M8.88773 2.02246C9.2629 2.06367 9.63399 2.12552 10.001 2.20801C10.2484 2.25749 10.4958 2.30697 10.7432 2.35645C10.7042 2.3509 10.667 2.35708 10.6319 2.375C10.735 2.48132 10.8464 2.58028 10.9659 2.67188C11.2377 2.69042 11.5098 2.6966 11.7823 2.69043C11.7426 2.72511 11.6932 2.73748 11.6338 2.72754C11.1595 2.73927 10.6894 2.70216 10.2237 2.61621C9.85134 2.54669 9.48025 2.47248 9.11038 2.39355C9.04923 2.32097 9.02447 2.23439 9.03616 2.13379C8.9831 2.13673 8.93359 2.12436 8.88773 2.09668C8.84048 2.06861 8.84048 2.04387 8.88773 2.02246Z" fill="#B25BD0"/>
<path fill-rule="evenodd" clip-rule="evenodd" d="M2.76465 3.46973C2.70121 3.63313 2.60843 3.78156 2.48633 3.91504C2.07437 4.55351 1.79605 5.24619 1.65137 5.99316C1.57715 5.99316 1.50293 5.99316 1.42871 5.99316C1.42871 4.73145 1.42871 3.46973 1.42871 2.20801C1.87402 2.20801 2.31934 2.20801 2.76465 2.20801C2.76465 2.62858 2.76465 3.04915 2.76465 3.46973Z" fill="#9A43BF"/>
<path opacity="0.995" fill-rule="evenodd" clip-rule="evenodd" d="M3.39551 2.61621C4.05045 2.34444 4.73081 2.14653 5.43652 2.02246C5.36049 2.05115 5.31098 2.10681 5.28809 2.18945C5.30055 2.22767 5.32531 2.24623 5.3623 2.24512C5.03741 2.33254 4.71582 2.4315 4.39746 2.54199C4.03249 2.63065 3.67376 2.74198 3.32129 2.87598C3.28107 2.86911 3.24396 2.85674 3.20996 2.83887C3.23385 2.52925 3.26478 2.22001 3.30273 1.91113C3.30901 2.15945 3.32756 2.40684 3.3584 2.65332C3.38091 2.64873 3.39328 2.63637 3.39551 2.61621Z" fill="#D08BE3"/>
<path fill-rule="evenodd" clip-rule="evenodd" d="M13.1182 5.21387C12.8458 4.27971 12.351 3.48188 11.6338 2.82031C11.8173 2.77785 12.0028 2.74074 12.1904 2.70898C12.1424 2.6908 12.0929 2.68461 12.042 2.69043C12.2342 2.65731 12.4321 2.62638 12.6357 2.59766C12.9594 2.50828 13.281 2.4155 13.6006 2.31934C13.8526 2.33077 14.0443 2.4421 14.1758 2.65332C14.2635 2.99917 14.2264 3.33315 14.0645 3.65527C13.776 4.1957 13.4606 4.71523 13.1182 5.21387Z" fill="#BC5CD7"/>
<path fill-rule="evenodd" clip-rule="evenodd" d="M9.11035 2.39352C9.48022 2.47244 9.85132 2.54666 10.2236 2.61618C10.0946 2.6586 9.9586 2.66478 9.81543 2.63473C9.35279 2.51623 8.88276 2.4482 8.40527 2.43063C7.95354 2.37478 7.50823 2.38715 7.06934 2.46774C6.4462 2.50046 5.83389 2.59942 5.23242 2.76461C5.20151 2.75843 5.17056 2.75224 5.13965 2.74606C5.16755 2.72116 5.17995 2.69024 5.17676 2.65328C6.47124 2.31643 7.78243 2.22984 9.11035 2.39352Z" fill="#C889DD"/>
<path fill-rule="evenodd" clip-rule="evenodd" d="M8.40528 2.43066C8.88277 2.44824 9.35279 2.51627 9.81544 2.63477C9.95861 2.66482 10.0946 2.65864 10.2236 2.61621C10.6894 2.70216 11.1594 2.73927 11.6338 2.72754C11.6055 2.75604 11.5684 2.77459 11.5225 2.7832C11.2875 2.79557 11.0524 2.80794 10.8174 2.82031C11.7992 3.59789 12.4424 4.59366 12.7471 5.80762C12.5832 6.14772 12.4101 6.48171 12.2275 6.80957C12.2663 6.25612 12.0437 5.84792 11.5596 5.58496C11.4393 5.33206 11.3094 5.08465 11.1699 4.84277C11.1621 4.90059 11.1436 4.95006 11.1143 4.99121C11.1383 4.58086 11.0023 4.23448 10.7061 3.95215C10.3432 3.63468 9.92261 3.43676 9.44434 3.3584C9.43291 3.26845 9.44531 3.18186 9.48145 3.09863C9.61957 3.20708 9.66284 3.16997 9.61134 2.9873C9.55794 2.93112 9.50227 2.91875 9.44434 2.9502C9.34203 2.88033 9.2369 2.8556 9.12891 2.87598C9.05945 2.85489 8.99142 2.83015 8.92481 2.80176C8.89694 2.83427 8.87839 2.87138 8.86915 2.91309C8.69633 2.88311 8.52318 2.846 8.34962 2.80176C8.33819 2.83175 8.31963 2.85648 8.29395 2.87598C8.24675 2.85571 8.19725 2.84335 8.14552 2.83887C8.01608 2.88292 7.88619 2.92003 7.75587 2.9502C7.73794 2.91502 7.73178 2.87791 7.73731 2.83887C7.8027 2.83357 7.86456 2.84594 7.92286 2.87598C7.94761 2.81413 7.97233 2.75228 7.99708 2.69043C8.05538 2.72047 8.11724 2.73283 8.18262 2.72754C8.18262 2.67806 8.18262 2.62858 8.18262 2.5791C8.25562 2.57022 8.32368 2.58259 8.38673 2.61621C8.40506 2.55557 8.41122 2.49372 8.40528 2.43066Z" fill="#C169DA"/>
<path fill-rule="evenodd" clip-rule="evenodd" d="M7.06934 2.46781C7.12029 2.462 7.16979 2.46818 7.21777 2.48637C7.12066 2.51685 7.02169 2.53541 6.9209 2.54203C6.9209 2.57914 6.9209 2.61625 6.9209 2.65336C6.838 2.64891 6.75758 2.66128 6.67969 2.69047C6.46935 2.76496 6.26525 2.85154 6.06738 2.95023C5.99725 3.02733 5.91063 3.07681 5.80762 3.09867C5.75652 3.23617 5.65755 3.32276 5.51074 3.35844C5.48113 3.37539 5.46877 3.40013 5.47363 3.43266C4.97054 3.58503 4.52523 3.83243 4.1377 4.17484C3.96673 4.29612 3.8059 4.4322 3.65527 4.58305C3.6429 4.53358 3.63053 4.48408 3.61816 4.43461C3.52229 4.18226 3.33674 4.07094 3.06152 4.10062C2.83186 4.09799 2.64631 4.1846 2.50488 4.36039C2.51262 4.30762 2.53118 4.25815 2.56055 4.21195C2.65256 4.14464 2.74533 4.08277 2.83887 4.02641C3.09853 4.00603 3.34592 4.04934 3.58105 4.15629C3.64909 4.34287 3.74185 4.36143 3.85938 4.21195C3.9012 4.10519 3.92595 3.99386 3.93359 3.87797C4.0791 3.69538 4.22138 3.50984 4.36035 3.32133C4.51473 3.22245 4.65081 3.10493 4.76855 2.96879C4.70669 2.94405 4.64487 2.94405 4.58301 2.96879C4.32116 3.05589 4.0614 3.14866 3.80371 3.24711C3.77465 3.18075 3.72519 3.14364 3.65527 3.13578C3.76259 3.0759 3.87392 3.02642 3.98926 2.98734C4.38295 2.86659 4.7788 2.75526 5.17676 2.65336C5.17995 2.69032 5.16755 2.72124 5.13965 2.74613C5.17056 2.75232 5.20151 2.7585 5.23242 2.76469C5.83389 2.5995 6.4462 2.50054 7.06934 2.46781Z" fill="#AE5ECC"/>
<path fill-rule="evenodd" clip-rule="evenodd" d="M8.40533 2.43065C8.41126 2.49371 8.4051 2.55556 8.38677 2.6162C8.32372 2.58257 8.25566 2.57021 8.18267 2.57909C8.18267 2.62857 8.18267 2.67805 8.18267 2.72753C8.11728 2.73282 8.05542 2.72045 7.99712 2.69042C7.97237 2.75227 7.94766 2.81411 7.9229 2.87596C7.86461 2.84593 7.80274 2.83356 7.73736 2.83886C7.73183 2.87789 7.73799 2.915 7.75591 2.95018C7.88624 2.92001 8.01612 2.8829 8.14556 2.83886C8.19729 2.84333 8.24679 2.8557 8.294 2.87596C8.31968 2.85647 8.33823 2.83173 8.34966 2.80175C8.52322 2.84598 8.69638 2.88309 8.86919 2.91307C8.87843 2.87136 8.89699 2.83425 8.92486 2.80175C8.99147 2.83014 9.05949 2.85488 9.12896 2.87596C9.23695 2.85558 9.34208 2.88032 9.44439 2.95018C9.50232 2.91874 9.55798 2.93111 9.61138 2.98729C9.66289 3.16996 9.61962 3.20707 9.4815 3.09862C9.44535 3.18185 9.43296 3.26843 9.44439 3.35839C9.92265 3.43675 10.3433 3.63467 10.7061 3.95214C11.0023 4.23446 11.1384 4.58084 11.1143 4.9912C11.0914 5.1799 11.0543 5.36545 11.003 5.54784C10.9659 5.54784 10.9288 5.54784 10.8917 5.54784C10.8179 5.30236 10.7684 5.05495 10.7432 4.80565C10.7159 4.54696 10.6046 4.3305 10.4092 4.15624C10.1941 3.99919 9.95906 3.88167 9.70415 3.8037C9.47463 3.7189 9.23962 3.65707 8.99908 3.61815C9.00227 3.58119 8.98987 3.55027 8.96197 3.52538C8.85747 3.49485 8.77085 3.43918 8.7022 3.35839C8.67259 3.41693 8.65403 3.47878 8.64654 3.54393C8.63258 3.39764 8.55221 3.33579 8.40533 3.35839C8.40533 3.32128 8.40533 3.28417 8.40533 3.24706C8.59844 3.23955 8.79019 3.25192 8.98052 3.28417C9.08721 3.26566 9.09341 3.24092 8.99908 3.20995C8.88964 3.18018 8.77831 3.16781 8.66509 3.17284C8.35664 3.1454 8.04737 3.13303 7.73736 3.13573C6.96207 3.08923 6.20752 3.18819 5.47369 3.43261C5.46882 3.40008 5.48118 3.37534 5.51079 3.35839C5.6576 3.32271 5.75657 3.23612 5.80767 3.09862C5.91069 3.07676 5.9973 3.02728 6.06744 2.95018C6.2653 2.85149 6.4694 2.76491 6.67974 2.69042C6.75763 2.66123 6.83805 2.64886 6.92095 2.65331C6.92095 2.6162 6.92095 2.57909 6.92095 2.54198C7.02174 2.53536 7.12071 2.5168 7.21783 2.48632C7.16984 2.46813 7.12034 2.46195 7.06939 2.46776C7.50828 2.38717 7.95359 2.37481 8.40533 2.43065Z" fill="#BA69D5"/>
<path fill-rule="evenodd" clip-rule="evenodd" d="M11.7822 2.69047C11.8688 2.69047 11.9554 2.69047 12.042 2.69047C12.0929 2.68465 12.1424 2.69084 12.1904 2.70902C12.0028 2.74078 11.8173 2.77789 11.6338 2.82035C12.351 3.48191 12.8458 4.27975 13.1182 5.21391C13.0345 5.34405 12.9603 5.48009 12.8955 5.62211C12.8549 5.69072 12.8055 5.75259 12.7471 5.80766C12.4424 4.5937 11.7992 3.59793 10.8174 2.82035C11.0524 2.80798 11.2874 2.79561 11.5225 2.78324C11.5684 2.77463 11.6055 2.75607 11.6338 2.72758C11.6931 2.73752 11.7426 2.72515 11.7822 2.69047Z" fill="#BE60D8"/>
<path opacity="0.984" fill-rule="evenodd" clip-rule="evenodd" d="M14.7881 2.80176C15.0051 3.35029 15.0732 3.91931 14.9922 4.50879C14.8991 4.8063 14.7754 5.09081 14.6211 5.3623C14.1189 6.14413 13.655 6.94817 13.2295 7.77441C12.9668 7.79427 12.707 7.83138 12.4502 7.88574C12.6313 7.37382 12.8601 6.86664 13.1367 6.36426C13.6038 5.59105 14.0614 4.81175 14.5098 4.02637C14.7023 3.6399 14.795 3.2317 14.7881 2.80176Z" fill="#8335A5"/>
<path fill-rule="evenodd" clip-rule="evenodd" d="M2.83887 4.02637C2.96639 3.95378 3.10246 3.94142 3.24707 3.98926C3.41985 3.84164 3.51262 3.65607 3.52539 3.43262C3.54395 3.41406 3.5625 3.39551 3.58105 3.37695C3.53158 3.36459 3.4821 3.35221 3.43262 3.33984C3.46646 3.27952 3.44172 3.2486 3.3584 3.24707C3.4471 3.19067 3.54605 3.15356 3.65527 3.13574C3.72519 3.1436 3.77465 3.18071 3.80371 3.24707C4.0614 3.14862 4.32116 3.05585 4.58301 2.96875C4.64487 2.94401 4.70669 2.94401 4.76855 2.96875C4.65081 3.1049 4.51473 3.22241 4.36035 3.32129C4.22138 3.5098 4.0791 3.69535 3.93359 3.87793C3.92595 3.99382 3.9012 4.10515 3.85938 4.21192C3.74185 4.36139 3.64909 4.34284 3.58105 4.15625C3.34592 4.0493 3.09853 4.006 2.83887 4.02637Z" fill="#A554C6"/>
<path fill-rule="evenodd" clip-rule="evenodd" d="M7.7373 3.13574C8.04732 3.13304 8.35659 3.14541 8.66504 3.17285C8.26348 3.20976 7.85528 3.22213 7.44043 3.20996C7.5394 3.18522 7.63833 3.16048 7.7373 3.13574Z" fill="#CB89DF"/>
<path fill-rule="evenodd" clip-rule="evenodd" d="M8.66504 3.17284C8.77826 3.16781 8.88959 3.18018 8.99902 3.20995C9.09336 3.24092 9.08716 3.26566 8.98047 3.28417C8.79014 3.25193 8.59839 3.23956 8.40527 3.24706C8.40527 3.28417 8.40527 3.32128 8.40527 3.35839C8.55215 3.33579 8.63253 3.39764 8.64648 3.54394C8.65398 3.47879 8.67254 3.41694 8.70215 3.35839C8.7708 3.43919 8.85741 3.49485 8.96191 3.52538C8.98982 3.55028 9.00222 3.5812 8.99902 3.61816C8.32044 3.53542 7.64008 3.52305 6.95801 3.58105C6.17018 3.6269 5.44035 3.84957 4.76855 4.24901C4.00841 4.72873 3.51981 5.40905 3.30273 6.29003C3.1021 6.32614 2.898 6.33853 2.69043 6.32714C2.84385 6.29059 3.00466 6.27823 3.17285 6.29003C3.20942 6.0139 3.28364 5.74797 3.39551 5.49218C3.38932 5.47362 3.38314 5.45507 3.37695 5.43652C3.33942 5.46758 3.29613 5.47993 3.24707 5.47362C3.2697 5.44056 3.28207 5.40345 3.28418 5.3623C3.32427 5.26967 3.37375 5.18306 3.43262 5.10253C3.63922 4.75983 3.89897 4.46295 4.21191 4.21191C5.17383 3.5291 6.25 3.19512 7.44043 3.20995C7.85528 3.22212 8.26348 3.20975 8.66504 3.17284Z" fill="#C676DD"/>
<path fill-rule="evenodd" clip-rule="evenodd" d="M3.3584 3.24707C3.44172 3.2486 3.46646 3.27952 3.43262 3.33984C3.4821 3.35221 3.53158 3.36458 3.58105 3.37695C3.5625 3.39551 3.54395 3.41406 3.52539 3.43262C3.51262 3.65607 3.41985 3.84164 3.24707 3.98926C3.10246 3.94142 2.96639 3.95378 2.83887 4.02637C2.74533 4.08274 2.65256 4.1446 2.56055 4.21191C2.53118 4.25812 2.51262 4.30758 2.50488 4.36035C2.43315 4.40273 2.37748 4.46455 2.33789 4.5459C2.25869 4.96475 2.40095 5.28018 2.76465 5.49219C2.70893 5.6037 2.67182 5.72119 2.65332 5.84473C2.59398 5.83478 2.5445 5.84718 2.50488 5.88184C2.46777 5.88184 2.43066 5.88184 2.39355 5.88184C2.39355 5.91895 2.39355 5.95605 2.39355 5.99316C2.30697 5.99316 2.22038 5.99316 2.13379 5.99316C1.97298 5.99316 1.81217 5.99316 1.65137 5.99316C1.79605 5.24619 2.07437 4.55351 2.48633 3.91504C2.60843 3.78156 2.70121 3.63313 2.76465 3.46973C2.96256 3.39551 3.16048 3.32129 3.3584 3.24707Z" fill="#9D49C1"/>
<path fill-rule="evenodd" clip-rule="evenodd" d="M8.99902 3.61813C9.23957 3.65704 9.47458 3.71888 9.7041 3.80367C9.68859 3.83047 9.66388 3.84902 9.62988 3.85934C9.67104 3.92662 9.64629 3.95753 9.55566 3.95211C8.64849 3.7715 7.73311 3.72203 6.80957 3.80367C6.80634 3.76664 6.79398 3.72333 6.77246 3.67379C6.85573 3.67195 6.9176 3.64103 6.95801 3.58102C7.64008 3.52302 8.32044 3.53539 8.99902 3.61813Z" fill="#DCAFEA"/>
<path opacity="0.984" fill-rule="evenodd" clip-rule="evenodd" d="M9.55567 3.95219C9.89251 4.04348 10.1832 4.21667 10.4277 4.47172C10.5774 4.72611 10.596 4.98587 10.4834 5.25102C9.955 4.95804 9.38596 4.80344 8.77637 4.78715C7.64884 4.66499 6.56031 4.81342 5.51074 5.23246C4.86337 5.54585 4.37475 6.02211 4.04492 6.66117C3.95089 6.90617 3.86431 7.15358 3.78516 7.40336C3.74011 7.46084 3.68444 7.50411 3.61816 7.53324C2.86361 7.558 2.10905 7.558 1.35449 7.53324C1.26397 7.50452 1.19593 7.44886 1.15039 7.36625C1.05823 7.04707 0.977821 6.72545 0.90918 6.40141C0.963419 6.43696 1.0129 6.48023 1.05762 6.53129C1.29232 6.54985 1.52734 6.55601 1.7627 6.54985C2.01009 6.54985 2.25749 6.54985 2.50488 6.54985C2.81821 6.5661 3.12746 6.54755 3.43262 6.49418C3.48981 6.43559 3.5331 6.36753 3.5625 6.29008C3.73844 5.51535 4.1528 4.9092 4.80566 4.47172C5.43155 4.11143 6.09952 3.88877 6.80957 3.80375C7.73311 3.72211 8.64849 3.77158 9.55567 3.95219Z" fill="#8335A5"/>
<path fill-rule="evenodd" clip-rule="evenodd" d="M6.95801 3.58105C6.9176 3.64106 6.85573 3.67199 6.77246 3.67383C6.79398 3.72337 6.80634 3.76668 6.80957 3.80371C6.09952 3.88873 5.43155 4.11138 4.80566 4.47168C4.77824 4.47654 4.75349 4.47034 4.73145 4.45313C4.81791 4.39791 4.8303 4.32988 4.76855 4.24902C5.44035 3.84958 6.17018 3.62691 6.95801 3.58105Z" fill="#D8A2E8"/>
<path fill-rule="evenodd" clip-rule="evenodd" d="M7.73731 3.13578C7.63833 3.16052 7.5394 3.18526 7.44043 3.21C6.25 3.19517 5.17383 3.52915 4.21191 4.21196C4.1751 4.21834 4.15039 4.20594 4.1377 4.17485C4.52523 3.83244 4.97054 3.58503 5.47363 3.43266C6.20747 3.18824 6.96202 3.08928 7.73731 3.13578Z" fill="#D8B0E7"/>
<path opacity="0.962" fill-rule="evenodd" clip-rule="evenodd" d="M1.13177 1.94824C1.13177 3.39551 1.13177 4.84277 1.13177 6.29004C1.42891 6.2962 1.72578 6.29004 2.0224 6.27148C2.04352 6.17073 2.08063 6.07796 2.13373 5.99316C2.22032 5.99316 2.30691 5.99316 2.39349 5.99316C2.39349 5.95606 2.39349 5.91895 2.39349 5.88184C2.4306 5.88184 2.46771 5.88184 2.50482 5.88184C2.67171 5.86124 2.82633 5.88596 2.96869 5.95606C2.96492 5.85326 2.99584 5.75429 3.06146 5.65918C3.08824 5.67469 3.1068 5.69941 3.11713 5.7334C3.16091 5.64582 3.20421 5.55924 3.24701 5.47363C3.29607 5.47994 3.33936 5.46758 3.37689 5.43652C3.38308 5.45508 3.38926 5.47363 3.39545 5.49219C3.28358 5.74798 3.20936 6.01391 3.17279 6.29004C3.0046 6.27824 2.84379 6.2906 2.69037 6.32715C2.62852 6.32715 2.56667 6.32715 2.50482 6.32715C2.2698 6.32715 2.03477 6.32715 1.79974 6.32715C1.80623 6.40586 1.79386 6.48008 1.76263 6.54981C1.52728 6.55597 1.29226 6.54981 1.05756 6.53125C1.01284 6.48019 0.963358 6.43692 0.909119 6.40137C0.872117 5.67799 0.859748 4.94816 0.872009 4.21191C0.902795 4.52697 0.92135 4.8486 0.927673 5.17676C0.969652 5.33982 1.01913 5.50061 1.07611 5.65918C1.08233 4.4159 1.10088 3.17895 1.13177 1.94824Z" fill="#C26CDA"/>
<path fill-rule="evenodd" clip-rule="evenodd" d="M3.6182 4.43457C3.63057 4.48404 3.64294 4.53354 3.65531 4.58301C3.63066 4.65674 3.58737 4.7186 3.52542 4.76855C3.43784 4.66242 3.35743 4.55109 3.28421 4.43457C3.22214 4.37571 3.14792 4.35096 3.06156 4.36035C3.05947 4.24839 3.0471 4.23603 3.02445 4.32324C2.91653 4.36825 2.8052 4.41152 2.69046 4.45312C2.54988 4.69129 2.57462 4.91395 2.76468 5.12109C2.85814 5.17683 2.95091 5.23249 3.043 5.28808C3.09333 5.25543 3.14899 5.24303 3.21 5.25097C3.20202 5.31328 3.22676 5.35039 3.28421 5.3623C3.2821 5.40346 3.26973 5.44057 3.2471 5.47363C3.2043 5.55924 3.16101 5.64582 3.11722 5.7334C3.10689 5.6994 3.08834 5.67469 3.06156 5.65918C3.07559 5.56934 3.10033 5.48276 3.13578 5.39941C3.15593 5.39719 3.1683 5.38483 3.17289 5.3623C2.65878 5.29866 2.45468 5.01414 2.56058 4.50879C2.72411 4.18312 2.97769 4.09034 3.32132 4.23047C3.42781 4.28969 3.52676 4.35775 3.6182 4.43457Z" fill="#BB7FD4"/>
<path fill-rule="evenodd" clip-rule="evenodd" d="M3.06152 5.06545C3.06638 5.09288 3.0602 5.11763 3.04297 5.13967C3.00882 5.04315 2.98408 4.94418 2.96875 4.8428C2.79002 4.99175 2.77147 4.9794 2.91309 4.80569C2.85574 4.77036 2.79389 4.758 2.72754 4.76858C2.77126 4.71295 2.83311 4.67584 2.91309 4.65725C2.77147 4.48354 2.79002 4.47118 2.96875 4.62014C3.0267 4.42984 3.07618 4.42984 3.11719 4.62014C3.25273 4.47085 3.27129 4.48324 3.17285 4.65725C3.42025 4.70672 3.42025 4.75622 3.17285 4.80569C3.22222 4.92997 3.20366 4.94232 3.11719 4.8428C3.09846 4.91768 3.07991 4.9919 3.06152 5.06545Z" fill="#F7F1FA"/>
<path fill-rule="evenodd" clip-rule="evenodd" d="M4.1377 4.1748C4.15039 4.2059 4.1751 4.2183 4.21191 4.21191C3.89897 4.46296 3.63922 4.75983 3.43262 5.10254C3.39566 5.09935 3.36474 5.11174 3.33984 5.13965C3.32193 5.10447 3.31574 5.06736 3.32129 5.02832C3.23212 5.02639 3.14553 5.03875 3.06152 5.06543C3.07991 4.99188 3.09846 4.91766 3.11719 4.84277C3.20366 4.9423 3.22222 4.92994 3.17285 4.80566C3.42025 4.7562 3.42025 4.70669 3.17285 4.65723C3.27129 4.48322 3.25273 4.47083 3.11719 4.62012C3.07618 4.42982 3.0267 4.42982 2.96875 4.62012C2.79002 4.47116 2.77147 4.48352 2.91309 4.65723C2.83311 4.67582 2.77126 4.71293 2.72754 4.76855C2.69502 4.77342 2.67028 4.76106 2.65332 4.73145C2.69043 4.65723 2.72754 4.58301 2.76465 4.50879C2.83501 4.47294 2.90923 4.46058 2.9873 4.47168C2.9848 4.41754 2.99717 4.36807 3.02441 4.32324C3.04706 4.23604 3.05943 4.24839 3.06152 4.36035C3.14789 4.35096 3.22211 4.37571 3.28418 4.43457C3.3574 4.55109 3.4378 4.66242 3.52539 4.76855C3.58733 4.71861 3.63063 4.65674 3.65527 4.58301C3.8059 4.43216 3.96673 4.29608 4.1377 4.1748Z" fill="#CEA2E0"/>
<path fill-rule="evenodd" clip-rule="evenodd" d="M3.02448 4.32324C2.99723 4.36807 2.98487 4.41754 2.98737 4.47168C2.90929 4.46058 2.83507 4.47294 2.76471 4.50879C2.7276 4.58301 2.69049 4.65723 2.65338 4.73145C2.67034 4.76106 2.69508 4.77342 2.7276 4.76855C2.79395 4.75798 2.8558 4.77034 2.91315 4.80566C2.77153 4.97937 2.79008 4.99173 2.96881 4.84277C2.98414 4.94416 3.00888 5.04313 3.04303 5.13965C3.06026 5.11761 3.06645 5.09285 3.06159 5.06543C3.14559 5.03875 3.23218 5.02639 3.32135 5.02832C3.3158 5.06736 3.32199 5.10447 3.33991 5.13965C3.3648 5.11174 3.39572 5.09935 3.43268 5.10254C3.37382 5.18307 3.32433 5.26968 3.28424 5.3623C3.22679 5.35039 3.20205 5.31328 3.21002 5.25098C3.14902 5.24304 3.09335 5.25543 3.04303 5.28809C2.95094 5.2325 2.85817 5.17683 2.76471 5.12109C2.57464 4.91395 2.54991 4.69129 2.69049 4.45313C2.80523 4.41153 2.91656 4.36826 3.02448 4.32324Z" fill="#C695DB"/>
<path fill-rule="evenodd" clip-rule="evenodd" d="M4.76855 4.24902C4.8303 4.32988 4.81791 4.39791 4.73145 4.45313C4.75349 4.47034 4.77824 4.47654 4.80566 4.47168C4.1528 4.90916 3.73844 5.51531 3.5625 6.29004C3.5331 6.36749 3.48981 6.43555 3.43262 6.49414C3.12746 6.5475 2.81821 6.56606 2.50488 6.5498C2.50488 6.47559 2.50488 6.40137 2.50488 6.32715C2.56673 6.32715 2.62858 6.32715 2.69043 6.32715C2.898 6.33854 3.1021 6.32615 3.30273 6.29004C3.51981 5.40906 4.00841 4.72874 4.76855 4.24902Z" fill="#D191E3"/>
<path fill-rule="evenodd" clip-rule="evenodd" d="M3.61813 4.43462C3.5267 4.3578 3.42774 4.28974 3.32126 4.23052C2.97762 4.09039 2.72404 4.18317 2.56051 4.50884C2.45461 5.01419 2.65871 5.29871 3.17282 5.36235C3.16823 5.38488 3.15586 5.39724 3.13571 5.39946C2.82381 5.41416 2.60734 5.27812 2.4863 4.99126C2.45883 4.77907 2.46501 4.56877 2.50485 4.3604C2.64628 4.18461 2.83183 4.098 3.06149 4.10063C3.33671 4.07095 3.52226 4.18228 3.61813 4.43462Z" fill="#B16DCD"/>
<path fill-rule="evenodd" clip-rule="evenodd" d="M2.50489 4.36035C2.46505 4.56872 2.45887 4.77902 2.48633 4.99121C2.60737 5.27807 2.82384 5.41411 3.13575 5.39941C3.1003 5.48276 3.07556 5.56934 3.06153 5.65918C2.99591 5.75429 2.96498 5.85326 2.96875 5.95605C2.82639 5.88596 2.67177 5.86124 2.50489 5.88184C2.5445 5.84718 2.59399 5.83478 2.65332 5.84473C2.67182 5.72119 2.70893 5.6037 2.76465 5.49219C2.40095 5.28018 2.25869 4.96475 2.33789 4.5459C2.37749 4.46455 2.43315 4.40273 2.50489 4.36035Z" fill="#A557C6"/>
<path fill-rule="evenodd" clip-rule="evenodd" d="M2.50488 6.32715C2.50488 6.40137 2.50488 6.47559 2.50488 6.5498C2.25749 6.5498 2.01009 6.5498 1.7627 6.5498C1.79392 6.48008 1.80629 6.40586 1.7998 6.32715C2.03483 6.32715 2.26986 6.32715 2.50488 6.32715Z" fill="#CA7DDF"/>
<path fill-rule="evenodd" clip-rule="evenodd" d="M12.8955 5.62207C12.6234 6.43844 12.2523 7.20534 11.7822 7.92285C11.9234 7.54879 12.0718 7.1777 12.2275 6.80957C12.41 6.48171 12.5832 6.14772 12.7471 5.80762C12.8055 5.75255 12.8549 5.69069 12.8955 5.62207Z" fill="#A655C7"/>
<path opacity="0.998" fill-rule="evenodd" clip-rule="evenodd" d="M9.7041 3.80371C9.95901 3.88168 10.194 3.9992 10.4092 4.15625C10.6045 4.33052 10.7159 4.54697 10.7432 4.80566C10.7659 5.15627 10.6793 5.4779 10.4834 5.77051C10.1851 6.19237 9.85109 6.58821 9.48145 6.95801C8.83196 7.50225 8.17635 8.04034 7.51465 8.57227C7.27069 8.79752 7.04804 9.03873 6.84668 9.2959C6.71012 9.43257 6.58639 9.58101 6.47559 9.74121C6.289 9.97188 6.12201 10.2193 5.97461 10.4834C5.92429 10.5161 5.86863 10.5285 5.80762 10.5205C5.83025 10.4874 5.84261 10.4503 5.84473 10.4092C5.83834 10.3724 5.85074 10.3477 5.88184 10.335C5.93401 10.3174 5.95876 10.2803 5.95605 10.2236C5.94967 10.1868 5.96207 10.1621 5.99316 10.1494C6.04534 10.1319 6.07009 10.0948 6.06738 10.0381C6.11956 10.0205 6.14431 9.98342 6.1416 9.92676C6.54509 9.32685 7.01516 8.7764 7.55176 8.27539C8.31918 7.70621 9.04281 7.08155 9.72266 6.40137C10.0439 6.06178 10.2975 5.67829 10.4834 5.25098C10.596 4.98583 10.5774 4.72606 10.4277 4.47168C10.1832 4.21663 9.89251 4.04344 9.55566 3.95215C9.64629 3.95757 9.67104 3.92665 9.62988 3.85938C9.66388 3.84906 9.68859 3.8305 9.7041 3.80371Z" fill="#D8A6E7"/>
<path fill-rule="evenodd" clip-rule="evenodd" d="M10.7432 4.80566C10.7684 5.05496 10.8179 5.30237 10.8916 5.54785C10.9287 5.54785 10.9658 5.54785 11.0029 5.54785C11.0543 5.36546 11.0914 5.17991 11.1143 4.99121C11.1436 4.95006 11.1621 4.90059 11.1699 4.84277C11.3094 5.08465 11.4393 5.33206 11.5596 5.58496C12.0437 5.84792 12.2663 6.25612 12.2275 6.80957C12.0718 7.1777 11.9234 7.54879 11.7822 7.92285C11.7594 7.97102 11.7594 8.00813 11.7822 8.03418C11.57 8.09675 11.3597 8.17097 11.1514 8.25684C11.139 8.24448 11.1266 8.23208 11.1143 8.21973C11.191 8.02034 11.2715 7.8224 11.3555 7.62598C12.0717 7.30647 12.2696 6.78693 11.9492 6.06738C11.5554 5.58006 11.0853 5.49349 10.5391 5.80762C10.5107 5.80502 10.4921 5.79266 10.4834 5.77051C10.6793 5.4779 10.7659 5.15627 10.7432 4.80566Z" fill="#C573DC"/>
<path fill-rule="evenodd" clip-rule="evenodd" d="M9.48145 6.95801C9.46968 7.11394 9.48208 7.26238 9.51855 7.40332C9.49692 7.61046 9.44126 7.80841 9.35156 7.99707C9.33921 7.98471 9.32681 7.97232 9.31445 7.95996C9.24966 8.10198 9.17544 8.23802 9.0918 8.36816C9.06705 8.41763 9.04233 8.41763 9.01758 8.36816C8.93134 8.50265 8.82001 8.61398 8.68359 8.70215C8.67124 8.68979 8.65884 8.6774 8.64648 8.66504C8.57909 8.73707 8.50488 8.76182 8.42383 8.73926C8.19627 8.97494 8.0973 8.92547 8.12695 8.59082C7.86099 8.83203 7.59506 9.07324 7.3291 9.31445C7.16775 9.32985 7.00696 9.32369 6.84668 9.2959C7.04804 9.03873 7.27069 8.79752 7.51465 8.57227C8.17635 8.04034 8.83196 7.50225 9.48145 6.95801Z" fill="#CC8AE0"/>
<path fill-rule="evenodd" clip-rule="evenodd" d="M15.4189 7.95995C15.6017 7.99142 15.7749 8.04089 15.9385 8.10839C15.47 8.14004 15.0124 8.08438 14.5654 7.9414C13.7131 7.8418 12.8719 7.89746 12.042 8.10839C12.0667 8.05892 12.0915 8.00942 12.1162 7.95995C12.1574 7.95784 12.1945 7.94548 12.2275 7.92284C12.3105 7.93379 12.3847 7.9214 12.4502 7.88573C12.707 7.83137 12.9668 7.79426 13.2295 7.77441C13.5617 7.73318 13.8957 7.72702 14.2314 7.75585C14.6306 7.80725 15.0264 7.87527 15.4189 7.95995Z" fill="#D39CE4"/>
<path fill-rule="evenodd" clip-rule="evenodd" d="M11.7821 8.03418C11.892 8.00364 12.0033 7.97889 12.1161 7.95996C12.0914 8.00943 12.0666 8.05893 12.0419 8.1084C11.892 8.15323 11.7435 8.20273 11.5966 8.25684C11.374 8.32508 11.1514 8.38074 10.9286 8.42383C10.9101 8.40527 10.8915 8.38672 10.8729 8.36817C10.8544 8.19542 10.8482 8.02227 10.8544 7.84863C10.5823 7.84863 10.3101 7.84863 10.038 7.84863C9.93861 7.82358 9.852 7.77408 9.77822 7.7002C9.90191 7.7002 10.0256 7.7002 10.1493 7.7002C10.176 7.49097 10.1884 7.28071 10.1864 7.06934C10.2255 7.06381 10.2626 7.06997 10.2978 7.08789C10.372 7.21158 10.4709 7.31055 10.5946 7.38477C10.8084 7.4614 11.0249 7.52946 11.244 7.58887C11.9739 7.34165 12.1965 6.85922 11.912 6.1416C11.6783 5.91034 11.4 5.77426 11.0771 5.7334C11.0152 5.74576 10.9534 5.75815 10.8915 5.77051C10.878 5.79585 10.8657 5.82061 10.8544 5.84473C10.802 5.89798 10.7401 5.93509 10.6688 5.95606C10.4431 6.03977 10.3008 6.20057 10.2421 6.43848C10.2297 6.53745 10.2173 6.63638 10.205 6.73535C9.98103 6.96554 9.75217 7.1882 9.51846 7.40332C9.48198 7.26238 9.46958 7.11394 9.48135 6.95801C9.85099 6.58821 10.185 6.19237 10.4833 5.77051C10.492 5.79266 10.5106 5.80502 10.539 5.80762C11.0852 5.49349 11.5553 5.58006 11.9491 6.06738C12.2695 6.78693 12.0716 7.30647 11.3554 7.62598C11.2714 7.8224 11.1909 8.02034 11.1142 8.21973C11.1265 8.23208 11.1389 8.24448 11.1513 8.25684C11.3596 8.17097 11.5699 8.09675 11.7821 8.03418Z" fill="#CA82DF"/>
<path fill-rule="evenodd" clip-rule="evenodd" d="M10.6689 5.95605C10.7401 5.93509 10.802 5.89798 10.8544 5.84473C11.4607 5.75184 11.8318 6.00541 11.9677 6.60547C11.9002 7.05639 11.6527 7.35946 11.2255 7.51465C10.8858 7.4778 10.6074 7.32936 10.3906 7.06934C10.2047 6.63074 10.2975 6.25965 10.6689 5.95605Z" fill="#D294E4"/>
<path fill-rule="evenodd" clip-rule="evenodd" d="M11.1513 5.91895C11.5096 5.98663 11.7261 6.19689 11.8007 6.5498C11.8286 6.57304 11.8595 6.59159 11.8935 6.60547C11.8064 6.7548 11.726 6.90943 11.6523 7.06934C11.2632 7.40072 10.8921 7.37597 10.539 6.99512C10.3713 6.6474 10.427 6.34437 10.706 6.08594C10.8519 6.01068 11.0004 5.95502 11.1513 5.91895Z" fill="#D8A1E8"/>
<path fill-rule="evenodd" clip-rule="evenodd" d="M10.0381 7.84863C10.3102 7.84863 10.5824 7.84863 10.8545 7.84863C10.8483 8.02227 10.8545 8.19542 10.873 8.36816C10.8916 8.38672 10.9102 8.40527 10.9287 8.42383C11.1515 8.38074 11.3741 8.32508 11.5967 8.25684C11.6129 8.25442 11.6253 8.26058 11.6338 8.27539C11.5301 8.33235 11.4559 8.41277 11.4111 8.5166C11.2713 8.5556 11.1352 8.60507 11.0029 8.66504C10.9047 8.70167 10.8058 8.73878 10.7061 8.77637C10.6691 8.53018 10.6567 8.28281 10.6689 8.03418C10.3968 8.03418 10.1247 8.03418 9.85254 8.03418C9.85254 8.80112 9.85254 9.56802 9.85254 10.335C9.97622 10.335 10.0999 10.335 10.2236 10.335C10.3226 10.335 10.4215 10.335 10.5205 10.335C10.5595 10.3294 10.5967 10.3356 10.6318 10.3535C10.5992 10.4038 10.5868 10.4595 10.5947 10.5205C10.2855 10.5205 9.97622 10.5205 9.66699 10.5205C9.66699 9.62988 9.66699 8.73926 9.66699 7.84863C9.79068 7.84863 9.9144 7.84863 10.0381 7.84863Z" fill="#BC5ED7"/>
<path opacity="0.997" fill-rule="evenodd" clip-rule="evenodd" d="M17.9424 8.36821C17.9396 8.59855 17.8963 8.82121 17.8125 9.03618C17.5374 9.54933 17.2529 10.0565 16.959 10.5577C16.5222 11.3671 16.2068 12.2206 16.0127 13.1182C15.9898 13.1223 15.9712 13.1347 15.957 13.1553C16.0311 12.4442 16.2228 11.7638 16.5322 11.1143C16.8127 10.516 17.1405 9.947 17.5156 9.40728C17.6948 9.13567 17.8 8.8388 17.8311 8.51665C17.7852 8.04436 17.5255 7.84026 17.0518 7.90435C16.9533 7.93927 16.8543 7.97018 16.7549 7.99712C16.7295 7.93493 16.68 7.91017 16.6064 7.9229C16.891 7.78062 17.1879 7.73735 17.4971 7.79302C17.7522 7.9055 17.9007 8.09724 17.9424 8.36821Z" fill="#B26FCE"/>
<path fill-rule="evenodd" clip-rule="evenodd" d="M16.5322 11.1143C16.49 11.0102 16.4838 10.8989 16.5137 10.7803C16.6259 10.5932 16.7063 10.3953 16.7549 10.1865C17.008 9.75462 17.2616 9.32166 17.5156 8.88771C17.5951 8.72227 17.6198 8.54908 17.5898 8.36818C17.5173 8.20916 17.3936 8.12259 17.2188 8.10841C16.9073 8.21877 16.5919 8.29299 16.2725 8.33107C16.0495 8.33723 15.8268 8.33103 15.6045 8.31251C15.5632 8.25425 15.5137 8.20478 15.4561 8.16407C15.6854 8.15769 15.9081 8.13914 16.124 8.10841C16.3388 8.09512 16.5491 8.05802 16.7549 7.99708C16.8543 7.97014 16.9533 7.93923 17.0518 7.90431C17.5255 7.84022 17.7852 8.04432 17.8311 8.51661C17.8 8.83876 17.6948 9.13563 17.5156 9.40724C17.1405 9.94696 16.8127 10.516 16.5322 11.1143Z" fill="#9C45C0"/>
<path opacity="0.994" fill-rule="evenodd" clip-rule="evenodd" d="M16.6064 7.9228C16.68 7.91007 16.7295 7.93482 16.7549 7.99702C16.5491 8.05795 16.3388 8.09506 16.124 8.10834C16.0622 8.10834 16.0003 8.10834 15.9385 8.10834C15.7749 8.04084 15.6017 7.99138 15.4189 7.95991C15.8164 8.00926 16.2123 7.99691 16.6064 7.9228Z" fill="#C187D8"/>
<path fill-rule="evenodd" clip-rule="evenodd" d="M11.0029 8.66504C10.945 8.72549 10.9574 8.7688 11.04 8.79492C10.9048 9.00496 10.7193 9.1534 10.4834 9.24023C10.3661 9.40997 10.3414 9.59552 10.4092 9.79688C10.3386 9.97422 10.2768 10.1536 10.2236 10.335C10.0999 10.335 9.97622 10.335 9.85254 10.335C9.85254 9.56802 9.85254 8.80112 9.85254 8.03418C10.1247 8.03418 10.3968 8.03418 10.6689 8.03418C10.6567 8.28281 10.6691 8.53018 10.7061 8.77637C10.8058 8.73878 10.9047 8.70167 11.0029 8.66504Z" fill="#9A44BF"/>
<path fill-rule="evenodd" clip-rule="evenodd" d="M16.7549 10.1865C16.7425 10.1865 16.7301 10.1865 16.7178 10.1865C16.5116 9.47094 16.1157 8.88335 15.5303 8.42383C15.79 8.41147 16.0498 8.39908 16.3096 8.38672C16.3545 8.34564 16.3422 8.32708 16.2725 8.33105C16.5919 8.29298 16.9073 8.21876 17.2188 8.1084C17.3936 8.12257 17.5173 8.20915 17.5898 8.36816C17.6198 8.54907 17.5951 8.72226 17.5156 8.8877C17.2616 9.32165 17.008 9.75461 16.7549 10.1865Z" fill="#BD5DD7"/>
<path fill-rule="evenodd" clip-rule="evenodd" d="M12.4502 8.73926C11.973 8.86399 11.5648 9.1052 11.2256 9.4629C11.1324 9.47176 11.0706 9.42846 11.04 9.33301C11.0232 9.29746 10.9985 9.26651 10.9658 9.24024C10.8408 9.22009 10.7172 9.22629 10.5947 9.25879C10.5384 9.2592 10.4951 9.28392 10.4648 9.33301C10.3182 9.7273 10.4481 9.96231 10.8545 10.0381C10.8082 10.1057 10.7835 10.18 10.7803 10.2607C10.7051 10.2547 10.6308 10.2609 10.5576 10.2793C10.537 10.2935 10.5246 10.3121 10.5205 10.335C10.4215 10.335 10.3226 10.335 10.2236 10.335C10.2768 10.1536 10.3386 9.97423 10.4092 9.79688C10.3414 9.59552 10.3661 9.40998 10.4834 9.24024C10.7193 9.1534 10.9048 9.00497 11.04 8.79493C10.9574 8.7688 10.945 8.7255 11.0029 8.66504C11.1352 8.60508 11.2713 8.55561 11.4111 8.51661C11.41 8.5536 11.4286 8.57836 11.4668 8.59083C11.7208 8.51338 11.9744 8.43296 12.2275 8.34961C12.4221 8.28846 12.62 8.26371 12.8213 8.2754C12.661 8.40435 12.5373 8.55899 12.4502 8.73926Z" fill="#A456C5"/>
<path fill-rule="evenodd" clip-rule="evenodd" d="M15.9385 8.10834C16.0003 8.10834 16.0622 8.10834 16.124 8.10834C15.9081 8.13907 15.6854 8.15763 15.4561 8.16401C15.5137 8.20472 15.5632 8.25418 15.6045 8.31245C15.8268 8.33096 16.0495 8.33716 16.2725 8.331C16.3422 8.32703 16.3545 8.34559 16.3096 8.38667C16.0498 8.39902 15.79 8.41142 15.5303 8.42377C16.1157 8.8833 16.5116 9.47089 16.7178 10.1865C16.6322 10.3944 16.5333 10.5923 16.4209 10.7802C16.3828 10.1845 16.1787 9.65265 15.8086 9.18452C15.696 9.05946 15.5723 8.94813 15.4375 8.85053C15.4251 8.87528 15.4127 8.9 15.4004 8.92475C15.3509 8.87528 15.3014 8.82578 15.252 8.77631C15.2396 8.78867 15.2272 8.80107 15.2148 8.81342C15.153 8.77631 15.0912 8.7392 15.0293 8.7021C15.0169 8.72685 15.0045 8.75156 14.9922 8.77631C14.8416 8.69597 14.6993 8.64647 14.5654 8.62788C14.6894 8.54509 14.8131 8.43376 14.9365 8.29389C15.1426 8.35657 15.3529 8.37512 15.5674 8.34956C15.1584 8.28012 14.7502 8.20591 14.3428 8.1269C13.8081 8.0912 13.2762 8.10976 12.7471 8.18256C12.2911 8.25637 11.8458 8.3677 11.4111 8.51655C11.4559 8.41272 11.5301 8.3323 11.6338 8.27534C11.6253 8.26053 11.6129 8.25437 11.5967 8.25678C11.7436 8.20268 11.8921 8.15317 12.042 8.10834C12.8719 7.89742 13.7131 7.84175 14.5654 7.94135C15.0124 8.08434 15.47 8.14 15.9385 8.10834Z" fill="#BE66D8"/>
<path fill-rule="evenodd" clip-rule="evenodd" d="M14.9365 8.29398C14.2611 8.13505 13.5808 8.11029 12.8955 8.21977C12.8382 8.21936 12.7887 8.207 12.7471 8.18266C13.2762 8.10985 13.8081 8.09129 14.3428 8.12699C14.7502 8.206 15.1584 8.28022 15.5674 8.34965C15.3529 8.37522 15.1426 8.35666 14.9365 8.29398Z" fill="#C681DC"/>
<path fill-rule="evenodd" clip-rule="evenodd" d="M14.9366 8.2939C14.8131 8.43376 14.6895 8.54509 14.5655 8.62788C14.4913 8.62788 14.417 8.62788 14.3428 8.62788C14.2191 8.61552 14.0954 8.60313 13.9717 8.59077C13.6622 8.58461 13.353 8.59077 13.044 8.60932C12.8489 8.63211 12.6633 8.67542 12.4874 8.73921C12.475 8.73921 12.4626 8.73921 12.4502 8.73921C12.5373 8.55893 12.661 8.4043 12.8213 8.27534C12.6201 8.26365 12.4222 8.2884 12.2276 8.34956C11.9745 8.43291 11.7209 8.51332 11.4668 8.59077C11.4286 8.5783 11.4101 8.55355 11.4112 8.51655C11.8459 8.36771 12.2912 8.25638 12.7471 8.18257C12.7888 8.20691 12.8382 8.21927 12.8956 8.21968C13.5809 8.1102 14.2612 8.13496 14.9366 8.2939Z" fill="#B363CF"/>
<path fill-rule="evenodd" clip-rule="evenodd" d="M9.77832 7.7002C9.64836 7.68446 9.56179 7.73397 9.51855 7.84863C9.48775 8.17609 9.4692 8.51007 9.46289 8.85059C9.42233 8.9192 9.37286 8.98106 9.31445 9.03613C9.3021 8.98667 9.2897 8.93716 9.27734 8.8877C9.19077 8.97427 9.10415 9.06089 9.01758 9.14746C9.00522 9.1351 8.99283 9.12271 8.98047 9.11035C8.89389 9.17221 8.80728 9.23404 8.7207 9.2959C8.70835 9.27115 8.69595 9.24643 8.68359 9.22168C8.61576 9.28035 8.54154 9.32985 8.46094 9.37012C8.44858 9.34537 8.43619 9.32065 8.42383 9.2959C8.32044 9.37613 8.20911 9.40088 8.08984 9.37012C8.00327 9.39487 7.91665 9.41958 7.83008 9.44434C7.65355 9.39116 7.4742 9.3726 7.29199 9.38867C7.18675 9.52475 7.07542 9.65464 6.95801 9.77832C6.94443 9.82267 6.91351 9.84738 6.86523 9.85254C6.73717 9.80664 6.60729 9.76953 6.47559 9.74121C6.58639 9.58101 6.71012 9.43257 6.84668 9.2959C7.00696 9.32369 7.16775 9.32985 7.3291 9.31445C7.59506 9.07324 7.86099 8.83203 8.12695 8.59082C8.0973 8.92547 8.19627 8.97494 8.42383 8.73926C8.50488 8.76182 8.57909 8.73707 8.64648 8.66504C8.65884 8.6774 8.67124 8.68979 8.68359 8.70215C8.82001 8.61398 8.93134 8.50265 9.01758 8.36816C9.04233 8.41763 9.06705 8.41763 9.0918 8.36816C9.17544 8.23802 9.24966 8.10198 9.31445 7.95996C9.32681 7.97232 9.33921 7.98471 9.35156 7.99707C9.44126 7.80841 9.49692 7.61047 9.51855 7.40332C9.75227 7.1882 9.98112 6.96554 10.2051 6.73535C10.2174 6.63638 10.2298 6.53745 10.2422 6.43848C10.3009 6.20057 10.4432 6.03977 10.6689 5.95605C10.2976 6.25965 10.2048 6.63074 10.3906 7.06934C10.6075 7.32936 10.8858 7.4778 11.2256 7.51465C11.6528 7.35946 11.9002 7.05638 11.9678 6.60547C11.8318 6.00541 11.4607 5.75184 10.8545 5.84473C10.8658 5.82061 10.8781 5.79585 10.8916 5.77051C10.9535 5.75815 11.0153 5.74576 11.0771 5.7334C11.4001 5.77426 11.6784 5.91034 11.9121 6.1416C12.1966 6.85922 11.974 7.34164 11.2441 7.58887C11.025 7.52946 10.8085 7.4614 10.5947 7.38477C10.471 7.31055 10.3721 7.21158 10.2979 7.08789C10.2627 7.06997 10.2256 7.06381 10.1865 7.06934C10.1885 7.28071 10.1761 7.49097 10.1494 7.7002C10.0257 7.7002 9.90201 7.7002 9.77832 7.7002Z" fill="#CB86E0"/>
<path fill-rule="evenodd" clip-rule="evenodd" d="M11.1514 6.03027C11.145 6.17997 11.1264 6.32841 11.0957 6.47559C10.8083 6.22654 10.7897 6.2451 11.04 6.53125C10.8787 6.55251 10.7179 6.57727 10.5576 6.60547C10.6913 6.6454 10.8274 6.67635 10.9658 6.69824C10.9782 6.7106 10.9906 6.72299 11.0029 6.73535C10.8554 6.96632 10.8863 6.97868 11.0957 6.77246C11.1266 6.88379 11.1576 6.99512 11.1885 7.10645C11.2143 6.99304 11.2453 6.88171 11.2813 6.77246C11.523 6.96977 11.5415 6.94502 11.3369 6.69824C11.4329 6.66188 11.5318 6.64952 11.6338 6.66113C11.612 6.74797 11.5749 6.82838 11.5225 6.90234C11.5578 6.92899 11.5639 6.9599 11.541 6.99512C11.4521 7.0798 11.3469 7.1293 11.2256 7.14355C11.2337 7.18716 11.2214 7.22427 11.1885 7.25488C10.7927 7.21161 10.5577 6.99512 10.4834 6.60547C10.5648 6.24551 10.7875 6.05376 11.1514 6.03027Z" fill="#DFB1EC"/>
<path fill-rule="evenodd" clip-rule="evenodd" d="M11.2256 6.06733C11.228 6.20538 11.2465 6.34142 11.2813 6.47553C11.5687 6.22649 11.5872 6.24505 11.3369 6.5312C11.4614 6.54808 11.5851 6.56664 11.708 6.58686C11.7243 6.58445 11.7367 6.59061 11.7451 6.60541C11.7175 6.64397 11.6804 6.66253 11.6338 6.66108C11.5318 6.64946 11.4329 6.66182 11.3369 6.69819C11.5415 6.94497 11.523 6.96972 11.2813 6.77241C11.2453 6.88166 11.2143 6.99298 11.1885 7.10639C11.1576 6.99506 11.1266 6.88373 11.0957 6.77241C10.8863 6.97862 10.8554 6.96627 11.0029 6.7353C10.9906 6.72294 10.9782 6.71055 10.9658 6.69819C10.8274 6.67629 10.6913 6.64534 10.5576 6.60541C10.7179 6.57721 10.8787 6.55246 11.04 6.5312C10.7897 6.24505 10.8083 6.22649 11.0957 6.47553C11.1264 6.32836 11.145 6.17992 11.1514 6.03022C11.193 5.98357 11.2178 5.99593 11.2256 6.06733Z" fill="#FAF3FC"/>
<path fill-rule="evenodd" clip-rule="evenodd" d="M11.2256 6.06738C11.3506 6.11767 11.4743 6.16717 11.5967 6.21582C11.6168 6.34626 11.6539 6.46995 11.708 6.58691C11.5851 6.56669 11.4614 6.54813 11.3369 6.53125C11.5872 6.2451 11.5687 6.22654 11.2813 6.47559C11.2465 6.34147 11.228 6.20543 11.2256 6.06738Z" fill="#DFB2EC"/>
<path opacity="0.972" fill-rule="evenodd" clip-rule="evenodd" d="M17.9424 8.36816C18.1689 8.91263 18.138 9.44452 17.8496 9.96387C16.5091 12.0216 15.8164 14.2853 15.7715 16.7549C15.754 16.8197 15.7293 16.8815 15.6973 16.9404C14.538 17.4139 13.3691 17.4324 12.1904 16.9961C12.1329 16.951 12.0897 16.8954 12.0605 16.8291C12.0055 16.6584 11.9622 16.4852 11.9307 16.3096C12.1638 16.4348 12.4112 16.5276 12.6729 16.5879C12.8669 16.6453 13.0648 16.6762 13.2666 16.6807C13.8785 16.7556 14.4846 16.7 15.085 16.5137C15.2425 16.4633 15.391 16.3953 15.5303 16.3096C15.6105 15.632 15.6908 14.9517 15.7715 14.2686C15.845 13.8826 15.9254 13.4991 16.0127 13.1182C16.2068 12.2206 16.5222 11.3671 16.959 10.5576C17.2529 10.0565 17.5374 9.54928 17.8125 9.03613C17.8963 8.82116 17.9396 8.5985 17.9424 8.36816Z" fill="#8435A5"/>
<path fill-rule="evenodd" clip-rule="evenodd" d="M9.77832 7.70023C9.85209 7.77412 9.93871 7.82362 10.0381 7.84867C9.9144 7.84867 9.79068 7.84867 9.66699 7.84867C9.66699 8.7393 9.66699 9.62992 9.66699 10.5205C9.97622 10.5205 10.2855 10.5205 10.5947 10.5205C10.5868 10.4595 10.5992 10.4039 10.6318 10.3536C10.5967 10.3356 10.5595 10.3295 10.5205 10.335C10.5246 10.3121 10.537 10.2935 10.5576 10.2793C10.6308 10.261 10.7051 10.2548 10.7803 10.2608C10.7835 10.18 10.8082 10.1058 10.8545 10.0381C10.4481 9.96235 10.3182 9.72733 10.4648 9.33305C10.4951 9.28395 10.5384 9.25924 10.5947 9.25883C10.4304 9.4934 10.4552 9.70989 10.6689 9.90824C10.7658 9.9137 10.8524 9.94465 10.9287 10.001C10.963 9.96921 10.9878 9.9321 11.0029 9.88969C11.3492 9.28295 11.8688 8.91186 12.5615 8.77641C13.0317 8.68178 13.5017 8.61992 13.9717 8.59086C14.0954 8.60322 14.2191 8.61561 14.3428 8.62797C14.2612 8.65265 14.1746 8.6774 14.083 8.70219C14.1136 8.73507 14.1507 8.74742 14.1943 8.7393C14.1943 8.77641 14.1943 8.81352 14.1943 8.85062C14.2537 8.84068 14.3031 8.85307 14.3428 8.88773C13.7317 8.82138 13.1256 8.85229 12.5244 8.98051C12.3772 9.01903 12.2411 9.07469 12.1162 9.1475C11.5063 9.41142 11.1228 9.86909 10.9658 10.5205C10.8826 10.5567 10.796 10.5691 10.7061 10.5577C10.7061 10.5948 10.7061 10.6319 10.7061 10.669C10.3112 10.6674 9.92772 10.6674 9.55566 10.669C9.38247 10.7927 9.20932 10.9164 9.03613 11.0401C8.98303 11.0259 8.95212 10.9888 8.94336 10.9287C8.83997 11.009 8.72864 11.0337 8.60938 11.003C8.5323 11.0222 8.45808 11.0469 8.38672 11.0772C8.37436 11.0524 8.36197 11.0277 8.34961 11.003C8.27539 11.0277 8.20117 11.0524 8.12695 11.0772C8.11255 11.0427 8.0878 11.018 8.05273 11.003C7.97484 11.0322 7.89443 11.0445 7.81152 11.0401C7.81152 11.003 7.81152 10.9659 7.81152 10.9287C7.72862 10.9243 7.64821 10.9367 7.57031 10.9659C7.1866 10.8561 6.80931 10.7324 6.43848 10.5948C6.497 10.4406 6.58357 10.3045 6.69824 10.1866C7.14652 10.3914 7.61655 10.478 8.1084 10.4463C8.1084 10.4834 8.1084 10.5205 8.1084 10.5577C8.20555 10.5473 8.29832 10.5226 8.38672 10.4834C8.39908 10.5082 8.41147 10.5329 8.42383 10.5577C8.50721 10.4962 8.59379 10.4839 8.68359 10.5205C8.76494 10.4872 8.84532 10.4501 8.9248 10.4092C9.04493 10.4335 9.15006 10.3963 9.24023 10.2979C9.29456 10.4236 9.36878 10.4236 9.46289 10.2979C9.50238 9.82861 9.52093 9.35858 9.51855 8.88773C9.51855 8.54139 9.51855 8.19501 9.51855 7.84867C9.56179 7.734 9.64836 7.6845 9.77832 7.70023Z" fill="#C374DB"/>
<path fill-rule="evenodd" clip-rule="evenodd" d="M13.9717 8.59081C13.5017 8.61987 13.0317 8.68173 12.5615 8.77636C12.5488 8.74526 12.5241 8.73286 12.4873 8.73925C12.6633 8.67546 12.8488 8.63215 13.0439 8.60936C13.353 8.59081 13.6622 8.58465 13.9717 8.59081Z" fill="#CA93DE"/>
<path fill-rule="evenodd" clip-rule="evenodd" d="M14.3428 8.62793C14.417 8.62793 14.4912 8.62793 14.5654 8.62793C14.6993 8.64652 14.8416 8.69603 14.9922 8.77637C15.0045 8.75162 15.0169 8.7269 15.0293 8.70215C15.0912 8.73926 15.153 8.77637 15.2148 8.81348C15.2272 8.80112 15.2396 8.78872 15.252 8.77637C15.3014 8.82583 15.3509 8.87534 15.4004 8.9248C15.4127 8.90005 15.4251 8.87534 15.4375 8.85059C15.5723 8.94818 15.696 9.05951 15.8086 9.18457C16.1787 9.65271 16.3828 10.1846 16.4209 10.7803C16.4026 10.8663 16.3655 10.9405 16.3096 11.0029C16.3769 10.7797 16.3521 10.5695 16.2354 10.3721C16.0924 10.241 15.9316 10.142 15.7529 10.0752C15.6199 10.1047 15.4962 10.1542 15.3818 10.2236C15.3593 10.219 15.347 10.2067 15.3447 10.1865C15.636 9.68362 15.5247 9.30636 15.0107 9.05469C14.7935 8.97564 14.5708 8.91998 14.3428 8.8877C14.3031 8.85304 14.2537 8.84064 14.1943 8.85059C14.1943 8.81348 14.1943 8.77637 14.1943 8.73926C14.1507 8.74738 14.1136 8.73503 14.083 8.70215C14.1746 8.67736 14.2612 8.65261 14.3428 8.62793Z" fill="#BF6CD8"/>
<path opacity="0.985" fill-rule="evenodd" clip-rule="evenodd" d="M15.3076 9.88963C15.1598 9.79686 14.9989 9.72884 14.8252 9.68553C14.2459 9.58021 13.6645 9.56786 13.0811 9.64842C12.8189 9.68839 12.5715 9.7688 12.3389 9.88963C11.6654 11.976 11.2881 14.116 11.207 16.3096C11.2101 16.5075 11.1297 16.6622 10.9658 16.7734C9.05487 17.503 7.14994 17.4907 5.25098 16.7363C5.17242 16.6721 5.11675 16.5917 5.08398 16.4951C5.01485 16.1937 4.93443 15.8968 4.84277 15.6045C4.97711 15.7338 5.1379 15.8266 5.3252 15.8828C6.29616 16.2415 7.29812 16.3838 8.33105 16.3096C9.10731 16.2423 9.86189 16.0753 10.5947 15.8086C10.7654 15.7493 10.8705 15.6318 10.9102 15.456C10.9468 14.712 11.0024 13.9698 11.0771 13.2295C11.2138 12.2988 11.3808 11.371 11.5781 10.4463C11.4337 10.6483 11.341 10.871 11.2998 11.1142C11.2677 11.1583 11.2306 11.2016 11.1885 11.2441C11.0654 11.2626 10.9417 11.2688 10.8174 11.2627C10.6071 11.2627 10.3968 11.2627 10.1865 11.2627C10.0999 11.2627 10.0133 11.2627 9.92676 11.2627C9.80385 11.2757 9.71728 11.2262 9.66699 11.1142C9.64131 10.9621 9.6042 10.8137 9.55566 10.6689C9.92772 10.6673 10.3112 10.6673 10.7061 10.6689C10.8181 10.6751 10.9294 10.6689 11.04 10.6504C11.1467 10.3434 11.2889 10.0527 11.4668 9.7783C11.6863 9.53939 11.9399 9.35385 12.2275 9.22166C12.4898 9.11898 12.762 9.05096 13.0439 9.01756C13.6041 8.97719 14.1607 9.0019 14.7139 9.09178C15.0675 9.13776 15.2901 9.3295 15.3818 9.66697C15.3782 9.75229 15.3534 9.82651 15.3076 9.88963Z" fill="#8335A5"/>
<path fill-rule="evenodd" clip-rule="evenodd" d="M9.51855 7.84863C9.51855 8.19497 9.51855 8.54135 9.51855 8.8877C9.48783 9.12842 9.46927 9.37583 9.46289 9.62988C9.44434 9.64844 9.42578 9.66699 9.40723 9.68555C9.18995 9.78789 8.9673 9.88067 8.73926 9.96387C8.62704 9.93693 8.52191 9.96164 8.42383 10.0381C8.41147 10.0133 8.39908 9.98862 8.38672 9.96387C8.30133 10.0146 8.20856 10.0393 8.1084 10.0381C8.11393 9.99905 8.10777 9.96194 8.08984 9.92676C8.01563 9.95151 7.94141 9.97622 7.86719 10.001C7.85576 9.97099 7.8372 9.94624 7.81152 9.92676C7.52226 9.92294 7.23774 9.87343 6.95801 9.77832C7.07542 9.65463 7.18675 9.52475 7.29199 9.38867C7.4742 9.3726 7.65355 9.39116 7.83008 9.44434C7.91665 9.41958 8.00327 9.39487 8.08984 9.37012C8.20911 9.40088 8.32044 9.37613 8.42383 9.2959C8.43619 9.32065 8.44858 9.34537 8.46094 9.37012C8.54154 9.32985 8.61576 9.28035 8.68359 9.22168C8.69595 9.24643 8.70835 9.27115 8.7207 9.2959C8.80728 9.23404 8.89389 9.17221 8.98047 9.11035C8.99283 9.12271 9.00522 9.1351 9.01758 9.14746C9.10415 9.06088 9.19077 8.97427 9.27734 8.8877C9.2897 8.93716 9.3021 8.98667 9.31445 9.03613C9.37286 8.98106 9.42233 8.9192 9.46289 8.85059C9.4692 8.51007 9.48775 8.17609 9.51855 7.84863Z" fill="#C67FDD"/>
<path fill-rule="evenodd" clip-rule="evenodd" d="M10.8544 9.33301C10.8486 9.38396 10.8548 9.43346 10.8729 9.48145C10.8853 9.46909 10.8977 9.45669 10.9101 9.44434C10.9286 9.51236 10.9719 9.55566 11.0399 9.57422C10.9905 9.58658 10.941 9.59897 10.8915 9.61133C10.9039 9.62369 10.9163 9.63608 10.9286 9.64844C10.874 9.67479 10.8492 9.71805 10.8544 9.77832C10.8013 9.74321 10.7518 9.69995 10.706 9.64844C10.7183 9.63608 10.7307 9.62369 10.7431 9.61133C10.6255 9.58973 10.6131 9.55262 10.706 9.5C10.689 9.48464 10.6766 9.46608 10.6688 9.44434C10.729 9.39999 10.7908 9.36288 10.8544 9.33301Z" fill="#F0E3F5"/>
<path fill-rule="evenodd" clip-rule="evenodd" d="M12.4501 8.7393C12.4625 8.7393 12.4749 8.7393 12.4872 8.7393C12.524 8.73292 12.5488 8.74531 12.5614 8.77641C11.8687 8.91186 11.3492 9.28295 11.0029 9.88969C10.9549 9.85102 10.9549 9.80775 11.0029 9.75981C10.9539 9.75257 10.9044 9.75877 10.8544 9.77836C10.8492 9.7181 10.874 9.67483 10.9286 9.64848C10.9163 9.63612 10.9039 9.62373 10.8915 9.61137C10.941 9.59901 10.9905 9.58662 11.04 9.57426C10.9719 9.5557 10.9286 9.5124 10.9101 9.44438C10.8977 9.45673 10.8853 9.46913 10.873 9.48149C10.8548 9.4335 10.8486 9.384 10.8544 9.33305C10.9163 9.33305 10.9781 9.33305 11.04 9.33305C11.0705 9.42849 11.1323 9.4718 11.2255 9.46293C11.5647 9.10523 11.9729 8.86402 12.4501 8.7393Z" fill="#CDA1DF"/>
<path fill-rule="evenodd" clip-rule="evenodd" d="M11.04 9.33297C10.9781 9.33297 10.9163 9.33297 10.8544 9.33297C10.7908 9.36284 10.729 9.39995 10.6689 9.4443C10.6766 9.46605 10.689 9.4846 10.706 9.49996C10.6132 9.55258 10.6255 9.58969 10.7431 9.61129C10.7307 9.62365 10.7183 9.63604 10.706 9.6484C10.7518 9.69991 10.8013 9.74318 10.8544 9.77828C10.9044 9.75869 10.9539 9.75249 11.0028 9.75973C10.9549 9.80767 10.9549 9.85094 11.0028 9.88961C10.9877 9.93203 10.963 9.96914 10.9286 10.0009C10.8523 9.94457 10.7657 9.91362 10.6689 9.90817C10.4551 9.70982 10.4304 9.49332 10.5946 9.25875C10.7171 9.22624 10.8408 9.22005 10.9657 9.2402C10.9984 9.26647 11.0231 9.29742 11.04 9.33297Z" fill="#C089D7"/>
<path fill-rule="evenodd" clip-rule="evenodd" d="M12.1162 9.14746C12.1338 9.19964 12.1709 9.22439 12.2275 9.22168C11.9399 9.35386 11.6863 9.53941 11.4668 9.77832C11.2889 10.0527 11.1467 10.3434 11.04 10.6504C10.9294 10.6689 10.8181 10.6751 10.7061 10.6689C10.7061 10.6318 10.7061 10.5947 10.7061 10.5576C10.796 10.569 10.8826 10.5567 10.9658 10.5205C11.1228 9.86905 11.5063 9.41138 12.1162 9.14746Z" fill="#D191E3"/>
<path opacity="0.125" fill-rule="evenodd" clip-rule="evenodd" d="M6.14156 9.92676C6.14427 9.98342 6.11951 10.0205 6.06734 10.0381C6.06463 9.98142 6.08938 9.94431 6.14156 9.92676Z" fill="#F6EDFB"/>
<path opacity="0.247" fill-rule="evenodd" clip-rule="evenodd" d="M6.06734 10.0381C6.07005 10.0948 6.0453 10.1319 5.99312 10.1494C5.99041 10.0927 6.01516 10.0556 6.06734 10.0381Z" fill="#F6E7F7"/>
<path opacity="0.275" fill-rule="evenodd" clip-rule="evenodd" d="M5.95601 10.2236C5.95872 10.2803 5.93397 10.3174 5.88179 10.335C5.87908 10.2783 5.90384 10.2412 5.95601 10.2236Z" fill="#F5E6F8"/>
<path fill-rule="evenodd" clip-rule="evenodd" d="M9.51853 8.8877C9.5209 9.35854 9.50235 9.82857 9.46286 10.2979C9.36876 10.4235 9.29454 10.4235 9.24021 10.2979C9.15003 10.3963 9.0449 10.4334 8.92478 10.4092C8.84529 10.45 8.76491 10.4871 8.68357 10.5205C8.59376 10.4838 8.50719 10.4962 8.4238 10.5576C8.41145 10.5329 8.39905 10.5082 8.38669 10.4834C8.2983 10.5225 8.20553 10.5473 8.10837 10.5576C8.10837 10.5205 8.10837 10.4834 8.10837 10.4463C7.61653 10.4779 7.1465 10.3914 6.69822 10.1865C6.58355 10.3045 6.49697 10.4406 6.43845 10.5947C6.36676 10.7011 6.30489 10.8124 6.2529 10.9287C6.17809 11.0783 6.10387 11.2267 6.03025 11.374C5.85004 11.7538 5.71396 12.1497 5.62204 12.5615C5.44388 13.3931 5.37586 14.2343 5.41794 15.085C5.42544 15.1501 5.44399 15.2119 5.47361 15.2705C5.56697 15.3013 5.65359 15.3384 5.73337 15.3818C5.61585 15.3855 5.50452 15.3608 5.39939 15.3076C5.36903 15.2109 5.35048 15.1119 5.34372 15.0107C5.32524 15.1214 5.31905 15.2327 5.32517 15.3447C5.21384 14.1454 5.34992 12.9702 5.73337 11.8193C5.88055 11.4908 6.02899 11.1568 6.17869 10.8174C6.08428 10.761 5.98531 10.7115 5.88181 10.6689C5.72016 10.9428 5.57792 11.2273 5.45505 11.5225C5.43015 11.5504 5.39924 11.5628 5.36228 11.5596C5.36874 11.472 5.38109 11.3854 5.39939 11.2998C5.39301 11.263 5.4054 11.2383 5.4365 11.2256C5.50303 11.1541 5.54014 11.0675 5.54783 10.9658C5.57848 10.855 5.62794 10.7561 5.69626 10.6689C5.75939 10.6426 5.7965 10.5931 5.80759 10.5205C5.8686 10.5284 5.92426 10.5161 5.97458 10.4834C6.12198 10.2193 6.28897 9.97188 6.47556 9.74121C6.60726 9.76953 6.73714 9.80663 6.86521 9.85254C6.91349 9.84738 6.9444 9.82267 6.95798 9.77832C7.23771 9.87343 7.52223 9.92294 7.8115 9.92676C7.83718 9.94624 7.85573 9.97099 7.86716 10.001C7.94138 9.97622 8.0156 9.95151 8.08982 9.92676C8.10774 9.96194 8.1139 9.99905 8.10837 10.0381C8.20853 10.0393 8.3013 10.0146 8.38669 9.96387C8.39905 9.98862 8.41145 10.0133 8.4238 10.0381C8.52188 9.96164 8.62701 9.93693 8.73923 9.96387C8.96727 9.88067 9.18993 9.78789 9.4072 9.68555C9.42576 9.66699 9.44431 9.64844 9.46286 9.62988C9.46925 9.37583 9.4878 9.12842 9.51853 8.8877Z" fill="#C67BDD"/>
<path opacity="0.173" fill-rule="evenodd" clip-rule="evenodd" d="M5.84473 10.4092C5.84261 10.4503 5.83025 10.4874 5.80762 10.5205C5.79652 10.5931 5.75941 10.6426 5.69629 10.6689C5.71778 10.5639 5.76724 10.4773 5.84473 10.4092Z" fill="#F4E3F9"/>
<path fill-rule="evenodd" clip-rule="evenodd" d="M9.55566 10.6689C9.6042 10.8137 9.64131 10.9621 9.66699 11.1143C9.6366 11.2183 9.61805 11.3297 9.61133 11.4482C9.57674 12.7972 9.53344 14.1455 9.48145 15.4932C9.45669 15.4932 9.44434 15.5055 9.44434 15.5303C9.05116 15.598 8.65532 15.6475 8.25684 15.6787C8.24448 15.6787 8.23208 15.6787 8.21973 15.6787C8.25428 14.4603 8.29138 13.2418 8.33105 12.0234C8.33102 11.8621 8.31866 11.7075 8.29395 11.5596C8.5516 11.4009 8.799 11.2277 9.03613 11.04C9.20932 10.9164 9.38247 10.7926 9.55566 10.6689Z" fill="#B85AD5"/>
<path fill-rule="evenodd" clip-rule="evenodd" d="M6.43848 10.5947C6.80931 10.7324 7.1866 10.8561 7.57031 10.9658C7.64821 10.9366 7.72862 10.9243 7.81152 10.9287C7.81152 10.9658 7.81152 11.0029 7.81152 11.04C7.89443 11.0445 7.97484 11.0321 8.05273 11.0029C8.0878 11.018 8.11255 11.0427 8.12695 11.0771C8.20117 11.0524 8.27539 11.0277 8.34961 11.0029C8.36197 11.0277 8.37436 11.0524 8.38672 11.0771C8.45808 11.0469 8.5323 11.0221 8.60938 11.0029C8.72864 11.0337 8.83997 11.0089 8.94336 10.9287C8.95212 10.9888 8.98303 11.0259 9.03613 11.04C8.799 11.2277 8.5516 11.4009 8.29395 11.5596C8.28159 11.5596 8.26919 11.5596 8.25684 11.5596C8.09968 11.5253 7.94508 11.5253 7.79297 11.5596C7.77007 11.5244 7.77623 11.4934 7.81152 11.4668C7.52775 11.4051 7.24323 11.3494 6.95801 11.2998C6.95801 11.2627 6.95801 11.2256 6.95801 11.1885C6.87511 11.1929 6.79469 11.1806 6.7168 11.1514C6.55611 11.0876 6.40152 11.0134 6.25293 10.9287C6.30492 10.8124 6.36678 10.7011 6.43848 10.5947Z" fill="#BD6DD7"/>
<path fill-rule="evenodd" clip-rule="evenodd" d="M16.3096 11.0029C16.2048 11.1691 16.0564 11.2804 15.8643 11.3369C15.7633 11.5876 15.6643 11.835 15.5674 12.0791C15.5465 11.9467 15.4971 11.9343 15.4189 12.042C15.4984 11.8037 15.5849 11.5687 15.6787 11.3369C15.6057 11.3458 15.5377 11.3334 15.4746 11.2998C15.4546 11.4122 15.4299 11.5235 15.4004 11.6338C15.388 11.5967 15.3756 11.5596 15.3633 11.5225C15.3282 11.6916 15.254 11.84 15.1406 11.9678C15.1283 11.943 15.1159 11.9183 15.1035 11.8936C15.0371 12.062 14.9257 12.1981 14.7695 12.3018C14.6745 12.2929 14.5878 12.33 14.5098 12.4131C14.4672 12.3775 14.4301 12.3899 14.3984 12.4502C14.3861 12.4378 14.3737 12.4254 14.3613 12.4131C14.2566 12.437 14.1453 12.4741 14.0273 12.5244C13.9408 12.5244 13.8542 12.5244 13.7676 12.5244C13.6609 12.476 13.5496 12.4389 13.4336 12.4131C13.3233 12.4862 13.2244 12.5728 13.1367 12.6729C13.0662 12.6514 12.9982 12.6267 12.9326 12.5986C12.9803 12.5015 13.0422 12.4149 13.1182 12.3389C13.2189 12.3481 13.3178 12.3543 13.415 12.3574C13.5084 12.2579 13.6074 12.1651 13.7119 12.0791C13.7376 12.0986 13.7561 12.1233 13.7676 12.1533C13.8486 12.1759 13.9228 12.1511 13.9902 12.0791C14.0422 12.0791 14.0978 12.0915 14.1572 12.1162C14.329 12.0427 14.4898 11.9499 14.6396 11.8379C14.756 11.698 14.8488 11.5433 14.918 11.374C14.9427 11.2627 14.9427 11.1514 14.918 11.04C14.8924 11.0718 14.8615 11.0966 14.8252 11.1143C14.7891 11.031 14.7767 10.9444 14.7881 10.8545C15.0027 10.6526 15.1882 10.4299 15.3447 10.1865C15.347 10.2067 15.3593 10.219 15.3818 10.2236C15.4962 10.1542 15.6199 10.1047 15.7529 10.0752C15.9316 10.142 16.0924 10.241 16.2354 10.3721C16.3521 10.5695 16.3769 10.7797 16.3096 11.0029Z" fill="#C781DD"/>
<path fill-rule="evenodd" clip-rule="evenodd" d="M15.5675 10.1865C15.8611 10.157 16.0775 10.2683 16.2169 10.5205C16.2658 11.0776 16.0123 11.3188 15.4561 11.2441C15.1609 11.078 15.0805 10.8368 15.2149 10.5205C15.3286 10.405 15.446 10.2936 15.5675 10.1865Z" fill="#D192E3"/>
<path fill-rule="evenodd" clip-rule="evenodd" d="M15.6046 10.2608C15.7215 10.25 15.8328 10.2686 15.9386 10.3164C16.0183 10.4076 16.0802 10.5066 16.1241 10.6133C16.1023 10.865 15.9786 11.032 15.753 11.1143C15.6171 11.0829 15.5058 11.0149 15.4191 10.9102C15.315 10.6443 15.3769 10.4278 15.6046 10.2608Z" fill="#DDABEA"/>
<path fill-rule="evenodd" clip-rule="evenodd" d="M15.7529 10.4092C15.7775 10.4664 15.8023 10.5283 15.8271 10.5947C15.9516 10.5028 15.9639 10.5214 15.8643 10.6504C16.1084 10.6832 16.1084 10.7265 15.8643 10.7803C15.8137 10.832 15.7828 10.8938 15.7715 10.9658C15.7327 10.9241 15.708 10.8747 15.6973 10.8174C15.5683 10.9171 15.5497 10.9047 15.6416 10.7803C15.583 10.7507 15.5212 10.7321 15.4561 10.7246C15.6254 10.6852 15.7244 10.58 15.7529 10.4092Z" fill="#F9F1FB"/>
<path fill-rule="evenodd" clip-rule="evenodd" d="M6.25293 10.9287C6.40152 11.0134 6.55611 11.0876 6.7168 11.1514C6.79469 11.1806 6.87511 11.1929 6.95801 11.1885C6.95801 11.2256 6.95801 11.2627 6.95801 11.2998C7.24323 11.3494 7.52775 11.4051 7.81152 11.4668C7.77623 11.4934 7.77007 11.5244 7.79297 11.5596C7.94508 11.5253 8.09968 11.5253 8.25684 11.5596C8.02346 11.7039 7.77605 11.8275 7.51465 11.9307C7.22642 11.9002 6.94194 11.8507 6.66113 11.7822C6.66113 11.7328 6.66113 11.6833 6.66113 11.6338C6.57823 11.6382 6.49781 11.6259 6.41992 11.5967C6.2818 11.5325 6.15192 11.4583 6.03027 11.374C6.1039 11.2267 6.17812 11.0783 6.25293 10.9287Z" fill="#B867D3"/>
<path opacity="0.998" fill-rule="evenodd" clip-rule="evenodd" d="M14.3428 8.88771C14.5708 8.91999 14.7935 8.97566 15.0107 9.0547C15.5247 9.30637 15.636 9.68363 15.3447 10.1865C15.1882 10.4299 15.0027 10.6526 14.7881 10.8545C14.4231 11.1637 14.052 11.4668 13.6748 11.7637C13.4817 11.9505 13.2962 12.1423 13.1182 12.3389C13.0422 12.415 12.9803 12.5015 12.9326 12.5986C12.742 12.8058 12.5874 13.0408 12.4688 13.3037C12.4183 13.3358 12.375 13.3729 12.3389 13.4151C12.3389 13.3903 12.3389 13.3656 12.3389 13.3408C12.3571 13.2548 12.3942 13.1806 12.4502 13.1182C12.5151 13.0752 12.5522 13.0133 12.5615 12.9326C12.9948 12.2086 13.5638 11.6086 14.2686 11.1328C14.6365 10.8392 14.9519 10.4991 15.2148 10.1123C15.2565 10.0415 15.2874 9.96733 15.3076 9.88966C15.3534 9.82654 15.3782 9.75232 15.3818 9.667C15.2901 9.32953 15.0675 9.13779 14.7139 9.09181C14.1607 9.00193 13.6041 8.97721 13.0439 9.01759C12.762 9.05099 12.4898 9.11901 12.2275 9.22169C12.1709 9.2244 12.1338 9.19965 12.1162 9.14747C12.2411 9.07466 12.3772 9.019 12.5244 8.98048C13.1256 8.85227 13.7317 8.82135 14.3428 8.88771Z" fill="#D7A5E7"/>
<path fill-rule="evenodd" clip-rule="evenodd" d="M14.7881 10.8545C14.7767 10.9444 14.7891 11.031 14.8252 11.1143C14.8615 11.0966 14.8924 11.0718 14.918 11.04C14.9427 11.1514 14.9427 11.2627 14.918 11.374C14.8488 11.5433 14.756 11.698 14.6396 11.8379C14.4898 11.9499 14.329 12.0427 14.1572 12.1162C14.0978 12.0915 14.0422 12.0791 13.9902 12.0791C13.9228 12.1511 13.8486 12.1759 13.7676 12.1533C13.7561 12.1233 13.7376 12.0986 13.7119 12.0791C13.6074 12.1651 13.5084 12.2579 13.415 12.3574C13.3178 12.3543 13.2189 12.3481 13.1182 12.3389C13.2962 12.1423 13.4817 11.9505 13.6748 11.7637C14.052 11.4668 14.4231 11.1637 14.7881 10.8545Z" fill="#CA87DE"/>
<path opacity="0.037" fill-rule="evenodd" clip-rule="evenodd" d="M5.54785 10.9658C5.54017 11.0675 5.50306 11.1541 5.43652 11.2256C5.44421 11.1239 5.48131 11.0373 5.54785 10.9658Z" fill="#FDFAFE"/>
<path fill-rule="evenodd" clip-rule="evenodd" d="M9.66699 11.1143C9.71728 11.2263 9.80385 11.2757 9.92676 11.2627C9.89225 11.5465 9.88605 11.831 9.9082 12.1162C9.94572 12.1473 9.98903 12.1596 10.0381 12.1533C10.0795 11.8551 10.129 11.5582 10.1865 11.2627C10.3968 11.2627 10.6071 11.2627 10.8174 11.2627C10.8286 11.3577 10.8162 11.4443 10.7803 11.5225C10.7574 11.5183 10.7388 11.506 10.7246 11.4854C10.608 11.9995 10.5276 12.519 10.4834 13.0439C10.3881 13.7707 10.3262 14.5005 10.2979 15.2334C10.0333 15.3339 9.7611 15.4205 9.48145 15.4932C9.53344 14.1455 9.57674 12.7972 9.61133 11.4482C9.61804 11.3297 9.6366 11.2183 9.66699 11.1143Z" fill="#BC5DD7"/>
<path fill-rule="evenodd" clip-rule="evenodd" d="M5.7334 11.8193C5.73065 11.7484 5.69354 11.7051 5.62207 11.6895C5.54659 11.6447 5.47237 11.6385 5.39941 11.6709C5.29721 11.9714 5.19208 12.2683 5.08398 12.5615C5.07163 12.5368 5.05923 12.5121 5.04688 12.4873C5.03656 12.5213 5.018 12.546 4.99121 12.5615C5.00019 12.4139 5.0373 12.2778 5.10254 12.1533C5.18563 11.9783 5.24745 11.7928 5.28809 11.5967C5.31284 11.5843 5.33755 11.5719 5.3623 11.5596C5.39927 11.5628 5.43018 11.5504 5.45508 11.5225C5.57795 11.2273 5.72019 10.9428 5.88184 10.6689C5.98533 10.7115 6.0843 10.761 6.17871 10.8174C6.02901 11.1568 5.88057 11.4908 5.7334 11.8193Z" fill="#C674DD"/>
<path fill-rule="evenodd" clip-rule="evenodd" d="M16.3096 11.0029C16.2453 11.2359 16.1588 11.4586 16.0498 11.6709C15.8643 11.9183 15.6787 12.1657 15.4932 12.4131C15.5027 12.2981 15.5274 12.1868 15.5674 12.0791C15.6643 11.835 15.7633 11.5876 15.8643 11.3369C16.0564 11.2804 16.2048 11.1691 16.3096 11.0029Z" fill="#C673DD"/>
<path fill-rule="evenodd" clip-rule="evenodd" d="M6.03027 11.374C6.15192 11.4583 6.2818 11.5325 6.41992 11.5967C6.49781 11.6259 6.57823 11.6382 6.66113 11.6338C6.66113 11.6833 6.66113 11.7328 6.66113 11.7822C6.94194 11.8507 7.22642 11.9002 7.51465 11.9307C7.19974 12.0883 6.87811 12.2243 6.5498 12.3389C6.24978 12.441 5.94051 12.5152 5.62207 12.5615C5.71399 12.1497 5.85007 11.7538 6.03027 11.374Z" fill="#B35ED0"/>
<path fill-rule="evenodd" clip-rule="evenodd" d="M11.0771 13.2295C11.0803 13.1925 11.0679 13.1616 11.04 13.1367C11.1108 12.4621 11.1973 11.788 11.2998 11.1143C11.341 10.871 11.4337 10.6483 11.5781 10.4463C11.3808 11.3711 11.2138 12.2988 11.0771 13.2295Z" fill="#AA58C9"/>
<path opacity="0.506" fill-rule="evenodd" clip-rule="evenodd" d="M5.39941 11.2998C5.38112 11.3854 5.36876 11.472 5.3623 11.5596C5.33755 11.5719 5.31284 11.5843 5.28809 11.5967C5.29673 11.4838 5.33384 11.3849 5.39941 11.2998Z" fill="#EDD3F5"/>
<path fill-rule="evenodd" clip-rule="evenodd" d="M8.25684 11.5596C8.26919 11.5596 8.28159 11.5596 8.29395 11.5596C8.31866 11.7075 8.33102 11.8621 8.33105 12.0234C8.29138 13.2418 8.25428 14.4603 8.21973 15.6787C7.8608 15.6849 7.50207 15.6787 7.14355 15.6602C6.93708 15.6509 6.73914 15.62 6.5498 15.5674C6.56112 14.627 6.58588 13.6869 6.62402 12.7471C6.62362 12.5962 6.59886 12.4601 6.5498 12.3389C6.87811 12.2243 7.19974 12.0883 7.51465 11.9307C7.77605 11.8275 8.02346 11.7039 8.25684 11.5596Z" fill="#B154D0"/>
<path fill-rule="evenodd" clip-rule="evenodd" d="M9.9268 11.2627C10.0134 11.2627 10.1 11.2627 10.1866 11.2627C10.1291 11.5582 10.0796 11.8551 10.0381 12.1533C9.98907 12.1596 9.94577 12.1473 9.90825 12.1162C9.8861 11.831 9.89229 11.5465 9.9268 11.2627Z" fill="#C674DD"/>
<path opacity="0.022" fill-rule="evenodd" clip-rule="evenodd" d="M5.28809 11.5967C5.24745 11.7928 5.18563 11.9783 5.10254 12.1533C5.12829 11.9524 5.19012 11.7668 5.28809 11.5967Z" fill="#FBF6FD"/>
<path fill-rule="evenodd" clip-rule="evenodd" d="M11.2998 11.1143C11.1973 11.788 11.1108 12.4621 11.04 13.1367C11.0679 13.1616 11.0803 13.1925 11.0771 13.2295C11.0024 13.9698 10.9468 14.712 10.9102 15.4561C10.8705 15.6318 10.7654 15.7493 10.5947 15.8086C9.86189 16.0753 9.10731 16.2423 8.33105 16.3096C8.39911 16.1606 8.42387 15.9998 8.40527 15.8271C8.46461 15.8371 8.51408 15.8247 8.55371 15.79C8.75113 15.7618 8.94904 15.7371 9.14746 15.7158C9.51091 15.6342 9.86965 15.5353 10.2236 15.4189C10.2844 15.3945 10.3463 15.3697 10.4092 15.3447C10.4668 14.702 10.5164 14.0588 10.5576 13.415C10.6313 12.7893 10.7055 12.1584 10.7803 11.5225C10.8162 11.4443 10.8286 11.3577 10.8174 11.2627C10.9417 11.2688 11.0654 11.2626 11.1885 11.2441C11.2306 11.2017 11.2677 11.1583 11.2998 11.1143Z" fill="#AB50CB"/>
<path fill-rule="evenodd" clip-rule="evenodd" d="M6.5499 12.3389C6.59896 12.4601 6.62372 12.5962 6.62412 12.7471C6.58597 13.6869 6.56122 14.627 6.5499 15.5674C6.27426 15.5208 6.0021 15.459 5.7335 15.3818C5.65371 15.3384 5.5671 15.3013 5.47373 15.2705C5.44412 15.2119 5.42556 15.1501 5.41807 15.085C5.37599 14.2343 5.44401 13.3931 5.62217 12.5615C5.94061 12.5152 6.24988 12.441 6.5499 12.3389Z" fill="#AB4FCB"/>
<path fill-rule="evenodd" clip-rule="evenodd" d="M15.4189 12.042C15.3238 12.3026 15.2373 12.5623 15.1592 12.8213C15.063 12.8678 14.9763 12.9296 14.8994 13.0068C14.8072 13.0532 14.7145 13.0903 14.6211 13.1182C14.5345 13.1058 14.4479 13.0934 14.3613 13.0811C14.2939 13.1531 14.2197 13.1778 14.1387 13.1553C14.0804 13.1234 14.0185 13.0987 13.9531 13.0811C13.6471 13.0983 13.3564 13.0117 13.0811 12.8213C12.9724 12.9769 12.8734 13.1377 12.7842 13.3037C12.7347 13.4027 12.6852 13.5016 12.6357 13.6006C12.5826 13.579 12.5332 13.5481 12.4873 13.5078C12.4502 13.4831 12.4131 13.4831 12.376 13.5078C12.2954 13.6506 12.2212 13.7928 12.1533 13.9346C12.1781 13.8232 12.2028 13.7119 12.2275 13.6006C12.2734 13.5462 12.3106 13.4844 12.3389 13.415C12.375 13.3729 12.4183 13.3358 12.4688 13.3037C12.5874 13.0408 12.742 12.8058 12.9326 12.5986C12.9982 12.6267 13.0662 12.6514 13.1367 12.6729C13.2244 12.5728 13.3233 12.4862 13.4336 12.4131C13.5496 12.4389 13.6609 12.476 13.7676 12.5244C13.8542 12.5244 13.9408 12.5244 14.0273 12.5244C14.1453 12.4741 14.2566 12.437 14.3613 12.4131C14.3737 12.4254 14.3861 12.4378 14.3984 12.4502C14.4301 12.3899 14.4672 12.3775 14.5098 12.4131C14.5878 12.33 14.6745 12.2929 14.7695 12.3018C14.9257 12.1981 15.0371 12.062 15.1035 11.8936C15.1159 11.9183 15.1283 11.943 15.1406 11.9678C15.254 11.84 15.3282 11.6916 15.3633 11.5225C15.3756 11.5596 15.388 11.5967 15.4004 11.6338C15.4299 11.5235 15.4546 11.4122 15.4746 11.2998C15.5377 11.3334 15.6057 11.3458 15.6787 11.3369C15.5849 11.5687 15.4984 11.8037 15.4189 12.042Z" fill="#C177D9"/>
<path opacity="0.99" fill-rule="evenodd" clip-rule="evenodd" d="M5.73339 11.8193C5.34994 12.9702 5.21386 14.1454 5.32519 15.3447C6.02796 15.6238 6.75779 15.7846 7.51464 15.8271C7.86146 15.8257 8.20784 15.8134 8.5537 15.79C8.51407 15.8247 8.4646 15.8371 8.40526 15.8271C8.42386 15.9998 8.3991 16.1606 8.33105 16.3096C7.29811 16.3838 6.29615 16.2415 5.32519 15.8828C5.1379 15.8266 4.9771 15.7338 4.84276 15.6045C4.71533 14.572 4.76483 13.5576 4.9912 12.5615C5.01799 12.546 5.03655 12.5213 5.04687 12.4873C5.05922 12.512 5.07162 12.5368 5.08398 12.5615C5.19207 12.2683 5.29721 11.9714 5.3994 11.6709C5.47236 11.6385 5.54658 11.6447 5.62206 11.6894C5.69353 11.7051 5.73064 11.7484 5.73339 11.8193Z" fill="#BC5DD7"/>
<path fill-rule="evenodd" clip-rule="evenodd" d="M15.5674 12.0792C15.5274 12.1868 15.5027 12.2982 15.4932 12.4131C15.3487 12.7681 15.2498 13.1392 15.1963 13.5264C15.1722 13.5377 15.1474 13.5501 15.1221 13.5635C15.0863 13.4932 15.0739 13.4189 15.085 13.3409C15.0953 13.1655 15.1201 12.9923 15.1592 12.8213C15.2373 12.5624 15.3239 12.3026 15.419 12.042C15.4971 11.9344 15.5466 11.9467 15.5674 12.0792Z" fill="#D396E4"/>
<path fill-rule="evenodd" clip-rule="evenodd" d="M16.0498 11.6709C15.8177 12.3768 15.6321 13.0942 15.4932 13.8232C15.4371 13.8966 15.4062 13.9831 15.4004 14.083C15.3399 14.4772 15.2967 14.873 15.2705 15.2705C15.2495 15.5298 15.2309 15.7896 15.2148 16.0498C15.0988 16.0906 14.9813 16.1277 14.8623 16.1611C14.8746 15.1404 14.8622 14.1261 14.8252 13.1182C14.8499 13.0811 14.8747 13.0439 14.8994 13.0068C14.9763 12.9296 15.063 12.8678 15.1592 12.8213C15.1201 12.9923 15.0953 13.1654 15.085 13.3408C15.0075 13.6465 14.958 13.9619 14.9365 14.2871C14.9749 14.501 15.0182 14.4948 15.0664 14.2686C15.0916 14.0168 15.1349 13.7694 15.1963 13.5264C15.2497 13.1391 15.3487 12.768 15.4932 12.4131C15.6787 12.1657 15.8643 11.9183 16.0498 11.6709Z" fill="#B95BD5"/>
<path fill-rule="evenodd" clip-rule="evenodd" d="M14.8994 13.0068C14.8747 13.0439 14.8499 13.0811 14.8252 13.1182C14.5352 13.356 14.226 13.5663 13.8975 13.749C13.504 13.651 13.1329 13.5025 12.7842 13.3037C12.8734 13.1377 12.9724 12.9769 13.0811 12.8213C13.3564 13.0117 13.6471 13.0983 13.9531 13.0811C14.0185 13.0987 14.0804 13.1234 14.1387 13.1553C14.2197 13.1778 14.2939 13.1531 14.3613 13.0811C14.4479 13.0934 14.5345 13.1058 14.6211 13.1182C14.7145 13.0903 14.8072 13.0532 14.8994 13.0068Z" fill="#B76BD2"/>
<path fill-rule="evenodd" clip-rule="evenodd" d="M16.7178 10.1865C16.7301 10.1865 16.7425 10.1865 16.7549 10.1865C16.7063 10.3953 16.6259 10.5932 16.5137 10.7803C16.4838 10.8989 16.49 11.0102 16.5322 11.1143C16.2228 11.7638 16.0311 12.4441 15.957 13.1553C15.9712 13.1346 15.9898 13.1223 16.0127 13.1182C15.9254 13.4991 15.845 13.8826 15.7715 14.2686C15.6908 14.9517 15.6105 15.632 15.5303 16.3096C15.391 16.3953 15.2425 16.4633 15.085 16.5137C14.4846 16.7 13.8785 16.7556 13.2666 16.6807C13.5387 16.6807 13.8109 16.6807 14.083 16.6807C14.083 16.5941 14.083 16.5075 14.083 16.4209C14.4953 16.3563 14.9035 16.2574 15.3076 16.124C15.3077 15.8265 15.32 15.5296 15.3447 15.2334C15.3983 14.764 15.4477 14.294 15.4932 13.8232C15.6321 13.0942 15.8177 12.3768 16.0498 11.6709C16.1588 11.4586 16.2453 11.2359 16.3096 11.0029C16.3655 10.9405 16.4026 10.8663 16.4209 10.7803C16.5333 10.5924 16.6322 10.3944 16.7178 10.1865Z" fill="#A84FC9"/>
<path fill-rule="evenodd" clip-rule="evenodd" d="M10.7803 11.5225C10.7055 12.1584 10.6313 12.7893 10.5576 13.415C10.5787 13.2729 10.554 13.1492 10.4834 13.0439C10.5276 12.519 10.608 11.9995 10.7246 11.4854C10.7388 11.506 10.7574 11.5183 10.7803 11.5225Z" fill="#BD6AD7"/>
<path opacity="0.051" fill-rule="evenodd" clip-rule="evenodd" d="M12.5615 12.9326C12.5522 13.0133 12.5151 13.0752 12.4502 13.1182C12.4595 13.0375 12.4966 12.9756 12.5615 12.9326Z" fill="#FBF4FC"/>
<path opacity="0.035" fill-rule="evenodd" clip-rule="evenodd" d="M12.3389 13.3408C12.3389 13.3656 12.3389 13.3903 12.3389 13.415C12.3106 13.4844 12.2734 13.5462 12.2275 13.6006C12.2352 13.4989 12.2723 13.4123 12.3389 13.3408Z" fill="#FCF9FE"/>
<path fill-rule="evenodd" clip-rule="evenodd" d="M12.7842 13.3037C13.1329 13.5025 13.504 13.651 13.8975 13.749C13.8182 13.7918 13.744 13.8413 13.6748 13.8975C13.5308 13.9537 13.3823 14.0032 13.2295 14.0459C13.038 13.9663 12.8401 13.9044 12.6357 13.8604C12.6494 13.7678 12.6247 13.7431 12.5615 13.7861C12.5761 13.7199 12.6008 13.6581 12.6357 13.6006C12.6852 13.5016 12.7347 13.4027 12.7842 13.3037Z" fill="#AE5ECC"/>
<path fill-rule="evenodd" clip-rule="evenodd" d="M14.8252 13.1182C14.8622 14.1261 14.8746 15.1404 14.8623 16.1611C14.4751 16.2751 14.0793 16.3246 13.6748 16.3096C13.6748 15.5055 13.6748 14.7015 13.6748 13.8975C13.744 13.8413 13.8182 13.7918 13.8975 13.749C14.226 13.5663 14.5352 13.356 14.8252 13.1182Z" fill="#AE52CD"/>
<path opacity="0.03" fill-rule="evenodd" clip-rule="evenodd" d="M12.2275 13.6006C12.2028 13.7119 12.1781 13.8232 12.1533 13.9346C12.1286 13.9593 12.1039 13.984 12.0791 14.0088C12.1001 13.859 12.1496 13.7229 12.2275 13.6006Z" fill="#FBF6FC"/>
<path fill-rule="evenodd" clip-rule="evenodd" d="M10.4834 13.0439C10.554 13.1492 10.5787 13.2729 10.5576 13.415C10.5164 14.0588 10.4668 14.702 10.4092 15.3447C10.3463 15.3697 10.2844 15.3945 10.2236 15.4189C10.2467 15.3508 10.2962 15.3075 10.3721 15.2891C10.3519 15.2625 10.3271 15.2439 10.2979 15.2334C10.3262 14.5005 10.3881 13.7707 10.4834 13.0439Z" fill="#C37BDB"/>
<path fill-rule="evenodd" clip-rule="evenodd" d="M12.6357 13.6006C12.6008 13.6581 12.5761 13.7199 12.5615 13.7861C12.4973 13.9419 12.4478 14.1027 12.4131 14.2686C12.2866 14.8162 12.2371 15.3728 12.2646 15.9385C12.2399 15.7158 12.2152 15.4932 12.1904 15.2705C12.2004 14.9306 12.2499 14.5966 12.3389 14.2686C12.3245 14.1713 12.2688 14.1094 12.1719 14.083C12.1482 14.1837 12.0925 14.2579 12.0049 14.3057C12.0073 14.197 12.032 14.098 12.0791 14.0088C12.1039 13.984 12.1286 13.9593 12.1533 13.9346C12.2212 13.7929 12.2954 13.6506 12.376 13.5078C12.4131 13.4831 12.4502 13.4831 12.4873 13.5078C12.5332 13.5481 12.5826 13.579 12.6357 13.6006Z" fill="#C272DA"/>
<path fill-rule="evenodd" clip-rule="evenodd" d="M13.6748 13.8975C13.6748 14.7015 13.6748 15.5055 13.6748 16.3096C13.4697 16.3215 13.2718 16.3091 13.0811 16.2725C13.1429 16.2725 13.2047 16.2725 13.2666 16.2725C13.2666 15.5426 13.2666 14.8128 13.2666 14.083C12.9896 14.178 12.7051 14.2398 12.4131 14.2685C12.4478 14.1027 12.4973 13.9419 12.5615 13.7861C12.6247 13.7431 12.6494 13.7678 12.6357 13.8603C12.8401 13.9044 13.038 13.9663 13.2295 14.0459C13.3823 14.0032 13.5308 13.9537 13.6748 13.8975Z" fill="#A54DC7"/>
<path fill-rule="evenodd" clip-rule="evenodd" d="M13.0811 16.2725C12.8036 16.234 12.5314 16.1721 12.2647 16.0869C12.2647 16.0374 12.2647 15.9879 12.2647 15.9385C12.2371 15.3728 12.2867 14.8161 12.4132 14.2686C12.7052 14.2398 12.9897 14.178 13.2667 14.083C13.2667 14.8128 13.2667 15.5426 13.2667 16.2725C13.2048 16.2725 13.143 16.2725 13.0811 16.2725Z" fill="#9F47C2"/>
<path fill-rule="evenodd" clip-rule="evenodd" d="M15.085 13.3408C15.0739 13.4189 15.0862 13.4931 15.1221 13.5635C15.1474 13.55 15.1722 13.5376 15.1963 13.5264C15.1349 13.7694 15.0916 14.0168 15.0664 14.2686C15.0182 14.4948 14.9749 14.501 14.9365 14.2871C14.958 13.9619 15.0075 13.6465 15.085 13.3408Z" fill="#C06DD9"/>
<path opacity="0.979" fill-rule="evenodd" clip-rule="evenodd" d="M12.1905 15.2705C12.1783 15.5561 12.1907 15.8406 12.2277 16.124C12.823 16.3646 13.4415 16.4635 14.0831 16.4209C14.0831 16.5075 14.0831 16.5941 14.0831 16.6807C13.811 16.6807 13.5388 16.6807 13.2667 16.6807C13.065 16.6762 12.8671 16.6453 12.673 16.5879C12.4113 16.5276 12.1639 16.4348 11.9308 16.3096C11.9089 16.2626 11.8903 16.2131 11.8751 16.1611C11.8284 15.5359 11.8717 14.9174 12.005 14.3057C12.0926 14.2579 12.1483 14.1836 12.172 14.083C12.2689 14.1094 12.3246 14.1713 12.339 14.2686C12.25 14.5966 12.2006 14.9305 12.1905 15.2705Z" fill="#BC5CD7"/>
<path fill-rule="evenodd" clip-rule="evenodd" d="M15.4932 13.8232C15.4477 14.294 15.3983 14.764 15.3447 15.2334C15.32 15.2458 15.2953 15.2582 15.2705 15.2705C15.2967 14.873 15.3399 14.4772 15.4004 14.083C15.4062 13.9831 15.4371 13.8966 15.4932 13.8232Z" fill="#C170D9"/>
<path fill-rule="evenodd" clip-rule="evenodd" d="M10.2979 15.2334C10.3271 15.2439 10.3519 15.2625 10.3721 15.2891C10.2962 15.3075 10.2467 15.3508 10.2236 15.4189C9.86965 15.5353 9.51091 15.6342 9.14746 15.7158C9.25961 15.6379 9.35858 15.5761 9.44434 15.5303C9.44434 15.5055 9.45669 15.4932 9.48145 15.4932C9.7611 15.4205 10.0333 15.3339 10.2979 15.2334Z" fill="#CB8BDF"/>
<path fill-rule="evenodd" clip-rule="evenodd" d="M5.73348 15.3818C6.00208 15.459 6.27424 15.5208 6.54989 15.5674C6.73922 15.62 6.93716 15.6509 7.14364 15.6602C7.50215 15.6787 7.86089 15.6849 8.21981 15.6787C8.23217 15.6787 8.24456 15.6787 8.25692 15.6787C7.99025 15.7087 7.71813 15.7396 7.44052 15.7715C7.47451 15.7818 7.49922 15.8004 7.51473 15.8271C6.75789 15.7847 6.02806 15.6238 5.32528 15.3447C5.31916 15.2327 5.32536 15.1214 5.34384 15.0107C5.35059 15.1119 5.36914 15.2109 5.3995 15.3076C5.50463 15.3608 5.61596 15.3855 5.73348 15.3818Z" fill="#D093E2"/>
<path fill-rule="evenodd" clip-rule="evenodd" d="M9.44434 15.5303C9.35858 15.5761 9.25961 15.6379 9.14746 15.7158C8.94904 15.7371 8.75113 15.7618 8.55371 15.79C8.20785 15.8134 7.86147 15.8257 7.51465 15.8271C7.49914 15.8004 7.47442 15.7818 7.44043 15.7715C7.71804 15.7396 7.99017 15.7087 8.25684 15.6787C8.65532 15.6475 9.05116 15.598 9.44434 15.5303Z" fill="#D7A2E7"/>
<path fill-rule="evenodd" clip-rule="evenodd" d="M15.3447 15.2334C15.32 15.5296 15.3076 15.8265 15.3076 16.124C14.9034 16.2574 14.4952 16.3563 14.083 16.4209C13.4413 16.4635 12.8228 16.3646 12.2275 16.124C12.1905 15.8406 12.1781 15.5561 12.1904 15.2705C12.2151 15.4932 12.2398 15.7158 12.2646 15.9385C12.2646 15.9879 12.2646 16.0374 12.2646 16.0869C12.5313 16.1721 12.8034 16.234 13.081 16.2725C13.2717 16.3091 13.4697 16.3215 13.6748 16.3096C14.0792 16.3246 14.4751 16.2751 14.8623 16.1611C14.9813 16.1277 15.0988 16.0906 15.2148 16.0498C15.2309 15.7896 15.2495 15.5298 15.2705 15.2705C15.2952 15.2582 15.3199 15.2458 15.3447 15.2334Z" fill="#CB8BDF"/>
</svg>
