<svg width="19" height="19" viewBox="0 0 19 19" fill="none" xmlns="http://www.w3.org/2000/svg">
<g clip-path="url(#clip0_394_15571)">
<path opacity="0.975" fill-rule="evenodd" clip-rule="evenodd" d="M10.001 -0.0185547C10.4586 -0.0185547 10.9164 -0.0185547 11.374 -0.0185547C12.0681 0.0460364 12.7484 0.182104 13.415 0.389648C13.2341 0.489937 13.0671 0.613637 12.9141 0.760742C12.8957 0.821383 12.8896 0.883233 12.8955 0.946289C11.5059 0.87266 10.1081 0.84792 8.70215 0.87207C8.96514 0.797956 9.23727 0.742292 9.51855 0.705078C9.80111 0.669939 9.98665 0.521502 10.0752 0.259766C10.0447 0.168047 10.0199 0.0752738 10.001 -0.0185547Z" fill="#FF7984"/>
<path opacity="0.979" fill-rule="evenodd" clip-rule="evenodd" d="M9.51855 -0.0185547C9.67935 -0.0185547 9.84018 -0.0185547 10.001 -0.0185547C10.0199 0.0752738 10.0447 0.168047 10.0752 0.259766C9.98665 0.521502 9.80111 0.669939 9.51855 0.705078C9.23727 0.742292 8.96514 0.797956 8.70215 0.87207C8.26563 0.930915 7.83271 1.01132 7.40332 1.11328C7.16011 1.15339 6.92505 1.12864 6.69824 1.03906C6.57905 0.93526 6.50483 0.805377 6.47559 0.649414C7.46244 0.298668 8.47678 0.0760115 9.51855 -0.0185547Z" fill="#F8F5FB"/>
<path fill-rule="evenodd" clip-rule="evenodd" d="M13.415 0.389648C14.3287 0.629587 15.108 1.08727 15.7529 1.7627C15.2259 2.13562 14.694 2.14799 14.1572 1.7998C13.7945 1.57496 13.4235 1.35849 13.0439 1.15039C12.971 1.09654 12.9216 1.02851 12.8955 0.946289C12.8896 0.883233 12.8957 0.821383 12.914 0.760742C13.0671 0.613637 13.234 0.489937 13.415 0.389648Z" fill="#F8F6FB"/>
<path opacity="0.993" fill-rule="evenodd" clip-rule="evenodd" d="M6.47559 0.649414C6.50483 0.805377 6.57905 0.93526 6.69824 1.03906C6.92506 1.12864 7.16011 1.15339 7.40332 1.11328C7.83271 1.01132 8.26563 0.930915 8.70215 0.87207C10.1081 0.84792 11.5059 0.87266 12.8955 0.946289C12.9216 1.02851 12.9711 1.09654 13.0439 1.15039C13.4235 1.35849 13.7946 1.57496 14.1572 1.7998C13.8975 1.7998 13.6377 1.7998 13.3779 1.7998C12.774 1.47067 12.1308 1.26038 11.4482 1.16895C11.272 1.11214 11.0864 1.0874 10.8916 1.09473C9.95062 0.9955 9.02289 1.06972 8.1084 1.31738C7.5938 1.41882 7.09902 1.57963 6.62402 1.7998C5.81997 1.7998 5.01596 1.7998 4.21191 1.7998C4.89714 1.29016 5.65168 0.906701 6.47559 0.649414Z" fill="#FE747F"/>
<path fill-rule="evenodd" clip-rule="evenodd" d="M11.4482 1.16895C12.1308 1.26038 12.774 1.47067 13.3779 1.7998C13.772 2.03309 14.0937 2.34234 14.3428 2.72754C14.6184 3.24799 14.637 3.77989 14.3984 4.32324C14.3294 4.46129 14.2614 4.59733 14.1943 4.73145C13.6208 5.4458 12.9033 5.97153 12.042 6.30859C11.7895 6.39881 11.5421 6.49158 11.2998 6.58691C10.7527 6.73917 10.196 6.83811 9.62988 6.88379C9.51855 6.88379 9.40723 6.88379 9.2959 6.88379C9.2959 6.80957 9.2959 6.73535 9.2959 6.66113C9.30826 6.66113 9.32065 6.66113 9.33301 6.66113C9.33301 6.72299 9.33301 6.78482 9.33301 6.84668C9.63133 6.83648 9.92821 6.81172 10.2236 6.77246C10.2354 6.6362 10.1736 6.57437 10.0381 6.58691C10.3574 6.52108 10.679 6.44686 11.0029 6.36426C11.0102 6.45343 11.0535 6.51529 11.1328 6.54981C11.3921 6.47165 11.6457 6.37888 11.8936 6.27148C11.841 6.18743 11.7668 6.14416 11.6709 6.1416C11.9493 5.98385 12.2338 5.83541 12.5244 5.69629C12.5076 5.73184 12.4829 5.76279 12.4502 5.78906C12.5341 5.90128 12.6331 5.92603 12.7471 5.86328C12.9203 5.7396 13.0934 5.61587 13.2666 5.49219C13.1891 5.45397 13.1087 5.42305 13.0254 5.39941C12.8994 5.4825 12.7695 5.55672 12.6357 5.62207C13.0749 5.31273 13.415 4.91688 13.6563 4.43457C13.7352 4.2314 13.7785 4.0211 13.7861 3.80371C13.8172 3.37731 13.6935 3.00621 13.415 2.69043C13.3161 2.56673 13.2047 2.4554 13.0811 2.35645C13.1058 2.31934 13.1305 2.28223 13.1553 2.24512C13.2409 2.20232 13.3275 2.15902 13.415 2.11523C13.2894 2.00326 13.1533 1.91048 13.0068 1.83691C12.9381 1.7647 12.8515 1.70904 12.7471 1.66992C12.5199 1.57294 12.2849 1.50491 12.042 1.46582C11.8111 1.40482 11.5761 1.36771 11.3369 1.35449C11.2834 1.30553 11.2587 1.24368 11.2627 1.16895C11.3246 1.16895 11.3864 1.16895 11.4482 1.16895Z" fill="#B0313B"/>
<path fill-rule="evenodd" clip-rule="evenodd" d="M11.3369 1.35449C11.5761 1.36771 11.8111 1.40482 12.042 1.46582C12.0575 1.4926 12.0822 1.51115 12.1162 1.52148C12.0585 1.5917 11.9905 1.64736 11.9121 1.68848C11.6797 1.6383 11.4508 1.57645 11.2256 1.50293C11.2635 1.45092 11.3006 1.40145 11.3369 1.35449Z" fill="#FBF3F4"/>
<path fill-rule="evenodd" clip-rule="evenodd" d="M7.84856 1.54008C7.95124 1.52678 8.05017 1.50204 8.14543 1.46586C8.32716 1.40758 8.5127 1.38902 8.70207 1.4102C8.73473 1.46052 8.74712 1.51619 8.73918 1.57719C8.49036 1.6146 8.24299 1.66408 7.99699 1.72563C7.89257 1.70778 7.84306 1.64593 7.84856 1.54008Z" fill="#F9EEF1"/>
<path fill-rule="evenodd" clip-rule="evenodd" d="M8.10842 1.31738C8.14308 1.357 8.15548 1.40648 8.14553 1.46582C8.05027 1.502 7.95134 1.52674 7.84866 1.54004C7.53089 1.60868 7.23401 1.72 6.95803 1.87402C6.73538 1.97298 6.51272 2.07194 6.29006 2.1709C5.6071 2.50128 5.05662 2.9837 4.6387 3.61816C4.50432 3.85485 4.41155 4.10226 4.36038 4.36035C4.35655 4.16556 4.39366 3.98002 4.4717 3.80371C4.56303 3.54683 4.69291 3.3118 4.86135 3.09863C5.36259 2.54077 5.95018 2.10783 6.62405 1.7998C7.09905 1.57963 7.59383 1.41882 8.10842 1.31738Z" fill="#FA4756"/>
<path fill-rule="evenodd" clip-rule="evenodd" d="M10.8916 1.09476C11.0864 1.08743 11.272 1.11217 11.4482 1.16898C11.3864 1.16898 11.3246 1.16898 11.2627 1.16898C11.2587 1.24371 11.2834 1.30556 11.3369 1.35453C11.3006 1.40148 11.2635 1.45096 11.2256 1.50297C11.4508 1.57649 11.6797 1.63834 11.9121 1.68851C11.9905 1.64739 12.0585 1.59173 12.1162 1.52152C12.0822 1.51119 12.0575 1.49263 12.042 1.46586C12.2849 1.50494 12.5199 1.57298 12.7471 1.66996C12.8515 1.70907 12.9381 1.76473 13.0068 1.83695C12.8528 1.77954 12.7168 1.81046 12.5986 1.92972C12.7852 2.03531 12.9707 2.14045 13.1553 2.24515C13.1305 2.28226 13.1058 2.31937 13.0811 2.35648C12.707 2.06432 12.2864 1.86022 11.8193 1.74418C11.3785 1.63566 10.9332 1.55526 10.4834 1.50297C10.5185 1.41429 10.568 1.33389 10.6318 1.26175C10.5839 1.24357 10.5343 1.23738 10.4834 1.2432C10.471 1.2432 10.4586 1.2432 10.4463 1.2432C10.42 1.20965 10.3829 1.19728 10.335 1.20609C10.335 1.16898 10.335 1.13187 10.335 1.09476C10.5205 1.09476 10.7061 1.09476 10.8916 1.09476Z" fill="#BF3742"/>
<path opacity="0.995" fill-rule="evenodd" clip-rule="evenodd" d="M4.21191 1.7998C5.01596 1.7998 5.81997 1.7998 6.62402 1.7998C5.95015 2.10783 5.36256 2.54077 4.86133 3.09863C4.69289 3.3118 4.56301 3.54683 4.47168 3.80371C4.27378 3.80371 4.07583 3.80371 3.87793 3.80371C4.04448 3.52023 4.21147 3.23572 4.37891 2.9502C4.55132 2.74493 4.54516 2.5532 4.36035 2.375C4.13796 2.30469 3.9153 2.24902 3.69238 2.20801C3.8521 2.05404 4.02525 1.91797 4.21191 1.7998Z" fill="#FE6D79"/>
<path fill-rule="evenodd" clip-rule="evenodd" d="M10.4834 1.50297C10.9332 1.55527 11.3785 1.63567 11.8193 1.74418C12.2864 1.86023 12.707 2.06433 13.0811 2.35649C13.2047 2.45545 13.3161 2.56677 13.415 2.69047C13.2419 2.71521 13.0687 2.73995 12.8955 2.76469C12.4308 2.34055 11.8865 2.06223 11.2627 1.92973C10.0555 1.68373 8.88042 1.7765 7.7373 2.20805C7.34536 2.35455 6.97426 2.5401 6.62402 2.76469C6.46323 2.73995 6.3024 2.71521 6.1416 2.69047C7.45004 1.81583 8.89731 1.42 10.4834 1.50297Z" fill="#FE6F7B"/>
<path fill-rule="evenodd" clip-rule="evenodd" d="M13.0068 1.83694C13.1533 1.91051 13.2894 2.00329 13.415 2.11526C13.3275 2.15905 13.2409 2.20235 13.1553 2.24515C12.9707 2.14045 12.7852 2.03531 12.5986 1.92972C12.7168 1.81046 12.8528 1.77953 13.0068 1.83694Z" fill="#FCF6F7"/>
<path opacity="0.994" fill-rule="evenodd" clip-rule="evenodd" d="M15.7529 1.7627C16.0252 2.0345 16.2231 2.35611 16.3467 2.72754C15.6787 2.72754 15.0107 2.72754 14.3428 2.72754C14.0937 2.34234 13.772 2.03309 13.3779 1.7998C13.6377 1.7998 13.8975 1.7998 14.1572 1.7998C14.694 2.14799 15.2259 2.13562 15.7529 1.7627Z" fill="#FE6D79"/>
<path fill-rule="evenodd" clip-rule="evenodd" d="M12.8955 2.76459C13.3402 3.31044 13.3835 3.89183 13.0254 4.50873C12.9246 4.62785 12.8318 4.75158 12.7471 4.87983C12.6943 4.93271 12.6324 4.96982 12.5615 4.99115C10.941 4.08205 9.33297 3.15431 7.7373 2.20795C8.88042 1.7764 10.0555 1.68363 11.2627 1.92963C11.8865 2.06213 12.4308 2.34045 12.8955 2.76459Z" fill="#FCFBFD"/>
<path fill-rule="evenodd" clip-rule="evenodd" d="M6.95801 1.87402C7.03627 1.90708 7.11049 1.95038 7.18066 2.00391C6.97493 2.08887 6.77703 2.18782 6.58691 2.30078C6.44479 2.34598 6.34585 2.30269 6.29004 2.1709C6.5127 2.07194 6.73535 1.97298 6.95801 1.87402Z" fill="#F8EDF3"/>
<path fill-rule="evenodd" clip-rule="evenodd" d="M7.7373 2.20801C9.33297 3.15437 10.941 4.08211 12.5615 4.99121C12.262 5.28341 11.9156 5.51226 11.5225 5.67773C11.0908 5.85668 10.6455 5.98656 10.1865 6.06738C8.73922 5.25725 7.30431 4.42845 5.88184 3.58105C6.06412 3.25032 6.31149 2.97818 6.62402 2.76465C6.97426 2.54006 7.34536 2.35451 7.7373 2.20801Z" fill="#F8F6FC"/>
<path fill-rule="evenodd" clip-rule="evenodd" d="M13.8604 2.50488C13.9936 2.64063 14.1049 2.79525 14.1943 2.96875C14.071 3.00374 13.9473 3.03466 13.8232 3.06152C13.779 2.91126 13.7048 2.77519 13.6006 2.65332C13.6801 2.58986 13.7667 2.54039 13.8604 2.50488Z" fill="#FAF3F4"/>
<path opacity="0.995" fill-rule="evenodd" clip-rule="evenodd" d="M14.3428 2.72754C15.0107 2.72754 15.6787 2.72754 16.3467 2.72754C16.405 2.95863 16.4421 3.19366 16.458 3.43262C16.4457 3.43262 16.4333 3.43262 16.4209 3.43262C16.0584 3.35353 15.712 3.39682 15.3818 3.5625C15.3262 3.61816 15.2705 3.67383 15.2148 3.72949C15.0438 4.08396 14.8645 4.4303 14.6768 4.76855C14.5233 4.732 14.3625 4.71964 14.1943 4.73145C14.2614 4.59733 14.3294 4.46129 14.3984 4.32324C14.637 3.77989 14.6184 3.24799 14.3428 2.72754Z" fill="#FE6673"/>
<path opacity="0.989" fill-rule="evenodd" clip-rule="evenodd" d="M3.69238 2.20801C3.9153 2.24902 4.13796 2.30469 4.36035 2.375C4.54516 2.5532 4.55132 2.74493 4.37891 2.9502C4.21147 3.23572 4.04448 3.52023 3.87793 3.80371C3.77829 4.05772 3.59274 4.21232 3.32129 4.26758C3.04811 4.29292 2.77597 4.28676 2.50488 4.24902C2.66171 3.42802 3.05755 2.74768 3.69238 2.20801Z" fill="#F8F6FB"/>
<path fill-rule="evenodd" clip-rule="evenodd" d="M10.8916 1.0947C10.7061 1.0947 10.5205 1.0947 10.335 1.0947C10.335 1.13181 10.335 1.16892 10.335 1.20603C10.3829 1.19722 10.42 1.20959 10.4463 1.24314C10.1618 1.24314 9.87729 1.24314 9.59277 1.24314C9.59277 1.31736 9.59277 1.39157 9.59277 1.46579C9.86601 1.47806 10.1382 1.46569 10.4092 1.42868C10.4447 1.37022 10.4694 1.30837 10.4834 1.24314C10.5344 1.23732 10.5839 1.24351 10.6318 1.26169C10.568 1.33382 10.5185 1.41423 10.4834 1.5029C8.89731 1.41993 7.45004 1.81576 6.1416 2.6904C5.66571 3.0244 5.33792 3.46971 5.1582 4.02634C5.131 4.22617 5.13716 4.42408 5.17676 4.62009C5.17101 4.96669 5.28849 5.27592 5.5293 5.54782C5.69547 5.70127 5.86247 5.84971 6.03027 5.99314C5.94893 6.10632 5.88711 6.23001 5.84473 6.36423C5.47823 6.17486 5.14425 5.93981 4.84277 5.65915C4.52816 5.28439 4.36733 4.85147 4.36035 4.36032C4.41153 4.10223 4.5043 3.85482 4.63867 3.61814C5.0566 2.98367 5.60708 2.50125 6.29004 2.17087C6.34585 2.30266 6.44479 2.34596 6.58691 2.30075C6.77703 2.1878 6.97493 2.08884 7.18066 2.00388C7.11049 1.95035 7.03627 1.90706 6.95801 1.874C7.23399 1.71998 7.53087 1.60865 7.84863 1.54001C7.84314 1.64586 7.89264 1.70771 7.99707 1.72556C8.24307 1.66401 8.49044 1.61453 8.73926 1.57712C8.7472 1.51612 8.73481 1.46045 8.70215 1.41013C8.51278 1.38895 8.32723 1.40751 8.14551 1.46579C8.15545 1.40646 8.14306 1.35697 8.1084 1.31736C9.02289 1.06969 9.95062 0.995472 10.8916 1.0947Z" fill="#DB3F4C"/>
<path fill-rule="evenodd" clip-rule="evenodd" d="M5.58496 2.65335C5.70319 2.64729 5.80216 2.6844 5.88184 2.76468C5.74015 2.88779 5.60407 3.01767 5.47363 3.15432C5.36928 3.17161 5.27031 3.15305 5.17676 3.09866C5.31365 2.94948 5.4497 2.80104 5.58496 2.65335Z" fill="#F6EDF4"/>
<path fill-rule="evenodd" clip-rule="evenodd" d="M10.4463 1.24316C10.4586 1.24316 10.471 1.24316 10.4834 1.24316C10.4694 1.3084 10.4447 1.37025 10.4092 1.42871C10.1382 1.46572 9.86601 1.47809 9.59277 1.46582C9.59277 1.3916 9.59277 1.31738 9.59277 1.24316C9.87729 1.24316 10.1618 1.24316 10.4463 1.24316Z" fill="#F9ECEE"/>
<path fill-rule="evenodd" clip-rule="evenodd" d="M14.1201 3.46973C14.1943 3.46973 14.2686 3.46973 14.3428 3.46973C14.3482 3.64467 14.3359 3.81785 14.3057 3.98926C14.1943 3.98926 14.083 3.98926 13.9717 3.98926C13.9717 3.82846 13.9717 3.66764 13.9717 3.50684C14.031 3.51677 14.0805 3.50441 14.1201 3.46973Z" fill="#F8EFF1"/>
<path opacity="0.994" fill-rule="evenodd" clip-rule="evenodd" d="M16.4209 3.43262C16.4333 3.43262 16.4457 3.43262 16.458 3.43262C16.438 3.689 16.4627 3.93641 16.5322 4.1748C16.5081 4.18609 16.4834 4.19844 16.458 4.21191C16.4302 4.76885 16.4054 5.32549 16.3838 5.88184C16.1952 6.61397 15.8118 7.22011 15.2334 7.7002C15.2334 7.05698 15.2334 6.41372 15.2334 5.77051C15.9142 5.13865 16.3101 4.35935 16.4209 3.43262Z" fill="#D7D1EB"/>
<path fill-rule="evenodd" clip-rule="evenodd" d="M4.76855 3.61812C4.88857 3.60716 4.99989 3.6319 5.10254 3.69234C5.03151 3.83421 4.98204 3.98265 4.9541 4.13766C4.84277 4.13766 4.73145 4.13766 4.62012 4.13766C4.64806 3.95816 4.69753 3.78497 4.76855 3.61812Z" fill="#F4E9F2"/>
<path fill-rule="evenodd" clip-rule="evenodd" d="M5.88174 3.58105C7.30422 4.42845 8.73912 5.25725 10.1864 6.06738C9.02182 6.34036 7.88379 6.24759 6.77236 5.78906C6.2774 5.56797 5.91866 5.21543 5.69619 4.73145C5.65916 4.48511 5.65296 4.23771 5.67764 3.98926C5.7077 3.83017 5.77572 3.6941 5.88174 3.58105Z" fill="#F4F1FA"/>
<path fill-rule="evenodd" clip-rule="evenodd" d="M6.14163 2.69043C6.30242 2.71517 6.46326 2.73991 6.62405 2.76465C6.31152 2.97818 6.06414 3.25032 5.88186 3.58105C5.77584 3.6941 5.70782 3.83017 5.67776 3.98926C5.65308 4.23771 5.65928 4.48511 5.69632 4.73145C5.53552 4.73145 5.37469 4.73145 5.21389 4.73145C5.18035 4.70513 5.16799 4.66803 5.17679 4.62012C5.13719 4.42411 5.13103 4.2262 5.15823 4.02637C5.33795 3.46974 5.66574 3.02443 6.14163 2.69043Z" fill="#FE6471"/>
<path fill-rule="evenodd" clip-rule="evenodd" d="M13.415 2.69043C13.6935 3.00621 13.8172 3.37731 13.7861 3.80371C13.7088 4.21819 13.5232 4.57692 13.2295 4.87988C13.0687 4.87988 12.9079 4.87988 12.7471 4.87988C12.8318 4.75163 12.9246 4.62791 13.0254 4.50879C13.3835 3.89188 13.3402 3.3105 12.8955 2.76465C13.0687 2.73991 13.2418 2.71517 13.415 2.69043Z" fill="#FE6370"/>
<path fill-rule="evenodd" clip-rule="evenodd" d="M16.4209 3.43262C16.3101 4.35935 15.9143 5.13865 15.2334 5.77051C15.0604 5.75337 14.8872 5.73481 14.7139 5.71485C14.4649 5.65184 14.3722 5.49724 14.4356 5.25098C14.5165 5.08918 14.5969 4.92839 14.6768 4.76856C14.8645 4.43031 15.0439 4.08397 15.2149 3.7295C15.2705 3.67383 15.3262 3.61817 15.3819 3.5625C15.7121 3.39683 16.0584 3.35353 16.4209 3.43262Z" fill="#F8F5FB"/>
<path fill-rule="evenodd" clip-rule="evenodd" d="M13.7861 3.80371C13.7785 4.0211 13.7352 4.2314 13.6563 4.43457C13.415 4.91688 13.0749 5.31273 12.6357 5.62207C12.6182 5.67425 12.5811 5.699 12.5244 5.69629C12.2338 5.83541 11.9493 5.98385 11.6709 6.1416C11.4504 6.22335 11.2277 6.29757 11.0029 6.36426C10.679 6.44686 10.3574 6.52108 10.0381 6.58691C9.80226 6.60469 9.56724 6.62944 9.33301 6.66113C9.32065 6.66113 9.30826 6.66113 9.2959 6.66113C9.03613 6.66113 8.77637 6.66113 8.5166 6.66113C8.52157 6.59463 8.50922 6.53281 8.47949 6.47559C9.90998 6.54955 11.2459 6.23412 12.4873 5.5293C12.7721 5.35592 13.0195 5.13943 13.2295 4.87988C13.5232 4.57692 13.7088 4.21819 13.7861 3.80371Z" fill="#F54554"/>
<path fill-rule="evenodd" clip-rule="evenodd" d="M13.7861 4.47168C13.8983 4.48296 14.0096 4.50152 14.1201 4.52734C14.0276 4.7189 13.904 4.88589 13.749 5.02832C13.659 4.99834 13.5725 4.96123 13.4893 4.91699C13.6037 4.77798 13.7027 4.62954 13.7861 4.47168Z" fill="#F7EEF1"/>
<path fill-rule="evenodd" clip-rule="evenodd" d="M4.58301 4.62012C4.70669 4.62012 4.83042 4.62012 4.9541 4.62012C4.9652 4.76967 5.00231 4.91191 5.06543 5.04688C4.97266 5.07779 4.87988 5.10874 4.78711 5.13965C4.72577 5.12777 4.68866 5.09066 4.67578 5.02832C4.62234 4.89692 4.59139 4.76084 4.58301 4.62012Z" fill="#F2E6F0"/>
<path opacity="0.964" fill-rule="evenodd" clip-rule="evenodd" d="M2.46789 4.80566C2.51733 5.02906 2.58536 5.25172 2.672 5.47363C2.70692 5.55628 2.75021 5.63049 2.80188 5.69629C2.8955 5.90136 3.0192 6.0869 3.17297 6.25293C3.17297 6.89615 3.17297 7.5394 3.17297 8.18262C3.0653 8.07827 2.96634 7.96694 2.8761 7.84863C2.66319 7.53825 2.53331 7.19187 2.48645 6.80957C2.4679 6.14171 2.46171 5.47374 2.46789 4.80566Z" fill="#AB2C37"/>
<path fill-rule="evenodd" clip-rule="evenodd" d="M3.87804 3.80371C4.07595 3.80371 4.27389 3.80371 4.47179 3.80371C4.39375 3.98002 4.35664 4.16556 4.36047 4.36035C4.36744 4.85149 4.52827 5.28441 4.84289 5.65918C4.15607 5.64693 3.47575 5.65929 2.80187 5.69629C2.7502 5.63049 2.70691 5.55628 2.67199 5.47363C2.58535 5.25172 2.51732 5.02906 2.46789 4.80566C2.45755 4.61659 2.46991 4.43104 2.505 4.24902C2.77609 4.28676 3.04822 4.29292 3.3214 4.26758C3.59285 4.21232 3.77841 4.05772 3.87804 3.80371Z" fill="#FE5C69"/>
<path fill-rule="evenodd" clip-rule="evenodd" d="M12.5244 5.69629C12.5811 5.699 12.6182 5.67425 12.6357 5.62207C12.7695 5.55672 12.8994 5.4825 13.0254 5.39941C13.1087 5.42305 13.1891 5.45396 13.2666 5.49219C13.0934 5.61587 12.9203 5.7396 12.7471 5.86328C12.6331 5.92603 12.5341 5.90128 12.4502 5.78906C12.4829 5.76279 12.5076 5.73184 12.5244 5.69629Z" fill="#F6EFF4"/>
<path fill-rule="evenodd" clip-rule="evenodd" d="M5.21387 5.51074C5.28022 5.50016 5.34208 5.51252 5.39941 5.54785C5.51672 5.65884 5.64044 5.76401 5.77051 5.86328C5.66668 5.9343 5.55535 5.97141 5.43652 5.9746C5.28935 5.86461 5.15327 5.74093 5.02832 5.60351C5.09567 5.57542 5.1575 5.54451 5.21387 5.51074Z" fill="#F1E7F1"/>
<path opacity="0.978" fill-rule="evenodd" clip-rule="evenodd" d="M16.5322 4.1748C16.9998 4.62821 17.2349 5.18485 17.2373 5.84473C16.9507 5.83482 16.6662 5.84718 16.3838 5.88184C16.4054 5.32549 16.4302 4.76885 16.458 4.21191C16.4834 4.19844 16.5081 4.18609 16.5322 4.1748Z" fill="#FAEC90"/>
<path fill-rule="evenodd" clip-rule="evenodd" d="M4.84277 5.65923C5.14425 5.93989 5.47823 6.17494 5.84473 6.36431C6.01239 6.42966 6.17318 6.50388 6.32715 6.58697C6.03577 6.57491 5.75129 6.58727 5.47363 6.62408C5.07801 6.3891 4.66981 6.17261 4.24902 5.97466C3.85366 5.89844 3.5073 5.99121 3.20996 6.25298C3.19759 6.25298 3.18522 6.25298 3.17285 6.25298C3.01908 6.08696 2.89538 5.90141 2.80176 5.69634C3.47563 5.65935 4.15595 5.64699 4.84277 5.65923Z" fill="#FE5664"/>
<path fill-rule="evenodd" clip-rule="evenodd" d="M15.1962 7.7373C15.1962 7.74966 15.1962 7.76206 15.1962 7.77441C14.4029 8.42479 13.5246 8.93197 12.5615 9.2959C12.5367 9.2959 12.512 9.2959 12.4872 9.2959C12.4502 8.65914 12.4379 8.01592 12.4501 7.36621C13.0175 7.14856 13.5618 6.8888 14.0829 6.58691C14.475 6.36886 14.84 6.10909 15.1777 5.80762C15.1962 6.45072 15.2024 7.09394 15.1962 7.7373Z" fill="#FE4757"/>
<path opacity="0.985" fill-rule="evenodd" clip-rule="evenodd" d="M17.2373 5.88184C17.2534 6.69969 17.2348 7.5161 17.1816 8.33105C17.0538 8.84647 16.8188 9.30414 16.4766 9.7041C16.4805 10.1781 16.4 10.6358 16.2354 11.0771C16.0661 11.3532 15.8867 11.6254 15.6973 11.8936C15.6669 12.0983 15.6731 12.2962 15.7158 12.4873C15.5295 13.1877 15.177 13.7938 14.6582 14.3057C14.64 14.3536 14.6338 14.4032 14.6396 14.4541C14.6129 14.4386 14.5943 14.4139 14.584 14.3799C14.5577 14.4126 14.5268 14.4373 14.4912 14.4541C14.4912 13.9593 14.4912 13.4645 14.4912 12.9697C14.7353 12.8003 14.9703 12.6148 15.1963 12.4131C15.2334 11.8694 15.2458 11.3251 15.2334 10.7803C15.4946 10.584 15.7482 10.3737 15.9941 10.1494C16.0127 9.50631 16.0189 8.86309 16.0127 8.21973C16.0127 8.20737 16.0127 8.19497 16.0127 8.18262C16.6751 7.55053 17.0833 6.78359 17.2373 5.88184Z" fill="#D7D1EA"/>
<path fill-rule="evenodd" clip-rule="evenodd" d="M5.47363 6.62405C5.61346 6.72517 5.7619 6.81795 5.91895 6.90237C6.07043 7.07126 6.05807 7.23205 5.88184 7.38479C5.76309 7.46269 5.6394 7.53074 5.51074 7.58889C5.49838 7.58889 5.48599 7.58889 5.47363 7.58889C4.58316 7.36063 3.82861 6.91532 3.20996 6.25296C3.5073 5.99119 3.85366 5.89841 4.24902 5.97464C4.66981 6.17258 5.07801 6.38907 5.47363 6.62405Z" fill="#F8F5FB"/>
<path fill-rule="evenodd" clip-rule="evenodd" d="M5.21387 4.73145C5.37466 4.73145 5.53549 4.73145 5.69629 4.73145C5.91876 5.21543 6.2775 5.56796 6.77246 5.78906C7.88389 6.24759 9.02192 6.34036 10.1865 6.06738C10.6455 5.98656 11.0908 5.85668 11.5225 5.67773C11.9156 5.51226 12.262 5.28341 12.5615 4.99121C12.6324 4.96987 12.6943 4.93276 12.7471 4.87988C12.9079 4.87988 13.0687 4.87988 13.2295 4.87988C13.0195 5.13943 12.7721 5.35592 12.4873 5.5293C11.2459 6.23412 9.90999 6.54955 8.47949 6.47559C8.12992 6.46627 7.78358 6.42916 7.44043 6.36426C6.90824 6.25078 6.41343 6.04668 5.95605 5.75195C5.57598 5.50395 5.32857 5.16377 5.21387 4.73145Z" fill="#FE5765"/>
<path fill-rule="evenodd" clip-rule="evenodd" d="M14.1943 4.7315C14.3625 4.71969 14.5233 4.73205 14.6768 4.76861C14.5969 4.92844 14.5164 5.08923 14.4355 5.25103C14.3721 5.49728 14.4649 5.65188 14.7139 5.71489C14.8872 5.73486 15.0604 5.75341 15.2334 5.77056C15.2334 6.41378 15.2334 7.05703 15.2334 7.70025C15.2334 7.725 15.221 7.73736 15.1963 7.73736C15.2025 7.09399 15.1963 6.45077 15.1777 5.80767C14.84 6.10914 14.4751 6.36891 14.083 6.58696C13.1553 6.58696 12.2275 6.58696 11.2998 6.58696C11.5421 6.49163 11.7895 6.39886 12.042 6.30864C12.9033 5.97158 13.6208 5.44585 14.1943 4.7315Z" fill="#FE5564"/>
<path fill-rule="evenodd" clip-rule="evenodd" d="M11.6709 6.1416C11.7668 6.14416 11.841 6.18743 11.8936 6.27148C11.6457 6.37888 11.3921 6.47165 11.1328 6.5498C11.0535 6.51529 11.0102 6.45343 11.0029 6.36426C11.2277 6.29757 11.4504 6.22335 11.6709 6.1416Z" fill="#F3E9F0"/>
<path fill-rule="evenodd" clip-rule="evenodd" d="M6.43848 6.21584C6.593 6.321 6.76619 6.38287 6.95801 6.40138C6.89863 6.4795 6.83061 6.55372 6.75391 6.62404C6.51912 6.54578 6.29026 6.453 6.06738 6.34572C6.17263 6.24983 6.29631 6.20652 6.43848 6.21584Z" fill="#F0E4EE"/>
<path fill-rule="evenodd" clip-rule="evenodd" d="M3.17285 6.25293C3.18522 6.25293 3.19759 6.25293 3.20996 6.25293C3.82861 6.9153 4.58316 7.36061 5.47363 7.58887C5.48599 8.24492 5.47363 8.90054 5.43652 9.55566C5.19706 9.47914 4.96201 9.39253 4.73145 9.2959C4.4856 9.16242 4.23819 9.02634 3.98926 8.8877C3.9769 8.8877 3.96451 8.8877 3.95215 8.8877C3.95215 8.86294 3.93979 8.85059 3.91504 8.85059C3.71803 8.6909 3.52012 8.53007 3.32129 8.36816C3.27181 8.3063 3.22233 8.24448 3.17285 8.18262C3.17285 7.5394 3.17285 6.89615 3.17285 6.25293Z" fill="#C4B9EA"/>
<path fill-rule="evenodd" clip-rule="evenodd" d="M5.17681 4.62012C5.16802 4.66803 5.18038 4.70513 5.21392 4.73145C5.32863 5.16377 5.57604 5.50395 5.95611 5.75195C6.41348 6.04668 6.9083 6.25078 7.44049 6.36426C7.44049 6.41372 7.44049 6.46323 7.44049 6.5127C7.27208 6.50461 7.11129 6.4675 6.95806 6.40137C6.76625 6.38285 6.59306 6.32099 6.43853 6.21582C6.30869 6.13232 6.17264 6.05811 6.03033 5.99316C5.86252 5.84974 5.69553 5.7013 5.52935 5.54785C5.28855 5.27595 5.17106 4.96672 5.17681 4.62012Z" fill="#BB323E"/>
<path fill-rule="evenodd" clip-rule="evenodd" d="M6.03027 5.99316C6.17259 6.05811 6.30863 6.13232 6.43848 6.21582C6.29631 6.20651 6.17263 6.24981 6.06738 6.3457C6.29026 6.45299 6.51912 6.54576 6.75391 6.62402C6.83061 6.5537 6.89863 6.47948 6.95801 6.40137C7.11123 6.4675 7.27203 6.50461 7.44043 6.5127C7.44043 6.46323 7.44043 6.41372 7.44043 6.36426C7.78358 6.42916 8.12992 6.46627 8.47949 6.47559C8.50922 6.53281 8.52157 6.59463 8.5166 6.66113C8.77637 6.66113 9.03613 6.66113 9.2959 6.66113C9.2959 6.73535 9.2959 6.80957 9.2959 6.88379C9.40723 6.88379 9.51856 6.88379 9.62988 6.88379C8.51115 7.03946 7.41026 6.94049 6.32715 6.58691C6.17318 6.50383 6.01239 6.42961 5.84473 6.36426C5.88711 6.23003 5.94893 6.10635 6.03027 5.99316Z" fill="#C83844"/>
<path fill-rule="evenodd" clip-rule="evenodd" d="M17.2373 5.84474C17.2373 5.85709 17.2373 5.86949 17.2373 5.88185C17.0833 6.7836 16.6751 7.55054 16.0127 8.18263C15.8112 8.17417 15.6133 8.14325 15.4189 8.08985C15.2771 8.02896 15.2029 7.92383 15.1963 7.77442C15.1963 7.76207 15.1963 7.74967 15.1963 7.73732C15.221 7.73732 15.2334 7.72496 15.2334 7.70021C15.8118 7.22012 16.1952 6.61398 16.3838 5.88185C16.6662 5.84719 16.9507 5.83483 17.2373 5.84474Z" fill="#F8F6FC"/>
<path fill-rule="evenodd" clip-rule="evenodd" d="M6.32715 6.58686C7.41026 6.94044 8.51115 7.03941 9.62988 6.88374C10.196 6.83806 10.7527 6.73912 11.2998 6.58686C12.2275 6.58686 13.1553 6.58686 14.083 6.58686C13.5619 6.88875 13.0176 7.14852 12.4502 7.36616C12.4502 7.34141 12.4378 7.32905 12.4131 7.32905C12.3899 7.10161 12.2662 6.95937 12.042 6.90229C11.8441 6.87754 11.6461 6.87754 11.4482 6.90229C10.676 7.03941 9.90902 7.20025 9.14746 7.38472C8.86688 7.51838 8.79266 7.72249 8.9248 7.99702C8.9248 8.00938 8.9248 8.02177 8.9248 8.03413C8.64029 8.03413 8.35581 8.03413 8.07129 8.03413C7.77419 8.0116 7.47732 7.98689 7.18066 7.95991C6.61549 7.88974 6.05885 7.77841 5.51074 7.62593C5.51074 7.61357 5.51074 7.60118 5.51074 7.58882C5.6394 7.53067 5.76309 7.46261 5.88184 7.38472C6.05807 7.23197 6.07043 7.07118 5.91895 6.90229C5.7619 6.81787 5.61346 6.7251 5.47363 6.62397C5.75129 6.58716 6.03577 6.5748 6.32715 6.58686Z" fill="#FE4D5C"/>
<path fill-rule="evenodd" clip-rule="evenodd" d="M7.66309 6.62402C7.93462 6.64696 8.20678 6.65931 8.47949 6.66113C8.46713 6.73535 8.45474 6.80957 8.44238 6.88379C8.15252 6.87722 7.868 6.84011 7.58887 6.77246C7.6141 6.72199 7.63885 6.67253 7.66309 6.62402Z" fill="#F0E5EE"/>
<path fill-rule="evenodd" clip-rule="evenodd" d="M10.0381 6.58691C10.1736 6.57437 10.2354 6.6362 10.2236 6.77246C9.92821 6.81172 9.63133 6.83647 9.33301 6.84668C9.33301 6.78482 9.33301 6.72299 9.33301 6.66113C9.56724 6.62944 9.80226 6.60469 10.0381 6.58691Z" fill="#F2E7EF"/>
<path fill-rule="evenodd" clip-rule="evenodd" d="M12.4131 7.32911C12.4131 7.34147 12.4131 7.35386 12.4131 7.36622C12.1573 7.43907 11.9099 7.52564 11.6709 7.62599C11.0752 7.75045 10.4814 7.86178 9.88964 7.95997C9.56868 7.98606 9.24709 7.99842 8.92479 7.99708C8.79265 7.72254 8.86687 7.51844 9.14745 7.38477C9.90901 7.2003 10.6759 7.03947 11.4482 6.90235C11.6461 6.8776 11.8441 6.8776 12.042 6.90235C12.2662 6.95943 12.3899 7.10167 12.4131 7.32911Z" fill="#F8F5FA"/>
<path fill-rule="evenodd" clip-rule="evenodd" d="M12.4131 7.36621C12.4131 8.02182 12.4131 8.6774 12.4131 9.33301C12.1781 9.40723 11.943 9.48145 11.708 9.55566C11.7203 8.90595 11.7079 8.26274 11.6709 7.62598C11.9099 7.52563 12.1573 7.43906 12.4131 7.36621Z" fill="#D5CFEB"/>
<path fill-rule="evenodd" clip-rule="evenodd" d="M12.4131 7.3291C12.4378 7.3291 12.4502 7.34146 12.4502 7.36621C12.4379 8.01592 12.4503 8.65914 12.4873 9.2959C12.4746 9.327 12.4499 9.33939 12.4131 9.33301C12.4131 8.6774 12.4131 8.02182 12.4131 7.36621C12.4131 7.35385 12.4131 7.34146 12.4131 7.3291Z" fill="#E1AEC5"/>
<path fill-rule="evenodd" clip-rule="evenodd" d="M5.51074 7.62598C6.05885 7.77846 6.61549 7.88979 7.18066 7.95996C7.16883 8.61839 7.18118 9.274 7.21777 9.92676C6.89284 9.90138 6.57125 9.85191 6.25293 9.77832C6.00552 9.71646 5.75811 9.6546 5.51074 9.59277C5.51074 8.93716 5.51074 8.28159 5.51074 7.62598Z" fill="#AC2C37"/>
<path fill-rule="evenodd" clip-rule="evenodd" d="M11.6709 7.62598C11.7079 8.26274 11.7203 8.90595 11.708 9.55566C11.1449 9.69549 10.5759 9.80682 10.001 9.88965C10.001 9.24643 10.001 8.60318 10.001 7.95996C9.96387 7.95996 9.92676 7.95996 9.88965 7.95996C10.4814 7.86177 11.0752 7.75044 11.6709 7.62598Z" fill="#D2CAEB"/>
<path fill-rule="evenodd" clip-rule="evenodd" d="M2.87598 7.84863C2.96622 7.96694 3.06518 8.07827 3.17285 8.18262C3.22233 8.24448 3.27181 8.3063 3.32129 8.36816C3.28465 8.54647 3.27229 8.73202 3.28418 8.9248C3.02534 8.9621 2.76558 8.9621 2.50488 8.9248C2.5402 8.5343 2.6639 8.1756 2.87598 7.84863Z" fill="#877FA1"/>
<path fill-rule="evenodd" clip-rule="evenodd" d="M9.88965 7.95996C9.92676 7.95996 9.96387 7.95996 10.001 7.95996C10.001 8.60318 10.001 9.24643 10.001 9.88965C9.91871 9.9219 9.83213 9.93425 9.74121 9.92676C9.4695 9.94672 9.19737 9.95908 8.9248 9.96387C8.9248 9.32065 8.9248 8.6774 8.9248 8.03418C8.9248 8.02182 8.9248 8.00943 8.9248 7.99707C9.2471 7.99841 9.56869 7.98605 9.88965 7.95996Z" fill="#CEC3E8"/>
<path fill-rule="evenodd" clip-rule="evenodd" d="M7.18066 7.95996C7.47732 7.98694 7.77419 8.01165 8.07129 8.03418C8.07129 8.6774 8.07129 9.32065 8.07129 9.96387C8.35581 9.96387 8.64029 9.96387 8.9248 9.96387C8.07771 10.0009 7.22419 10.0133 6.36426 10.001C6.36426 9.98862 6.36426 9.97622 6.36426 9.96387C6.82456 9.98224 7.10908 9.96988 7.21777 9.92676C7.18118 9.274 7.16883 8.61839 7.18066 7.95996Z" fill="#BC363E"/>
<path fill-rule="evenodd" clip-rule="evenodd" d="M8.07129 8.03418C8.35581 8.03418 8.64029 8.03418 8.9248 8.03418C8.9248 8.6774 8.9248 9.32065 8.9248 9.96387C8.64029 9.96387 8.35581 9.96387 8.07129 9.96387C8.07129 9.32065 8.07129 8.6774 8.07129 8.03418Z" fill="#C83542"/>
<path fill-rule="evenodd" clip-rule="evenodd" d="M16.0127 8.21973C16.0189 8.86309 16.0127 9.50631 15.9941 10.1494C15.7482 10.3737 15.4946 10.584 15.2334 10.7803C14.6041 11.1691 13.9361 11.4784 13.2295 11.708C13.2295 11.0648 13.2295 10.4215 13.2295 9.77832C14.2543 9.42081 15.182 8.90128 16.0127 8.21973Z" fill="#FEC538"/>
<path fill-rule="evenodd" clip-rule="evenodd" d="M15.1963 7.77441C15.2029 7.92382 15.2771 8.02895 15.4189 8.08984C15.6133 8.14324 15.8112 8.17416 16.0127 8.18262C16.0127 8.19497 16.0127 8.20737 16.0127 8.21973C15.182 8.90128 14.2543 9.42081 13.2295 9.77832C13.1541 9.41888 12.9314 9.25808 12.5615 9.2959C13.5247 8.93197 14.4029 8.42479 15.1963 7.77441Z" fill="#F8E35B"/>
<path fill-rule="evenodd" clip-rule="evenodd" d="M3.32127 8.36816C3.5201 8.53007 3.718 8.6909 3.91502 8.85059C3.72127 8.95679 3.52954 9.06812 3.33982 9.18457C3.32562 9.16394 3.30707 9.15158 3.28416 9.14746C3.28416 9.07324 3.28416 8.99902 3.28416 8.9248C3.27226 8.73202 3.28463 8.54647 3.32127 8.36816Z" fill="#7B595D"/>
<path fill-rule="evenodd" clip-rule="evenodd" d="M3.91504 8.85059C3.93979 8.85059 3.95215 8.86294 3.95215 8.8877C3.95215 9.06088 3.95215 9.23404 3.95215 9.40723C3.80152 9.46367 3.6531 9.53169 3.50684 9.61133C3.47696 9.65263 3.45222 9.6959 3.43262 9.74121C3.34915 9.55578 3.29967 9.35787 3.28418 9.14746C3.30709 9.15158 3.32565 9.16394 3.33984 9.18457C3.52956 9.06812 3.72129 8.95679 3.91504 8.85059Z" fill="#8D6357"/>
<path fill-rule="evenodd" clip-rule="evenodd" d="M3.98926 8.8877C4.23819 9.02634 4.4856 9.16242 4.73145 9.2959C4.79149 9.36329 4.86571 9.41276 4.9541 9.44434C4.91336 9.47762 4.91336 9.50854 4.9541 9.53711C4.91061 9.55266 4.8735 9.57737 4.84277 9.61133C4.54679 9.74689 4.26231 9.90152 3.98926 10.0752C3.98926 9.67935 3.98926 9.28354 3.98926 8.8877Z" fill="#8C81B3"/>
<path fill-rule="evenodd" clip-rule="evenodd" d="M3.95215 9.40723C3.95215 9.5062 3.95215 9.60513 3.95215 9.7041C3.84279 9.75876 3.73146 9.81443 3.61816 9.87109C3.56908 9.90138 3.54434 9.94468 3.54395 10.001C3.47742 9.9295 3.44031 9.84293 3.43262 9.74121C3.45222 9.6959 3.47696 9.65263 3.50684 9.61133C3.6531 9.53169 3.80152 9.46367 3.95215 9.40723Z" fill="#9F6E52"/>
<path fill-rule="evenodd" clip-rule="evenodd" d="M4.9541 9.44434C5.17156 9.54683 5.38182 9.65816 5.58496 9.77832C5.46744 9.80311 5.37466 9.86493 5.30664 9.96387C5.22018 9.93952 5.15831 9.97663 5.12109 10.0752C5.08398 10.0752 5.04688 10.0752 5.00977 10.0752C4.9479 10.1123 4.89844 10.1618 4.86133 10.2236C4.82151 10.1947 4.7782 10.2009 4.73145 10.2422C4.68814 10.2855 4.64487 10.3288 4.60156 10.3721C4.5151 10.3477 4.45324 10.3848 4.41602 10.4834C4.37891 10.4834 4.3418 10.4834 4.30469 10.4834C4.24283 10.5205 4.19336 10.57 4.15625 10.6318C4.10804 10.6145 4.05238 10.6145 3.98926 10.6318C3.98926 10.4463 3.98926 10.2607 3.98926 10.0752C4.26231 9.90152 4.54679 9.74689 4.84277 9.61133C4.8735 9.57737 4.91061 9.55266 4.9541 9.53711C4.91336 9.50854 4.91336 9.47762 4.9541 9.44434Z" fill="#A196C7"/>
<path fill-rule="evenodd" clip-rule="evenodd" d="M12.4873 9.29593C12.5121 9.29593 12.5368 9.29593 12.5615 9.29593C12.9314 9.25811 13.1541 9.41891 13.2295 9.77835C12.9543 9.86552 12.6821 9.9521 12.4131 10.0381C11.8309 10.1684 11.2495 10.2798 10.6689 10.3721C10.3583 10.3892 10.049 10.4139 9.74121 10.4463C9.74121 10.4216 9.72886 10.4092 9.70411 10.4092C9.64336 10.2387 9.65575 10.0779 9.74121 9.92679C9.83213 9.93428 9.91871 9.92193 10.001 9.88968C10.5759 9.80685 11.1449 9.69552 11.708 9.55569C11.943 9.48147 12.1781 9.40726 12.4131 9.33304C12.4499 9.33942 12.4746 9.32702 12.4873 9.29593Z" fill="#F8F6FB"/>
<path fill-rule="evenodd" clip-rule="evenodd" d="M5.47363 7.58887C5.48599 7.58887 5.49838 7.58887 5.51074 7.58887C5.51074 7.60122 5.51074 7.61362 5.51074 7.62598C5.51074 8.28159 5.51074 8.93716 5.51074 9.59277C5.75811 9.6546 6.00552 9.71646 6.25293 9.77832C6.27768 9.84018 6.3024 9.90201 6.32715 9.96387C6.23968 9.96992 6.15311 9.96376 6.06738 9.94531C5.90945 9.87826 5.74865 9.82259 5.58496 9.77832C5.38182 9.65816 5.17156 9.54683 4.9541 9.44434C4.86571 9.41276 4.79149 9.36329 4.73145 9.2959C4.96201 9.39253 5.19706 9.47914 5.43652 9.55566C5.47363 8.90054 5.48599 8.24492 5.47363 7.58887Z" fill="#755C85"/>
<path fill-rule="evenodd" clip-rule="evenodd" d="M13.2295 9.77832C13.2295 10.4215 13.2295 11.0648 13.2295 11.708C12.9914 11.8144 12.744 11.9009 12.4873 11.9678C12.5115 11.311 12.4868 10.6678 12.4131 10.0381C12.6821 9.95207 12.9543 9.86549 13.2295 9.77832Z" fill="#D5CFEA"/>
<path fill-rule="evenodd" clip-rule="evenodd" d="M6.25293 9.77832C6.57125 9.85191 6.89284 9.90138 7.21777 9.92676C7.10908 9.96988 6.82456 9.98224 6.36426 9.96387C6.3519 9.96387 6.33951 9.96387 6.32715 9.96387C6.3024 9.90201 6.27768 9.84018 6.25293 9.77832Z" fill="#4E3968"/>
<path fill-rule="evenodd" clip-rule="evenodd" d="M5.58496 9.77832C5.74865 9.82259 5.90945 9.87826 6.06738 9.94531C6.15311 9.96376 6.23968 9.96992 6.32715 9.96387C6.33951 9.96387 6.3519 9.96387 6.36426 9.96387C6.36426 9.97622 6.36426 9.98862 6.36426 10.001C6.33951 10.001 6.31479 10.001 6.29004 10.001C6.1678 9.99203 6.05647 10.0229 5.95605 10.0938C5.44161 10.4066 4.92208 10.7097 4.39746 11.0029C4.31315 10.968 4.23893 10.9185 4.1748 10.8545C4.11294 10.7803 4.05112 10.7061 3.98926 10.6318C4.05238 10.6145 4.10804 10.6145 4.15625 10.6318C4.19336 10.57 4.24283 10.5205 4.30469 10.4834C4.3418 10.4834 4.37891 10.4834 4.41602 10.4834C4.45324 10.3848 4.5151 10.3477 4.60156 10.3721C4.64487 10.3288 4.68814 10.2855 4.73145 10.2422C4.7782 10.2009 4.82151 10.1947 4.86133 10.2236C4.89844 10.1618 4.9479 10.1123 5.00977 10.0752C5.04688 10.0752 5.08398 10.0752 5.12109 10.0752C5.15831 9.97663 5.22018 9.93952 5.30664 9.96387C5.37466 9.86493 5.46744 9.80311 5.58496 9.77832Z" fill="#B0A5D6"/>
<path fill-rule="evenodd" clip-rule="evenodd" d="M9.74121 9.92676C9.65575 10.0778 9.64335 10.2386 9.7041 10.4092C9.7041 10.4215 9.7041 10.4339 9.7041 10.4463C9.48145 10.4463 9.25879 10.4463 9.03613 10.4463C8.60036 10.4406 8.16744 10.4035 7.7373 10.335C7.24646 10.2772 6.76404 10.1782 6.29004 10.0381C6.29004 10.0257 6.29004 10.0133 6.29004 10.001C6.31479 10.001 6.33951 10.001 6.36426 10.001C7.22419 10.0133 8.07771 10.0009 8.9248 9.96387C9.19737 9.95908 9.4695 9.94672 9.74121 9.92676Z" fill="#F7DF49"/>
<path fill-rule="evenodd" clip-rule="evenodd" d="M6.29004 10.001C6.29004 10.0134 6.29004 10.0258 6.29004 10.0381C6.29004 10.6813 6.29004 11.3246 6.29004 11.9678C6.18906 11.9506 6.09009 11.9259 5.99316 11.8936C5.40958 11.6824 4.87769 11.3855 4.39746 11.003C4.92208 10.7097 5.44161 10.4067 5.95605 10.0938C6.05647 10.023 6.1678 9.99207 6.29004 10.001Z" fill="#C5B9E9"/>
<path fill-rule="evenodd" clip-rule="evenodd" d="M6.29004 10.0381C6.76404 10.1782 7.24646 10.2772 7.7373 10.335C7.76362 10.3685 7.80072 10.3809 7.84863 10.3721C7.84863 11.0153 7.84863 11.6585 7.84863 12.3018C7.67563 12.2846 7.50244 12.2661 7.3291 12.2461C6.96914 12.1871 6.6228 12.0944 6.29004 11.9678C6.29004 11.3246 6.29004 10.6813 6.29004 10.0381Z" fill="#FEA538"/>
<path fill-rule="evenodd" clip-rule="evenodd" d="M12.4131 10.0381C12.4868 10.6678 12.5115 11.311 12.4873 11.9678C12.4749 11.9678 12.4626 11.9678 12.4502 11.9678C12.4254 11.9678 12.4131 11.9801 12.4131 12.0049C11.8828 12.1134 11.3509 12.2124 10.8174 12.3018C10.8174 11.6585 10.8174 11.0153 10.8174 10.3721C10.7679 10.3721 10.7184 10.3721 10.6689 10.3721C11.2495 10.2797 11.8309 10.1684 12.4131 10.0381Z" fill="#D2CAEB"/>
<path fill-rule="evenodd" clip-rule="evenodd" d="M2.46777 9.48145C2.46777 10.001 2.46777 10.5205 2.46777 11.04C2.23058 11.0494 1.99555 11.037 1.7627 11.0029C1.84861 10.4231 2.08364 9.91592 2.46777 9.48145Z" fill="#7C749A"/>
<path fill-rule="evenodd" clip-rule="evenodd" d="M2.505 8.9248C2.76569 8.9621 3.02546 8.9621 3.28429 8.9248C3.28429 8.99902 3.28429 9.07324 3.28429 9.14746C3.29978 9.35787 3.34926 9.55578 3.43273 9.74121C3.44042 9.84293 3.47753 9.9295 3.54406 10.001C3.64877 10.2103 3.77247 10.4083 3.91515 10.5947C3.78724 10.6064 3.66356 10.6373 3.54406 10.6875C3.4243 10.7659 3.30061 10.8339 3.17297 10.8916C2.79955 10.4911 2.56453 10.0211 2.46789 9.48145C2.45755 9.29237 2.46991 9.10683 2.505 8.9248Z" fill="#40808E"/>
<path fill-rule="evenodd" clip-rule="evenodd" d="M3.95215 9.7041C3.96425 10.0078 3.95185 10.3047 3.91504 10.5947C3.77235 10.4083 3.64866 10.2103 3.54395 10.001C3.54434 9.94468 3.56908 9.90138 3.61816 9.87109C3.73146 9.81443 3.84279 9.75876 3.95215 9.7041Z" fill="#B87D4B"/>
<path fill-rule="evenodd" clip-rule="evenodd" d="M7.7373 10.335C8.16744 10.4035 8.60036 10.4406 9.03613 10.4463C9.03613 11.0895 9.03613 11.7328 9.03613 12.376C8.91245 12.376 8.78872 12.376 8.66504 12.376C8.38438 12.3861 8.11222 12.3613 7.84863 12.3018C7.84863 11.6585 7.84863 11.0153 7.84863 10.3721C7.80072 10.3809 7.76362 10.3685 7.7373 10.335Z" fill="#FEAB38"/>
<path fill-rule="evenodd" clip-rule="evenodd" d="M10.6689 10.3721C10.7184 10.3721 10.7679 10.3721 10.8174 10.3721C10.8174 11.0153 10.8174 11.6585 10.8174 12.3018C10.4602 12.3423 10.1015 12.367 9.74121 12.376C9.74121 11.7328 9.74121 11.0895 9.74121 10.4463C10.049 10.4139 10.3583 10.3891 10.6689 10.3721Z" fill="#CEC5EB"/>
<path fill-rule="evenodd" clip-rule="evenodd" d="M9.03613 10.4463C9.25879 10.4463 9.48145 10.4463 9.7041 10.4463C9.7041 11.0895 9.7041 11.7328 9.7041 12.376C9.48145 12.376 9.25879 12.376 9.03613 12.376C9.03613 11.7328 9.03613 11.0895 9.03613 10.4463Z" fill="#FFB038"/>
<path fill-rule="evenodd" clip-rule="evenodd" d="M9.7041 10.4092C9.72885 10.4092 9.74121 10.4215 9.74121 10.4463C9.74121 11.0895 9.74121 11.7328 9.74121 12.376C9.46356 12.4128 9.17908 12.4251 8.8877 12.4131C8.81348 12.4131 8.73926 12.4131 8.66504 12.4131C8.66504 12.4007 8.66504 12.3883 8.66504 12.376C8.78872 12.376 8.91245 12.376 9.03613 12.376C9.25879 12.376 9.48145 12.376 9.7041 12.376C9.7041 11.7328 9.7041 11.0895 9.7041 10.4463C9.7041 10.4339 9.7041 10.4215 9.7041 10.4092Z" fill="#EAB677"/>
<path fill-rule="evenodd" clip-rule="evenodd" d="M2.46779 9.48145C2.56443 10.0211 2.79945 10.4911 3.17287 10.8916C3.17287 10.904 3.17287 10.9164 3.17287 10.9287C3.17287 11.1019 3.17287 11.2751 3.17287 11.4482C2.97495 11.5596 2.77703 11.6709 2.57912 11.7822C2.50114 11.5459 2.46403 11.2985 2.46779 11.04C2.46779 10.5205 2.46779 10.001 2.46779 9.48145Z" fill="#354D6B"/>
<path fill-rule="evenodd" clip-rule="evenodd" d="M3.95215 8.8877C3.96451 8.8877 3.9769 8.8877 3.98926 8.8877C3.98926 9.28354 3.98926 9.67935 3.98926 10.0752C3.98926 10.2607 3.98926 10.4463 3.98926 10.6318C4.05112 10.7061 4.11294 10.7803 4.1748 10.8545C4.17844 10.9181 4.17844 10.9862 4.1748 11.0586C4.22616 11.1853 4.28803 11.3152 4.36035 11.4482C4.3356 11.473 4.31088 11.4977 4.28613 11.5225C4.29341 11.6032 4.31816 11.6898 4.36035 11.7822C3.91322 11.5709 3.5174 11.2863 3.17285 10.9287C3.17285 10.9164 3.17285 10.904 3.17285 10.8916C3.30049 10.8339 3.42419 10.7659 3.54395 10.6875C3.66344 10.6373 3.78712 10.6064 3.91504 10.5947C3.95185 10.3047 3.96425 10.0078 3.95215 9.7041C3.95215 9.60513 3.95215 9.5062 3.95215 9.40723C3.95215 9.23404 3.95215 9.06088 3.95215 8.8877Z" fill="#8F86A5"/>
<path fill-rule="evenodd" clip-rule="evenodd" d="M15.2334 10.7803C15.2458 11.3251 15.2334 11.8694 15.1963 12.4131C14.9703 12.6148 14.7353 12.8003 14.4912 12.9697C13.8463 13.3726 13.1659 13.7066 12.4502 13.9717C12.4502 13.3037 12.4502 12.6357 12.4502 11.9678C12.4626 11.9678 12.4749 11.9678 12.4873 11.9678C12.744 11.9009 12.9914 11.8144 13.2295 11.708C13.9361 11.4784 14.6041 11.1691 15.2334 10.7803Z" fill="#30878A"/>
<path fill-rule="evenodd" clip-rule="evenodd" d="M4.1748 10.8545C4.23893 10.9185 4.31315 10.968 4.39746 11.0029C4.87769 11.3855 5.40958 11.6823 5.99316 11.8936C5.95142 11.954 5.90191 12.0097 5.84473 12.0605C5.71863 12.1109 5.6073 12.1789 5.51074 12.2646C5.51074 12.9203 5.51074 13.5758 5.51074 14.2314C5.47393 14.2378 5.44921 14.2254 5.43652 14.1943C5.47345 13.7185 5.48584 13.2361 5.47363 12.7471C5.47979 12.5858 5.4736 12.425 5.45508 12.2646C5.24367 12.1639 5.02721 12.0774 4.80566 12.0049C4.64813 11.9457 4.4997 11.8714 4.36035 11.7822C4.31816 11.6898 4.29341 11.6032 4.28613 11.5225C4.31088 11.4977 4.3356 11.473 4.36035 11.4482C4.28803 11.3152 4.22616 11.1853 4.1748 11.0586C4.17844 10.9862 4.17844 10.9181 4.1748 10.8545Z" fill="#857EA1"/>
<path opacity="0.975" fill-rule="evenodd" clip-rule="evenodd" d="M16.2354 11.0771C16.5088 11.4767 16.6572 11.922 16.6808 12.4131C16.6436 12.4131 16.6065 12.4131 16.5694 12.4131C16.2785 12.3938 15.994 12.4185 15.7159 12.4873C15.6732 12.2962 15.667 12.0983 15.6974 11.8936C15.8868 11.6254 16.0662 11.3532 16.2354 11.0771Z" fill="#9986DC"/>
<path fill-rule="evenodd" clip-rule="evenodd" d="M3.17285 11.4482C3.17285 11.9059 3.17285 12.3636 3.17285 12.8213C3.13574 12.7965 3.09863 12.7718 3.06152 12.7471C2.83529 12.4588 2.67449 12.1371 2.5791 11.7822C2.77702 11.6709 2.97494 11.5596 3.17285 11.4482Z" fill="#2F5369"/>
<path fill-rule="evenodd" clip-rule="evenodd" d="M3.17281 10.9287C3.51735 11.2863 3.91318 11.5709 4.36031 11.7822C4.49965 11.8714 4.64809 11.9457 4.80562 12.0049C4.76966 12.0349 4.73875 12.072 4.71285 12.1162C4.70049 12.1039 4.6881 12.0915 4.67574 12.0791C4.58976 12.1281 4.51554 12.1899 4.45308 12.2646C4.44072 12.2523 4.42833 12.2399 4.41597 12.2275C4.25874 12.3298 4.1103 12.4164 3.97066 12.4873C3.7329 12.6167 3.49168 12.7652 3.24703 12.9326C3.19484 12.9151 3.1701 12.878 3.17281 12.8213C3.17281 12.3636 3.17281 11.9059 3.17281 11.4482C3.17281 11.2751 3.17281 11.1019 3.17281 10.9287Z" fill="#9B90C1"/>
<path fill-rule="evenodd" clip-rule="evenodd" d="M5.99316 11.8936C6.09009 11.9259 6.18906 11.9506 6.29004 11.9678C6.6228 12.0944 6.96914 12.1871 7.3291 12.2461C7.50244 12.2661 7.67563 12.2846 7.84863 12.3018C8.11222 12.3613 8.38438 12.3861 8.66504 12.376C8.66504 12.3883 8.66504 12.4007 8.66504 12.4131C7.82986 12.4008 7.00105 12.4132 6.17871 12.4502C5.96151 12.3738 5.73885 12.3119 5.51074 12.2646C5.6073 12.1789 5.71863 12.1109 5.84473 12.0605C5.90191 12.0097 5.95142 11.954 5.99316 11.8936Z" fill="#39687F"/>
<path fill-rule="evenodd" clip-rule="evenodd" d="M1.76281 11.0029C1.99566 11.037 2.23069 11.0494 2.46789 11.04C2.46413 11.2985 2.50124 11.5459 2.57922 11.7822C2.6746 12.1371 2.83541 12.4588 3.06164 12.7471C2.83054 12.7822 2.62026 12.8688 2.43078 13.0068C2.04659 12.5972 1.81157 12.1148 1.7257 11.5596C1.71536 11.3705 1.72773 11.185 1.76281 11.0029Z" fill="#2E5696"/>
<path fill-rule="evenodd" clip-rule="evenodd" d="M12.4502 11.9678C12.4502 12.6357 12.4502 13.3037 12.4502 13.9717C12.2382 14.0278 12.0279 14.0896 11.8193 14.1572C11.7822 14.1572 11.7451 14.1572 11.708 14.1572C11.7203 13.5199 11.7079 12.889 11.6709 12.2646C11.9187 12.178 12.1661 12.0914 12.4131 12.0049C12.4131 11.9801 12.4254 11.9678 12.4502 11.9678Z" fill="#D3CEE9"/>
<path fill-rule="evenodd" clip-rule="evenodd" d="M4.80566 12.0049C5.02721 12.0774 5.24367 12.1639 5.45508 12.2646C5.4736 12.425 5.47979 12.5858 5.47363 12.7471C4.99114 13.0006 4.52111 13.2727 4.06348 13.5635C3.75083 13.407 3.47868 13.1967 3.24707 12.9326C3.49172 12.7652 3.73294 12.6167 3.9707 12.4873C4.11035 12.4164 4.25878 12.3298 4.41602 12.2275C4.42837 12.2399 4.44077 12.2523 4.45313 12.2646C4.51558 12.1899 4.5898 12.1281 4.67578 12.0791C4.68814 12.0915 4.70053 12.1039 4.71289 12.1162C4.73879 12.072 4.76971 12.0349 4.80566 12.0049Z" fill="#ABA0D1"/>
<path fill-rule="evenodd" clip-rule="evenodd" d="M11.6709 12.2646C11.7079 12.889 11.7203 13.5199 11.708 14.1572C11.7451 14.1572 11.7822 14.1572 11.8193 14.1572C11.793 14.1908 11.7559 14.2031 11.708 14.1943C11.6957 14.1943 11.6833 14.1943 11.6709 14.1943C11.4411 14.2735 11.206 14.3353 10.9658 14.3799C10.9658 15.0231 10.9658 15.6664 10.9658 16.3096C10.9117 16.3071 10.8622 16.3194 10.8174 16.3467C10.3049 16.4819 9.78541 16.5808 9.25879 16.6436C9.25879 16.0003 9.25879 15.3571 9.25879 14.7139C9.22168 14.7139 9.18457 14.7139 9.14746 14.7139C9.54119 14.6636 9.93704 14.5956 10.335 14.5098C10.2234 14.4986 10.112 14.5048 10.001 14.5283C10.001 13.8851 10.001 13.2418 10.001 12.5986C10.5575 12.5078 11.1142 12.3965 11.6709 12.2646Z" fill="#D2CAEB"/>
<path fill-rule="evenodd" clip-rule="evenodd" d="M12.4131 12.0049C12.1661 12.0914 11.9187 12.178 11.6709 12.2646C11.1142 12.3965 10.5575 12.5078 10.001 12.5986C9.64131 12.6136 9.28258 12.6383 8.9248 12.6729C8.90651 12.5873 8.89415 12.5007 8.8877 12.4131C9.17908 12.4251 9.46356 12.4128 9.74121 12.376C10.1015 12.367 10.4602 12.3423 10.8174 12.3018C11.3509 12.2124 11.8828 12.1134 12.4131 12.0049Z" fill="#F4F2FA"/>
<path fill-rule="evenodd" clip-rule="evenodd" d="M5.51074 12.2646C5.73885 12.3119 5.96151 12.3738 6.17871 12.4502C6.39947 12.4968 6.62213 12.5339 6.84668 12.5615C6.83484 13.22 6.8472 13.8756 6.88379 14.5283C6.41736 14.4705 5.95965 14.3715 5.51074 14.2314C5.51074 13.5758 5.51074 12.9203 5.51074 12.2646Z" fill="#236568"/>
<path opacity="0.962" fill-rule="evenodd" clip-rule="evenodd" d="M16.5693 12.4131C16.6064 12.4131 16.6436 12.4131 16.6807 12.4131C16.6869 13.1306 16.6807 13.8481 16.6621 14.5654C16.5389 15.443 16.1369 16.1604 15.4561 16.7178C15.4561 16.0622 15.4561 15.4066 15.4561 14.751C16.1035 14.149 16.4994 13.4068 16.6436 12.5244C16.6272 12.4784 16.6024 12.4413 16.5693 12.4131Z" fill="#D7D1EB"/>
<path fill-rule="evenodd" clip-rule="evenodd" d="M6.17871 12.4501C7.00105 12.4131 7.82986 12.4008 8.66504 12.413C8.73926 12.413 8.81348 12.413 8.8877 12.413C8.89415 12.5006 8.90651 12.5872 8.9248 12.6728C8.22793 12.6883 7.53521 12.6512 6.84668 12.5615C6.62213 12.5339 6.39947 12.4968 6.17871 12.4501Z" fill="#10D7AE"/>
<path fill-rule="evenodd" clip-rule="evenodd" d="M10.001 12.5986C10.001 13.2418 10.001 13.8851 10.001 14.5283C9.64228 14.5675 9.28354 14.6046 8.9248 14.6396C8.9248 13.984 8.9248 13.3285 8.9248 12.6729C9.28258 12.6383 9.64131 12.6136 10.001 12.5986Z" fill="#CBC4E9"/>
<path fill-rule="evenodd" clip-rule="evenodd" d="M6.84663 12.5615C7.53516 12.6513 8.22788 12.6884 8.92475 12.6729C8.92475 13.3285 8.92475 13.984 8.92475 14.6396C8.66499 14.6396 8.40522 14.6396 8.14546 14.6396C8.00938 14.6396 7.87333 14.6396 7.73725 14.6396C7.45901 14.594 7.17449 14.5569 6.88374 14.5283C6.84715 13.8756 6.83479 13.22 6.84663 12.5615Z" fill="#266F72"/>
<path fill-rule="evenodd" clip-rule="evenodd" d="M5.47363 12.7471C5.48584 13.2361 5.47345 13.7185 5.43652 14.1943C5.33959 14.162 5.24062 14.1373 5.13965 14.1201C4.87005 13.9978 4.59793 13.8741 4.32324 13.749C4.23013 13.6963 4.14352 13.6344 4.06348 13.5635C4.52111 13.2727 4.99114 13.0006 5.47363 12.7471Z" fill="#C4B9EA"/>
<path fill-rule="evenodd" clip-rule="evenodd" d="M3.06152 12.7471C3.09863 12.7718 3.13574 12.7965 3.17285 12.8213C3.17014 12.878 3.19488 12.9151 3.24707 12.9326C3.47868 13.1967 3.75083 13.407 4.06348 13.5635C4.14352 13.6344 4.23013 13.6963 4.32324 13.749C4.2842 13.7435 4.24709 13.7497 4.21191 13.7676C4.30202 13.9168 4.37623 14.0714 4.43457 14.2314C4.31975 14.205 4.20843 14.1679 4.10059 14.1201C3.96855 14.0603 3.83247 14.0108 3.69238 13.9717C3.23365 13.7173 2.81308 13.408 2.43066 13.0439C2.43066 13.0316 2.43066 13.0192 2.43066 13.0068C2.62014 12.8688 2.83043 12.7822 3.06152 12.7471Z" fill="#867FA2"/>
<path fill-rule="evenodd" clip-rule="evenodd" d="M14.4911 12.9697C14.4911 13.4645 14.4911 13.9593 14.4911 14.4541C13.8216 15.0856 13.0547 15.568 12.1904 15.9014C12.0392 15.9435 11.8907 15.993 11.745 16.0498C11.7081 15.4378 11.6957 14.8193 11.7079 14.1943C11.7558 14.2031 11.793 14.1908 11.8193 14.1572C12.0279 14.0896 12.2382 14.0278 12.4501 13.9717C13.1659 13.7066 13.8462 13.3726 14.4911 12.9697Z" fill="#0572BC"/>
<path fill-rule="evenodd" clip-rule="evenodd" d="M1.72568 11.5596C1.81155 12.1148 2.04658 12.5972 2.43076 13.0068C2.43076 13.0192 2.43076 13.0316 2.43076 13.0439C2.43076 13.6129 2.43076 14.182 2.43076 14.751C2.43076 14.8252 2.43076 14.8994 2.43076 14.9736C2.10033 14.6596 1.88386 14.2762 1.78135 13.8232C1.7284 13.0702 1.70985 12.3156 1.72568 11.5596Z" fill="#2E3866"/>
<path fill-rule="evenodd" clip-rule="evenodd" d="M16.5693 12.4131C16.6023 12.4413 16.6271 12.4784 16.6435 12.5244C16.4993 13.4068 16.1035 14.149 15.456 14.751C15.4312 14.751 15.4065 14.751 15.3818 14.751C15.1897 14.7594 15.0042 14.7285 14.8251 14.6582C14.7294 14.6183 14.6675 14.5502 14.6396 14.4541C14.6337 14.4031 14.6399 14.3536 14.6581 14.3057C15.1769 13.7938 15.5294 13.1877 15.7157 12.4873C15.9938 12.4185 16.2784 12.3938 16.5693 12.4131Z" fill="#F7F6FC"/>
<path fill-rule="evenodd" clip-rule="evenodd" d="M4.32324 13.749C4.59793 13.8741 4.87005 13.9978 5.13965 14.1201C5.01455 14.2072 4.89087 14.2938 4.76855 14.3799C4.76855 15.0355 4.76855 15.6911 4.76855 16.3467C4.7438 16.3467 4.73145 16.3343 4.73145 16.3096C4.73145 15.9756 4.73145 15.6416 4.73145 15.3076C4.74354 14.9792 4.73119 14.6576 4.69434 14.3428C4.60472 14.3129 4.5181 14.2758 4.43457 14.2315C4.37623 14.0714 4.30202 13.9168 4.21191 13.7676C4.24709 13.7497 4.2842 13.7435 4.32324 13.749Z" fill="#6D6B93"/>
<path fill-rule="evenodd" clip-rule="evenodd" d="M2.43066 13.0439C2.81308 13.408 3.23365 13.7173 3.69238 13.9717C3.64452 13.9924 3.61359 14.0295 3.59961 14.083C3.56191 14.0409 3.53717 14.0533 3.52539 14.1201C3.43891 14.0958 3.37706 14.1329 3.33984 14.2314C3.30214 14.1894 3.2774 14.2017 3.26563 14.2686C3.17915 14.2442 3.1173 14.2813 3.08008 14.3799C3.06771 14.3675 3.05534 14.3551 3.04297 14.3428C2.98418 14.3933 2.91614 14.418 2.83887 14.417C2.84442 14.456 2.83823 14.4931 2.82031 14.5283C2.80794 14.516 2.79557 14.5036 2.7832 14.4912C2.69764 14.5667 2.62342 14.6285 2.56055 14.6768C2.54518 14.6598 2.52663 14.6474 2.50488 14.6396C2.47981 14.6805 2.45507 14.7177 2.43066 14.751C2.43066 14.182 2.43066 13.6129 2.43066 13.0439Z" fill="#7F74A6"/>
<path fill-rule="evenodd" clip-rule="evenodd" d="M3.69238 13.9717C3.83247 14.0108 3.96855 14.0603 4.10059 14.1201C4.10471 14.143 4.11706 14.1616 4.1377 14.1758C4.09057 14.2092 4.05346 14.2524 4.02637 14.3057C3.55707 14.5714 3.0932 14.8435 2.63477 15.1221C2.62208 15.0434 2.59116 15.031 2.54199 15.085C2.49251 15.0602 2.4554 15.0231 2.43066 14.9736C2.43066 14.8994 2.43066 14.8252 2.43066 14.751C2.45507 14.7177 2.47981 14.6805 2.50488 14.6396C2.52663 14.6474 2.54518 14.6598 2.56055 14.6768C2.62342 14.6285 2.69764 14.5667 2.7832 14.4912C2.79557 14.5036 2.80794 14.516 2.82031 14.5283C2.83823 14.4931 2.84442 14.456 2.83887 14.417C2.91614 14.418 2.98418 14.3933 3.04297 14.3428C3.05534 14.3551 3.06771 14.3675 3.08008 14.3799C3.1173 14.2813 3.17915 14.2442 3.26563 14.2686C3.2774 14.2017 3.30214 14.1894 3.33984 14.2314C3.37706 14.1329 3.43891 14.0958 3.52539 14.1201C3.53717 14.0533 3.56191 14.0409 3.59961 14.083C3.61359 14.0295 3.64452 13.9924 3.69238 13.9717Z" fill="#9085B7"/>
<path fill-rule="evenodd" clip-rule="evenodd" d="M5.13965 14.1201C5.24062 14.1373 5.33959 14.162 5.43652 14.1943C5.44921 14.2254 5.47393 14.2378 5.51074 14.2314C5.95965 14.3715 6.41736 14.4705 6.88379 14.5283C7.17454 14.5569 7.45906 14.594 7.7373 14.6396C7.18649 14.6274 6.64221 14.6398 6.10449 14.6768C6.07974 14.6768 6.05503 14.6768 6.03027 14.6768C5.60422 14.6012 5.18366 14.5022 4.76855 14.3799C4.89087 14.2938 5.01455 14.2072 5.13965 14.1201Z" fill="#384379"/>
<path fill-rule="evenodd" clip-rule="evenodd" d="M11.6709 14.1943C11.6709 14.8252 11.6709 15.4561 11.6709 16.0869C11.436 16.1611 11.201 16.2353 10.9658 16.3096C10.9658 15.6664 10.9658 15.0231 10.9658 14.3799C11.206 14.3353 11.4411 14.2735 11.6709 14.1943Z" fill="#D5CFEB"/>
<path fill-rule="evenodd" clip-rule="evenodd" d="M11.6709 14.1943C11.6833 14.1943 11.6957 14.1943 11.708 14.1943C11.6958 14.8193 11.7081 15.4378 11.7451 16.0498C11.7324 16.0809 11.7077 16.0933 11.6709 16.0869C11.6709 15.4561 11.6709 14.8252 11.6709 14.1943Z" fill="#8EB1DB"/>
<path fill-rule="evenodd" clip-rule="evenodd" d="M4.10059 14.1201C4.20843 14.1679 4.31975 14.205 4.43457 14.2314C4.5181 14.2758 4.60472 14.3129 4.69434 14.3428C4.12155 14.6726 3.55253 15.0128 2.9873 15.3633C3.02805 15.3919 3.02805 15.4228 2.9873 15.4561C2.87785 15.3961 2.77889 15.3219 2.69043 15.2334C2.62858 15.1963 2.5791 15.1468 2.54199 15.085C2.59116 15.031 2.62208 15.0434 2.63477 15.1221C3.0932 14.8435 3.55707 14.5714 4.02637 14.3057C4.05346 14.2524 4.09057 14.2092 4.1377 14.1758C4.11706 14.1616 4.10471 14.143 4.10059 14.1201Z" fill="#9B90C2"/>
<path fill-rule="evenodd" clip-rule="evenodd" d="M4.69434 14.3428C4.73119 14.6576 4.74354 14.9792 4.73145 15.3076C4.3788 15.4776 4.04481 15.6755 3.72949 15.9014C3.61816 15.8519 3.50684 15.8024 3.39551 15.7529C3.25287 15.6631 3.1168 15.5641 2.9873 15.4561C3.02805 15.4228 3.02805 15.3919 2.9873 15.3633C3.55253 15.0128 4.12155 14.6726 4.69434 14.3428Z" fill="#ABA0D1"/>
<path fill-rule="evenodd" clip-rule="evenodd" d="M4.76855 14.3799C5.18366 14.5022 5.60422 14.6012 6.03027 14.6768C6.04252 15.3265 6.03016 15.9697 5.99316 16.6064C5.90399 16.6084 5.81741 16.596 5.7334 16.5693C5.45834 16.5191 5.18618 16.4573 4.91699 16.3838C4.87736 16.3491 4.82789 16.3367 4.76855 16.3467C4.76855 15.6911 4.76855 15.0355 4.76855 14.3799Z" fill="#02395F"/>
<path fill-rule="evenodd" clip-rule="evenodd" d="M6.10449 14.6768C6.64221 14.6398 7.18649 14.6275 7.7373 14.6397C7.87338 14.6397 8.00943 14.6397 8.14551 14.6397C8.16814 14.6727 8.1805 14.7099 8.18262 14.751C8.18262 14.7634 8.18262 14.7758 8.18262 14.7881C7.73545 14.799 7.29014 14.7866 6.84668 14.751C6.59875 14.7311 6.35134 14.7064 6.10449 14.6768Z" fill="#0370B9"/>
<path fill-rule="evenodd" clip-rule="evenodd" d="M9.14746 14.7139C8.8265 14.74 8.50491 14.7523 8.18262 14.751C8.1805 14.7098 8.16814 14.6727 8.14551 14.6397C8.40527 14.6397 8.66504 14.6397 8.9248 14.6397C9.28354 14.6046 9.64228 14.5675 10.001 14.5283C10.112 14.5048 10.2234 14.4986 10.335 14.5098C9.93704 14.5956 9.54119 14.6636 9.14746 14.7139Z" fill="#EEEBF8"/>
<path fill-rule="evenodd" clip-rule="evenodd" d="M6.03027 14.6768C6.05503 14.6768 6.07974 14.6768 6.10449 14.6768C6.35134 14.7063 6.59875 14.7311 6.84668 14.751C6.88327 15.4037 6.89563 16.0593 6.88379 16.7178C6.57849 16.7073 6.28162 16.6702 5.99316 16.6064C6.03016 15.9697 6.04252 15.3265 6.03027 14.6768Z" fill="#00416B"/>
<path fill-rule="evenodd" clip-rule="evenodd" d="M9.14746 14.7139C9.18457 14.7139 9.22168 14.7139 9.25879 14.7139C9.25879 15.3571 9.25879 16.0003 9.25879 16.6436C9.19229 16.6386 9.13046 16.6509 9.07324 16.6807C8.777 16.7054 8.48012 16.7177 8.18262 16.7178C8.18262 16.0746 8.18262 15.4313 8.18262 14.7881C8.18262 14.7757 8.18262 14.7633 8.18262 14.751C8.50491 14.7523 8.8265 14.74 9.14746 14.7139Z" fill="#CBC4E9"/>
<path fill-rule="evenodd" clip-rule="evenodd" d="M6.84668 14.751C7.29014 14.7866 7.73545 14.799 8.18262 14.7881C8.18262 15.4313 8.18262 16.0746 8.18262 16.7178C7.79345 16.7547 7.39761 16.7671 6.99512 16.7549C6.96881 16.7213 6.9317 16.709 6.88379 16.7178C6.89563 16.0593 6.88327 15.4037 6.84668 14.751Z" fill="#004A7A"/>
<path fill-rule="evenodd" clip-rule="evenodd" d="M15.3818 14.7881C15.3818 14.7757 15.3818 14.7633 15.3818 14.751C15.4066 14.751 15.4313 14.751 15.4561 14.751C15.4561 15.4066 15.4561 16.0622 15.4561 16.7178C15.4313 16.0746 15.4066 15.4313 15.3818 14.7881Z" fill="#9085B7"/>
<path opacity="0.994" fill-rule="evenodd" clip-rule="evenodd" d="M15.3818 14.7881C15.4066 15.4313 15.4313 16.0746 15.4561 16.7178C14.6493 17.4493 13.7216 17.9812 12.6729 18.3135C12.6729 17.6579 12.6729 17.0023 12.6729 16.3467C13.4615 16.0575 14.2037 15.6802 14.8994 15.2148C15.0674 15.0776 15.2282 14.9353 15.3818 14.7881Z" fill="#594A8E"/>
<path opacity="0.989" fill-rule="evenodd" clip-rule="evenodd" d="M2.69053 15.2334C2.77899 15.3219 2.87795 15.3961 2.9874 15.4561C3.11689 15.5641 3.25296 15.6631 3.3956 15.7529C3.3956 16.2354 3.3956 16.7178 3.3956 17.2002C2.86044 16.6589 2.62541 16.0033 2.69053 15.2334Z" fill="#43386B"/>
<path fill-rule="evenodd" clip-rule="evenodd" d="M4.73145 15.3076C4.73145 15.6416 4.73145 15.9756 4.73145 16.3096C4.37427 16.2235 4.04028 16.0875 3.72949 15.9014C4.04481 15.6755 4.37879 15.4776 4.73145 15.3076Z" fill="#C3B8E9"/>
<path fill-rule="evenodd" clip-rule="evenodd" d="M14.6396 14.4541C14.6676 14.5503 14.7295 14.6183 14.8252 14.6582C15.0042 14.7285 15.1898 14.7594 15.3818 14.751C15.3818 14.7633 15.3818 14.7757 15.3818 14.7881C15.2282 14.9353 15.0674 15.0776 14.8994 15.2148C14.2037 15.6802 13.4615 16.0575 12.6729 16.3467C12.6729 16.3219 12.6605 16.3096 12.6357 16.3096C12.6059 16.0448 12.4575 15.9087 12.1904 15.9014C13.0547 15.568 13.8217 15.0856 14.4912 14.4541C14.5268 14.4373 14.5577 14.4126 14.584 14.3799C14.5943 14.4139 14.6129 14.4386 14.6396 14.4541Z" fill="#806DC6"/>
<path fill-rule="evenodd" clip-rule="evenodd" d="M12.1904 15.9014C12.4575 15.9087 12.6059 16.0448 12.6357 16.3096C12.6357 16.3219 12.6357 16.3343 12.6357 16.3467C12.3746 16.4395 12.1149 16.5261 11.8564 16.6064C11.7302 16.6195 11.6064 16.6442 11.4854 16.6807C11.233 16.6287 11.0104 16.5174 10.8174 16.3467C10.8622 16.3194 10.9117 16.3071 10.9658 16.3096C11.201 16.2353 11.436 16.1611 11.6709 16.0869C11.7077 16.0933 11.7324 16.0809 11.7451 16.0498C11.8908 15.993 12.0392 15.9435 12.1904 15.9014Z" fill="#FBFAFD"/>
<path fill-rule="evenodd" clip-rule="evenodd" d="M3.39551 15.7529C3.50684 15.8024 3.61816 15.8519 3.72949 15.9014C4.04028 16.0875 4.37427 16.2235 4.73145 16.3096C4.73145 16.3343 4.7438 16.3467 4.76855 16.3467C4.82789 16.3367 4.87736 16.3491 4.91699 16.3838C4.86393 16.3809 4.81442 16.3932 4.76855 16.4209C4.31523 16.6908 3.85752 16.9506 3.39551 17.2002C3.39551 16.7178 3.39551 16.2354 3.39551 15.7529Z" fill="#665B8E"/>
<path opacity="0.995" fill-rule="evenodd" clip-rule="evenodd" d="M12.6357 16.3467C12.6592 17.0234 12.6345 17.6914 12.5615 18.3506C12.3762 18.4412 12.1783 18.503 11.9678 18.5361C11.9552 17.8858 11.9181 17.2426 11.8564 16.6064C12.1149 16.5261 12.3746 16.4395 12.6357 16.3467Z" fill="#D5CFEB"/>
<path fill-rule="evenodd" clip-rule="evenodd" d="M12.6357 16.3096C12.6605 16.3096 12.6729 16.3219 12.6729 16.3467C12.6729 17.0023 12.6729 17.6579 12.6729 18.3135C12.6465 18.347 12.6094 18.3594 12.5615 18.3506C12.6345 17.6914 12.6592 17.0234 12.6357 16.3467C12.6357 16.3343 12.6357 16.3219 12.6357 16.3096Z" fill="#ADA5CD"/>
<path fill-rule="evenodd" clip-rule="evenodd" d="M4.91699 16.3838C5.18618 16.4573 5.45834 16.5192 5.7334 16.5694C5.7334 17.2374 5.7334 17.9053 5.7334 18.5733C5.72104 18.5733 5.70865 18.5733 5.69629 18.5733C5.69629 18.0785 5.69629 17.5837 5.69629 17.0889C5.70831 16.9384 5.69596 16.79 5.65918 16.6436C5.06417 16.9797 4.47042 17.3137 3.87793 17.6456C3.77521 17.5867 3.67625 17.5186 3.58105 17.4415C3.49608 17.3755 3.43423 17.2951 3.39551 17.2003C3.85752 16.9506 4.31523 16.6909 4.76855 16.421C4.81442 16.3933 4.86393 16.3809 4.91699 16.3838Z" fill="#7C71A3"/>
<path fill-rule="evenodd" clip-rule="evenodd" d="M10.8174 16.3467C11.0104 16.5174 11.233 16.6287 11.4854 16.6807C11.0714 16.7828 10.6508 16.8694 10.2236 16.9404C9.86471 16.9627 9.50601 16.9874 9.14746 17.0146C9.1118 16.9061 9.08708 16.7947 9.07324 16.6807C9.13046 16.6509 9.19229 16.6386 9.25879 16.6436C9.78541 16.5808 10.3049 16.4819 10.8174 16.3467Z" fill="#F4F1FA"/>
<path opacity="0.994" fill-rule="evenodd" clip-rule="evenodd" d="M11.8564 16.6064C11.9181 17.2426 11.9552 17.8858 11.9678 18.5361C11.4003 18.7066 10.8189 18.8303 10.2236 18.9072C10.2236 18.2516 10.2236 17.596 10.2236 16.9404C10.6508 16.8694 11.0714 16.7828 11.4854 16.6807C11.6064 16.6442 11.7302 16.6195 11.8564 16.6064Z" fill="#D2CAEB"/>
<path opacity="0.996" fill-rule="evenodd" clip-rule="evenodd" d="M5.7334 16.5693C5.81741 16.596 5.90399 16.6084 5.99316 16.6064C6.28162 16.6702 6.57849 16.7073 6.88379 16.7178C6.9317 16.709 6.96881 16.7213 6.99512 16.7549C6.7968 16.7487 6.5989 16.7549 6.40137 16.7734C6.79146 16.8742 7.18727 16.9422 7.58887 16.9775C7.58887 17.6332 7.58887 18.2887 7.58887 18.9443C6.95174 18.8911 6.33323 18.7674 5.7334 18.5732C5.7334 17.9053 5.7334 17.2373 5.7334 16.5693Z" fill="#43386C"/>
<path fill-rule="evenodd" clip-rule="evenodd" d="M9.07324 16.6807C9.08708 16.7947 9.1118 16.9061 9.14746 17.0146C8.627 17.0237 8.10747 17.0113 7.58887 16.9775C7.18727 16.9422 6.79146 16.8742 6.40137 16.7734C6.5989 16.7549 6.7968 16.7487 6.99512 16.7549C7.39761 16.7671 7.79345 16.7547 8.18262 16.7178C8.48012 16.7177 8.777 16.7054 9.07324 16.6807Z" fill="#7763BC"/>
<path fill-rule="evenodd" clip-rule="evenodd" d="M5.69629 17.0889C5.20886 17.3512 4.72644 17.6233 4.24902 17.9053C4.10459 17.8473 3.98091 17.7607 3.87793 17.6455C4.47042 17.3136 5.06417 16.9796 5.65918 16.6436C5.69596 16.79 5.70831 16.9384 5.69629 17.0889Z" fill="#8B80B2"/>
<path opacity="0.994" fill-rule="evenodd" clip-rule="evenodd" d="M7.58887 16.9775C8.10747 17.0113 8.627 17.0237 9.14746 17.0146C9.14746 17.6703 9.14746 18.3258 9.14746 18.9814C8.68979 18.9814 8.23208 18.9814 7.77441 18.9814C7.72176 18.9462 7.65993 18.9338 7.58887 18.9443C7.58887 18.2887 7.58887 17.6332 7.58887 16.9775Z" fill="#493C74"/>
<path opacity="0.993" fill-rule="evenodd" clip-rule="evenodd" d="M10.2236 16.9404C10.2236 17.596 10.2236 18.2516 10.2236 18.9072C10.0192 18.9211 9.82129 18.9459 9.62988 18.9814C9.46909 18.9814 9.30826 18.9814 9.14746 18.9814C9.14746 18.3258 9.14746 17.6703 9.14746 17.0146C9.50601 16.9874 9.86471 16.9627 10.2236 16.9404Z" fill="#CCC4E9"/>
<path opacity="0.982" fill-rule="evenodd" clip-rule="evenodd" d="M5.69629 17.0889C5.69629 17.5836 5.69629 18.0785 5.69629 18.5732C5.17791 18.4191 4.69549 18.1964 4.24902 17.9053C4.72644 17.6233 5.20886 17.3512 5.69629 17.0889Z" fill="#C4B9EA"/>
</g>
<defs>
<clipPath id="clip0_394_15571">
<rect width="19" height="19" fill="white"/>
</clipPath>
</defs>
</svg>
