<svg width="19" height="19" viewBox="0 0 19 19" fill="none" xmlns="http://www.w3.org/2000/svg">
<g clip-path="url(#clip0_394_16469)">
<path opacity="0.999" fill-rule="evenodd" clip-rule="evenodd" d="M9.18457 -0.0185547C9.38247 -0.0185547 9.58042 -0.0185547 9.77832 -0.0185547C10.227 0.199654 10.66 0.447049 11.0771 0.723633C10.6168 1.61316 10.122 2.48523 9.59277 3.33984C9.73587 3.34642 9.87195 3.36498 10.001 3.39551C9.1213 3.32598 8.3482 3.57337 7.68164 4.1377C7.58876 4.2491 7.51454 4.37278 7.45898 4.50879C7.42893 4.65196 7.43512 4.788 7.47754 4.91699C7.49524 5.0763 7.56946 5.20003 7.7002 5.28809C7.81709 5.40235 7.95317 5.48896 8.1084 5.54785C8.172 5.59379 8.24622 5.61855 8.33105 5.62207C8.33105 5.63443 8.33105 5.64682 8.33105 5.65918C8.29409 5.65599 8.26318 5.66838 8.23828 5.69629C7.81271 6.43603 7.39835 7.17822 6.99512 7.92285C6.44453 7.59187 5.88788 7.27025 5.3252 6.95801C5.27083 6.9121 5.20897 6.87499 5.13965 6.84668C6.42864 4.57796 7.72747 2.3143 9.03613 0.0556641C9.09161 0.0375291 9.14112 0.0127895 9.18457 -0.0185547Z" fill="#EAE3F6"/>
<path opacity="0.999" fill-rule="evenodd" clip-rule="evenodd" d="M9.03613 0.0556641C7.72747 2.3143 6.42864 4.57796 5.13965 6.84668C4.58906 6.5157 4.03242 6.19407 3.46973 5.88184C4.22175 4.58802 4.96394 3.2892 5.69629 1.98535C6.79714 1.3235 7.91042 0.680271 9.03613 0.0556641Z" fill="#E5DDF5"/>
<path opacity="0.999" fill-rule="evenodd" clip-rule="evenodd" d="M11.0771 0.723633C11.5466 0.982352 12.0166 1.24212 12.4873 1.50293C12.045 2.25144 11.612 3.00599 11.1885 3.7666C11.1761 3.7666 11.1637 3.7666 11.1514 3.7666C11.0251 3.65399 10.8767 3.57977 10.7061 3.54395C10.5319 3.45561 10.3464 3.4185 10.1494 3.43262C10.1098 3.39794 10.0603 3.38557 10.001 3.39551C9.87195 3.36498 9.73587 3.34642 9.59277 3.33984C10.122 2.48523 10.6168 1.61316 11.0771 0.723633Z" fill="#EFE9F8"/>
<path fill-rule="evenodd" clip-rule="evenodd" d="M12.4873 1.50293C14.0573 2.41168 15.6282 3.32086 17.2002 4.23047C17.4847 4.47194 17.6579 4.77498 17.7197 5.13965C17.7198 5.32861 17.6889 5.32861 17.627 5.13965C17.4397 4.95559 17.2232 4.91228 16.9775 5.00977C16.3705 5.34074 15.7767 5.69328 15.1963 6.06738C13.6242 6.95218 12.0656 7.8552 10.5205 8.77637C10.294 8.88347 10.0713 9.00099 9.85254 9.12891C9.69275 9.28447 9.55667 9.45146 9.44434 9.62988C9.34919 9.3244 9.15125 9.1141 8.85059 8.99902C8.69732 8.8913 8.53653 8.79233 8.36816 8.70215C8.87352 7.76599 9.39921 6.83826 9.94531 5.91895C9.99767 5.83916 10.0286 5.75255 10.0381 5.65918C10.5382 5.55453 10.965 5.31948 11.3184 4.9541C11.4046 4.84352 11.4603 4.71983 11.4854 4.58301C11.5213 4.50482 11.5337 4.41821 11.5225 4.32324C11.5314 4.23425 11.5067 4.16004 11.4482 4.10059C11.4394 4.02993 11.4023 3.98043 11.3369 3.95215C11.2905 3.89077 11.241 3.82891 11.1885 3.7666C11.612 3.00599 12.045 2.25144 12.4873 1.50293Z" fill="#F2EDF9"/>
<path opacity="0.998" fill-rule="evenodd" clip-rule="evenodd" d="M5.69629 1.98535C4.96394 3.2892 4.22175 4.58802 3.46973 5.88184C2.97075 5.59955 2.47596 5.30887 1.98535 5.00977C1.88639 4.99741 1.78744 4.98501 1.68848 4.97266C1.73545 4.96119 1.77875 4.94264 1.81836 4.91699C1.99772 4.60776 2.17708 4.29849 2.35645 3.98926C2.33949 3.95964 2.31475 3.94729 2.28223 3.95215C3.40784 3.27792 4.54586 2.62232 5.69629 1.98535Z" fill="#E1D8F4"/>
<path fill-rule="evenodd" clip-rule="evenodd" d="M10.0009 3.39547C10.0602 3.38554 10.1097 3.3979 10.1493 3.43258C10.0822 3.43226 10.0204 3.45082 9.96376 3.48825C9.13915 3.97293 8.31035 4.44916 7.47743 4.91696C7.43502 4.78797 7.42882 4.65192 7.45888 4.50876C7.51443 4.37275 7.58865 4.24906 7.68153 4.13766C8.34809 3.57334 9.12119 3.32594 10.0009 3.39547Z" fill="#F13F50"/>
<path fill-rule="evenodd" clip-rule="evenodd" d="M10.1494 3.43261C10.3464 3.41849 10.5319 3.4556 10.7061 3.54393C9.71149 4.13412 8.70953 4.71551 7.7002 5.28807C7.56946 5.20001 7.49524 5.07629 7.47754 4.91698C8.31046 4.44918 9.13926 3.97295 9.96387 3.48827C10.0205 3.45084 10.0823 3.43229 10.1494 3.43261Z" fill="#E03544"/>
<path fill-rule="evenodd" clip-rule="evenodd" d="M10.7061 3.54395C10.8767 3.57977 11.0251 3.65399 11.1514 3.7666C11.0883 3.76066 11.0265 3.76682 10.9658 3.78516C10.0195 4.3356 9.07324 4.88608 8.12695 5.43652C8.10903 5.4717 8.10287 5.50881 8.1084 5.54785C7.95317 5.48896 7.81709 5.40235 7.7002 5.28809C8.70953 4.71553 9.71149 4.13413 10.7061 3.54395Z" fill="#D32F3C"/>
<path fill-rule="evenodd" clip-rule="evenodd" d="M11.1514 3.76659C11.1637 3.76659 11.1761 3.76659 11.1885 3.76659C11.241 3.8289 11.2905 3.89076 11.3369 3.95214C10.4175 4.46758 9.50216 4.99331 8.59083 5.52928C8.51104 5.58165 8.42443 5.61259 8.33106 5.62206C8.24623 5.61853 8.17201 5.59378 8.10841 5.54784C8.10288 5.5088 8.10904 5.47169 8.12696 5.43651C9.07325 4.88607 10.0195 4.33559 10.9658 3.78514C11.0265 3.76681 11.0883 3.76065 11.1514 3.76659Z" fill="#C92A36"/>
<path opacity="0.998" fill-rule="evenodd" clip-rule="evenodd" d="M2.28234 3.9522C2.31486 3.94734 2.3396 3.9597 2.35656 3.98931C2.17719 4.29854 1.99783 4.60781 1.81847 4.91704C1.77886 4.94269 1.73556 4.96124 1.68859 4.97271C1.78755 4.98507 1.8865 4.99746 1.98546 5.00982C2.47607 5.30892 2.97086 5.5996 3.46984 5.88189C4.03253 6.19413 4.58917 6.51575 5.13976 6.84673C5.20908 6.87505 5.27094 6.91216 5.32531 6.95806C4.69445 6.95806 4.06359 6.95806 3.43273 6.95806C3.20887 6.86113 2.98622 6.86113 2.76476 6.95806C2.2576 6.95806 1.75044 6.95806 1.24327 6.95806C1.25539 7.28644 1.24301 7.60807 1.20617 7.9229C1.18895 6.94377 1.2075 5.96657 1.26183 4.99126C1.43348 4.47945 1.77365 4.13307 2.28234 3.9522Z" fill="#DBD1F2"/>
<path fill-rule="evenodd" clip-rule="evenodd" d="M11.3369 3.95215C11.4023 3.98043 11.4394 4.02993 11.4482 4.10059C10.5773 4.59177 9.71141 5.09274 8.85059 5.60352C8.7708 5.65588 8.68419 5.68683 8.59082 5.69629C8.50321 5.68983 8.41663 5.67747 8.33105 5.65918C8.33105 5.64682 8.33105 5.63443 8.33105 5.62207C8.42442 5.61261 8.51104 5.58166 8.59082 5.5293C9.50215 4.99333 10.4175 4.4676 11.3369 3.95215Z" fill="#BB2631"/>
<path fill-rule="evenodd" clip-rule="evenodd" d="M11.4482 4.10059C11.5067 4.16004 11.5314 4.23425 11.5225 4.32324C10.702 4.77683 9.88564 5.2407 9.07324 5.71484C9.01261 5.73318 8.95074 5.73934 8.8877 5.7334C8.78063 5.74475 8.68166 5.7324 8.59082 5.69629C8.68419 5.68683 8.7708 5.65588 8.85059 5.60352C9.71141 5.09274 10.5773 4.59177 11.4482 4.10059Z" fill="#AE242E"/>
<path fill-rule="evenodd" clip-rule="evenodd" d="M11.5225 4.32324C11.5337 4.41821 11.5213 4.50482 11.4854 4.58301C10.7883 4.9377 10.108 5.32115 9.44434 5.7334C9.25879 5.78287 9.07324 5.78287 8.8877 5.7334C8.95074 5.73934 9.01261 5.73318 9.07324 5.71484C9.88564 5.2407 10.702 4.77683 11.5225 4.32324Z" fill="#A5252E"/>
<path fill-rule="evenodd" clip-rule="evenodd" d="M11.4854 4.58301C11.4603 4.71983 11.4046 4.84352 11.3184 4.9541C10.965 5.31948 10.5382 5.55453 10.0381 5.65918C9.84211 5.69837 9.64421 5.72312 9.44434 5.7334C10.108 5.32115 10.7883 4.9377 11.4854 4.58301Z" fill="#942028"/>
<path opacity="0.998" fill-rule="evenodd" clip-rule="evenodd" d="M17.7197 5.13962C17.7567 5.64022 17.769 6.14736 17.7568 6.6611C17.7202 6.47036 17.7078 6.27242 17.7197 6.06735C16.8786 6.06735 16.0374 6.06735 15.1963 6.06735C15.7767 5.69325 16.3705 5.34071 16.9775 5.00973C17.2232 4.91225 17.4397 4.95555 17.627 5.13962C17.6889 5.32858 17.7198 5.32858 17.7197 5.13962Z" fill="#EEE8F8"/>
<path fill-rule="evenodd" clip-rule="evenodd" d="M8.33105 5.65918C8.41663 5.67748 8.50321 5.68983 8.59082 5.69629C8.68166 5.7324 8.78063 5.74476 8.8877 5.7334C9.07324 5.78287 9.25879 5.78287 9.44434 5.7334C9.64421 5.72312 9.84211 5.69837 10.0381 5.65918C10.0286 5.75255 9.99767 5.83916 9.94531 5.91895C9.39921 6.83826 8.87352 7.76599 8.36816 8.70215C7.91651 8.433 7.45884 8.17323 6.99512 7.92285C7.39835 7.17822 7.81271 6.43603 8.23828 5.69629C8.26318 5.66838 8.29409 5.65599 8.33105 5.65918Z" fill="#EFE9F8"/>
<path opacity="0.999" fill-rule="evenodd" clip-rule="evenodd" d="M15.1963 6.06738C16.0374 6.06738 16.8786 6.06738 17.7197 6.06738C17.7078 6.27245 17.7202 6.47039 17.7568 6.66113C17.7568 7.5394 17.7568 8.41763 17.7568 9.2959C17.72 9.03064 17.7077 8.75852 17.7197 8.47949C17.2555 8.4917 16.7977 8.47931 16.3467 8.44238C16.3467 8.40527 16.3467 8.36816 16.3467 8.33105C16.3937 8.24181 16.4185 8.14284 16.4209 8.03418C16.4679 7.8067 16.4679 7.58404 16.4209 7.36621C16.4245 7.29003 16.3998 7.22816 16.3467 7.18066C16.3378 7.11001 16.3007 7.0605 16.2354 7.03223C16.1532 6.90784 16.0357 6.85837 15.8828 6.88379C15.5613 6.92012 15.3015 7.06856 15.1035 7.3291C14.9864 7.4768 14.8937 7.63763 14.8252 7.81152C14.7476 7.90756 14.6981 8.01889 14.6768 8.14551C14.6297 8.23476 14.605 8.33373 14.6025 8.44238C14.5669 8.50788 14.5545 8.5821 14.5654 8.66504C14.5319 8.69135 14.5195 8.72846 14.5283 8.77637C13.1924 8.77637 11.8564 8.77637 10.5205 8.77637C12.0656 7.8552 13.6242 6.95218 15.1963 6.06738Z" fill="#E9E2F6"/>
<path opacity="0.998" fill-rule="evenodd" clip-rule="evenodd" d="M2.76465 6.95801C2.75228 6.98276 2.73991 7.00747 2.72754 7.03223C2.64138 7.08054 2.5919 7.15476 2.5791 7.25488C2.54555 7.28119 2.53319 7.3183 2.54199 7.36621C2.495 7.58404 2.495 7.8067 2.54199 8.03418C2.54845 8.1218 2.56082 8.20837 2.5791 8.29395C2.62646 8.44839 2.68831 8.59683 2.76465 8.73926C2.80176 8.81348 2.83887 8.8877 2.87598 8.96191C2.33824 8.99888 1.79397 9.01123 1.24316 8.99902C1.25533 9.40151 1.24296 9.79736 1.20605 10.1865C1.20605 9.43198 1.20605 8.6774 1.20605 7.92285C1.2429 7.60802 1.25528 7.28639 1.24316 6.95801C1.75033 6.95801 2.25749 6.95801 2.76465 6.95801Z" fill="#D6CAF0"/>
<path fill-rule="evenodd" clip-rule="evenodd" d="M3.43262 6.95795C3.76211 7.1638 3.99713 7.44831 4.1377 7.81147C4.13547 7.83162 4.12311 7.84397 4.10059 7.84858C3.63443 7.5848 3.17674 7.31268 2.72754 7.03217C2.73991 7.00742 2.75228 6.9827 2.76465 6.95795C2.98611 6.86102 3.20876 6.86102 3.43262 6.95795Z" fill="#2D2649"/>
<path fill-rule="evenodd" clip-rule="evenodd" d="M3.43262 6.95801C4.06348 6.95801 4.69434 6.95801 5.3252 6.95801C5.88789 7.27025 6.44453 7.59187 6.99512 7.92285C7.45884 8.17323 7.91651 8.43299 8.36816 8.70215C8.53653 8.79232 8.69732 8.8913 8.85059 8.99902C7.36621 8.99902 5.88184 8.99902 4.39746 8.99902C4.40937 8.80624 4.39698 8.62069 4.36035 8.44238C4.35701 8.30456 4.3199 8.18084 4.24902 8.07129C4.24134 7.96957 4.20423 7.883 4.1377 7.81152C3.99713 7.44837 3.76211 7.16385 3.43262 6.95801Z" fill="#D6CAF0"/>
<path fill-rule="evenodd" clip-rule="evenodd" d="M16.2354 7.03223C15.7861 7.31274 15.3285 7.58486 14.8623 7.84863C14.8398 7.84403 14.8274 7.83168 14.8252 7.81153C14.8937 7.63763 14.9864 7.4768 15.1035 7.3291C15.3015 7.06856 15.5613 6.92012 15.8828 6.88379C16.0357 6.85837 16.1532 6.90784 16.2354 7.03223Z" fill="#2D2649"/>
<path fill-rule="evenodd" clip-rule="evenodd" d="M2.72754 7.03223C3.17674 7.31274 3.63443 7.58486 4.10059 7.84863C4.12311 7.84403 4.13547 7.83167 4.1377 7.81152C4.20423 7.883 4.24134 7.96957 4.24902 8.07129C4.219 8.1435 4.219 8.20537 4.24902 8.25684C3.68388 7.93124 3.12724 7.59725 2.5791 7.25488C2.5919 7.15476 2.64138 7.08054 2.72754 7.03223Z" fill="#372E59"/>
<path fill-rule="evenodd" clip-rule="evenodd" d="M16.2353 7.03223C16.3007 7.0605 16.3378 7.11001 16.3467 7.18066C16.3263 7.25607 16.2769 7.29318 16.1982 7.29199C16.2045 7.34105 16.1922 7.38436 16.1611 7.42188C15.6787 7.7002 15.1963 7.97852 14.7138 8.25684C14.681 8.22622 14.6686 8.18911 14.6767 8.14551C14.6981 8.01889 14.7475 7.90756 14.8252 7.81152C14.8274 7.83167 14.8398 7.84403 14.8623 7.84863C15.3284 7.58486 15.7861 7.31274 16.2353 7.03223Z" fill="#372E59"/>
<path fill-rule="evenodd" clip-rule="evenodd" d="M2.57913 7.25488C3.12727 7.59725 3.68391 7.93124 4.24906 8.25684C4.21903 8.20537 4.21903 8.1435 4.24906 8.07129C4.31993 8.18084 4.35704 8.30456 4.36038 8.44238C4.36632 8.50543 4.36016 8.56729 4.34183 8.62793C3.79439 8.30782 3.24394 7.99239 2.69046 7.68164C2.64098 7.65689 2.64098 7.63217 2.69046 7.60742C2.57394 7.57031 2.52446 7.4899 2.54202 7.36621C2.53322 7.3183 2.54559 7.28119 2.57913 7.25488Z" fill="#413668"/>
<path fill-rule="evenodd" clip-rule="evenodd" d="M16.3467 7.18066C16.3998 7.22816 16.4245 7.29003 16.4209 7.36621C16.4384 7.4899 16.389 7.57031 16.2724 7.60742C16.3219 7.63217 16.3219 7.65689 16.2724 7.68164C15.719 7.99239 15.1685 8.30782 14.6211 8.62793C14.6027 8.56729 14.5966 8.50543 14.6025 8.44238C14.6049 8.33373 14.6297 8.23476 14.6767 8.14551C14.6686 8.18911 14.681 8.22622 14.7139 8.25684C15.1963 7.97852 15.6787 7.7002 16.1611 7.42188C16.1922 7.38436 16.2045 7.34105 16.1982 7.29199C16.2769 7.29318 16.3263 7.25607 16.3467 7.18066Z" fill="#413668"/>
<path fill-rule="evenodd" clip-rule="evenodd" d="M2.54208 7.36621C2.52452 7.4899 2.57399 7.57031 2.69051 7.60742C2.64104 7.63217 2.64104 7.65689 2.69051 7.68164C3.24399 7.99239 3.79444 8.30782 4.34188 8.62793C4.36021 8.56729 4.36637 8.50543 4.36044 8.44238C4.39706 8.62069 4.40946 8.80624 4.39755 8.99902C4.40393 9.03584 4.39153 9.06055 4.36044 9.07324C3.74928 8.7367 3.14317 8.39036 2.54208 8.03418C2.49509 7.8067 2.49509 7.58404 2.54208 7.36621Z" fill="#4F4280"/>
<path fill-rule="evenodd" clip-rule="evenodd" d="M16.421 7.36621C16.468 7.58404 16.468 7.8067 16.421 8.03418C15.8199 8.39036 15.2138 8.7367 14.6026 9.07324C14.5662 8.94477 14.5539 8.80869 14.5655 8.66504C14.5546 8.5821 14.567 8.50788 14.6026 8.44238C14.5967 8.50543 14.6029 8.56729 14.6212 8.62793C15.1686 8.30782 15.7191 7.99239 16.2726 7.68164C16.322 7.65689 16.322 7.63217 16.2726 7.60742C16.3891 7.57031 16.4386 7.4899 16.421 7.36621Z" fill="#4F4280"/>
<path fill-rule="evenodd" clip-rule="evenodd" d="M2.54199 8.03418C3.14309 8.39036 3.7492 8.7367 4.36035 9.07324C4.35556 9.13692 4.34321 9.19878 4.32324 9.25879C4.2842 9.26432 4.24709 9.25816 4.21191 9.24023C3.68011 8.90042 3.13584 8.58499 2.5791 8.29395C2.56082 8.20837 2.54845 8.12179 2.54199 8.03418Z" fill="#5A4B90"/>
<path fill-rule="evenodd" clip-rule="evenodd" d="M16.4209 8.03418C16.4185 8.14284 16.3937 8.24181 16.3467 8.33105C15.7784 8.63906 15.2094 8.9483 14.6396 9.25879C14.6197 9.19878 14.6073 9.13692 14.6025 9.07324C15.2137 8.7367 15.8198 8.39036 16.4209 8.03418Z" fill="#5A4B91"/>
<path fill-rule="evenodd" clip-rule="evenodd" d="M16.3467 8.44238C16.7977 8.47931 17.2555 8.4917 17.7197 8.47949C17.7077 8.75852 17.72 9.03064 17.7568 9.2959C17.7568 9.4938 17.7568 9.69174 17.7568 9.88965C17.7201 10.1425 17.7077 10.4022 17.7197 10.6689C16.6064 10.6689 15.4932 10.6689 14.3799 10.6689C14.3304 10.6318 14.2809 10.5947 14.2314 10.5576C13.9662 10.4848 13.7187 10.5219 13.4893 10.6689C13.18 10.6689 12.8708 10.6689 12.5615 10.6689C12.5615 10.6318 12.5615 10.5947 12.5615 10.5576C12.559 10.5035 12.5714 10.454 12.5986 10.4092C12.6329 10.2253 12.6577 10.0397 12.6729 9.85254C12.6727 9.77105 12.6603 9.69683 12.6357 9.62988C12.6322 9.54505 12.6075 9.47083 12.5615 9.40723C12.5138 9.29764 12.4395 9.21107 12.3389 9.14746C12.1317 9.04901 11.9214 9.05521 11.708 9.16602C11.4635 9.3424 11.2656 9.55889 11.1143 9.81543C11.0107 9.96075 10.9365 10.1215 10.8916 10.2979C10.8362 10.4123 10.7991 10.536 10.7803 10.6689C10.3473 10.6689 9.9144 10.6689 9.48145 10.6689C9.49276 10.3195 9.48041 9.97314 9.44434 9.62988C9.55667 9.45146 9.69275 9.28447 9.85254 9.12891C10.0713 9.00099 10.294 8.88346 10.5205 8.77637C11.8564 8.77637 13.1924 8.77637 14.5283 8.77637C14.5195 8.72846 14.5319 8.69135 14.5654 8.66504C14.5537 8.80869 14.5661 8.94477 14.6025 9.07324C14.6073 9.13692 14.6197 9.19878 14.6396 9.25879C14.6746 9.36641 14.7365 9.45298 14.8252 9.51855C15.0707 9.66881 15.3181 9.66261 15.5674 9.5C15.8436 9.29957 16.0539 9.04597 16.1982 8.73926C16.2489 8.63788 16.2984 8.5389 16.3467 8.44238Z" fill="#E4DCF5"/>
<path fill-rule="evenodd" clip-rule="evenodd" d="M2.76465 8.73926C3.22911 8.98908 3.68679 9.24884 4.1377 9.51855C3.98325 9.62469 3.81009 9.6556 3.61816 9.61133C3.30579 9.46575 3.0584 9.24929 2.87598 8.96191C2.83887 8.8877 2.80176 8.81348 2.76465 8.73926Z" fill="#705EB3"/>
<path fill-rule="evenodd" clip-rule="evenodd" d="M16.1982 8.73926C16.0539 9.04597 15.8436 9.29957 15.5674 9.5C15.3181 9.66261 15.0707 9.66881 14.8252 9.51855C15.276 9.24955 15.7337 8.98978 16.1982 8.73926Z" fill="#715EB3"/>
<path fill-rule="evenodd" clip-rule="evenodd" d="M2.5791 8.29395C3.13584 8.58499 3.68011 8.90042 4.21191 9.24023C4.24709 9.25816 4.2842 9.26432 4.32324 9.25879C4.28825 9.36641 4.22639 9.45298 4.1377 9.51855C3.68679 9.24884 3.22911 8.98908 2.76465 8.73926C2.68831 8.59683 2.62646 8.44839 2.5791 8.29395Z" fill="#63529F"/>
<path fill-rule="evenodd" clip-rule="evenodd" d="M16.3467 8.33105C16.3467 8.36816 16.3467 8.40527 16.3467 8.44238C16.2984 8.5389 16.2489 8.63788 16.1982 8.73926C15.7337 8.98978 15.276 9.24955 14.8252 9.51855C14.7365 9.45298 14.6746 9.36641 14.6396 9.25879C15.2094 8.94829 15.7784 8.63906 16.3467 8.33105Z" fill="#63539F"/>
<path opacity="0.999" fill-rule="evenodd" clip-rule="evenodd" d="M2.87598 8.96191C3.0584 9.24929 3.30579 9.46575 3.61816 9.61133C3.81009 9.6556 3.98325 9.62469 4.1377 9.51855C4.22639 9.45298 4.28825 9.36641 4.32324 9.25879C4.34321 9.19878 4.35556 9.13692 4.36035 9.07324C4.39145 9.06055 4.40384 9.03584 4.39746 8.99902C5.88184 8.99902 7.36621 8.99902 8.85059 8.99902C9.15125 9.1141 9.34919 9.3244 9.44434 9.62988C9.48041 9.97314 9.49276 10.3195 9.48145 10.6689C9.48145 10.8421 9.48145 11.0153 9.48145 11.1885C9.05424 11.2006 8.63365 11.1883 8.21973 11.1514C8.23149 10.9954 8.2191 10.847 8.18262 10.7061C8.17364 10.5584 8.13653 10.4223 8.07129 10.2979C8.02639 10.1215 7.95217 9.96075 7.84863 9.81543C7.66383 9.47603 7.39171 9.23482 7.03223 9.0918C6.9209 9.06704 6.80957 9.06704 6.69824 9.0918C6.66425 9.10211 6.63954 9.12067 6.62402 9.14746C6.52335 9.21107 6.44913 9.29764 6.40137 9.40723C6.35543 9.47083 6.33067 9.54505 6.32715 9.62988C6.28529 9.92609 6.31004 10.223 6.40137 10.5205C6.44872 10.675 6.51058 10.8234 6.58691 10.9658C6.61167 11.0153 6.63638 11.0648 6.66113 11.1143C4.86793 11.1883 3.06195 11.213 1.24316 11.1885C1.25528 11.5169 1.2429 11.8385 1.20605 12.1533C1.20605 11.4977 1.20605 10.8421 1.20605 10.1865C1.24296 9.79736 1.25533 9.40151 1.24316 8.99902C1.79397 9.01123 2.33824 8.99888 2.87598 8.96191Z" fill="#D1C4EE"/>
<path fill-rule="evenodd" clip-rule="evenodd" d="M12.3389 9.14746C12.4396 9.21107 12.5138 9.29764 12.5615 9.40723C12.5697 9.45083 12.5573 9.48794 12.5244 9.51855C12.0049 9.81543 11.4854 10.1123 10.9658 10.4092C10.9132 10.3904 10.8885 10.3533 10.8916 10.2979C10.9365 10.1215 11.0107 9.96075 11.1143 9.81543C11.1732 9.85703 11.2351 9.85083 11.2998 9.79688C11.6625 9.60016 12.0088 9.3837 12.3389 9.14746Z" fill="#372D59"/>
<path fill-rule="evenodd" clip-rule="evenodd" d="M7.84863 9.81544C7.78967 9.85704 7.7278 9.85084 7.66309 9.79688C7.30045 9.60017 6.95407 9.38371 6.62402 9.14747C6.63954 9.12068 6.66425 9.10212 6.69824 9.09181C6.80957 9.06705 6.9209 9.06705 7.03223 9.09181C7.39171 9.23483 7.66383 9.47604 7.84863 9.81544Z" fill="#2B2345"/>
<path fill-rule="evenodd" clip-rule="evenodd" d="M12.3389 9.14747C12.0088 9.38371 11.6624 9.60017 11.2998 9.79689C11.2351 9.85084 11.1732 9.85704 11.1143 9.81544C11.2656 9.5589 11.4635 9.34241 11.708 9.16603C11.9214 9.05522 12.1317 9.04902 12.3389 9.14747Z" fill="#2B2446"/>
<path fill-rule="evenodd" clip-rule="evenodd" d="M6.624 9.14746C6.95405 9.3837 7.30043 9.60016 7.66306 9.79688C7.72778 9.85083 7.78964 9.85703 7.84861 9.81543C7.95214 9.96075 8.02636 10.1215 8.07127 10.2979C8.07442 10.3533 8.04971 10.3904 7.99705 10.4092C7.47752 10.1123 6.95798 9.81543 6.43845 9.51855C6.40557 9.48794 6.39322 9.45083 6.40134 9.40723C6.4491 9.29764 6.52332 9.21107 6.624 9.14746Z" fill="#372D59"/>
<path fill-rule="evenodd" clip-rule="evenodd" d="M12.6359 9.62988C12.6604 9.69683 12.6728 9.77105 12.673 9.85254C12.6578 10.0397 12.633 10.2253 12.5987 10.4092C12.5054 10.4186 12.4188 10.4496 12.339 10.502C11.8419 10.8123 11.3347 11.103 10.8175 11.374C10.7359 11.1524 10.7235 10.9298 10.7804 10.7061C10.769 10.796 10.7813 10.8826 10.8175 10.9658C11.4144 10.6024 12.0143 10.2437 12.6173 9.88965C12.6357 9.80393 12.6419 9.71735 12.6359 9.62988Z" fill="#554787"/>
<path fill-rule="evenodd" clip-rule="evenodd" d="M6.40145 9.40723C6.39333 9.45083 6.40568 9.48794 6.43856 9.51855C6.95809 9.81543 7.47762 10.1123 7.99716 10.4092C8.04981 10.3904 8.07453 10.3533 8.07137 10.2979C8.13661 10.4223 8.17372 10.5584 8.1827 10.7061C8.19447 10.8201 8.18211 10.9314 8.14559 11.04C7.54086 10.7011 6.94091 10.3547 6.34579 10.001C6.32731 9.87788 6.32111 9.7542 6.32723 9.62988C6.33076 9.54505 6.35551 9.47083 6.40145 9.40723Z" fill="#44396F"/>
<path fill-rule="evenodd" clip-rule="evenodd" d="M6.3271 9.62988C6.32098 9.7542 6.32718 9.87788 6.34566 10.001C6.94078 10.3547 7.54073 10.7011 8.14546 11.04C8.18198 10.9314 8.19434 10.8201 8.18257 10.7061C8.21905 10.847 8.23144 10.9954 8.21968 11.1514C8.18747 11.2608 8.15036 11.3721 8.10835 11.4854C7.59624 11.1895 7.08907 10.8864 6.58687 10.5762C6.52549 10.5536 6.46363 10.5351 6.40132 10.5205C6.31 10.223 6.28524 9.92609 6.3271 9.62988Z" fill="#57498C"/>
<path fill-rule="evenodd" clip-rule="evenodd" d="M12.5615 9.40723C12.6074 9.47083 12.6322 9.54505 12.6357 9.62988C12.6418 9.71735 12.6356 9.80393 12.6172 9.88965C12.0142 10.2437 11.4142 10.6024 10.8173 10.9658C10.7812 10.8826 10.7688 10.796 10.7802 10.7061C10.7802 10.6937 10.7802 10.6813 10.7802 10.6689C10.7991 10.536 10.8362 10.4123 10.8916 10.2979C10.8884 10.3533 10.9131 10.3904 10.9658 10.4092C11.4853 10.1123 12.0048 9.81543 12.5244 9.51855C12.5573 9.48794 12.5696 9.45083 12.5615 9.40723Z" fill="#43386D"/>
<path fill-rule="evenodd" clip-rule="evenodd" d="M17.7568 9.88965C17.7568 10.4586 17.7568 11.0277 17.7568 11.5967C17.7199 12.0106 17.7076 12.4312 17.7197 12.8584C17.3115 12.8584 16.9033 12.8584 16.4951 12.8584C16.5063 12.7634 16.4939 12.6768 16.458 12.5986C16.4488 12.4742 16.4117 12.3628 16.3467 12.2646C16.3374 12.184 16.3003 12.1221 16.2354 12.0791C16.1043 11.9491 15.9435 11.8996 15.7529 11.9307C15.3324 11.9307 14.9118 11.9307 14.4912 11.9307C14.5036 11.8564 14.516 11.7822 14.5283 11.708C14.5753 11.4805 14.5753 11.2579 14.5283 11.04C14.5082 10.9134 14.4587 10.8021 14.3799 10.7061C14.3799 10.6937 14.3799 10.6813 14.3799 10.6689C15.4932 10.6689 16.6064 10.6689 17.7197 10.6689C17.7077 10.4022 17.7201 10.1425 17.7568 9.88965Z" fill="#E1D7F3"/>
<path fill-rule="evenodd" clip-rule="evenodd" d="M14.2313 10.5576C14.2808 10.5947 14.3303 10.6318 14.3798 10.6689C14.3798 10.6813 14.3798 10.6937 14.3798 10.7061C14.3861 10.7551 14.3737 10.7984 14.3427 10.8359C13.8635 11.128 13.3749 11.3939 12.8768 11.6338C12.8596 11.6117 12.8534 11.587 12.8583 11.5596C12.8798 11.4545 12.9292 11.3679 13.0067 11.2998C13.0043 11.3161 13.0105 11.3285 13.0253 11.3369C13.3995 11.1157 13.7768 10.8993 14.1571 10.6875C14.2062 10.6572 14.2309 10.6139 14.2313 10.5576Z" fill="#332A52"/>
<path fill-rule="evenodd" clip-rule="evenodd" d="M6.40137 10.5205C6.46367 10.5351 6.52554 10.5536 6.58691 10.5762C7.08912 10.8864 7.59629 11.1895 8.1084 11.4854C8.07723 11.5727 8.02772 11.6469 7.95996 11.708C7.68235 11.5506 7.39783 11.4022 7.10645 11.2627C7.04418 11.1754 6.9576 11.1259 6.84668 11.1143C6.78801 11.0168 6.7014 10.9674 6.58691 10.9658C6.51058 10.8234 6.44872 10.675 6.40137 10.5205Z" fill="#63529F"/>
<path fill-rule="evenodd" clip-rule="evenodd" d="M14.2315 10.5577C14.2311 10.614 14.2063 10.6573 14.1572 10.6875C13.777 10.8993 13.3997 11.1158 13.0254 11.337C13.0106 11.3285 13.0044 11.3161 13.0069 11.2998C13.0302 11.2037 13.0735 11.1172 13.1367 11.0401C13.2618 10.9212 13.3794 10.7975 13.4893 10.669C13.7188 10.522 13.9662 10.4848 14.2315 10.5577Z" fill="#2B2446"/>
<path fill-rule="evenodd" clip-rule="evenodd" d="M6.58691 10.9658C6.7014 10.9674 6.78801 11.0168 6.84668 11.1143C6.9576 11.1259 7.04418 11.1754 7.10645 11.2627C7.39783 11.4022 7.68235 11.5506 7.95996 11.708C7.91914 11.7473 7.86964 11.7782 7.81152 11.8008C7.67544 11.8255 7.5394 11.8255 7.40332 11.8008C7.07683 11.6535 6.82942 11.4247 6.66113 11.1143C6.63638 11.0648 6.61167 11.0153 6.58691 10.9658Z" fill="#705DB2"/>
<path fill-rule="evenodd" clip-rule="evenodd" d="M14.3799 10.7061C14.4587 10.8021 14.5082 10.9134 14.5283 11.04C14.5372 11.113 14.5248 11.1811 14.4912 11.2441C13.8951 11.604 13.2889 11.9442 12.6729 12.2646C12.6836 12.0119 12.7454 11.7768 12.8584 11.5596C12.8535 11.587 12.8597 11.6117 12.877 11.6338C13.375 11.3939 13.8636 11.128 14.3428 10.8359C14.3738 10.7984 14.3862 10.7551 14.3799 10.7061Z" fill="#403567"/>
<path fill-rule="evenodd" clip-rule="evenodd" d="M12.5986 10.4092C12.5714 10.454 12.559 10.5035 12.5615 10.5576C12.5075 10.6941 12.4456 10.8302 12.376 10.9658C12.2615 10.9674 12.1749 11.0168 12.1162 11.1143C12.0563 11.1385 11.9944 11.1571 11.9307 11.1699C11.7151 11.3336 11.4801 11.4697 11.2256 11.5781C11.1795 11.6692 11.1052 11.7125 11.0029 11.708C10.8956 11.6246 10.8337 11.5133 10.8174 11.374C11.3346 11.103 11.8418 10.8123 12.3389 10.502C12.4187 10.4496 12.5053 10.4186 12.5986 10.4092Z" fill="#62529E"/>
<path fill-rule="evenodd" clip-rule="evenodd" d="M14.5283 11.04C14.5753 11.2579 14.5753 11.4805 14.5283 11.708C13.9114 12.0413 13.2929 12.3752 12.6729 12.71C12.6729 12.5615 12.6729 12.4131 12.6729 12.2646C13.2889 11.9442 13.8951 11.604 14.4912 11.2441C14.5248 11.1811 14.5372 11.113 14.5283 11.04Z" fill="#504280"/>
<path opacity="0.999" fill-rule="evenodd" clip-rule="evenodd" d="M6.66113 11.1143C6.82942 11.4247 7.07683 11.6535 7.40332 11.8008C7.5394 11.8255 7.67544 11.8255 7.81152 11.8008C7.86964 11.7782 7.91914 11.7473 7.95996 11.708C8.02772 11.6469 8.07723 11.5727 8.1084 11.4854C8.15041 11.3721 8.18752 11.2608 8.21973 11.1514C8.63365 11.1883 9.05424 11.2006 9.48145 11.1885C9.48145 11.7451 9.48145 12.3018 9.48145 12.8584C9.48145 12.945 9.48145 13.0316 9.48145 13.1182C7.73731 13.1182 5.99316 13.1182 4.24902 13.1182C4.19366 12.9579 4.11944 12.8095 4.02637 12.6729C3.83811 12.3176 3.55362 12.0764 3.17285 11.9492C3.07865 11.9197 2.99206 11.9259 2.91309 11.9678C2.72472 12.0202 2.61339 12.1439 2.5791 12.3389C2.54442 12.3785 2.53205 12.428 2.54199 12.4873C2.50536 12.6656 2.49299 12.8512 2.50488 13.0439C2.09851 13.1173 1.67794 13.1421 1.24316 13.1182C1.25509 13.3232 1.24272 13.5212 1.20605 13.7119C1.20605 13.1924 1.20605 12.6729 1.20605 12.1533C1.2429 11.8385 1.25528 11.5169 1.24316 11.1885C3.06195 11.213 4.86793 11.1883 6.66113 11.1143Z" fill="#CCBEEC"/>
<path fill-rule="evenodd" clip-rule="evenodd" d="M4.02634 12.6729C3.96748 12.639 3.91182 12.639 3.85935 12.6729C3.55296 12.4794 3.23753 12.3001 2.91306 12.1348C2.90431 12.0809 2.90431 12.0253 2.91306 11.9678C2.99203 11.9259 3.07862 11.9197 3.17282 11.9492C3.55359 12.0764 3.83808 12.3176 4.02634 12.6729Z" fill="#2B2445"/>
<path fill-rule="evenodd" clip-rule="evenodd" d="M14.3799 12.1904C14.2234 12.6004 13.9637 12.9282 13.6006 13.1738C13.4228 13.2554 13.2372 13.2802 13.0439 13.248C12.9513 13.1987 12.8771 13.1306 12.8213 13.0439C13.3603 12.788 13.8799 12.5035 14.3799 12.1904Z" fill="#6C5AAC"/>
<path fill-rule="evenodd" clip-rule="evenodd" d="M12.5615 10.5576C12.5615 10.5947 12.5615 10.6318 12.5615 10.6689C12.8708 10.6689 13.18 10.6689 13.4893 10.6689C13.3793 10.7975 13.2618 10.9212 13.1367 11.04C13.0734 11.1171 13.0301 11.2037 13.0068 11.2998C12.9294 11.3679 12.8799 11.4545 12.8584 11.5596C12.7454 11.7768 12.6836 12.0119 12.6729 12.2646C12.6729 12.4131 12.6729 12.5615 12.6729 12.71C12.6729 12.7347 12.6729 12.7594 12.6729 12.7842C11.6221 12.8581 10.5583 12.8829 9.48145 12.8584C9.48145 12.3018 9.48145 11.7451 9.48145 11.1885C9.48145 11.0153 9.48145 10.8421 9.48145 10.6689C9.9144 10.6689 10.3473 10.6689 10.7803 10.6689C10.7803 10.6813 10.7803 10.6937 10.7803 10.7061C10.7234 10.9298 10.7358 11.1524 10.8174 11.374C10.8337 11.5133 10.8956 11.6246 11.0029 11.708C11.2286 11.8494 11.4637 11.8556 11.708 11.7266C11.9894 11.5255 12.212 11.2719 12.376 10.9658C12.4456 10.8302 12.5075 10.6941 12.5615 10.5576Z" fill="#DFD6F3"/>
<path fill-rule="evenodd" clip-rule="evenodd" d="M12.376 10.9658C12.212 11.2719 11.9894 11.5255 11.708 11.7266C11.4637 11.8556 11.2286 11.8494 11.0029 11.708C11.1052 11.7125 11.1795 11.6692 11.2256 11.5781C11.4801 11.4697 11.7151 11.3336 11.9307 11.1699C11.9944 11.1571 12.0563 11.1385 12.1162 11.1143C12.1749 11.0168 12.2615 10.9674 12.376 10.9658Z" fill="#705DB3"/>
<path fill-rule="evenodd" clip-rule="evenodd" d="M2.579 12.3389C3.13029 12.6859 3.69312 13.0199 4.26748 13.3408C4.2844 13.2947 4.26585 13.2637 4.21182 13.248C4.23972 13.2231 4.25212 13.1922 4.24893 13.1553C4.31361 13.2664 4.35072 13.3901 4.36025 13.5264C4.36619 13.5894 4.36003 13.6513 4.3417 13.7119C3.76324 13.3577 3.17567 13.0175 2.579 12.6914C2.5727 12.6331 2.56033 12.5651 2.54189 12.4873C2.53196 12.428 2.54433 12.3785 2.579 12.3389Z" fill="#403668"/>
<path fill-rule="evenodd" clip-rule="evenodd" d="M2.91309 11.9678C2.90434 12.0253 2.90434 12.0809 2.91309 12.1348C3.23756 12.3001 3.55299 12.4794 3.85938 12.6729C3.91185 12.639 3.96751 12.639 4.02637 12.6729C4.11944 12.8095 4.19366 12.9579 4.24902 13.1182C4.24902 13.1305 4.24902 13.1429 4.24902 13.1553C4.25222 13.1922 4.23982 13.2231 4.21191 13.248C4.26595 13.2637 4.2845 13.2947 4.26758 13.3408C3.69322 13.0199 3.13039 12.6859 2.5791 12.3389C2.61339 12.1439 2.72472 12.0202 2.91309 11.9678Z" fill="#372D59"/>
<path fill-rule="evenodd" clip-rule="evenodd" d="M14.5283 11.708C14.516 11.7822 14.5036 11.8564 14.4912 11.9307C14.4475 12.0115 14.4104 12.0981 14.3799 12.1904C13.8799 12.5035 13.3603 12.788 12.8213 13.0439C12.7718 12.9574 12.7223 12.8708 12.6729 12.7842C12.6729 12.7594 12.6729 12.7347 12.6729 12.71C13.2929 12.3752 13.9114 12.0413 14.5283 11.708Z" fill="#5F4F99"/>
<path fill-rule="evenodd" clip-rule="evenodd" d="M17.7568 11.5967C17.7739 12.4892 17.7554 13.3799 17.7012 14.2686C17.6478 14.3837 17.5797 14.4888 17.4971 14.584C17.241 14.7677 16.9689 14.9223 16.6807 15.0479C15.3447 15.0479 14.0088 15.0479 12.6729 15.0479C12.6844 14.9286 12.672 14.8173 12.6357 14.7139C12.6208 14.6031 12.5837 14.5041 12.5244 14.417C12.5013 14.3333 12.4518 14.2715 12.376 14.2314C12.1208 14.1214 11.8734 14.1399 11.6338 14.2871C11.4905 14.3872 11.3668 14.5047 11.2627 14.6396C10.6689 14.6396 10.0752 14.6396 9.48145 14.6396C9.48145 14.1325 9.48145 13.6253 9.48145 13.1182C9.48145 13.0316 9.48145 12.945 9.48145 12.8584C10.5583 12.8829 11.6221 12.8581 12.6729 12.7842C12.7223 12.8708 12.7718 12.9574 12.8213 13.0439C12.8771 13.1306 12.9513 13.1987 13.0439 13.248C13.2372 13.2802 13.4228 13.2554 13.6006 13.1738C13.9637 12.9282 14.2234 12.6004 14.3799 12.1904C14.4104 12.0981 14.4475 12.0115 14.4912 11.9307C14.9118 11.9307 15.3324 11.9307 15.7529 11.9307C15.319 12.1296 15.0097 12.4512 14.8252 12.8955C14.7587 12.967 14.7215 13.0536 14.7139 13.1553C14.643 13.2648 14.6059 13.3885 14.6025 13.5264C14.5531 13.7367 14.5531 13.9469 14.6025 14.1572C14.616 14.2967 14.6654 14.4204 14.751 14.5283C14.9693 14.7389 15.2166 14.7698 15.4932 14.6211C15.8404 14.3788 16.1002 14.0634 16.2725 13.6748C16.3394 13.4935 16.3889 13.3079 16.4209 13.1182C16.4533 12.9598 16.4657 12.7989 16.458 12.6357C16.458 12.6234 16.458 12.611 16.458 12.5986C16.4939 12.6768 16.5063 12.7634 16.4951 12.8584C16.9033 12.8584 17.3115 12.8584 17.7197 12.8584C17.7076 12.4312 17.7199 12.0106 17.7568 11.5967Z" fill="#DBD1F2"/>
<path fill-rule="evenodd" clip-rule="evenodd" d="M16.3467 12.2646C16.4117 12.3628 16.4488 12.4742 16.458 12.5986C16.458 12.611 16.458 12.6234 16.458 12.6357C15.8436 12.9894 15.2313 13.3481 14.6211 13.7119C14.6027 13.6513 14.5966 13.5894 14.6025 13.5264C14.6059 13.3885 14.643 13.2648 14.7139 13.1553C14.7107 13.1922 14.7231 13.2231 14.751 13.248C14.6969 13.2637 14.6784 13.2947 14.6953 13.3408C15.1592 13.0749 15.623 12.8089 16.0869 12.543C16.1777 12.4495 16.2642 12.3567 16.3467 12.2646Z" fill="#403668"/>
<path fill-rule="evenodd" clip-rule="evenodd" d="M16.2353 12.0791C16.3002 12.1221 16.3374 12.184 16.3466 12.2646C16.2642 12.3567 16.1776 12.4495 16.0869 12.543C15.623 12.8089 15.1591 13.0749 14.6953 13.3408C14.6783 13.2947 14.6969 13.2637 14.7509 13.248C14.723 13.2231 14.7106 13.1922 14.7138 13.1553C14.7215 13.0536 14.7586 12.967 14.8251 12.8955C14.8339 12.9177 14.8524 12.93 14.8808 12.9326C15.2991 12.6709 15.7258 12.4235 16.1611 12.1904C16.2023 12.162 16.2271 12.1249 16.2353 12.0791Z" fill="#372E59"/>
<path fill-rule="evenodd" clip-rule="evenodd" d="M15.7529 11.9306C15.9435 11.8996 16.1043 11.9491 16.2354 12.0791C16.2272 12.1249 16.2024 12.162 16.1611 12.1904C15.7259 12.4235 15.2991 12.6709 14.8809 12.9326C14.8525 12.93 14.8339 12.9176 14.8252 12.8955C15.0097 12.4512 15.319 12.1296 15.7529 11.9306Z" fill="#2F274A"/>
<path fill-rule="evenodd" clip-rule="evenodd" d="M2.54197 12.4873C2.5604 12.5651 2.57277 12.6331 2.57908 12.6914C3.17575 13.0175 3.76331 13.3577 4.34178 13.7119C4.36011 13.6513 4.36627 13.5894 4.36033 13.5264C4.4098 13.7367 4.4098 13.9469 4.36033 14.1572C3.74817 13.8203 3.14205 13.4739 2.54197 13.1182C2.54834 13.0814 2.53597 13.0566 2.50486 13.0439C2.49297 12.8512 2.50534 12.6656 2.54197 12.4873Z" fill="#4F4280"/>
<path fill-rule="evenodd" clip-rule="evenodd" d="M16.458 12.6357C16.4656 12.7989 16.4533 12.9598 16.4209 13.1182C15.8208 13.4739 15.2147 13.8203 14.6025 14.1572C14.5531 13.9469 14.5531 13.7367 14.6025 13.5264C14.5966 13.5894 14.6028 13.6513 14.6211 13.7119C15.2313 13.3481 15.8437 12.9894 16.458 12.6357Z" fill="#4F4280"/>
<path opacity="0.997" fill-rule="evenodd" clip-rule="evenodd" d="M2.50477 13.0439C2.53587 13.0566 2.54825 13.0814 2.54188 13.1182C2.54834 13.2058 2.56071 13.2924 2.57899 13.3779C2.64084 13.5264 2.70268 13.6748 2.76453 13.8232C2.92656 14.1533 3.16158 14.4193 3.46961 14.6211C3.72441 14.7637 3.95942 14.7452 4.17469 14.5654C4.23748 14.5022 4.28695 14.4279 4.32313 14.3428C4.34309 14.2828 4.35545 14.2209 4.36024 14.1572C4.4097 13.9469 4.4097 13.7367 4.36024 13.5264C4.3507 13.3901 4.31359 13.2664 4.24891 13.1553C4.24891 13.1429 4.24891 13.1305 4.24891 13.1182C5.99305 13.1182 7.73719 13.1182 9.48133 13.1182C9.48133 13.6253 9.48133 14.1325 9.48133 14.6396C9.48133 15.5426 9.48133 16.4457 9.48133 17.3486C9.46638 17.7469 9.48493 18.1427 9.537 18.5361C9.68996 18.77 9.90642 18.8566 10.1864 18.7959C10.0727 18.8775 9.94898 18.9394 9.81532 18.9814C9.59266 18.9814 9.37 18.9814 9.14735 18.9814C9.03966 18.9404 8.92833 18.8971 8.81336 18.8516C6.3549 17.4275 3.89952 15.9988 1.44715 14.5654C1.24593 14.3175 1.16552 14.0329 1.20594 13.7119C1.24261 13.5212 1.25498 13.3232 1.24305 13.1182C1.67782 13.1421 2.09839 13.1173 2.50477 13.0439Z" fill="#C8B9EB"/>
<path fill-rule="evenodd" clip-rule="evenodd" d="M2.54199 13.1182C3.14207 13.4739 3.7482 13.8203 4.36035 14.1572C4.35556 14.2209 4.34321 14.2828 4.32324 14.3428C3.73588 14.0306 3.15451 13.7089 2.5791 13.3779C2.56082 13.2924 2.54845 13.2058 2.54199 13.1182Z" fill="#5A4B90"/>
<path fill-rule="evenodd" clip-rule="evenodd" d="M16.2725 13.6748C16.1002 14.0634 15.8404 14.3788 15.4932 14.6211C15.2166 14.7698 14.9693 14.7389 14.751 14.5283C15.2493 14.2279 15.7565 13.9434 16.2725 13.6748Z" fill="#6D5BAD"/>
<path fill-rule="evenodd" clip-rule="evenodd" d="M2.76465 13.8232C3.23628 14.0714 3.70633 14.3188 4.1748 14.5654C3.95953 14.7452 3.72452 14.7637 3.46973 14.6211C3.1617 14.4193 2.92667 14.1533 2.76465 13.8232Z" fill="#6F5DB1"/>
<path fill-rule="evenodd" clip-rule="evenodd" d="M2.5791 13.3779C3.15451 13.7089 3.73588 14.0306 4.32324 14.3428C4.28706 14.4279 4.23759 14.5022 4.1748 14.5654C3.70633 14.3188 3.23628 14.0714 2.76465 13.8232C2.7028 13.6748 2.64095 13.5264 2.5791 13.3779Z" fill="#63529F"/>
<path fill-rule="evenodd" clip-rule="evenodd" d="M16.4209 13.1182C16.3889 13.3079 16.3394 13.4935 16.2725 13.6748C15.7565 13.9434 15.2493 14.2279 14.751 14.5283C14.6654 14.4204 14.616 14.2967 14.6025 14.1572C15.2147 13.8203 15.8208 13.4739 16.4209 13.1182Z" fill="#5F4F99"/>
<path fill-rule="evenodd" clip-rule="evenodd" d="M7.84863 14.8995C7.85349 14.9269 7.8473 14.9516 7.83008 14.9737C7.41642 14.7206 7.00202 14.4733 6.58691 14.2315C6.8079 14.1327 7.03056 14.1389 7.25488 14.25C7.52552 14.403 7.72346 14.6195 7.84863 14.8995Z" fill="#2B2446"/>
<path fill-rule="evenodd" clip-rule="evenodd" d="M12.3759 14.2314C11.9608 14.4732 11.5464 14.7205 11.1327 14.9736C11.1155 14.9516 11.1093 14.9268 11.1142 14.8994C11.1538 14.8078 11.2033 14.7212 11.2626 14.6396C11.3667 14.5046 11.4904 14.3871 11.6337 14.2871C11.8733 14.1399 12.1207 14.1213 12.3759 14.2314Z" fill="#2B2446"/>
<path fill-rule="evenodd" clip-rule="evenodd" d="M12.5245 14.417C12.5837 14.5041 12.6208 14.6031 12.6358 14.7139C12.6358 14.7262 12.6358 14.7386 12.6358 14.751C12.0433 15.0829 11.4495 15.4169 10.8545 15.7529C10.8201 15.7088 10.8077 15.6593 10.8174 15.6045C10.8086 15.5566 10.821 15.5195 10.8545 15.4932C10.8568 15.5133 10.8691 15.5257 10.8916 15.5303C11.4605 15.2212 12.0171 14.8934 12.5616 14.5469C12.5305 14.5094 12.5181 14.4661 12.5245 14.417Z" fill="#3F3566"/>
<path fill-rule="evenodd" clip-rule="evenodd" d="M6.58691 14.2314C7.00202 14.4732 7.41642 14.7206 7.83008 14.9736C7.8473 14.9516 7.85349 14.9268 7.84863 14.8994C7.9748 15.0778 8.06142 15.2757 8.1084 15.4932C8.10617 15.5133 8.09381 15.5257 8.07129 15.5303C7.50244 15.2212 6.9458 14.8934 6.40137 14.5469C6.43243 14.5094 6.44479 14.4661 6.43848 14.417C6.46163 14.3333 6.5111 14.2715 6.58691 14.2314Z" fill="#372D59"/>
<path fill-rule="evenodd" clip-rule="evenodd" d="M12.376 14.2314C12.4518 14.2715 12.5013 14.3333 12.5244 14.417C12.5181 14.4661 12.5305 14.5094 12.5615 14.5469C12.0171 14.8934 11.4605 15.2212 10.8916 15.5303C10.8691 15.5257 10.8567 15.5133 10.8545 15.4932C10.9015 15.2757 10.9881 15.0778 11.1143 14.8994C11.1094 14.9268 11.1156 14.9516 11.1328 14.9736C11.5465 14.7206 11.9609 14.4732 12.376 14.2314Z" fill="#372E59"/>
<path fill-rule="evenodd" clip-rule="evenodd" d="M6.43855 14.417C6.44486 14.4661 6.4325 14.5094 6.40144 14.5469C6.94587 14.8934 7.50251 15.2212 8.07136 15.5303C8.09389 15.5257 8.10625 15.5133 8.10847 15.4932C8.16562 15.5799 8.19034 15.6789 8.18269 15.79C8.19446 15.904 8.1821 16.0154 8.14558 16.124C7.55788 15.7745 6.96413 15.4343 6.36433 15.1035C6.32886 14.9776 6.3165 14.8477 6.32722 14.7139C6.32407 14.597 6.36118 14.498 6.43855 14.417Z" fill="#453A70"/>
<path fill-rule="evenodd" clip-rule="evenodd" d="M12.6357 14.751C12.6462 14.8726 12.6338 14.9901 12.5985 15.1035C11.9987 15.4343 11.405 15.7745 10.8173 16.124C10.7808 16.0154 10.7684 15.904 10.7802 15.79C10.7696 15.719 10.782 15.6572 10.8173 15.6045C10.8076 15.6593 10.8199 15.7088 10.8544 15.7529C11.4494 15.4169 12.0432 15.0829 12.6357 14.751Z" fill="#473B73"/>
<path fill-rule="evenodd" clip-rule="evenodd" d="M9.48145 14.6396C10.0752 14.6396 10.6689 14.6396 11.2627 14.6396C11.2034 14.7212 11.1539 14.8078 11.1143 14.8994C10.9881 15.0778 10.9015 15.2757 10.8545 15.4932C10.8209 15.5195 10.8086 15.5566 10.8174 15.6045C10.7821 15.6572 10.7697 15.719 10.7803 15.79C10.7232 16.0444 10.7479 16.2918 10.8545 16.5322C10.8604 16.5936 10.8851 16.643 10.9287 16.6807C11.0095 16.8356 11.1394 16.9099 11.3184 16.9033C11.4998 16.8923 11.6668 16.8367 11.8193 16.7363C12.1076 16.4992 12.3179 16.2085 12.4502 15.8643C12.4939 15.7834 12.531 15.6968 12.5615 15.6045C12.6089 15.421 12.6461 15.2354 12.6729 15.0479C14.0088 15.0479 15.3447 15.0479 16.6807 15.0479C15.3799 15.8283 14.0687 16.5952 12.7471 17.3486C11.6677 17.3479 10.5791 17.3479 9.48145 17.3486C9.48145 16.4457 9.48145 15.5426 9.48145 14.6396Z" fill="#D7CBF0"/>
<path fill-rule="evenodd" clip-rule="evenodd" d="M6.3271 14.7139C6.31638 14.8477 6.32874 14.9776 6.36421 15.1035C6.96401 15.4343 7.55776 15.7745 8.14546 16.124C8.18198 16.0154 8.19434 15.904 8.18257 15.79C8.23968 16.0444 8.21497 16.2918 8.10835 16.5322C7.62166 16.2622 7.13924 15.9839 6.66109 15.6973C6.57373 15.6658 6.48712 15.6349 6.40132 15.6045C6.31 15.3069 6.28524 15.0101 6.3271 14.7139Z" fill="#57498C"/>
<path fill-rule="evenodd" clip-rule="evenodd" d="M12.6359 14.7139C12.6721 14.8173 12.6845 14.9286 12.673 15.0479C12.6462 15.2354 12.6091 15.421 12.5616 15.6045C12.4758 15.6349 12.3892 15.6658 12.3019 15.6973C11.823 15.985 11.3405 16.2634 10.8546 16.5322C10.748 16.2918 10.7233 16.0444 10.7804 15.79C10.7686 15.904 10.781 16.0154 10.8175 16.124C11.4052 15.7745 11.9989 15.4343 12.5987 15.1035C12.634 14.9901 12.6464 14.8726 12.6359 14.751C12.6359 14.7386 12.6359 14.7262 12.6359 14.7139Z" fill="#58498D"/>
<path fill-rule="evenodd" clip-rule="evenodd" d="M6.47559 15.8271C6.90438 16.079 7.33734 16.3326 7.77441 16.5879C7.8542 16.6403 7.94081 16.6712 8.03418 16.6807C7.89216 16.8903 7.69426 16.9584 7.44043 16.8848C6.98361 16.6568 6.66202 16.3042 6.47559 15.8271Z" fill="#6C5AAC"/>
<path fill-rule="evenodd" clip-rule="evenodd" d="M6.40137 15.6045C6.48716 15.6349 6.57378 15.6658 6.66113 15.6973C7.13929 15.9839 7.62171 16.2622 8.1084 16.5322C8.10246 16.5936 8.07775 16.643 8.03418 16.6807C7.94081 16.6712 7.8542 16.6403 7.77441 16.5879C7.33734 16.3326 6.90438 16.079 6.47559 15.8271C6.45811 15.75 6.43339 15.6758 6.40137 15.6045Z" fill="#62519D"/>
<path fill-rule="evenodd" clip-rule="evenodd" d="M12.4502 15.8643C12.3179 16.2085 12.1076 16.4992 11.8193 16.7363C11.6668 16.8367 11.4998 16.8923 11.3184 16.9033C11.1394 16.9099 11.0095 16.8356 10.9287 16.6807C11.0221 16.6712 11.1087 16.6403 11.1885 16.5879C11.605 16.3364 12.0256 16.0952 12.4502 15.8643Z" fill="#6B59AC"/>
<path fill-rule="evenodd" clip-rule="evenodd" d="M12.5615 15.6045C12.531 15.6968 12.4939 15.7834 12.4502 15.8643C12.0256 16.0952 11.605 16.3364 11.1885 16.5879C11.1087 16.6403 11.0221 16.6712 10.9287 16.6807C10.8851 16.643 10.8604 16.5936 10.8545 16.5322C11.3404 16.2634 11.8229 15.985 12.3018 15.6973C12.3891 15.6658 12.4757 15.6349 12.5615 15.6045Z" fill="#62519D"/>
<path opacity="0.998" fill-rule="evenodd" clip-rule="evenodd" d="M12.7472 17.3486C11.8987 17.8409 11.0452 18.3233 10.1866 18.7959C9.90666 18.8566 9.6902 18.77 9.53723 18.5361C9.48517 18.1427 9.46661 17.7468 9.48157 17.3486C10.5793 17.3478 11.6678 17.3478 12.7472 17.3486Z" fill="#D3C6EF"/>
</g>
<defs>
<clipPath id="clip0_394_16469">
<rect width="19" height="19" fill="white"/>
</clipPath>
</defs>
</svg>
