<svg width="19" height="19" viewBox="0 0 19 19" fill="none" xmlns="http://www.w3.org/2000/svg">
<g clip-path="url(#clip0_394_16087)">
<path opacity="0.994" fill-rule="evenodd" clip-rule="evenodd" d="M12.4873 -0.0185547C12.5986 -0.0185547 12.71 -0.0185547 12.8213 -0.0185547C13.4955 0.398985 14.1758 0.807188 14.8623 1.20605C14.7401 1.19711 14.6287 1.22804 14.5283 1.29883C14.4331 1.38774 14.3465 1.48051 14.2686 1.57715C14.2734 1.54463 14.2611 1.51989 14.2314 1.50293C13.5427 1.11547 12.8624 0.71964 12.1904 0.31543C12.2631 0.180867 12.3621 0.0695385 12.4873 -0.0185547Z" fill="#FFAD21"/>
<path opacity="0.993" fill-rule="evenodd" clip-rule="evenodd" d="M12.1904 0.31543C12.8624 0.71964 13.5427 1.11547 14.2314 1.50293C14.2611 1.51989 14.2734 1.54463 14.2686 1.57715C14.1846 1.75767 14.0732 1.91848 13.9346 2.05957C13.211 1.67936 12.5059 1.27116 11.8193 0.834961C11.9298 0.650583 12.0535 0.477405 12.1904 0.31543Z" fill="#FFA123"/>
<path opacity="0.996" fill-rule="evenodd" clip-rule="evenodd" d="M11.8193 0.834961C12.5059 1.27116 13.211 1.67936 13.9346 2.05957C13.8783 2.17213 13.8041 2.27108 13.7119 2.35645C13.6951 2.32088 13.6704 2.28996 13.6377 2.26367C12.9613 1.8824 12.2933 1.49275 11.6338 1.09473C11.6815 0.997611 11.7434 0.91102 11.8193 0.834961Z" fill="#FF9925"/>
<path opacity="0.995" fill-rule="evenodd" clip-rule="evenodd" d="M11.6338 1.09473C12.2933 1.49275 12.9613 1.8824 13.6377 2.26367C13.6704 2.28996 13.6951 2.32088 13.7119 2.35645C13.6519 2.47832 13.5653 2.57728 13.4521 2.65332C12.7751 2.19933 12.07 1.79113 11.3369 1.42871C11.4101 1.29493 11.5091 1.1836 11.6338 1.09473Z" fill="#FF9326"/>
<path opacity="0.996" fill-rule="evenodd" clip-rule="evenodd" d="M14.8623 1.20609C15.0953 1.34751 15.3303 1.48977 15.5674 1.63285C15.7462 1.89668 15.7648 2.175 15.623 2.46781C15.4454 2.86016 15.2784 3.25599 15.1221 3.65531C14.9242 3.75428 14.7262 3.85322 14.5283 3.95219C14.7253 3.40494 14.9479 2.86685 15.1963 2.33793C15.0243 2.2146 14.8511 2.0909 14.6768 1.96684C14.6396 1.9421 14.6025 1.9421 14.5654 1.96684C14.0998 2.72927 13.5061 3.3725 12.7842 3.89652C12.6108 4.0018 12.4253 4.07602 12.2275 4.11918C11.7844 4.18709 11.3391 4.23656 10.8916 4.26762C10.1191 4.40036 9.43873 4.72199 8.85059 5.23246C8.22886 5.80424 7.69077 6.44126 7.23633 7.14359C7.18935 6.85269 7.12129 6.56818 7.03223 6.29008C6.66013 6.50082 6.28904 6.71109 5.91895 6.92094C5.88191 8.08974 5.86952 9.26484 5.88184 10.4463C5.72694 10.5424 5.56615 10.6289 5.39941 10.7061C5.39941 9.48149 5.39941 8.25688 5.39941 7.03227C5.43407 6.99263 5.44647 6.94317 5.43652 6.88383C5.48239 6.80408 5.5195 6.7175 5.54785 6.62406C5.60003 6.60651 5.62478 6.5694 5.62207 6.51274C5.69629 6.46327 5.75815 6.40141 5.80762 6.32719C6.23322 6.09581 6.65379 5.8546 7.06934 5.60356C7.15506 5.58511 7.24163 5.57895 7.3291 5.585C7.36606 5.58181 7.39697 5.5942 7.42188 5.62211C7.48537 5.71325 7.53484 5.81222 7.57031 5.91899C7.72046 5.75051 7.8627 5.57732 7.99707 5.39945C8.10439 5.29662 8.20332 5.1853 8.29395 5.06547C8.43095 4.94071 8.56703 4.81702 8.70215 4.69438C8.88859 4.54483 9.07413 4.39639 9.25879 4.24906C9.48512 4.12374 9.70778 4.00002 9.92676 3.87797C10.1275 3.80193 10.3255 3.72771 10.5205 3.65531C10.7347 3.6153 10.945 3.57819 11.1514 3.54399C11.3113 3.52245 11.4721 3.51009 11.6338 3.50688C11.8286 3.5142 12.0142 3.48946 12.1904 3.43266C12.4922 3.41148 12.7519 3.30015 12.9697 3.09867C13.1538 2.9765 13.3146 2.82806 13.4521 2.65336C13.5653 2.57732 13.6519 2.47836 13.7119 2.35649C13.8041 2.27112 13.8783 2.17217 13.9346 2.05961C14.0732 1.91852 14.1846 1.75771 14.2686 1.57719C14.3465 1.48055 14.4331 1.38778 14.5283 1.29887C14.6287 1.22808 14.7401 1.19715 14.8623 1.20609Z" fill="#F7DC40"/>
<path opacity="0.993" fill-rule="evenodd" clip-rule="evenodd" d="M11.3369 1.42871C12.07 1.79113 12.7751 2.19933 13.4521 2.65332C13.3146 2.82802 13.1538 2.97646 12.9697 3.09863C12.2744 2.67591 11.5694 2.2677 10.8545 1.87402C11.0143 1.72663 11.1752 1.57819 11.3369 1.42871Z" fill="#FF8827"/>
<path opacity="0.994" fill-rule="evenodd" clip-rule="evenodd" d="M10.8545 1.87402C11.5694 2.2677 12.2744 2.67591 12.9697 3.09863C12.7519 3.30011 12.4922 3.41144 12.1904 3.43262C11.4977 3.02441 10.805 2.61621 10.1123 2.20801C10.379 2.13644 10.6264 2.02511 10.8545 1.87402Z" fill="#FE7F29"/>
<path opacity="0.986" fill-rule="evenodd" clip-rule="evenodd" d="M10.1123 2.20801C10.805 2.61621 11.4977 3.02441 12.1904 3.43262C12.0142 3.48942 11.8286 3.51417 11.6338 3.50684C10.9385 3.08411 10.2334 2.67591 9.51855 2.28223C9.70996 2.24666 9.90787 2.22192 10.1123 2.20801Z" fill="#FE8B27"/>
<path opacity="0.992" fill-rule="evenodd" clip-rule="evenodd" d="M9.51855 2.28229C10.2334 2.67596 10.9385 3.08417 11.6338 3.50689C11.4721 3.5101 11.3113 3.52247 11.1514 3.544C11.0761 3.55002 11.0019 3.54384 10.9287 3.52545C10.2855 3.15436 9.64224 2.78326 8.99902 2.41217C8.96633 2.38588 8.94162 2.35496 8.9248 2.31939C9.12167 2.29363 9.31957 2.28126 9.51855 2.28229Z" fill="#FF9425"/>
<path opacity="0.991" fill-rule="evenodd" clip-rule="evenodd" d="M8.9248 2.31934C8.94162 2.3549 8.96633 2.38582 8.99902 2.41211C9.64224 2.7832 10.2855 3.1543 10.9287 3.52539C11.0019 3.54378 11.0761 3.54996 11.1514 3.54395C10.945 3.57815 10.7347 3.61526 10.5205 3.65527C9.78481 3.2781 9.06734 2.8699 8.36816 2.43066C8.55256 2.38884 8.73811 2.35173 8.9248 2.31934Z" fill="#FEA323"/>
<path opacity="0.995" fill-rule="evenodd" clip-rule="evenodd" d="M8.36817 2.43066C9.06734 2.8699 9.78482 3.2781 10.5205 3.65527C10.3255 3.72767 10.1275 3.80189 9.92676 3.87793C9.87581 3.88376 9.8263 3.87756 9.77832 3.85938C9.13511 3.48828 8.49185 3.11719 7.84863 2.74609C7.82073 2.7212 7.80833 2.69028 7.81153 2.65332C7.98895 2.56517 8.17449 2.49095 8.36817 2.43066Z" fill="#FFB021"/>
<path opacity="0.995" fill-rule="evenodd" clip-rule="evenodd" d="M7.81152 2.65332C7.80833 2.69028 7.82073 2.7212 7.84863 2.74609C8.49185 3.11719 9.1351 3.48828 9.77832 3.85938C9.8263 3.87756 9.87581 3.88376 9.92676 3.87793C9.70778 3.99998 9.48512 4.12371 9.25879 4.24902C8.56841 3.87901 7.88804 3.48937 7.21777 3.08008C7.18259 3.06216 7.14548 3.05598 7.10645 3.06152C7.31248 2.88131 7.54749 2.74524 7.81152 2.65332Z" fill="#FEBD1F"/>
<path opacity="0.996" fill-rule="evenodd" clip-rule="evenodd" d="M7.10645 3.06154C7.14548 3.05599 7.18259 3.06218 7.21777 3.08009C7.88804 3.48939 8.56841 3.87902 9.25879 4.24904C9.07413 4.39636 8.88859 4.5448 8.70215 4.69435C8.00446 4.27735 7.29938 3.86915 6.58691 3.46974C6.73858 3.30562 6.91177 3.16956 7.10645 3.06154Z" fill="#FEC21E"/>
<path fill-rule="evenodd" clip-rule="evenodd" d="M14.5282 3.95215C14.4416 4.12534 14.355 4.29849 14.2684 4.47168C11.4844 6.05243 8.70734 7.64813 5.93738 9.25879C5.91883 8.47961 5.91263 7.70031 5.91883 6.9209C6.28892 6.71105 6.66001 6.50078 7.03211 6.29004C7.12117 6.56814 7.18923 6.85266 7.23621 7.14356C7.69065 6.44122 8.22874 5.8042 8.85047 5.23242C9.43862 4.72195 10.119 4.40032 10.8915 4.26758C11.339 4.23652 11.7843 4.18705 12.2274 4.11914C12.4251 4.07598 12.6107 4.00176 12.7841 3.89649C13.506 3.37246 14.0997 2.72923 14.5653 1.9668C14.6024 1.94206 14.6395 1.94206 14.6766 1.9668C14.8509 2.09086 15.0241 2.21456 15.1962 2.33789C14.9478 2.86682 14.7251 3.4049 14.5282 3.95215Z" fill="#FC4455"/>
<path opacity="0.987" fill-rule="evenodd" clip-rule="evenodd" d="M6.58691 3.46973C7.29938 3.86913 8.00446 4.27734 8.70215 4.69434C8.56703 4.81698 8.43095 4.94067 8.29395 5.06543C8.27773 5.00702 8.24062 4.96371 8.18262 4.93555C7.526 4.55785 6.87039 4.18056 6.21582 3.80371C6.31717 3.66513 6.44085 3.55381 6.58691 3.46973Z" fill="#FFB420"/>
<path opacity="0.995" fill-rule="evenodd" clip-rule="evenodd" d="M6.21582 3.80371C6.87039 4.18056 7.526 4.55785 8.18262 4.93555C8.24062 4.96371 8.27773 5.00702 8.29395 5.06543C8.20332 5.18526 8.10439 5.29658 7.99707 5.39941C7.90137 5.30163 7.79004 5.22125 7.66309 5.1582C7.07167 4.81936 6.47792 4.49157 5.88184 4.1748C5.96674 4.028 6.07807 3.90431 6.21582 3.80371Z" fill="#FFA722"/>
<path opacity="0.99" fill-rule="evenodd" clip-rule="evenodd" d="M5.54785 4.5088C6.1416 4.86753 6.73535 5.22623 7.3291 5.58497C7.24164 5.57892 7.15506 5.58508 7.06934 5.60353C6.65379 5.85457 6.23322 6.09578 5.80762 6.32716C5.18303 5.95718 4.55217 5.59228 3.91504 5.23243C3.8337 5.19284 3.77187 5.13717 3.72949 5.06544C4.1417 4.81584 4.56226 4.57463 4.99121 4.34181C5.07779 4.31705 5.1644 4.31705 5.25098 4.34181C5.34494 4.4073 5.44391 4.46297 5.54785 4.5088Z" fill="#FEC41E"/>
<path opacity="0.999" fill-rule="evenodd" clip-rule="evenodd" d="M5.88184 4.1748C6.47792 4.49157 7.07167 4.81936 7.66309 5.1582C7.79004 5.22125 7.90137 5.30163 7.99707 5.39941C7.8627 5.57728 7.72046 5.75047 7.57031 5.91895C7.53484 5.81218 7.48537 5.71321 7.42188 5.62207C7.39697 5.59416 7.36606 5.58177 7.3291 5.58496C6.73535 5.22622 6.1416 4.86753 5.54785 4.50879C5.64582 4.38611 5.75715 4.27478 5.88184 4.1748Z" fill="#FF9B24"/>
<path fill-rule="evenodd" clip-rule="evenodd" d="M14.2685 4.47168C13.8968 5.45126 13.5257 6.42846 13.1552 7.40332C12.5904 7.71979 12.0276 8.04142 11.4668 8.36816C11.452 8.3597 11.4458 8.34731 11.4482 8.33106C11.649 7.9417 11.8408 7.54589 12.0234 7.14355C12.1334 6.90001 12.22 6.6526 12.2832 6.40137C11.7141 7.04484 11.0771 7.60768 10.372 8.08984C10.1495 8.21973 9.91444 8.3187 9.66696 8.38672C9.17489 8.49059 8.68011 8.57716 8.18259 8.64648C7.88441 8.71829 7.65556 8.88528 7.49606 9.14746C7.20112 9.73331 7.00941 10.3518 6.92087 11.0029C6.57764 11.1962 6.2375 11.3941 5.90036 11.5967C5.8818 11.2134 5.87564 10.83 5.8818 10.4463C5.86948 9.2648 5.88188 8.0897 5.91891 6.9209C5.91272 7.70031 5.91891 8.4796 5.93747 9.25879C8.70742 7.64813 11.4845 6.05243 14.2685 4.47168Z" fill="#F54151"/>
<path opacity="0.994" fill-rule="evenodd" clip-rule="evenodd" d="M3.72949 5.06543C3.77187 5.13716 3.8337 5.19283 3.91504 5.23242C4.55217 5.59227 5.18303 5.95717 5.80762 6.32715C5.75815 6.40137 5.69629 6.46323 5.62207 6.5127C5.62526 6.47573 5.61287 6.44482 5.58496 6.41992C4.9036 6.02983 4.22327 5.64018 3.54395 5.25098C3.59342 5.17676 3.65527 5.1149 3.72949 5.06543Z" fill="#FEB420"/>
<path opacity="0.993" fill-rule="evenodd" clip-rule="evenodd" d="M3.54395 5.25098C4.22327 5.64018 4.9036 6.02983 5.58496 6.41992C5.61287 6.44482 5.62526 6.47573 5.62207 6.5127C5.62478 6.56936 5.60003 6.60647 5.54785 6.62402C4.88808 6.25519 4.23251 5.8779 3.58105 5.49219C3.52447 5.45474 3.46262 5.43619 3.39551 5.43652C3.43648 5.36642 3.48595 5.3046 3.54395 5.25098Z" fill="#FFA722"/>
<path opacity="0.995" fill-rule="evenodd" clip-rule="evenodd" d="M3.39551 5.43653C3.46262 5.43619 3.52447 5.45475 3.58105 5.49219C4.23251 5.87791 4.88808 6.2552 5.54785 6.62403C5.5195 6.71747 5.48239 6.80405 5.43652 6.88379C5.43426 6.80616 5.39715 6.7505 5.3252 6.7168C4.76251 6.40456 4.20587 6.08294 3.65527 5.75196C3.55102 5.68735 3.43969 5.64404 3.32129 5.62207C3.34603 5.56021 3.37077 5.49839 3.39551 5.43653Z" fill="#FE9B24"/>
<path opacity="0.982" fill-rule="evenodd" clip-rule="evenodd" d="M15.122 3.65527C14.585 4.93262 14.0779 6.21905 13.6005 7.51465C13.439 7.61997 13.272 7.71894 13.0995 7.81152C13.0823 7.78948 13.0761 7.76473 13.0809 7.73731C13.1057 7.62598 13.1304 7.51465 13.1552 7.40332C13.5256 6.42846 13.8967 5.45126 14.2684 4.47168C14.355 4.29849 14.4416 4.12534 14.5282 3.95215C14.7261 3.85318 14.9241 3.75424 15.122 3.65527Z" fill="#F9D53E"/>
<path opacity="0.992" fill-rule="evenodd" clip-rule="evenodd" d="M3.32136 5.62207C3.43977 5.64404 3.55109 5.68735 3.65534 5.75195C4.20594 6.08293 4.76258 6.40456 5.32527 6.7168C5.39722 6.75049 5.43433 6.80616 5.4366 6.88379C5.44654 6.94313 5.43415 6.99259 5.39949 7.03223C4.68828 6.62098 3.98321 6.20042 3.28425 5.77051C3.28175 5.71637 3.29412 5.6669 3.32136 5.62207Z" fill="#FF8F26"/>
<path opacity="0.988" fill-rule="evenodd" clip-rule="evenodd" d="M3.28418 5.77051C3.98313 6.20042 4.68821 6.62098 5.39941 7.03223C5.39941 8.25684 5.39941 9.48145 5.39941 10.7061C5.39941 11.1019 5.39941 11.4977 5.39941 11.8936C5.37466 10.3411 5.34995 8.78249 5.3252 7.21777C4.61793 6.82731 3.92521 6.41911 3.24707 5.99316C3.24771 5.91653 3.26008 5.84231 3.28418 5.77051Z" fill="#FE8229"/>
<path opacity="0.986" fill-rule="evenodd" clip-rule="evenodd" d="M3.24711 5.99316C3.92525 6.41911 4.61797 6.82731 5.32524 7.21777C5.34999 8.78249 5.3747 10.3411 5.39945 11.8936C5.39593 12.012 5.42064 12.1233 5.47367 12.2275C4.77698 11.8482 4.08426 11.4585 3.39555 11.0586C3.35096 11.0251 3.32004 10.9818 3.30277 10.9287C3.24769 9.28577 3.22914 7.6406 3.24711 5.99316Z" fill="#FF7A29"/>
<path fill-rule="evenodd" clip-rule="evenodd" d="M11.4483 8.33105C11.2719 8.59735 11.0863 8.85712 10.8917 9.11035C10.5816 9.26859 10.2785 9.44174 9.98251 9.62988C9.9677 9.62142 9.96154 9.60903 9.96395 9.59277C10.2467 9.21704 10.5374 8.84595 10.836 8.47949C10.8608 8.45474 10.8608 8.43003 10.836 8.40527C10.4236 8.74301 9.95976 8.98422 9.44442 9.12891C8.97228 9.19233 8.50222 9.26655 8.03427 9.35156C7.92134 9.36388 7.84712 9.41955 7.81161 9.51855C7.67445 9.73186 7.58784 9.96687 7.55184 10.2236C7.46041 10.4582 7.41094 10.7055 7.40341 10.9658C7.32804 11.2029 7.20435 11.4132 7.03231 11.5967C6.88388 11.6833 6.73544 11.7699 6.587 11.8564C6.3891 11.9678 6.19115 12.0791 5.99325 12.1904C5.88296 12.2702 5.75928 12.3073 5.62216 12.3018C5.55239 12.3118 5.50292 12.2871 5.47372 12.2275C5.42069 12.1233 5.39597 12.012 5.3995 11.8936C5.3995 11.4977 5.3995 11.1019 5.3995 10.7061C5.56623 10.6289 5.72703 10.5423 5.88192 10.4463C5.87576 10.83 5.88192 11.2134 5.90048 11.5967C6.23762 11.3941 6.57776 11.1962 6.92098 11.0029C7.00953 10.3518 7.20123 9.73331 7.49618 9.14746C7.65568 8.88528 7.88453 8.71829 8.1827 8.64648C8.68023 8.57716 9.17501 8.49059 9.66708 8.38672C9.91456 8.3187 10.1496 8.21973 10.3722 8.08984C11.0772 7.60768 11.7143 7.04484 12.2833 6.40137C12.2201 6.6526 12.1335 6.90001 12.0235 7.14355C11.8409 7.54589 11.6492 7.9417 11.4483 8.33105Z" fill="#F9D43D"/>
<path opacity="0.974" fill-rule="evenodd" clip-rule="evenodd" d="M13.6005 7.51465C13.1882 8.68975 12.8666 9.88965 12.6356 11.1143C12.474 11.1858 12.3194 11.2724 12.1718 11.374C12.1546 11.352 12.1484 11.3272 12.1532 11.2998C12.1843 11.0393 12.2214 10.7796 12.2645 10.5205C12.4731 9.57489 12.7453 8.64715 13.0809 7.7373C13.0761 7.76473 13.0823 7.78948 13.0995 7.81152C13.272 7.71894 13.439 7.61996 13.6005 7.51465Z" fill="#FBCF3C"/>
<path fill-rule="evenodd" clip-rule="evenodd" d="M9.96387 9.59277C9.73227 9.87054 9.50961 10.1551 9.2959 10.4463C8.81448 10.1684 8.33206 9.89009 7.84863 9.61133C7.82073 9.58643 7.80833 9.55552 7.81153 9.51855C7.84704 9.41955 7.92126 9.36388 8.03418 9.35156C8.50213 9.26654 8.9722 9.19233 9.44434 9.12891C9.95968 8.98422 10.4235 8.74301 10.8359 8.40527C10.8607 8.43003 10.8607 8.45474 10.8359 8.47949C10.5373 8.84595 10.2466 9.21704 9.96387 9.59277Z" fill="#FE7D2A"/>
<path fill-rule="evenodd" clip-rule="evenodd" d="M13.1553 7.40332C13.1305 7.51465 13.1058 7.62598 13.0811 7.7373C12.7454 8.64715 12.4732 9.57489 12.2646 10.5205C12.2731 10.4517 12.2484 10.4208 12.1904 10.4277C11.0254 11.1215 9.85024 11.7957 8.66504 12.4502C8.87512 11.937 9.14108 11.4546 9.46289 11.0029C9.91863 10.3556 10.3949 9.72473 10.8916 9.11035C11.0862 8.85712 11.2718 8.59735 11.4482 8.33105C11.4458 8.34731 11.452 8.3597 11.4668 8.36816C12.0276 8.04142 12.5904 7.71979 13.1553 7.40332Z" fill="#E53847"/>
<path fill-rule="evenodd" clip-rule="evenodd" d="M10.8917 9.11035C10.395 9.72473 9.91872 10.3556 9.46298 11.0029C9.14117 11.4546 8.87521 11.937 8.66513 12.4502C8.44181 12.8476 8.26862 13.2682 8.1456 13.7119C7.98481 13.7861 7.82397 13.8604 7.66318 13.9346C7.65821 13.8681 7.67056 13.8062 7.70029 13.749C7.73469 13.5839 7.78419 13.4231 7.84873 13.2666C7.91805 13.0834 7.97991 12.8978 8.03427 12.71C8.11706 12.5862 8.17889 12.4501 8.21982 12.3018C8.33998 12.0986 8.45131 11.8884 8.5538 11.6709C8.67794 11.4472 8.80166 11.2246 8.9249 11.0029C9.0573 10.8251 9.18103 10.6396 9.29599 10.4463C9.5097 10.1551 9.73236 9.87054 9.96396 9.59277C9.96155 9.60903 9.96771 9.62142 9.98252 9.62988C10.2785 9.44174 10.5816 9.26859 10.8917 9.11035Z" fill="#FBD03C"/>
<path fill-rule="evenodd" clip-rule="evenodd" d="M7.81152 9.51855C7.80833 9.55552 7.82073 9.58643 7.84863 9.61133C8.33206 9.89009 8.81448 10.1684 9.2959 10.4463C9.18093 10.6396 9.05721 10.8251 8.9248 11.0029C8.46109 10.7526 8.00342 10.4928 7.55176 10.2236C7.58775 9.96687 7.67437 9.73186 7.81152 9.51855Z" fill="#FE8A27"/>
<path fill-rule="evenodd" clip-rule="evenodd" d="M12.2646 10.5205C12.2215 10.7796 12.1844 11.0393 12.1533 11.2998C12.1056 11.4144 12.0809 11.5381 12.0791 11.6709C10.8134 12.3843 9.55166 13.1079 8.29395 13.8418C8.23735 13.8792 8.17549 13.8978 8.1084 13.8974C8.11319 13.8338 8.12554 13.7719 8.14551 13.7119C8.26853 13.2681 8.44171 12.8475 8.66504 12.4502C9.85024 11.7957 11.0254 11.1215 12.1904 10.4277C12.2484 10.4207 12.2731 10.4517 12.2646 10.5205Z" fill="#DD3442"/>
<path fill-rule="evenodd" clip-rule="evenodd" d="M7.55176 10.2236C8.00342 10.4928 8.46109 10.7526 8.9248 11.0029C8.80156 11.2246 8.67784 11.4472 8.55371 11.6709C8.14796 11.4623 7.76447 11.2273 7.40332 10.9658C7.41085 10.7055 7.46032 10.4582 7.55176 10.2236Z" fill="#FE9725"/>
<path opacity="0.974" fill-rule="evenodd" clip-rule="evenodd" d="M12.6357 11.1143C12.4542 12.3318 12.3553 13.5564 12.3389 14.7881C12.184 14.8841 12.0232 14.9707 11.8564 15.0479C11.8564 14.8252 11.8564 14.6025 11.8564 14.3799C11.8747 13.8847 11.8994 13.3899 11.9307 12.8955C11.9832 12.4875 12.0327 12.0793 12.0791 11.6709C12.0809 11.5381 12.1056 11.4144 12.1533 11.2998C12.1485 11.3272 12.1547 11.352 12.1719 11.374C12.3195 11.2724 12.4741 11.1858 12.6357 11.1143Z" fill="#FCC93A"/>
<path fill-rule="evenodd" clip-rule="evenodd" d="M7.40332 10.9658C7.76447 11.2273 8.14796 11.4623 8.55371 11.6709C8.45122 11.8884 8.33989 12.0986 8.21973 12.3018C7.8103 12.0849 7.41449 11.8498 7.03223 11.5967C7.20427 11.4132 7.32795 11.2029 7.40332 10.9658Z" fill="#FEA323"/>
<path fill-rule="evenodd" clip-rule="evenodd" d="M7.03223 11.5967C7.41449 11.8498 7.8103 12.0849 8.21973 12.3018C8.1788 12.4501 8.11697 12.5862 8.03418 12.71C7.53313 12.4534 7.05071 12.1689 6.58691 11.8564C6.73535 11.7699 6.88379 11.6833 7.03223 11.5967Z" fill="#FEAB21"/>
<path fill-rule="evenodd" clip-rule="evenodd" d="M6.58691 11.8564C7.05071 12.1689 7.53313 12.4534 8.03418 12.71C7.97981 12.8978 7.91795 13.0834 7.84863 13.2666C7.2167 12.926 6.5982 12.5673 5.99316 12.1904C6.19107 12.0791 6.38901 11.9678 6.58691 11.8564Z" fill="#FEB220"/>
<path opacity="0.999" fill-rule="evenodd" clip-rule="evenodd" d="M5.99316 12.1904C6.5982 12.5673 7.2167 12.926 7.84863 13.2666C7.7841 13.4231 7.7346 13.5839 7.7002 13.749C7.00851 13.3536 6.31579 12.9578 5.62207 12.5615C5.59676 12.5891 5.57201 12.6138 5.54785 12.6357C5.55527 12.5196 5.57999 12.4083 5.62207 12.3018C5.75919 12.3073 5.88288 12.2702 5.99316 12.1904Z" fill="#FEB81F"/>
<path fill-rule="evenodd" clip-rule="evenodd" d="M12.0791 11.6709C12.0327 12.0793 11.9832 12.4875 11.9307 12.8955C10.5834 13.6682 9.23508 14.4413 7.88574 15.2148C7.83821 15.2671 7.8011 15.3228 7.77441 15.3818C7.8575 14.8797 7.96883 14.385 8.1084 13.8975C8.17549 13.8978 8.23735 13.8792 8.29395 13.8418C9.55166 13.1079 10.8134 12.3843 12.0791 11.6709Z" fill="#D7313E"/>
<path fill-rule="evenodd" clip-rule="evenodd" d="M11.9307 12.8955C11.8994 13.3899 11.8747 13.8847 11.8564 14.3799C10.4092 15.221 8.96191 16.0622 7.51465 16.9033C7.57336 16.3902 7.65997 15.883 7.77441 15.3818C7.8011 15.3228 7.83821 15.2671 7.88574 15.2148C9.23508 14.4413 10.5834 13.6682 11.9307 12.8955Z" fill="#D02E3A"/>
<path opacity="0.995" fill-rule="evenodd" clip-rule="evenodd" d="M7.7002 13.749C7.67047 13.8062 7.65811 13.8681 7.66309 13.9346C7.5034 14.4857 7.36732 15.0424 7.25488 15.6045C6.55481 15.1988 5.84974 14.803 5.13965 14.417C5.22912 13.8083 5.36516 13.2145 5.54785 12.6357C5.57201 12.6138 5.59676 12.5891 5.62207 12.5615C6.31579 12.9578 7.00851 13.3536 7.7002 13.749Z" fill="#FFC11E"/>
<path fill-rule="evenodd" clip-rule="evenodd" d="M8.14551 13.7119C8.12554 13.7719 8.11319 13.8338 8.1084 13.8975C7.96883 14.385 7.8575 14.8797 7.77441 15.3818C7.65997 15.883 7.57336 16.3902 7.51465 16.9033C7.45743 17.1428 7.42032 17.3902 7.40332 17.6455C7.23759 17.7222 7.07679 17.8088 6.9209 17.9053C6.9209 17.8434 6.9209 17.7816 6.9209 17.7197C6.95471 17.5359 6.97946 17.3504 6.99512 17.1631C7.05909 16.9372 7.0962 16.7022 7.10645 16.458C7.13992 16.3282 7.16467 16.1922 7.18066 16.0498C7.22872 15.91 7.25344 15.7616 7.25488 15.6045C7.36732 15.0424 7.5034 14.4857 7.66309 13.9346C7.82388 13.8604 7.98471 13.7861 8.14551 13.7119Z" fill="#FDCA39"/>
<path opacity="0.995" fill-rule="evenodd" clip-rule="evenodd" d="M5.13965 14.417C5.84974 14.803 6.55481 15.1988 7.25488 15.6045C7.25344 15.7616 7.22872 15.91 7.18066 16.0498C7.18245 15.9462 7.13298 15.8782 7.03223 15.8457C6.38656 15.4611 5.73099 15.0962 5.06543 14.751C5.08087 14.6366 5.10562 14.5252 5.13965 14.417Z" fill="#FEB820"/>
<path fill-rule="evenodd" clip-rule="evenodd" d="M11.8564 14.3799C11.8564 14.6025 11.8564 14.8252 11.8564 15.0479C11.8686 15.2596 11.8562 15.4699 11.8193 15.6787C10.3239 16.5372 8.83337 17.4031 7.34762 18.2764C7.34298 18.0643 7.36154 17.854 7.40328 17.6455C7.42028 17.3902 7.45739 17.1428 7.51461 16.9033C8.96188 16.0622 10.4091 15.221 11.8564 14.3799Z" fill="#CA2B36"/>
<path opacity="0.994" fill-rule="evenodd" clip-rule="evenodd" d="M5.06543 14.751C5.73099 15.0962 6.38656 15.4611 7.03223 15.8457C7.13298 15.8782 7.18245 15.9462 7.18066 16.0498C7.16467 16.1922 7.13992 16.3282 7.10645 16.458C7.11617 16.4032 7.10381 16.3537 7.06934 16.3096C6.38497 15.9057 5.69224 15.5222 4.99121 15.1592C5.01199 15.0221 5.03674 14.8861 5.06543 14.751Z" fill="#FFB121"/>
<path opacity="0.982" fill-rule="evenodd" clip-rule="evenodd" d="M12.3389 14.7881C12.353 15.1246 12.3345 15.4586 12.2832 15.79C12.1977 15.9798 12.0802 16.1468 11.9307 16.291C10.3821 17.1888 8.83591 18.0856 7.29202 18.9814C7.19304 18.9814 7.09411 18.9814 6.99514 18.9814C6.97039 18.9567 6.94567 18.932 6.92092 18.9072C6.85661 18.6903 6.83186 18.4676 6.8467 18.2393C6.88288 18.1349 6.90764 18.0236 6.92092 17.9053C7.07682 17.8088 7.23761 17.7222 7.40334 17.6455C7.3616 17.854 7.34304 18.0643 7.34768 18.2764C8.83343 17.4031 10.324 16.5372 11.8194 15.6787C11.8563 15.4699 11.8687 15.2596 11.8565 15.0479C12.0232 14.9707 12.184 14.8841 12.3389 14.7881Z" fill="#FEC538"/>
<path opacity="0.994" fill-rule="evenodd" clip-rule="evenodd" d="M4.99121 15.1592C5.69224 15.5222 6.38497 15.9057 7.06934 16.3096C7.10381 16.3537 7.11617 16.4032 7.10645 16.458C7.0962 16.7022 7.05909 16.9372 6.99512 17.1631C7.00306 17.1021 6.99066 17.0464 6.95801 16.9961C6.2693 16.5962 5.57657 16.2065 4.87988 15.8271C4.91696 15.6048 4.95406 15.3821 4.99121 15.1592Z" fill="#FFA722"/>
<path opacity="0.994" fill-rule="evenodd" clip-rule="evenodd" d="M4.87988 15.8271C5.57657 16.2065 6.2693 16.5962 6.95801 16.9961C6.99066 17.0464 7.00306 17.1021 6.99512 17.1631C6.97946 17.3504 6.95471 17.5359 6.9209 17.7197C6.22191 17.3021 5.51683 16.8939 4.80566 16.4951C4.81999 16.2712 4.84474 16.0485 4.87988 15.8271Z" fill="#FF9B24"/>
<path opacity="0.994" fill-rule="evenodd" clip-rule="evenodd" d="M4.80566 16.4951C5.51683 16.8939 6.22191 17.3021 6.9209 17.7197C6.9209 17.7816 6.9209 17.8434 6.9209 17.9053C6.90761 18.0236 6.88286 18.1349 6.84668 18.2393C6.84846 18.1356 6.79899 18.0676 6.69824 18.0352C6.06119 17.6703 5.42417 17.3053 4.78711 16.9404C4.7729 16.9611 4.75434 16.9734 4.73145 16.9775C4.74254 16.8132 4.76726 16.6524 4.80566 16.4951Z" fill="#FF9326"/>
<path opacity="0.959" fill-rule="evenodd" clip-rule="evenodd" d="M6.84669 18.2393C6.83184 18.4676 6.8566 18.6903 6.92091 18.9072C6.21234 18.5147 5.50726 18.1127 4.80567 17.7012C4.68685 17.4715 4.6621 17.2303 4.73145 16.9775C4.75435 16.9734 4.7729 16.9611 4.78712 16.9404C5.42417 17.3053 6.06119 17.6703 6.69825 18.0352C6.799 18.0676 6.84847 18.1356 6.84669 18.2393Z" fill="#FF8827"/>
</g>
<defs>
<clipPath id="clip0_394_16087">
<rect width="19" height="19" fill="white"/>
</clipPath>
</defs>
</svg>
