<svg width="16" height="17" viewBox="0 0 16 17" fill="none" xmlns="http://www.w3.org/2000/svg">
<path fill-rule="evenodd" clip-rule="evenodd" d="M6.35326 2.18667C6.05326 3.06667 5.83993 3.98 5.67326 4.89334C7.21992 4.72 8.77992 4.72 10.3266 4.89334C10.1599 3.98 9.94659 3.07334 9.64659 2.18667C9.63739 2.14985 9.63454 2.11938 9.63146 2.08649L9.63146 2.08647C9.63008 2.07173 9.62865 2.05651 9.62659 2.04C9.10659 1.91334 8.55992 1.83334 7.99992 1.83334C7.43326 1.83334 6.89326 1.91334 6.36659 2.04C6.36394 2.06121 6.3634 2.08031 6.36287 2.09898V2.09899C6.36206 2.12726 6.36129 2.15455 6.35326 2.18667ZM11.4666 5.03333C12.3266 5.18 13.1732 5.38667 14.0132 5.64C13.3532 4.26 12.2399 3.14667 10.8599 2.48667C11.1199 3.32 11.3266 4.17333 11.4666 5.03333ZM5.09992 14.44C5.08992 14.44 5.07825 14.4433 5.06658 14.4467C5.05492 14.45 5.04325 14.4533 5.03325 14.4533C3.73992 13.8133 2.68658 12.7533 2.03992 11.46C2.03992 11.45 2.04325 11.4383 2.04658 11.4267C2.04992 11.415 2.05325 11.4033 2.05325 11.3933C2.86658 11.6333 3.70658 11.8133 4.53992 11.9533C4.68658 12.7933 4.85992 13.6267 5.09992 14.44ZM13.9599 11.4667C13.2999 12.7933 12.1999 13.8667 10.8599 14.5133C11.1132 13.6667 11.3266 12.8133 11.4666 11.9533C12.3066 11.8133 13.1332 11.6333 13.9466 11.3933C13.9426 11.4094 13.9482 11.4254 13.9533 11.44C13.9567 11.4497 13.9599 11.4587 13.9599 11.4667ZM5.09991 2.56C4.85991 3.37333 4.68657 4.2 4.54657 5.04C3.68657 5.17333 2.83324 5.38667 1.98657 5.64C2.63324 4.3 3.70657 3.2 5.03324 2.54C5.04324 2.54 5.05491 2.545 5.06657 2.55C5.07824 2.555 5.08991 2.56 5.09991 2.56ZM14.6666 8.5C14.6666 9.06667 14.5866 9.60667 14.4599 10.1333C14.4387 10.136 14.4196 10.1365 14.4009 10.1371C14.3726 10.1379 14.3454 10.1386 14.3132 10.1467C13.4266 10.44 12.5199 10.66 11.6066 10.8267C11.7799 9.28 11.7799 7.72 11.6066 6.17333C12.5199 6.34 13.4332 6.55333 14.3132 6.85333C14.3666 6.86667 14.4066 6.87333 14.4599 6.87333C14.5866 7.4 14.6666 7.94 14.6666 8.5ZM9.64659 14.8133C9.94659 13.9333 10.1599 13.0267 10.3266 12.1067C9.55993 12.1933 8.77992 12.2533 7.99992 12.2533C7.21992 12.2533 6.44659 12.1933 5.67326 12.1067C5.83993 13.0267 6.05992 13.9267 6.35326 14.8133C6.36129 14.8455 6.36206 14.8727 6.36287 14.901C6.3634 14.9197 6.36394 14.9388 6.36659 14.96C6.89326 15.0867 7.43326 15.1667 7.99992 15.1667C8.55992 15.1667 9.10659 15.0867 9.62659 14.96C9.62865 14.9435 9.63008 14.9283 9.63146 14.9135L9.63146 14.9135C9.63454 14.8806 9.63739 14.8502 9.64659 14.8133ZM10.5088 11.0089C8.84141 11.2193 7.15843 11.2193 5.49103 11.0089C5.28066 9.34149 5.28066 7.65851 5.49103 5.99112C7.15843 5.78074 8.84141 5.78074 10.5088 5.99112C10.7192 7.65851 10.7192 9.34149 10.5088 11.0089ZM1.68659 10.1467C2.56659 10.4467 3.47325 10.66 4.39325 10.8267C4.22659 9.28 4.22659 7.72 4.39325 6.17333C3.47325 6.34 2.57325 6.56 1.68659 6.85333C1.64976 6.86254 1.6193 6.86539 1.58641 6.86846C1.57166 6.86984 1.55643 6.87127 1.53992 6.87333C1.41325 7.39333 1.33325 7.94 1.33325 8.5C1.33325 9.06667 1.41325 9.60667 1.53992 10.1333C1.56113 10.136 1.58023 10.1365 1.5989 10.1371C1.62717 10.1379 1.65446 10.1386 1.68659 10.1467Z" fill="#676F7F"/>
</svg>
