<svg width="20" height="20" viewBox="0 0 20 20" fill="none" xmlns="http://www.w3.org/2000/svg">
<path d="M5.49297 12.9083C4.34297 12.7 3.20964 12.4333 2.10964 12.0583C2.04297 12.0417 1.99297 12.05 1.9263 12.0417C1.76797 11.3833 1.66797 10.7083 1.66797 10C1.66797 9.30001 1.76797 8.61667 1.9263 7.96667C1.99297 7.95834 2.04297 7.95834 2.10964 7.94167C3.21797 7.57501 4.34297 7.30001 5.49297 7.09167C5.28464 9.02501 5.28464 10.975 5.49297 12.9083Z" fill="white"/>
<path fill-rule="evenodd" clip-rule="evenodd" d="M7.09273 5.49169C7.30107 4.35002 7.56773 3.20835 7.94273 2.10835C7.95277 2.0682 7.95374 2.03409 7.95474 1.99874V1.99873C7.95541 1.9754 7.95609 1.95153 7.9594 1.92502C8.61773 1.76669 9.29273 1.66669 10.0011 1.66669C10.7011 1.66669 11.3844 1.76669 12.0344 1.92502C12.037 1.94566 12.0388 1.9647 12.0405 1.98313C12.0443 2.02424 12.0479 2.06232 12.0594 2.10835C12.4344 3.21669 12.7011 4.35002 12.9094 5.49169C10.9761 5.27502 9.02607 5.27502 7.09273 5.49169ZM17.5177 6.42502C16.4677 6.10835 15.4094 5.85002 14.3344 5.66668C14.1594 4.59168 13.901 3.52502 13.576 2.48335C15.301 3.30835 16.6927 4.70002 17.5177 6.42502ZM6.33439 17.4334C6.34897 17.4292 6.36356 17.425 6.37606 17.425C6.07606 16.4083 5.85939 15.3667 5.67606 14.3167C4.63439 14.1417 3.58439 13.9167 2.56772 13.6167C2.56772 13.6292 2.56356 13.6438 2.55939 13.6583C2.55522 13.6729 2.55106 13.6875 2.55106 13.7C3.35939 15.3167 4.67606 16.6417 6.29272 17.4417C6.30522 17.4417 6.31981 17.4375 6.33439 17.4334ZM13.576 17.5167C15.251 16.7084 16.626 15.3667 17.451 13.7084C17.451 13.6984 17.4471 13.6871 17.4428 13.675C17.4364 13.6568 17.4294 13.6367 17.4344 13.6167C16.4177 13.9167 15.3844 14.1417 14.3344 14.3167C14.1594 15.3917 13.8927 16.4584 13.576 17.5167ZM5.68438 5.67502C5.85938 4.62502 6.07604 3.59168 6.37604 2.57502C6.36354 2.57502 6.34896 2.56877 6.33437 2.56252C6.31979 2.55627 6.30521 2.55002 6.29271 2.55002C4.63438 3.37502 3.29271 4.75002 2.48438 6.42502C3.54271 6.10835 4.60938 5.84168 5.68438 5.67502ZM18.076 12.0417C18.2344 11.3833 18.3344 10.7083 18.3344 10C18.3344 9.30002 18.2344 8.62502 18.076 7.96668C18.0094 7.96668 17.9594 7.95835 17.8927 7.94168C16.7927 7.56668 15.651 7.30002 14.5094 7.09168C14.726 9.02502 14.726 10.975 14.5094 12.9083C15.651 12.7 16.7844 12.425 17.8927 12.0583C17.9329 12.0483 17.967 12.0473 18.0023 12.0463C18.0256 12.0457 18.0495 12.045 18.076 12.0417ZM12.9094 14.5084C12.7011 15.6584 12.4344 16.7917 12.0594 17.8917C12.0479 17.9377 12.0443 17.9758 12.0405 18.0169C12.0388 18.0353 12.037 18.0544 12.0344 18.075C11.3844 18.2334 10.7011 18.3334 10.0011 18.3334C9.29273 18.3334 8.61773 18.2334 7.9594 18.075C7.95609 18.0485 7.95541 18.0246 7.95474 18.0013V18.0013C7.95374 17.966 7.95277 17.9318 7.94273 17.8917C7.57607 16.7834 7.30107 15.6584 7.09273 14.5084C8.0594 14.6167 9.02607 14.6917 10.0011 14.6917C10.9761 14.6917 11.9511 14.6167 12.9094 14.5084ZM6.86495 13.1361C8.94919 13.3991 11.0529 13.3991 13.1372 13.1361C13.4001 11.0519 13.4001 8.94816 13.1372 6.86391C11.0529 6.60095 8.94919 6.60095 6.86495 6.86391C6.60198 8.94816 6.60198 11.0519 6.86495 13.1361Z" fill="white"/>
</svg>
