<svg width="24" height="24" viewBox="0 0 24 24" fill="none" xmlns="http://www.w3.org/2000/svg">
<g clip-path="url(#clip0_116_4522)">
<path d="M12 24C18.6274 24 24 18.6274 24 12C24 5.37258 18.6274 0 12 0C5.37258 0 0 5.37258 0 12C0 18.6274 5.37258 24 12 24Z" fill="#8834FF"/>
<path d="M5.25 15.9227C5.39325 15.9227 5.544 15.9302 5.68725 15.9227C5.9595 15.9024 6.2325 15.8477 6.49875 15.7802C7.02382 15.6368 7.51528 15.3908 7.94475 15.0564C8.06775 14.9612 8.19 14.8592 8.30625 14.7497C8.5515 14.5044 8.76375 14.2247 8.934 13.9247C9.084 13.6584 9.19275 13.3719 9.27525 13.0787C9.282 13.0584 9.282 13.0307 9.28875 13.0104H8.21775C7.99519 13.0094 7.77339 12.9843 7.55625 12.9354C7.53667 12.9275 7.51587 12.9229 7.49475 12.9219C7.48432 12.9166 7.47493 12.9095 7.467 12.9009C7.5285 12.7652 7.58325 12.6354 7.638 12.4989L8.05425 11.5367C8.06755 11.4907 8.08806 11.4472 8.115 11.4077C8.14472 11.3802 8.18402 11.3654 8.2245 11.3664C8.559 11.3597 8.886 11.3664 9.2205 11.3664H9.309C9.2955 11.3117 9.2955 11.2712 9.282 11.2239C9.16117 10.7624 8.94758 10.3304 8.65425 9.95418C8.51 9.77049 8.35258 9.59754 8.18325 9.43668C7.97144 9.23742 7.73562 9.06535 7.48125 8.92443C7.21616 8.77534 6.93739 8.65203 6.64875 8.55618C6.40834 8.48085 6.16195 8.42615 5.91225 8.39268C5.71425 8.37168 5.523 8.36493 5.32575 8.35143C5.27775 8.35143 5.22975 8.34468 5.1825 8.33793C5.17275 8.335 5.16387 8.32971 5.15667 8.32251C5.14947 8.31531 5.14417 8.30643 5.14125 8.29668C5.073 8.13993 5.00475 7.98993 4.9365 7.83318C4.854 7.64868 4.779 7.46493 4.698 7.28718C4.6365 7.13718 4.56825 6.99468 4.5 6.83718L4.64325 6.79593C4.94325 6.75543 5.25075 6.74193 5.5575 6.75543C6.04588 6.7718 6.53089 6.84274 7.0035 6.96693C7.3035 7.04868 7.6035 7.15068 7.89 7.27368C8.29275 7.44393 8.6745 7.65618 9.03 7.90818C9.186 8.02368 9.34275 8.14668 9.4935 8.26968C9.561 8.32443 9.62925 8.38593 9.6975 8.44668C10.0387 8.77443 10.3387 9.14943 10.5915 9.55218C10.8435 9.95418 11.028 10.3907 11.151 10.8482C11.1915 10.9982 11.2185 11.1557 11.253 11.3057C11.2569 11.3172 11.2643 11.3272 11.2741 11.3344C11.2838 11.3417 11.2956 11.3458 11.3077 11.3462H12.6922C12.72 11.2367 12.7402 11.1279 12.7605 11.0184C12.843 10.6982 12.9517 10.3907 13.0882 10.0974C13.197 9.85218 13.3335 9.61368 13.4902 9.39543C13.6335 9.19743 13.7835 8.99943 13.9477 8.81568C14.0684 8.67313 14.1981 8.5386 14.3362 8.41293C14.6231 8.15251 14.9337 7.91949 15.264 7.71693C15.6052 7.50543 15.96 7.33443 16.335 7.19868C16.5945 7.11018 16.8532 7.02843 17.1127 6.96018C17.31 6.91218 17.5012 6.87768 17.706 6.85068C17.8695 6.82368 18.0405 6.81018 18.2107 6.79593C18.3202 6.78918 18.4222 6.78243 18.5317 6.78243C18.6952 6.78243 18.852 6.77568 19.0087 6.78243C19.1662 6.78993 19.323 6.82368 19.4797 6.85068C19.4865 6.85068 19.4865 6.85818 19.5 6.87093L19.3837 7.14393C19.2615 7.43043 19.1385 7.71693 19.0087 8.01018C18.9592 8.11312 18.9137 8.21795 18.8722 8.32443C18.8452 8.39193 18.777 8.36493 18.7297 8.37843C18.6885 8.38593 18.6547 8.38593 18.6135 8.37843C17.9162 8.38522 17.2291 8.54606 16.6012 8.84943C16.3076 8.9929 16.0325 9.17172 15.7822 9.38193C15.6802 9.47043 15.5647 9.55893 15.4687 9.66093C15.2227 9.90693 15.0112 10.1859 14.841 10.4934C14.7042 10.7472 14.5946 11.0146 14.514 11.2914C14.5065 11.3117 14.5065 11.3394 14.4997 11.3597H14.5747C14.9295 11.3597 15.291 11.3522 15.6457 11.3597C15.8572 11.3597 16.0687 11.3934 16.2735 11.4617C16.281 11.4692 16.287 11.4692 16.2937 11.4759L16.0965 11.9259C15.96 12.2462 15.8167 12.5672 15.6802 12.8942C15.639 12.9902 15.612 13.0104 15.5025 13.0104H14.5065C14.5342 13.1057 14.5545 13.1874 14.5815 13.2699C14.6775 13.5564 14.814 13.8287 14.9842 14.0814C15.087 14.2314 15.1957 14.3679 15.312 14.5044C15.3795 14.5862 15.4545 14.6679 15.5295 14.7362C15.7822 14.9814 16.0695 15.1937 16.3755 15.3639C16.635 15.5139 16.9147 15.6369 17.2012 15.7314C17.4742 15.8274 17.7607 15.8889 18.054 15.9159L18.5925 15.9572C18.6607 15.9647 18.729 15.9647 18.7972 15.9707C18.8107 15.9782 18.825 15.9842 18.8317 15.9984C18.9472 16.2707 19.0635 16.5437 19.1865 16.8167L19.479 17.4849C19.3837 17.5059 19.2952 17.5262 19.2 17.5329C18.9675 17.5464 18.729 17.5599 18.4972 17.5599C18.2857 17.5599 18.0742 17.5397 17.8695 17.5127C17.5858 17.4726 17.3037 17.4226 17.0235 17.3627C16.6877 17.2802 16.3591 17.1706 16.041 17.0349C15.6622 16.8727 15.3013 16.6717 14.964 16.4349C14.7882 16.3046 14.6154 16.1703 14.4457 16.0322C14.3345 15.9416 14.2295 15.8436 14.1315 15.7389C13.7007 15.3007 13.3458 14.7938 13.0815 14.2389C12.927 13.9103 12.8124 13.5643 12.7402 13.2084C12.7267 13.1739 12.72 13.1334 12.7125 13.0989C12.7125 13.0314 12.6787 13.0172 12.6172 13.0172H11.2395C11.1709 13.3876 11.061 13.7491 10.9117 14.0949C10.7908 14.3885 10.6376 14.6677 10.455 14.9274C10.3122 15.1282 10.1595 15.3216 9.9975 15.5072C9.88084 15.6488 9.75319 15.7809 9.61575 15.9024C9.40425 16.0869 9.17925 16.2572 8.95425 16.4274C8.68365 16.6197 8.39594 16.7866 8.09475 16.9262C7.53405 17.1928 6.93589 17.3721 6.321 17.4579C6.1095 17.4917 5.898 17.5127 5.68725 17.5329C5.56685 17.5398 5.44615 17.5398 5.32575 17.5329C5.148 17.5329 4.971 17.5254 4.80075 17.5194C4.7385 17.5119 4.677 17.5059 4.61625 17.4917C4.58175 17.4849 4.56825 17.4714 4.5885 17.4309C4.725 17.1167 4.86825 16.8032 5.00475 16.4889C5.08725 16.2984 5.16225 16.1214 5.25 15.9234V15.9227Z" fill="white"/>
</g>
<defs>
<clipPath id="clip0_116_4522">
<rect width="24" height="24" fill="white"/>
</clipPath>
</defs>
</svg>
