<svg width="15" height="15" viewBox="0 0 15 15" fill="none" xmlns="http://www.w3.org/2000/svg">
<path fill-rule="evenodd" clip-rule="evenodd" d="M9.96038 0H5.03311C4.58211 0.000584343 4.13915 0.130986 3.74853 0.378151C3.35792 0.625316 3.03334 0.980585 2.80726 1.40843L1.87927 3.17168H13.1076L12.1829 1.40843C11.9571 0.981115 11.6331 0.62619 11.2431 0.379057C10.8531 0.131924 10.4108 0.00121742 9.96038 0ZM0.000169818 7.49848C-0.00502199 7.99167 0.108916 8.4776 0.330415 8.90691L2.79405 13.5884C3.02013 14.0162 3.34471 14.3715 3.73532 14.6187C4.12594 14.8658 4.5689 14.9962 5.0199 14.9968H6.69094L3.97633 9.84102L1.16595 4.5042L0.343638 6.09004C0.117527 6.51794 -0.0010029 7.00396 0.000169818 7.49848ZM14.7621 8.68198L14.6961 8.83044L13.4709 11.1585L12.391 13.2006L12.1829 13.5916C11.9568 14.0194 11.6323 14.3747 11.2417 14.6219C10.851 14.869 10.4081 14.9994 9.95708 15H9.62683L7.74774 11.4337H10.109L11.5687 8.66389H6.28476L6.17907 8.46113L4.85809 5.94841H14.5937L14.6697 6.09324C14.8894 6.51942 15.0032 7.0013 14.9999 7.4908C15 7.90203 14.9189 8.30838 14.7621 8.68198Z" fill="#656E79"/>
</svg>
