<svg width="37" height="37" viewBox="0 0 37 37" fill="none" xmlns="http://www.w3.org/2000/svg">
<g clip-path="url(#clip0_461_17416)">
<path opacity="0.997" fill-rule="evenodd" clip-rule="evenodd" d="M17.0185 -0.0361328C17.5003 -0.0361328 17.982 -0.0361328 18.4638 -0.0361328C18.4638 2.18002 18.4638 4.39616 18.4638 6.6123C18.0755 6.57161 17.7743 6.71614 17.5605 7.0459C16.9967 8.17353 16.4306 9.30572 15.8623 10.4424C14.5684 10.684 13.2676 10.8888 11.9599 11.0566C11.2425 11.3966 11.0378 11.9386 11.3457 12.6826C12.3102 13.6351 13.2617 14.5987 14.2002 15.5732C13.9566 16.8202 13.7398 18.0728 13.5498 19.3311C13.6533 20.1456 14.1109 20.519 14.9228 20.4512C16.1073 19.8349 17.2877 19.2206 18.4638 18.6084C18.4638 21.8121 18.4638 25.016 18.4638 28.2197C17.8833 28.234 17.3051 28.21 16.7295 28.1475C12.8984 27.569 9.76681 25.7743 7.33493 22.7637C7.292 22.7301 7.2438 22.7181 7.1904 22.7275C3.97435 18.0988 3.48054 13.1847 5.70895 7.98535C8.09169 3.36647 11.8615 0.692641 17.0185 -0.0361328Z" fill="#FEDD45"/>
<path fill-rule="evenodd" clip-rule="evenodd" d="M18.4639 -0.0361328C18.9457 -0.0361328 19.4274 -0.0361328 19.9092 -0.0361328C25.3456 0.760408 29.2119 3.65103 31.5078 8.63574C33.3885 13.6563 32.7983 18.3536 29.7373 22.7275C29.0849 23.4162 28.4104 24.1028 27.7139 24.7871C25.5424 26.6312 23.0372 27.7513 20.1982 28.1475C19.6226 28.21 19.0444 28.234 18.4639 28.2197C18.4639 25.016 18.4639 21.8121 18.4639 18.6084C19.6423 19.2217 20.8226 19.836 22.0049 20.4512C22.8193 20.5161 23.277 20.1427 23.3779 19.3311C23.1879 18.0728 22.9711 16.8201 22.7275 15.5732C23.666 14.5987 24.6175 13.6351 25.582 12.6826C25.8511 12.0246 25.6945 11.5067 25.1123 11.1289C23.7562 10.9164 22.4073 10.6875 21.0654 10.4424C20.5038 9.34315 19.9618 8.2351 19.4395 7.11816C19.2159 6.75074 18.8907 6.58212 18.4639 6.6123C18.4639 4.39616 18.4639 2.18002 18.4639 -0.0361328Z" fill="#FABE2C"/>
<path fill-rule="evenodd" clip-rule="evenodd" d="M18.4641 6.61217C18.4641 10.6108 18.4641 14.6096 18.4641 18.6083C17.288 19.2205 16.1076 19.8348 14.9231 20.451C14.1112 20.5188 13.6535 20.1454 13.55 19.3309C13.7401 18.0726 13.9569 16.8201 14.2004 15.5731C13.262 14.5985 12.3105 13.635 11.3459 12.6825C11.0381 11.9384 11.2428 11.3964 11.9602 11.0565C13.2678 10.8886 14.5686 10.6839 15.8625 10.4423C16.4308 9.30559 16.997 8.1734 17.5608 7.04577C17.7746 6.71601 18.0758 6.57148 18.4641 6.61217Z" fill="#FABE2C"/>
<path fill-rule="evenodd" clip-rule="evenodd" d="M18.4639 6.61232C18.8907 6.58214 19.2159 6.75076 19.4395 7.11818C19.9618 8.23512 20.5038 9.34317 21.0654 10.4424C22.4073 10.6875 23.7562 10.9164 25.1123 11.1289C25.6945 11.5067 25.8511 12.0246 25.582 12.6826C24.6175 13.6352 23.666 14.5987 22.7275 15.5733C22.9711 16.8201 23.1879 18.0728 23.3779 19.3311C23.277 20.1427 22.8193 20.5161 22.0049 20.4512C20.8226 19.836 19.6423 19.2217 18.4639 18.6084C18.4639 14.6097 18.4639 10.611 18.4639 6.61232Z" fill="#FE9100"/>
<path opacity="0.993" fill-rule="evenodd" clip-rule="evenodd" d="M7.19019 22.7277C7.24359 22.7183 7.29179 22.7303 7.33472 22.7639C9.7666 25.7745 12.8982 27.5692 16.7293 28.1477C15.5576 30.9006 14.3652 33.6467 13.1521 36.3859C13.0022 36.6444 12.7975 36.8372 12.5378 36.9641C12.321 36.9641 12.1043 36.9641 11.8875 36.9641C11.6352 36.8674 11.4064 36.7229 11.2009 36.5305C10.5746 35.0852 9.94835 33.6398 9.32202 32.1945C9.28726 32.0516 9.203 31.9553 9.06909 31.9055C7.45497 32.4716 5.82899 33.0016 4.19117 33.4953C3.17385 33.2675 2.8607 32.6653 3.25171 31.6887C4.58527 28.7086 5.8981 25.7216 7.19019 22.7277Z" fill="#FF7B49"/>
<path opacity="0.991" fill-rule="evenodd" clip-rule="evenodd" d="M29.7373 22.7275C31.1173 25.8491 32.4783 28.9805 33.8203 32.1221C33.8873 32.9347 33.5139 33.3924 32.7002 33.4951C31.0769 32.9942 29.463 32.4642 27.8584 31.9053C27.7245 31.9551 27.6402 32.0514 27.6055 32.1943C27.0073 33.6516 26.381 35.0969 25.7266 36.5303C25.536 36.7031 25.3313 36.8476 25.1123 36.9639C24.8714 36.9639 24.6305 36.9639 24.3896 36.9639C24.13 36.837 23.9253 36.6442 23.7754 36.3857C22.5623 33.6465 21.3699 30.9004 20.1982 28.1475C23.0372 27.7513 25.5424 26.6312 27.7139 24.7871C28.4104 24.1028 29.0849 23.4162 29.7373 22.7275Z" fill="#FF435A"/>
</g>
<defs>
<clipPath id="clip0_461_17416">
<rect width="37" height="37" fill="white"/>
</clipPath>
</defs>
</svg>
