<svg width="21" height="25" viewBox="0 0 21 25" fill="none" xmlns="http://www.w3.org/2000/svg">
<path opacity="0.96" fill-rule="evenodd" clip-rule="evenodd" d="M9.28125 0.5H11.25C12.2031 0.601887 13.125 0.844074 14.0156 1.22656C14.4143 1.66955 14.383 2.0758 13.9219 2.44531C13.8012 2.49022 13.6762 2.51366 13.5469 2.51562C12.9736 2.35328 12.3955 2.20484 11.8125 2.07031C10.2468 1.79631 8.71552 1.93693 7.21875 2.49219C6.47934 2.58099 6.17466 2.26068 6.30469 1.53125C6.34608 1.40926 6.41639 1.3077 6.51563 1.22656C7.40986 0.858535 8.33175 0.616348 9.28125 0.5ZM9.51563 3.59375C10.4366 3.53361 11.3429 3.61955 12.2344 3.85156C12.6411 4.04798 12.7895 4.36829 12.6797 4.8125C12.5422 5.10821 12.3078 5.26447 11.9766 5.28125C10.8284 4.97046 9.67997 4.97046 8.53125 5.28125C7.95849 5.19943 7.73194 4.8713 7.85156 4.29688C7.94189 4.06589 8.10595 3.91745 8.34375 3.85156C8.73642 3.74479 9.12703 3.65885 9.51563 3.59375ZM20.0156 6.80469C13.5157 6.78125 7.01564 6.77342 0.515626 6.78125C0.236317 6.91231 0.0722543 7.13103 0.0234387 7.4375C-0.00781289 10.8125 -0.00781289 14.1875 0.0234387 17.5625C0.0628137 17.8678 0.226876 18.0787 0.515626 18.1953C7.01564 18.2266 13.5156 18.2266 20.0156 18.1953C20.3037 18.0793 20.4678 17.8684 20.5078 17.5625C20.5391 14.1875 20.5391 10.8125 20.5078 7.4375C20.4678 7.13164 20.3037 6.9207 20.0156 6.80469ZM4.24219 10.2031C4.10831 9.91348 3.88177 9.78847 3.5625 9.82812C3.3772 9.91203 3.24441 10.0527 3.16406 10.25C3.11822 11.7685 3.13383 13.2841 3.21094 14.7969C3.31481 14.9622 3.46327 15.0638 3.65625 15.1016C4.17188 15.1328 4.6875 15.1328 5.20313 15.1016C5.3902 15.0823 5.53866 14.9963 5.64844 14.8438C5.80242 14.4725 5.70089 14.1991 5.34375 14.0234C4.98474 14 4.62534 13.9922 4.26563 14C4.27345 12.7343 4.26563 11.4687 4.24219 10.2031ZM8.03906 10.25C7.91311 9.91339 7.67095 9.77277 7.3125 9.82812C7.15378 9.93233 7.0366 10.073 6.96094 10.25C6.92967 11.7344 6.92967 13.2187 6.96094 14.7031C7.00233 14.8251 7.07264 14.9267 7.17188 15.0078C7.58775 15.2025 7.87683 15.0853 8.03906 14.6562C8.07033 13.1875 8.07033 11.7187 8.03906 10.25ZM10.2891 10.1094C10.1393 9.88227 9.92841 9.78852 9.65625 9.82812C9.36849 9.95019 9.23569 10.169 9.25781 10.4844C9.73294 11.8941 10.2173 13.3004 10.7109 14.7031C11.0342 15.1961 11.4092 15.243 11.8359 14.8438C12.3387 13.4294 12.823 12.0075 13.2891 10.5781C13.3203 10.4531 13.3203 10.3281 13.2891 10.2031C13.0458 9.79278 12.7334 9.7303 12.3516 10.0156C11.9805 10.9879 11.6368 11.9722 11.3203 12.9688C10.9678 12.0208 10.6241 11.0676 10.2891 10.1094ZM16.9219 9.85156C16.2814 9.82812 15.6408 9.8203 15 9.82812C14.7863 9.89319 14.6379 10.0338 14.5547 10.25C14.5085 11.7696 14.5241 13.2853 14.6016 14.7969C14.6602 14.9319 14.7617 15.0178 14.9063 15.0547C15.6094 15.086 16.3125 15.086 17.0156 15.0547C17.4963 14.7301 17.5119 14.3863 17.0625 14.0234C16.5975 13.9567 16.1288 13.9333 15.6563 13.9531V13.0156C16.0628 13.0234 16.4691 13.0156 16.875 12.9922C16.9728 12.9551 17.0588 12.9004 17.1328 12.8281C17.334 12.4692 17.2637 12.1801 16.9219 11.9609C16.5038 11.8947 16.082 11.8712 15.6563 11.8906V10.9531C16.1455 10.9743 16.6299 10.9508 17.1094 10.8828C17.2329 10.7909 17.3189 10.6737 17.3672 10.5312C17.4131 10.1779 17.2647 9.95131 16.9219 9.85156ZM8.39063 19.7188C8.79853 19.7738 9.2048 19.8441 9.60938 19.9297L10.2422 19.9531C10.8978 19.9249 11.5462 19.8546 12.1875 19.7422C12.6289 19.9139 12.7929 20.2342 12.6797 20.7031C12.6121 20.8801 12.4949 21.0129 12.3281 21.1016C11.1218 21.4508 9.903 21.4977 8.67188 21.2422C7.9141 21.1247 7.67189 20.7107 7.94531 20C8.07858 19.8752 8.22699 19.7814 8.39063 19.7188ZM9.28125 24.5H11.25C12.1994 24.3837 13.1213 24.1415 14.0156 23.7734C14.1149 23.6923 14.1852 23.5907 14.2266 23.4688C14.3566 22.7393 14.0519 22.419 13.3125 22.5078C11.8158 23.063 10.2846 23.2037 8.71875 22.9297C8.13577 22.7952 7.55761 22.6467 6.98438 22.4844C6.85505 22.4863 6.73008 22.5098 6.60938 22.5547C6.15197 22.9252 6.1207 23.3314 6.51563 23.7734C7.40995 24.1415 8.3318 24.3837 9.28125 24.5Z" fill="#C93345"/>
</svg>
