<svg width="31" height="28" viewBox="0 0 31 28" fill="none" xmlns="http://www.w3.org/2000/svg">
<path fill-rule="evenodd" clip-rule="evenodd" d="M20.5848 0H10.4018C9.46972 0.00109077 8.55427 0.244508 7.747 0.705882C6.93973 1.16726 6.26894 1.83043 5.80171 2.62907L3.88387 5.92047H27.0891L25.1781 2.62907C24.7114 1.83142 24.0417 1.16889 23.2357 0.707573C22.4298 0.246258 21.5157 0.00227252 20.5848 0ZM0.000350958 13.9972C-0.0103788 14.9178 0.225093 15.8249 0.682858 16.6262L5.77437 25.365C6.2416 26.1636 6.9124 26.8268 7.71967 27.2882C8.52694 27.7496 9.44238 27.9929 10.3745 27.994H13.8279L8.21776 18.3699L2.40962 8.40787L0.710185 11.3681C0.242888 12.1668 -0.00207266 13.0741 0.000350958 13.9972ZM30.5084 16.2064L30.3719 16.4835L27.8398 20.8292L25.608 24.641L25.1781 25.3709C24.7108 26.1696 24.04 26.8328 23.2328 27.2942C22.4255 27.7555 21.51 27.9989 20.578 28H19.8955L16.012 21.3429H20.8919L23.9086 16.1726H12.9885L12.7701 15.7941L10.0401 11.1037H30.1603L30.3174 11.3741C30.7713 12.1696 31.0067 13.0691 30.9999 13.9828C31 14.7505 30.8323 15.509 30.5084 16.2064Z" fill="white"/>
</svg>
