<svg width="34" height="31" viewBox="0 0 34 31" fill="none" xmlns="http://www.w3.org/2000/svg">
<path fill-rule="evenodd" clip-rule="evenodd" d="M22.5769 0H11.4084C10.3861 0.00120764 9.38211 0.270705 8.49671 0.781512C7.61132 1.29232 6.87561 2.02654 6.36317 2.91076L4.25973 6.5548H29.7106L27.6147 2.91076C27.1029 2.02764 26.3683 1.29413 25.4844 0.783385C24.6004 0.272643 23.5979 0.002516 22.5769 0ZM0.000384921 15.4969C-0.0113832 16.5161 0.246876 17.5204 0.748941 18.4076L6.33318 28.0827C6.84563 28.9669 7.58134 29.7011 8.46673 30.2119C9.35212 30.7227 10.3562 30.9922 11.3784 30.9934H15.1661L9.01302 20.3381L2.64281 9.30871L0.778912 12.5861C0.266393 13.4704 -0.00227324 14.4749 0.000384921 15.4969ZM33.4609 17.9428L33.3111 18.2496L30.534 23.0609L28.0862 27.2811L27.6146 28.0892C27.1022 28.9735 26.3665 29.7077 25.4811 30.2185C24.5957 30.7293 23.5917 30.9988 22.5694 31H21.8208L17.5615 23.6296H22.9137L26.2223 17.9054H14.2454L14.0059 17.4863L11.0117 12.2934H33.0791L33.2513 12.5927C33.7492 13.4735 34.0073 14.4694 33.9998 15.481C34 16.3309 33.8161 17.1707 33.4609 17.9428Z" fill="url(#paint0_linear_960_27098)"/>
<defs>
<linearGradient id="paint0_linear_960_27098" x1="17" y1="3.38272e-06" x2="39.0366" y2="9.83271" gradientUnits="userSpaceOnUse">
<stop stop-color="#7E2CFF"/>
<stop offset="1" stop-color="#596BF7"/>
</linearGradient>
</defs>
</svg>
