<svg width="207" height="31" viewBox="0 0 207 31" fill="none" xmlns="http://www.w3.org/2000/svg">
<path fill-rule="evenodd" clip-rule="evenodd" d="M23.249 0H11.7481C10.6955 0.00120764 9.66153 0.270706 8.74979 0.781514C7.83805 1.29232 7.08045 2.02655 6.55275 2.91077L4.38672 6.55482H30.595L28.4367 2.91077C27.9096 2.02764 27.1532 1.29413 26.243 0.783387C25.3327 0.272643 24.3004 0.00251601 23.249 0ZM0.000396376 15.4971C-0.0117219 16.5163 0.254223 17.5206 0.771228 18.4078L6.52165 28.0829C7.04934 28.9671 7.80694 29.7013 8.71869 30.2121C9.63043 30.723 10.6643 30.9924 11.717 30.9936H15.6174L9.28124 20.3383L2.72145 9.30888L0.802091 12.5863C0.274321 13.4706 -0.00234089 14.475 0.000396376 15.4971ZM34.4571 17.9427L34.3029 18.2496L31.4431 23.0609L28.9225 27.2811L28.4369 28.0892C27.9092 28.9735 27.1516 29.7077 26.2398 30.2185C25.3281 30.7293 24.2942 30.9988 23.2415 31H22.4706L18.0846 23.6296H23.596L27.0031 17.9053H14.6698L14.4232 17.4863L11.3398 12.2933H34.0639L34.2413 12.5927C34.754 13.4734 35.0198 14.4693 35.0121 15.481C35.0123 16.3308 34.8229 17.1706 34.4571 17.9427Z" fill="url(#paint0_linear_961_26886)"/>
<path d="M75.6701 13.4194C75.3174 12.999 74.8757 12.6571 74.3751 12.4167C73.7689 12.1377 73.1032 12.0018 72.4326 12.0201H67.0368C66.5791 12.0265 66.1247 12.0971 65.6878 12.2297C65.1939 12.3753 64.7334 12.6116 64.3311 12.9255C63.9035 13.2701 63.5521 13.6952 63.2983 14.1751C62.9982 14.7599 62.8525 15.4079 62.8743 16.0608V19.9667C62.8516 20.5651 62.9712 21.1606 63.2238 21.7069C63.4765 22.2533 63.8554 22.7357 64.3311 23.1169C64.7314 23.4321 65.1927 23.6662 65.6878 23.8053C66.1244 23.94 66.5787 24.0132 67.0368 24.0223H72.4326C72.7357 24.0179 73.0377 23.9854 73.3344 23.9251C73.655 23.8596 73.9676 23.7618 74.2672 23.6332C74.5827 23.4958 74.8803 23.3225 75.1536 23.1169C75.4475 22.9062 75.7074 22.654 75.9245 22.3687C76.1467 22.0475 76.3206 21.6973 76.4409 21.3286C76.5723 20.8937 76.6372 20.4424 76.6336 19.9892V16.0832C76.6254 15.6336 76.5501 15.1875 76.4101 14.7588C76.2558 14.2698 76.0044 13.8147 75.6701 13.4194ZM73.6351 19.9667C73.6565 20.2832 73.5484 20.5951 73.3344 20.8347C73.2131 20.9416 73.0705 21.0233 72.9154 21.0748C72.7603 21.1263 72.596 21.1464 72.4326 21.134H67.0907C66.7612 21.1539 66.4369 21.0463 66.1889 20.8347C66.0801 20.7176 65.9967 20.5803 65.9437 20.4312C65.8907 20.2821 65.8693 20.1241 65.8805 19.9667V16.0608C65.868 15.9045 65.889 15.7473 65.9421 15.5992C65.9951 15.4512 66.0792 15.3153 66.1889 15.2003C66.4369 14.9887 66.7612 14.8811 67.0907 14.901H72.4326C72.7587 14.8794 73.0803 14.9843 73.3268 15.1928C73.4385 15.3126 73.5236 15.4536 73.5766 15.6068C73.6297 15.76 73.6496 15.9222 73.6351 16.0832V19.9667Z" fill="white"/>
<path d="M91.6499 13.4194C91.2937 13.0024 90.8529 12.6611 90.3549 12.4167C89.7486 12.1377 89.083 12.0018 88.4124 12.0201H83.0165C82.5588 12.026 82.1044 12.0966 81.6676 12.2297C81.1532 12.3797 80.6755 12.6294 80.2635 12.9638C79.8514 13.2982 79.5135 13.7103 79.2703 14.1751C78.9765 14.7618 78.8337 15.4088 78.8541 16.0608V19.9667C78.8331 20.6211 78.9759 21.2708 79.2703 21.8598C79.5222 22.3453 79.8768 22.7737 80.311 23.1169C80.7112 23.4321 81.1725 23.6662 81.6676 23.8053C82.104 23.9407 82.5584 24.0138 83.0165 24.0223H88.4124C89.0444 24.0117 89.6679 23.8794 90.2469 23.6332C90.5616 23.4942 90.859 23.321 91.1334 23.1169C91.4295 22.9086 91.6896 22.656 91.9042 22.3687C92.1294 22.0492 92.3035 21.6986 92.4207 21.3286C92.5558 20.8944 92.6208 20.4426 92.6134 19.9892V16.0832C92.6081 15.6339 92.5354 15.1878 92.3976 14.7588C92.2343 14.2719 91.9809 13.818 91.6499 13.4194ZM89.6148 19.9667C89.6362 20.2832 89.5283 20.5951 89.3143 20.8347C89.1921 20.9406 89.0494 21.0215 88.8945 21.0729C88.7396 21.1243 88.5757 21.1451 88.4124 21.134H83.0859C82.7564 21.1539 82.4321 21.0463 82.1841 20.8347C82.0753 20.7176 81.9919 20.5803 81.9389 20.4312C81.8859 20.2821 81.8644 20.1241 81.8757 19.9667V16.0608C81.8632 15.9045 81.8842 15.7473 81.9373 15.5992C81.9903 15.4512 82.0744 15.3153 82.1841 15.2003C82.4321 14.9887 82.7564 14.8811 83.0859 14.901H88.4278C88.5923 14.8796 88.7596 14.8955 88.9167 14.9476C89.0737 14.9996 89.2161 15.0865 89.3327 15.2011C89.4493 15.3157 89.5369 15.4551 89.5885 15.6081C89.6401 15.7612 89.6544 15.9238 89.6303 16.0832L89.6148 19.9667Z" fill="white"/>
<path d="M105.702 19.9672C105.723 20.2823 105.618 20.5929 105.41 20.8353C105.286 20.9417 105.142 21.023 104.986 21.0744C104.83 21.1258 104.664 21.1462 104.5 21.1345H99.1427C98.9818 21.1449 98.8204 21.1238 98.6681 21.0723C98.5158 21.0209 98.3757 20.9403 98.2562 20.8353C98.1456 20.7147 98.0613 20.5736 98.0083 20.4206C97.9553 20.2676 97.9348 20.1058 97.9479 19.9448V16.0613C97.9372 15.9051 97.959 15.7485 98.012 15.6006C98.0649 15.4528 98.148 15.3168 98.2562 15.2008C98.5066 14.988 98.8337 14.8804 99.1658 14.9015H104.5V12.0207H99.1427C98.6849 12.026 98.2303 12.0966 97.7937 12.2302C97.2992 12.3743 96.8383 12.6107 96.437 12.9261C96.0047 13.2681 95.6503 13.6936 95.3964 14.1757C95.0999 14.7616 94.9545 15.4087 94.9724 16.0613V19.9672C94.9772 20.2565 95.0108 20.5447 95.0726 20.8278C95.14 21.1413 95.2408 21.4473 95.3733 21.7406C95.5165 22.046 95.695 22.3347 95.9052 22.6012C96.1243 22.8848 96.3838 23.1367 96.676 23.3494C97.0014 23.5695 97.3603 23.7387 97.7397 23.8507C98.1864 23.9851 98.6519 24.0508 99.1195 24.0453H104.477C104.78 24.0409 105.082 24.0083 105.379 23.948C105.701 23.8816 106.016 23.7838 106.319 23.6562C106.632 23.5187 106.927 23.3454 107.198 23.1399C107.492 22.9291 107.752 22.6769 107.969 22.3916C108.194 22.0722 108.368 21.7216 108.485 21.3516C108.62 20.9174 108.685 20.4656 108.678 20.0121V6.97736H105.702V19.9672Z" fill="white"/>
<path d="M112.748 8.21115C112.572 8.28222 112.412 8.38647 112.278 8.51792C112.002 8.79535 111.848 9.16522 111.846 9.55053V24.022H114.822V17.5121H123.941V14.6013H114.845V10.9872H126.762V8.0989H113.342C113.138 8.09791 112.936 8.13607 112.748 8.21115Z" fill="white"/>
<path d="M131.579 12.1098C131.256 12.1778 130.941 12.2781 130.639 12.4091C130.321 12.5425 130.023 12.7161 129.752 12.9254C129.458 13.1359 129.198 13.3881 128.981 13.6737C128.753 13.9914 128.579 14.3426 128.465 14.7138C128.327 15.1448 128.259 15.5943 128.264 16.0457V24.0073H131.24V16.0607C131.227 15.9044 131.248 15.7472 131.301 15.5991C131.354 15.451 131.439 15.3152 131.548 15.2002C131.673 15.0942 131.819 15.0133 131.976 14.9619C132.134 14.9106 132.3 14.8898 132.466 14.9009H139.156V12.02H132.442C132.152 12.0236 131.863 12.0537 131.579 12.1098Z" fill="white"/>
<path d="M144.152 6.94672H141.176V9.55816H144.152V6.94672Z" fill="white"/>
<path d="M144.152 12.02H141.176V24.0222H144.152V12.02Z" fill="white"/>
<path d="M158.867 12.9105C158.474 12.6044 158.024 12.3734 157.542 12.2296C157.11 12.096 156.661 12.0254 156.208 12.02H150.812C150.154 12.0022 149.501 12.1383 148.908 12.4166C148.417 12.6586 147.984 12.9976 147.636 13.4118C147.321 13.794 147.083 14.2308 146.935 14.6989C146.797 15.1175 146.724 15.5538 146.719 15.9933V20.0415C146.7 20.6805 146.84 21.3146 147.128 21.8897C147.377 22.3661 147.726 22.7867 148.153 23.1243C148.545 23.4334 148.995 23.6647 149.479 23.8052C149.91 23.9406 150.359 24.0137 150.812 24.0223H156.208V21.2686H150.866C150.53 21.2754 150.203 21.1608 149.949 20.9469C149.821 20.8327 149.72 20.6922 149.655 20.5355C149.589 20.3789 149.561 20.2102 149.571 20.0415V16.0158C149.564 15.687 149.682 15.3672 149.903 15.1179C150.023 14.9958 150.17 14.9004 150.332 14.8384C150.495 14.7764 150.669 14.7493 150.843 14.7587H156.239C156.568 14.7546 156.886 14.8693 157.133 15.0805C157.259 15.193 157.358 15.3311 157.424 15.485C157.489 15.6388 157.519 15.8047 157.511 15.9709C157.518 16.2973 157.4 16.6147 157.179 16.8614C157.059 16.9848 156.913 17.0815 156.75 17.1448C156.588 17.2081 156.414 17.2365 156.239 17.228H150.843V19.9666H156.239C156.897 19.9845 157.55 19.8485 158.143 19.5701C158.628 19.3263 159.056 18.9874 159.399 18.5749C159.715 18.1926 159.953 17.756 160.101 17.2879C160.238 16.8691 160.311 16.4328 160.317 15.9933C160.335 15.3544 160.195 14.7205 159.908 14.1451C159.654 13.6673 159.3 13.2466 158.867 12.9105Z" fill="white"/>
<path d="M175.068 14.2349C174.797 13.8515 174.467 13.5108 174.089 13.2247C173.727 12.9522 173.334 12.7212 172.918 12.5364C172.523 12.3597 172.109 12.2266 171.684 12.1398C171.294 12.0612 170.896 12.021 170.497 12.02H163.799C163.598 12.0188 163.398 12.057 163.213 12.1323C163.037 12.2043 162.875 12.3056 162.735 12.4316C162.598 12.5606 162.49 12.7161 162.419 12.8881C162.341 13.0653 162.301 13.2564 162.303 13.4493V24.0223H165.271V14.9009H170.474C170.816 14.8988 171.156 14.9571 171.476 15.073C171.777 15.187 172.052 15.3574 172.286 15.5743C172.516 15.7852 172.7 16.0399 172.825 16.3226C172.965 16.6416 173.034 16.986 173.026 17.3328V23.9998H176.001V17.3328C176.01 16.7399 175.924 16.1492 175.747 15.5818C175.594 15.1014 175.365 14.647 175.068 14.2349Z" fill="white"/>
<path d="M189.197 19.9672C189.217 20.2823 189.112 20.5929 188.904 20.8353C188.781 20.9417 188.637 21.023 188.48 21.0744C188.324 21.1258 188.159 21.1462 187.994 21.1345H182.598C182.438 21.1449 182.276 21.1238 182.124 21.0723C181.972 21.0209 181.832 20.9403 181.712 20.8353C181.601 20.7147 181.517 20.5736 181.464 20.4206C181.411 20.2676 181.391 20.1058 181.404 19.9448V16.0613C181.399 15.9038 181.428 15.747 181.487 15.6004C181.547 15.4538 181.636 15.3204 181.751 15.2083C182.001 14.9955 182.328 14.8879 182.66 14.909H187.994V12.0282H182.598C182.141 12.0334 181.686 12.1041 181.249 12.2377C180.755 12.3818 180.294 12.6182 179.893 12.9336C179.461 13.2756 179.106 13.7011 178.852 14.1832C178.558 14.7698 178.416 15.4168 178.436 16.0688V19.9747C178.438 20.2638 178.469 20.552 178.528 20.8353C178.599 21.1479 178.7 21.4535 178.829 21.7481C178.972 22.0535 179.151 22.3422 179.361 22.6086C179.58 22.8923 179.84 23.1442 180.132 23.3569C180.459 23.5785 180.821 23.7477 181.203 23.8582C181.647 23.9932 182.11 24.0589 182.575 24.0528H187.971C188.274 24.0484 188.576 24.0158 188.873 23.9555C189.196 23.8891 189.511 23.7913 189.813 23.6637C190.127 23.5262 190.422 23.3529 190.692 23.1474C190.986 22.9366 191.246 22.6844 191.463 22.3991C191.688 22.0797 191.862 21.729 191.98 21.359C192.115 20.9249 192.18 20.4731 192.172 20.0196V6.97736H189.197V19.9672Z" fill="white"/>
<path d="M203.052 16.5767H198.427C198.211 16.5569 198.011 16.4596 197.865 16.304C197.719 16.1483 197.638 15.9454 197.638 15.7349C197.638 15.5244 197.719 15.3214 197.865 15.1658C198.011 15.0101 198.211 14.9128 198.427 14.8931H206.236V12.0122H198.443C197.492 12.1048 196.61 12.537 195.969 13.2249C195.328 13.9128 194.973 14.8073 194.973 15.7349C194.973 16.6624 195.328 17.5569 195.969 18.2448C196.61 18.9326 197.492 19.3648 198.443 19.4575H203.068C203.299 19.4575 203.52 19.5466 203.683 19.7051C203.847 19.8637 203.939 20.0788 203.939 20.303C203.939 20.5273 203.847 20.7423 203.683 20.9009C203.52 21.0594 203.299 21.1486 203.068 21.1486H194.588V24.0294H203.068C204.09 24.0294 205.07 23.6352 205.793 22.9336C206.516 22.2319 206.922 21.2803 206.922 20.288C206.922 19.2958 206.516 18.3442 205.793 17.6425C205.07 16.9409 204.09 16.5467 203.068 16.5467L203.052 16.5767Z" fill="white"/>
<path d="M59.961 15.0355C59.8277 14.901 59.6677 14.7941 59.4908 14.7212C59.303 14.6435 59.1013 14.6028 58.8972 14.6015H49.5085V17.5122H57.4172V21.1338H48.1673C48.0059 21.1427 47.8443 21.1202 47.692 21.0675C47.5398 21.0148 47.3999 20.933 47.2808 20.827C47.1708 20.7118 47.0861 20.5762 47.0318 20.4282C46.9775 20.2803 46.9547 20.1232 46.9648 19.9665V12.2145C46.9534 12.0537 46.9748 11.8923 47.0277 11.7395C47.0806 11.5867 47.164 11.4455 47.2731 11.324C47.3938 11.2184 47.5352 11.1375 47.6888 11.0861C47.8424 11.0347 48.0051 11.0138 48.1673 11.0247H60.2539V8.09902H48.1673C47.7026 8.09129 47.2396 8.15442 46.7952 8.28609C46.4142 8.4038 46.0533 8.57523 45.7237 8.7949C45.4298 9.00568 45.17 9.25788 44.9529 9.54317C44.7376 9.8076 44.5564 10.0966 44.4133 10.4037C44.2808 10.6971 44.18 11.003 44.1127 11.3166C44.0508 11.5996 44.0172 11.8878 44.0125 12.1771V19.989C44.0075 20.4428 44.0751 20.8947 44.2129 21.3284C44.33 21.6984 44.5041 22.049 44.7293 22.3685C44.9485 22.6521 45.208 22.904 45.5002 23.1167C45.7746 23.3208 46.072 23.494 46.3866 23.633C46.6889 23.7617 47.004 23.8595 47.327 23.9249C47.6186 23.9849 47.9155 24.0175 48.2135 24.0221H58.9435C59.1406 24.0246 59.3362 23.9888 59.5189 23.9168C59.7016 23.8449 59.8676 23.7382 60.0072 23.6031C60.1452 23.4719 60.2529 23.3138 60.3232 23.1392C60.4022 22.9569 60.4416 22.7608 60.4389 22.563V16.0606C60.4408 15.8678 60.4014 15.6767 60.3232 15.4994C60.2349 15.3232 60.1119 15.1656 59.961 15.0355Z" fill="white"/>
<defs>
<linearGradient id="paint0_linear_961_26886" x1="17.5061" y1="3.38272e-06" x2="39.9734" y2="10.3233" gradientUnits="userSpaceOnUse">
<stop stop-color="#7E2CFF"/>
<stop offset="1" stop-color="#596BF7"/>
</linearGradient>
</defs>
</svg>
