<svg width="207" height="31" viewBox="0 0 207 31" fill="none" xmlns="http://www.w3.org/2000/svg">
<path fill-rule="evenodd" clip-rule="evenodd" d="M23.249 0H11.7481C10.6955 0.00120764 9.66153 0.270706 8.74979 0.781514C7.83805 1.29232 7.08045 2.02655 6.55275 2.91077L4.38672 6.55482H30.595L28.4367 2.91077C27.9096 2.02764 27.1532 1.29413 26.243 0.783387C25.3327 0.272643 24.3004 0.00251601 23.249 0ZM0.000396376 15.4971C-0.0117219 16.5163 0.254223 17.5206 0.771228 18.4078L6.52165 28.0829C7.04934 28.9671 7.80694 29.7013 8.71869 30.2121C9.63043 30.723 10.6643 30.9924 11.717 30.9936H15.6174L9.28124 20.3383L2.72145 9.30888L0.802091 12.5863C0.274321 13.4706 -0.00234089 14.475 0.000396376 15.4971ZM34.4571 17.9427L34.3029 18.2496L31.4431 23.0609L28.9225 27.2811L28.4369 28.0892C27.9092 28.9735 27.1516 29.7077 26.2398 30.2185C25.3281 30.7293 24.2942 30.9988 23.2415 31H22.4706L18.0846 23.6296H23.596L27.0031 17.9053H14.6698L14.4232 17.4863L11.3398 12.2933H34.0639L34.2413 12.5927C34.754 13.4734 35.0198 14.4693 35.0121 15.481C35.0123 16.3308 34.8229 17.1706 34.4571 17.9427Z" fill="url(#paint0_linear_1021_60737)"/>
<path d="M75.6696 13.4194C75.3169 12.999 74.8753 12.6571 74.3746 12.4168C73.7684 12.1378 73.1028 12.0018 72.4321 12.0202H67.0363C66.5786 12.0265 66.1242 12.0971 65.6873 12.2297C65.1935 12.3754 64.7329 12.6116 64.3307 12.9256C63.903 13.2701 63.5516 13.6952 63.2978 14.1752C62.9977 14.7599 62.8521 15.4079 62.8738 16.0608V19.9667C62.8511 20.5652 62.9707 21.1607 63.2233 21.707C63.476 22.2533 63.8549 22.7358 64.3307 23.117C64.7309 23.4322 65.1922 23.6662 65.6873 23.8053C66.1239 23.9401 66.5782 24.0132 67.0363 24.0224H72.4321C72.7352 24.018 73.0372 23.9854 73.334 23.9251C73.6545 23.8597 73.9671 23.7619 74.2667 23.6333C74.5822 23.4959 74.8798 23.3226 75.1532 23.117C75.4471 22.9062 75.7069 22.654 75.924 22.3687C76.1462 22.0476 76.3201 21.6973 76.4404 21.3286C76.5718 20.8937 76.6368 20.4424 76.6331 19.9892V16.0832C76.6249 15.6336 76.5497 15.1875 76.4096 14.7588C76.2553 14.2698 76.0039 13.8148 75.6696 13.4194ZM73.6346 19.9667C73.656 20.2832 73.548 20.5951 73.334 20.8348C73.2126 20.9417 73.07 21.0234 72.9149 21.0748C72.7598 21.1263 72.5955 21.1464 72.4321 21.134H67.0902C66.7607 21.1539 66.4364 21.0463 66.1884 20.8348C66.0796 20.7176 65.9962 20.5803 65.9432 20.4312C65.8902 20.2821 65.8688 20.1241 65.88 19.9667V16.0608C65.8676 15.9045 65.8885 15.7473 65.9416 15.5993C65.9946 15.4512 66.0787 15.3153 66.1884 15.2003C66.4364 14.9887 66.7607 14.8811 67.0902 14.901H72.4321C72.7582 14.8794 73.0799 14.9843 73.3263 15.1928C73.438 15.3126 73.5231 15.4536 73.5761 15.6068C73.6292 15.76 73.6491 15.9222 73.6346 16.0832V19.9667Z" fill="black"/>
<path d="M91.6494 13.4194C91.2932 13.0024 90.8524 12.6611 90.3544 12.4168C89.7481 12.1378 89.0825 12.0018 88.4119 12.0202H83.016C82.5583 12.026 82.1039 12.0966 81.6671 12.2297C81.1527 12.3797 80.6751 12.6294 80.263 12.9638C79.8509 13.2983 79.513 13.7103 79.2698 14.1752C78.976 14.7618 78.8332 15.4088 78.8536 16.0608V19.9667C78.8326 20.6212 78.9754 21.2708 79.2698 21.8599C79.5217 22.3453 79.8763 22.7737 80.3105 23.117C80.7107 23.4322 81.172 23.6662 81.6671 23.8053C82.1036 23.9407 82.5579 24.0138 83.016 24.0224H88.4119C89.0439 24.0117 89.6674 23.8795 90.2464 23.6333C90.5611 23.4942 90.8585 23.321 91.1329 23.117C91.429 22.9086 91.6891 22.6561 91.9038 22.3687C92.1289 22.0493 92.3031 21.6986 92.4202 21.3286C92.5553 20.8945 92.6203 20.4427 92.6129 19.9892V16.0832C92.6076 15.6339 92.5349 15.1878 92.3971 14.7588C92.2338 14.272 91.9804 13.8181 91.6494 13.4194ZM89.6144 19.9667C89.6358 20.2832 89.5278 20.5951 89.3138 20.8348C89.1917 20.9406 89.0489 21.0216 88.894 21.073C88.7391 21.1244 88.5752 21.1451 88.4119 21.134H83.0854C82.7559 21.1539 82.4316 21.0463 82.1836 20.8348C82.0748 20.7176 81.9914 20.5803 81.9384 20.4312C81.8854 20.2821 81.864 20.1241 81.8752 19.9667V16.0608C81.8628 15.9045 81.8837 15.7473 81.9368 15.5993C81.9898 15.4512 82.0739 15.3153 82.1836 15.2003C82.4316 14.9887 82.7559 14.8811 83.0854 14.901H88.4273C88.5918 14.8796 88.7591 14.8955 88.9162 14.9476C89.0732 14.9997 89.2156 15.0865 89.3322 15.2011C89.4488 15.3157 89.5364 15.4551 89.588 15.6082C89.6397 15.7613 89.6539 15.9239 89.6298 16.0832L89.6144 19.9667Z" fill="black"/>
<path d="M105.7 19.9672C105.72 20.2823 105.616 20.5929 105.407 20.8353C105.284 20.9417 105.14 21.023 104.984 21.0744C104.828 21.1258 104.662 21.1462 104.498 21.1345H99.1405C98.9796 21.1449 98.8182 21.1238 98.6659 21.0723C98.5136 21.0209 98.3735 20.9403 98.254 20.8353C98.1434 20.7147 98.0591 20.5736 98.0061 20.4206C97.9531 20.2676 97.9326 20.1058 97.9457 19.9448V16.0613C97.935 15.9051 97.9568 15.7485 98.0098 15.6006C98.0627 15.4528 98.1458 15.3168 98.254 15.2008C98.5044 14.988 98.8315 14.8804 99.1636 14.9015H104.498V12.0207H99.1405C98.6827 12.026 98.2281 12.0966 97.7915 12.2302C97.297 12.3743 96.8361 12.6107 96.4348 12.9261C96.0025 13.2681 95.6481 13.6936 95.3942 14.1757C95.0977 14.7616 94.9523 15.4087 94.9702 16.0613V19.9672C94.975 20.2565 95.0086 20.5447 95.0704 20.8278C95.1378 21.1413 95.2386 21.4473 95.3711 21.7406C95.5143 22.046 95.6928 22.3347 95.903 22.6012C96.1221 22.8848 96.3816 23.1367 96.6738 23.3494C96.9992 23.5695 97.3581 23.7387 97.7375 23.8507C98.1842 23.9851 98.6497 24.0508 99.1173 24.0453H104.475C104.778 24.0409 105.08 24.0083 105.376 23.948C105.699 23.8816 106.014 23.7838 106.317 23.6562C106.63 23.5187 106.925 23.3454 107.196 23.1399C107.49 22.9291 107.749 22.6769 107.966 22.3916C108.192 22.0722 108.366 21.7216 108.483 21.3516C108.618 20.9174 108.683 20.4656 108.676 20.0121V6.97736H105.7V19.9672Z" fill="black"/>
<path d="M112.746 8.21118C112.57 8.28225 112.41 8.3865 112.275 8.51795C112 8.79538 111.845 9.16525 111.844 9.55056V24.022H114.819V17.5121H123.938V14.6014H114.842V10.9872H126.759V8.09893H113.339C113.136 8.09794 112.934 8.1361 112.746 8.21118Z" fill="black"/>
<path d="M131.581 12.1098C131.257 12.1778 130.942 12.2781 130.64 12.4091C130.322 12.5425 130.024 12.7161 129.754 12.9254C129.459 13.1358 129.2 13.3881 128.983 13.6737C128.755 13.9914 128.58 14.3425 128.466 14.7138C128.328 15.1448 128.26 15.5942 128.266 16.0457V24.0072H131.241V16.0606C131.229 15.9043 131.25 15.7472 131.303 15.5991C131.356 15.451 131.44 15.3152 131.55 15.2001C131.675 15.0942 131.82 15.0133 131.978 14.9619C132.135 14.9105 132.301 14.8898 132.467 14.9008H139.158V12.02H132.444C132.154 12.0236 131.865 12.0536 131.581 12.1098Z" fill="black"/>
<path d="M144.151 6.94672H141.176V9.55816H144.151V6.94672Z" fill="black"/>
<path d="M144.151 12.02H141.176V24.0222H144.151V12.02Z" fill="black"/>
<path d="M158.869 12.9105C158.475 12.6044 158.025 12.3734 157.543 12.2296C157.112 12.096 156.662 12.0254 156.209 12.0201H150.814C150.155 12.0023 149.502 12.1383 148.91 12.4167C148.419 12.6587 147.986 12.9976 147.638 13.4118C147.322 13.7941 147.084 14.2308 146.936 14.6989C146.798 15.1175 146.725 15.5538 146.72 15.9934V20.0415C146.701 20.6805 146.841 21.3146 147.129 21.8897C147.378 22.3662 147.728 22.7867 148.154 23.1244C148.546 23.4334 148.996 23.6648 149.48 23.8053C149.911 23.9406 150.361 24.0138 150.814 24.0223H156.209V21.2686H150.868C150.531 21.2755 150.204 21.1608 149.95 20.9469C149.822 20.8327 149.722 20.6922 149.656 20.5356C149.591 20.379 149.562 20.2102 149.573 20.0415V16.0158C149.565 15.6871 149.683 15.3672 149.904 15.1179C150.025 14.9958 150.171 14.9004 150.334 14.8384C150.496 14.7765 150.67 14.7493 150.844 14.7588H156.24C156.569 14.7546 156.888 14.8693 157.134 15.0805C157.261 15.1931 157.36 15.3312 157.425 15.485C157.49 15.6389 157.52 15.8047 157.512 15.9709C157.519 16.2974 157.401 16.6147 157.181 16.8614C157.061 16.9848 156.914 17.0816 156.752 17.1449C156.59 17.2082 156.415 17.2365 156.24 17.228H150.844V19.9667H156.24C156.899 19.9845 157.551 19.8485 158.144 19.5701C158.629 19.3264 159.057 18.9875 159.401 18.5749C159.716 18.1927 159.954 17.756 160.102 17.2879C160.24 16.8692 160.312 16.4329 160.318 15.9934C160.336 15.3544 160.196 14.7206 159.909 14.1452C159.656 13.6673 159.301 13.2466 158.869 12.9105Z" fill="black"/>
<path d="M175.07 14.2349C174.799 13.8515 174.468 13.5108 174.091 13.2247C173.729 12.9521 173.336 12.7211 172.919 12.5363C172.525 12.3596 172.111 12.2266 171.686 12.1398C171.295 12.0611 170.898 12.021 170.499 12.02H163.8C163.599 12.0188 163.4 12.057 163.214 12.1323C163.038 12.2043 162.877 12.3056 162.736 12.4316C162.599 12.5606 162.492 12.7161 162.42 12.888C162.342 13.0653 162.303 13.2564 162.305 13.4492V24.0222H165.272V14.9009H170.476C170.818 14.8988 171.157 14.9571 171.478 15.073C171.779 15.187 172.054 15.3573 172.287 15.5743C172.518 15.7852 172.701 16.0399 172.827 16.3225C172.967 16.6415 173.035 16.986 173.027 17.3327V23.9998H176.002V17.3327C176.011 16.7398 175.925 16.1492 175.748 15.5818C175.595 15.1013 175.367 14.6469 175.07 14.2349Z" fill="black"/>
<path d="M189.196 19.9672C189.217 20.2823 189.112 20.5929 188.903 20.8353C188.78 20.9417 188.636 21.023 188.48 21.0744C188.324 21.1258 188.158 21.1462 187.994 21.1345H182.598C182.437 21.1449 182.276 21.1238 182.123 21.0723C181.971 21.0209 181.831 20.9403 181.712 20.8353C181.601 20.7147 181.517 20.5736 181.464 20.4206C181.411 20.2676 181.39 20.1058 181.403 19.9448V16.0613C181.399 15.9038 181.427 15.747 181.487 15.6004C181.546 15.4538 181.636 15.3204 181.75 15.2083C182 14.9955 182.328 14.8879 182.66 14.909H187.994V12.0282H182.598C182.14 12.0334 181.686 12.1041 181.249 12.2377C180.754 12.3818 180.294 12.6182 179.892 12.9336C179.46 13.2756 179.106 13.7011 178.852 14.1832C178.558 14.7698 178.415 15.4168 178.436 16.0688V19.9747C178.438 20.2638 178.469 20.552 178.528 20.8353C178.599 21.1479 178.7 21.4535 178.829 21.7481C178.972 22.0535 179.15 22.3422 179.361 22.6086C179.58 22.8923 179.839 23.1442 180.131 23.3569C180.459 23.5785 180.82 23.7477 181.203 23.8582C181.647 23.9932 182.11 24.0589 182.575 24.0528H187.971C188.274 24.0484 188.576 24.0158 188.873 23.9555C189.195 23.8891 189.51 23.7913 189.813 23.6637C190.126 23.5262 190.421 23.3529 190.692 23.1474C190.986 22.9366 191.245 22.6844 191.463 22.3991C191.688 22.0797 191.862 21.729 191.979 21.359C192.114 20.9249 192.179 20.4731 192.172 20.0196V6.97736H189.196V19.9672Z" fill="black"/>
<path d="M203.05 16.5766H198.425C198.209 16.5568 198.008 16.4596 197.862 16.3039C197.716 16.1482 197.635 15.9453 197.635 15.7348C197.635 15.5243 197.716 15.3214 197.862 15.1657C198.008 15.01 198.209 14.9128 198.425 14.893H206.233V12.0122H198.44C197.489 12.1048 196.608 12.537 195.967 13.2249C195.326 13.9127 194.971 14.8073 194.971 15.7348C194.971 16.6624 195.326 17.5569 195.967 18.2447C196.608 18.9326 197.489 19.3648 198.44 19.4574H203.065C203.296 19.4574 203.518 19.5465 203.681 19.7051C203.844 19.8637 203.936 20.0787 203.936 20.303C203.936 20.5272 203.844 20.7423 203.681 20.9008C203.518 21.0594 203.296 21.1485 203.065 21.1485H194.586V24.0293H203.065C204.087 24.0293 205.068 23.6352 205.79 22.9336C206.513 22.2319 206.919 21.2803 206.919 20.288C206.919 19.2957 206.513 18.3441 205.79 17.6425C205.068 16.9408 204.087 16.5467 203.065 16.5467L203.05 16.5766Z" fill="black"/>
<path d="M59.9605 15.0355C59.8272 14.901 59.6672 14.7941 59.4903 14.7212C59.3025 14.6435 59.1008 14.6028 58.8967 14.6015H49.508V17.5122H57.4167V21.1338H48.1668C48.0054 21.1427 47.8438 21.1202 47.6915 21.0675C47.5393 21.0148 47.3995 20.933 47.2803 20.827C47.1703 20.7118 47.0856 20.5762 47.0313 20.4282C46.977 20.2803 46.9542 20.1232 46.9643 19.9665V12.2145C46.9529 12.0537 46.9743 11.8923 47.0272 11.7395C47.0801 11.5867 47.1635 11.4455 47.2726 11.324C47.3933 11.2184 47.5347 11.1375 47.6883 11.0861C47.8419 11.0347 48.0047 11.0138 48.1668 11.0247H60.2534V8.09902H48.1668C47.7021 8.09129 47.2391 8.15442 46.7947 8.28609C46.4138 8.4038 46.0528 8.57523 45.7232 8.7949C45.4294 9.00568 45.1695 9.25788 44.9524 9.54317C44.7371 9.8076 44.5559 10.0966 44.4128 10.4037C44.2803 10.6971 44.1796 11.003 44.1122 11.3166C44.0503 11.5996 44.0167 11.8878 44.012 12.1771V19.989C44.007 20.4428 44.0746 20.8947 44.2124 21.3284C44.3295 21.6984 44.5037 22.049 44.7288 22.3685C44.948 22.6521 45.2075 22.904 45.4997 23.1167C45.7741 23.3208 46.0715 23.494 46.3862 23.633C46.6884 23.7617 47.0035 23.8595 47.3265 23.9249C47.6181 23.9849 47.915 24.0175 48.213 24.0221H58.943C59.1401 24.0246 59.3357 23.9888 59.5184 23.9168C59.7011 23.8449 59.8671 23.7382 60.0067 23.6031C60.1447 23.4719 60.2524 23.3138 60.3227 23.1392C60.4017 22.9569 60.4411 22.7608 60.4384 22.563V16.0606C60.4403 15.8678 60.4009 15.6767 60.3227 15.4994C60.2344 15.3232 60.1114 15.1656 59.9605 15.0355Z" fill="black"/>
<defs>
<linearGradient id="paint0_linear_1021_60737" x1="17.5061" y1="3.38272e-06" x2="39.9734" y2="10.3233" gradientUnits="userSpaceOnUse">
<stop stop-color="#7E2CFF"/>
<stop offset="1" stop-color="#596BF7"/>
</linearGradient>
</defs>
</svg>
