<svg width="24" height="24" viewBox="0 0 24 24" fill="none" xmlns="http://www.w3.org/2000/svg">
<g clip-path="url(#clip0_116_4550)">
<path d="M12 24C18.6274 24 24 18.6274 24 12C24 5.37258 18.6274 0 12 0C5.37258 0 0 5.37258 0 12C0 18.6274 5.37258 24 12 24Z" fill="#DA1157"/>
<path d="M15.7389 14.3761C16.3409 14.3761 16.9181 14.137 17.3437 13.7114C17.7693 13.2857 18.0084 12.7085 18.0084 12.1066C18.0084 11.5047 17.7693 10.9274 17.3437 10.5018C16.9181 10.0762 16.3409 9.83708 15.7389 9.83708C15.137 9.83708 14.5598 10.0762 14.1342 10.5018C13.7085 10.9274 13.4694 11.5047 13.4694 12.1066C13.4694 12.7085 13.7085 13.2857 14.1342 13.7114C14.5598 14.137 15.137 14.3761 15.7389 14.3761ZM15.7389 6.87233C16.6032 6.87182 17.4542 7.08529 18.2158 7.4937C18.9775 7.9021 19.6262 8.49274 20.1041 9.21289C20.582 9.93303 20.8741 10.7603 20.9544 11.6208C21.0347 12.4813 20.9007 13.3484 20.5644 14.1445C20.2281 14.9406 19.6999 15.6411 19.0269 16.1835C18.354 16.7258 17.5573 17.093 16.7078 17.2525C15.8584 17.4119 14.9827 17.3586 14.1589 17.0972C13.3351 16.8358 12.5888 16.3746 11.9867 15.7546C12.9386 14.779 13.4708 13.4696 13.4694 12.1066C13.4709 10.7435 12.9386 9.43411 11.9867 8.45858C12.4738 7.95605 13.057 7.55664 13.7016 7.28413C14.3462 7.01162 15.0391 6.87158 15.7389 6.87233ZM8.23519 14.3761C8.8371 14.3761 9.41436 14.137 9.83997 13.7114C10.2656 13.2857 10.5047 12.7085 10.5047 12.1066C10.5047 11.5047 10.2656 10.9274 9.83997 10.5018C9.41436 10.0762 8.8371 9.83708 8.23519 9.83708C7.63328 9.83708 7.05603 10.0762 6.63041 10.5018C6.2048 10.9274 5.96569 11.5047 5.96569 12.1066C5.96569 12.7085 6.2048 13.2857 6.63041 13.7114C7.05603 14.137 7.63328 14.3761 8.23519 14.3761ZM11.9874 8.45858C11.0358 9.43428 10.5039 10.7437 10.5054 12.1066C10.5054 13.5256 11.0709 14.8118 11.9874 15.7546C11.2615 16.5018 10.329 17.0154 9.30951 17.2297C8.28997 17.4439 7.22969 17.3491 6.26434 16.9574C5.29899 16.5657 4.47247 15.8948 3.89056 15.0306C3.30865 14.1665 2.9978 13.1484 2.9978 12.1066C2.9978 11.0648 3.30865 10.0467 3.89056 9.18252C4.47247 8.31838 5.29899 7.64751 6.26434 7.25577C7.22969 6.86403 8.28997 6.76923 9.30951 6.98351C10.329 7.19778 11.2615 7.71138 11.9874 8.45858ZM10.5047 12.1073C10.5047 13.5263 11.0702 14.8126 11.9874 15.7553C12.9391 14.7797 13.4711 13.4703 13.4694 12.1073C13.4711 10.7444 12.9391 9.43498 11.9874 8.45933C11.0355 9.43486 10.5033 10.7443 10.5047 12.1073Z" fill="white"/>
</g>
<defs>
<clipPath id="clip0_116_4550">
<rect width="24" height="24" fill="white"/>
</clipPath>
</defs>
</svg>
