<svg width="248" height="247" viewBox="0 0 248 247" fill="none" xmlns="http://www.w3.org/2000/svg">
<g filter="url(#filter0_d_1021_67523)">
<path fill-rule="evenodd" clip-rule="evenodd" d="M111.441 51.4932C99.9168 51.4932 88.3918 51.4932 76.8672 51.4932C76.8672 54.9723 76.8672 58.4515 76.8672 61.9307C90.1316 61.9307 103.396 61.9307 116.66 61.9307C144.059 61.8763 171.457 61.9307 198.855 62.0938C200.323 62.6917 201.356 63.7246 201.954 65.1924C202.172 87.3721 202.172 109.552 201.954 131.731C201.356 133.199 200.323 134.232 198.855 134.83C194.725 134.993 190.594 135.048 186.461 134.993C186.515 121.946 186.461 108.899 186.298 95.8525C184.501 88.5104 179.88 84.216 172.436 82.9688C139.601 82.7512 106.766 82.7512 73.9316 82.9688C67.3497 84.7669 63.1639 88.9527 61.374 95.5264C61.2109 108.682 61.1566 121.837 61.2109 134.993C57.078 135.048 52.9465 134.993 48.8164 134.83C47.3486 134.232 46.3158 133.199 45.7178 131.731C45.5003 102.594 45.5003 73.4553 45.7178 44.3174C46.3158 42.8496 47.3486 41.8167 48.8164 41.2188C67.5169 41.0013 86.2176 41.0013 104.918 41.2188C105.917 41.5648 106.732 42.1627 107.364 43.0127C108.816 45.8069 110.175 48.6337 111.441 51.4932Z" fill="url(#paint0_linear_1021_67523)"/>
<path fill-rule="evenodd" clip-rule="evenodd" d="M111.441 51.4932C113.347 54.8687 115.086 58.3479 116.66 61.9307C103.396 61.9307 90.1316 61.9307 76.8672 61.9307C76.8672 58.4515 76.8672 54.9723 76.8672 51.4932C88.3918 51.4932 99.9168 51.4932 111.441 51.4932Z" fill="white"/>
<path fill-rule="evenodd" clip-rule="evenodd" d="M186.462 134.993C182.983 134.993 179.504 134.993 176.024 134.993C176.079 125.534 176.024 116.075 175.861 106.616C175.645 105.862 175.482 105.101 175.372 104.333C173.248 98.4609 169.117 94.8186 162.977 93.4063C136.326 93.0837 109.688 93.1926 83.0653 93.7324C77.4659 95.4178 73.8239 99.0598 72.1386 104.659C71.6592 114.754 71.4961 124.866 71.6493 134.993C68.1701 134.993 64.691 134.993 61.2118 134.993C61.1574 121.837 61.2118 108.682 61.3749 95.5264C63.1647 88.9527 67.3506 84.7669 73.9325 82.9688C106.767 82.7512 139.602 82.7512 172.436 82.9688C179.881 84.216 184.502 88.5104 186.299 95.8525C186.462 108.899 186.516 121.946 186.462 134.993Z" fill="#653CA5"/>
<path fill-rule="evenodd" clip-rule="evenodd" d="M175.372 104.333C174.398 104.171 173.419 104.007 172.437 103.844C146.778 103.626 121.119 103.626 95.4599 103.844C88.2297 105.42 83.8264 109.823 82.25 117.054C82.0324 142.713 82.0324 168.371 82.25 194.03C82.477 195.002 82.6401 195.98 82.7392 196.966C76.9161 195.11 73.2737 191.196 71.8125 185.224C71.6494 168.481 71.595 151.737 71.6494 134.993C71.4962 124.866 71.6593 114.754 72.1386 104.659C73.824 99.0598 77.466 95.4178 83.0654 93.7324C109.689 93.1926 136.326 93.0837 162.978 93.4063C169.117 94.8186 173.248 98.4609 175.372 104.333Z" fill="#DFDEDD"/>
<path fill-rule="evenodd" clip-rule="evenodd" d="M175.371 104.333C175.481 105.101 175.645 105.862 175.86 106.616C176.024 116.075 176.078 125.534 176.024 134.993C176.078 151.737 176.024 168.481 175.86 185.224C174.175 191.693 170.098 195.77 163.629 197.455C137.1 197.673 110.572 197.673 84.0431 197.455C83.5349 197.387 83.1001 197.224 82.7384 196.966C82.6392 195.98 82.4761 195.002 82.2491 194.03C82.0315 168.371 82.0315 142.713 82.2491 117.054C83.8255 109.823 88.2288 105.42 95.4591 103.844C121.118 103.626 146.777 103.626 172.436 103.844C173.418 104.007 174.397 104.171 175.371 104.333Z" fill="white"/>
<path fill-rule="evenodd" clip-rule="evenodd" d="M133.622 121.62C134.274 122.925 134.927 124.229 135.579 125.534C130.961 125.369 127.427 127.218 124.978 131.079C123.744 133.914 122.385 136.686 120.901 139.396C117.169 139.867 113.472 140.52 109.811 141.354C102.921 144.936 101.236 150.209 104.756 157.173C107.256 159.674 109.757 162.174 112.258 164.675C111.915 168.366 111.535 172.062 111.116 175.765C109.637 175.879 108.223 175.661 106.876 175.112C102.71 173.151 100.536 169.835 100.352 165.164C100.969 161.523 101.458 157.881 101.82 154.237C99.3194 151.737 96.819 149.236 94.3182 146.735C90.776 139.532 92.5699 134.15 99.7001 130.59C103.284 129.965 106.872 129.367 110.464 128.796C112.04 125.643 113.617 122.49 115.193 119.337C118.741 115.018 123.145 113.876 128.403 115.912C130.775 117.25 132.514 119.153 133.622 121.62Z" fill="#D3922A"/>
<path fill-rule="evenodd" clip-rule="evenodd" d="M133.621 121.62C134.94 122.091 136.082 122.852 137.046 123.903C138.319 125.58 139.244 127.429 139.818 129.448C138.899 129.53 138.029 129.367 137.209 128.959C136.53 127.873 135.986 126.732 135.578 125.534C134.926 124.229 134.273 122.925 133.621 121.62Z" fill="#E1DCD8"/>
<path fill-rule="evenodd" clip-rule="evenodd" d="M135.581 125.534C135.989 126.732 136.533 127.873 137.212 128.959C138.032 129.367 138.901 129.53 139.821 129.448C142.904 129.834 145.948 130.432 148.954 131.242C151.407 132.445 153.256 134.239 154.499 136.624C155.577 140.152 155.196 143.522 153.357 146.735C150.857 149.236 148.356 151.737 145.855 154.237C145.935 156.973 146.261 159.691 146.834 162.392C147.607 171.295 143.529 175.698 134.602 175.602C130.934 173.985 127.346 172.191 123.839 170.22C120.561 172.185 117.191 173.979 113.727 175.602C112.864 175.764 111.995 175.818 111.118 175.765C111.537 172.062 111.917 168.366 112.26 164.675C109.759 162.174 107.258 159.674 104.758 157.173C101.238 150.209 102.923 144.936 109.813 141.354C113.474 140.52 117.171 139.867 120.903 139.396C122.387 136.686 123.746 133.914 124.98 131.079C127.429 127.218 130.963 125.369 135.581 125.534Z" fill="#FEC044"/>
<path fill-rule="evenodd" clip-rule="evenodd" d="M154.496 136.624C158.993 139.095 160.896 142.9 160.204 148.04C159.816 149.577 159.164 150.991 158.247 152.28C155.855 154.672 153.463 157.064 151.071 159.456C151.212 162.183 151.538 164.901 152.05 167.61C152.821 176.515 148.744 180.918 139.818 180.82C136.15 179.203 132.562 177.41 129.055 175.438C125.777 177.403 122.407 179.197 118.943 180.82C115.291 181.614 112.029 180.853 109.158 178.537C108.107 177.573 107.346 176.431 106.875 175.112C108.222 175.661 109.636 175.879 111.115 175.765C111.992 175.818 112.862 175.764 113.725 175.602C117.188 173.979 120.559 172.185 123.836 170.22C127.343 172.191 130.931 173.985 134.6 175.602C143.527 175.698 147.604 171.295 146.831 162.392C146.259 159.691 145.932 156.973 145.853 154.237C148.353 151.737 150.854 149.236 153.354 146.735C155.193 143.522 155.574 140.152 154.496 136.624Z" fill="#E0DDDD"/>
</g>
<defs>
<filter id="filter0_d_1021_67523" x="-4.5" y="-5" width="257" height="257" filterUnits="userSpaceOnUse" color-interpolation-filters="sRGB">
<feFlood flood-opacity="0" result="BackgroundImageFix"/>
<feColorMatrix in="SourceAlpha" type="matrix" values="0 0 0 0 0 0 0 0 0 0 0 0 0 0 0 0 0 0 127 0" result="hardAlpha"/>
<feOffset dy="4"/>
<feGaussianBlur stdDeviation="22.5"/>
<feComposite in2="hardAlpha" operator="out"/>
<feColorMatrix type="matrix" values="0 0 0 0 0 0 0 0 0 0 0 0 0 0 0 0 0 0 0.13 0"/>
<feBlend mode="normal" in2="BackgroundImageFix" result="effect1_dropShadow_1021_67523"/>
<feBlend mode="normal" in="SourceGraphic" in2="effect1_dropShadow_1021_67523" result="shape"/>
</filter>
<linearGradient id="paint0_linear_1021_67523" x1="123.836" y1="41.0557" x2="207.202" y2="97.5694" gradientUnits="userSpaceOnUse">
<stop stop-color="#7E2CFF"/>
<stop offset="1" stop-color="#596BF7"/>
</linearGradient>
</defs>
</svg>
