<svg width="204" height="204" viewBox="0 0 204 204" fill="none" xmlns="http://www.w3.org/2000/svg">
<g opacity="0.4">
<g opacity="0.987">
<path fill-rule="evenodd" clip-rule="evenodd" d="M181.885 18.926C165.284 18.926 148.682 18.926 132.081 18.926C140.866 10.0182 151.491 6.63145 163.956 8.7658C171.024 10.3057 177.001 13.6924 181.885 18.926Z" fill="url(#paint0_linear_2795_86063)" fill-opacity="0.5"/>
<path fill-rule="evenodd" clip-rule="evenodd" d="M132.081 18.926C148.682 18.926 165.284 18.926 181.885 18.926C185.856 22.778 188.513 27.4265 189.854 32.8713C183.213 32.8713 176.573 32.8713 169.932 32.8713C170.159 30.7687 169.827 28.7766 168.936 26.8947C165.723 24.3524 163.199 24.8837 161.366 28.4885C161.167 29.9434 161.101 31.4044 161.167 32.8713C158.378 32.8713 155.589 32.8713 152.799 32.8713C152.866 31.2721 152.799 29.6783 152.6 28.0901C150.577 24.9527 148.12 24.5542 145.229 26.8947C144.779 27.3419 144.513 27.8732 144.432 28.4885C144.041 29.8678 143.908 31.3288 144.034 32.8713C137.362 32.998 130.722 32.8652 124.112 32.4729C125.759 27.3127 128.416 22.7971 132.081 18.926Z" fill="url(#paint1_linear_2795_86063)" fill-opacity="0.5"/>
<path fill-rule="evenodd" clip-rule="evenodd" d="M144.432 28.4885C144.366 30.7502 144.433 33.008 144.632 35.2619C144.94 36.2338 145.538 36.9643 146.424 37.4533C150.473 38.6551 152.598 37.1277 152.799 32.8713C155.589 32.8713 158.378 32.8713 161.167 32.8713C161.115 35.0934 162.045 36.7536 163.956 37.8518C167.823 38.433 169.816 36.7728 169.932 32.8713C176.573 32.8713 183.213 32.8713 189.854 32.8713C190.308 34.154 190.64 35.4821 190.85 36.8557C191.049 40.1735 191.116 43.4936 191.049 46.8166C180.557 46.8166 170.065 46.8166 159.573 46.8166C157.847 46.8166 156.12 46.8166 154.393 46.8166C144.034 46.8166 133.674 46.8166 123.315 46.8166C122.688 42.0429 122.953 37.2616 124.112 32.4729C130.722 32.8652 137.362 32.998 144.034 32.8713C143.908 31.3288 144.041 29.8678 144.432 28.4885Z" fill="url(#paint2_linear_2795_86063)" fill-opacity="0.5"/>
<path fill-rule="evenodd" clip-rule="evenodd" d="M123.315 46.8166C133.674 46.8166 144.034 46.8166 154.393 46.8166C149.484 47.5099 145.034 49.3694 141.046 52.3947C139.717 55.9249 140.846 58.1828 144.432 59.1682C146.86 58.2868 149.251 57.2907 151.604 56.1799C157.508 54.6662 162.953 55.5962 167.94 58.969C172.832 59.6116 174.625 57.5533 173.319 52.7932C171.7 51.0855 169.774 49.824 167.542 49.008C164.869 48.1418 162.213 47.4115 159.573 46.8166C170.065 46.8166 180.557 46.8166 191.049 46.8166C190.249 52.2613 188.257 57.1752 185.073 61.5588C166.281 61.1608 147.422 61.0281 128.495 61.1604C125.511 56.8576 123.784 52.0764 123.315 46.8166Z" fill="url(#paint3_linear_2795_86063)" fill-opacity="0.5"/>
<path fill-rule="evenodd" clip-rule="evenodd" d="M128.495 61.1604C147.422 61.0281 166.281 61.1608 185.073 61.5588C178.342 71.3341 168.978 76.2479 156.983 76.3009C144.791 76.2156 135.295 71.1691 128.495 61.1604Z" fill="url(#paint4_linear_2795_86063)" fill-opacity="0.5"/>
</g>
<path opacity="0.991" fill-rule="evenodd" clip-rule="evenodd" d="M196.629 93.2344C186.27 93.0352 175.911 92.9687 165.551 93.0352V98.6133V98.6133V105.387V105.785V118.535V119.73V127.301C176.177 127.367 186.801 127.301 197.426 127.102C198.476 126.32 199.206 125.324 199.617 124.113C199.816 122.259 199.883 120.399 199.816 118.535V104.59V97.8165V97.8164C199.785 95.5609 198.723 94.0333 196.629 93.2344ZM174.516 108.176C174.192 107.404 173.992 106.608 173.918 105.785C174.135 104.951 174.467 104.154 174.914 103.395C177.657 101.148 180.181 101.413 182.484 104.191C183.231 103.311 184.094 102.581 185.074 102C188.566 101.314 190.558 102.708 191.051 106.184C190.823 107.9 190.026 109.295 188.66 110.367C191.509 112.641 191.775 115.165 189.457 117.937C186.794 119.53 184.536 119.065 182.684 116.543C179.412 119.946 176.557 119.681 174.117 115.746C173.838 113.511 174.569 111.652 176.309 110.168C175.785 109.444 175.187 108.78 174.516 108.176Z" fill="url(#paint5_linear_2795_86063)" fill-opacity="0.5"/>
<path fill-rule="evenodd" clip-rule="evenodd" d="M77.4975 67.9336C82.7704 67.7201 87.9501 68.2512 93.0366 69.5274C98.3438 71.4506 103.258 74.107 107.779 77.4961C114.064 82.8571 118.447 89.4979 120.927 97.418C121.889 99.6695 122.486 102.06 122.72 104.59C123.03 108.195 122.964 111.781 122.521 115.348C121.974 120.856 120.381 126.036 117.74 130.887C115.127 135.307 111.939 139.292 108.177 142.84C104.08 145.884 99.6973 148.407 95.0288 150.41C91.2281 151.409 87.3764 152.206 83.4741 152.801C79.4527 152.951 75.4683 152.685 71.521 152.004C66.4704 150.674 61.6891 148.682 57.1772 146.027C52.396 142.574 48.2789 138.457 44.8257 133.676C44.3244 132.804 43.926 131.875 43.6303 130.887C38.9452 122.828 37.2187 114.195 38.4507 104.988L38.4507 104.988C38.8262 100.279 40.1544 95.8957 42.435 91.8396L42.4351 91.8397C43.0591 90.1551 43.8559 88.5615 44.8257 87.0586C48.2789 82.2774 52.396 78.1603 57.1772 74.7071C61.5875 71.8383 66.3688 69.8461 71.521 68.7305C73.5072 68.4325 75.4994 68.1667 77.4975 67.9336ZM38.4507 113.355L38.4507 113.355H77.0991C78.8502 109.279 81.772 106.291 85.8647 104.39C88.8976 101.646 89.8937 98.2589 88.853 94.2303C85.7125 88.0923 81.1305 86.6978 75.1069 90.0467C72.4561 92.7588 71.1942 96.0129 71.3217 99.8084C68.9172 102.424 66.5266 102.424 64.1499 99.8084C63.4411 97.4406 63.3745 95.05 63.9506 92.6368L63.9507 92.6368C67.3091 84.1819 73.551 80.1314 82.6772 80.4844C92.7601 82.7945 97.674 89.1034 97.4194 99.4102C96.4791 105.728 93.1585 110.31 87.4585 113.156C86.6859 113.727 86.1548 114.457 85.8647 115.348C84.9451 116.761 84.4801 118.355 84.4702 120.129C83.1645 122.364 81.2389 123.094 78.6928 122.32C77.6222 121.573 76.8915 120.577 76.5014 119.332C76.2193 117.289 76.4186 115.297 77.0991 113.355H38.4507ZM78.6928 131.684C83.0804 131.091 85.0061 132.951 84.4702 137.262C82.2525 140.576 79.7292 140.842 76.8999 138.059C75.7655 135.425 76.3632 133.3 78.6928 131.684ZM25.3022 112.16C25.0061 105.468 25.9358 98.9595 28.0913 92.6367C21.0815 92.9634 14.0425 93.1627 6.97409 93.2344C5.44676 93.6994 4.45067 94.6954 3.98581 96.2227C3.78665 100.869 3.72024 105.518 3.78659 110.168C3.72024 114.818 3.78665 119.467 3.98581 124.113C4.39676 125.324 5.12721 126.32 6.17722 127.102C13.3479 127.301 20.5197 127.367 27.6928 127.301C27.8674 127.327 28.0003 127.261 28.0913 127.102C26.4559 122.259 25.5262 117.279 25.3022 112.16ZM133.279 93.0352H165.552V98.6133V105.387V105.785V118.535V119.73V127.301H133.279C134.071 124.399 134.735 121.477 135.271 118.535C135.632 114.165 135.765 109.782 135.669 105.387C135.281 101.188 134.484 97.0701 133.279 93.0352Z" fill="url(#paint6_linear_2795_86063)" fill-opacity="0.4"/>
<path opacity="0.991" fill-rule="evenodd" clip-rule="evenodd" d="M84.2685 55.1835V55.1836C87.5018 55.2354 90.6893 55.6338 93.831 56.3789C99.2609 57.6559 104.308 59.7808 108.972 62.7539C115.539 66.398 120.984 71.3119 125.308 77.4961C128.693 82.275 131.349 87.4546 133.276 93.0352C134.482 97.0701 135.278 101.188 135.667 105.387C135.763 109.782 135.63 114.165 135.268 118.535C134.732 121.477 134.068 124.399 133.276 127.301C132.336 130.652 131.008 133.839 129.292 136.863C129.315 137.305 129.447 137.704 129.69 138.059C132.465 140.634 135.188 143.29 137.858 146.027C138.922 148.616 138.457 150.874 136.464 152.801L140.05 156.785C141.643 158.113 143.105 159.574 144.433 161.168C146.292 162.762 148.018 164.488 149.612 166.348C151.472 167.941 153.198 169.668 154.792 171.527C157.833 174.369 160.821 177.29 163.757 180.293C165.641 183.407 166.039 186.727 164.952 190.254C162.367 194.633 158.582 196.226 153.597 195.035C151.781 194.459 150.321 193.397 149.214 191.848C147.487 190.387 145.894 188.793 144.433 187.066C142.573 185.473 140.847 183.746 139.253 181.887C135.933 178.832 132.745 175.644 129.69 172.324L126.304 169.137L122.917 165.949C122.485 166.781 121.821 167.312 120.925 167.543C118.496 168.816 116.504 168.285 114.948 165.949L107.378 158.777C103.682 161.021 99.6972 162.615 95.4247 163.559C91.7185 164.773 87.8668 165.436 83.8701 165.551C79.8749 165.63 75.8905 165.497 71.9169 165.152C66.7082 164.346 61.7942 162.752 57.1747 160.371C52.4441 158.607 48.327 155.951 44.8232 152.402C40.0997 149.008 36.3809 144.758 33.6669 139.652C31.1519 135.817 29.1597 131.7 27.6904 127.301C27.865 127.327 27.9978 127.261 28.0888 127.102C26.4535 122.259 25.5237 117.279 25.2997 112.16C25.0036 105.468 25.9333 98.9595 28.0888 92.6367C29.2132 88.3965 31.0726 84.5449 33.6669 81.082C36.5147 75.9753 40.2336 71.5924 44.8232 67.9336C48.5028 64.6628 52.6198 62.0064 57.1747 59.9648C61.7508 57.8643 66.532 56.4032 71.5185 55.582V55.582C75.8105 54.8305 80.0606 54.6979 84.2685 55.1835ZM95.0263 150.41C91.2256 151.409 87.3739 152.206 83.4716 152.801C79.4502 152.951 75.4658 152.685 71.5185 152.004C66.4679 150.674 61.6866 148.682 57.1747 146.027C52.3935 142.574 48.2764 138.457 44.8232 133.676C44.3219 132.804 43.9235 131.875 43.6279 130.887C38.9428 122.828 37.2162 114.195 38.4482 104.988C38.8237 100.279 40.1519 95.8959 42.4326 91.8398C43.0565 90.1553 43.8534 88.5615 44.8232 87.0586C48.2764 82.2773 52.3935 78.1603 57.1747 74.707C61.585 71.8383 66.3663 69.8461 71.5185 68.7305V68.7304C73.5047 68.4324 75.4969 68.1666 77.4951 67.9335C79.4095 67.5403 81.4017 67.4072 83.4716 67.5351V67.5352C81.4017 67.4073 79.4095 67.5403 77.4951 67.9336C82.768 67.72 87.9477 68.2511 93.0341 69.5273C98.3413 71.4506 103.256 74.107 107.776 77.4961C114.062 82.8571 118.444 89.4978 120.925 97.418C121.886 99.6695 122.484 102.06 122.718 104.59C123.027 108.195 122.961 111.781 122.518 115.348C121.972 120.856 120.378 126.036 117.737 130.887C115.124 135.307 111.937 139.292 108.175 142.84C104.078 145.884 99.6948 148.407 95.0263 150.41Z" fill="url(#paint7_linear_2795_86063)" fill-opacity="0.5"/>
<path opacity="0.958" fill-rule="evenodd" clip-rule="evenodd" d="M56.3779 169.734C49.8715 169.535 43.3638 169.469 36.8545 169.535C35.9109 170.046 35.0476 170.711 34.2647 171.527C33.0809 174.238 33.6786 176.429 36.0576 178.102C43.0968 178.367 50.1356 178.367 57.1748 178.102C60.5627 174.928 60.297 172.139 56.3779 169.734ZM56.7764 186.867C50.0041 186.668 43.2307 186.601 36.4561 186.668C35.6843 187.238 34.9538 187.902 34.2647 188.66C32.971 191.541 33.7014 193.732 36.4561 195.234C43.2295 195.5 50.0029 195.5 56.7764 195.234C57.488 194.922 58.0856 194.457 58.5693 193.84C60.2412 190.916 59.6435 188.592 56.7764 186.867Z" fill="url(#paint8_linear_2795_86063)" fill-opacity="0.4"/>
</g>
<defs>
<linearGradient id="paint0_linear_2795_86063" x1="157.029" y1="8.14697" x2="157.029" y2="76.3009" gradientUnits="userSpaceOnUse">
<stop stop-color="#9D66F7"/>
<stop offset="1" stop-color="#8860FD"/>
</linearGradient>
<linearGradient id="paint1_linear_2795_86063" x1="157.029" y1="8.14697" x2="157.029" y2="76.3009" gradientUnits="userSpaceOnUse">
<stop stop-color="#9D66F7"/>
<stop offset="1" stop-color="#8860FD"/>
</linearGradient>
<linearGradient id="paint2_linear_2795_86063" x1="157.029" y1="8.14697" x2="157.029" y2="76.3009" gradientUnits="userSpaceOnUse">
<stop stop-color="#9D66F7"/>
<stop offset="1" stop-color="#8860FD"/>
</linearGradient>
<linearGradient id="paint3_linear_2795_86063" x1="157.029" y1="8.14697" x2="157.029" y2="76.3009" gradientUnits="userSpaceOnUse">
<stop stop-color="#9D66F7"/>
<stop offset="1" stop-color="#8860FD"/>
</linearGradient>
<linearGradient id="paint4_linear_2795_86063" x1="157.029" y1="8.14697" x2="157.029" y2="76.3009" gradientUnits="userSpaceOnUse">
<stop stop-color="#9D66F7"/>
<stop offset="1" stop-color="#8860FD"/>
</linearGradient>
<linearGradient id="paint5_linear_2795_86063" x1="182.696" y1="93.0103" x2="182.696" y2="127.326" gradientUnits="userSpaceOnUse">
<stop stop-color="#9D66F7"/>
<stop offset="1" stop-color="#8860FD"/>
</linearGradient>
<linearGradient id="paint6_linear_2795_86063" x1="80.4887" y1="67.8877" x2="80.5014" y2="163.5" gradientUnits="userSpaceOnUse">
<stop stop-color="white"/>
<stop offset="0.882825" stop-color="white" stop-opacity="0"/>
</linearGradient>
<linearGradient id="paint7_linear_2795_86063" x1="27.499" y1="95" x2="201.999" y2="206" gradientUnits="userSpaceOnUse">
<stop stop-color="#9B66F6"/>
<stop offset="1" stop-color="#8860FD"/>
</linearGradient>
<linearGradient id="paint8_linear_2795_86063" x1="46.5878" y1="169.51" x2="46.5878" y2="216.5" gradientUnits="userSpaceOnUse">
<stop stop-color="white"/>
<stop offset="1" stop-color="white" stop-opacity="0"/>
</linearGradient>
</defs>
</svg>
