<svg xmlns="http://www.w3.org/2000/svg" viewBox="0 0 48 48"><title>06-picture</title><g id="_06-picture" data-name="06-picture"><path d="M34.61,19.94,29.12,8.18,6.18,18.88l4.74,10.16,2.25,4.84,2.06,4.41,22.95-10.7-2.06-4.41ZM31.01,3,45,33.01,14.99,47,1,16.99Z" style="fill:#e9edf5"/><path d="M39.086,27.167l-9.06-19.41A1,1,0,0,0,28.7,7.274l-22.94,10.7A1,1,0,0,0,5.273,19.3l9.051,19.41a1,1,0,0,0,1.329.483L38.6,28.5a1,1,0,0,0,.483-1.329Z" style="fill:#cdd2e1"/><polygon points="22.41 14.53 21.88 18 19.24 19.23 20.88 20.23 19 24 14 24 11 29 10.92 29.04 6.18 18.88 29.12 8.18 34.61 19.94 28 19 27.92 19.07 27.53 18.59 28.06 15.12 25.41 16.35 22.41 14.53" style="fill:#c78ff5"/><polygon points="22 29.76 36.12 23.18 38.18 27.59 15.23 38.29 13.17 33.88 18.47 31.41 18.54 31.41 18.41 33.59 20.64 31.47 23.7 31.12 21.95 29.83 22 29.76" style="fill:#ff8fb8"/><polygon points="34.61 19.94 28 19 27.92 19.07 30.06 21.71 25.71 21.59 23 25 22.81 24 22.24 21.06 20.88 20.23 19 24 14 24 11 29 10.92 29.04 13.17 33.88 18.47 31.41 18.54 31.41 18.56 31.15 16.76 30.06 18.53 29.23 18.59 27.06 20.29 28.41 22.06 27.59 21.74 29.67 21.95 29.83 22 29.76 36.12 23.18 34.61 19.94" style="fill:#a7e340"/><path d="M22.819,29.229l.229-1.487a1,1,0,0,0-1.409-1.059l-1.21.561-1.217-.967a1,1,0,0,0-1.622.756l-.042,1.553-1.213.569a1,1,0,0,0-.093,1.761l1.279.774-.109,1.84a1,1,0,0,0,1.688.784l1.986-1.888,2.727-.312a1,1,0,0,0,.481-1.8Z" style="fill:#8f4cd6"/><path d="M30.837,21.081,28.586,18.3l.462-3.032a1,1,0,0,0-1.409-1.058l-2.166,1.005-2.544-1.543a1,1,0,0,0-1.507.7l-.449,2.941-2.156,1a1,1,0,0,0-.1,1.759l2.623,1.6.675,3.5a1,1,0,0,0,.743.784A.977.977,0,0,0,23,26a1,1,0,0,0,.783-.378l2.4-3.019,3.85.106a.96.96,0,0,0,.924-.556A1,1,0,0,0,30.837,21.081Z" style="fill:#8f4cd6"/><polygon points="18.54 31.41 18.56 31.15 16.76 30.06 18.53 29.23 18.59 27.06 20.29 28.41 22.06 27.59 21.74 29.67 21.95 29.83 23.7 31.12 20.64 31.47 18.41 33.59 18.54 31.41" style="fill:#f5cd62"/><polygon points="22.81 24 22.24 21.06 20.88 20.23 19.24 19.23 21.88 18 22.41 14.53 25.41 16.35 28.06 15.12 27.53 18.59 27.92 19.07 30.06 21.71 25.71 21.59 23 25 22.81 24" style="fill:#f5cd62"/><polygon points="47 1 13 1 13 11.396 17 9.531 17 5 26.72 5 31.01 3 31.942 5 43 5 43 27 42.198 27 45 33.01 40.731 35 47 35 47 1" style="fill:#e9edf5"/><polygon points="43 27 43 5 31.942 5 42.198 27 43 27" style="fill:#ff8fb8"/><polygon points="17 5 17 9.531 26.72 5 17 5" style="fill:#ff8fb8"/><path d="M31.01,3l.932,2H33.6L32.369,2.366a1.5,1.5,0,0,0-1.993-.725L23.17,5h3.55Z" style="fill:#bec3d2"/><path d="M46.359,32.376,43,25.17V27h-.8L45,33.01,40.731,35h3.55l1.354-.631A1.5,1.5,0,0,0,46.359,32.376Z" style="fill:#bec3d2"/><polygon points="17 9.531 17 7.876 13 9.741 13 11.396 17 9.531" style="fill:#bec3d2"/><polygon points="42.198 27 43 27 43 25.17 33.597 5 31.942 5 42.198 27" style="fill:#ff5f96"/><polygon points="26.72 5 23.17 5 17 7.876 17 9.531 26.72 5" style="fill:#ff5f96"/><path d="M28.7,7.274a1,1,0,0,1,1.329.483l9.06,19.41A1,1,0,0,1,38.6,28.5l-5.181,2.415a61.024,61.024,0,0,0,11.1,1.082L31.01,3,7.834,13.8a16.509,16.509,0,0,0,1.207,2.638Z" style="fill:#f2f5f9"/><path d="M39.119,27.932a1,1,0,0,0-.033-.765l-9.06-19.41A1,1,0,0,0,28.7,7.274L9.041,16.442q.246.435.518.862L29.12,8.18l5.49,11.76,1.51,3.24,2.06,4.41-6.395,2.982q.81.182,1.637.339L38.6,28.5A1,1,0,0,0,39.119,27.932Z" style="fill:#dce1eb"/><path d="M16.2,24H19l1.432-2.872L18.72,20.083a1,1,0,0,1,.1-1.759l2.156-1,.449-2.941a1,1,0,0,1,1.507-.7l2.544,1.543,2.166-1.005a1,1,0,0,1,1.409,1.058L28.586,18.3l.715.882,5.309.755L29.12,8.18,9.559,17.3A24.473,24.473,0,0,0,16.2,24Z" style="fill:#e0b8ff"/><path d="M31.785,30.572l6.4-2.982-2.06-4.41L24.767,28.471A51.2,51.2,0,0,0,31.785,30.572Z" style="fill:#ffa1c8"/><path d="M30.837,21.081a1,1,0,0,1,.119,1.072.96.96,0,0,1-.924.556l-3.85-.106-2.4,3.019A1,1,0,0,1,23,26a.977.977,0,0,1-.239-.029,1,1,0,0,1-.743-.784l-.675-3.5-.911-.556L19,24H16.2a36.272,36.272,0,0,0,4.957,2.908l.487-.225a1,1,0,0,1,1.409,1.059l0,.03q.846.363,1.724.7L36.12,23.18l-1.51-3.24L29.3,19.185Z" style="fill:#cdf55f"/><path d="M23.048,27.742a1,1,0,0,0-1.409-1.059l-.487.225c.614.3,1.246.587,1.891.864Z" style="fill:#c78ff5"/><path d="M30.837,21.081l-1.536-1.9-.715-.882.462-3.032a1,1,0,0,0-1.409-1.058l-2.166,1.005-2.544-1.543a1,1,0,0,0-1.507.7l-.449,2.941-2.156,1a1,1,0,0,0-.1,1.759l1.712,1.045.911.556.675,3.5a1,1,0,0,0,.743.784A.977.977,0,0,0,23,26a1,1,0,0,0,.783-.378l2.4-3.019,3.85.106a.96.96,0,0,0,.924-.556A1,1,0,0,0,30.837,21.081Zm-5.127.509L23,25l-.19-1-.57-2.94-1.36-.83-1.64-1L21.88,18l.53-3.47,3,1.82,2.65-1.23-.53,3.47.39.48,2.14,2.64Z" style="fill:#c78ff5"/><polygon points="28.06 15.12 25.41 16.35 22.41 14.53 21.88 18 19.24 19.23 20.88 20.23 22.24 21.06 22.81 24 23 25 25.71 21.59 30.06 21.71 27.92 19.07 27.53 18.59 28.06 15.12" style="fill:#fdffbf"/><ellipse cx="16.003" cy="19.987" rx="1.642" ry="2.286" transform="translate(-9.447 17.178) rotate(-45.02)" style="fill:#f6fafd"/><ellipse cx="32" cy="28" rx="0.825" ry="1.148" transform="translate(-10.425 30.843) rotate(-45.02)" style="fill:#f6fafd"/><ellipse cx="11.746" cy="18.5" rx="0.413" ry="0.574" transform="translate(-9.643 13.732) rotate(-45.02)" style="fill:#f6fafd"/><path d="M35.577,27.7l.846,1.812L38.6,28.5a1,1,0,0,0,.483-1.329L30.029,7.753A1,1,0,0,0,28.7,7.27L5.754,17.971A1,1,0,0,0,5.271,19.3l9.053,19.417a1,1,0,0,0,1.329.484l16.77-7.82-.846-1.813-15.863,7.4-1.212-2.6,1.921-.9-.846-1.812-1.921.9-1.583-3.4L14.566,25H21V23h-.382l.673-1.346.048.029.68,3.507a1,1,0,0,0,.744.781A.961.961,0,0,0,23,26a1,1,0,0,0,.783-.378l2.4-3.02,3.853.105a.974.974,0,0,0,.924-.557,1,1,0,0,0-.12-1.072l-.607-.75,3.7.53.858,1.838-8.214,3.83.846,1.813,8.213-3.83,1.213,2.6Zm-9.843-7.113a.992.992,0,0,0-.81.378l-1.356,1.708-.35-1.807a1,1,0,0,0-.462-.664l-1.4-.854.955-.445a1,1,0,0,0,.565-.755l.3-1.988L24.9,17.207a1,1,0,0,0,.942.052l.954-.445-.248,1.624a1,1,0,0,0,.212.781l1.159,1.429Zm2.888-2.51.429-2.81a1,1,0,0,0-1.411-1.057L25.478,15.22l-2.543-1.546a1,1,0,0,0-1.508.7l-.449,2.942-2.165,1.008a1,1,0,0,0-.1,1.761l.859.523L18.382,23H14a1,1,0,0,0-.857.485l-2.09,3.483L7.506,19.361,28.64,9.505l4.284,9.188Z"/><rect x="32.913" y="28.537" width="2.19" height="2" transform="translate(-9.297 17.139) rotate(-24.999)"/><path d="M17.985,34.494a1,1,0,0,0,1.112-.18l1.993-1.888,2.728-.314a1,1,0,0,0,.479-1.8l-1.478-1.088.227-1.486a1,1,0,0,0-1.411-1.057l-1.2.562-1.223-.97a1,1,0,0,0-1.621.756l-.042,1.559-1.205.562a1,1,0,0,0-.1,1.761l1.283.781-.115,1.832A1,1,0,0,0,17.985,34.494Zm.965-4.353a1,1,0,0,0,.577-.879l0-.178.14.11a1,1,0,0,0,1.044.123l.071-.033-.036.236a1,1,0,0,0,.32.895l-.541.062a1,1,0,0,0-.573.268l-.395.374a1,1,0,0,0-.48-.821l-.2-.124Z"/><rect x="23.897" y="27.365" width="2.208" height="2" transform="translate(-9.642 13.217) rotate(-24.989)"/><path d="M47,0H13a1,1,0,0,0-1,1v9.76L.577,16.086a1,1,0,0,0-.483,1.329L14.086,47.423a1,1,0,0,0,1.329.483L45.423,33.914a1,1,0,0,0,.483-1.329l-2.8-6.009-1.812.844,2.379,5.1L15.476,45.671,2.329,17.477l28.2-13.148,9.836,21.1,1.813-.845-10.259-22a1,1,0,0,0-1.329-.484L26,4.232V4H21V6h1.208L14,9.827V2H46V31h2V1A1,1,0,0,0,47,0Z"/><rect x="42" y="20" width="2" height="2"/><path d="M44,5a1,1,0,0,0-1-1H35V6h7V18h2Z"/><path d="M16,5V7h2V6h1V4H17A1,1,0,0,0,16,5Z"/></g></svg>