<svg width="119" height="119" viewBox="0 0 119 119" fill="none" xmlns="http://www.w3.org/2000/svg">
<g opacity="0.84" filter="url(#filter0_f_2589_82049)">
<circle cx="59.5" cy="59.5" r="27.5" fill="url(#paint0_linear_2589_82049)"/>
</g>
<circle opacity="0.5" cx="59.5" cy="59.5" r="29.5" fill="url(#paint1_linear_2589_82049)"/>
<circle cx="59.5" cy="59.5" r="27.5" fill="url(#paint2_linear_2589_82049)"/>
<path d="M67.0184 58.2355C67.9426 58.8252 67.9426 60.1748 67.0184 60.7645L57.0569 67.1212C56.0584 67.7583 54.75 67.0412 54.75 65.8567V53.1433C54.75 51.9588 56.0584 51.2417 57.0569 51.8788L67.0184 58.2355Z" fill="white"/>
<path d="M34.52 111H36.08V107.796H37.808C39.44 107.796 40.736 106.956 40.736 105.216C40.736 103.656 39.572 102.696 37.856 102.696H34.52V111ZM36.08 103.956H37.688C38.516 103.956 39.164 104.34 39.164 105.252C39.164 106.14 38.576 106.536 37.64 106.536H36.08V103.956ZM43.386 111V102.228H41.898V111H43.386ZM49.9006 106.776C49.9006 105.336 49.0246 104.7 47.4166 104.688C45.5806 104.676 44.9446 105.6 44.8606 106.608H46.2886C46.3726 106.152 46.5406 105.78 47.3566 105.78C48.2806 105.78 48.4366 106.284 48.4366 106.764V107.184H47.5006C45.6886 107.184 44.5726 107.832 44.5726 109.224C44.5726 110.172 45.1966 111.144 46.6726 111.144C47.8006 111.144 48.2446 110.7 48.4606 110.328C48.4726 110.556 48.5086 110.868 48.5566 111H49.9846C49.9486 110.844 49.9006 110.064 49.9006 109.488V106.776ZM48.4486 108.3C48.4486 109.212 48.2926 110.052 47.0686 110.052C46.4086 110.052 46.0726 109.644 46.0726 109.14C46.0726 108.444 46.5526 108.12 47.6446 108.12H48.4486V108.3ZM50.7285 104.832L52.9965 111.204C52.7205 112.008 52.4085 112.26 51.7365 112.26C51.5805 112.26 51.4005 112.248 51.2685 112.236V113.46C51.5445 113.496 51.8565 113.508 52.0245 113.508C53.4285 113.508 53.9085 113.004 54.5085 111.216L56.6325 104.832H55.1445C54.3165 107.604 53.9325 108.996 53.7765 109.644H53.7645C53.6445 109.044 53.0925 107.244 52.3245 104.832H50.7285ZM62.128 111V108.204C62.128 106.704 62.116 105.108 62.056 104.304H62.068C62.524 105.252 64.84 109.32 65.812 111H67.66V102.696H66.232V105.432C66.232 106.788 66.232 108.18 66.316 109.116H66.304C65.896 108.216 63.748 104.592 62.656 102.696H60.688V111H62.128ZM72.0422 104.688C70.1222 104.688 69.0062 106.056 69.0062 107.928C69.0062 109.776 70.0982 111.144 71.9702 111.144C73.9022 111.144 74.9822 109.74 74.9822 107.904C74.9822 105.972 73.8302 104.688 72.0422 104.688ZM71.9822 105.876C72.9422 105.876 73.4582 106.596 73.4582 107.928C73.4582 109.176 72.9422 109.956 72.0062 109.956C71.0822 109.956 70.5182 109.164 70.5182 107.916C70.5182 106.572 71.0702 105.876 71.9822 105.876ZM75.5877 104.832L77.3517 111H78.9597C79.5597 108.708 79.9677 107.148 80.0757 106.404H80.0877C80.2197 107.172 80.6157 108.696 81.1557 111H82.7517L84.6117 104.832H83.1237C82.3197 108.012 82.1157 108.936 81.9717 109.584H81.9597C81.8757 108.948 81.6357 108.024 80.8557 104.832H79.4517C78.6477 107.856 78.3837 109.008 78.2637 109.656H78.2517C78.1317 108.936 77.7837 107.448 77.1597 104.832H75.5877Z" fill="url(#paint3_linear_2589_82049)"/>
<defs>
<filter id="filter0_f_2589_82049" x="0" y="0" width="119" height="119" filterUnits="userSpaceOnUse" color-interpolation-filters="sRGB">
<feFlood flood-opacity="0" result="BackgroundImageFix"/>
<feBlend mode="normal" in="SourceGraphic" in2="BackgroundImageFix" result="shape"/>
<feGaussianBlur stdDeviation="16" result="effect1_foregroundBlur_2589_82049"/>
</filter>
<linearGradient id="paint0_linear_2589_82049" x1="59.5" y1="32" x2="96.1747" y2="46.9203" gradientUnits="userSpaceOnUse">
<stop stop-color="#7E2CFF"/>
<stop offset="0.0001" stop-color="#7E2CFF"/>
<stop offset="1" stop-color="#596BF7"/>
</linearGradient>
<linearGradient id="paint1_linear_2589_82049" x1="59.5" y1="30" x2="98.8419" y2="46.0054" gradientUnits="userSpaceOnUse">
<stop stop-color="#7E2CFF"/>
<stop offset="0.0001" stop-color="#7E2CFF"/>
<stop offset="1" stop-color="#596BF7"/>
</linearGradient>
<linearGradient id="paint2_linear_2589_82049" x1="59.5" y1="32" x2="96.1747" y2="46.9203" gradientUnits="userSpaceOnUse">
<stop stop-color="#7E2CFF"/>
<stop offset="0.0001" stop-color="#7E2CFF"/>
<stop offset="1" stop-color="#596BF7"/>
</linearGradient>
<linearGradient id="paint3_linear_2589_82049" x1="43.3222" y1="98.7333" x2="66.265" y2="121.069" gradientUnits="userSpaceOnUse">
<stop stop-color="#C6A3FF"/>
<stop offset="1" stop-color="#7E8BED"/>
</linearGradient>
</defs>
</svg>
