<svg width="15" height="15" viewBox="0 0 15 15" fill="none" xmlns="http://www.w3.org/2000/svg">
<g clip-path="url(#clip0_2793_77624)">
<path opacity="0.987" d="M11.6178 4.02929C11.2147 3.95019 10.8472 4.01558 10.531 4.22013C10.4496 4.11074 10.3543 4.01456 10.2442 3.93363C10.0247 3.77223 9.76422 3.6844 9.47625 3.65848L9.44793 3.65594L9.41961 3.65854C9.35896 3.66412 9.29889 3.67253 9.23945 3.68375C9.13302 3.29133 9.02454 2.89938 8.91403 2.50788L8.90843 2.48806L8.90029 2.46915C8.57853 1.72218 8.03222 1.23058 7.28199 1.00921C7.31981 0.862073 7.37902 0.741232 7.4553 0.641832C7.56479 0.499156 7.72391 0.381821 7.94929 0.297852H7.9501H7.95113H7.95216H7.95319H7.95422H7.95525H7.95628H7.95731H7.95834H7.95937H7.9604H7.96143H7.96246H7.96349H7.96452H7.96555H7.96658H7.96761H7.96864H7.96967H7.9707H7.97173H7.97276H7.97379H7.97482H7.97585H7.97688H7.97791H7.97894H7.97997H7.981H7.98203H7.98306H7.98409H7.98512H7.98615H7.98718H7.98821H7.98924H7.99027H7.99129H7.99232H7.99335H7.99438H7.99541H7.99644H7.99747H7.9985H7.99953H8.00056H8.00159H8.00262H8.00365H8.00468H8.00571H8.00674H8.00777H8.0088H8.00983H8.01086H8.01189H8.01292H8.01395H8.01498H8.01601H8.01704H8.01807H8.0191H8.02013H8.02116H8.02219H8.02322H8.02425H8.02528H8.02631H8.02734H8.02837H8.0294H8.03043H8.03146H8.03249H8.03352H8.03455H8.03558H8.03661H8.03764H8.03867H8.0397H8.04073H8.04176H8.04279H8.04382H8.04485H8.04588H8.04691H8.04794H8.04897H8.05H8.05103H8.05206H8.05309H8.05412H8.05515H8.05618H8.05721H8.05824H8.05927H8.0603H8.06133H8.06236H8.06339H8.06442H8.06545H8.06648H8.06751H8.06854H8.06957H8.0706H8.07163H8.07266H8.07369H8.07472H8.07575H8.07678H8.07781H8.07884H8.07987H8.0809H8.08193H8.08296H8.08399H8.08502H8.08605H8.08708H8.08811H8.08914H8.09017H8.0912H8.09223H8.09326H8.09429H8.09532H8.09635H8.09738H8.09841H8.09944H8.10047H8.1015H8.10253H8.10356H8.10459H8.10562H8.10665H8.10768H8.10871H8.10974H8.11077H8.1118H8.11283H8.11386H8.11489H8.11592H8.11695H8.11798H8.11901H8.12004H8.12107H8.1221H8.12313H8.12416H8.12519H8.12622H8.12725H8.12828H8.12931H8.13034H8.13137H8.1324H8.13343H8.13446H8.13549H8.13652H8.13755H8.13858H8.13961H8.14064H8.14167H8.1427H8.14373H8.14476H8.14579H8.14682H8.14785H8.14888H8.14991H8.15094H8.15197H8.153H8.15403H8.15506H8.15609H8.15712H8.15815H8.15918H8.16021H8.16124H8.16227H8.1633H8.16433H8.16536H8.16639H8.16742H8.16845H8.16948H8.17051H8.17154H8.17257H8.1736H8.17463H8.17566H8.17669H8.17772H8.17875H8.17978H8.18081H8.18184H8.18287H8.1839H8.18493H8.18596H8.18699H8.18802H8.18905H8.19008H8.19111H8.19214H8.19317H8.1942H8.19523H8.19626H8.19729H8.19832H8.19935H8.20038H8.20141H8.20244H8.20347H8.2045H8.20553H8.20656H8.20759H8.20862H8.20965H8.21068H8.21171H8.21274H8.21377H8.2148H8.21583H8.21686H8.21789H8.21892H8.21995H8.22098H8.22201H8.22304H8.22407H8.2251H8.22613H8.22716H8.22819H8.22922H8.23025H8.23128H8.23231H8.23334H8.23437H8.2354H8.23643H8.23746H8.23849H8.23952H8.24055H8.24158H8.24261H8.24364H8.24467H8.2457H8.24673H8.24776H8.24879H8.24982H8.25085H8.25188H8.25291H8.25394H8.25497H8.256H8.25703H8.25806H8.25909H8.26012H8.26115H8.26218H8.26321H8.26424H8.26527H8.2663H8.26733H8.26836H8.26939H8.27042H8.27145H8.27248H8.27351H8.27454H8.27557H8.2766H8.27763H8.27866H8.27969H8.28072H8.28175H8.28278H8.28381H8.28484H8.28587H8.2869H8.28793H8.28896H8.28999H8.29102H8.29205H8.29308H8.29411H8.29514H8.29617H8.2972H8.29823H8.29926H8.30029H8.30132H8.30235H8.30338H8.30441H8.30544H8.30647H8.3075H8.30853H8.30956H8.31059H8.31162H8.31265H8.31368H8.31471H8.31574H8.31677H8.3178H8.31883H8.31985H8.32088H8.32191H8.32294H8.32397H8.325H8.32603H8.32706H8.32809H8.32912H8.33015H8.33118H8.33221H8.33324H8.33427H8.3353H8.33633H8.33736H8.33839H8.33942H8.34045H8.34148H8.34251H8.34354H8.34457H8.3456H8.34663H8.34766H8.34869H8.34972H8.35075H8.35178H8.35281H8.35384H8.35487H8.3559H8.35693H8.35796H8.35899H8.36002H8.36105H8.36208H8.36311H8.36414H8.36517H8.3662H8.36723H8.36826H8.36929H8.37032H8.37135H8.37238H8.37341H8.37444H8.37547H8.3765H8.37753H8.37856H8.37959H8.38062H8.38165H8.38268H8.38371H8.38474H8.38577H8.3868H8.38783H8.38886H8.38989H8.39092H8.39195H8.39298H8.39401H8.39478C10.2957 0.642166 12.2008 0.985458 14.1099 1.32773C14.4031 1.44422 14.5838 1.64008 14.6729 1.93338V1.93394V1.93497V1.936V1.93703V1.93806V1.93909V1.94012V1.94115V1.94218V1.94321V1.94424V1.94527V1.9463V1.94733V1.94836V1.94939V1.95042V1.95145V1.95248V1.95351V1.95454V1.95557V1.9566V1.95763V1.95866V1.95969V1.96072V1.96175V1.96278V1.96381V1.96484V1.96587V1.9669V1.96793V1.96896V1.96999V1.97102V1.97205V1.97308V1.97411V1.97514V1.97617V1.9772V1.97823V1.97926V1.98029V1.98132V1.98235V1.98338V1.98441V1.98544V1.98647V1.9875V1.98853V1.98956V1.99059V1.99162V1.99265V1.99368V1.99471V1.99574V1.99677V1.9978V1.99883V1.99986V2.00089V2.00192V2.00295V2.00398V2.00501V2.00604V2.00707V2.0081V2.00912V2.01015V2.01118V2.01221V2.01324V2.01427V2.0153V2.01633V2.01736V2.01839V2.01942V2.02045V2.02148V2.02251V2.02354V2.02457V2.0256V2.02663V2.02766V2.02869V2.02972V2.03075V2.03178V2.03281V2.03384V2.03487V2.0359V2.03693V2.03796V2.03899V2.04002V2.04105V2.04208V2.04311V2.04414V2.04517V2.0462V2.04723V2.04826V2.04929V2.05032V2.05135V2.05238V2.05341V2.05444V2.05547V2.0565V2.05753V2.05856V2.05959V2.06062V2.06165V2.06268V2.06371V2.06474V2.06577V2.0668V2.06783V2.06886V2.06989V2.07092V2.07195V2.07298V2.07401V2.07504V2.07607V2.0771V2.07813V2.07916V2.08019V2.08122V2.08225V2.08328V2.08431V2.08534V2.08637V2.0874V2.08843V2.08946V2.09049V2.09152V2.09255V2.09358V2.09461V2.09564V2.09667V2.0977V2.09873V2.09976V2.10079V2.10182V2.10285V2.10388V2.10491V2.10594V2.10697V2.108V2.10903V2.11006V2.11109V2.11212V2.11315V2.11418V2.11521V2.11624V2.11727V2.1183V2.11933V2.12036V2.12139V2.12242V2.12345V2.12448V2.12551V2.12654V2.12757V2.1286V2.12963V2.13066V2.13169V2.13272V2.13375V2.13478V2.13581V2.13684V2.13787V2.1389V2.13993V2.14096V2.14199V2.14302V2.14405V2.14508V2.14611V2.14714V2.14817V2.1492V2.15023V2.15126V2.15229V2.15332V2.15435V2.15538V2.15641V2.15744V2.15847V2.1595V2.16053V2.16156V2.16259V2.16362V2.16465V2.16568V2.16671V2.16774V2.16877V2.1698V2.17083V2.17186V2.17289V2.17392V2.17495V2.17598V2.17701V2.17804V2.17907V2.1801V2.18113V2.18216V2.18319V2.18422V2.18525V2.18628V2.18731V2.18834V2.18937V2.1904V2.19143V2.19246V2.19349V2.19452V2.19555V2.19658V2.19761V2.19864V2.19967V2.2007V2.20173V2.20276V2.20379V2.20482V2.20585V2.20688V2.20791V2.20894V2.20997V2.211V2.21203V2.21306V2.21409V2.21512V2.21615V2.21718V2.21821V2.21924V2.22027V2.2213V2.22233V2.22336V2.22439V2.22542V2.22645V2.22748V2.22851V2.22954V2.23057V2.2316V2.23263V2.23366V2.23469V2.23572V2.23675V2.23778V2.23881V2.23984V2.24087V2.2419V2.24293V2.24396V2.24499V2.24602V2.24705V2.24808V2.24911V2.25014V2.25117V2.2522V2.25323V2.25426V2.25529V2.25632V2.25735V2.25838V2.25941V2.26044V2.26147V2.2625V2.26353V2.26456V2.26559V2.26662V2.26765V2.26868V2.26971V2.27074V2.27177V2.2728V2.27383V2.27486V2.27589V2.27692V2.27795V2.27898V2.28001V2.28104V2.28207V2.2831V2.28413V2.28516V2.28619V2.28722V2.28825V2.28928V2.29031V2.29134V2.29237V2.2934V2.29443V2.29546V2.29649V2.29752V2.29855V2.29958V2.30061V2.30164V2.30267V2.3037V2.30473V2.30576V2.30679V2.30782V2.30885V2.30988V2.31091V2.31194V2.31297V2.314V2.31503V2.31606V2.31709V2.31812V2.31915V2.32018V2.32121V2.32224V2.32327V2.3243V2.32533V2.32636V2.32739V2.32842V2.32945V2.33048V2.33151V2.33254V2.33356V2.33459V2.33562V2.33665V2.33768V2.33871V2.33974V2.34077V2.3418V2.34283V2.34386V2.34489V2.34592V2.34695V2.34798V2.34901V2.35004V2.35107V2.3521V2.35313V2.35416V2.35519V2.35622V2.35725V2.35828V2.35931V2.36034V2.36137V2.3624V2.36343V2.36446V2.36549V2.36652V2.36755V2.36858V2.36961V2.37064V2.37167V2.3727V2.37373V2.37476V2.37579V2.37682V2.37785V2.37888V2.37991V2.38094V2.38197V2.383V2.38403V2.38506V2.38609V2.38712V2.38815V2.38918V2.38929C14.1189 5.48936 13.5614 8.5925 13.0001 11.6987C12.9157 11.8797 12.8095 12.0045 12.6873 12.0881C12.5631 12.1731 12.4046 12.2277 12.1992 12.2402C11.9506 12.2085 11.7025 12.1743 11.4548 12.1377C11.4468 12.0298 11.4317 11.9226 11.4094 11.816L11.4077 11.8079L11.4056 11.7999C11.0986 10.6412 10.7896 9.48309 10.4786 8.32554C10.7741 8.09992 11.0648 7.86483 11.3506 7.62024L11.3507 7.62032L11.3566 7.61499C11.8869 7.13727 12.2814 6.56398 12.5377 5.89846L12.5421 5.8871L12.5456 5.87544C12.6633 5.48082 12.6696 5.10185 12.5116 4.7689C12.3533 4.43558 12.0558 4.20217 11.676 4.04672L11.6477 4.03516L11.6178 4.02929Z" fill="#656E79" stroke="#656E79" stroke-width="0.625"/>
<path opacity="0.99" d="M4.39482 5.82825L4.26278 5.84688L4.18486 5.9551C4.16047 5.98898 4.13159 6.02128 4.09754 6.05194L4.03729 6.10619L4.01101 6.18289C3.71005 7.06136 3.41197 7.94093 3.11679 8.82157L3.08264 8.92346L3.11837 9.02481C3.19413 9.23966 3.32612 9.41873 3.50729 9.55785C4.13305 10.1152 4.76739 10.6616 5.41035 11.1971L5.46161 11.2398L5.52584 11.2579C5.63951 11.2898 5.76335 11.2965 5.88702 11.2588C6.01095 11.2211 6.1102 11.1464 6.18652 11.0555L6.22309 11.012L6.24199 10.9584C6.5412 10.1096 6.83464 9.25866 7.12229 8.4055L7.12761 8.38972L7.13122 8.37348C7.1607 8.24092 7.1607 8.10672 7.13122 7.97416L7.11006 7.87895L7.03849 7.81268C6.37669 7.1999 5.70535 6.59718 5.02452 6.00452L5.02471 6.0043L5.01412 5.99586C4.83473 5.85286 4.62122 5.79631 4.39482 5.82825ZM9.48127 13.125C7.58773 13.6417 5.6975 14.1576 3.81064 14.6728H3.81031H3.80928H3.80825H3.80722H3.80619H3.80516H3.80413H3.8031H3.80207H3.80104H3.80001H3.79898H3.79795H3.79692H3.79589H3.79486H3.79383H3.7928H3.79177H3.79074H3.78971H3.78868H3.78765H3.78662H3.78559H3.78456H3.78353H3.7825H3.78147H3.78044H3.77941H3.77838H3.77735H3.77632H3.77529H3.77426H3.77323H3.7722H3.77117H3.77014H3.76911H3.76808H3.76705H3.76602H3.76499H3.76396H3.76293H3.7619H3.76087H3.75984H3.75881H3.75778H3.75675H3.75572H3.75469H3.75366H3.75263H3.7516H3.75057H3.74954H3.74851H3.74748H3.74645H3.74542H3.74439H3.74336H3.74233H3.7413H3.74027H3.73924H3.73821H3.73718H3.73615H3.73512H3.73409H3.73306H3.73203H3.731H3.72997H3.72894H3.72791H3.72688H3.72585H3.72482H3.72379H3.72276H3.72173H3.7207H3.71967H3.71864H3.71761H3.71658H3.71555H3.71452H3.71349H3.71246H3.71143H3.7104H3.70937H3.70834H3.70731H3.70628H3.70525H3.70422H3.70319H3.70216H3.70113H3.7001H3.69907H3.69804H3.69701H3.69598H3.69495H3.69392H3.69289H3.69186H3.69083H3.6898H3.68877H3.68774H3.68671H3.68568H3.68465H3.68362H3.68259H3.68156H3.68053H3.6795H3.67847H3.67744H3.67641H3.67538H3.67435H3.67332H3.67229H3.67126H3.67023H3.6692H3.66817H3.66715H3.66612H3.66509H3.66406H3.66303H3.662H3.66097H3.65994H3.65891H3.65788H3.65685H3.65582H3.65479H3.65376H3.65273H3.6517H3.65067H3.64964H3.64861H3.64758H3.64655H3.64552H3.64449H3.64346H3.64243H3.6414H3.64037H3.63934H3.63831H3.63728H3.63625H3.63522H3.63419H3.63316H3.63213H3.6311H3.63007H3.62904H3.62801H3.62698H3.62595H3.62492H3.62389H3.62286H3.62183H3.6208H3.61977H3.61874H3.61771H3.61668H3.61565H3.61462H3.61359H3.61256H3.61153H3.6105H3.60947H3.60844H3.60741H3.60638H3.60535H3.60432H3.60329H3.60226H3.60123H3.6002H3.59917H3.59814H3.59711H3.59608H3.59505H3.59402H3.59299H3.59196H3.59093H3.5899H3.58887H3.58784H3.58681H3.58578H3.58475H3.58372H3.58269H3.58166H3.58063H3.5796H3.57857H3.57754H3.57651H3.57548H3.57445H3.57342H3.57239H3.57136H3.57033H3.5693H3.56827H3.56724H3.56621H3.56518H3.56415H3.56312H3.56209H3.56106H3.56003H3.559H3.55797H3.55694H3.55591H3.55488H3.55385H3.55282H3.55179H3.55076H3.54973H3.5487H3.54767H3.54664H3.54561H3.54458H3.54355H3.54252H3.54149H3.54046H3.53943H3.5384H3.53737H3.53634H3.53531H3.53428H3.53325H3.53222H3.53119H3.53016H3.52913H3.5281H3.52707H3.52604H3.52501H3.52398H3.52295H3.52192H3.52089H3.51986H3.51883H3.5178H3.51677H3.51574H3.51471H3.51368H3.51265H3.51162H3.51059H3.50956H3.50853H3.5075H3.50647H3.50544H3.50441H3.50338H3.50235H3.50132H3.50029H3.49926H3.49823H3.4972H3.49617H3.49514H3.49411H3.49308H3.49205H3.49102H3.48999H3.48896H3.48793H3.4869H3.48587H3.48484H3.48381H3.48278H3.48175H3.48072H3.47969H3.47866H3.47763H3.4766H3.47557H3.47454H3.47351H3.47248H3.47145H3.47042H3.46939H3.46836H3.46733H3.4663H3.46527H3.46424H3.46321H3.46218H3.46115H3.46012H3.45909H3.45806H3.45703H3.456H3.45497H3.45394H3.45291H3.45188H3.45085H3.44982H3.44879H3.44776H3.44673H3.4457H3.44467H3.44364H3.44261H3.44158H3.44055H3.43952H3.43849H3.43746H3.43643H3.4354H3.43437H3.43334H3.43231H3.43128H3.43025H3.42922H3.42819H3.42716H3.42613H3.4251H3.42407H3.42304H3.42201H3.42098H3.41995H3.41892H3.41789H3.41686H3.41583H3.4148H3.41377H3.41274H3.41171H3.41068H3.40965H3.40862H3.40759H3.40656H3.40553H3.4045H3.40347H3.40244H3.40141H3.40038H3.39935H3.39832H3.39729H3.39626H3.39523H3.3942H3.39317H3.39214H3.39111H3.39008H3.38905H3.38802H3.38699H3.38596H3.38493H3.3839H3.38287H3.38184H3.38081H3.37978H3.37875H3.37772H3.37669H3.37566H3.37463H3.3736H3.37257H3.37154H3.37051H3.36948H3.36919C3.08131 14.5849 2.88247 14.4072 2.75691 14.1209C1.93641 11.0714 1.11672 8.0255 0.297852 4.98308V4.98218V4.98115V4.98012V4.97909V4.97806V4.97703V4.976V4.97497V4.97394V4.97291V4.97188V4.97085V4.96982V4.96879V4.96776V4.96673V4.9657V4.96467V4.96364V4.96261V4.96158V4.96055V4.95952V4.95849V4.95746V4.95643V4.9554V4.95437V4.95334V4.95231V4.95128V4.95025V4.94922V4.94819V4.94716V4.94613V4.9451V4.94407V4.94304V4.94201V4.94098V4.93995V4.93892V4.93789V4.93686V4.93583V4.9348V4.93377V4.93274V4.93171V4.93068V4.92965V4.92862V4.92759V4.92656V4.92553V4.9245V4.92347V4.92244V4.92141V4.92038V4.91935V4.91832V4.91729V4.91626V4.91523V4.9142V4.91317V4.91214V4.91111V4.91008V4.90905V4.90802V4.90699V4.90596V4.90493V4.9039V4.90287V4.90184V4.90081V4.89978V4.89875V4.89772V4.89669V4.89566V4.89463V4.8936V4.89257V4.89154V4.89051V4.88948V4.88845V4.88742V4.88639V4.88536V4.88433V4.8833V4.88227V4.88124V4.88021V4.87918V4.87815V4.87712V4.87609V4.87506V4.87403V4.873V4.87197V4.87094V4.86991V4.86888V4.86785V4.86682V4.86579V4.86476V4.86373V4.8627V4.86167V4.86064V4.85961V4.85858V4.85755V4.85652V4.85549V4.85446V4.85343V4.8524V4.85137V4.85034V4.84931V4.84828V4.84725V4.84622V4.84519V4.84416V4.84313V4.8421V4.84107V4.84004V4.83901V4.83798V4.83695V4.83592V4.83489V4.83386V4.83283V4.8318V4.83077V4.82974V4.82871V4.82768V4.82665V4.82562V4.82459V4.82356V4.82253V4.8215V4.82047V4.81944V4.81841V4.81738V4.81635V4.81532V4.81429V4.81326V4.81223V4.8112V4.81017V4.80914V4.80811V4.80708V4.80605V4.80502V4.80399V4.80296V4.80193V4.8009V4.79987V4.79884V4.79781V4.79678V4.79575V4.79472V4.79369V4.79266V4.79163V4.7906V4.78957V4.78854V4.78751V4.78648V4.78545V4.78442V4.78339V4.78236V4.78133V4.7803V4.77927V4.77824V4.77721V4.77618V4.77515V4.77412V4.77309V4.77206V4.77103V4.77V4.76897V4.76794V4.76691V4.76588V4.76485V4.76382V4.76279V4.76176V4.76073V4.7597V4.75867V4.75764V4.75661V4.75558V4.75455V4.75352V4.75249V4.75146V4.75043V4.7494V4.74837V4.74734V4.74631V4.74528V4.74425V4.74322V4.74219V4.74116V4.74013V4.7391V4.73807V4.73704V4.73601V4.73498V4.73395V4.73292V4.73189V4.73086V4.72983V4.7288V4.72777V4.72674V4.72571V4.72468V4.72365V4.72262V4.72159V4.72056V4.71953V4.7185V4.71747V4.71644V4.71541V4.71438V4.71335V4.71232V4.71129V4.71026V4.70923V4.7082V4.70717V4.70614V4.70511V4.70408V4.70305V4.70202V4.70099V4.69996V4.69893V4.6979V4.69687V4.69584V4.69481V4.69378V4.69275V4.69172V4.69069V4.68966V4.68863V4.6876V4.68657V4.68554V4.68451V4.68349V4.68246V4.68143V4.6804V4.67937V4.67834V4.67731V4.67628V4.67525V4.67422V4.67319V4.67216V4.67113V4.6701V4.66907V4.66804V4.66701V4.66598V4.66495V4.66392V4.66289V4.66186V4.66083V4.6598V4.65877V4.65774V4.65671V4.65568V4.65465V4.65362V4.65259V4.65156V4.65053V4.6495V4.64847V4.64744V4.64641V4.64538V4.64435V4.64332V4.64229V4.64126V4.64023V4.6392V4.63817V4.63714V4.63611V4.63508V4.63405V4.63302V4.63199V4.63096V4.62993V4.6289V4.62787V4.62684V4.62581V4.62478V4.62375V4.62272V4.62169V4.62066V4.61963V4.6186V4.61757V4.61654V4.61551V4.61448V4.61345V4.61242V4.61139V4.61036V4.60933V4.6083V4.60727V4.60624V4.60521V4.60418V4.60315V4.60212V4.60109V4.60006V4.59903V4.598V4.59697V4.59594V4.59491V4.59388V4.59285V4.59182V4.59079V4.58976V4.58873V4.5877V4.58667V4.58564V4.58461V4.58358V4.58255V4.58152V4.58049V4.57946V4.57843V4.5774V4.57637V4.57534V4.57431V4.57328V4.57225V4.57122V4.57019V4.56916V4.56813V4.5671V4.56607V4.56504V4.56401V4.56298V4.56195V4.56092V4.55989V4.55886V4.55783V4.5568V4.55577V4.55474V4.55371V4.55268V4.55165V4.55062V4.54959V4.54856V4.54753V4.54676C0.384067 4.29887 0.539727 4.1144 0.775907 3.98344C2.67121 3.46466 4.56816 2.95174 6.46673 2.44466C6.74209 2.40145 6.94964 2.43571 7.10935 2.51968C7.26667 2.60239 7.40978 2.75027 7.52773 2.99396L9.97652 12.1478C10.011 12.3971 9.97824 12.587 9.90188 12.7349C9.82695 12.88 9.69542 13.0128 9.48127 13.125Z" fill="#656E79" stroke="#656E79" stroke-width="0.625"/>
</g>
<defs>
<clipPath id="clip0_2793_77624">
<rect width="15" height="15" fill="white"/>
</clipPath>
</defs>
</svg>
