<svg width="110" height="110" viewBox="0 0 110 110" fill="none" xmlns="http://www.w3.org/2000/svg">
<rect x="0.774648" y="0.774648" width="108.451" height="108.451" rx="3.09859" fill="white"/>
<rect x="0.774648" y="0.774648" width="108.451" height="108.451" rx="3.09859" stroke="url(#paint0_linear_2785_83242)" stroke-width="1.5493"/>
<rect x="0.774648" y="0.774648" width="108.451" height="108.451" rx="3.09859" stroke="url(#paint1_radial_2785_83242)" stroke-opacity="0.2" stroke-width="1.5493"/>
<path d="M6.2395 6.24097H9.19458V9.19605H6.2395V6.24097ZM9.19458 6.24097H12.1497V9.19605H9.19458V6.24097ZM12.1497 6.24097H15.1047V9.19605H12.1497V6.24097ZM15.1047 6.24097H18.0598V9.19605H15.1047V6.24097ZM18.0598 6.24097H21.0149V9.19605H18.0598V6.24097ZM21.0149 6.24097H23.97V9.19605H21.0149V6.24097ZM23.97 6.24097H26.9251V9.19605H23.97V6.24097ZM56.4759 6.24097H59.431V9.19605H56.4759V6.24097ZM59.431 6.24097H62.3861V9.19605H59.431V6.24097ZM62.3861 6.24097H65.3412V9.19605H62.3861V6.24097ZM65.3412 6.24097H68.2962V9.19605H65.3412V6.24097ZM74.2064 6.24097H77.1615V9.19605H74.2064V6.24097ZM83.0716 6.24097H86.0267V9.19605H83.0716V6.24097ZM86.0267 6.24097H88.9818V9.19605H86.0267V6.24097ZM88.9818 6.24097H91.9369V9.19605H88.9818V6.24097ZM91.9369 6.24097H94.892V9.19605H91.9369V6.24097ZM94.892 6.24097H97.8471V9.19605H94.892V6.24097ZM97.8471 6.24097H100.802V9.19605H97.8471V6.24097ZM100.802 6.24097H103.757V9.19605H100.802V6.24097ZM6.2395 9.19605H9.19458V12.1511H6.2395V9.19605ZM23.97 9.19605H26.9251V12.1511H23.97V9.19605ZM29.8802 9.19605H32.8352V12.1511H29.8802V9.19605ZM32.8352 9.19605H35.7903V12.1511H32.8352V9.19605ZM41.7005 9.19605H44.6556V12.1511H41.7005V9.19605ZM44.6556 9.19605H47.6107V12.1511H44.6556V9.19605ZM47.6107 9.19605H50.5657V12.1511H47.6107V9.19605ZM53.5208 9.19605H56.4759V12.1511H53.5208V9.19605ZM59.431 9.19605H62.3861V12.1511H59.431V9.19605ZM68.2962 9.19605H71.2513V12.1511H68.2962V9.19605ZM71.2513 9.19605H74.2064V12.1511H71.2513V9.19605ZM74.2064 9.19605H77.1615V12.1511H74.2064V9.19605ZM83.0716 9.19605H86.0267V12.1511H83.0716V9.19605ZM100.802 9.19605H103.757V12.1511H100.802V9.19605ZM6.2395 12.1511H9.19458V15.1062H6.2395V12.1511ZM12.1497 12.1511H15.1047V15.1062H12.1497V12.1511ZM15.1047 12.1511H18.0598V15.1062H15.1047V12.1511ZM18.0598 12.1511H21.0149V15.1062H18.0598V12.1511ZM23.97 12.1511H26.9251V15.1062H23.97V12.1511ZM29.8802 12.1511H32.8352V15.1062H29.8802V12.1511ZM32.8352 12.1511H35.7903V15.1062H32.8352V12.1511ZM35.7903 12.1511H38.7454V15.1062H35.7903V12.1511ZM41.7005 12.1511H44.6556V15.1062H41.7005V12.1511ZM44.6556 12.1511H47.6107V15.1062H44.6556V12.1511ZM50.5657 12.1511H53.5208V15.1062H50.5657V12.1511ZM53.5208 12.1511H56.4759V15.1062H53.5208V12.1511ZM56.4759 12.1511H59.431V15.1062H56.4759V12.1511ZM62.3861 12.1511H65.3412V15.1062H62.3861V12.1511ZM65.3412 12.1511H68.2962V15.1062H65.3412V12.1511ZM68.2962 12.1511H71.2513V15.1062H68.2962V12.1511ZM71.2513 12.1511H74.2064V15.1062H71.2513V12.1511ZM74.2064 12.1511H77.1615V15.1062H74.2064V12.1511ZM77.1615 12.1511H80.1166V15.1062H77.1615V12.1511ZM83.0716 12.1511H86.0267V15.1062H83.0716V12.1511ZM88.9818 12.1511H91.9369V15.1062H88.9818V12.1511ZM91.9369 12.1511H94.892V15.1062H91.9369V12.1511ZM94.892 12.1511H97.8471V15.1062H94.892V12.1511ZM100.802 12.1511H103.757V15.1062H100.802V12.1511ZM6.2395 15.1062H9.19458V18.0613H6.2395V15.1062ZM12.1497 15.1062H15.1047V18.0613H12.1497V15.1062ZM15.1047 15.1062H18.0598V18.0613H15.1047V15.1062ZM18.0598 15.1062H21.0149V18.0613H18.0598V15.1062ZM23.97 15.1062H26.9251V18.0613H23.97V15.1062ZM35.7903 15.1062H38.7454V18.0613H35.7903V15.1062ZM38.7454 15.1062H41.7005V18.0613H38.7454V15.1062ZM41.7005 15.1062H44.6556V18.0613H41.7005V15.1062ZM47.6107 15.1062H50.5657V18.0613H47.6107V15.1062ZM50.5657 15.1062H53.5208V18.0613H50.5657V15.1062ZM65.3412 15.1062H68.2962V18.0613H65.3412V15.1062ZM68.2962 15.1062H71.2513V18.0613H68.2962V15.1062ZM71.2513 15.1062H74.2064V18.0613H71.2513V15.1062ZM74.2064 15.1062H77.1615V18.0613H74.2064V15.1062ZM77.1615 15.1062H80.1166V18.0613H77.1615V15.1062ZM83.0716 15.1062H86.0267V18.0613H83.0716V15.1062ZM88.9818 15.1062H91.9369V18.0613H88.9818V15.1062ZM91.9369 15.1062H94.892V18.0613H91.9369V15.1062ZM94.892 15.1062H97.8471V18.0613H94.892V15.1062ZM100.802 15.1062H103.757V18.0613H100.802V15.1062ZM6.2395 18.0613H9.19458V21.0164H6.2395V18.0613ZM12.1497 18.0613H15.1047V21.0164H12.1497V18.0613ZM15.1047 18.0613H18.0598V21.0164H15.1047V18.0613ZM18.0598 18.0613H21.0149V21.0164H18.0598V18.0613ZM23.97 18.0613H26.9251V21.0164H23.97V18.0613ZM32.8352 18.0613H35.7903V21.0164H32.8352V18.0613ZM35.7903 18.0613H38.7454V21.0164H35.7903V18.0613ZM53.5208 18.0613H56.4759V21.0164H53.5208V18.0613ZM65.3412 18.0613H68.2962V21.0164H65.3412V18.0613ZM74.2064 18.0613H77.1615V21.0164H74.2064V18.0613ZM83.0716 18.0613H86.0267V21.0164H83.0716V18.0613ZM88.9818 18.0613H91.9369V21.0164H88.9818V18.0613ZM91.9369 18.0613H94.892V21.0164H91.9369V18.0613ZM94.892 18.0613H97.8471V21.0164H94.892V18.0613ZM100.802 18.0613H103.757V21.0164H100.802V18.0613ZM6.2395 21.0164H9.19458V23.9715H6.2395V21.0164ZM23.97 21.0164H26.9251V23.9715H23.97V21.0164ZM35.7903 21.0164H38.7454V23.9715H35.7903V21.0164ZM38.7454 21.0164H41.7005V23.9715H38.7454V21.0164ZM41.7005 21.0164H44.6556V23.9715H41.7005V21.0164ZM53.5208 21.0164H56.4759V23.9715H53.5208V21.0164ZM56.4759 21.0164H59.431V23.9715H56.4759V21.0164ZM59.431 21.0164H62.3861V23.9715H59.431V21.0164ZM62.3861 21.0164H65.3412V23.9715H62.3861V21.0164ZM65.3412 21.0164H68.2962V23.9715H65.3412V21.0164ZM68.2962 21.0164H71.2513V23.9715H68.2962V21.0164ZM77.1615 21.0164H80.1166V23.9715H77.1615V21.0164ZM83.0716 21.0164H86.0267V23.9715H83.0716V21.0164ZM100.802 21.0164H103.757V23.9715H100.802V21.0164ZM6.2395 23.9715H9.19458V26.9265H6.2395V23.9715ZM9.19458 23.9715H12.1497V26.9265H9.19458V23.9715ZM12.1497 23.9715H15.1047V26.9265H12.1497V23.9715ZM15.1047 23.9715H18.0598V26.9265H15.1047V23.9715ZM18.0598 23.9715H21.0149V26.9265H18.0598V23.9715ZM21.0149 23.9715H23.97V26.9265H21.0149V23.9715ZM23.97 23.9715H26.9251V26.9265H23.97V23.9715ZM29.8802 23.9715H32.8352V26.9265H29.8802V23.9715ZM35.7903 23.9715H38.7454V26.9265H35.7903V23.9715ZM41.7005 23.9715H44.6556V26.9265H41.7005V23.9715ZM47.6107 23.9715H50.5657V26.9265H47.6107V23.9715ZM53.5208 23.9715H56.4759V26.9265H53.5208V23.9715ZM59.431 23.9715H62.3861V26.9265H59.431V23.9715ZM65.3412 23.9715H68.2962V26.9265H65.3412V23.9715ZM71.2513 23.9715H74.2064V26.9265H71.2513V23.9715ZM77.1615 23.9715H80.1166V26.9265H77.1615V23.9715ZM83.0716 23.9715H86.0267V26.9265H83.0716V23.9715ZM86.0267 23.9715H88.9818V26.9265H86.0267V23.9715ZM88.9818 23.9715H91.9369V26.9265H88.9818V23.9715ZM91.9369 23.9715H94.892V26.9265H91.9369V23.9715ZM94.892 23.9715H97.8471V26.9265H94.892V23.9715ZM97.8471 23.9715H100.802V26.9265H97.8471V23.9715ZM100.802 23.9715H103.757V26.9265H100.802V23.9715ZM32.8352 26.9265H35.7903V29.8816H32.8352V26.9265ZM41.7005 26.9265H44.6556V29.8816H41.7005V26.9265ZM53.5208 26.9265H56.4759V29.8816H53.5208V26.9265ZM56.4759 26.9265H59.431V29.8816H56.4759V26.9265ZM65.3412 26.9265H68.2962V29.8816H65.3412V26.9265ZM71.2513 26.9265H74.2064V29.8816H71.2513V26.9265ZM9.19458 29.8816H12.1497V32.8367H9.19458V29.8816ZM12.1497 29.8816H15.1047V32.8367H12.1497V29.8816ZM15.1047 29.8816H18.0598V32.8367H15.1047V29.8816ZM21.0149 29.8816H23.97V32.8367H21.0149V29.8816ZM23.97 29.8816H26.9251V32.8367H23.97V29.8816ZM47.6107 29.8816H50.5657V32.8367H47.6107V29.8816ZM53.5208 29.8816H56.4759V32.8367H53.5208V29.8816ZM56.4759 29.8816H59.431V32.8367H56.4759V29.8816ZM59.431 29.8816H62.3861V32.8367H59.431V29.8816ZM62.3861 29.8816H65.3412V32.8367H62.3861V29.8816ZM68.2962 29.8816H71.2513V32.8367H68.2962V29.8816ZM94.892 29.8816H97.8471V32.8367H94.892V29.8816ZM97.8471 29.8816H100.802V32.8367H97.8471V29.8816ZM18.0598 32.8367H21.0149V35.7918H18.0598V32.8367ZM21.0149 32.8367H23.97V35.7918H21.0149V32.8367ZM26.9251 32.8367H29.8802V35.7918H26.9251V32.8367ZM29.8802 32.8367H32.8352V35.7918H29.8802V32.8367ZM32.8352 32.8367H35.7903V35.7918H32.8352V32.8367ZM35.7903 32.8367H38.7454V35.7918H35.7903V32.8367ZM41.7005 32.8367H44.6556V35.7918H41.7005V32.8367ZM44.6556 32.8367H47.6107V35.7918H44.6556V32.8367ZM47.6107 32.8367H50.5657V35.7918H47.6107V32.8367ZM59.431 32.8367H62.3861V35.7918H59.431V32.8367ZM62.3861 32.8367H65.3412V35.7918H62.3861V32.8367ZM65.3412 32.8367H68.2962V35.7918H65.3412V32.8367ZM68.2962 32.8367H71.2513V35.7918H68.2962V32.8367ZM74.2064 32.8367H77.1615V35.7918H74.2064V32.8367ZM77.1615 32.8367H80.1166V35.7918H77.1615V32.8367ZM83.0716 32.8367H86.0267V35.7918H83.0716V32.8367ZM86.0267 32.8367H88.9818V35.7918H86.0267V32.8367ZM91.9369 32.8367H94.892V35.7918H91.9369V32.8367ZM94.892 32.8367H97.8471V35.7918H94.892V32.8367ZM100.802 32.8367H103.757V35.7918H100.802V32.8367ZM6.2395 35.7918H9.19458V38.7469H6.2395V35.7918ZM21.0149 35.7918H23.97V38.7469H21.0149V35.7918ZM23.97 35.7918H26.9251V38.7469H23.97V35.7918ZM26.9251 35.7918H29.8802V38.7469H26.9251V35.7918ZM29.8802 35.7918H32.8352V38.7469H29.8802V35.7918ZM32.8352 35.7918H35.7903V38.7469H32.8352V35.7918ZM38.7454 35.7918H41.7005V38.7469H38.7454V35.7918ZM41.7005 35.7918H44.6556V38.7469H41.7005V35.7918ZM44.6556 35.7918H47.6107V38.7469H44.6556V35.7918ZM56.4759 35.7918H59.431V38.7469H56.4759V35.7918ZM74.2064 35.7918H77.1615V38.7469H74.2064V35.7918ZM77.1615 35.7918H80.1166V38.7469H77.1615V35.7918ZM80.1166 35.7918H83.0716V38.7469H80.1166V35.7918ZM86.0267 35.7918H88.9818V38.7469H86.0267V35.7918ZM88.9818 35.7918H91.9369V38.7469H88.9818V35.7918ZM91.9369 35.7918H94.892V38.7469H91.9369V35.7918ZM97.8471 35.7918H100.802V38.7469H97.8471V35.7918ZM100.802 35.7918H103.757V38.7469H100.802V35.7918ZM6.2395 38.7469H9.19458V41.702H6.2395V38.7469ZM9.19458 38.7469H12.1497V41.702H9.19458V38.7469ZM12.1497 38.7469H15.1047V41.702H12.1497V38.7469ZM15.1047 38.7469H18.0598V41.702H15.1047V38.7469ZM32.8352 38.7469H35.7903V41.702H32.8352V38.7469ZM35.7903 38.7469H38.7454V41.702H35.7903V38.7469ZM44.6556 38.7469H47.6107V41.702H44.6556V38.7469ZM47.6107 38.7469H50.5657V41.702H47.6107V38.7469ZM53.5208 38.7469H56.4759V41.702H53.5208V38.7469ZM59.431 38.7469H62.3861V41.702H59.431V38.7469ZM62.3861 38.7469H65.3412V41.702H62.3861V38.7469ZM74.2064 38.7469H77.1615V41.702H74.2064V38.7469ZM77.1615 38.7469H80.1166V41.702H77.1615V38.7469ZM80.1166 38.7469H83.0716V41.702H80.1166V38.7469ZM83.0716 38.7469H86.0267V41.702H83.0716V38.7469ZM86.0267 38.7469H88.9818V41.702H86.0267V38.7469ZM91.9369 38.7469H94.892V41.702H91.9369V38.7469ZM100.802 38.7469H103.757V41.702H100.802V38.7469ZM9.19458 41.702H12.1497V44.657H9.19458V41.702ZM12.1497 41.702H15.1047V44.657H12.1497V41.702ZM18.0598 41.702H21.0149V44.657H18.0598V41.702ZM21.0149 41.702H23.97V44.657H21.0149V41.702ZM23.97 41.702H26.9251V44.657H23.97V41.702ZM26.9251 41.702H29.8802V44.657H26.9251V41.702ZM29.8802 41.702H32.8352V44.657H29.8802V41.702ZM38.7454 41.702H41.7005V44.657H38.7454V41.702ZM44.6556 41.702H47.6107V44.657H44.6556V41.702ZM47.6107 41.702H50.5657V44.657H47.6107V41.702ZM59.431 41.702H62.3861V44.657H59.431V41.702ZM62.3861 41.702H65.3412V44.657H62.3861V41.702ZM68.2962 41.702H71.2513V44.657H68.2962V41.702ZM74.2064 41.702H77.1615V44.657H74.2064V41.702ZM77.1615 41.702H80.1166V44.657H77.1615V41.702ZM80.1166 41.702H83.0716V44.657H80.1166V41.702ZM86.0267 41.702H88.9818V44.657H86.0267V41.702ZM88.9818 41.702H91.9369V44.657H88.9818V41.702ZM91.9369 41.702H94.892V44.657H91.9369V41.702ZM97.8471 41.702H100.802V44.657H97.8471V41.702ZM12.1497 44.657H15.1047V47.6121H12.1497V44.657ZM18.0598 44.657H21.0149V47.6121H18.0598V44.657ZM35.7903 44.657H38.7454V47.6121H35.7903V44.657ZM41.7005 44.657H44.6556V47.6121H41.7005V44.657ZM47.6107 44.657H50.5657V47.6121H47.6107V44.657ZM53.5208 44.657H56.4759V47.6121H53.5208V44.657ZM59.431 44.657H62.3861V47.6121H59.431V44.657ZM68.2962 44.657H71.2513V47.6121H68.2962V44.657ZM71.2513 44.657H74.2064V47.6121H71.2513V44.657ZM91.9369 44.657H94.892V47.6121H91.9369V44.657ZM97.8471 44.657H100.802V47.6121H97.8471V44.657ZM6.2395 47.6121H9.19458V50.5672H6.2395V47.6121ZM9.19458 47.6121H12.1497V50.5672H9.19458V47.6121ZM12.1497 47.6121H15.1047V50.5672H12.1497V47.6121ZM15.1047 47.6121H18.0598V50.5672H15.1047V47.6121ZM18.0598 47.6121H21.0149V50.5672H18.0598V47.6121ZM23.97 47.6121H26.9251V50.5672H23.97V47.6121ZM26.9251 47.6121H29.8802V50.5672H26.9251V47.6121ZM29.8802 47.6121H32.8352V50.5672H29.8802V47.6121ZM32.8352 47.6121H35.7903V50.5672H32.8352V47.6121ZM35.7903 47.6121H38.7454V50.5672H35.7903V47.6121ZM38.7454 47.6121H41.7005V50.5672H38.7454V47.6121ZM41.7005 47.6121H44.6556V50.5672H41.7005V47.6121ZM50.5657 47.6121H53.5208V50.5672H50.5657V47.6121ZM53.5208 47.6121H56.4759V50.5672H53.5208V47.6121ZM59.431 47.6121H62.3861V50.5672H59.431V47.6121ZM68.2962 47.6121H71.2513V50.5672H68.2962V47.6121ZM77.1615 47.6121H80.1166V50.5672H77.1615V47.6121ZM83.0716 47.6121H86.0267V50.5672H83.0716V47.6121ZM86.0267 47.6121H88.9818V50.5672H86.0267V47.6121ZM91.9369 47.6121H94.892V50.5672H91.9369V47.6121ZM9.19458 50.5672H12.1497V53.5223H9.19458V50.5672ZM12.1497 50.5672H15.1047V53.5223H12.1497V50.5672ZM21.0149 50.5672H23.97V53.5223H21.0149V50.5672ZM26.9251 50.5672H29.8802V53.5223H26.9251V50.5672ZM38.7454 50.5672H41.7005V53.5223H38.7454V50.5672ZM41.7005 50.5672H44.6556V53.5223H41.7005V50.5672ZM53.5208 50.5672H56.4759V53.5223H53.5208V50.5672ZM59.431 50.5672H62.3861V53.5223H59.431V50.5672ZM62.3861 50.5672H65.3412V53.5223H62.3861V50.5672ZM65.3412 50.5672H68.2962V53.5223H65.3412V50.5672ZM68.2962 50.5672H71.2513V53.5223H68.2962V50.5672ZM71.2513 50.5672H74.2064V53.5223H71.2513V50.5672ZM74.2064 50.5672H77.1615V53.5223H74.2064V50.5672ZM80.1166 50.5672H83.0716V53.5223H80.1166V50.5672ZM83.0716 50.5672H86.0267V53.5223H83.0716V50.5672ZM91.9369 50.5672H94.892V53.5223H91.9369V50.5672ZM94.892 50.5672H97.8471V53.5223H94.892V50.5672ZM12.1497 53.5223H15.1047V56.4774H12.1497V53.5223ZM23.97 53.5223H26.9251V56.4774H23.97V53.5223ZM26.9251 53.5223H29.8802V56.4774H26.9251V53.5223ZM38.7454 53.5223H41.7005V56.4774H38.7454V53.5223ZM44.6556 53.5223H47.6107V56.4774H44.6556V53.5223ZM47.6107 53.5223H50.5657V56.4774H47.6107V53.5223ZM53.5208 53.5223H56.4759V56.4774H53.5208V53.5223ZM56.4759 53.5223H59.431V56.4774H56.4759V53.5223ZM62.3861 53.5223H65.3412V56.4774H62.3861V53.5223ZM65.3412 53.5223H68.2962V56.4774H65.3412V53.5223ZM68.2962 53.5223H71.2513V56.4774H68.2962V53.5223ZM71.2513 53.5223H74.2064V56.4774H71.2513V53.5223ZM80.1166 53.5223H83.0716V56.4774H80.1166V53.5223ZM83.0716 53.5223H86.0267V56.4774H83.0716V53.5223ZM88.9818 53.5223H91.9369V56.4774H88.9818V53.5223ZM91.9369 53.5223H94.892V56.4774H91.9369V53.5223ZM94.892 53.5223H97.8471V56.4774H94.892V53.5223ZM9.19458 56.4774H12.1497V59.4325H9.19458V56.4774ZM15.1047 56.4774H18.0598V59.4325H15.1047V56.4774ZM26.9251 56.4774H29.8802V59.4325H26.9251V56.4774ZM41.7005 56.4774H44.6556V59.4325H41.7005V56.4774ZM50.5657 56.4774H53.5208V59.4325H50.5657V56.4774ZM56.4759 56.4774H59.431V59.4325H56.4759V56.4774ZM59.431 56.4774H62.3861V59.4325H59.431V56.4774ZM65.3412 56.4774H68.2962V59.4325H65.3412V56.4774ZM68.2962 56.4774H71.2513V59.4325H68.2962V56.4774ZM71.2513 56.4774H74.2064V59.4325H71.2513V56.4774ZM74.2064 56.4774H77.1615V59.4325H74.2064V56.4774ZM77.1615 56.4774H80.1166V59.4325H77.1615V56.4774ZM80.1166 56.4774H83.0716V59.4325H80.1166V56.4774ZM83.0716 56.4774H86.0267V59.4325H83.0716V56.4774ZM88.9818 56.4774H91.9369V59.4325H88.9818V56.4774ZM91.9369 56.4774H94.892V59.4325H91.9369V56.4774ZM97.8471 56.4774H100.802V59.4325H97.8471V56.4774ZM100.802 56.4774H103.757V59.4325H100.802V56.4774ZM6.2395 59.4325H9.19458V62.3875H6.2395V59.4325ZM9.19458 59.4325H12.1497V62.3875H9.19458V59.4325ZM18.0598 59.4325H21.0149V62.3875H18.0598V59.4325ZM21.0149 59.4325H23.97V62.3875H21.0149V59.4325ZM23.97 59.4325H26.9251V62.3875H23.97V59.4325ZM29.8802 59.4325H32.8352V62.3875H29.8802V59.4325ZM32.8352 59.4325H35.7903V62.3875H32.8352V59.4325ZM35.7903 59.4325H38.7454V62.3875H35.7903V59.4325ZM38.7454 59.4325H41.7005V62.3875H38.7454V59.4325ZM47.6107 59.4325H50.5657V62.3875H47.6107V59.4325ZM50.5657 59.4325H53.5208V62.3875H50.5657V59.4325ZM53.5208 59.4325H56.4759V62.3875H53.5208V59.4325ZM59.431 59.4325H62.3861V62.3875H59.431V59.4325ZM71.2513 59.4325H74.2064V62.3875H71.2513V59.4325ZM86.0267 59.4325H88.9818V62.3875H86.0267V59.4325ZM88.9818 59.4325H91.9369V62.3875H88.9818V59.4325ZM94.892 59.4325H97.8471V62.3875H94.892V59.4325ZM97.8471 59.4325H100.802V62.3875H97.8471V59.4325ZM6.2395 62.3875H9.19458V65.3426H6.2395V62.3875ZM9.19458 62.3875H12.1497V65.3426H9.19458V62.3875ZM12.1497 62.3875H15.1047V65.3426H12.1497V62.3875ZM15.1047 62.3875H18.0598V65.3426H15.1047V62.3875ZM18.0598 62.3875H21.0149V65.3426H18.0598V62.3875ZM21.0149 62.3875H23.97V65.3426H21.0149V62.3875ZM26.9251 62.3875H29.8802V65.3426H26.9251V62.3875ZM35.7903 62.3875H38.7454V65.3426H35.7903V62.3875ZM38.7454 62.3875H41.7005V65.3426H38.7454V62.3875ZM41.7005 62.3875H44.6556V65.3426H41.7005V62.3875ZM44.6556 62.3875H47.6107V65.3426H44.6556V62.3875ZM47.6107 62.3875H50.5657V65.3426H47.6107V62.3875ZM62.3861 62.3875H65.3412V65.3426H62.3861V62.3875ZM65.3412 62.3875H68.2962V65.3426H65.3412V62.3875ZM68.2962 62.3875H71.2513V65.3426H68.2962V62.3875ZM74.2064 62.3875H77.1615V65.3426H74.2064V62.3875ZM77.1615 62.3875H80.1166V65.3426H77.1615V62.3875ZM80.1166 62.3875H83.0716V65.3426H80.1166V62.3875ZM88.9818 62.3875H91.9369V65.3426H88.9818V62.3875ZM97.8471 62.3875H100.802V65.3426H97.8471V62.3875ZM9.19458 65.3426H12.1497V68.2977H9.19458V65.3426ZM12.1497 65.3426H15.1047V68.2977H12.1497V65.3426ZM18.0598 65.3426H21.0149V68.2977H18.0598V65.3426ZM23.97 65.3426H26.9251V68.2977H23.97V65.3426ZM26.9251 65.3426H29.8802V68.2977H26.9251V65.3426ZM29.8802 65.3426H32.8352V68.2977H29.8802V65.3426ZM32.8352 65.3426H35.7903V68.2977H32.8352V65.3426ZM35.7903 65.3426H38.7454V68.2977H35.7903V65.3426ZM38.7454 65.3426H41.7005V68.2977H38.7454V65.3426ZM44.6556 65.3426H47.6107V68.2977H44.6556V65.3426ZM47.6107 65.3426H50.5657V68.2977H47.6107V65.3426ZM50.5657 65.3426H53.5208V68.2977H50.5657V65.3426ZM56.4759 65.3426H59.431V68.2977H56.4759V65.3426ZM59.431 65.3426H62.3861V68.2977H59.431V65.3426ZM62.3861 65.3426H65.3412V68.2977H62.3861V65.3426ZM65.3412 65.3426H68.2962V68.2977H65.3412V65.3426ZM74.2064 65.3426H77.1615V68.2977H74.2064V65.3426ZM91.9369 65.3426H94.892V68.2977H91.9369V65.3426ZM94.892 65.3426H97.8471V68.2977H94.892V65.3426ZM97.8471 65.3426H100.802V68.2977H97.8471V65.3426ZM6.2395 68.2977H9.19458V71.2528H6.2395V68.2977ZM9.19458 68.2977H12.1497V71.2528H9.19458V68.2977ZM12.1497 68.2977H15.1047V71.2528H12.1497V68.2977ZM15.1047 68.2977H18.0598V71.2528H15.1047V68.2977ZM21.0149 68.2977H23.97V71.2528H21.0149V68.2977ZM26.9251 68.2977H29.8802V71.2528H26.9251V68.2977ZM32.8352 68.2977H35.7903V71.2528H32.8352V68.2977ZM35.7903 68.2977H38.7454V71.2528H35.7903V68.2977ZM41.7005 68.2977H44.6556V71.2528H41.7005V68.2977ZM44.6556 68.2977H47.6107V71.2528H44.6556V68.2977ZM47.6107 68.2977H50.5657V71.2528H47.6107V68.2977ZM50.5657 68.2977H53.5208V71.2528H50.5657V68.2977ZM74.2064 68.2977H77.1615V71.2528H74.2064V68.2977ZM77.1615 68.2977H80.1166V71.2528H77.1615V68.2977ZM83.0716 68.2977H86.0267V71.2528H83.0716V68.2977ZM91.9369 68.2977H94.892V71.2528H91.9369V68.2977ZM100.802 68.2977H103.757V71.2528H100.802V68.2977ZM12.1497 71.2528H15.1047V74.2079H12.1497V71.2528ZM18.0598 71.2528H21.0149V74.2079H18.0598V71.2528ZM21.0149 71.2528H23.97V74.2079H21.0149V71.2528ZM23.97 71.2528H26.9251V74.2079H23.97V71.2528ZM26.9251 71.2528H29.8802V74.2079H26.9251V71.2528ZM35.7903 71.2528H38.7454V74.2079H35.7903V71.2528ZM38.7454 71.2528H41.7005V74.2079H38.7454V71.2528ZM47.6107 71.2528H50.5657V74.2079H47.6107V71.2528ZM50.5657 71.2528H53.5208V74.2079H50.5657V71.2528ZM53.5208 71.2528H56.4759V74.2079H53.5208V71.2528ZM68.2962 71.2528H71.2513V74.2079H68.2962V71.2528ZM71.2513 71.2528H74.2064V74.2079H71.2513V71.2528ZM74.2064 71.2528H77.1615V74.2079H74.2064V71.2528ZM77.1615 71.2528H80.1166V74.2079H77.1615V71.2528ZM80.1166 71.2528H83.0716V74.2079H80.1166V71.2528ZM83.0716 71.2528H86.0267V74.2079H83.0716V71.2528ZM88.9818 71.2528H91.9369V74.2079H88.9818V71.2528ZM97.8471 71.2528H100.802V74.2079H97.8471V71.2528ZM100.802 71.2528H103.757V74.2079H100.802V71.2528ZM9.19458 74.2079H12.1497V77.1629H9.19458V74.2079ZM12.1497 74.2079H15.1047V77.1629H12.1497V74.2079ZM15.1047 74.2079H18.0598V77.1629H15.1047V74.2079ZM18.0598 74.2079H21.0149V77.1629H18.0598V74.2079ZM26.9251 74.2079H29.8802V77.1629H26.9251V74.2079ZM41.7005 74.2079H44.6556V77.1629H41.7005V74.2079ZM47.6107 74.2079H50.5657V77.1629H47.6107V74.2079ZM50.5657 74.2079H53.5208V77.1629H50.5657V74.2079ZM56.4759 74.2079H59.431V77.1629H56.4759V74.2079ZM59.431 74.2079H62.3861V77.1629H59.431V74.2079ZM62.3861 74.2079H65.3412V77.1629H62.3861V74.2079ZM77.1615 74.2079H80.1166V77.1629H77.1615V74.2079ZM80.1166 74.2079H83.0716V77.1629H80.1166V74.2079ZM86.0267 74.2079H88.9818V77.1629H86.0267V74.2079ZM91.9369 74.2079H94.892V77.1629H91.9369V74.2079ZM97.8471 74.2079H100.802V77.1629H97.8471V74.2079ZM6.2395 77.1629H9.19458V80.118H6.2395V77.1629ZM12.1497 77.1629H15.1047V80.118H12.1497V77.1629ZM15.1047 77.1629H18.0598V80.118H15.1047V77.1629ZM21.0149 77.1629H23.97V80.118H21.0149V77.1629ZM23.97 77.1629H26.9251V80.118H23.97V77.1629ZM29.8802 77.1629H32.8352V80.118H29.8802V77.1629ZM32.8352 77.1629H35.7903V80.118H32.8352V77.1629ZM53.5208 77.1629H56.4759V80.118H53.5208V77.1629ZM56.4759 77.1629H59.431V80.118H56.4759V77.1629ZM65.3412 77.1629H68.2962V80.118H65.3412V77.1629ZM71.2513 77.1629H74.2064V80.118H71.2513V77.1629ZM74.2064 77.1629H77.1615V80.118H74.2064V77.1629ZM77.1615 77.1629H80.1166V80.118H77.1615V77.1629ZM80.1166 77.1629H83.0716V80.118H80.1166V77.1629ZM83.0716 77.1629H86.0267V80.118H83.0716V77.1629ZM86.0267 77.1629H88.9818V80.118H86.0267V77.1629ZM88.9818 77.1629H91.9369V80.118H88.9818V77.1629ZM97.8471 77.1629H100.802V80.118H97.8471V77.1629ZM29.8802 80.118H32.8352V83.0731H29.8802V80.118ZM38.7454 80.118H41.7005V83.0731H38.7454V80.118ZM44.6556 80.118H47.6107V83.0731H44.6556V80.118ZM50.5657 80.118H53.5208V83.0731H50.5657V80.118ZM53.5208 80.118H56.4759V83.0731H53.5208V80.118ZM62.3861 80.118H65.3412V83.0731H62.3861V80.118ZM74.2064 80.118H77.1615V83.0731H74.2064V80.118ZM77.1615 80.118H80.1166V83.0731H77.1615V80.118ZM88.9818 80.118H91.9369V83.0731H88.9818V80.118ZM91.9369 80.118H94.892V83.0731H91.9369V80.118ZM97.8471 80.118H100.802V83.0731H97.8471V80.118ZM6.2395 83.0731H9.19458V86.0282H6.2395V83.0731ZM9.19458 83.0731H12.1497V86.0282H9.19458V83.0731ZM12.1497 83.0731H15.1047V86.0282H12.1497V83.0731ZM15.1047 83.0731H18.0598V86.0282H15.1047V83.0731ZM18.0598 83.0731H21.0149V86.0282H18.0598V83.0731ZM21.0149 83.0731H23.97V86.0282H21.0149V83.0731ZM23.97 83.0731H26.9251V86.0282H23.97V83.0731ZM32.8352 83.0731H35.7903V86.0282H32.8352V83.0731ZM35.7903 83.0731H38.7454V86.0282H35.7903V83.0731ZM41.7005 83.0731H44.6556V86.0282H41.7005V83.0731ZM47.6107 83.0731H50.5657V86.0282H47.6107V83.0731ZM62.3861 83.0731H65.3412V86.0282H62.3861V83.0731ZM71.2513 83.0731H74.2064V86.0282H71.2513V83.0731ZM74.2064 83.0731H77.1615V86.0282H74.2064V83.0731ZM77.1615 83.0731H80.1166V86.0282H77.1615V83.0731ZM83.0716 83.0731H86.0267V86.0282H83.0716V83.0731ZM88.9818 83.0731H91.9369V86.0282H88.9818V83.0731ZM6.2395 86.0282H9.19458V88.9833H6.2395V86.0282ZM23.97 86.0282H26.9251V88.9833H23.97V86.0282ZM29.8802 86.0282H32.8352V88.9833H29.8802V86.0282ZM35.7903 86.0282H38.7454V88.9833H35.7903V86.0282ZM41.7005 86.0282H44.6556V88.9833H41.7005V86.0282ZM44.6556 86.0282H47.6107V88.9833H44.6556V86.0282ZM47.6107 86.0282H50.5657V88.9833H47.6107V86.0282ZM50.5657 86.0282H53.5208V88.9833H50.5657V86.0282ZM53.5208 86.0282H56.4759V88.9833H53.5208V86.0282ZM56.4759 86.0282H59.431V88.9833H56.4759V86.0282ZM59.431 86.0282H62.3861V88.9833H59.431V86.0282ZM62.3861 86.0282H65.3412V88.9833H62.3861V86.0282ZM65.3412 86.0282H68.2962V88.9833H65.3412V86.0282ZM68.2962 86.0282H71.2513V88.9833H68.2962V86.0282ZM71.2513 86.0282H74.2064V88.9833H71.2513V86.0282ZM74.2064 86.0282H77.1615V88.9833H74.2064V86.0282ZM77.1615 86.0282H80.1166V88.9833H77.1615V86.0282ZM88.9818 86.0282H91.9369V88.9833H88.9818V86.0282ZM91.9369 86.0282H94.892V88.9833H91.9369V86.0282ZM94.892 86.0282H97.8471V88.9833H94.892V86.0282ZM6.2395 88.9833H9.19458V91.9384H6.2395V88.9833ZM12.1497 88.9833H15.1047V91.9384H12.1497V88.9833ZM15.1047 88.9833H18.0598V91.9384H15.1047V88.9833ZM18.0598 88.9833H21.0149V91.9384H18.0598V88.9833ZM23.97 88.9833H26.9251V91.9384H23.97V88.9833ZM35.7903 88.9833H38.7454V91.9384H35.7903V88.9833ZM41.7005 88.9833H44.6556V91.9384H41.7005V88.9833ZM44.6556 88.9833H47.6107V91.9384H44.6556V88.9833ZM47.6107 88.9833H50.5657V91.9384H47.6107V88.9833ZM53.5208 88.9833H56.4759V91.9384H53.5208V88.9833ZM56.4759 88.9833H59.431V91.9384H56.4759V88.9833ZM65.3412 88.9833H68.2962V91.9384H65.3412V88.9833ZM74.2064 88.9833H77.1615V91.9384H74.2064V88.9833ZM77.1615 88.9833H80.1166V91.9384H77.1615V88.9833ZM80.1166 88.9833H83.0716V91.9384H80.1166V88.9833ZM83.0716 88.9833H86.0267V91.9384H83.0716V88.9833ZM86.0267 88.9833H88.9818V91.9384H86.0267V88.9833ZM88.9818 88.9833H91.9369V91.9384H88.9818V88.9833ZM94.892 88.9833H97.8471V91.9384H94.892V88.9833ZM97.8471 88.9833H100.802V91.9384H97.8471V88.9833ZM100.802 88.9833H103.757V91.9384H100.802V88.9833ZM6.2395 91.9384H9.19458V94.8934H6.2395V91.9384ZM12.1497 91.9384H15.1047V94.8934H12.1497V91.9384ZM15.1047 91.9384H18.0598V94.8934H15.1047V91.9384ZM18.0598 91.9384H21.0149V94.8934H18.0598V91.9384ZM23.97 91.9384H26.9251V94.8934H23.97V91.9384ZM29.8802 91.9384H32.8352V94.8934H29.8802V91.9384ZM35.7903 91.9384H38.7454V94.8934H35.7903V91.9384ZM38.7454 91.9384H41.7005V94.8934H38.7454V91.9384ZM41.7005 91.9384H44.6556V94.8934H41.7005V91.9384ZM47.6107 91.9384H50.5657V94.8934H47.6107V91.9384ZM53.5208 91.9384H56.4759V94.8934H53.5208V91.9384ZM56.4759 91.9384H59.431V94.8934H56.4759V91.9384ZM59.431 91.9384H62.3861V94.8934H59.431V91.9384ZM62.3861 91.9384H65.3412V94.8934H62.3861V91.9384ZM65.3412 91.9384H68.2962V94.8934H65.3412V91.9384ZM74.2064 91.9384H77.1615V94.8934H74.2064V91.9384ZM86.0267 91.9384H88.9818V94.8934H86.0267V91.9384ZM94.892 91.9384H97.8471V94.8934H94.892V91.9384ZM97.8471 91.9384H100.802V94.8934H97.8471V91.9384ZM100.802 91.9384H103.757V94.8934H100.802V91.9384ZM6.2395 94.8934H9.19458V97.8485H6.2395V94.8934ZM12.1497 94.8934H15.1047V97.8485H12.1497V94.8934ZM15.1047 94.8934H18.0598V97.8485H15.1047V94.8934ZM18.0598 94.8934H21.0149V97.8485H18.0598V94.8934ZM23.97 94.8934H26.9251V97.8485H23.97V94.8934ZM29.8802 94.8934H32.8352V97.8485H29.8802V94.8934ZM32.8352 94.8934H35.7903V97.8485H32.8352V94.8934ZM35.7903 94.8934H38.7454V97.8485H35.7903V94.8934ZM38.7454 94.8934H41.7005V97.8485H38.7454V94.8934ZM41.7005 94.8934H44.6556V97.8485H41.7005V94.8934ZM47.6107 94.8934H50.5657V97.8485H47.6107V94.8934ZM53.5208 94.8934H56.4759V97.8485H53.5208V94.8934ZM59.431 94.8934H62.3861V97.8485H59.431V94.8934ZM62.3861 94.8934H65.3412V97.8485H62.3861V94.8934ZM68.2962 94.8934H71.2513V97.8485H68.2962V94.8934ZM71.2513 94.8934H74.2064V97.8485H71.2513V94.8934ZM74.2064 94.8934H77.1615V97.8485H74.2064V94.8934ZM77.1615 94.8934H80.1166V97.8485H77.1615V94.8934ZM83.0716 94.8934H86.0267V97.8485H83.0716V94.8934ZM86.0267 94.8934H88.9818V97.8485H86.0267V94.8934ZM91.9369 94.8934H94.892V97.8485H91.9369V94.8934ZM94.892 94.8934H97.8471V97.8485H94.892V94.8934ZM6.2395 97.8485H9.19458V100.804H6.2395V97.8485ZM23.97 97.8485H26.9251V100.804H23.97V97.8485ZM29.8802 97.8485H32.8352V100.804H29.8802V97.8485ZM35.7903 97.8485H38.7454V100.804H35.7903V97.8485ZM38.7454 97.8485H41.7005V100.804H38.7454V97.8485ZM44.6556 97.8485H47.6107V100.804H44.6556V97.8485ZM50.5657 97.8485H53.5208V100.804H50.5657V97.8485ZM53.5208 97.8485H56.4759V100.804H53.5208V97.8485ZM56.4759 97.8485H59.431V100.804H56.4759V97.8485ZM62.3861 97.8485H65.3412V100.804H62.3861V97.8485ZM74.2064 97.8485H77.1615V100.804H74.2064V97.8485ZM77.1615 97.8485H80.1166V100.804H77.1615V97.8485ZM80.1166 97.8485H83.0716V100.804H80.1166V97.8485ZM86.0267 97.8485H88.9818V100.804H86.0267V97.8485ZM88.9818 97.8485H91.9369V100.804H88.9818V97.8485ZM100.802 97.8485H103.757V100.804H100.802V97.8485ZM6.2395 100.804H9.19458V103.759H6.2395V100.804ZM9.19458 100.804H12.1497V103.759H9.19458V100.804ZM12.1497 100.804H15.1047V103.759H12.1497V100.804ZM15.1047 100.804H18.0598V103.759H15.1047V100.804ZM18.0598 100.804H21.0149V103.759H18.0598V100.804ZM21.0149 100.804H23.97V103.759H21.0149V100.804ZM23.97 100.804H26.9251V103.759H23.97V100.804ZM56.4759 100.804H59.431V103.759H56.4759V100.804ZM68.2962 100.804H71.2513V103.759H68.2962V100.804ZM74.2064 100.804H77.1615V103.759H74.2064V100.804ZM83.0716 100.804H86.0267V103.759H83.0716V100.804ZM88.9818 100.804H91.9369V103.759H88.9818V100.804ZM94.892 100.804H97.8471V103.759H94.892V100.804Z" fill="#18153F"/>
<defs>
<linearGradient id="paint0_linear_2785_83242" x1="55" y1="1.20032e-05" x2="128.349" y2="29.8406" gradientUnits="userSpaceOnUse">
<stop stop-color="#7E2CFF"/>
<stop offset="1" stop-color="#596BF7"/>
</linearGradient>
<radialGradient id="paint1_radial_2785_83242" cx="0" cy="0" r="1" gradientUnits="userSpaceOnUse" gradientTransform="translate(55 55) scale(55)">
<stop/>
<stop offset="0.0625" stop-opacity="0.921223"/>
<stop offset="0.793378" stop-opacity="0"/>
</radialGradient>
</defs>
</svg>
