<svg width="142" height="142" viewBox="0 0 142 142" fill="none" xmlns="http://www.w3.org/2000/svg">
<rect x="1" y="1" width="140" height="140" rx="4" fill="white"/>
<path d="M8.05469 8.05664H11.8694V11.8714H8.05469V8.05664ZM11.8694 8.05664H15.6842V11.8714H11.8694V8.05664ZM15.6842 8.05664H19.4989V11.8714H15.6842V8.05664ZM19.4989 8.05664H23.3137V11.8714H19.4989V8.05664ZM23.3137 8.05664H27.1284V11.8714H23.3137V8.05664ZM27.1284 8.05664H30.9431V11.8714H27.1284V8.05664ZM30.9431 8.05664H34.7579V11.8714H30.9431V8.05664ZM72.9053 8.05664H76.7201V11.8714H72.9053V8.05664ZM76.7201 8.05664H80.5348V11.8714H76.7201V8.05664ZM80.5348 8.05664H84.3495V11.8714H80.5348V8.05664ZM84.3495 8.05664H88.1643V11.8714H84.3495V8.05664ZM95.7938 8.05664H99.6085V11.8714H95.7938V8.05664ZM107.238 8.05664H111.053V11.8714H107.238V8.05664ZM111.053 8.05664H114.867V11.8714H111.053V8.05664ZM114.867 8.05664H118.682V11.8714H114.867V8.05664ZM118.682 8.05664H122.497V11.8714H118.682V8.05664ZM122.497 8.05664H126.312V11.8714H122.497V8.05664ZM126.312 8.05664H130.126V11.8714H126.312V8.05664ZM130.126 8.05664H133.941V11.8714H130.126V8.05664ZM8.05469 11.8714H11.8694V15.6861H8.05469V11.8714ZM30.9431 11.8714H34.7579V15.6861H30.9431V11.8714ZM38.5726 11.8714H42.3874V15.6861H38.5726V11.8714ZM42.3874 11.8714H46.2021V15.6861H42.3874V11.8714ZM53.8316 11.8714H57.6463V15.6861H53.8316V11.8714ZM57.6463 11.8714H61.4611V15.6861H57.6463V11.8714ZM61.4611 11.8714H65.2758V15.6861H61.4611V11.8714ZM69.0906 11.8714H72.9053V15.6861H69.0906V11.8714ZM76.7201 11.8714H80.5348V15.6861H76.7201V11.8714ZM88.1643 11.8714H91.979V15.6861H88.1643V11.8714ZM91.979 11.8714H95.7938V15.6861H91.979V11.8714ZM95.7938 11.8714H99.6085V15.6861H95.7938V11.8714ZM107.238 11.8714H111.053V15.6861H107.238V11.8714ZM130.126 11.8714H133.941V15.6861H130.126V11.8714ZM8.05469 15.6861H11.8694V19.5009H8.05469V15.6861ZM15.6842 15.6861H19.4989V19.5009H15.6842V15.6861ZM19.4989 15.6861H23.3137V19.5009H19.4989V15.6861ZM23.3137 15.6861H27.1284V19.5009H23.3137V15.6861ZM30.9431 15.6861H34.7579V19.5009H30.9431V15.6861ZM38.5726 15.6861H42.3874V19.5009H38.5726V15.6861ZM42.3874 15.6861H46.2021V19.5009H42.3874V15.6861ZM46.2021 15.6861H50.0169V19.5009H46.2021V15.6861ZM53.8316 15.6861H57.6463V19.5009H53.8316V15.6861ZM57.6463 15.6861H61.4611V19.5009H57.6463V15.6861ZM65.2758 15.6861H69.0906V19.5009H65.2758V15.6861ZM69.0906 15.6861H72.9053V19.5009H69.0906V15.6861ZM72.9053 15.6861H76.7201V19.5009H72.9053V15.6861ZM80.5348 15.6861H84.3495V19.5009H80.5348V15.6861ZM84.3495 15.6861H88.1643V19.5009H84.3495V15.6861ZM88.1643 15.6861H91.979V19.5009H88.1643V15.6861ZM91.979 15.6861H95.7938V19.5009H91.979V15.6861ZM95.7938 15.6861H99.6085V19.5009H95.7938V15.6861ZM99.6085 15.6861H103.423V19.5009H99.6085V15.6861ZM107.238 15.6861H111.053V19.5009H107.238V15.6861ZM114.867 15.6861H118.682V19.5009H114.867V15.6861ZM118.682 15.6861H122.497V19.5009H118.682V15.6861ZM122.497 15.6861H126.312V19.5009H122.497V15.6861ZM130.126 15.6861H133.941V19.5009H130.126V15.6861ZM8.05469 19.5009H11.8694V23.3156H8.05469V19.5009ZM15.6842 19.5009H19.4989V23.3156H15.6842V19.5009ZM19.4989 19.5009H23.3137V23.3156H19.4989V19.5009ZM23.3137 19.5009H27.1284V23.3156H23.3137V19.5009ZM30.9431 19.5009H34.7579V23.3156H30.9431V19.5009ZM46.2021 19.5009H50.0169V23.3156H46.2021V19.5009ZM50.0169 19.5009H53.8316V23.3156H50.0169V19.5009ZM53.8316 19.5009H57.6463V23.3156H53.8316V19.5009ZM61.4611 19.5009H65.2758V23.3156H61.4611V19.5009ZM65.2758 19.5009H69.0906V23.3156H65.2758V19.5009ZM84.3495 19.5009H88.1643V23.3156H84.3495V19.5009ZM88.1643 19.5009H91.979V23.3156H88.1643V19.5009ZM91.979 19.5009H95.7938V23.3156H91.979V19.5009ZM95.7938 19.5009H99.6085V23.3156H95.7938V19.5009ZM99.6085 19.5009H103.423V23.3156H99.6085V19.5009ZM107.238 19.5009H111.053V23.3156H107.238V19.5009ZM114.867 19.5009H118.682V23.3156H114.867V19.5009ZM118.682 19.5009H122.497V23.3156H118.682V19.5009ZM122.497 19.5009H126.312V23.3156H122.497V19.5009ZM130.126 19.5009H133.941V23.3156H130.126V19.5009ZM8.05469 23.3156H11.8694V27.1304H8.05469V23.3156ZM15.6842 23.3156H19.4989V27.1304H15.6842V23.3156ZM19.4989 23.3156H23.3137V27.1304H19.4989V23.3156ZM23.3137 23.3156H27.1284V27.1304H23.3137V23.3156ZM30.9431 23.3156H34.7579V27.1304H30.9431V23.3156ZM42.3874 23.3156H46.2021V27.1304H42.3874V23.3156ZM46.2021 23.3156H50.0169V27.1304H46.2021V23.3156ZM69.0906 23.3156H72.9053V27.1304H69.0906V23.3156ZM84.3495 23.3156H88.1643V27.1304H84.3495V23.3156ZM95.7938 23.3156H99.6085V27.1304H95.7938V23.3156ZM107.238 23.3156H111.053V27.1304H107.238V23.3156ZM114.867 23.3156H118.682V27.1304H114.867V23.3156ZM118.682 23.3156H122.497V27.1304H118.682V23.3156ZM122.497 23.3156H126.312V27.1304H122.497V23.3156ZM130.126 23.3156H133.941V27.1304H130.126V23.3156ZM8.05469 27.1304H11.8694V30.9451H8.05469V27.1304ZM30.9431 27.1304H34.7579V30.9451H30.9431V27.1304ZM46.2021 27.1304H50.0169V30.9451H46.2021V27.1304ZM50.0169 27.1304H53.8316V30.9451H50.0169V27.1304ZM53.8316 27.1304H57.6463V30.9451H53.8316V27.1304ZM69.0906 27.1304H72.9053V30.9451H69.0906V27.1304ZM72.9053 27.1304H76.7201V30.9451H72.9053V27.1304ZM76.7201 27.1304H80.5348V30.9451H76.7201V27.1304ZM80.5348 27.1304H84.3495V30.9451H80.5348V27.1304ZM84.3495 27.1304H88.1643V30.9451H84.3495V27.1304ZM88.1643 27.1304H91.979V30.9451H88.1643V27.1304ZM99.6085 27.1304H103.423V30.9451H99.6085V27.1304ZM107.238 27.1304H111.053V30.9451H107.238V27.1304ZM130.126 27.1304H133.941V30.9451H130.126V27.1304ZM8.05469 30.9451H11.8694V34.7598H8.05469V30.9451ZM11.8694 30.9451H15.6842V34.7598H11.8694V30.9451ZM15.6842 30.9451H19.4989V34.7598H15.6842V30.9451ZM19.4989 30.9451H23.3137V34.7598H19.4989V30.9451ZM23.3137 30.9451H27.1284V34.7598H23.3137V30.9451ZM27.1284 30.9451H30.9431V34.7598H27.1284V30.9451ZM30.9431 30.9451H34.7579V34.7598H30.9431V30.9451ZM38.5726 30.9451H42.3874V34.7598H38.5726V30.9451ZM46.2021 30.9451H50.0169V34.7598H46.2021V30.9451ZM53.8316 30.9451H57.6463V34.7598H53.8316V30.9451ZM61.4611 30.9451H65.2758V34.7598H61.4611V30.9451ZM69.0906 30.9451H72.9053V34.7598H69.0906V30.9451ZM76.7201 30.9451H80.5348V34.7598H76.7201V30.9451ZM84.3495 30.9451H88.1643V34.7598H84.3495V30.9451ZM91.979 30.9451H95.7938V34.7598H91.979V30.9451ZM99.6085 30.9451H103.423V34.7598H99.6085V30.9451ZM107.238 30.9451H111.053V34.7598H107.238V30.9451ZM111.053 30.9451H114.867V34.7598H111.053V30.9451ZM114.867 30.9451H118.682V34.7598H114.867V30.9451ZM118.682 30.9451H122.497V34.7598H118.682V30.9451ZM122.497 30.9451H126.312V34.7598H122.497V30.9451ZM126.312 30.9451H130.126V34.7598H126.312V30.9451ZM130.126 30.9451H133.941V34.7598H130.126V30.9451ZM42.3874 34.7598H46.2021V38.5746H42.3874V34.7598ZM53.8316 34.7598H57.6463V38.5746H53.8316V34.7598ZM69.0906 34.7598H72.9053V38.5746H69.0906V34.7598ZM72.9053 34.7598H76.7201V38.5746H72.9053V34.7598ZM84.3495 34.7598H88.1643V38.5746H84.3495V34.7598ZM91.979 34.7598H95.7938V38.5746H91.979V34.7598ZM11.8694 38.5746H15.6842V42.3893H11.8694V38.5746ZM15.6842 38.5746H19.4989V42.3893H15.6842V38.5746ZM19.4989 38.5746H23.3137V42.3893H19.4989V38.5746ZM27.1284 38.5746H30.9431V42.3893H27.1284V38.5746ZM30.9431 38.5746H34.7579V42.3893H30.9431V38.5746ZM61.4611 38.5746H65.2758V42.3893H61.4611V38.5746ZM69.0906 38.5746H72.9053V42.3893H69.0906V38.5746ZM72.9053 38.5746H76.7201V42.3893H72.9053V38.5746ZM76.7201 38.5746H80.5348V42.3893H76.7201V38.5746ZM80.5348 38.5746H84.3495V42.3893H80.5348V38.5746ZM88.1643 38.5746H91.979V42.3893H88.1643V38.5746ZM122.497 38.5746H126.312V42.3893H122.497V38.5746ZM126.312 38.5746H130.126V42.3893H126.312V38.5746ZM23.3137 42.3893H27.1284V46.2041H23.3137V42.3893ZM27.1284 42.3893H30.9431V46.2041H27.1284V42.3893ZM34.7579 42.3893H38.5726V46.2041H34.7579V42.3893ZM38.5726 42.3893H42.3874V46.2041H38.5726V42.3893ZM42.3874 42.3893H46.2021V46.2041H42.3874V42.3893ZM46.2021 42.3893H50.0169V46.2041H46.2021V42.3893ZM53.8316 42.3893H57.6463V46.2041H53.8316V42.3893ZM57.6463 42.3893H61.4611V46.2041H57.6463V42.3893ZM61.4611 42.3893H65.2758V46.2041H61.4611V42.3893ZM76.7201 42.3893H80.5348V46.2041H76.7201V42.3893ZM80.5348 42.3893H84.3495V46.2041H80.5348V42.3893ZM84.3495 42.3893H88.1643V46.2041H84.3495V42.3893ZM88.1643 42.3893H91.979V46.2041H88.1643V42.3893ZM95.7938 42.3893H99.6085V46.2041H95.7938V42.3893ZM99.6085 42.3893H103.423V46.2041H99.6085V42.3893ZM107.238 42.3893H111.053V46.2041H107.238V42.3893ZM111.053 42.3893H114.867V46.2041H111.053V42.3893ZM118.682 42.3893H122.497V46.2041H118.682V42.3893ZM122.497 42.3893H126.312V46.2041H122.497V42.3893ZM130.126 42.3893H133.941V46.2041H130.126V42.3893ZM8.05469 46.2041H11.8694V50.0188H8.05469V46.2041ZM27.1284 46.2041H30.9431V50.0188H27.1284V46.2041ZM30.9431 46.2041H34.7579V50.0188H30.9431V46.2041ZM34.7579 46.2041H38.5726V50.0188H34.7579V46.2041ZM38.5726 46.2041H42.3874V50.0188H38.5726V46.2041ZM42.3874 46.2041H46.2021V50.0188H42.3874V46.2041ZM50.0169 46.2041H53.8316V50.0188H50.0169V46.2041ZM53.8316 46.2041H57.6463V50.0188H53.8316V46.2041ZM57.6463 46.2041H61.4611V50.0188H57.6463V46.2041ZM72.9053 46.2041H76.7201V50.0188H72.9053V46.2041ZM95.7938 46.2041H99.6085V50.0188H95.7938V46.2041ZM99.6085 46.2041H103.423V50.0188H99.6085V46.2041ZM103.423 46.2041H107.238V50.0188H103.423V46.2041ZM111.053 46.2041H114.867V50.0188H111.053V46.2041ZM114.867 46.2041H118.682V50.0188H114.867V46.2041ZM118.682 46.2041H122.497V50.0188H118.682V46.2041ZM126.312 46.2041H130.126V50.0188H126.312V46.2041ZM130.126 46.2041H133.941V50.0188H130.126V46.2041ZM8.05469 50.0188H11.8694V53.8336H8.05469V50.0188ZM11.8694 50.0188H15.6842V53.8336H11.8694V50.0188ZM15.6842 50.0188H19.4989V53.8336H15.6842V50.0188ZM19.4989 50.0188H23.3137V53.8336H19.4989V50.0188ZM42.3874 50.0188H46.2021V53.8336H42.3874V50.0188ZM46.2021 50.0188H50.0169V53.8336H46.2021V50.0188ZM57.6463 50.0188H61.4611V53.8336H57.6463V50.0188ZM61.4611 50.0188H65.2758V53.8336H61.4611V50.0188ZM69.0906 50.0188H72.9053V53.8336H69.0906V50.0188ZM76.7201 50.0188H80.5348V53.8336H76.7201V50.0188ZM80.5348 50.0188H84.3495V53.8336H80.5348V50.0188ZM95.7938 50.0188H99.6085V53.8336H95.7938V50.0188ZM99.6085 50.0188H103.423V53.8336H99.6085V50.0188ZM103.423 50.0188H107.238V53.8336H103.423V50.0188ZM107.238 50.0188H111.053V53.8336H107.238V50.0188ZM111.053 50.0188H114.867V53.8336H111.053V50.0188ZM118.682 50.0188H122.497V53.8336H118.682V50.0188ZM130.126 50.0188H133.941V53.8336H130.126V50.0188ZM11.8694 53.8336H15.6842V57.6483H11.8694V53.8336ZM15.6842 53.8336H19.4989V57.6483H15.6842V53.8336ZM23.3137 53.8336H27.1284V57.6483H23.3137V53.8336ZM27.1284 53.8336H30.9431V57.6483H27.1284V53.8336ZM30.9431 53.8336H34.7579V57.6483H30.9431V53.8336ZM34.7579 53.8336H38.5726V57.6483H34.7579V53.8336ZM38.5726 53.8336H42.3874V57.6483H38.5726V53.8336ZM50.0169 53.8336H53.8316V57.6483H50.0169V53.8336ZM57.6463 53.8336H61.4611V57.6483H57.6463V53.8336ZM61.4611 53.8336H65.2758V57.6483H61.4611V53.8336ZM76.7201 53.8336H80.5348V57.6483H76.7201V53.8336ZM80.5348 53.8336H84.3495V57.6483H80.5348V53.8336ZM88.1643 53.8336H91.979V57.6483H88.1643V53.8336ZM95.7938 53.8336H99.6085V57.6483H95.7938V53.8336ZM99.6085 53.8336H103.423V57.6483H99.6085V53.8336ZM103.423 53.8336H107.238V57.6483H103.423V53.8336ZM111.053 53.8336H114.867V57.6483H111.053V53.8336ZM114.867 53.8336H118.682V57.6483H114.867V53.8336ZM118.682 53.8336H122.497V57.6483H118.682V53.8336ZM126.312 53.8336H130.126V57.6483H126.312V53.8336ZM15.6842 57.6483H19.4989V61.463H15.6842V57.6483ZM23.3137 57.6483H27.1284V61.463H23.3137V57.6483ZM46.2021 57.6483H50.0169V61.463H46.2021V57.6483ZM53.8316 57.6483H57.6463V61.463H53.8316V57.6483ZM61.4611 57.6483H65.2758V61.463H61.4611V57.6483ZM69.0906 57.6483H72.9053V61.463H69.0906V57.6483ZM76.7201 57.6483H80.5348V61.463H76.7201V57.6483ZM88.1643 57.6483H91.979V61.463H88.1643V57.6483ZM91.979 57.6483H95.7938V61.463H91.979V57.6483ZM118.682 57.6483H122.497V61.463H118.682V57.6483ZM126.312 57.6483H130.126V61.463H126.312V57.6483ZM8.05469 61.463H11.8694V65.2778H8.05469V61.463ZM11.8694 61.463H15.6842V65.2778H11.8694V61.463ZM15.6842 61.463H19.4989V65.2778H15.6842V61.463ZM19.4989 61.463H23.3137V65.2778H19.4989V61.463ZM23.3137 61.463H27.1284V65.2778H23.3137V61.463ZM30.9431 61.463H34.7579V65.2778H30.9431V61.463ZM34.7579 61.463H38.5726V65.2778H34.7579V61.463ZM38.5726 61.463H42.3874V65.2778H38.5726V61.463ZM42.3874 61.463H46.2021V65.2778H42.3874V61.463ZM46.2021 61.463H50.0169V65.2778H46.2021V61.463ZM50.0169 61.463H53.8316V65.2778H50.0169V61.463ZM53.8316 61.463H57.6463V65.2778H53.8316V61.463ZM65.2758 61.463H69.0906V65.2778H65.2758V61.463ZM69.0906 61.463H72.9053V65.2778H69.0906V61.463ZM76.7201 61.463H80.5348V65.2778H76.7201V61.463ZM88.1643 61.463H91.979V65.2778H88.1643V61.463ZM99.6085 61.463H103.423V65.2778H99.6085V61.463ZM107.238 61.463H111.053V65.2778H107.238V61.463ZM111.053 61.463H114.867V65.2778H111.053V61.463ZM118.682 61.463H122.497V65.2778H118.682V61.463ZM11.8694 65.2778H15.6842V69.0925H11.8694V65.2778ZM15.6842 65.2778H19.4989V69.0925H15.6842V65.2778ZM27.1284 65.2778H30.9431V69.0925H27.1284V65.2778ZM34.7579 65.2778H38.5726V69.0925H34.7579V65.2778ZM50.0169 65.2778H53.8316V69.0925H50.0169V65.2778ZM53.8316 65.2778H57.6463V69.0925H53.8316V65.2778ZM69.0906 65.2778H72.9053V69.0925H69.0906V65.2778ZM76.7201 65.2778H80.5348V69.0925H76.7201V65.2778ZM80.5348 65.2778H84.3495V69.0925H80.5348V65.2778ZM84.3495 65.2778H88.1643V69.0925H84.3495V65.2778ZM88.1643 65.2778H91.979V69.0925H88.1643V65.2778ZM91.979 65.2778H95.7938V69.0925H91.979V65.2778ZM95.7938 65.2778H99.6085V69.0925H95.7938V65.2778ZM103.423 65.2778H107.238V69.0925H103.423V65.2778ZM107.238 65.2778H111.053V69.0925H107.238V65.2778ZM118.682 65.2778H122.497V69.0925H118.682V65.2778ZM122.497 65.2778H126.312V69.0925H122.497V65.2778ZM15.6842 69.0925H19.4989V72.9073H15.6842V69.0925ZM30.9431 69.0925H34.7579V72.9073H30.9431V69.0925ZM34.7579 69.0925H38.5726V72.9073H34.7579V69.0925ZM50.0169 69.0925H53.8316V72.9073H50.0169V69.0925ZM57.6463 69.0925H61.4611V72.9073H57.6463V69.0925ZM61.4611 69.0925H65.2758V72.9073H61.4611V69.0925ZM69.0906 69.0925H72.9053V72.9073H69.0906V69.0925ZM72.9053 69.0925H76.7201V72.9073H72.9053V69.0925ZM80.5348 69.0925H84.3495V72.9073H80.5348V69.0925ZM84.3495 69.0925H88.1643V72.9073H84.3495V69.0925ZM88.1643 69.0925H91.979V72.9073H88.1643V69.0925ZM91.979 69.0925H95.7938V72.9073H91.979V69.0925ZM103.423 69.0925H107.238V72.9073H103.423V69.0925ZM107.238 69.0925H111.053V72.9073H107.238V69.0925ZM114.867 69.0925H118.682V72.9073H114.867V69.0925ZM118.682 69.0925H122.497V72.9073H118.682V69.0925ZM122.497 69.0925H126.312V72.9073H122.497V69.0925ZM11.8694 72.9073H15.6842V76.722H11.8694V72.9073ZM19.4989 72.9073H23.3137V76.722H19.4989V72.9073ZM34.7579 72.9073H38.5726V76.722H34.7579V72.9073ZM53.8316 72.9073H57.6463V76.722H53.8316V72.9073ZM65.2758 72.9073H69.0906V76.722H65.2758V72.9073ZM72.9053 72.9073H76.7201V76.722H72.9053V72.9073ZM76.7201 72.9073H80.5348V76.722H76.7201V72.9073ZM84.3495 72.9073H88.1643V76.722H84.3495V72.9073ZM88.1643 72.9073H91.979V76.722H88.1643V72.9073ZM91.979 72.9073H95.7938V76.722H91.979V72.9073ZM95.7938 72.9073H99.6085V76.722H95.7938V72.9073ZM99.6085 72.9073H103.423V76.722H99.6085V72.9073ZM103.423 72.9073H107.238V76.722H103.423V72.9073ZM107.238 72.9073H111.053V76.722H107.238V72.9073ZM114.867 72.9073H118.682V76.722H114.867V72.9073ZM118.682 72.9073H122.497V76.722H118.682V72.9073ZM126.312 72.9073H130.126V76.722H126.312V72.9073ZM130.126 72.9073H133.941V76.722H130.126V72.9073ZM8.05469 76.722H11.8694V80.5368H8.05469V76.722ZM11.8694 76.722H15.6842V80.5368H11.8694V76.722ZM23.3137 76.722H27.1284V80.5368H23.3137V76.722ZM27.1284 76.722H30.9431V80.5368H27.1284V76.722ZM30.9431 76.722H34.7579V80.5368H30.9431V76.722ZM38.5726 76.722H42.3874V80.5368H38.5726V76.722ZM42.3874 76.722H46.2021V80.5368H42.3874V76.722ZM46.2021 76.722H50.0169V80.5368H46.2021V76.722ZM50.0169 76.722H53.8316V80.5368H50.0169V76.722ZM61.4611 76.722H65.2758V80.5368H61.4611V76.722ZM65.2758 76.722H69.0906V80.5368H65.2758V76.722ZM69.0906 76.722H72.9053V80.5368H69.0906V76.722ZM76.7201 76.722H80.5348V80.5368H76.7201V76.722ZM91.979 76.722H95.7938V80.5368H91.979V76.722ZM111.053 76.722H114.867V80.5368H111.053V76.722ZM114.867 76.722H118.682V80.5368H114.867V76.722ZM122.497 76.722H126.312V80.5368H122.497V76.722ZM126.312 76.722H130.126V80.5368H126.312V76.722ZM8.05469 80.5368H11.8694V84.3515H8.05469V80.5368ZM11.8694 80.5368H15.6842V84.3515H11.8694V80.5368ZM15.6842 80.5368H19.4989V84.3515H15.6842V80.5368ZM19.4989 80.5368H23.3137V84.3515H19.4989V80.5368ZM23.3137 80.5368H27.1284V84.3515H23.3137V80.5368ZM27.1284 80.5368H30.9431V84.3515H27.1284V80.5368ZM34.7579 80.5368H38.5726V84.3515H34.7579V80.5368ZM46.2021 80.5368H50.0169V84.3515H46.2021V80.5368ZM50.0169 80.5368H53.8316V84.3515H50.0169V80.5368ZM53.8316 80.5368H57.6463V84.3515H53.8316V80.5368ZM57.6463 80.5368H61.4611V84.3515H57.6463V80.5368ZM61.4611 80.5368H65.2758V84.3515H61.4611V80.5368ZM80.5348 80.5368H84.3495V84.3515H80.5348V80.5368ZM84.3495 80.5368H88.1643V84.3515H84.3495V80.5368ZM88.1643 80.5368H91.979V84.3515H88.1643V80.5368ZM95.7938 80.5368H99.6085V84.3515H95.7938V80.5368ZM99.6085 80.5368H103.423V84.3515H99.6085V80.5368ZM103.423 80.5368H107.238V84.3515H103.423V80.5368ZM114.867 80.5368H118.682V84.3515H114.867V80.5368ZM126.312 80.5368H130.126V84.3515H126.312V80.5368ZM11.8694 84.3515H15.6842V88.1662H11.8694V84.3515ZM15.6842 84.3515H19.4989V88.1662H15.6842V84.3515ZM23.3137 84.3515H27.1284V88.1662H23.3137V84.3515ZM30.9431 84.3515H34.7579V88.1662H30.9431V84.3515ZM34.7579 84.3515H38.5726V88.1662H34.7579V84.3515ZM38.5726 84.3515H42.3874V88.1662H38.5726V84.3515ZM42.3874 84.3515H46.2021V88.1662H42.3874V84.3515ZM46.2021 84.3515H50.0169V88.1662H46.2021V84.3515ZM50.0169 84.3515H53.8316V88.1662H50.0169V84.3515ZM57.6463 84.3515H61.4611V88.1662H57.6463V84.3515ZM61.4611 84.3515H65.2758V88.1662H61.4611V84.3515ZM65.2758 84.3515H69.0906V88.1662H65.2758V84.3515ZM72.9053 84.3515H76.7201V88.1662H72.9053V84.3515ZM76.7201 84.3515H80.5348V88.1662H76.7201V84.3515ZM80.5348 84.3515H84.3495V88.1662H80.5348V84.3515ZM84.3495 84.3515H88.1643V88.1662H84.3495V84.3515ZM95.7938 84.3515H99.6085V88.1662H95.7938V84.3515ZM118.682 84.3515H122.497V88.1662H118.682V84.3515ZM122.497 84.3515H126.312V88.1662H122.497V84.3515ZM126.312 84.3515H130.126V88.1662H126.312V84.3515ZM8.05469 88.1662H11.8694V91.981H8.05469V88.1662ZM11.8694 88.1662H15.6842V91.981H11.8694V88.1662ZM15.6842 88.1662H19.4989V91.981H15.6842V88.1662ZM19.4989 88.1662H23.3137V91.981H19.4989V88.1662ZM27.1284 88.1662H30.9431V91.981H27.1284V88.1662ZM34.7579 88.1662H38.5726V91.981H34.7579V88.1662ZM42.3874 88.1662H46.2021V91.981H42.3874V88.1662ZM46.2021 88.1662H50.0169V91.981H46.2021V88.1662ZM53.8316 88.1662H57.6463V91.981H53.8316V88.1662ZM57.6463 88.1662H61.4611V91.981H57.6463V88.1662ZM61.4611 88.1662H65.2758V91.981H61.4611V88.1662ZM65.2758 88.1662H69.0906V91.981H65.2758V88.1662ZM95.7938 88.1662H99.6085V91.981H95.7938V88.1662ZM99.6085 88.1662H103.423V91.981H99.6085V88.1662ZM107.238 88.1662H111.053V91.981H107.238V88.1662ZM118.682 88.1662H122.497V91.981H118.682V88.1662ZM130.126 88.1662H133.941V91.981H130.126V88.1662ZM15.6842 91.981H19.4989V95.7957H15.6842V91.981ZM23.3137 91.981H27.1284V95.7957H23.3137V91.981ZM27.1284 91.981H30.9431V95.7957H27.1284V91.981ZM30.9431 91.981H34.7579V95.7957H30.9431V91.981ZM34.7579 91.981H38.5726V95.7957H34.7579V91.981ZM46.2021 91.981H50.0169V95.7957H46.2021V91.981ZM50.0169 91.981H53.8316V95.7957H50.0169V91.981ZM61.4611 91.981H65.2758V95.7957H61.4611V91.981ZM65.2758 91.981H69.0906V95.7957H65.2758V91.981ZM69.0906 91.981H72.9053V95.7957H69.0906V91.981ZM88.1643 91.981H91.979V95.7957H88.1643V91.981ZM91.979 91.981H95.7938V95.7957H91.979V91.981ZM95.7938 91.981H99.6085V95.7957H95.7938V91.981ZM99.6085 91.981H103.423V95.7957H99.6085V91.981ZM103.423 91.981H107.238V95.7957H103.423V91.981ZM107.238 91.981H111.053V95.7957H107.238V91.981ZM114.867 91.981H118.682V95.7957H114.867V91.981ZM126.312 91.981H130.126V95.7957H126.312V91.981ZM130.126 91.981H133.941V95.7957H130.126V91.981ZM11.8694 95.7957H15.6842V99.6105H11.8694V95.7957ZM15.6842 95.7957H19.4989V99.6105H15.6842V95.7957ZM19.4989 95.7957H23.3137V99.6105H19.4989V95.7957ZM23.3137 95.7957H27.1284V99.6105H23.3137V95.7957ZM34.7579 95.7957H38.5726V99.6105H34.7579V95.7957ZM53.8316 95.7957H57.6463V99.6105H53.8316V95.7957ZM61.4611 95.7957H65.2758V99.6105H61.4611V95.7957ZM65.2758 95.7957H69.0906V99.6105H65.2758V95.7957ZM72.9053 95.7957H76.7201V99.6105H72.9053V95.7957ZM76.7201 95.7957H80.5348V99.6105H76.7201V95.7957ZM80.5348 95.7957H84.3495V99.6105H80.5348V95.7957ZM99.6085 95.7957H103.423V99.6105H99.6085V95.7957ZM103.423 95.7957H107.238V99.6105H103.423V95.7957ZM111.053 95.7957H114.867V99.6105H111.053V95.7957ZM118.682 95.7957H122.497V99.6105H118.682V95.7957ZM126.312 95.7957H130.126V99.6105H126.312V95.7957ZM8.05469 99.6105H11.8694V103.425H8.05469V99.6105ZM15.6842 99.6105H19.4989V103.425H15.6842V99.6105ZM19.4989 99.6105H23.3137V103.425H19.4989V99.6105ZM27.1284 99.6105H30.9431V103.425H27.1284V99.6105ZM30.9431 99.6105H34.7579V103.425H30.9431V99.6105ZM38.5726 99.6105H42.3874V103.425H38.5726V99.6105ZM42.3874 99.6105H46.2021V103.425H42.3874V99.6105ZM69.0906 99.6105H72.9053V103.425H69.0906V99.6105ZM72.9053 99.6105H76.7201V103.425H72.9053V99.6105ZM84.3495 99.6105H88.1643V103.425H84.3495V99.6105ZM91.979 99.6105H95.7938V103.425H91.979V99.6105ZM95.7938 99.6105H99.6085V103.425H95.7938V99.6105ZM99.6085 99.6105H103.423V103.425H99.6085V99.6105ZM103.423 99.6105H107.238V103.425H103.423V99.6105ZM107.238 99.6105H111.053V103.425H107.238V99.6105ZM111.053 99.6105H114.867V103.425H111.053V99.6105ZM114.867 99.6105H118.682V103.425H114.867V99.6105ZM126.312 99.6105H130.126V103.425H126.312V99.6105ZM38.5726 103.425H42.3874V107.24H38.5726V103.425ZM50.0169 103.425H53.8316V107.24H50.0169V103.425ZM57.6463 103.425H61.4611V107.24H57.6463V103.425ZM65.2758 103.425H69.0906V107.24H65.2758V103.425ZM69.0906 103.425H72.9053V107.24H69.0906V103.425ZM80.5348 103.425H84.3495V107.24H80.5348V103.425ZM95.7938 103.425H99.6085V107.24H95.7938V103.425ZM99.6085 103.425H103.423V107.24H99.6085V103.425ZM114.867 103.425H118.682V107.24H114.867V103.425ZM118.682 103.425H122.497V107.24H118.682V103.425ZM126.312 103.425H130.126V107.24H126.312V103.425ZM8.05469 107.24H11.8694V111.055H8.05469V107.24ZM11.8694 107.24H15.6842V111.055H11.8694V107.24ZM15.6842 107.24H19.4989V111.055H15.6842V107.24ZM19.4989 107.24H23.3137V111.055H19.4989V107.24ZM23.3137 107.24H27.1284V111.055H23.3137V107.24ZM27.1284 107.24H30.9431V111.055H27.1284V107.24ZM30.9431 107.24H34.7579V111.055H30.9431V107.24ZM42.3874 107.24H46.2021V111.055H42.3874V107.24ZM46.2021 107.24H50.0169V111.055H46.2021V107.24ZM53.8316 107.24H57.6463V111.055H53.8316V107.24ZM61.4611 107.24H65.2758V111.055H61.4611V107.24ZM80.5348 107.24H84.3495V111.055H80.5348V107.24ZM91.979 107.24H95.7938V111.055H91.979V107.24ZM95.7938 107.24H99.6085V111.055H95.7938V107.24ZM99.6085 107.24H103.423V111.055H99.6085V107.24ZM107.238 107.24H111.053V111.055H107.238V107.24ZM114.867 107.24H118.682V111.055H114.867V107.24ZM8.05469 111.055H11.8694V114.869H8.05469V111.055ZM30.9431 111.055H34.7579V114.869H30.9431V111.055ZM38.5726 111.055H42.3874V114.869H38.5726V111.055ZM46.2021 111.055H50.0169V114.869H46.2021V111.055ZM53.8316 111.055H57.6463V114.869H53.8316V111.055ZM57.6463 111.055H61.4611V114.869H57.6463V111.055ZM61.4611 111.055H65.2758V114.869H61.4611V111.055ZM65.2758 111.055H69.0906V114.869H65.2758V111.055ZM69.0906 111.055H72.9053V114.869H69.0906V111.055ZM72.9053 111.055H76.7201V114.869H72.9053V111.055ZM76.7201 111.055H80.5348V114.869H76.7201V111.055ZM80.5348 111.055H84.3495V114.869H80.5348V111.055ZM84.3495 111.055H88.1643V114.869H84.3495V111.055ZM88.1643 111.055H91.979V114.869H88.1643V111.055ZM91.979 111.055H95.7938V114.869H91.979V111.055ZM95.7938 111.055H99.6085V114.869H95.7938V111.055ZM99.6085 111.055H103.423V114.869H99.6085V111.055ZM114.867 111.055H118.682V114.869H114.867V111.055ZM118.682 111.055H122.497V114.869H118.682V111.055ZM122.497 111.055H126.312V114.869H122.497V111.055ZM8.05469 114.869H11.8694V118.684H8.05469V114.869ZM15.6842 114.869H19.4989V118.684H15.6842V114.869ZM19.4989 114.869H23.3137V118.684H19.4989V114.869ZM23.3137 114.869H27.1284V118.684H23.3137V114.869ZM30.9431 114.869H34.7579V118.684H30.9431V114.869ZM46.2021 114.869H50.0169V118.684H46.2021V114.869ZM53.8316 114.869H57.6463V118.684H53.8316V114.869ZM57.6463 114.869H61.4611V118.684H57.6463V114.869ZM61.4611 114.869H65.2758V118.684H61.4611V114.869ZM69.0906 114.869H72.9053V118.684H69.0906V114.869ZM72.9053 114.869H76.7201V118.684H72.9053V114.869ZM84.3495 114.869H88.1643V118.684H84.3495V114.869ZM95.7938 114.869H99.6085V118.684H95.7938V114.869ZM99.6085 114.869H103.423V118.684H99.6085V114.869ZM103.423 114.869H107.238V118.684H103.423V114.869ZM107.238 114.869H111.053V118.684H107.238V114.869ZM111.053 114.869H114.867V118.684H111.053V114.869ZM114.867 114.869H118.682V118.684H114.867V114.869ZM122.497 114.869H126.312V118.684H122.497V114.869ZM126.312 114.869H130.126V118.684H126.312V114.869ZM130.126 114.869H133.941V118.684H130.126V114.869ZM8.05469 118.684H11.8694V122.499H8.05469V118.684ZM15.6842 118.684H19.4989V122.499H15.6842V118.684ZM19.4989 118.684H23.3137V122.499H19.4989V118.684ZM23.3137 118.684H27.1284V122.499H23.3137V118.684ZM30.9431 118.684H34.7579V122.499H30.9431V118.684ZM38.5726 118.684H42.3874V122.499H38.5726V118.684ZM46.2021 118.684H50.0169V122.499H46.2021V118.684ZM50.0169 118.684H53.8316V122.499H50.0169V118.684ZM53.8316 118.684H57.6463V122.499H53.8316V118.684ZM61.4611 118.684H65.2758V122.499H61.4611V118.684ZM69.0906 118.684H72.9053V122.499H69.0906V118.684ZM72.9053 118.684H76.7201V122.499H72.9053V118.684ZM76.7201 118.684H80.5348V122.499H76.7201V118.684ZM80.5348 118.684H84.3495V122.499H80.5348V118.684ZM84.3495 118.684H88.1643V122.499H84.3495V118.684ZM95.7938 118.684H99.6085V122.499H95.7938V118.684ZM111.053 118.684H114.867V122.499H111.053V118.684ZM122.497 118.684H126.312V122.499H122.497V118.684ZM126.312 118.684H130.126V122.499H126.312V118.684ZM130.126 118.684H133.941V122.499H130.126V118.684ZM8.05469 122.499H11.8694V126.314H8.05469V122.499ZM15.6842 122.499H19.4989V126.314H15.6842V122.499ZM19.4989 122.499H23.3137V126.314H19.4989V122.499ZM23.3137 122.499H27.1284V126.314H23.3137V122.499ZM30.9431 122.499H34.7579V126.314H30.9431V122.499ZM38.5726 122.499H42.3874V126.314H38.5726V122.499ZM42.3874 122.499H46.2021V126.314H42.3874V122.499ZM46.2021 122.499H50.0169V126.314H46.2021V122.499ZM50.0169 122.499H53.8316V126.314H50.0169V122.499ZM53.8316 122.499H57.6463V126.314H53.8316V122.499ZM61.4611 122.499H65.2758V126.314H61.4611V122.499ZM69.0906 122.499H72.9053V126.314H69.0906V122.499ZM76.7201 122.499H80.5348V126.314H76.7201V122.499ZM80.5348 122.499H84.3495V126.314H80.5348V122.499ZM88.1643 122.499H91.979V126.314H88.1643V122.499ZM91.979 122.499H95.7938V126.314H91.979V122.499ZM95.7938 122.499H99.6085V126.314H95.7938V122.499ZM99.6085 122.499H103.423V126.314H99.6085V122.499ZM107.238 122.499H111.053V126.314H107.238V122.499ZM111.053 122.499H114.867V126.314H111.053V122.499ZM118.682 122.499H122.497V126.314H118.682V122.499ZM122.497 122.499H126.312V126.314H122.497V122.499ZM8.05469 126.314H11.8694V130.128H8.05469V126.314ZM30.9431 126.314H34.7579V130.128H30.9431V126.314ZM38.5726 126.314H42.3874V130.128H38.5726V126.314ZM46.2021 126.314H50.0169V130.128H46.2021V126.314ZM50.0169 126.314H53.8316V130.128H50.0169V126.314ZM57.6463 126.314H61.4611V130.128H57.6463V126.314ZM65.2758 126.314H69.0906V130.128H65.2758V126.314ZM69.0906 126.314H72.9053V130.128H69.0906V126.314ZM72.9053 126.314H76.7201V130.128H72.9053V126.314ZM80.5348 126.314H84.3495V130.128H80.5348V126.314ZM95.7938 126.314H99.6085V130.128H95.7938V126.314ZM99.6085 126.314H103.423V130.128H99.6085V126.314ZM103.423 126.314H107.238V130.128H103.423V126.314ZM111.053 126.314H114.867V130.128H111.053V126.314ZM114.867 126.314H118.682V130.128H114.867V126.314ZM130.126 126.314H133.941V130.128H130.126V126.314ZM8.05469 130.128H11.8694V133.943H8.05469V130.128ZM11.8694 130.128H15.6842V133.943H11.8694V130.128ZM15.6842 130.128H19.4989V133.943H15.6842V130.128ZM19.4989 130.128H23.3137V133.943H19.4989V130.128ZM23.3137 130.128H27.1284V133.943H23.3137V130.128ZM27.1284 130.128H30.9431V133.943H27.1284V130.128ZM30.9431 130.128H34.7579V133.943H30.9431V130.128ZM72.9053 130.128H76.7201V133.943H72.9053V130.128ZM88.1643 130.128H91.979V133.943H88.1643V130.128ZM95.7938 130.128H99.6085V133.943H95.7938V130.128ZM107.238 130.128H111.053V133.943H107.238V130.128ZM114.867 130.128H118.682V133.943H114.867V130.128ZM122.497 130.128H126.312V133.943H122.497V130.128Z" fill="#18153F"/>
<rect x="1" y="1" width="140" height="140" rx="4" stroke="url(#paint0_linear_2283_70696)" stroke-width="2"/>
<rect x="1" y="1" width="140" height="140" rx="4" stroke="url(#paint1_radial_2283_70696)" stroke-opacity="0.2" stroke-width="2"/>
<defs>
<linearGradient id="paint0_linear_2283_70696" x1="71" y1="1.5495e-05" x2="165.687" y2="38.5214" gradientUnits="userSpaceOnUse">
<stop stop-color="#7E2CFF"/>
<stop offset="1" stop-color="#596BF7"/>
</linearGradient>
<radialGradient id="paint1_radial_2283_70696" cx="0" cy="0" r="1" gradientUnits="userSpaceOnUse" gradientTransform="translate(71 71) scale(71)">
<stop/>
<stop offset="0.0625" stop-opacity="0.921223"/>
<stop offset="0.793378" stop-opacity="0"/>
</radialGradient>
</defs>
</svg>
