<svg width="24" height="24" viewBox="0 0 24 24" fill="none" xmlns="http://www.w3.org/2000/svg">
<g clip-path="url(#clip0_2283_70530)">
<path fill-rule="evenodd" clip-rule="evenodd" d="M10.8984 -0.0234375C11.6172 -0.0234375 12.336 -0.0234375 13.0547 -0.0234375C13.7702 0.0515709 14.4734 0.192196 15.1641 0.398438C15.2585 0.465179 15.3679 0.49643 15.4922 0.492188C15.6462 0.512255 15.7868 0.55913 15.9141 0.632812C15.9832 0.687895 16.0612 0.73477 16.1484 0.773438C15.0648 1.58901 13.971 2.3937 12.8672 3.1875C12.6957 3.32022 12.5082 3.42179 12.3047 3.49219C12.0859 3.55469 11.8672 3.55469 11.6484 3.49219C11.4449 3.42179 11.2574 3.32022 11.0859 3.1875C10.0365 2.40371 8.97403 1.63809 7.89844 0.890625C7.83642 0.85238 7.8052 0.797691 7.80469 0.726562C8.09845 0.659897 8.3797 0.566147 8.64844 0.445312C9.38283 0.210943 10.1328 0.0546923 10.8984 -0.0234375Z" fill="#262733"/>
<path opacity="0.792" fill-rule="evenodd" clip-rule="evenodd" d="M15.1641 0.398451C15.2884 0.394211 15.3977 0.42546 15.4922 0.492201C15.3679 0.496444 15.2585 0.465192 15.1641 0.398451Z" fill="#9D9DA8"/>
<path opacity="0.984" fill-rule="evenodd" clip-rule="evenodd" d="M8.64844 0.445312C8.3797 0.566147 8.09845 0.659897 7.80469 0.726562C8.06648 0.587208 8.34773 0.493458 8.64844 0.445312Z" fill="#888893"/>
<path opacity="0.999" fill-rule="evenodd" clip-rule="evenodd" d="M15.9141 0.632812C17.0954 1.01242 18.1735 1.57492 19.1484 2.32031C19.1138 2.31417 19.0825 2.32199 19.0547 2.34375C19.8285 4.14972 20.2816 6.03253 20.4141 7.99219C20.3175 8.33648 20.216 8.68022 20.1094 9.02344C20.0861 9.13172 20.0783 9.24108 20.0859 9.35156C18.6792 9.8048 17.2729 10.2579 15.8672 10.7109C15.5469 10.4147 15.2031 10.1413 14.8359 9.89062C14.1871 9.44902 13.5465 8.99588 12.9141 8.53125C12.7218 8.38847 12.5187 8.27128 12.3047 8.17969C12.3047 6.6172 12.3047 5.05467 12.3047 3.49219C12.5082 3.42179 12.6957 3.32022 12.8672 3.1875C13.971 2.3937 15.0648 1.58901 16.1484 0.773438C16.0612 0.73477 15.9832 0.687895 15.9141 0.632812Z" fill="#656673"/>
<path opacity="0.998" fill-rule="evenodd" clip-rule="evenodd" d="M7.80469 0.726562C7.8052 0.797691 7.83642 0.85238 7.89844 0.890625C8.97403 1.63809 10.0365 2.40371 11.0859 3.1875C11.2574 3.32022 11.4449 3.42179 11.6484 3.49219C11.6484 5.05467 11.6484 6.6172 11.6484 8.17969C11.4891 8.25173 11.3328 8.33766 11.1797 8.4375C10.3911 9.02709 9.59423 9.6052 8.78906 10.1719C8.56303 10.3308 8.35988 10.5105 8.17969 10.7109C6.76116 10.2485 5.3393 9.79537 3.91406 9.35156C3.92175 9.22561 3.91394 9.10059 3.89062 8.97656C3.42008 7.52573 2.9279 6.08822 2.41406 4.66406C3.83272 2.83719 5.62959 1.52469 7.80469 0.726562Z" fill="#656673"/>
<path opacity="0.996" fill-rule="evenodd" clip-rule="evenodd" d="M19.1484 2.32032C20.0684 2.97468 20.8653 3.75593 21.5391 4.66407C21.1454 5.767 20.7704 6.87639 20.4141 7.9922C20.2816 6.03254 19.8285 4.14973 19.0547 2.34376C19.0825 2.322 19.1138 2.31418 19.1484 2.32032Z" fill="#5C5D6A"/>
<path fill-rule="evenodd" clip-rule="evenodd" d="M11.6484 3.49219C11.8672 3.55469 12.0859 3.55469 12.3047 3.49219C12.3047 5.05467 12.3047 6.6172 12.3047 8.17969C12.0859 8.17969 11.8672 8.17969 11.6484 8.17969C11.6484 6.6172 11.6484 5.05467 11.6484 3.49219Z" fill="#3E3F4D"/>
<path fill-rule="evenodd" clip-rule="evenodd" d="M21.538 4.66406C22.9211 6.51628 23.7337 8.59439 23.9755 10.8984C23.9755 11.5078 23.9755 12.1172 23.9755 12.7266C23.8541 12.6971 23.7447 12.6424 23.6474 12.5625C22.6143 11.7809 21.5674 11.023 20.5067 10.2891C20.4428 10.2098 20.3803 10.1317 20.3192 10.0547C20.1756 9.84248 20.0975 9.60811 20.0849 9.35156C20.0772 9.24108 20.085 9.13172 20.1083 9.02344C20.2149 8.68022 20.3165 8.33648 20.413 7.99219C20.7693 6.87637 21.1443 5.76698 21.538 4.66406Z" fill="#262733"/>
<path fill-rule="evenodd" clip-rule="evenodd" d="M2.41406 4.66406C2.9279 6.08822 3.42008 7.52573 3.89062 8.97656C3.91394 9.10059 3.92175 9.22561 3.91406 9.35156C3.88775 9.59114 3.80962 9.80986 3.67969 10.0078C3.45238 10.2427 3.20238 10.4536 2.92969 10.6406C1.99219 11.3281 1.05469 12.0156 0.117188 12.7031C0.0727491 12.7258 0.0258738 12.7335 -0.0234375 12.7266C-0.0234375 12.1172 -0.0234375 11.5078 -0.0234375 10.8984C0.218466 8.59416 1.03096 6.51605 2.41406 4.66406Z" fill="#262733"/>
<path fill-rule="evenodd" clip-rule="evenodd" d="M11.6488 8.17969C11.8675 8.17969 12.0862 8.17969 12.305 8.17969C12.519 8.27128 12.7221 8.38847 12.9144 8.53125C13.5468 8.99587 14.1874 9.44902 14.8363 9.89062C15.2034 10.1413 15.5472 10.4147 15.8675 10.7109C16.0062 10.9239 16.0686 11.1583 16.055 11.4141C15.7152 12.6445 15.3324 13.8633 14.9066 15.0703C14.8476 15.2042 14.7772 15.3292 14.6956 15.4453C14.5314 15.6406 14.3282 15.7813 14.0863 15.8672C12.7093 15.929 11.3343 15.929 9.96126 15.8672C9.72065 15.7685 9.50193 15.6279 9.30501 15.4453C8.8596 14.2733 8.44551 13.0858 8.06282 11.8828C8.01393 11.7301 7.99049 11.5739 7.99251 11.4141C7.96049 11.1532 8.02302 10.9188 8.18001 10.7109C8.36019 10.5105 8.56335 10.3308 8.78938 10.1719C9.59455 9.6052 10.3914 9.02709 11.18 8.4375C11.3331 8.33766 11.4894 8.25173 11.6488 8.17969Z" fill="#262733"/>
<path fill-rule="evenodd" clip-rule="evenodd" d="M3.91406 9.35156C5.3393 9.79538 6.76116 10.2485 8.17969 10.7109C8.0227 10.9188 7.96017 11.1532 7.99219 11.4141C6.55102 10.9545 5.11355 10.4857 3.67969 10.0078C3.80962 9.80986 3.88775 9.59114 3.91406 9.35156Z" fill="#3E3F4D"/>
<path fill-rule="evenodd" clip-rule="evenodd" d="M20.0859 9.35156C20.0985 9.60811 20.1766 9.84248 20.3203 10.0547C18.8864 10.4717 17.4645 10.9248 16.0547 11.4141C16.0683 11.1583 16.0058 10.9239 15.8672 10.7109C17.2729 10.2579 18.6792 9.8048 20.0859 9.35156Z" fill="#3E3F4D"/>
<path opacity="0.998" fill-rule="evenodd" clip-rule="evenodd" d="M3.67969 10.0078C5.11355 10.4858 6.55102 10.9545 7.99219 11.4141C7.99017 11.5739 8.01361 11.7301 8.0625 11.8828C8.44519 13.0858 8.85928 14.2733 9.30469 15.4453C8.52023 16.4981 7.7468 17.5606 6.98438 18.6328C6.93234 18.7049 6.86203 18.7361 6.77344 18.7266C6.72656 18.7266 6.67969 18.7266 6.63281 18.7266C5.10155 18.6641 3.57031 18.6641 2.03906 18.7266C0.848644 16.9523 0.161146 14.9992 -0.0234375 12.8672C-0.0234375 12.8203 -0.0234375 12.7734 -0.0234375 12.7266C0.0258738 12.7335 0.0727491 12.7258 0.117188 12.7031C1.05469 12.0156 1.99219 11.3281 2.92969 10.6406C3.20238 10.4536 3.45238 10.2427 3.67969 10.0078Z" fill="#656673"/>
<path fill-rule="evenodd" clip-rule="evenodd" d="M20.3203 10.0547C20.3814 10.1317 20.4439 10.2098 20.5078 10.2891C20.3472 13.3648 19.3941 16.1617 17.6484 18.6797C17.5285 18.6655 17.4191 18.6812 17.3203 18.7266C17.2363 18.7203 17.1582 18.7359 17.0859 18.7734C16.2776 17.6723 15.4807 16.563 14.6953 15.4453C14.7769 15.3292 14.8472 15.2042 14.9062 15.0703C15.3321 13.8633 15.7149 12.6445 16.0547 11.4141C17.4645 10.9248 18.8864 10.4717 20.3203 10.0547Z" fill="#656673"/>
<path opacity="0.997" fill-rule="evenodd" clip-rule="evenodd" d="M20.5078 10.2891C21.5685 11.023 22.6154 11.7809 23.6484 12.5625C23.7458 12.6424 23.8552 12.6971 23.9766 12.7266C23.9766 12.8359 23.9766 12.9453 23.9766 13.0547C23.7713 15.1239 23.0838 17.0145 21.9141 18.7266C20.5002 18.6798 19.0784 18.6642 17.6484 18.6797C19.3941 16.1617 20.3472 13.3648 20.5078 10.2891Z" fill="#5C5D6A"/>
<path fill-rule="evenodd" clip-rule="evenodd" d="M9.30469 15.4453C9.50161 15.6279 9.72033 15.7685 9.96094 15.8672C9.84797 15.8869 9.76205 15.9494 9.70312 16.0547C8.95575 17.0974 8.19797 18.1287 7.42969 19.1484C7.23952 18.9598 7.02075 18.8192 6.77344 18.7266C6.86203 18.7361 6.93234 18.7049 6.98438 18.6328C7.7468 17.5606 8.52023 16.4981 9.30469 15.4453Z" fill="#3E3F4D"/>
<path fill-rule="evenodd" clip-rule="evenodd" d="M14.6953 15.4453C15.4807 16.563 16.2776 17.6723 17.0859 18.7734C16.8719 18.878 16.6844 19.0186 16.5234 19.1953C15.7448 18.0592 14.9322 16.9498 14.0859 15.8672C14.3279 15.7813 14.5311 15.6406 14.6953 15.4453Z" fill="#3E3F4D"/>
<path opacity="0.999" fill-rule="evenodd" clip-rule="evenodd" d="M9.96094 15.8672C11.334 15.929 12.709 15.929 14.0859 15.8672C14.9322 16.9498 15.7448 18.0592 16.5234 19.1953C16.2996 19.6634 16.1121 20.1478 15.9609 20.6484C14.7897 21.7735 13.4772 22.7032 12.0234 23.4375C11.611 23.6282 11.1891 23.7923 10.7578 23.9297C10.1369 23.8757 9.52748 23.7663 8.92969 23.6016C8.52305 22.2721 8.109 20.944 7.6875 19.6172C7.61287 19.4521 7.52695 19.2959 7.42969 19.1484C8.19797 18.1287 8.95575 17.0974 9.70312 16.0547C9.76205 15.9494 9.84797 15.8869 9.96094 15.8672Z" fill="#656673"/>
<path fill-rule="evenodd" clip-rule="evenodd" d="M6.63281 18.7266C5.10919 18.711 3.59355 18.7266 2.08594 18.7734C2.05469 18.7734 2.03906 18.7578 2.03906 18.7266C3.57031 18.6641 5.10155 18.6641 6.63281 18.7266Z" fill="#606069"/>
<path fill-rule="evenodd" clip-rule="evenodd" d="M17.3203 18.7266C17.4191 18.6812 17.5285 18.6655 17.6484 18.6797C19.0784 18.6642 20.5002 18.6798 21.9141 18.7266C21.9175 18.7981 21.8862 18.845 21.8203 18.8672C21.8163 18.8205 21.8319 18.7815 21.8672 18.75C20.3516 18.7266 18.836 18.7187 17.3203 18.7266Z" fill="#5C5C64"/>
<path fill-rule="evenodd" clip-rule="evenodd" d="M6.63281 18.7266C6.67969 18.7266 6.72656 18.7266 6.77344 18.7266C7.02075 18.8192 7.23952 18.9598 7.42969 19.1485C7.52695 19.2959 7.61287 19.4522 7.6875 19.6172C8.109 20.9441 8.52305 22.2722 8.92969 23.6016C6.03459 22.8433 3.75336 21.2339 2.08594 18.7735C3.59355 18.7267 5.10919 18.711 6.63281 18.7266Z" fill="#262733"/>
<path fill-rule="evenodd" clip-rule="evenodd" d="M17.3203 18.7266C18.836 18.7187 20.3516 18.7266 21.8672 18.75C21.8319 18.7815 21.8163 18.8205 21.8203 18.8672C21.8203 18.8985 21.8047 18.9141 21.7734 18.9141C21.7075 18.9362 21.6763 18.9831 21.6797 19.0547C21.6138 19.0769 21.5825 19.1237 21.5859 19.1953C21.5296 19.3082 21.4515 19.402 21.3516 19.4766C21.2857 19.4987 21.2544 19.5456 21.2578 19.6172C21.2265 19.6797 21.1797 19.7266 21.1172 19.7578C21.0513 19.78 21.02 19.8269 21.0234 19.8984C19.4104 21.7432 17.4104 22.9775 15.0234 23.6016C15.3359 22.6172 15.6484 21.6329 15.9609 20.6484C16.1121 20.1478 16.2996 19.6634 16.5234 19.1953C16.6844 19.0186 16.8719 18.878 17.0859 18.7734C17.1582 18.7359 17.2363 18.7203 17.3203 18.7266Z" fill="#242531"/>
<path opacity="0.039" fill-rule="evenodd" clip-rule="evenodd" d="M21.7737 18.9141C21.7771 18.9856 21.7458 19.0325 21.6799 19.0547C21.6765 18.9831 21.7078 18.9362 21.7737 18.9141Z" fill="#AFAEBF"/>
<path opacity="0.11" fill-rule="evenodd" clip-rule="evenodd" d="M21.6799 19.0547C21.6834 19.1263 21.6521 19.1731 21.5862 19.1953C21.5828 19.1237 21.614 19.0769 21.6799 19.0547Z" fill="#CACAD1"/>
<path opacity="0.082" fill-rule="evenodd" clip-rule="evenodd" d="M21.3518 19.4766C21.3552 19.5481 21.324 19.595 21.2581 19.6172C21.2546 19.5456 21.2859 19.4987 21.3518 19.4766Z" fill="#C0C0C9"/>
<path opacity="0.01" fill-rule="evenodd" clip-rule="evenodd" d="M21.1174 19.7578C21.1209 19.8294 21.0896 19.8763 21.0237 19.8984C21.0203 19.8269 21.0515 19.78 21.1174 19.7578Z" fill="#CACACE"/>
<path opacity="0.993" fill-rule="evenodd" clip-rule="evenodd" d="M15.9609 20.6484C15.6484 21.6329 15.3359 22.6172 15.0234 23.6016C14.3721 23.7777 13.7158 23.9027 13.0547 23.9766C12.2891 23.9766 11.5234 23.9766 10.7578 23.9766C10.7578 23.961 10.7578 23.9453 10.7578 23.9297C11.1891 23.7922 11.611 23.6282 12.0234 23.4375C13.4772 22.7032 14.7897 21.7735 15.9609 20.6484Z" fill="#5C5D6A"/>
</g>
<defs>
<clipPath id="clip0_2283_70530">
<rect width="24" height="24" fill="white"/>
</clipPath>
</defs>
</svg>
