<svg width="24" height="24" viewBox="0 0 24 24" fill="none" xmlns="http://www.w3.org/2000/svg">
<g opacity="0.25" clip-path="url(#clip0_1021_99632)">
<path opacity="0.988" fill-rule="evenodd" clip-rule="evenodd" d="M11.0391 -0.0234375C11.3516 -0.0234375 11.664 -0.0234375 11.9766 -0.0234375C11.961 1.26586 11.9767 2.54711 12.0234 3.82031C12.0234 3.85156 12.0078 3.86719 11.9766 3.86719C10.5685 2.81976 9.16228 1.77289 7.75781 0.726562C8.826 0.342221 9.91978 0.0922209 11.0391 -0.0234375Z" fill="#31313D"/>
<path opacity="0.999" fill-rule="evenodd" clip-rule="evenodd" d="M11.9785 -0.0234375C12.3222 -0.0234375 12.666 -0.0234375 13.0097 -0.0234375C14.0994 0.0926742 15.1619 0.342674 16.1972 0.726562C14.8334 1.79155 13.4428 2.8228 12.0253 3.82031C11.9786 2.54711 11.9629 1.26586 11.9785 -0.0234375Z" fill="#272733"/>
<path fill-rule="evenodd" clip-rule="evenodd" d="M7.75781 0.726562C9.16228 1.77289 10.5685 2.81976 11.9766 3.86719C11.9766 4.94531 11.9766 6.02344 11.9766 7.10156C10.4581 8.18864 8.95809 9.29798 7.47656 10.4297C6.40688 10.0888 5.34436 9.72937 4.28906 9.35156C3.7847 7.68239 3.25345 6.02611 2.69531 4.38281C4.0528 2.71365 5.74031 1.4949 7.75781 0.726562Z" fill="#656673"/>
<path opacity="0.997" fill-rule="evenodd" clip-rule="evenodd" d="M16.1953 0.726562C18.2795 1.54133 20.0139 2.82258 21.3984 4.57031C20.8278 6.21961 20.2653 7.87584 19.7109 9.53906C18.6825 9.86105 17.6512 10.1736 16.6172 10.4766C15.0859 9.36717 13.5547 8.25783 12.0234 7.14844C12.0234 7.11717 12.0078 7.10156 11.9766 7.10156C11.9766 6.02344 11.9766 4.94531 11.9766 3.86719C12.0078 3.86719 12.0234 3.85156 12.0234 3.82031C13.4409 2.8228 14.8315 1.79155 16.1953 0.726562Z" fill="#515260"/>
<path opacity="0.987" fill-rule="evenodd" clip-rule="evenodd" d="M2.69531 4.38281C3.25345 6.02611 3.7847 7.68239 4.28906 9.35156C2.85156 10.3359 1.41406 11.3203 -0.0234375 12.3047C-0.0234375 11.8515 -0.0234375 11.3985 -0.0234375 10.9453C0.213334 8.47284 1.11959 6.28533 2.69531 4.38281Z" fill="#31313D"/>
<path opacity="0.987" fill-rule="evenodd" clip-rule="evenodd" d="M21.3984 4.57031C22.8785 6.43772 23.7379 8.56275 23.9766 10.9453C23.9766 11.4922 23.9766 12.039 23.9766 12.5859C22.5425 11.5897 21.1206 10.5741 19.7109 9.53906C20.2653 7.87584 20.8278 6.21961 21.3984 4.57031Z" fill="#272733"/>
<path fill-rule="evenodd" clip-rule="evenodd" d="M11.9766 7.10156C12.0078 7.10156 12.0234 7.11717 12.0234 7.14844C11.9766 10.0155 11.961 12.8905 11.9766 15.7734C11.0547 15.7734 10.1328 15.7734 9.21094 15.7734C8.61544 14.0025 8.03733 12.2212 7.47656 10.4297C8.95809 9.29798 10.4581 8.18864 11.9766 7.10156Z" fill="#31313D"/>
<path fill-rule="evenodd" clip-rule="evenodd" d="M12.0254 7.14844C13.5566 8.25783 15.0878 9.36717 16.6191 10.4766C15.9977 12.2235 15.3805 13.9735 14.7675 15.7266C14.7496 15.7526 14.7262 15.7682 14.6972 15.7734C13.791 15.7734 12.8847 15.7734 11.9785 15.7734C11.9629 12.8905 11.9785 10.0155 12.0254 7.14844Z" fill="#262733"/>
<path fill-rule="evenodd" clip-rule="evenodd" d="M4.28906 9.35156C5.34436 9.72938 6.40688 10.0888 7.47656 10.4297C8.03733 12.2212 8.61544 14.0025 9.21094 15.7734C8.53908 16.7109 7.86717 17.6484 7.19531 18.5859C5.44533 18.5859 3.69531 18.5859 1.94531 18.5859C0.822024 16.8567 0.165774 14.9661 -0.0234375 12.9141C-0.0234375 12.711 -0.0234375 12.5078 -0.0234375 12.3047C1.41406 11.3203 2.85156 10.3359 4.28906 9.35156Z" fill="#5C5D6A"/>
<path fill-rule="evenodd" clip-rule="evenodd" d="M19.7109 9.53906C21.1206 10.5741 22.5425 11.5897 23.9766 12.5859C23.9766 12.711 23.9766 12.8359 23.9766 12.9609C23.8064 15.0186 23.1345 16.8936 21.9609 18.5859C20.211 18.5859 18.4609 18.5859 16.7109 18.5859C16.0396 17.6502 15.3678 16.7127 14.6953 15.7734C14.7242 15.7682 14.7477 15.7526 14.7656 15.7266C15.3786 13.9735 15.9958 12.2235 16.6172 10.4766C17.6512 10.1736 18.6825 9.86105 19.7109 9.53906Z" fill="#5C5D6A"/>
<path opacity="0.998" fill-rule="evenodd" clip-rule="evenodd" d="M9.21094 15.7734C10.1328 15.7734 11.0547 15.7734 11.9766 15.7734C11.9766 18.5078 11.9766 21.2422 11.9766 23.9766C11.6328 23.9766 11.289 23.9766 10.9453 23.9766C10.206 23.8923 9.47166 23.7517 8.74219 23.5547C8.26444 21.887 7.74881 20.2308 7.19531 18.5859C7.86717 17.6484 8.53908 16.7109 9.21094 15.7734Z" fill="#656673"/>
<path fill-rule="evenodd" clip-rule="evenodd" d="M11.9766 15.7734C12.8828 15.7734 13.7891 15.7734 14.6953 15.7734C15.3678 16.7127 16.0396 17.6502 16.7109 18.5859C16.1574 20.2308 15.6418 21.887 15.1641 23.5547C14.4172 23.7448 13.6672 23.8854 12.9141 23.9766C12.6015 23.9766 12.2891 23.9766 11.9766 23.9766C11.9766 21.2422 11.9766 18.5078 11.9766 15.7734Z" fill="#515260"/>
<path opacity="0.986" fill-rule="evenodd" clip-rule="evenodd" d="M1.94531 18.5859C3.69531 18.5859 5.44533 18.5859 7.19531 18.5859C7.74881 20.2308 8.26444 21.887 8.74219 23.5547C5.87569 22.7086 3.61005 21.0524 1.94531 18.5859Z" fill="#31313D"/>
<path opacity="0.985" fill-rule="evenodd" clip-rule="evenodd" d="M16.7109 18.5859C18.4609 18.5859 20.211 18.5859 21.9609 18.5859C20.2974 21.052 18.0317 22.7082 15.1641 23.5547C15.6418 21.887 16.1574 20.2308 16.7109 18.5859Z" fill="#272733"/>
</g>
<defs>
<clipPath id="clip0_1021_99632">
<rect width="24" height="24" fill="white"/>
</clipPath>
</defs>
</svg>
