<svg width="37" height="37" viewBox="0 0 37 37" fill="none" xmlns="http://www.w3.org/2000/svg">
<g clip-path="url(#clip0_461_17420)">
<path opacity="0.989" fill-rule="evenodd" clip-rule="evenodd" d="M16.8018 -0.0361328C17.3558 -0.0361328 17.9098 -0.0361328 18.4639 -0.0361328C18.4639 0.686523 18.4639 1.40918 18.4639 2.13184C18.0884 2.10867 17.7271 2.13276 17.3799 2.2041C16.1918 2.22019 15.0355 2.41289 13.9111 2.78223C13.1687 2.94943 12.4701 3.2144 11.8154 3.57715C10.725 3.9895 9.73743 4.56763 8.85254 5.31152C8.23496 5.68786 7.6809 6.14554 7.19043 6.68457C6.30819 7.46974 5.56145 8.36106 4.9502 9.3584C4.47401 9.94859 4.08859 10.599 3.79395 11.3096C3.25282 12.3061 2.86741 13.366 2.6377 14.4893C2.40882 15.2108 2.26428 15.9575 2.2041 16.7295C2.09119 17.8995 2.11527 19.0557 2.27637 20.1982C2.28895 20.9482 2.40939 21.6709 2.6377 22.3662C2.87969 23.5017 3.26511 24.5857 3.79395 25.6182C4.08859 26.3288 4.47401 26.9791 4.9502 27.5693C5.56145 28.5667 6.30819 29.458 7.19043 30.2432C7.6809 30.7822 8.23496 31.2399 8.85254 31.6162C9.43666 32.0898 10.063 32.5114 10.7314 32.8809C11.0856 33.0589 11.4469 33.2155 11.8154 33.3506C12.4701 33.7134 13.1687 33.9783 13.9111 34.1455C15.0357 34.5149 16.1919 34.7076 17.3799 34.7236C17.7271 34.795 18.0884 34.8191 18.4639 34.7959C18.4639 35.5186 18.4639 36.2412 18.4639 36.9639C17.9098 36.9639 17.3558 36.9639 16.8018 36.9639C10.3956 36.1769 5.54182 33.0213 2.24023 27.4971C0.990588 25.182 0.231799 22.725 -0.0361328 20.126C-0.0361328 19.0179 -0.0361328 17.9098 -0.0361328 16.8018C0.860004 9.74487 4.49738 4.65016 10.876 1.51758C12.7832 0.703645 14.7584 0.185741 16.8018 -0.0361328Z" fill="#FED467"/>
<path opacity="0.987" fill-rule="evenodd" clip-rule="evenodd" d="M18.4639 -0.0361328C19.0179 -0.0361328 19.5719 -0.0361328 20.126 -0.0361328C27.4155 0.892256 32.5825 4.69825 35.627 11.3818C36.3133 13.1393 36.7588 14.9459 36.9639 16.8018C36.9639 17.9098 36.9639 19.0179 36.9639 20.126C36.207 26.5528 33.0514 31.4066 27.4971 34.6875C25.1821 35.9371 22.7251 36.6959 20.126 36.9639C19.5719 36.9639 19.0179 36.9639 18.4639 36.9639C18.4639 36.2412 18.4639 35.5186 18.4639 34.7959C18.8393 34.8191 19.2006 34.795 19.5479 34.7236C20.7319 34.6868 21.8882 34.4942 23.0166 34.1455C23.7063 33.9477 24.3808 33.7069 25.04 33.4229C26.1289 32.9332 27.1407 32.3309 28.0752 31.6162C28.6928 31.2399 29.2468 30.7822 29.7373 30.2432C30.6195 29.458 31.3663 28.5667 31.9775 27.5693C32.4537 26.9791 32.8392 26.3288 33.1338 25.6182C33.6623 24.5869 34.0477 23.5029 34.29 22.3662C34.4956 21.6646 34.6401 20.9419 34.7236 20.1982C34.8131 19.0417 34.8131 17.8855 34.7236 16.7295C34.6608 15.9818 34.5163 15.2592 34.29 14.5615C34.0467 13.4217 33.6613 12.3377 33.1338 11.3096C32.8392 10.599 32.4537 9.94859 31.9775 9.3584C31.3663 8.36106 30.6195 7.46974 29.7373 6.68457C29.2468 6.14554 28.6928 5.68786 28.0752 5.31152C27.1593 4.56386 26.1476 3.96164 25.04 3.50488C24.3816 3.22115 23.7071 2.98026 23.0166 2.78223C21.8893 2.43375 20.733 2.24104 19.5479 2.2041C19.2006 2.13276 18.8393 2.10867 18.4639 2.13184C18.4639 1.40918 18.4639 0.686523 18.4639 -0.0361328Z" fill="#FE9F42"/>
<path fill-rule="evenodd" clip-rule="evenodd" d="M18.4639 2.13181C18.4639 3.43259 18.4639 4.73337 18.4639 6.03415C18.1025 6.03415 17.7412 6.03415 17.3799 6.03415C17.3799 4.75745 17.3799 3.48077 17.3799 2.20407C17.7271 2.13273 18.0884 2.10865 18.4639 2.13181Z" fill="#02B5BC"/>
<path fill-rule="evenodd" clip-rule="evenodd" d="M18.4639 2.13181C18.8393 2.10865 19.2006 2.13273 19.5479 2.20407C19.5479 3.50485 19.5479 4.80563 19.5479 6.10642C19.1878 6.06642 18.8265 6.04234 18.4639 6.03415C18.4639 4.73337 18.4639 3.43259 18.4639 2.13181Z" fill="#08959A"/>
<path fill-rule="evenodd" clip-rule="evenodd" d="M17.3799 2.2041C17.3799 3.4808 17.3799 4.75748 17.3799 6.03418C16.6603 6.1492 15.9376 6.29373 15.2119 6.46777C14.8358 5.21916 14.4023 3.99065 13.9111 2.78223C15.0355 2.41289 16.1918 2.22019 17.3799 2.2041Z" fill="#CA2F43"/>
<path fill-rule="evenodd" clip-rule="evenodd" d="M19.5479 2.2041C20.733 2.24104 21.8893 2.43375 23.0166 2.78223C22.5886 3.93365 22.167 5.0899 21.752 6.25098C21.7006 6.35745 21.6164 6.40562 21.499 6.39551C20.8544 6.26179 20.204 6.16543 19.5479 6.10645C19.5479 4.80566 19.5479 3.50488 19.5479 2.2041Z" fill="#04465E"/>
<path fill-rule="evenodd" clip-rule="evenodd" d="M13.9111 2.78223C14.4023 3.99065 14.8358 5.21916 15.2119 6.46777C14.5226 6.66792 13.8481 6.9088 13.1885 7.19043C12.8368 6.12509 12.4634 5.0652 12.0684 4.01074C12.0166 3.83882 11.9323 3.69428 11.8154 3.57715C12.4701 3.2144 13.1687 2.94943 13.9111 2.78223Z" fill="#0EB4BB"/>
<path fill-rule="evenodd" clip-rule="evenodd" d="M23.0166 2.78223C23.7071 2.98026 24.3816 3.22115 25.04 3.50488C24.6064 4.7334 24.1729 5.96191 23.7393 7.19043C23.0019 6.88055 22.2552 6.61557 21.499 6.39551C21.6164 6.40562 21.7006 6.35745 21.752 6.25098C22.167 5.0899 22.5886 3.93365 23.0166 2.78223Z" fill="#0B9399"/>
<path fill-rule="evenodd" clip-rule="evenodd" d="M11.8154 3.57715C11.9323 3.69428 12.0166 3.83882 12.0684 4.01074C12.4634 5.0652 12.8368 6.12509 13.1885 7.19043C12.5411 7.51418 11.9148 7.87551 11.3096 8.27441C10.4906 7.28676 9.67153 6.29916 8.85254 5.31152C9.73743 4.56763 10.725 3.9895 11.8154 3.57715Z" fill="#03617F"/>
<path fill-rule="evenodd" clip-rule="evenodd" d="M25.04 3.50488C26.1476 3.96164 27.1593 4.56386 28.0752 5.31152C27.2562 6.29916 26.4372 7.28676 25.6182 8.27441C25.0129 7.87551 24.3866 7.51418 23.7393 7.19043C24.1729 5.96191 24.6064 4.7334 25.04 3.50488Z" fill="#8E1F2C"/>
<path fill-rule="evenodd" clip-rule="evenodd" d="M8.85254 5.31152C9.67153 6.29916 10.4906 7.28676 11.3096 8.27441C10.7429 8.71466 10.1888 9.17239 9.64746 9.64746C8.82847 8.65981 8.00942 7.67222 7.19043 6.68457C7.6809 6.14554 8.23496 5.68786 8.85254 5.31152Z" fill="#0BB4BB"/>
<path fill-rule="evenodd" clip-rule="evenodd" d="M28.0752 5.31152C28.6928 5.68786 29.2468 6.14554 29.7373 6.68457C28.9162 7.67396 28.0972 8.66161 27.2803 9.64746C26.7389 9.17239 26.1849 8.71466 25.6182 8.27441C26.4372 7.28676 27.2562 6.29916 28.0752 5.31152Z" fill="#0A9499"/>
<path fill-rule="evenodd" clip-rule="evenodd" d="M17.3798 6.03418C17.7412 6.03418 18.1025 6.03418 18.4638 6.03418C18.4638 6.75684 18.4638 7.47949 18.4638 8.20215C14.2346 8.37074 11.1393 10.3219 9.17768 14.0557C7.49172 18.0314 7.97352 21.717 10.623 25.1123C12.7122 27.4394 15.3257 28.6439 18.4638 28.7256C18.4638 29.4482 18.4638 30.1709 18.4638 30.8936C18.1025 30.8936 17.7412 30.8936 17.3798 30.8936C16.6888 30.7808 15.9902 30.6604 15.2841 30.5322C14.5862 30.2833 13.8876 30.0183 13.1884 29.7373C12.5411 29.4136 11.9147 29.0522 11.3095 28.6533C10.7428 28.2131 10.1887 27.7553 9.64741 27.2803C9.17168 26.7367 8.71402 26.1826 8.27436 25.6182C7.91245 24.9915 7.55112 24.3652 7.19037 23.7393C6.90787 23.0782 6.66698 22.4038 6.46772 21.7158C6.30046 21.0013 6.18001 20.2787 6.10639 19.5479C6.04163 18.8275 6.01754 18.1049 6.03412 17.3799C6.14908 16.6606 6.29362 15.9379 6.46772 15.2119C6.63717 14.5108 6.87805 13.8363 7.19037 13.1885C7.55112 12.5625 7.91245 11.9363 8.27436 11.3096C8.71402 10.7451 9.17168 10.191 9.64741 9.64746C10.1887 9.17239 10.7428 8.71466 11.3095 8.27441C11.9147 7.87551 12.5411 7.51418 13.1884 7.19043C13.8481 6.9088 14.5226 6.66792 15.2119 6.46777C15.9375 6.29373 16.6602 6.1492 17.3798 6.03418Z" fill="#FDD467"/>
<path fill-rule="evenodd" clip-rule="evenodd" d="M18.4639 6.03418C18.8265 6.04237 19.1878 6.06645 19.5479 6.10645C20.204 6.16543 20.8544 6.26179 21.499 6.39551C22.2552 6.61557 23.0019 6.88055 23.7393 7.19043C24.3866 7.51418 25.0129 7.87551 25.6182 8.27441C26.1849 8.71466 26.7389 9.17239 27.2803 9.64746C27.756 10.191 28.2137 10.7451 28.6533 11.3096C29.0152 11.9363 29.3766 12.5625 29.7373 13.1885C30.0496 13.8363 30.2905 14.5108 30.46 15.2119C30.6253 15.939 30.7698 16.6616 30.8936 17.3799C30.8936 17.9821 30.8936 18.5843 30.8936 19.1865C30.7896 20.0269 30.645 20.87 30.46 21.7158C30.2607 22.4038 30.0198 23.0782 29.7373 23.7393C29.3766 24.3652 29.0152 24.9915 28.6533 25.6182C28.2137 26.1826 27.756 26.7367 27.2803 27.2803C26.7389 27.7553 26.1849 28.2131 25.6182 28.6533C25.0129 29.0522 24.3866 29.4136 23.7393 29.7373C23.0793 30.0191 22.4048 30.26 21.7158 30.46C21.005 30.6497 20.2824 30.7701 19.5479 30.8213C19.1878 30.8613 18.8265 30.8854 18.4639 30.8936C18.4639 30.1709 18.4639 29.4482 18.4639 28.7256C23.0239 28.5118 26.2157 26.3197 28.0391 22.1494C29.5138 17.6781 28.5382 13.836 25.1123 10.623C23.1798 9.05134 20.9637 8.24435 18.4639 8.20215C18.4639 7.47949 18.4639 6.75684 18.4639 6.03418Z" fill="#FD9F42"/>
<path fill-rule="evenodd" clip-rule="evenodd" d="M7.19043 6.68457C8.00942 7.67222 8.82847 8.65981 9.64746 9.64746C9.17174 10.191 8.71408 10.7451 8.27441 11.3096C7.14001 10.6945 6.03194 10.0441 4.9502 9.3584C5.56145 8.36106 6.30819 7.46974 7.19043 6.68457Z" fill="#C92F43"/>
<path fill-rule="evenodd" clip-rule="evenodd" d="M29.7373 6.68457C30.6195 7.46974 31.3663 8.36106 31.9775 9.3584C30.8958 10.0441 29.7877 10.6945 28.6533 11.3096C28.2137 10.7451 27.756 10.191 27.2803 9.64746C28.0972 8.66161 28.9162 7.67396 29.7373 6.68457Z" fill="#03465F"/>
<path fill-rule="evenodd" clip-rule="evenodd" d="M18.4639 8.20215C18.4639 9.59926 18.4639 10.9964 18.4639 12.3936C17.5485 12.3936 16.6332 12.3936 15.7178 12.3936C15.7178 13.1162 15.7178 13.8389 15.7178 14.5615C16.2719 14.5615 16.8259 14.5615 17.3799 14.5615C17.3799 15.501 17.3799 16.4404 17.3799 17.3799C16.4405 17.3799 15.501 17.3799 14.5616 17.3799C14.5616 16.8258 14.5616 16.2718 14.5616 15.7178C13.8389 15.7178 13.1162 15.7178 12.3936 15.7178C12.3936 17.5485 12.3936 19.3793 12.3936 21.21C13.1162 21.21 13.8389 21.21 14.5616 21.21C14.5616 20.6559 14.5616 20.1019 14.5616 19.5479C15.501 19.5479 16.4405 19.5479 17.3799 19.5479C17.3799 20.5114 17.3799 21.475 17.3799 22.4385C16.8259 22.4385 16.2719 22.4385 15.7178 22.4385C15.7178 23.1611 15.7178 23.8838 15.7178 24.6064C16.6332 24.6064 17.5485 24.6064 18.4639 24.6064C18.4639 25.9795 18.4639 27.3525 18.4639 28.7256C15.3258 28.6439 12.7123 27.4394 10.6231 25.1123C7.97361 21.717 7.49182 18.0314 9.17777 14.0557C11.1394 10.3219 14.2347 8.37074 18.4639 8.20215Z" fill="#02607E"/>
<path fill-rule="evenodd" clip-rule="evenodd" d="M18.4639 8.20215C20.9637 8.24435 23.1799 9.05134 25.1123 10.623C28.5382 13.836 29.5138 17.6781 28.0391 22.1494C26.2157 26.3197 23.0239 28.5118 18.4639 28.7256C18.4639 27.3525 18.4639 25.9795 18.4639 24.6064C19.3793 24.6064 20.2946 24.6064 21.21 24.6064C21.21 23.8838 21.21 23.1611 21.21 22.4385C20.6559 22.4385 20.1019 22.4385 19.5479 22.4385C19.5479 21.475 19.5479 20.5114 19.5479 19.5479C20.5114 19.5479 21.475 19.5479 22.4385 19.5479C22.4385 20.1019 22.4385 20.6559 22.4385 21.21C23.1611 21.21 23.8838 21.21 24.6064 21.21C24.6064 19.3793 24.6064 17.5485 24.6064 15.7178C23.8838 15.7178 23.1611 15.7178 22.4385 15.7178C22.4385 16.2718 22.4385 16.8258 22.4385 17.3799C21.475 17.3799 20.5114 17.3799 19.5479 17.3799C19.5479 16.4404 19.5479 15.501 19.5479 14.5615C20.1019 14.5615 20.6559 14.5615 21.21 14.5615C21.21 13.8389 21.21 13.1162 21.21 12.3936C20.2946 12.3936 19.3793 12.3936 18.4639 12.3936C18.4639 10.9964 18.4639 9.59926 18.4639 8.20215Z" fill="#01465E"/>
<path fill-rule="evenodd" clip-rule="evenodd" d="M4.9502 9.3584C6.03194 10.0441 7.14001 10.6945 8.27441 11.3096C7.91251 11.9363 7.55118 12.5625 7.19043 13.1885C6.06793 12.5429 4.93577 11.9167 3.79395 11.3096C4.08859 10.599 4.47401 9.94859 4.9502 9.3584Z" fill="#0DB4BB"/>
<path fill-rule="evenodd" clip-rule="evenodd" d="M31.9775 9.3584C32.4537 9.94859 32.8392 10.599 33.1338 11.3096C31.99 11.9175 30.8579 12.5439 29.7373 13.1885C29.3766 12.5625 29.0152 11.9363 28.6533 11.3096C29.7877 10.6945 30.8958 10.0441 31.9775 9.3584Z" fill="#0B9499"/>
<path fill-rule="evenodd" clip-rule="evenodd" d="M3.79395 11.3096C4.93577 11.9167 6.06793 12.5429 7.19043 13.1885C6.8781 13.8363 6.63722 14.5108 6.46777 15.2119C5.26101 15.0395 4.05658 14.8468 2.85449 14.6338C2.74395 14.6237 2.67169 14.5755 2.6377 14.4893C2.86741 13.366 3.25282 12.3061 3.79395 11.3096Z" fill="#03617F"/>
<path fill-rule="evenodd" clip-rule="evenodd" d="M33.1338 11.3096C33.6613 12.3377 34.0467 13.4217 34.29 14.5615C33.0114 14.7706 31.7347 14.9874 30.46 15.2119C30.2905 14.5108 30.0496 13.8363 29.7373 13.1885C30.8579 12.5439 31.99 11.9175 33.1338 11.3096Z" fill="#8E1F2C"/>
<path fill-rule="evenodd" clip-rule="evenodd" d="M18.4639 12.3936C18.4639 13.1162 18.4639 13.8389 18.4639 14.5615C18.1025 14.5615 17.7412 14.5615 17.3799 14.5615C16.8258 14.5615 16.2718 14.5615 15.7178 14.5615C15.7178 13.8389 15.7178 13.1162 15.7178 12.3936C16.6332 12.3936 17.5485 12.3936 18.4639 12.3936Z" fill="#F3F4F6"/>
<path fill-rule="evenodd" clip-rule="evenodd" d="M18.4639 12.3936C19.3793 12.3936 20.2946 12.3936 21.21 12.3936C21.21 13.1162 21.21 13.8389 21.21 14.5615C20.6559 14.5615 20.1019 14.5615 19.5479 14.5615C19.1865 14.5615 18.8252 14.5615 18.4639 14.5615C18.4639 13.8389 18.4639 13.1162 18.4639 12.3936Z" fill="#DEE2F7"/>
<path fill-rule="evenodd" clip-rule="evenodd" d="M17.3799 14.5615C17.7412 14.5615 18.1025 14.5615 18.4639 14.5615C18.4639 17.1872 18.4639 19.8128 18.4639 22.4385C18.1025 22.4385 17.7412 22.4385 17.3799 22.4385C17.3799 21.475 17.3799 20.5114 17.3799 19.5479C16.4404 19.5479 15.501 19.5479 14.5615 19.5479C14.5615 18.8252 14.5615 18.1025 14.5615 17.3799C15.501 17.3799 16.4404 17.3799 17.3799 17.3799C17.3799 16.4404 17.3799 15.501 17.3799 14.5615Z" fill="#00B5BC"/>
<path fill-rule="evenodd" clip-rule="evenodd" d="M18.4639 14.5615C18.8252 14.5615 19.1865 14.5615 19.5479 14.5615C19.5479 15.501 19.5479 16.4404 19.5479 17.3799C20.5114 17.3799 21.475 17.3799 22.4385 17.3799C22.4385 18.1025 22.4385 18.8252 22.4385 19.5479C21.475 19.5479 20.5114 19.5479 19.5479 19.5479C19.5479 20.5114 19.5479 21.475 19.5479 22.4385C19.1865 22.4385 18.8252 22.4385 18.4639 22.4385C18.4639 19.8128 18.4639 17.1872 18.4639 14.5615Z" fill="#00959A"/>
<path fill-rule="evenodd" clip-rule="evenodd" d="M2.6377 14.4893C2.67169 14.5755 2.74395 14.6237 2.85449 14.6338C4.05658 14.8468 5.26101 15.0395 6.46777 15.2119C6.29367 15.9379 6.14914 16.6606 6.03418 17.3799C4.75603 17.1709 3.47934 16.9541 2.2041 16.7295C2.26428 15.9575 2.40882 15.2108 2.6377 14.4893Z" fill="#15B3BA"/>
<path fill-rule="evenodd" clip-rule="evenodd" d="M34.29 14.5615C34.5163 15.2592 34.6608 15.9818 34.7236 16.7295C33.437 16.8917 32.1604 17.1085 30.8936 17.3799C30.7698 16.6616 30.6253 15.939 30.46 15.2119C31.7347 14.9874 33.0114 14.7706 34.29 14.5615Z" fill="#0C9399"/>
<path fill-rule="evenodd" clip-rule="evenodd" d="M14.5615 17.3799C14.5615 18.1025 14.5615 18.8252 14.5615 19.5479C14.5615 20.1019 14.5615 20.6559 14.5615 21.21C13.8389 21.21 13.1162 21.21 12.3936 21.21C12.3936 19.3793 12.3936 17.5485 12.3936 15.7178C13.1162 15.7178 13.8389 15.7178 14.5615 15.7178C14.5615 16.2718 14.5615 16.8258 14.5615 17.3799Z" fill="#F3F4F6"/>
<path fill-rule="evenodd" clip-rule="evenodd" d="M22.4385 19.5479C22.4385 18.8252 22.4385 18.1025 22.4385 17.3799C22.4385 16.8258 22.4385 16.2718 22.4385 15.7178C23.1611 15.7178 23.8838 15.7178 24.6064 15.7178C24.6064 17.5485 24.6064 19.3793 24.6064 21.21C23.8838 21.21 23.1611 21.21 22.4385 21.21C22.4385 20.6559 22.4385 20.1019 22.4385 19.5479Z" fill="#DEE2F7"/>
<path fill-rule="evenodd" clip-rule="evenodd" d="M2.20407 16.7295C3.47931 16.9541 4.756 17.1709 6.03415 17.3799C6.01757 18.1049 6.04166 18.8275 6.10642 19.5479C4.83132 19.7713 3.55463 19.9881 2.27634 20.1982C2.11525 19.0557 2.09116 17.8995 2.20407 16.7295Z" fill="#C92E43"/>
<path fill-rule="evenodd" clip-rule="evenodd" d="M34.7237 16.7295C34.8131 17.8855 34.8131 19.0417 34.7237 20.1982C33.4668 20.0264 32.2142 19.8217 30.9659 19.584C30.9004 19.4612 30.8763 19.3287 30.8936 19.1865C30.8936 18.5843 30.8936 17.9821 30.8936 17.3799C32.1604 17.1085 33.4371 16.8917 34.7237 16.7295Z" fill="#01475F"/>
<path fill-rule="evenodd" clip-rule="evenodd" d="M6.10645 19.5479C6.18007 20.2787 6.30051 21.0013 6.46777 21.7158C5.18464 21.9096 3.90794 22.1264 2.6377 22.3662C2.40939 21.6709 2.28895 20.9482 2.27637 20.1982C3.55466 19.9881 4.83135 19.7713 6.10645 19.5479Z" fill="#10B3BB"/>
<path fill-rule="evenodd" clip-rule="evenodd" d="M30.8936 19.1865C30.8763 19.3287 30.9003 19.4612 30.9658 19.584C32.2141 19.8217 33.4668 20.0264 34.7236 20.1982C34.6401 20.9419 34.4956 21.6646 34.29 22.3662C33.0148 22.1416 31.7381 21.9248 30.46 21.7158C30.645 20.87 30.7896 20.0269 30.8936 19.1865Z" fill="#109399"/>
<path fill-rule="evenodd" clip-rule="evenodd" d="M6.46777 21.7158C6.66704 22.4038 6.90793 23.0782 7.19043 23.7393C6.06793 24.3848 4.93577 25.0111 3.79395 25.6182C3.26511 24.5857 2.87969 23.5017 2.6377 22.3662C3.90794 22.1264 5.18464 21.9096 6.46777 21.7158Z" fill="#02617F"/>
<path fill-rule="evenodd" clip-rule="evenodd" d="M30.46 21.7158C31.7381 21.9248 33.0148 22.1416 34.29 22.3662C34.0477 23.5029 33.6623 24.5869 33.1338 25.6182C31.99 25.0102 30.8579 24.3839 29.7373 23.7393C30.0198 23.0782 30.2607 22.4038 30.46 21.7158Z" fill="#8E1E2C"/>
<path fill-rule="evenodd" clip-rule="evenodd" d="M17.3799 22.4385C17.7412 22.4385 18.1025 22.4385 18.4639 22.4385C18.4639 23.1611 18.4639 23.8838 18.4639 24.6064C17.5485 24.6064 16.6332 24.6064 15.7178 24.6064C15.7178 23.8838 15.7178 23.1611 15.7178 22.4385C16.2718 22.4385 16.8258 22.4385 17.3799 22.4385Z" fill="#F3F4F6"/>
<path fill-rule="evenodd" clip-rule="evenodd" d="M18.4639 22.4385C18.8252 22.4385 19.1865 22.4385 19.5479 22.4385C20.1019 22.4385 20.6559 22.4385 21.21 22.4385C21.21 23.1611 21.21 23.8838 21.21 24.6064C20.2946 24.6064 19.3793 24.6064 18.4639 24.6064C18.4639 23.8838 18.4639 23.1611 18.4639 22.4385Z" fill="#DEE2F7"/>
<path fill-rule="evenodd" clip-rule="evenodd" d="M7.19043 23.7393C7.55118 24.3652 7.91251 24.9915 8.27441 25.6182C7.14001 26.2332 6.03194 26.8836 4.9502 27.5693C4.47401 26.9791 4.08859 26.3288 3.79395 25.6182C4.93577 25.0111 6.06793 24.3848 7.19043 23.7393Z" fill="#0DB4BB"/>
<path fill-rule="evenodd" clip-rule="evenodd" d="M29.7373 23.7393C30.8579 24.3839 31.99 25.0102 33.1338 25.6182C32.8392 26.3288 32.4537 26.9791 31.9775 27.5693C30.8958 26.8836 29.7877 26.2332 28.6533 25.6182C29.0152 24.9915 29.3766 24.3652 29.7373 23.7393Z" fill="#0B9499"/>
<path fill-rule="evenodd" clip-rule="evenodd" d="M8.27441 25.6182C8.71408 26.1826 9.17174 26.7367 9.64746 27.2803C8.82847 28.2679 8.00942 29.2555 7.19043 30.2432C6.30819 29.458 5.56145 28.5667 4.9502 27.5693C6.03194 26.8836 7.14001 26.2332 8.27441 25.6182Z" fill="#C92F43"/>
<path fill-rule="evenodd" clip-rule="evenodd" d="M28.6533 25.6182C29.7877 26.2332 30.8958 26.8836 31.9775 27.5693C31.3663 28.5667 30.6195 29.458 29.7373 30.2432C28.9162 29.2538 28.0972 28.2661 27.2803 27.2803C27.756 26.7367 28.2137 26.1826 28.6533 25.6182Z" fill="#03465F"/>
<path fill-rule="evenodd" clip-rule="evenodd" d="M27.2803 27.2803C28.0972 28.2661 28.9162 29.2538 29.7373 30.2432C29.2468 30.7822 28.6928 31.2399 28.0752 31.6162C27.2562 30.6286 26.4372 29.641 25.6182 28.6533C26.1849 28.2131 26.7389 27.7553 27.2803 27.2803Z" fill="#099499"/>
<path fill-rule="evenodd" clip-rule="evenodd" d="M9.64746 27.2803C10.1888 27.7553 10.7429 28.2131 11.3096 28.6533C10.4906 29.641 9.67153 30.6286 8.85254 31.6162C8.23496 31.2399 7.6809 30.7822 7.19043 30.2432C8.00942 29.2555 8.82847 28.2679 9.64746 27.2803Z" fill="#0CB4BB"/>
<path fill-rule="evenodd" clip-rule="evenodd" d="M11.3096 28.6533C11.9148 29.0522 12.5411 29.4136 13.1885 29.7373C12.7853 30.9721 12.3276 32.1766 11.8154 33.3506C11.4469 33.2155 11.0856 33.0589 10.7314 32.8809C10.063 32.5114 9.43666 32.0898 8.85254 31.6162C9.67153 30.6286 10.4906 29.641 11.3096 28.6533Z" fill="#03607F"/>
<path fill-rule="evenodd" clip-rule="evenodd" d="M25.6182 28.6533C26.4372 29.641 27.2562 30.6286 28.0752 31.6162C27.1407 32.3309 26.1289 32.9332 25.04 33.4229C24.6351 32.1839 24.2015 30.9554 23.7393 29.7373C24.3866 29.4136 25.0129 29.0522 25.6182 28.6533Z" fill="#8E1F2C"/>
<path fill-rule="evenodd" clip-rule="evenodd" d="M13.1885 29.7373C13.8876 30.0183 14.5862 30.2833 15.2842 30.5322C14.7996 31.7203 14.3419 32.9247 13.9111 34.1455C13.1687 33.9783 12.4701 33.7134 11.8154 33.3506C12.3276 32.1766 12.7853 30.9721 13.1885 29.7373Z" fill="#0CB3BB"/>
<path fill-rule="evenodd" clip-rule="evenodd" d="M23.7393 29.7373C24.2015 30.9554 24.6351 32.1839 25.04 33.4229C24.3808 33.7069 23.7063 33.9477 23.0166 34.1455C22.583 32.917 22.1494 31.6885 21.7158 30.46C22.4048 30.26 23.0793 30.0191 23.7393 29.7373Z" fill="#0A9499"/>
<path fill-rule="evenodd" clip-rule="evenodd" d="M15.2842 30.5322C15.9902 30.6604 16.6888 30.7808 17.3799 30.8936C17.3799 32.1703 17.3799 33.4469 17.3799 34.7236C16.1919 34.7076 15.0357 34.5149 13.9111 34.1455C14.3419 32.9247 14.7996 31.7203 15.2842 30.5322Z" fill="#C92F43"/>
<path fill-rule="evenodd" clip-rule="evenodd" d="M21.7158 30.46C22.1494 31.6885 22.583 32.917 23.0166 34.1455C21.8882 34.4942 20.7319 34.6868 19.5479 34.7236C19.5479 33.4229 19.5479 32.1221 19.5479 30.8213C20.2824 30.7701 21.005 30.6497 21.7158 30.46Z" fill="#04465F"/>
<path fill-rule="evenodd" clip-rule="evenodd" d="M17.3799 30.8936C17.7412 30.8936 18.1025 30.8936 18.4639 30.8936C18.4639 32.1943 18.4639 33.4951 18.4639 34.7959C18.0884 34.8191 17.7271 34.795 17.3799 34.7236C17.3799 33.4469 17.3799 32.1703 17.3799 30.8936Z" fill="#02B5BC"/>
<path fill-rule="evenodd" clip-rule="evenodd" d="M19.5479 30.8213C19.5479 32.1221 19.5479 33.4229 19.5479 34.7236C19.2006 34.795 18.8393 34.8191 18.4639 34.7959C18.4639 33.4951 18.4639 32.1943 18.4639 30.8936C18.8265 30.8854 19.1878 30.8613 19.5479 30.8213Z" fill="#08959A"/>
</g>
<defs>
<clipPath id="clip0_461_17420">
<rect width="37" height="37" fill="white"/>
</clipPath>
</defs>
</svg>
