<svg width="99" height="99" viewBox="0 0 99 99" fill="none" xmlns="http://www.w3.org/2000/svg">
<g clip-path="url(#clip0_2797_95471)">
<path opacity="0.86" fill-rule="evenodd" clip-rule="evenodd" d="M48.92 22.2363C46.8576 22.2363 44.7949 22.2363 42.7325 22.2363C37.5899 16.9002 32.3692 11.615 27.0704 6.38085C25.9068 3.29265 26.8736 2.19695 29.9708 3.09374C36.3652 9.42359 42.6815 15.8045 48.92 22.2363Z" fill="#6C959D"/>
<path opacity="0.86" fill-rule="evenodd" clip-rule="evenodd" d="M55.8809 22.2363C53.8185 22.2363 51.7557 22.2363 49.6934 22.2363C55.9319 15.8045 62.2482 9.42359 68.6426 3.09374C71.7398 2.19695 72.7066 3.29265 71.543 6.38085C66.2441 11.615 61.0234 16.9002 55.8809 22.2363Z" fill="#4F7479"/>
<path opacity="0.988" fill-rule="evenodd" clip-rule="evenodd" d="M42.7324 22.2363C44.7948 22.2363 46.8576 22.2363 48.9199 22.2363C49.1779 22.2363 49.4354 22.2363 49.6934 22.2363C51.7557 22.2363 53.8185 22.2363 55.8809 22.2363C60.3517 21.4978 63.3163 23.238 64.7754 27.457C74.9581 27.6504 85.1419 27.7148 95.3262 27.6504C89.2133 32.1905 82.8966 36.4445 76.377 40.4121C76.2482 40.4121 76.119 40.4121 75.9902 40.4121C75.4562 38.1368 74.0385 36.6544 71.7363 35.9648C51.627 35.707 31.5176 35.707 11.4082 35.9648C8.47115 36.9021 6.92428 38.9 6.76758 41.959C6.70311 55.7525 6.76758 69.5456 6.96094 83.3379C7.46611 84.5448 8.17512 85.5758 9.08789 86.4316C5.98737 88.3757 2.89364 90.3093 -0.193359 92.2324C-0.193359 71.3496 -0.193359 50.4668 -0.193359 29.584C0.249968 28.8202 0.8945 28.2401 1.74023 27.8438C12.4395 27.7149 23.1387 27.5859 33.8379 27.457C35.2969 23.238 38.2617 21.4978 42.7324 22.2363Z" fill="#08762A"/>
<path fill-rule="evenodd" clip-rule="evenodd" d="M38.4785 24.1697C45.5694 24.1052 52.6595 24.1697 59.748 24.363C61.4206 24.8101 62.7095 25.7769 63.6152 27.2634C54.076 27.779 44.5372 27.779 34.998 27.2634C35.9361 25.9361 37.0963 24.9049 38.4785 24.1697Z" fill="#035639"/>
<path fill-rule="evenodd" clip-rule="evenodd" d="M95.3262 27.6501C96.9059 27.6007 98.0661 28.2453 98.8066 29.5837C98.8066 51.1112 98.8066 72.6383 98.8066 94.1657C98.2142 94.9473 97.4408 95.5274 96.4863 95.906C65.1621 96.1639 33.8379 96.1639 2.51367 95.906C1.34316 95.6952 0.440813 95.1151 -0.193359 94.1657C-0.193359 93.5211 -0.193359 92.8768 -0.193359 92.2321C2.89364 90.309 5.98737 88.3754 9.08789 86.4313C9.5453 86.8196 10.0609 87.1421 10.6348 87.3981C31.002 87.6561 51.369 87.6561 71.7363 87.3981C73.9921 86.6893 75.4747 85.2066 76.1836 82.9509C76.377 68.7718 76.4415 54.592 76.377 40.4118C82.8966 36.4442 89.2133 32.1903 95.3262 27.6501Z" fill="#035639"/>
<path fill-rule="evenodd" clip-rule="evenodd" d="M93.7793 39.2519C93.3535 38.7492 92.838 38.5559 92.2324 38.6718C89.4469 41.3924 86.7398 44.164 84.1113 46.9863C81.2805 43.2653 81.6673 39.849 85.2715 36.7382C88.0949 35.6828 90.6732 36.0695 93.0058 37.8984C93.5175 38.2139 93.775 38.6651 93.7793 39.2519Z" fill="#283638"/>
<path fill-rule="evenodd" clip-rule="evenodd" d="M88.3653 37.3184C88.7992 38.01 88.8638 38.7833 88.5586 39.6387C87.8625 38.9174 87.7983 38.144 88.3653 37.3184Z" fill="#55BD36"/>
<path fill-rule="evenodd" clip-rule="evenodd" d="M93.7793 39.2523C95.7295 45.4928 93.4092 48.6511 86.8184 48.7269C85.7591 48.3301 84.8569 47.7501 84.1113 46.9867C86.7399 44.1644 89.4469 41.3928 92.2324 38.6722C92.838 38.5563 93.3535 38.7496 93.7793 39.2523Z" fill="#121D1C"/>
<path fill-rule="evenodd" clip-rule="evenodd" d="M24.9434 41.5722C24.9434 43.7637 24.9434 45.9549 24.9434 48.1464C21.0762 48.1464 17.209 48.1464 13.3418 48.1464C13.3418 45.9549 13.3418 43.7637 13.3418 41.5722C17.209 41.0567 21.0762 41.0567 24.9434 41.5722Z" fill="#B2380A"/>
<path fill-rule="evenodd" clip-rule="evenodd" d="M48.5332 41.5723C51.5094 41.5158 54.474 41.6446 57.4277 41.959C58.1246 42.3295 58.898 42.5874 59.7481 42.7324C60.6518 43.6857 61.2319 44.8458 61.4883 46.2129C62.0571 49.1025 62.1213 51.9386 61.6816 54.7207C61.5583 57.0147 61.0428 59.2059 60.1348 61.2949C56.5255 70.3182 50.2089 76.6349 41.1856 80.2441C39.1185 81.1815 36.9273 81.8258 34.6113 82.1777C32.2875 82.2419 29.9672 82.1773 27.6504 81.9844C25.799 81.7334 24.1233 81.1533 22.6231 80.2441C21.2463 76.5518 20.8596 72.8133 21.4629 69.0293C21.4408 66.6703 21.9564 64.4792 23.0098 62.4551C26.3229 53.3409 32.5104 47.0246 41.5723 43.5059C42.7065 42.9324 43.8667 42.4165 45.0527 41.959C46.2198 41.8801 47.38 41.7513 48.5332 41.5723ZM24.9434 41.5723C21.0762 41.0568 17.209 41.0568 13.3418 41.5723V48.1465H24.9434L24.9434 41.5723ZM6.76758 41.959C6.76758 41.959 6.76758 41.959 6.76758 41.959C6.92428 38.9 8.47115 36.9021 11.4082 35.9649C31.5176 35.707 51.627 35.707 71.7363 35.9649C74.0385 36.6544 75.4562 38.1368 75.9902 40.4121L76.377 40.4121C76.4415 54.5923 76.377 68.7721 76.1836 82.9512C75.4747 85.2069 73.9921 86.6896 71.7363 87.3984C51.369 87.6564 31.002 87.6564 10.6348 87.3984C10.0609 87.1424 9.54531 86.8199 9.0879 86.4316C8.17512 85.5758 7.46611 84.5448 6.96094 83.3379C6.76758 69.5456 6.70312 55.7525 6.76758 41.959Z" fill="url(#paint0_linear_2797_95471)"/>
<path fill-rule="evenodd" clip-rule="evenodd" d="M48.5332 41.5723C50.5956 43.8926 52.7871 46.0841 55.1074 48.1465C57.041 50.2089 58.9746 52.2716 60.9082 54.334C55.259 51.2507 49.7162 47.9636 44.2793 44.4727C43.9169 44.205 43.6594 44.2696 43.5059 44.666C42.9559 44.1149 42.3113 43.7282 41.5723 43.5059C42.7065 42.9324 43.8667 42.4165 45.0527 41.959C46.2199 41.8801 47.38 41.7513 48.5332 41.5723Z" fill="#BFBBA7"/>
<path fill-rule="evenodd" clip-rule="evenodd" d="M48.5332 41.5722C51.5094 41.5158 54.474 41.6445 57.4277 41.959C58.1246 42.3294 58.898 42.5874 59.748 42.7324C58.3547 44.6436 56.8078 46.448 55.1074 48.1465C52.7871 46.0841 50.5956 43.8925 48.5332 41.5722Z" fill="#C53305"/>
<path fill-rule="evenodd" clip-rule="evenodd" d="M14.5021 42.7319C15.5333 42.7319 16.5646 42.7319 17.5958 42.7319C17.5958 43.7633 17.5958 44.7943 17.5958 45.8257C18.0502 45.9104 18.4369 45.7816 18.756 45.439C19.1816 44.6106 19.5683 43.773 19.9161 42.9253C21.2241 42.6067 22.5132 42.6712 23.7833 43.1187C23.1026 44.1674 22.8448 45.3276 23.0099 46.5991C21.9488 46.6966 20.982 46.4386 20.1095 45.8257C19.106 46.4622 18.0102 46.7202 16.8224 46.5991C16.8224 45.5678 16.8224 44.5368 16.8224 43.5054C15.0395 43.5425 14.9106 43.9292 16.4357 44.6655C16.1166 45.0082 15.7299 45.137 15.2755 45.0523C15.3768 45.6238 15.2479 46.1393 14.8888 46.5991C14.5071 45.3353 14.3782 44.046 14.5021 42.7319Z" fill="#F7E6E2"/>
<path fill-rule="evenodd" clip-rule="evenodd" d="M20.6895 43.5059C21.0762 43.5059 21.4629 43.5059 21.8496 43.5059C21.9285 46.9983 21.5417 46.9983 20.6895 43.5059Z" fill="#AE2D0F"/>
<path fill-rule="evenodd" clip-rule="evenodd" d="M41.5723 43.5059C42.3113 43.7282 42.9559 44.1149 43.5059 44.666C45.9549 47.2443 48.4044 49.8221 50.8535 52.4004C49.6686 53.5876 48.3797 54.619 46.9863 55.4941C45.9047 54.6066 44.8733 53.6398 43.8926 52.5938C42.4087 52.207 41.6353 52.7871 41.5723 54.334C41.9864 55.433 42.4377 56.4644 42.9258 57.4277C42.4103 57.9432 41.8944 58.4591 41.3789 58.9746C40.4972 57.5983 39.2724 57.0182 37.7051 57.2344C37.166 57.6041 36.9082 58.1196 36.9316 58.7812C37.0919 59.9399 37.6075 60.9067 38.4785 61.6816C37.97 62.3839 37.3899 63.0286 36.7383 63.6152C35.9023 62.1194 34.6777 61.5393 33.0645 61.875C32.3313 62.5742 32.1379 63.4122 32.4844 64.3887C33.5304 65.3694 34.4972 66.4008 35.3848 67.4824C34.3535 68.7714 33.1933 69.9315 31.9043 70.9629C28.9394 68.1271 25.9746 65.2909 23.0098 62.4551C26.3229 53.3409 32.5104 47.0246 41.5723 43.5059Z" fill="#C63606"/>
<path fill-rule="evenodd" clip-rule="evenodd" d="M59.748 42.7324C60.6518 43.6857 61.2319 44.8458 61.4883 46.2129C62.0571 49.1025 62.1213 51.9386 61.6816 54.7207C61.4237 54.5919 61.1661 54.4628 60.9082 54.334C58.9746 52.2716 57.041 50.2089 55.1074 48.1465C56.8078 46.448 58.3547 44.6436 59.748 42.7324Z" fill="#A52902"/>
<path fill-rule="evenodd" clip-rule="evenodd" d="M60.9082 54.3336C61.1661 54.4624 61.4237 54.5915 61.6816 54.7203C61.5583 57.0143 61.0428 59.2055 60.1348 61.2945C57.041 58.3296 53.9473 55.365 50.8535 52.4C48.4044 49.8217 45.9549 47.2439 43.5059 44.6656C43.6594 44.2692 43.9169 44.2046 44.2793 44.4723C49.7162 47.9632 55.259 51.2503 60.9082 54.3336Z" fill="#D6D0C4"/>
<path fill-rule="evenodd" clip-rule="evenodd" d="M82.1777 52.0137C86.5604 52.0137 90.9435 52.0137 95.3262 52.0137C95.3262 52.4004 95.3262 52.7871 95.3262 53.1738C90.9435 53.1738 86.5604 53.1738 82.1777 53.1738C82.1777 52.7871 82.1777 52.4004 82.1777 52.0137Z" fill="#07762A"/>
<path fill-rule="evenodd" clip-rule="evenodd" d="M46.9864 55.4942C48.1318 56.8338 49.3566 58.1227 50.6602 59.3614C51.0566 60.8889 50.4765 61.7911 48.9199 62.0684C47.9033 61.3538 46.8719 60.7737 45.8262 60.3282C45.3107 60.8437 44.7948 61.3596 44.2793 61.875C45.6557 62.7568 46.2357 63.9815 46.0196 65.5489C45.6089 66.0899 45.0934 66.4766 44.4727 66.709C43.4127 66.2106 42.4459 65.5663 41.5723 64.7754C40.87 65.284 40.2253 65.8641 39.6387 66.5157C41.1345 67.3518 41.7146 68.5761 41.3789 70.1895C40.6797 70.9227 39.8417 71.1161 38.8653 70.7696C37.7556 69.5947 36.5955 68.4992 35.3848 67.4825C34.4973 66.4008 33.5305 65.3694 32.4844 64.3887C32.1379 63.4123 32.3313 62.5742 33.0645 61.875C34.6778 61.5394 35.9023 62.1195 36.7383 63.6153C37.39 63.0286 37.97 62.384 38.4785 61.6817C37.6075 60.9067 37.0919 59.9399 36.9317 58.7813C36.9082 58.1196 37.166 57.6041 37.7051 57.2344C39.2725 57.0182 40.4972 57.5983 41.3789 58.9747C41.8944 58.4592 42.4103 57.9433 42.9258 57.4278C42.4378 56.4645 41.9865 55.4331 41.5723 54.334C41.6353 52.7872 42.4088 52.2071 43.8926 52.5938C44.8733 53.6399 45.9047 54.6067 46.9864 55.4942Z" fill="#D7D1C5"/>
<path fill-rule="evenodd" clip-rule="evenodd" d="M50.8535 52.4004C53.9473 55.3654 57.041 58.3299 60.1348 61.2949C56.5255 70.3182 50.2089 76.6349 41.1855 80.2441C40.7988 79.9862 40.4121 79.7286 40.0254 79.4707C37.3184 76.6349 34.6113 73.7987 31.9043 70.9629C33.1933 69.9315 34.3535 68.7714 35.3848 67.4824C36.5954 68.4991 37.7556 69.5947 38.8652 70.7695C39.8417 71.116 40.6797 70.9227 41.3789 70.1895C41.7146 68.5761 41.1345 67.3517 39.6387 66.5156C40.2253 65.864 40.87 65.2839 41.5723 64.7754C42.4459 65.5662 43.4127 66.2105 44.4727 66.709C45.0933 66.4766 45.6088 66.0898 46.0195 65.5488C46.2357 63.9815 45.6556 62.7567 44.2793 61.875C44.7948 61.3595 45.3107 60.8436 45.8262 60.3281C46.8719 60.7736 47.9032 61.3537 48.9199 62.0684C50.4765 61.7911 51.0565 60.8889 50.6602 59.3613C49.3565 58.1227 48.1318 56.8337 46.9863 55.4941C48.3797 54.619 49.6686 53.5876 50.8535 52.4004Z" fill="#AC2804"/>
<path fill-rule="evenodd" clip-rule="evenodd" d="M82.1777 55.4941C86.5604 55.4941 90.9435 55.4941 95.3262 55.4941C95.3262 56.0096 95.3262 56.5255 95.3262 57.041C90.9435 57.041 86.5604 57.041 82.1777 57.041C82.1777 56.5255 82.1777 56.0096 82.1777 55.4941Z" fill="#07732B"/>
<path fill-rule="evenodd" clip-rule="evenodd" d="M82.1777 59.3613C86.5604 59.3613 90.9435 59.3613 95.3262 59.3613C95.3262 59.748 95.3262 60.1348 95.3262 60.5215C90.9435 60.5215 86.5604 60.5215 82.1777 60.5215C82.1777 60.1348 82.1777 59.748 82.1777 59.3613Z" fill="#07762A"/>
<path fill-rule="evenodd" clip-rule="evenodd" d="M23.0097 62.4551C25.9746 65.2909 28.9394 68.1271 31.9042 70.9629C34.6113 73.7987 37.3183 76.6349 40.0253 79.4707C34.1613 76.2169 28.3605 72.8652 22.623 69.416C22.2784 69.1801 21.8917 69.0513 21.4628 69.0293C21.4408 66.6703 21.9564 64.4792 23.0097 62.4551Z" fill="#BFBDAA"/>
<path fill-rule="evenodd" clip-rule="evenodd" d="M82.1777 62.8418C86.5604 62.8418 90.9435 62.8418 95.3262 62.8418C95.3262 63.3573 95.3262 63.8732 95.3262 64.3887C90.9435 64.3887 86.5604 64.3887 82.1777 64.3887C82.1777 63.8732 82.1777 63.3573 82.1777 62.8418Z" fill="#07732B"/>
<path fill-rule="evenodd" clip-rule="evenodd" d="M89.1387 68.2559C88.3811 70.6729 88.1232 73.2507 88.3653 75.9902C85.2263 75.351 84.0019 73.4174 84.6914 70.1895C85.5519 68.9384 86.712 68.165 88.1719 67.8691C88.5857 67.88 88.9078 68.0087 89.1387 68.2559Z" fill="#283738"/>
<path fill-rule="evenodd" clip-rule="evenodd" d="M89.1387 68.2559C92.1594 69.1411 93.1261 71.0747 92.0391 74.0566C91.1423 75.3224 89.9175 75.967 88.3653 75.9902C88.1232 73.2507 88.3811 70.6729 89.1387 68.2559Z" fill="#131F1D"/>
<path fill-rule="evenodd" clip-rule="evenodd" d="M21.463 69.0293C21.8919 69.0513 22.2786 69.1801 22.6232 69.416C24.2989 71.2208 25.9747 73.0253 27.6505 74.8301C26.2565 76.8696 24.5807 78.6744 22.6232 80.2441C21.2464 76.5517 20.8597 72.8133 21.463 69.0293Z" fill="#C3390B"/>
<path fill-rule="evenodd" clip-rule="evenodd" d="M86.0449 70.1894C86.8168 69.73 87.1389 69.988 87.0117 70.9629C86.7379 70.6222 86.4154 70.3646 86.0449 70.1894Z" fill="#4FAF36"/>
<path fill-rule="evenodd" clip-rule="evenodd" d="M22.623 69.416C28.3606 72.8652 34.1614 76.2169 40.0254 79.4707C40.4121 79.7286 40.7988 79.9862 41.1855 80.2441C39.1185 81.1815 36.9273 81.8258 34.6113 82.1777C32.5713 79.4924 30.251 77.0433 27.6504 74.8301C25.9746 73.0253 24.2988 71.2208 22.623 69.416Z" fill="#D6D3C7"/>
<path fill-rule="evenodd" clip-rule="evenodd" d="M27.6504 74.8301C30.251 77.0433 32.5713 79.4924 34.6113 82.1777C32.2875 82.2419 29.9671 82.1773 27.6504 81.9844C25.799 81.7334 24.1232 81.1533 22.623 80.2441C24.5806 78.6744 26.2564 76.8696 27.6504 74.8301Z" fill="#A92A07"/>
<path fill-rule="evenodd" clip-rule="evenodd" d="M89.5254 80.2445C89.1387 80.2445 88.752 80.2445 88.3652 80.2445C88.3652 82.6935 88.3652 85.143 88.3652 87.5921C88.8807 87.5921 89.3966 87.5921 89.9121 87.5921C86.7716 88.3331 84.9671 87.0437 84.498 83.7249C84.9842 80.7174 86.6598 79.5573 89.5254 80.2445Z" fill="#283738"/>
<path fill-rule="evenodd" clip-rule="evenodd" d="M89.5254 80.2441C92.5263 81.4824 93.2352 83.5448 91.6523 86.4316C91.1608 86.9665 90.5807 87.3532 89.9121 87.5918C89.3966 87.5918 88.8807 87.5918 88.3652 87.5918C88.3652 85.1427 88.3652 82.6932 88.3652 80.2441C88.752 80.2441 89.1387 80.2441 89.5254 80.2441Z" fill="#131E1D"/>
<path fill-rule="evenodd" clip-rule="evenodd" d="M86.4316 81.791C87.142 81.8448 87.2708 82.1027 86.8183 82.5645C86.5097 82.3877 86.381 82.1298 86.4316 81.791Z" fill="#4DA536"/>
</g>
<defs>
<linearGradient id="paint0_linear_2797_95471" x1="42" y1="18.5" x2="41.5723" y2="87.5919" gradientUnits="userSpaceOnUse">
<stop stop-color="#146F17"/>
<stop offset="0.459734" stop-color="#53D158"/>
<stop offset="0.57536" stop-color="#46CA4B"/>
<stop offset="0.697788" stop-color="#38C23D"/>
<stop offset="0.769204" stop-color="#30BD35"/>
<stop offset="0.905235" stop-color="#20B426"/>
<stop offset="1" stop-color="#15AE1B"/>
</linearGradient>
<clipPath id="clip0_2797_95471">
<rect width="99" height="99" fill="white"/>
</clipPath>
</defs>
</svg>
