<svg width="155" height="117" viewBox="0 0 155 117" fill="none" xmlns="http://www.w3.org/2000/svg">
<path style="mix-blend-mode:multiply" d="M77.4128 116.533C120.167 116.533 154.826 107.011 154.826 95.2664C154.826 83.5213 120.167 74 77.4128 74C34.6589 74 0 83.5213 0 95.2664C0 107.011 34.6589 116.533 77.4128 116.533Z" fill="url(#paint0_radial_3251_87333)" fill-opacity="0.5"/>
<path style="mix-blend-mode:multiply" d="M76.5 113C106.6 113 131 104.717 131 94.5C131 84.2827 106.6 76 76.5 76C46.4005 76 22 84.2827 22 94.5C22 104.717 46.4005 113 76.5 113Z" fill="url(#paint1_radial_3251_87333)"/>
<path style="mix-blend-mode:multiply" d="M106.39 100.774C106.39 96.7804 90.0972 93.5471 69.9965 93.5471C49.8958 93.5471 33.6025 96.7889 33.6025 100.774C33.6025 104.758 49.8958 108 69.9965 108C90.0972 108 106.39 104.767 106.39 100.774Z" fill="url(#paint2_radial_3251_87333)"/>
<path style="mix-blend-mode:multiply" opacity="0.6" d="M120.134 90.1111C120.134 88.2201 108.914 86.6836 95.0607 86.6836C81.2072 86.6836 69.9961 88.2201 69.9961 90.1111C69.9961 92.0021 81.2157 93.547 95.0607 93.547C108.906 93.547 120.134 92.0106 120.134 90.1111Z" fill="url(#paint3_radial_3251_87333)"/>
<path style="mix-blend-mode:multiply" opacity="0.6" d="M118.091 90.1193C118.091 89.444 107.783 88.9121 95.0605 88.9121C82.3382 88.9121 72.0388 89.444 72.0388 90.1193C72.0388 90.7947 82.3466 91.3181 95.0605 91.3181C107.774 91.3181 118.091 90.7778 118.091 90.1193Z" fill="url(#paint4_radial_3251_87333)"/>
<path d="M97.4253 49.5806C97.4253 41.6535 93.0438 34.3848 90.756 28.8721C89.7176 26.3395 89.6839 22.8698 90.2917 19.4423C91.0925 15.1511 91.6309 10.815 91.9042 6.45831C91.9042 2.81131 88.9494 0.548828 85.3024 0.548828C81.6554 0.548828 78.7007 2.83664 78.7007 6.45831C78.9783 10.8067 79.5196 15.1342 80.3216 19.417C80.9294 22.8445 80.8956 26.3564 79.8573 28.8637C77.5694 34.4102 73.188 41.6451 73.188 49.5722C73.188 55.7518 76.2778 67.1149 79.8826 73.9784C79.8826 74.3329 82.3139 74.6284 85.3024 74.6284C88.2909 74.6284 90.7307 74.3329 90.7307 73.9784C94.3355 67.1234 97.4253 55.7603 97.4253 49.5806Z" fill="#D4CCBE"/>
<path d="M91.2119 29.9441H79.393C78.9202 31.0247 78.3883 32.1559 77.8396 33.3209H92.7653C92.2165 32.1559 91.6931 31.0247 91.2119 29.9441Z" fill="#DD460D"/>
<path d="M80.7187 22.4983C80.7921 23.6242 80.7639 24.7543 80.6343 25.8751H90.005C89.8796 24.7541 89.8514 23.6242 89.9206 22.4983H80.7187Z" fill="#DD460D"/>
<path style="mix-blend-mode:screen" d="M94.961 47.8252C94.961 40.3792 91.7108 33.5749 90.0139 28.3577C89.2457 26.0108 89.2203 22.7183 89.6678 19.4935C90.4191 14.2002 90.8497 8.89016 90.8497 7.30304C90.8497 3.87554 88.6632 1.72281 85.9617 1.72281C85.1398 1.71608 84.3308 1.92642 83.6163 2.33258C82.9018 2.73874 82.3072 3.32633 81.8926 4.03594C82.6205 3.61275 83.4481 3.39127 84.2901 3.39434C86.9916 3.39434 89.1781 5.54708 89.1781 8.96614C89.1781 10.5279 88.7307 15.838 87.9793 21.165C87.5319 24.3899 87.5572 27.6823 88.3255 30.0292C90.0139 35.2465 93.2726 42.0508 93.2726 49.4967C93.2726 54.9504 91.2464 64.6926 88.7898 71.2099C89.5242 71.1001 89.9801 70.9482 89.9801 70.7793C92.6647 64.3464 94.961 53.6671 94.961 47.8252Z" fill="url(#paint5_radial_3251_87333)"/>
<path style="mix-blend-mode:color-burn" d="M82.6601 103.399C89.1437 103.053 93.4745 85.3834 92.3348 63.932C91.1951 42.4806 85.0155 25.3684 78.5319 25.7061C72.0484 26.0438 67.7176 43.73 68.8995 65.1814C70.0814 86.6328 76.1766 103.745 82.6601 103.399Z" fill="url(#paint6_radial_3251_87333)"/>
<path style="mix-blend-mode:color-burn" d="M82.2887 34.7982C84.2304 34.8826 85.8597 33.6416 85.9273 32.0461C85.9948 30.4505 84.4752 29.0744 82.5504 28.9985C80.6256 28.9225 78.9794 30.1466 78.9119 31.7506C78.8443 33.3546 80.3386 34.7222 82.2887 34.7982Z" fill="url(#paint7_radial_3251_87333)"/>
<path style="mix-blend-mode:color-burn" d="M82.7529 25.8752C83.0896 25.8237 83.4048 25.6776 83.6617 25.4539C83.9186 25.2303 84.1067 24.9382 84.2041 24.6118C84.3015 24.2854 84.3041 23.938 84.2118 23.6102C84.1194 23.2823 83.9358 22.9874 83.6824 22.7598C83.4289 22.5322 83.116 22.3813 82.7802 22.3246C82.4443 22.268 82.0992 22.3078 81.7851 22.4397C81.471 22.5715 81.2008 22.7898 81.006 23.0692C80.8111 23.3487 80.6997 23.6776 80.6846 24.0179C80.7172 24.5368 80.9523 25.0221 81.3391 25.3694C81.7259 25.7167 82.2335 25.8984 82.7529 25.8752Z" fill="url(#paint8_radial_3251_87333)"/>
<path style="mix-blend-mode:color-dodge" d="M92.6304 4.87121C92.6304 4.03636 92.3828 3.22028 91.919 2.52613C91.4552 1.83198 90.7959 1.29095 90.0246 0.971468C89.2533 0.651986 88.4046 0.568381 87.5858 0.731251C86.767 0.894122 86.0149 1.29615 85.4246 1.88648C84.8342 2.4768 84.4322 3.22893 84.2693 4.04773C84.1065 4.86654 84.1901 5.71524 84.5095 6.48654C84.829 7.25784 85.37 7.91707 86.0642 8.38089C86.7583 8.8447 87.5744 9.09226 88.4093 9.09226C89.5288 9.09226 90.6024 8.64756 91.394 7.85596C92.1856 7.06436 92.6304 5.9907 92.6304 4.87121Z" fill="url(#paint9_radial_3251_87333)"/>
<path style="mix-blend-mode:color-dodge" d="M86.8477 2.36378C86.8493 1.89758 86.7126 1.44137 86.4548 1.05292C86.197 0.664478 85.8298 0.361277 85.3995 0.181711C84.9693 0.00214497 84.4954 -0.0456879 84.038 0.0442381C83.5805 0.134164 83.1601 0.357815 82.8298 0.686878C82.4996 1.01594 82.2744 1.43561 82.1828 1.89273C82.0913 2.34985 82.1374 2.82385 82.3154 3.25473C82.4935 3.68561 82.7953 4.05398 83.1829 4.31316C83.5704 4.57235 84.0261 4.71069 84.4923 4.71069C84.8012 4.7118 85.1073 4.65192 85.393 4.53447C85.6787 4.41703 85.9384 4.24433 86.1573 4.02629C86.3761 3.80825 86.5497 3.54917 86.6682 3.26388C86.7867 2.97859 86.8477 2.6727 86.8477 2.36378Z" fill="url(#paint10_radial_3251_87333)"/>
<path style="mix-blend-mode:color-dodge" d="M96.2011 50.1545C96.2011 44.6165 95.1543 40.1252 93.8542 40.1252C92.5541 40.1252 91.5073 44.6165 91.5073 50.1545C91.5073 55.6925 92.5541 60.1921 93.8542 60.1921C95.1543 60.1921 96.2011 55.701 96.2011 50.1545Z" fill="url(#paint11_radial_3251_87333)"/>
<path d="M113.954 60.6054C113.954 51.2684 108.788 42.7418 106.095 36.1992C104.879 33.2445 104.828 29.1162 105.546 25.0809C106.492 20.0424 107.129 14.9507 107.454 9.83446C107.454 5.53742 103.967 2.83594 99.6701 2.83594C95.3731 2.83594 91.895 5.53742 91.895 9.83446C92.221 14.9334 92.8553 20.008 93.7944 25.0303C94.512 29.074 94.4698 33.2107 93.2541 36.1654C90.5611 42.7081 85.3945 51.2346 85.3945 60.5716C85.3945 67.8487 89.0331 81.2379 93.2795 89.3254C93.2795 89.7475 96.1413 90.0937 99.6701 90.0937C103.199 90.0937 106.061 89.7475 106.061 89.3254C110.307 81.2716 113.954 67.8825 113.954 60.6054Z" fill="#D4CCBE"/>
<path d="M106.635 37.4658H92.7138C92.1566 38.7321 91.5319 40.0744 90.8818 41.4674H108.467C107.817 40.0744 107.192 38.7321 106.635 37.4658Z" fill="#DD460D"/>
<path d="M94.2264 28.6611C94.3152 29.9979 94.2841 31.3399 94.1335 32.6711H105.201C105.052 31.3399 105.018 29.9982 105.1 28.6611H94.2264Z" fill="#DD460D"/>
<path style="mix-blend-mode:screen" d="M111.05 58.5711C111.05 49.7997 107.217 41.7797 105.216 35.6338C104.321 32.8648 104.288 28.9814 104.82 25.1909C105.664 18.9016 106.229 12.6459 106.229 10.8393C106.229 6.804 103.646 4.26291 100.463 4.26291C99.4959 4.25426 98.5432 4.50201 97.7025 4.98096C96.8617 5.45992 96.1628 6.15301 95.6768 6.98973C96.5293 6.49124 97.5004 6.23168 98.488 6.23837C101.679 6.23837 104.262 8.771 104.262 12.8063C104.262 14.6467 103.731 20.9023 102.844 27.1579C102.312 30.9484 102.346 34.8318 103.249 37.6008C105.25 43.7467 109.083 51.7667 109.083 60.5465C109.083 66.971 106.694 78.4607 103.798 86.1346C104.642 86.0079 105.199 85.8222 105.199 85.628C108.348 78.0048 111.05 65.4176 111.05 58.5711Z" fill="url(#paint12_radial_3251_87333)"/>
<mask id="mask0_3251_87333" style="mask-type:luminance" maskUnits="userSpaceOnUse" x="85" y="2" width="29" height="89">
<path d="M113.954 60.6054C113.954 51.2684 108.788 42.7418 106.095 36.1992C104.879 33.2445 104.828 29.1162 105.546 25.0809C106.492 20.0424 107.129 14.9507 107.454 9.83446C107.454 5.53742 103.967 2.83594 99.6701 2.83594C95.3731 2.83594 91.895 5.53742 91.895 9.83446C92.221 14.9334 92.8553 20.008 93.7944 25.0303C94.512 29.074 94.4698 33.2107 93.2541 36.1654C90.5611 42.7081 85.3945 51.2346 85.3945 60.5716C85.3945 67.8487 89.0331 81.2379 93.2795 89.3254C93.2795 89.7475 96.1413 90.0937 99.6701 90.0937C103.199 90.0937 106.061 89.7475 106.061 89.3254C110.307 81.2716 113.954 67.8825 113.954 60.6054Z" fill="white"/>
</mask>
<g mask="url(#mask0_3251_87333)">
<path style="mix-blend-mode:color-burn" d="M96.5549 124.031C104.153 123.626 109.302 102.799 107.952 77.5151C106.601 52.2309 99.3323 32.0627 91.6922 32.4679C84.0521 32.8731 78.9446 53.7336 80.2869 78.984C81.6292 104.234 88.9063 124.436 96.5549 124.031Z" fill="url(#paint13_radial_3251_87333)"/>
<path style="mix-blend-mode:color-burn" d="M96.1159 43.1812C98.4037 43.2741 100.337 41.822 100.404 39.9394C100.472 38.0568 98.716 36.4359 96.3945 36.3431C94.0729 36.2502 92.1734 37.7023 92.1059 39.5933C92.0383 41.4843 93.8196 43.0883 96.1159 43.1812Z" fill="url(#paint14_radial_3251_87333)"/>
<path style="mix-blend-mode:color-burn" d="M96.6644 32.6966C97.0611 32.6354 97.4322 32.4629 97.7347 32.199C98.0371 31.9351 98.2584 31.5908 98.3727 31.206C98.4871 30.8213 98.4898 30.412 98.3806 30.0257C98.2714 29.6395 98.0547 29.2922 97.7558 29.0244C97.4569 28.7565 97.088 28.579 96.6922 28.5126C96.2963 28.4462 95.8898 28.4936 95.5198 28.6492C95.1498 28.8049 94.8317 29.0624 94.6024 29.3919C94.3731 29.7213 94.2421 30.1091 94.2246 30.5101C94.2638 31.1215 94.5414 31.6931 94.9976 32.102C95.4539 32.5109 96.0523 32.7244 96.6644 32.6966Z" fill="url(#paint15_radial_3251_87333)"/>
<path style="mix-blend-mode:color-dodge" d="M108.306 7.91022C108.306 6.93178 108.016 5.97531 107.473 5.16177C106.929 4.34822 106.156 3.71414 105.252 3.33971C104.348 2.96528 103.354 2.86731 102.394 3.05819C101.434 3.24908 100.553 3.72025 99.8611 4.41211C99.1692 5.10397 98.6981 5.98546 98.5072 6.9451C98.3163 7.90474 98.4143 8.89942 98.7887 9.80338C99.1631 10.7073 99.7972 11.48 100.611 12.0236C101.424 12.5672 102.381 12.8573 103.359 12.8573C104.009 12.8584 104.653 12.7312 105.254 12.483C105.854 12.2348 106.4 11.8704 106.86 11.4108C107.319 10.9512 107.684 10.4054 107.932 9.8047C108.18 9.20399 108.307 8.56019 108.306 7.91022Z" fill="url(#paint16_radial_3251_87333)"/>
<path style="mix-blend-mode:color-dodge" d="M101.485 4.95554C101.485 4.40788 101.323 3.87253 101.018 3.41717C100.714 2.9618 100.282 2.60688 99.7757 2.3973C99.2697 2.18772 98.713 2.13289 98.1758 2.23973C97.6387 2.34657 97.1453 2.61031 96.758 2.99756C96.3708 3.38481 96.1071 3.8782 96.0002 4.41534C95.8934 4.95247 95.9482 5.50922 96.1578 6.01519C96.3674 6.52116 96.7223 6.95364 97.1777 7.25791C97.633 7.56217 98.1684 7.72456 98.716 7.72456C99.4504 7.72456 100.155 7.43282 100.674 6.91353C101.193 6.39424 101.485 5.68993 101.485 4.95554Z" fill="url(#paint17_radial_3251_87333)"/>
<path style="mix-blend-mode:color-dodge" d="M112.519 61.2809C112.519 54.7551 111.278 49.4619 109.75 49.4619C108.222 49.4619 106.981 54.7551 106.981 61.2809C106.981 67.8066 108.222 73.0998 109.75 73.0998C111.278 73.0998 112.519 67.8151 112.519 61.2809Z" fill="url(#paint18_radial_3251_87333)"/>
</g>
<path d="M84.2716 60.6054C84.2716 51.2684 79.1135 42.7418 76.412 36.1992C75.1963 33.2445 75.1541 29.1162 75.8717 25.0809C76.812 20.0418 77.4463 14.9503 77.7712 9.83446C77.7712 5.53742 74.293 2.83594 69.996 2.83594C65.6989 2.83594 62.2123 5.53742 62.2123 9.83446C62.5382 14.9339 63.1753 20.0086 64.1203 25.0303C64.8378 29.074 64.7956 33.2107 63.5715 36.1654C60.8785 42.7081 55.7119 51.2346 55.7119 60.5716C55.7119 67.8487 59.3589 81.2379 63.6053 89.3254C63.6053 89.7475 66.4672 90.0937 69.996 90.0937C73.5248 90.0937 76.3867 89.7475 76.3867 89.3254C80.633 81.2716 84.2716 67.8825 84.2716 60.6054Z" fill="#D4CCBE"/>
<path d="M76.9538 37.4658H63.0412C62.484 38.7321 61.8508 40.0744 61.2092 41.4674H78.7857C78.1863 40.0744 77.511 38.7321 76.9538 37.4658Z" fill="#DD460D"/>
<path d="M64.5425 28.6611C64.6285 29.9981 64.5946 31.3402 64.4412 32.6711H75.551C75.3975 31.3402 75.3636 29.9981 75.4497 28.6611H64.5425Z" fill="#DD460D"/>
<path style="mix-blend-mode:screen" d="M81.3687 58.571C81.3687 49.7997 77.5444 41.7796 75.5436 35.6338C74.6403 32.8648 74.6066 28.9814 75.1384 25.1909C75.9826 18.9015 76.5567 12.6459 76.5567 10.8393C76.5567 6.80396 73.9734 4.26287 70.7823 4.26287C69.8149 4.25509 68.8626 4.50321 68.022 4.98208C67.1814 5.46095 66.4823 6.15356 65.9956 6.98969C66.8516 6.49205 67.8252 6.23261 68.8153 6.23832C71.998 6.23832 74.5812 8.77096 74.5812 12.8063C74.5812 14.6467 74.0494 20.9023 73.1714 27.1579C72.6395 30.9484 72.6733 34.8318 73.5766 37.6008C75.5774 43.7467 79.4017 51.7667 79.4017 60.5465C79.4017 66.9709 77.021 78.4606 74.1169 86.1345C74.9611 86.0079 75.5268 85.8222 75.5268 85.628C78.6672 78.0048 81.3687 65.4176 81.3687 58.571Z" fill="url(#paint19_radial_3251_87333)"/>
<mask id="mask1_3251_87333" style="mask-type:luminance" maskUnits="userSpaceOnUse" x="55" y="2" width="30" height="89">
<path d="M84.2716 60.6054C84.2716 51.2684 79.1135 42.7418 76.412 36.1992C75.1963 33.2445 75.1541 29.1162 75.8717 25.0809C76.812 20.0418 77.4463 14.9503 77.7712 9.83446C77.7712 5.53742 74.293 2.83594 69.996 2.83594C65.6989 2.83594 62.2123 5.53742 62.2123 9.83446C62.5382 14.9339 63.1753 20.0086 64.1203 25.0303C64.8378 29.074 64.7956 33.2107 63.5715 36.1654C60.8785 42.7081 55.7119 51.2346 55.7119 60.5716C55.7119 67.8487 59.3589 81.2379 63.6053 89.3254C63.6053 89.7475 66.4672 90.0937 69.996 90.0937C73.5248 90.0937 76.3867 89.7475 76.3867 89.3254C80.633 81.2716 84.2716 67.8825 84.2716 60.6054Z" fill="white"/>
</mask>
<g mask="url(#mask1_3251_87333)">
<path style="mix-blend-mode:color-burn" d="M66.8722 124.031C74.5124 123.626 79.6198 102.799 78.2775 77.5151C76.9352 52.2309 69.6497 32.0627 62.0096 32.4679C54.3695 32.8731 49.262 53.7336 50.6043 78.984C51.9466 104.234 59.2321 124.436 66.8722 124.031Z" fill="url(#paint20_radial_3251_87333)"/>
<path style="mix-blend-mode:color-burn" d="M66.4331 43.1812C68.7294 43.2741 70.6542 41.822 70.7301 39.9394C70.8061 38.0568 69.0417 36.4359 66.7201 36.3431C64.3986 36.2502 62.4991 37.7023 62.4315 39.5933C62.364 41.4843 64.1453 43.0883 66.4331 43.1812Z" fill="url(#paint21_radial_3251_87333)"/>
<path style="mix-blend-mode:color-burn" d="M66.9906 32.6966C67.3872 32.6354 67.7584 32.4629 68.0609 32.199C68.3633 31.9351 68.5846 31.5908 68.6989 31.206C68.8133 30.8213 68.816 30.412 68.7067 30.0257C68.5975 29.6395 68.3808 29.2922 68.0819 29.0244C67.783 28.7565 67.4142 28.579 67.0183 28.5126C66.6225 28.4462 66.2159 28.4936 65.846 28.6492C65.476 28.8049 65.1579 29.0624 64.9286 29.3919C64.6993 29.7213 64.5683 30.1091 64.5508 30.5101C64.5878 31.1223 64.8648 31.6952 65.3215 32.1046C65.7782 32.5139 66.378 32.7266 66.9906 32.6966Z" fill="url(#paint22_radial_3251_87333)"/>
<path style="mix-blend-mode:color-dodge" d="M78.6236 7.91022C78.6236 6.93142 78.3333 5.97461 77.7893 5.16089C77.2454 4.34716 76.4722 3.71309 75.5678 3.33891C74.6633 2.96473 73.6682 2.86724 72.7083 3.05881C71.7485 3.25038 70.867 3.72239 70.1755 4.41509C69.4839 5.1078 69.0135 5.99008 68.8235 6.95028C68.6336 7.91047 68.7328 8.90542 69.1085 9.80923C69.4842 10.713 70.1196 11.4851 70.9343 12.0277C71.7489 12.5703 72.7062 12.859 73.685 12.8573C74.3343 12.8573 74.9772 12.7293 75.5769 12.4805C76.1766 12.2318 76.7214 11.8673 77.1801 11.4078C77.6389 10.9483 78.0025 10.4029 78.2501 9.80274C78.4978 9.20258 78.6248 8.55948 78.6236 7.91022Z" fill="url(#paint23_radial_3251_87333)"/>
<path style="mix-blend-mode:color-dodge" d="M71.8107 4.95554C71.8107 4.40788 71.6483 3.87253 71.3441 3.41717C71.0398 2.9618 70.6073 2.60688 70.1014 2.3973C69.5954 2.18772 69.0386 2.13289 68.5015 2.23973C67.9644 2.34657 67.471 2.61031 67.0837 2.99756C66.6965 3.38481 66.4328 3.8782 66.3259 4.41534C66.2191 4.95247 66.2739 5.50922 66.4835 6.01519C66.6931 6.52116 67.048 6.95364 67.5033 7.25791C67.9587 7.56217 68.4941 7.72456 69.0417 7.72456C69.7761 7.72456 70.4804 7.43282 70.9997 6.91353C71.519 6.39424 71.8107 5.68993 71.8107 4.95554Z" fill="url(#paint24_radial_3251_87333)"/>
<path style="mix-blend-mode:color-dodge" d="M82.8364 61.2809C82.8364 54.7551 81.5954 49.4619 80.0674 49.4619C78.5393 49.4619 77.2983 54.7551 77.2983 61.2809C77.2983 67.8066 78.5393 73.0998 80.0674 73.0998C81.5954 73.0998 82.8364 67.8151 82.8364 61.2809Z" fill="url(#paint25_radial_3251_87333)"/>
</g>
<path d="M43.5132 65.7982C41.9473 71.1943 42.0167 76.9336 43.7127 82.2902C45.4087 87.6468 48.6551 92.3802 53.0413 95.8917C57.4275 99.4033 62.7566 101.535 68.3545 102.018C73.9524 102.501 79.5678 101.313 84.4904 98.604C89.4131 95.8953 93.422 91.7877 96.0101 86.8005C98.5981 81.8134 99.6492 76.1707 99.0303 70.5862C98.4114 65.0017 96.1503 59.7262 92.533 55.4267C88.9157 51.1273 84.1047 47.9971 78.7084 46.432C71.4731 44.3336 63.7006 45.195 57.1004 48.8267C50.5002 52.4585 45.6128 58.5633 43.5132 65.7982Z" fill="#CF3D36"/>
<path opacity="0.5" d="M43.5132 65.7982C41.9473 71.1942 42.0167 76.9335 43.7127 82.2901C45.4087 87.6467 48.6551 92.3801 53.0413 95.8917C57.4275 99.4032 62.7566 101.535 68.3545 102.018C73.9524 102.501 79.5678 101.313 84.4904 98.604C89.4131 95.8953 93.422 91.7876 96.0101 86.8005C98.5981 81.8133 99.6492 76.1707 99.0303 70.5862C98.4114 65.0017 96.1503 59.7261 92.533 55.4267C88.9157 51.1272 84.1047 47.997 78.7084 46.4319C71.4732 44.3358 63.7017 45.1983 57.1021 48.8297C50.5025 52.4612 45.6148 58.5645 43.5132 65.7982Z" fill="url(#paint26_radial_3251_87333)"/>
<path style="mix-blend-mode:overlay" d="M43.5132 65.7982C41.9473 71.1942 42.0167 76.9335 43.7127 82.2901C45.4087 87.6467 48.6551 92.3801 53.0413 95.8917C57.4275 99.4032 62.7566 101.535 68.3545 102.018C73.9524 102.501 79.5678 101.313 84.4904 98.604C89.4131 95.8953 93.422 91.7876 96.0101 86.8005C98.5981 81.8133 99.6492 76.1707 99.0303 70.5862C98.4114 65.0017 96.1503 59.7261 92.533 55.4267C88.9157 51.1272 84.1047 47.997 78.7084 46.4319C71.4732 44.3358 63.7017 45.1983 57.1021 48.8297C50.5025 52.4612 45.6148 58.5645 43.5132 65.7982Z" fill="url(#paint27_radial_3251_87333)"/>
<mask id="mask2_3251_87333" style="mask-type:luminance" maskUnits="userSpaceOnUse" x="42" y="45" width="58" height="58">
<path d="M43.5132 65.7982C41.9473 71.1942 42.0167 76.9335 43.7127 82.2901C45.4087 87.6467 48.6551 92.3801 53.0413 95.8917C57.4275 99.4032 62.7566 101.535 68.3545 102.018C73.9524 102.501 79.5678 101.313 84.4904 98.604C89.4131 95.8953 93.422 91.7876 96.0101 86.8005C98.5981 81.8133 99.6492 76.1707 99.0303 70.5862C98.4114 65.0017 96.1503 59.7261 92.533 55.4267C88.9157 51.1272 84.1047 47.997 78.7084 46.4319C71.4732 44.3358 63.7017 45.1983 57.1021 48.8297C50.5025 52.4612 45.6148 58.5645 43.5132 65.7982Z" fill="white"/>
</mask>
<g mask="url(#mask2_3251_87333)">
<path style="mix-blend-mode:color-burn" d="M139.652 102.132C139.652 86.455 107.741 73.7412 68.3668 73.7412C28.9927 73.7412 -2.91846 86.455 -2.91846 102.132C-2.91846 117.809 29.0012 130.557 68.3668 130.557C107.732 130.557 139.652 117.817 139.652 102.132Z" fill="url(#paint28_radial_3251_87333)"/>
<path style="mix-blend-mode:color-dodge" d="M60.9124 81.9643C48.3168 61.8805 31.2215 49.8843 22.7203 55.245C14.2191 60.6057 17.5453 81.1792 30.1409 101.263C42.7366 121.347 59.8403 133.343 68.3415 127.991C76.8427 122.638 73.5165 102.057 60.9124 81.9643Z" fill="url(#paint29_radial_3251_87333)"/>
<path style="mix-blend-mode:color-dodge" d="M89.3033 66.6165C89.3033 64.837 88.7757 63.0974 87.7872 61.6176C86.7987 60.1379 85.3937 58.9844 83.7498 58.303C82.1059 57.6216 80.2969 57.4429 78.5514 57.7895C76.806 58.136 75.2024 58.9923 73.9435 60.25C72.6846 61.5078 71.8268 63.1105 71.4786 64.8556C71.1304 66.6008 71.3075 68.41 71.9873 70.0545C72.6671 71.6991 73.8193 73.1052 75.2981 74.095C76.7769 75.0849 78.516 75.6141 80.2955 75.6158C82.6831 75.6158 84.973 74.6679 86.662 72.9805C88.351 71.293 89.301 69.004 89.3033 66.6165Z" fill="url(#paint30_radial_3251_87333)"/>
<path style="mix-blend-mode:color-dodge" d="M96.9434 51.0495C96.9434 45.8734 95.4085 40.8136 92.5329 36.5099C89.6572 32.2062 85.5699 28.8518 80.7879 26.871C76.0059 24.8903 70.7438 24.372 65.6672 25.3818C60.5907 26.3916 55.9275 28.8841 52.2675 32.5441C48.6075 36.2041 46.115 40.8673 45.1052 45.9438C44.0954 51.0204 44.6136 56.2825 46.5944 61.0645C48.5752 65.8466 51.9296 69.9338 56.2333 72.8095C60.537 75.6852 65.5968 77.22 70.7729 77.22C77.7137 77.22 84.3703 74.4628 89.2782 69.5548C94.1862 64.6469 96.9434 57.9903 96.9434 51.0495Z" fill="url(#paint31_radial_3251_87333)"/>
<path style="mix-blend-mode:color-dodge" d="M99.9065 62.3025C99.9065 58.9798 98.9212 55.7317 97.0752 52.969C95.2292 50.2063 92.6055 48.053 89.5357 46.7815C86.466 45.51 83.0881 45.1773 79.8292 45.8255C76.5704 46.4737 73.5769 48.0737 71.2274 50.4232C68.8779 52.7727 67.2779 55.7662 66.6297 59.025C65.9815 62.2839 66.3142 65.6617 67.5857 68.7315C68.8572 71.8013 71.0105 74.4251 73.7732 76.271C76.5359 78.117 79.784 79.1023 83.1067 79.1023C87.5623 79.1023 91.8354 77.3323 94.986 74.1818C98.1365 71.0312 99.9065 66.7581 99.9065 62.3025Z" fill="url(#paint32_radial_3251_87333)"/>
<path style="mix-blend-mode:color-dodge" d="M86.8467 70.9299C86.8467 70.0099 86.5739 69.1106 86.0627 68.3456C85.5516 67.5807 84.8251 66.9845 83.9752 66.6324C83.1252 66.2803 82.1899 66.1882 81.2876 66.3677C80.3853 66.5472 79.5564 66.9902 78.9059 67.6407C78.2553 68.2913 77.8123 69.1201 77.6328 70.0224C77.4534 70.9248 77.5455 71.86 77.8975 72.71C78.2496 73.56 78.8458 74.2865 79.6108 74.7976C80.3757 75.3087 81.2751 75.5815 82.1951 75.5815C83.4287 75.5815 84.6119 75.0914 85.4842 74.2191C86.3566 73.3467 86.8467 72.1636 86.8467 70.9299Z" fill="url(#paint33_radial_3251_87333)"/>
<path style="mix-blend-mode:color-dodge" d="M78.759 54.9241C78.7607 53.6017 78.3702 52.3085 77.6369 51.208C76.9036 50.1076 75.8605 49.2493 74.6394 48.7417C73.4183 48.2341 72.0741 48.1 70.7768 48.3563C69.4794 48.6127 68.2873 49.248 67.351 50.1819C66.4148 51.1158 65.7765 52.3063 65.5168 53.603C65.2572 54.8996 65.3879 56.2441 65.8924 57.4665C66.397 58.6889 67.2526 59.7342 68.3512 60.4703C69.4498 61.2064 70.742 61.6001 72.0644 61.6018C72.9425 61.6029 73.8121 61.4311 74.6238 61.0961C75.4354 60.7611 76.1731 60.2695 76.7947 59.6494C77.4164 59.0294 77.9098 58.2929 78.2468 57.4821C78.5839 56.6713 78.7579 55.8021 78.759 54.9241Z" fill="url(#paint34_radial_3251_87333)"/>
<path style="mix-blend-mode:color-dodge" d="M90.0886 53.6666C90.0886 52.3442 89.6965 51.0515 88.9618 49.952C88.2271 48.8525 87.1829 47.9955 85.9612 47.4894C84.7394 46.9834 83.3951 46.851 82.0981 47.1089C80.8011 47.3669 79.6097 48.0037 78.6746 48.9388C77.7396 49.8739 77.1028 51.0652 76.8448 52.3622C76.5868 53.6592 76.7192 55.0036 77.2253 56.2253C77.7313 57.447 78.5883 58.4913 79.6878 59.226C80.7874 59.9606 82.0801 60.3528 83.4025 60.3528C85.1757 60.3528 86.8764 59.6483 88.1303 58.3945C89.3842 57.1406 90.0886 55.4399 90.0886 53.6666Z" fill="url(#paint35_radial_3251_87333)"/>
<path style="mix-blend-mode:color-dodge" d="M85.6646 52.7547C85.6646 51.6928 85.3497 50.6547 84.7598 49.7717C84.1698 48.8888 83.3312 48.2006 82.3502 47.7942C81.3691 47.3878 80.2895 47.2815 79.248 47.4887C78.2065 47.6958 77.2498 48.2072 76.4989 48.9581C75.748 49.709 75.2366 50.6657 75.0294 51.7072C74.8223 52.7487 74.9286 53.8283 75.335 54.8094C75.7414 55.7905 76.4295 56.629 77.3125 57.219C78.1955 57.809 79.2335 58.1239 80.2955 58.1239C81.0009 58.125 81.6995 57.9869 82.3515 57.7174C83.0034 57.448 83.5957 57.0526 84.0945 56.5538C84.5933 56.055 84.9888 55.4626 85.2582 54.8107C85.5276 54.1588 85.6658 53.4601 85.6646 52.7547Z" fill="url(#paint36_radial_3251_87333)"/>
</g>
<g style="mix-blend-mode:color-dodge" opacity="0.1">
<path d="M65.1338 51.4041C64.8299 52.8646 67.0079 54.553 70.0049 55.1778C73.0018 55.8025 75.6695 55.1271 75.9734 53.6666C76.2774 52.2061 74.0993 50.5177 71.1023 49.893C68.1054 49.2683 65.4377 49.9436 65.1338 51.4041Z" fill="white"/>
</g>
<g style="mix-blend-mode:color-dodge" opacity="0.1">
<path d="M76.8179 49.2762C76.2945 50.3399 77.8225 52.155 80.1948 53.3284C82.567 54.5019 84.9646 54.5947 85.488 53.5395C86.0114 52.4842 84.4833 50.6523 82.1111 49.4788C79.7389 48.3054 77.3413 48.2125 76.8179 49.2762Z" fill="white"/>
</g>
<g style="mix-blend-mode:color-dodge" opacity="0.1">
<path d="M82.4065 61.9139C79.9836 62.7582 78.8776 65.8817 79.9329 68.8871C80.9882 71.8925 83.7994 73.64 86.2138 72.7958C88.6283 71.9516 89.7342 68.8196 88.6874 65.8226C87.6406 62.8257 84.7871 61.0697 82.4065 61.9139Z" fill="white"/>
</g>
<path d="M66.2574 51.5389C66.0041 52.7208 67.7854 54.0715 70.2167 54.6034C72.6481 55.1352 74.8346 54.6034 75.0794 53.3793C75.3242 52.1552 73.5514 50.8466 71.12 50.3063C68.6887 49.7661 66.5022 50.357 66.2574 51.5389Z" fill="#A22721"/>
<path d="M77.6365 49.5128C77.2059 50.357 78.4807 51.885 80.4308 52.8896C82.3809 53.8943 84.3564 53.928 84.7869 53.05C85.2175 52.1721 83.9427 50.6862 81.9842 49.7154C80.0256 48.7446 78.0586 48.6686 77.6365 49.5128Z" fill="#A22721"/>
<path d="M82.7275 62.5985C80.6845 63.316 79.7474 65.9753 80.6339 68.5079C81.5203 71.0406 83.901 72.5179 85.9439 71.8004C87.9869 71.0828 88.9156 68.4235 88.0292 65.8909C87.1427 63.3582 84.762 61.8893 82.7275 62.5985Z" fill="#A22721"/>
<path style="mix-blend-mode:multiply" d="M66.2574 51.5389C66.0041 52.7208 67.7854 54.0715 70.2167 54.6034C72.6481 55.1352 74.8346 54.6034 75.0794 53.3793C75.3242 52.1552 73.5514 50.8466 71.12 50.3063C68.6887 49.7661 66.5022 50.357 66.2574 51.5389Z" fill="url(#paint37_linear_3251_87333)"/>
<path style="mix-blend-mode:multiply" d="M77.6365 49.5128C77.2059 50.357 78.4807 51.885 80.4308 52.8896C82.3809 53.8943 84.3564 53.928 84.7869 53.05C85.2175 52.1721 83.9427 50.6862 81.9842 49.7154C80.0256 48.7446 78.0586 48.6686 77.6365 49.5128Z" fill="url(#paint38_linear_3251_87333)"/>
<path style="mix-blend-mode:multiply" d="M82.7275 62.5985C80.6845 63.316 79.7474 65.9753 80.6339 68.5079C81.5203 71.0406 83.901 72.5179 85.9439 71.8004C87.9869 71.0828 88.9156 68.4235 88.0292 65.8909C87.1427 63.3582 84.762 61.8893 82.7275 62.5985Z" fill="url(#paint39_linear_3251_87333)"/>
<defs>
<radialGradient id="paint0_radial_3251_87333" cx="0" cy="0" r="1" gradientUnits="userSpaceOnUse" gradientTransform="translate(78.1825 94.9122) scale(77.3269 21.2475)">
<stop offset="0.06"/>
<stop offset="0.15" stop-color="#0F0F0F"/>
<stop offset="0.32" stop-color="#373737"/>
<stop offset="0.56" stop-color="#787878"/>
<stop offset="0.85" stop-color="#D0D0D0"/>
<stop offset="1" stop-color="white"/>
</radialGradient>
<radialGradient id="paint1_radial_3251_87333" cx="0" cy="0" r="1" gradientUnits="userSpaceOnUse" gradientTransform="translate(77.0419 94.1919) rotate(2.12049) scale(19.955 6.77265)">
<stop offset="0.06"/>
<stop offset="0.15" stop-color="#0F0F0F"/>
<stop offset="0.32" stop-color="#373737"/>
<stop offset="0.56" stop-color="#787878"/>
<stop offset="0.85" stop-color="#D0D0D0"/>
<stop offset="1" stop-color="white"/>
</radialGradient>
<radialGradient id="paint2_radial_3251_87333" cx="0" cy="0" r="1" gradientUnits="userSpaceOnUse" gradientTransform="translate(69.529 99.5606) scale(36.2751 7.15283)">
<stop offset="0.23" stop-color="#874A4A"/>
<stop offset="0.34" stop-color="#A07070"/>
<stop offset="0.49" stop-color="#C2A3A3"/>
<stop offset="0.64" stop-color="#DCCBCB"/>
<stop offset="0.78" stop-color="#EFE7E7"/>
<stop offset="0.89" stop-color="#FBF9F9"/>
<stop offset="0.98" stop-color="white"/>
</radialGradient>
<radialGradient id="paint3_radial_3251_87333" cx="0" cy="0" r="1" gradientUnits="userSpaceOnUse" gradientTransform="translate(94.7409 92.1171) scale(25.0238 3.50652)">
<stop offset="0.23" stop-color="#AB8878"/>
<stop offset="0.33" stop-color="#C0A69A"/>
<stop offset="0.46" stop-color="#D7C6BE"/>
<stop offset="0.59" stop-color="#E8DFDB"/>
<stop offset="0.72" stop-color="#F5F1EF"/>
<stop offset="0.85" stop-color="#FCFBFB"/>
<stop offset="0.98" stop-color="white"/>
</radialGradient>
<radialGradient id="paint4_radial_3251_87333" cx="0" cy="0" r="1" gradientUnits="userSpaceOnUse" gradientTransform="translate(94.536 94.0638) scale(22.9517 1.27509)">
<stop offset="0.23" stop-color="#AB8878"/>
<stop offset="0.33" stop-color="#C0A69A"/>
<stop offset="0.46" stop-color="#D7C6BE"/>
<stop offset="0.59" stop-color="#E8DFDB"/>
<stop offset="0.72" stop-color="#F5F1EF"/>
<stop offset="0.85" stop-color="#FCFBFB"/>
<stop offset="0.98" stop-color="white"/>
</radialGradient>
<radialGradient id="paint5_radial_3251_87333" cx="0" cy="0" r="1" gradientUnits="userSpaceOnUse" gradientTransform="translate(88.4352 36.5043) scale(32.7132 32.7132)">
<stop stop-color="#BFBFBF"/>
<stop offset="0.45" stop-color="#BDBDBD"/>
<stop offset="0.62" stop-color="#B6B6B6"/>
<stop offset="0.73" stop-color="#ABABAB"/>
<stop offset="0.83" stop-color="#9A9A9A"/>
<stop offset="0.91" stop-color="#848484"/>
<stop offset="0.98" stop-color="#696969"/>
<stop offset="1" stop-color="#5E5E5E"/>
</radialGradient>
<radialGradient id="paint6_radial_3251_87333" cx="0" cy="0" r="1" gradientUnits="userSpaceOnUse" gradientTransform="translate(79.5553 64.6855) rotate(86.9644) scale(39.0127 11.8201)">
<stop stop-color="#778196"/>
<stop offset="0.13" stop-color="#818A9D"/>
<stop offset="0.35" stop-color="#9BA2B1"/>
<stop offset="0.64" stop-color="#C5C9D2"/>
<stop offset="0.97" stop-color="white"/>
</radialGradient>
<radialGradient id="paint7_radial_3251_87333" cx="0" cy="0" r="1" gradientUnits="userSpaceOnUse" gradientTransform="translate(82.3672 34.7839) rotate(92.2026) scale(2.95878 3.52694)">
<stop stop-color="#7E899E"/>
<stop offset="0.14" stop-color="#8892A5"/>
<stop offset="0.37" stop-color="#A2A9B9"/>
<stop offset="0.66" stop-color="#CCD0D8"/>
<stop offset="0.97" stop-color="white"/>
</radialGradient>
<radialGradient id="paint8_radial_3251_87333" cx="0" cy="0" r="1" gradientUnits="userSpaceOnUse" gradientTransform="translate(82.771 26.8703) rotate(92.2026) scale(1.80119 2.14706)">
<stop stop-color="#A0AEC9"/>
<stop offset="0.17" stop-color="#AAB6CE"/>
<stop offset="0.46" stop-color="#C3CCDD"/>
<stop offset="0.83" stop-color="#EDF0F5"/>
<stop offset="0.97" stop-color="white"/>
</radialGradient>
<radialGradient id="paint9_radial_3251_87333" cx="0" cy="0" r="1" gradientUnits="userSpaceOnUse" gradientTransform="translate(88.4009 4.87121) scale(6.5342 6.5342)">
<stop stop-color="#2F3F0E"/>
<stop offset="0.1" stop-color="#1E2809"/>
<stop offset="0.21" stop-color="#111605"/>
<stop offset="0.35" stop-color="#070902"/>
<stop offset="0.53" stop-color="#020200"/>
<stop offset="0.92"/>
</radialGradient>
<radialGradient id="paint10_radial_3251_87333" cx="0" cy="0" r="1" gradientUnits="userSpaceOnUse" gradientTransform="translate(84.4754 2.36379) scale(3.65544 3.65543)">
<stop stop-color="#2F3F0E"/>
<stop offset="0.1" stop-color="#1E2809"/>
<stop offset="0.21" stop-color="#111605"/>
<stop offset="0.35" stop-color="#070902"/>
<stop offset="0.53" stop-color="#020200"/>
<stop offset="0.92"/>
</radialGradient>
<radialGradient id="paint11_radial_3251_87333" cx="0" cy="0" r="1" gradientUnits="userSpaceOnUse" gradientTransform="translate(93.8373 49.5601) scale(3.65543 15.6087)">
<stop stop-color="#2F3F0E"/>
<stop offset="0.1" stop-color="#1E2809"/>
<stop offset="0.21" stop-color="#111605"/>
<stop offset="0.35" stop-color="#070902"/>
<stop offset="0.53" stop-color="#020200"/>
<stop offset="0.92"/>
</radialGradient>
<radialGradient id="paint12_radial_3251_87333" cx="0" cy="0" r="1" gradientUnits="userSpaceOnUse" gradientTransform="translate(103.359 45.1903) scale(38.5467 38.5467)">
<stop stop-color="#BFBFBF"/>
<stop offset="0.45" stop-color="#BDBDBD"/>
<stop offset="0.62" stop-color="#B6B6B6"/>
<stop offset="0.73" stop-color="#ABABAB"/>
<stop offset="0.83" stop-color="#9A9A9A"/>
<stop offset="0.91" stop-color="#848484"/>
<stop offset="0.98" stop-color="#696969"/>
<stop offset="1" stop-color="#5E5E5E"/>
</radialGradient>
<radialGradient id="paint13_radial_3251_87333" cx="0" cy="0" r="1" gradientUnits="userSpaceOnUse" gradientTransform="translate(93.1544 78.4633) rotate(86.9644) scale(45.9761 13.9299)">
<stop stop-color="#778196"/>
<stop offset="0.13" stop-color="#818A9D"/>
<stop offset="0.35" stop-color="#9BA2B1"/>
<stop offset="0.64" stop-color="#C5C9D2"/>
<stop offset="0.97" stop-color="white"/>
</radialGradient>
<radialGradient id="paint14_radial_3251_87333" cx="0" cy="0" r="1" gradientUnits="userSpaceOnUse" gradientTransform="translate(96.2521 42.6622) rotate(92.2026) scale(3.48816 4.15797)">
<stop stop-color="#7E899E"/>
<stop offset="0.14" stop-color="#8892A5"/>
<stop offset="0.37" stop-color="#A2A9B9"/>
<stop offset="0.66" stop-color="#CCD0D8"/>
<stop offset="0.97" stop-color="white"/>
</radialGradient>
<radialGradient id="paint15_radial_3251_87333" cx="0" cy="0" r="1" gradientUnits="userSpaceOnUse" gradientTransform="translate(96.7285 33.3357) rotate(92.2026) scale(2.12408 2.53196)">
<stop stop-color="#A0AEC9"/>
<stop offset="0.17" stop-color="#AAB6CE"/>
<stop offset="0.46" stop-color="#C3CCDD"/>
<stop offset="0.83" stop-color="#EDF0F5"/>
<stop offset="0.97" stop-color="white"/>
</radialGradient>
<radialGradient id="paint16_radial_3251_87333" cx="0" cy="0" r="1" gradientUnits="userSpaceOnUse" gradientTransform="translate(103.325 7.91021) scale(7.69921 7.6992)">
<stop stop-color="#2F3F0E"/>
<stop offset="0.1" stop-color="#1E2809"/>
<stop offset="0.21" stop-color="#111605"/>
<stop offset="0.35" stop-color="#070902"/>
<stop offset="0.53" stop-color="#020200"/>
<stop offset="0.92"/>
</radialGradient>
<radialGradient id="paint17_radial_3251_87333" cx="0" cy="0" r="1" gradientUnits="userSpaceOnUse" gradientTransform="translate(98.6992 4.95554) scale(4.31392 4.31392)">
<stop stop-color="#2F3F0E"/>
<stop offset="0.1" stop-color="#1E2809"/>
<stop offset="0.21" stop-color="#111605"/>
<stop offset="0.35" stop-color="#070902"/>
<stop offset="0.53" stop-color="#020200"/>
<stop offset="0.92"/>
</radialGradient>
<radialGradient id="paint18_radial_3251_87333" cx="0" cy="0" r="1" gradientUnits="userSpaceOnUse" gradientTransform="translate(109.725 60.6625) scale(4.30548 18.3844)">
<stop stop-color="#2F3F0E"/>
<stop offset="0.1" stop-color="#1E2809"/>
<stop offset="0.21" stop-color="#111605"/>
<stop offset="0.35" stop-color="#070902"/>
<stop offset="0.53" stop-color="#020200"/>
<stop offset="0.92"/>
</radialGradient>
<radialGradient id="paint19_radial_3251_87333" cx="0" cy="0" r="1" gradientUnits="userSpaceOnUse" gradientTransform="translate(73.6864 45.1903) scale(38.5467 38.5467)">
<stop stop-color="#BFBFBF"/>
<stop offset="0.45" stop-color="#BDBDBD"/>
<stop offset="0.62" stop-color="#B6B6B6"/>
<stop offset="0.73" stop-color="#ABABAB"/>
<stop offset="0.83" stop-color="#9A9A9A"/>
<stop offset="0.91" stop-color="#848484"/>
<stop offset="0.98" stop-color="#696969"/>
<stop offset="1" stop-color="#5E5E5E"/>
</radialGradient>
<radialGradient id="paint20_radial_3251_87333" cx="0" cy="0" r="1" gradientUnits="userSpaceOnUse" gradientTransform="translate(63.3108 78.38) rotate(86.9644) scale(45.9761 13.9299)">
<stop stop-color="#778196"/>
<stop offset="0.13" stop-color="#818A9D"/>
<stop offset="0.35" stop-color="#9BA2B1"/>
<stop offset="0.64" stop-color="#C5C9D2"/>
<stop offset="0.97" stop-color="white"/>
</radialGradient>
<radialGradient id="paint21_radial_3251_87333" cx="0" cy="0" r="1" gradientUnits="userSpaceOnUse" gradientTransform="translate(66.5396 42.952) rotate(92.2026) scale(3.48816 4.15797)">
<stop stop-color="#7E899E"/>
<stop offset="0.14" stop-color="#8892A5"/>
<stop offset="0.37" stop-color="#A2A9B9"/>
<stop offset="0.66" stop-color="#CCD0D8"/>
<stop offset="0.97" stop-color="white"/>
</radialGradient>
<radialGradient id="paint22_radial_3251_87333" cx="0" cy="0" r="1" gradientUnits="userSpaceOnUse" gradientTransform="translate(67.0138 33.6277) rotate(92.2026) scale(2.12408 2.53196)">
<stop stop-color="#A0AEC9"/>
<stop offset="0.17" stop-color="#AAB6CE"/>
<stop offset="0.46" stop-color="#C3CCDD"/>
<stop offset="0.83" stop-color="#EDF0F5"/>
<stop offset="0.97" stop-color="white"/>
</radialGradient>
<radialGradient id="paint23_radial_3251_87333" cx="0" cy="0" r="1" gradientUnits="userSpaceOnUse" gradientTransform="translate(73.6428 7.91021) scale(7.69921)">
<stop stop-color="#2F3F0E"/>
<stop offset="0.1" stop-color="#1E2809"/>
<stop offset="0.21" stop-color="#111605"/>
<stop offset="0.35" stop-color="#070902"/>
<stop offset="0.53" stop-color="#020200"/>
<stop offset="0.92"/>
</radialGradient>
<radialGradient id="paint24_radial_3251_87333" cx="0" cy="0" r="1" gradientUnits="userSpaceOnUse" gradientTransform="translate(69.0164 4.95554) scale(4.30548 4.30548)">
<stop stop-color="#2F3F0E"/>
<stop offset="0.1" stop-color="#1E2809"/>
<stop offset="0.21" stop-color="#111605"/>
<stop offset="0.35" stop-color="#070902"/>
<stop offset="0.53" stop-color="#020200"/>
<stop offset="0.92"/>
</radialGradient>
<radialGradient id="paint25_radial_3251_87333" cx="0" cy="0" r="1" gradientUnits="userSpaceOnUse" gradientTransform="translate(80.0505 60.6625) scale(4.30548 18.3844)">
<stop stop-color="#2F3F0E"/>
<stop offset="0.1" stop-color="#1E2809"/>
<stop offset="0.21" stop-color="#111605"/>
<stop offset="0.35" stop-color="#070902"/>
<stop offset="0.53" stop-color="#020200"/>
<stop offset="0.92"/>
</radialGradient>
<radialGradient id="paint26_radial_3251_87333" cx="0" cy="0" r="1" gradientUnits="userSpaceOnUse" gradientTransform="translate(70.7897 73.7169) scale(28.4162 28.4162)">
<stop stop-color="#D6342B"/>
<stop offset="0.42" stop-color="#D4342B"/>
<stop offset="0.57" stop-color="#CD3229"/>
<stop offset="0.67" stop-color="#C22F27"/>
<stop offset="0.76" stop-color="#B12B24"/>
<stop offset="0.83" stop-color="#9B2520"/>
<stop offset="0.86" stop-color="#91231E"/>
<stop offset="0.93" stop-color="#9E2620"/>
<stop offset="1" stop-color="#A22721"/>
</radialGradient>
<radialGradient id="paint27_radial_3251_87333" cx="0" cy="0" r="1" gradientUnits="userSpaceOnUse" gradientTransform="translate(77.2901 65.1059) scale(39.1461 39.1461)">
<stop stop-color="#C9DEFF"/>
<stop offset="0.2" stop-color="#ACB1C3"/>
<stop offset="0.67" stop-color="#63422C"/>
<stop offset="0.81" stop-color="#4D2100"/>
<stop offset="0.84" stop-color="#4E2303"/>
<stop offset="0.87" stop-color="#532A0C"/>
<stop offset="0.89" stop-color="#5A361C"/>
<stop offset="0.91" stop-color="#654632"/>
<stop offset="0.93" stop-color="#735B4E"/>
<stop offset="0.95" stop-color="#847571"/>
<stop offset="0.97" stop-color="#98949B"/>
<stop offset="0.98" stop-color="#AFB7CA"/>
<stop offset="1" stop-color="#C9DEFF"/>
</radialGradient>
<radialGradient id="paint28_radial_3251_87333" cx="0" cy="0" r="1" gradientUnits="userSpaceOnUse" gradientTransform="translate(68.3668 102.794) scale(71.2768 28.5107)">
<stop stop-color="#967756"/>
<stop offset="0.02" stop-color="#997B5B"/>
<stop offset="0.27" stop-color="#BDAA95"/>
<stop offset="0.49" stop-color="#DACEC3"/>
<stop offset="0.69" stop-color="#EEE9E4"/>
<stop offset="0.86" stop-color="#FAF9F8"/>
<stop offset="0.97" stop-color="white"/>
</radialGradient>
<radialGradient id="paint29_radial_3251_87333" cx="0" cy="0" r="1" gradientUnits="userSpaceOnUse" gradientTransform="translate(45.8296 92.555) rotate(-31.7595) scale(18.2025 43.0444)">
<stop stop-color="#7779A8"/>
<stop offset="0.11" stop-color="#63658C"/>
<stop offset="0.32" stop-color="#40415A"/>
<stop offset="0.52" stop-color="#242533"/>
<stop offset="0.7" stop-color="#101117"/>
<stop offset="0.86" stop-color="#040406"/>
<stop offset="0.98"/>
</radialGradient>
<radialGradient id="paint30_radial_3251_87333" cx="0" cy="0" r="1" gradientUnits="userSpaceOnUse" gradientTransform="translate(80.304 66.6165) scale(8.99929 8.9993)">
<stop stop-color="#43A7AB"/>
<stop offset="0.06" stop-color="#388B8E"/>
<stop offset="0.14" stop-color="#296669"/>
<stop offset="0.24" stop-color="#1C4648"/>
<stop offset="0.34" stop-color="#122D2E"/>
<stop offset="0.45" stop-color="#0A1919"/>
<stop offset="0.58" stop-color="#040B0B"/>
<stop offset="0.73" stop-color="#010203"/>
<stop offset="0.98"/>
</radialGradient>
<radialGradient id="paint31_radial_3251_87333" cx="0" cy="0" r="1" gradientUnits="userSpaceOnUse" gradientTransform="translate(70.5871 51.0495) scale(40.7163 40.7163)">
<stop stop-color="#709421"/>
<stop offset="0.02" stop-color="#6C8F20"/>
<stop offset="0.16" stop-color="#4B6416"/>
<stop offset="0.32" stop-color="#30400E"/>
<stop offset="0.47" stop-color="#1B2408"/>
<stop offset="0.62" stop-color="#0C1004"/>
<stop offset="0.77" stop-color="#030401"/>
<stop offset="0.92"/>
</radialGradient>
<radialGradient id="paint32_radial_3251_87333" cx="0" cy="0" r="1" gradientUnits="userSpaceOnUse" gradientTransform="translate(82.9801 62.3025) scale(26.1537 26.1537)">
<stop stop-color="#709421"/>
<stop offset="0.02" stop-color="#6C8F20"/>
<stop offset="0.16" stop-color="#4B6416"/>
<stop offset="0.32" stop-color="#30400E"/>
<stop offset="0.47" stop-color="#1B2408"/>
<stop offset="0.62" stop-color="#0C1004"/>
<stop offset="0.77" stop-color="#030401"/>
<stop offset="0.92"/>
</radialGradient>
<radialGradient id="paint33_radial_3251_87333" cx="0" cy="0" r="1" gradientUnits="userSpaceOnUse" gradientTransform="translate(82.1951 70.9299) scale(4.64316 4.64316)">
<stop stop-color="#43A7AB"/>
<stop offset="0.06" stop-color="#388B8E"/>
<stop offset="0.14" stop-color="#296669"/>
<stop offset="0.24" stop-color="#1C4648"/>
<stop offset="0.34" stop-color="#122D2E"/>
<stop offset="0.45" stop-color="#0A1919"/>
<stop offset="0.58" stop-color="#040B0B"/>
<stop offset="0.73" stop-color="#010203"/>
<stop offset="0.98"/>
</radialGradient>
<radialGradient id="paint34_radial_3251_87333" cx="0" cy="0" r="1" gradientUnits="userSpaceOnUse" gradientTransform="translate(72.0729 54.9241) scale(6.68616 6.68616)">
<stop stop-color="#43A7AB"/>
<stop offset="0.06" stop-color="#388B8E"/>
<stop offset="0.14" stop-color="#296669"/>
<stop offset="0.24" stop-color="#1C4648"/>
<stop offset="0.34" stop-color="#122D2E"/>
<stop offset="0.45" stop-color="#0A1919"/>
<stop offset="0.58" stop-color="#040B0B"/>
<stop offset="0.73" stop-color="#010203"/>
<stop offset="0.98"/>
</radialGradient>
<radialGradient id="paint35_radial_3251_87333" cx="0" cy="0" r="1" gradientUnits="userSpaceOnUse" gradientTransform="translate(83.4025 53.6666) scale(6.68616 6.68615)">
<stop stop-color="#43A7AB"/>
<stop offset="0.06" stop-color="#388B8E"/>
<stop offset="0.14" stop-color="#296669"/>
<stop offset="0.24" stop-color="#1C4648"/>
<stop offset="0.34" stop-color="#122D2E"/>
<stop offset="0.45" stop-color="#0A1919"/>
<stop offset="0.58" stop-color="#040B0B"/>
<stop offset="0.73" stop-color="#010203"/>
<stop offset="0.98"/>
</radialGradient>
<radialGradient id="paint36_radial_3251_87333" cx="0" cy="0" r="1" gradientUnits="userSpaceOnUse" gradientTransform="translate(80.3039 52.7547) scale(5.36919 5.36919)">
<stop stop-color="#43A7AB"/>
<stop offset="0.06" stop-color="#388B8E"/>
<stop offset="0.14" stop-color="#296669"/>
<stop offset="0.24" stop-color="#1C4648"/>
<stop offset="0.34" stop-color="#122D2E"/>
<stop offset="0.45" stop-color="#0A1919"/>
<stop offset="0.58" stop-color="#040B0B"/>
<stop offset="0.73" stop-color="#010203"/>
<stop offset="0.98"/>
</radialGradient>
<linearGradient id="paint37_linear_3251_87333" x1="66.2321" y1="52.4591" x2="75.1047" y2="52.4591" gradientUnits="userSpaceOnUse">
<stop stop-color="#C9DEFF"/>
<stop offset="0.11" stop-color="#B2BBD0"/>
<stop offset="0.26" stop-color="#948D92"/>
<stop offset="0.41" stop-color="#7B665E"/>
<stop offset="0.54" stop-color="#674835"/>
<stop offset="0.67" stop-color="#593318"/>
<stop offset="0.78" stop-color="#502606"/>
<stop offset="0.85" stop-color="#4D2100"/>
</linearGradient>
<linearGradient id="paint38_linear_3251_87333" x1="77.552" y1="51.3025" x2="84.8714" y2="51.3025" gradientUnits="userSpaceOnUse">
<stop stop-color="#C9DEFF"/>
<stop offset="0.11" stop-color="#B2BBD0"/>
<stop offset="0.26" stop-color="#948D92"/>
<stop offset="0.41" stop-color="#7B665E"/>
<stop offset="0.54" stop-color="#674835"/>
<stop offset="0.67" stop-color="#593318"/>
<stop offset="0.78" stop-color="#502606"/>
<stop offset="0.85" stop-color="#4D2100"/>
</linearGradient>
<linearGradient id="paint39_linear_3251_87333" x1="80.3046" y1="67.191" x2="88.3668" y2="67.191" gradientUnits="userSpaceOnUse">
<stop stop-color="#C9DEFF"/>
<stop offset="0.11" stop-color="#B2BBD0"/>
<stop offset="0.26" stop-color="#948D92"/>
<stop offset="0.41" stop-color="#7B665E"/>
<stop offset="0.54" stop-color="#674835"/>
<stop offset="0.67" stop-color="#593318"/>
<stop offset="0.78" stop-color="#502606"/>
<stop offset="0.85" stop-color="#4D2100"/>
</linearGradient>
</defs>
</svg>
