<svg width="18" height="18" viewBox="0 0 18 18" fill="none" xmlns="http://www.w3.org/2000/svg">
<g clip-path="url(#clip0_2797_100096)">
<path opacity="0.995" fill-rule="evenodd" clip-rule="evenodd" d="M8.20898 -0.0175781C8.46678 -0.0175781 8.72462 -0.0175781 8.98242 -0.0175781C8.98242 1.16602 8.98242 2.34961 8.98242 3.5332C6.92237 3.60176 5.35208 4.50411 4.27148 6.24023C3.23181 5.66933 2.20055 5.08342 1.17773 4.48242C2.77585 1.83171 5.11959 0.331708 8.20898 -0.0175781Z" fill="#FF4B25"/>
<path fill-rule="evenodd" clip-rule="evenodd" d="M8.98242 -0.0175781C9.24022 -0.0175781 9.49806 -0.0175781 9.75586 -0.0175781C11.6427 0.175944 13.3185 0.873211 14.7832 2.07422C15.1044 2.31107 15.1805 2.6099 15.0117 2.9707C14.3965 3.58594 13.7812 4.20117 13.166 4.81641C12.972 4.91607 12.7728 4.92782 12.5684 4.85156C11.5342 3.98524 10.3389 3.54579 8.98242 3.5332C8.98242 2.34961 8.98242 1.16602 8.98242 -0.0175781Z" fill="#D93F21"/>
<path opacity="0.994" fill-rule="evenodd" clip-rule="evenodd" d="M1.17773 4.48242C2.20055 5.08342 3.23181 5.66933 4.27148 6.24023C3.37328 7.88801 3.29711 9.57551 4.04297 11.3027C4.11307 11.4484 4.18925 11.589 4.27148 11.7246C3.2412 12.3101 2.20995 12.8961 1.17773 13.4824C0.511404 12.3389 0.112965 11.1084 -0.0175781 9.79102C-0.0175781 9.25197 -0.0175781 8.71288 -0.0175781 8.17383C0.112965 6.85642 0.511404 5.62595 1.17773 4.48242Z" fill="#FED400"/>
<path opacity="0.992" fill-rule="evenodd" clip-rule="evenodd" d="M17.9824 8.34962C17.9824 8.85352 17.9824 9.35745 17.9824 9.86134C17.6203 12.9196 16.1203 15.2282 13.4824 16.7871C12.8969 15.7568 12.311 14.7256 11.7246 13.6934C12.8155 13.0478 13.589 12.1337 14.0449 10.9512C12.6269 10.9571 11.2089 10.9512 9.79102 10.9336C9.60083 10.8723 9.46604 10.7493 9.38673 10.5645C9.36328 9.6387 9.36328 8.71289 9.38673 7.78712C9.44927 7.64256 9.54887 7.53126 9.68556 7.45314C12.2734 7.39489 14.8632 7.38314 17.4551 7.41798C17.6067 7.4639 17.7298 7.55179 17.8242 7.68166C17.8999 7.90314 17.9527 8.12579 17.9824 8.34962Z" fill="#167DE6"/>
<path opacity="0.995" fill-rule="evenodd" clip-rule="evenodd" d="M4.27148 11.7246C5.35208 13.4607 6.92237 14.3631 8.98242 14.4316C8.98242 15.6152 8.98242 16.7988 8.98242 17.9824C8.72462 17.9824 8.46678 17.9824 8.20898 17.9824C5.11959 17.6331 2.77585 16.1331 1.17773 13.4824C2.20995 12.8961 3.2412 12.3101 4.27148 11.7246Z" fill="#12B346"/>
<path fill-rule="evenodd" clip-rule="evenodd" d="M11.7246 13.6934C12.311 14.7256 12.8969 15.7568 13.4824 16.7871C12.3286 17.4608 11.0864 17.8592 9.75586 17.9824C9.49806 17.9824 9.24022 17.9824 8.98242 17.9824C8.98242 16.7988 8.98242 15.6152 8.98242 14.4316C9.96638 14.4377 10.8804 14.1916 11.7246 13.6934Z" fill="#0F993E"/>
</g>
<defs>
<clipPath id="clip0_2797_100096">
<rect width="18" height="18" fill="white"/>
</clipPath>
</defs>
</svg>
