<svg width="15" height="15" viewBox="0 0 15 15" fill="none" xmlns="http://www.w3.org/2000/svg">
<g clip-path="url(#clip0_116_3897)">
<path opacity="0.988" fill-rule="evenodd" clip-rule="evenodd" d="M6.89941 -0.0146484C7.09474 -0.0146484 7.29003 -0.0146484 7.48535 -0.0146484C7.47565 0.791165 7.48541 1.59195 7.51465 2.3877C7.51465 2.40723 7.50489 2.41699 7.48535 2.41699C6.60533 1.76235 5.72643 1.10805 4.84863 0.454102C5.51625 0.213888 6.19986 0.0576381 6.89941 -0.0146484Z" fill="#57555C"/>
<path opacity="0.999" fill-rule="evenodd" clip-rule="evenodd" d="M7.48531 -0.0146484C7.70015 -0.0146484 7.91501 -0.0146484 8.12985 -0.0146484C8.81091 0.0579214 9.47495 0.214171 10.122 0.454102C9.26967 1.11972 8.40055 1.76425 7.51461 2.3877C7.48537 1.59195 7.47562 0.791165 7.48531 -0.0146484Z" fill="#3C3A41"/>
<path opacity="0.997" fill-rule="evenodd" clip-rule="evenodd" d="M4.84863 0.454102C5.72643 1.10805 6.60533 1.76235 7.48535 2.41699C7.48535 3.09082 7.48535 3.76465 7.48535 4.43848C6.53631 5.1179 5.59881 5.81124 4.67285 6.51855C4.0043 6.30548 3.34022 6.08086 2.68066 5.84473C2.36544 4.80149 2.03341 3.76632 1.68457 2.73926C2.533 1.69603 3.5877 0.934312 4.84863 0.454102Z" fill="#E0E3FA"/>
<path opacity="0.997" fill-rule="evenodd" clip-rule="evenodd" d="M10.1221 0.454102C11.4247 0.963331 12.5087 1.76411 13.374 2.85645C13.0174 3.88726 12.6658 4.9224 12.3193 5.96191C11.6765 6.16315 11.032 6.35848 10.3857 6.54785C9.4287 5.85448 8.47169 5.16114 7.51465 4.46777C7.51465 4.44823 7.50489 4.43848 7.48535 4.43848C7.48535 3.76465 7.48535 3.09082 7.48535 2.41699C7.50489 2.41699 7.51465 2.40723 7.51465 2.3877C8.40059 1.76425 9.26971 1.11972 10.1221 0.454102Z" fill="#C4C8F6"/>
<path opacity="0.987" fill-rule="evenodd" clip-rule="evenodd" d="M1.68457 2.73926C2.03341 3.76632 2.36544 4.80149 2.68066 5.84473C1.78223 6.45996 0.88379 7.0752 -0.0146484 7.69043C-0.0146484 7.40722 -0.0146484 7.12403 -0.0146484 6.84082C0.133334 5.29553 0.699741 3.92833 1.68457 2.73926Z" fill="#57555C"/>
<path opacity="0.987" fill-rule="evenodd" clip-rule="evenodd" d="M13.374 2.85645C14.2991 4.02357 14.8362 5.35172 14.9854 6.84082C14.9854 7.18263 14.9854 7.5244 14.9854 7.86621C14.089 7.24354 13.2004 6.60879 12.3193 5.96191C12.6658 4.9224 13.0174 3.88726 13.374 2.85645Z" fill="#3C3A41"/>
<path fill-rule="evenodd" clip-rule="evenodd" d="M7.48535 4.43848C7.50489 4.43848 7.51465 4.44823 7.51465 4.46777C7.48538 6.25969 7.47563 8.05658 7.48535 9.8584C6.90917 9.8584 6.33302 9.8584 5.75684 9.8584C5.38465 8.75153 5.02333 7.63825 4.67285 6.51855C5.59881 5.81124 6.53631 5.1179 7.48535 4.43848Z" fill="#57555C"/>
<path fill-rule="evenodd" clip-rule="evenodd" d="M7.51463 4.46777C8.47167 5.16114 9.42868 5.85448 10.3857 6.54785C9.99736 7.63966 9.61161 8.73343 9.2285 9.8291C9.21727 9.84539 9.20263 9.85515 9.18455 9.8584C8.61815 9.8584 8.05173 9.8584 7.48533 9.8584C7.4756 8.05658 7.48536 6.25969 7.51463 4.46777Z" fill="#3C3A41"/>
<path opacity="0.997" fill-rule="evenodd" clip-rule="evenodd" d="M2.68066 5.84473C3.34022 6.08086 4.0043 6.30548 4.67285 6.51855C5.02333 7.63825 5.38465 8.75153 5.75684 9.8584C5.33692 10.4443 4.91698 11.0303 4.49707 11.6162C3.40333 11.6162 2.30957 11.6162 1.21582 11.6162C0.513765 10.5354 0.103609 9.35379 -0.0146484 8.07129C-0.0146484 7.94435 -0.0146484 7.81737 -0.0146484 7.69043C0.88379 7.0752 1.78223 6.45996 2.68066 5.84473Z" fill="#C4C8F6"/>
<path opacity="0.997" fill-rule="evenodd" clip-rule="evenodd" d="M12.3193 5.96191C13.2004 6.60879 14.089 7.24354 14.9854 7.86621C14.9854 7.94435 14.9854 8.02245 14.9854 8.10059C14.879 9.3866 14.4591 10.5585 13.7256 11.6162C12.6318 11.6162 11.5381 11.6162 10.4443 11.6162C10.0248 11.0314 9.60486 10.4454 9.18457 9.8584C9.20265 9.85515 9.21729 9.84539 9.22852 9.8291C9.61163 8.73343 9.99738 7.63966 10.3857 6.54785C11.032 6.35848 11.6765 6.16315 12.3193 5.96191Z" fill="#A7AEF0"/>
<path opacity="0.998" fill-rule="evenodd" clip-rule="evenodd" d="M5.75684 9.8584C6.33302 9.8584 6.90917 9.8584 7.48535 9.8584C7.48535 11.5674 7.48535 13.2764 7.48535 14.9854C7.27052 14.9854 7.05565 14.9854 6.84082 14.9854C6.37878 14.9327 5.91979 14.8448 5.46387 14.7217C5.16527 13.6794 4.84301 12.6442 4.49707 11.6162C4.91698 11.0303 5.33692 10.4443 5.75684 9.8584Z" fill="#E0E3FA"/>
<path fill-rule="evenodd" clip-rule="evenodd" d="M7.48535 9.8584C8.05175 9.8584 8.61817 9.8584 9.18457 9.8584C9.60486 10.4454 10.0248 11.0314 10.4443 11.6162C10.0984 12.6442 9.77613 13.6794 9.47754 14.7217C9.01072 14.8405 8.54197 14.9284 8.07129 14.9854C7.87597 14.9854 7.68067 14.9854 7.48535 14.9854C7.48535 13.2764 7.48535 11.5674 7.48535 9.8584Z" fill="#C4C8F6"/>
<path opacity="0.986" fill-rule="evenodd" clip-rule="evenodd" d="M1.21582 11.6162C2.30957 11.6162 3.40333 11.6162 4.49707 11.6162C4.84301 12.6442 5.16527 13.6794 5.46387 14.7217C3.6723 14.1929 2.25628 13.1577 1.21582 11.6162Z" fill="#57555C"/>
<path opacity="0.985" fill-rule="evenodd" clip-rule="evenodd" d="M10.4443 11.6162C11.5381 11.6162 12.6318 11.6162 13.7256 11.6162C12.6859 13.1575 11.2698 14.1926 9.47754 14.7217C9.77613 13.6794 10.0984 12.6442 10.4443 11.6162Z" fill="#3C3A41"/>
</g>
<defs>
<clipPath id="clip0_116_3897">
<rect width="15" height="15" fill="white"/>
</clipPath>
</defs>
</svg>
