<svg width="15" height="15" viewBox="0 0 15 15" fill="none" xmlns="http://www.w3.org/2000/svg">
<g clip-path="url(#clip0_116_3912)">
<path opacity="0.997" fill-rule="evenodd" clip-rule="evenodd" d="M6.84082 -0.0146484C6.90917 -0.0146484 6.97755 -0.0146484 7.0459 -0.0146484C7.0459 2.33887 7.0459 4.69239 7.0459 7.0459C6.40137 7.0459 5.75684 7.0459 5.11231 7.0459C4.97801 4.95158 4.1577 3.18401 2.65137 1.74316C3.86139 0.724254 5.25785 0.138318 6.84082 -0.0146484Z" fill="#FE9833"/>
<path opacity="0.999" fill-rule="evenodd" clip-rule="evenodd" d="M7.0459 -0.0146484C7.19238 -0.0146484 7.33887 -0.0146484 7.48535 -0.0146484C7.48535 4.98536 7.48535 9.98534 7.48535 14.9854C7.33887 14.9854 7.19238 14.9854 7.0459 14.9854C7.0459 12.6318 7.0459 10.2783 7.0459 7.92481C6.40137 7.92481 5.75684 7.92481 5.11231 7.92481C4.96638 10.0162 4.14607 11.7838 2.65137 13.2275C2.418 13.043 2.20316 12.838 2.00684 12.6123C3.02605 11.6828 3.70477 10.5402 4.04297 9.18457C4.13508 8.77843 4.19856 8.36827 4.2334 7.9541C2.81752 7.92481 1.4015 7.91505 -0.0146484 7.92481C-0.0146484 7.63184 -0.0146484 7.33887 -0.0146484 7.0459C1.40137 7.0459 2.81738 7.0459 4.2334 7.0459C4.10719 5.3586 3.47731 3.89376 2.34375 2.65137C2.24328 2.53598 2.13097 2.43832 2.00684 2.3584C2.20316 2.13275 2.418 1.92768 2.65137 1.74316C4.1577 3.18401 4.97801 4.95158 5.11231 7.0459C5.75684 7.0459 6.40137 7.0459 7.0459 7.0459C7.0459 4.69239 7.0459 2.33887 7.0459 -0.0146484Z" fill="#6D4D8B"/>
<path opacity="0.999" fill-rule="evenodd" clip-rule="evenodd" d="M7.48535 -0.0146484C7.63184 -0.0146484 7.77832 -0.0146484 7.9248 -0.0146484C7.9248 2.33887 7.9248 4.69239 7.9248 7.0459C8.56934 7.0459 9.21387 7.0459 9.8584 7.0459C9.99258 4.95182 10.8129 3.18425 12.3193 1.74316C12.5527 1.92768 12.7675 2.13275 12.9639 2.3584C11.7969 3.43184 11.0791 4.75995 10.8105 6.34277C10.7861 6.57735 10.7617 6.81173 10.7373 7.0459C12.1533 7.0459 13.5693 7.0459 14.9854 7.0459C14.9854 7.33887 14.9854 7.63184 14.9854 7.92481C13.5692 7.91505 12.1532 7.92481 10.7373 7.9541C10.8872 9.79647 11.6196 11.359 12.9346 12.6416C12.748 12.8575 12.5429 13.0528 12.3193 13.2275C10.8131 11.7869 9.99278 10.0193 9.8584 7.92481C9.21387 7.92481 8.56934 7.92481 7.9248 7.92481C7.9248 10.2783 7.9248 12.6318 7.9248 14.9854C7.77832 14.9854 7.63184 14.9854 7.48535 14.9854C7.48535 9.98534 7.48535 4.98536 7.48535 -0.0146484Z" fill="#5E3372"/>
<path opacity="0.998" fill-rule="evenodd" clip-rule="evenodd" d="M7.9248 -0.0146484C7.99315 -0.0146484 8.06153 -0.0146484 8.12988 -0.0146484C9.71279 0.138306 11.1093 0.724245 12.3193 1.74316C10.8129 3.18425 9.99258 4.95182 9.8584 7.0459C9.21387 7.0459 8.56934 7.0459 7.9248 7.0459C7.9248 4.69239 7.9248 2.33887 7.9248 -0.0146484Z" fill="#FE7633"/>
<path opacity="0.995" fill-rule="evenodd" clip-rule="evenodd" d="M2.00684 2.3584C2.13097 2.43832 2.24328 2.53598 2.34375 2.65137C3.47731 3.89376 4.10719 5.3586 4.2334 7.0459C2.81738 7.0459 1.40137 7.0459 -0.0146484 7.0459C-0.0146484 6.97755 -0.0146484 6.90917 -0.0146484 6.84082C0.145813 5.21159 0.756164 3.77605 1.81641 2.53418C1.87608 2.46955 1.93955 2.41096 2.00684 2.3584Z" fill="#FE9833"/>
<path opacity="0.997" fill-rule="evenodd" clip-rule="evenodd" d="M12.9639 2.3584C13.8107 3.25046 14.4015 4.29539 14.7363 5.49316C14.8484 5.94123 14.9314 6.39047 14.9854 6.84082C14.9854 6.90917 14.9854 6.97755 14.9854 7.0459C13.5693 7.0459 12.1533 7.0459 10.7373 7.0459C10.7617 6.81173 10.7861 6.57735 10.8105 6.34277C11.0791 4.75995 11.7969 3.43184 12.9639 2.3584Z" fill="#FE7633"/>
<path opacity="0.995" fill-rule="evenodd" clip-rule="evenodd" d="M-0.0146484 7.92481C1.4015 7.91505 2.81752 7.92481 4.2334 7.95411C4.19856 8.36827 4.13508 8.77843 4.04297 9.18457C3.70477 10.5402 3.02605 11.6828 2.00684 12.6123C1.16002 11.7202 0.5692 10.6753 0.234375 9.47754C0.122334 9.02948 0.0393255 8.58024 -0.0146484 8.12989C-0.0146484 8.06154 -0.0146484 7.99316 -0.0146484 7.92481Z" fill="#FE9833"/>
<path opacity="0.997" fill-rule="evenodd" clip-rule="evenodd" d="M7.0459 14.9854C6.97755 14.9854 6.90917 14.9854 6.84082 14.9854C5.25785 14.8324 3.86139 14.2465 2.65137 13.2275C4.14606 11.7838 4.96638 10.0162 5.11231 7.9248C5.75684 7.9248 6.40137 7.9248 7.0459 7.9248C7.0459 10.2783 7.0459 12.6318 7.0459 14.9854Z" fill="#FE9833"/>
<path opacity="0.998" fill-rule="evenodd" clip-rule="evenodd" d="M12.3193 13.2275C11.1093 14.2465 9.71285 14.8324 8.12988 14.9854C8.06153 14.9854 7.99315 14.9854 7.9248 14.9854C7.9248 12.6318 7.9248 10.2783 7.9248 7.9248C8.56934 7.9248 9.21387 7.9248 9.8584 7.9248C9.99278 10.0193 10.8131 11.7869 12.3193 13.2275Z" fill="#FE7633"/>
<path opacity="0.997" fill-rule="evenodd" clip-rule="evenodd" d="M14.9854 7.92481C14.9854 7.99316 14.9854 8.06154 14.9854 8.12989C14.8249 9.75911 14.2146 11.1947 13.1543 12.4365C13.0849 12.5109 13.0116 12.5793 12.9346 12.6416C11.6196 11.359 10.8872 9.79647 10.7373 7.95411C12.1532 7.92481 13.5692 7.91505 14.9854 7.92481Z" fill="#FE7633"/>
</g>
<defs>
<clipPath id="clip0_116_3912">
<rect width="15" height="15" fill="white"/>
</clipPath>
</defs>
</svg>
