<svg width="15" height="15" viewBox="0 0 15 15" fill="none" xmlns="http://www.w3.org/2000/svg">
<g clip-path="url(#clip0_116_3922)">
<path opacity="0.998" fill-rule="evenodd" clip-rule="evenodd" d="M6.84082 -0.0146484C7.27052 -0.0146484 7.70019 -0.0146484 8.12988 -0.0146484C9.1425 0.0950174 10.0995 0.387987 11.001 0.864258C10.445 1.40075 9.89807 1.94763 9.36035 2.50488C9.55635 2.7354 9.77118 2.93561 10.0049 3.10547C10.5967 2.51851 11.1827 1.92769 11.7627 1.33301C12.0146 1.49714 12.249 1.68269 12.4658 1.88965C8.93065 5.40527 5.40527 8.93065 1.88965 12.4658C1.68269 12.249 1.49714 12.0146 1.33301 11.7627C1.92769 11.1827 2.51851 10.5967 3.10547 10.0049C2.93561 9.77118 2.7354 9.55635 2.50488 9.36035C1.94763 9.89807 1.40075 10.445 0.864258 11.001C0.387987 10.0995 0.0950174 9.1425 -0.0146484 8.12988C-0.0146484 7.70019 -0.0146484 7.27052 -0.0146484 6.84082C0.403002 3.84237 1.9948 1.72812 4.76074 0.498047C5.43633 0.238808 6.12967 0.067909 6.84082 -0.0146484Z" fill="#FF6325"/>
<path opacity="0.996" fill-rule="evenodd" clip-rule="evenodd" d="M11.001 0.864258C11.2755 0.991538 11.5295 1.14779 11.7627 1.33301C11.1827 1.92769 10.5967 2.51851 10.0049 3.10547C9.77118 2.93561 9.55635 2.7354 9.36035 2.50488C9.89807 1.94763 10.445 1.40075 11.001 0.864258Z" fill="#FFD82C"/>
<path opacity="0.999" fill-rule="evenodd" clip-rule="evenodd" d="M12.4658 1.88965C12.574 1.98814 12.6814 2.08579 12.7881 2.18262C9.28324 5.71189 5.76272 9.22752 2.22656 12.7295C2.21242 12.7573 2.20753 12.7866 2.21191 12.8174C2.10532 12.701 1.9979 12.5838 1.88965 12.4658C5.40527 8.93065 8.93065 5.40527 12.4658 1.88965Z" fill="#FFD72C"/>
<path opacity="0.998" fill-rule="evenodd" clip-rule="evenodd" d="M12.7882 2.18262C12.885 2.28928 12.9826 2.3967 13.0811 2.50488C9.56552 6.04005 6.04014 9.56543 2.50497 13.0811C2.40656 12.9923 2.3089 12.9044 2.212 12.8174C2.20762 12.7866 2.21251 12.7573 2.22665 12.7295C5.76281 9.22752 9.28333 5.71189 12.7882 2.18262Z" fill="#FDBD00"/>
<path opacity="0.997" fill-rule="evenodd" clip-rule="evenodd" d="M13.0811 2.50488C13.288 2.72169 13.4736 2.95605 13.6377 3.20801C13.043 3.78803 12.4522 4.37396 11.8652 4.96582C12.0351 5.19952 12.2353 5.41436 12.4658 5.61035C13.0231 5.07264 13.57 4.52575 14.1064 3.96973C14.5827 4.87116 14.8757 5.8282 14.9854 6.84082C14.9854 7.27052 14.9854 7.70019 14.9854 8.12988C14.6102 10.8629 13.2137 12.8893 10.7959 14.209C9.94811 14.6203 9.05944 14.8791 8.12988 14.9854C7.70997 14.9854 7.29003 14.9854 6.87012 14.9854C5.85396 14.8875 4.89691 14.5946 3.99902 14.1064C4.53551 13.5602 5.07261 13.0133 5.61035 12.4658C5.41436 12.2353 5.19952 12.0351 4.96582 11.8652C4.37396 12.4522 3.78803 13.043 3.20801 13.6377C2.95605 13.4736 2.72169 13.288 2.50488 13.0811C6.04005 9.56543 9.56543 6.04005 13.0811 2.50488Z" fill="#FF3837"/>
<path fill-rule="evenodd" clip-rule="evenodd" d="M8.68652 3.14941C8.71734 3.14505 8.74664 3.14991 8.77441 3.16406C8.97103 3.35086 9.15659 3.54618 9.33105 3.75C9.0438 4.07144 8.74104 4.37906 8.42285 4.67285C8.20802 4.47753 8.00294 4.27245 7.80762 4.05762C8.1012 3.75428 8.39417 3.45155 8.68652 3.14941Z" fill="#FFD72C"/>
<path opacity="0.994" fill-rule="evenodd" clip-rule="evenodd" d="M13.6377 3.20801C13.8229 3.44124 13.9792 3.69516 14.1064 3.96973C13.57 4.52575 13.0231 5.07264 12.4658 5.61035C12.2353 5.41436 12.0351 5.19952 11.8652 4.96582C12.4522 4.37397 13.043 3.78803 13.6377 3.20801Z" fill="#FDBD00"/>
<path fill-rule="evenodd" clip-rule="evenodd" d="M7.13379 4.70215C7.36594 4.8854 7.5808 5.09048 7.77832 5.31738C7.48535 5.62989 7.18263 5.93262 6.87012 6.22559C6.65528 6.03026 6.45021 5.82519 6.25488 5.61035C6.54847 5.30701 6.84144 5.00429 7.13379 4.70215Z" fill="#FFD82C"/>
<path fill-rule="evenodd" clip-rule="evenodd" d="M11.1768 5.63965C11.2076 5.63528 11.2369 5.64015 11.2646 5.6543C11.4613 5.84109 11.6468 6.03642 11.8213 6.24023C11.534 6.56168 11.2313 6.8693 10.9131 7.16308C10.6983 6.96776 10.4932 6.76268 10.2979 6.54785C10.5914 6.24451 10.8844 5.94179 11.1768 5.63965Z" fill="#FDBC01"/>
<path fill-rule="evenodd" clip-rule="evenodd" d="M5.58105 6.25488C5.8132 6.43813 6.02807 6.64321 6.22559 6.87012C5.93262 7.18263 5.62989 7.48535 5.31738 7.77832C5.10255 7.583 4.89747 7.37792 4.70215 7.16309C4.99573 6.85975 5.2887 6.55702 5.58105 6.25488Z" fill="#FFD82C"/>
<path fill-rule="evenodd" clip-rule="evenodd" d="M9.62402 7.19238C9.85617 7.37563 10.071 7.58071 10.2686 7.80762C9.97559 8.12013 9.67286 8.42285 9.36035 8.71582C9.14552 8.5205 8.94044 8.31542 8.74512 8.10059C9.0387 7.79725 9.33167 7.49452 9.62402 7.19238Z" fill="#FDBD00"/>
<path fill-rule="evenodd" clip-rule="evenodd" d="M4.02832 7.80762C4.26047 7.99087 4.47533 8.19595 4.67285 8.42285C4.37906 8.74104 4.07145 9.0438 3.75 9.33105C3.53027 9.15038 3.33009 8.9502 3.14941 8.73047C3.43729 8.41816 3.73025 8.11055 4.02832 7.80762Z" fill="#FFD72C"/>
<path fill-rule="evenodd" clip-rule="evenodd" d="M8.07129 8.74512C8.30344 8.92837 8.5183 9.13345 8.71582 9.36035C8.42285 9.67286 8.12013 9.97559 7.80762 10.2686C7.59278 10.0732 7.38771 9.86815 7.19238 9.65332C7.48597 9.34998 7.77894 9.04726 8.07129 8.74512Z" fill="#FDBD00"/>
<path opacity="0.997" fill-rule="evenodd" clip-rule="evenodd" d="M1.33301 11.7627C1.14779 11.5295 0.991538 11.2755 0.864258 11.001C1.40075 10.445 1.94763 9.89807 2.50488 9.36035C2.7354 9.55635 2.93561 9.77118 3.10547 10.0049C2.51851 10.5967 1.92769 11.1827 1.33301 11.7627Z" fill="#FFD82C"/>
<path fill-rule="evenodd" clip-rule="evenodd" d="M6.51855 10.2979C6.7507 10.4811 6.96557 10.6862 7.16309 10.9131C6.8693 11.2313 6.56168 11.534 6.24023 11.8213C6.02177 11.6321 5.8118 11.432 5.61035 11.2207C5.91899 10.917 6.22175 10.6093 6.51855 10.2979Z" fill="#FDBC01"/>
<path opacity="0.994" fill-rule="evenodd" clip-rule="evenodd" d="M3.99902 14.1064C3.71095 13.987 3.44728 13.8307 3.20801 13.6377C3.78803 13.043 4.37397 12.4522 4.96582 11.8652C5.19952 12.0351 5.41436 12.2353 5.61035 12.4658C5.07261 13.0133 4.53551 13.5602 3.99902 14.1064Z" fill="#FDBD00"/>
</g>
<defs>
<clipPath id="clip0_116_3922">
<rect width="15" height="15" fill="white"/>
</clipPath>
</defs>
</svg>
