<svg width="15" height="15" viewBox="0 0 15 15" fill="none" xmlns="http://www.w3.org/2000/svg">
<g clip-path="url(#clip0_116_3902)">
<path opacity="0.992" fill-rule="evenodd" clip-rule="evenodd" d="M6.87016 -0.0146484C7.07524 -0.0146484 7.28032 -0.0146484 7.4854 -0.0146484C7.4854 0.27832 7.4854 0.571289 7.4854 0.864258C5.73678 0.908728 4.29148 1.58256 3.14946 2.88574C2.02808 4.28754 1.59839 5.87933 1.8604 7.66113C1.70757 8.0705 1.53179 8.4709 1.33305 8.86231C1.1779 8.50969 1.0363 8.14834 0.908248 7.77832C0.663827 5.75707 1.16187 3.95042 2.40239 2.3584C3.58009 0.985787 5.06937 0.194773 6.87016 -0.0146484Z" fill="#575E63"/>
<path fill-rule="evenodd" clip-rule="evenodd" d="M7.48535 -0.0146484C7.69043 -0.0146484 7.89551 -0.0146484 8.10059 -0.0146484C10.2489 0.250999 11.9139 1.28616 13.0957 3.09082C13.946 4.53964 14.2683 6.10216 14.0625 7.77832C13.9344 8.14834 13.7929 8.50969 13.6377 8.86231C13.4374 8.47157 13.2616 8.07117 13.1104 7.66113C13.3494 6.11716 13.0417 4.69137 12.1875 3.38379C12.0596 3.21229 11.9278 3.04626 11.792 2.88574C10.6654 1.57559 9.22983 0.901764 7.48535 0.864258C7.48535 0.571289 7.48535 0.27832 7.48535 -0.0146484Z" fill="#474F54"/>
<path opacity="0.993" fill-rule="evenodd" clip-rule="evenodd" d="M7.48535 0.864258C7.48535 1.45996 7.48535 2.05567 7.48535 2.65137C6.76409 2.65579 6.09026 2.83646 5.46387 3.19336C4.89639 3.67072 4.29091 3.72932 3.64746 3.36914C3.4853 3.20206 3.31928 3.04093 3.14941 2.88574C4.29144 1.58256 5.73674 0.908728 7.48535 0.864258Z" fill="#FE9000"/>
<path fill-rule="evenodd" clip-rule="evenodd" d="M7.48535 0.864258C9.22983 0.901764 10.6654 1.57559 11.792 2.88574C11.5992 3.12249 11.3746 3.32268 11.1182 3.48633C10.5228 3.70116 9.98566 3.60352 9.50684 3.19336C8.88044 2.83646 8.20661 2.65579 7.48535 2.65137C7.48535 2.05567 7.48535 1.45996 7.48535 0.864258Z" fill="#FE641A"/>
<path opacity="0.991" fill-rule="evenodd" clip-rule="evenodd" d="M1.33301 8.8623C1.53174 8.4709 1.70752 8.0705 1.86035 7.66113C1.9121 7.58238 1.96093 7.49938 2.00684 7.41211C2.40609 7.25786 2.80648 7.10648 3.20801 6.95801C3.68651 7.18749 4.16505 7.417 4.64356 7.64648C5.10709 8.85633 5.5563 10.0721 5.99121 11.2939C5.7796 11.7855 5.55987 12.2738 5.33203 12.7588C4.92782 12.9393 4.5128 13.0808 4.08691 13.1836C3.61816 12.9688 3.14941 12.7539 2.68066 12.5391C2.21111 11.3208 1.76188 10.0952 1.33301 8.8623Z" fill="#FE9100"/>
<path opacity="0.993" fill-rule="evenodd" clip-rule="evenodd" d="M13.1104 7.66113C13.2616 8.07117 13.4374 8.47157 13.6377 8.8623C13.211 10.0939 12.7617 11.3146 12.29 12.5244C11.8913 12.6945 11.5007 12.88 11.1182 13.0811C11.0235 13.1257 10.9259 13.1647 10.8252 13.1982C10.4316 13.0649 10.0409 12.9233 9.65332 12.7734C9.41684 12.2858 9.19222 11.7926 8.97949 11.2939C9.4144 10.0721 9.86361 8.85633 10.3271 7.64648C10.8057 7.417 11.2842 7.18749 11.7627 6.95801C12.1642 7.10648 12.5646 7.25786 12.9639 7.41211C13.0098 7.49938 13.0586 7.58238 13.1104 7.66113Z" fill="#FE631A"/>
<path opacity="0.991" fill-rule="evenodd" clip-rule="evenodd" d="M12.29 12.5244C12.0868 13.1488 11.8573 13.7641 11.6016 14.3701C11.3966 14.6946 11.1085 14.8996 10.7373 14.9854C9.50684 14.9854 8.27637 14.9854 7.0459 14.9854C7.0459 14.6924 7.0459 14.3994 7.0459 14.1064C8.23846 14.1202 9.42987 14.1056 10.6201 14.0625C10.6922 14.0198 10.7557 13.9661 10.8105 13.9014C10.9277 13.6329 11.0302 13.3595 11.1182 13.0811C11.5007 12.88 11.8913 12.6945 12.29 12.5244Z" fill="#474F53"/>
</g>
<defs>
<clipPath id="clip0_116_3902">
<rect width="15" height="15" fill="white"/>
</clipPath>
</defs>
</svg>
