<svg width="15" height="15" viewBox="0 0 15 15" fill="none" xmlns="http://www.w3.org/2000/svg">
<g clip-path="url(#clip0_116_3917)">
<path opacity="0.995" fill-rule="evenodd" clip-rule="evenodd" d="M9.94629 -0.0146484C10.6494 -0.0146484 11.3525 -0.0146484 12.0557 -0.0146484C12.9172 0.0517849 13.7766 0.139675 14.6338 0.249023C13.8348 1.06265 13.0292 1.8732 12.2168 2.68066C12.1974 2.72414 12.173 2.7632 12.1436 2.79785C12.1338 2.79785 12.124 2.79785 12.1143 2.79785C11.2061 1.87988 10.2979 0.961913 9.38965 0.0439453C9.57984 0.0294703 9.76538 0.00993897 9.94629 -0.0146484Z" fill="#C86E59"/>
<path opacity="0.997" fill-rule="evenodd" clip-rule="evenodd" d="M9.38965 0.0439453C10.2979 0.961913 11.2061 1.87988 12.1143 2.79785C11.9189 3.01269 11.7139 3.21776 11.499 3.41309C10.4248 2.3291 9.3506 1.24512 8.27637 0.161133C8.64577 0.107068 9.01688 0.0680051 9.38965 0.0439453Z" fill="#FEF4F4"/>
<path opacity="0.998" fill-rule="evenodd" clip-rule="evenodd" d="M8.27637 0.161133C9.3506 1.24512 10.4248 2.3291 11.499 3.41309C11.499 3.42284 11.499 3.43263 11.499 3.44238C11.0782 3.83391 10.6778 4.24406 10.2979 4.67285C10.2881 4.67285 10.2783 4.67285 10.2686 4.67285C10.1768 4.59583 10.0889 4.51283 10.0049 4.42383C9.97559 4.40429 9.94629 4.40429 9.91699 4.42383C9.72656 4.61426 9.53613 4.80469 9.3457 4.99512C9.04784 4.69726 8.75001 4.39942 8.45215 4.10156C8.21845 4.27143 8.00361 4.47164 7.80762 4.70215C8.10504 5.01425 8.40779 5.32187 8.71582 5.625C8.31015 6.03557 7.89999 6.44083 7.48535 6.84082C7.17325 6.5434 6.86564 6.24064 6.5625 5.93262C6.35253 6.14259 6.14259 6.35253 5.93262 6.5625C6.24064 6.86564 6.5434 7.17325 6.84082 7.48535C6.44572 7.8951 6.04532 8.30036 5.63965 8.70117C5.62011 8.72071 5.6006 8.72071 5.58106 8.70117C5.28319 8.40331 4.98536 8.10548 4.6875 7.80762C4.49218 8.00294 4.29689 8.19823 4.10156 8.39356C4.08202 8.4131 4.08202 8.43261 4.10156 8.45215C4.39942 8.75001 4.69726 9.04784 4.99512 9.3457C4.78474 9.55119 4.57966 9.76116 4.37988 9.97559C4.49769 10.0738 4.60512 10.1813 4.70215 10.2979C4.7119 10.3174 4.72169 10.3369 4.73145 10.3564C4.3106 10.748 3.91022 11.1581 3.53027 11.5869C3.52052 11.5869 3.51073 11.5869 3.50098 11.5869C2.39746 10.4639 1.28418 9.3506 0.161133 8.24707C0.8371 3.51838 3.54217 0.823061 8.27637 0.161133Z" fill="#C86E59"/>
<path fill-rule="evenodd" clip-rule="evenodd" d="M14.6338 0.249023C14.7995 1.1452 14.9167 2.04363 14.9854 2.94434C14.9854 3.63771 14.9854 4.33105 14.9854 5.02441C14.9608 5.20532 14.9412 5.39086 14.9268 5.58106C13.9893 4.6631 13.0615 3.73535 12.1436 2.79785C12.173 2.7632 12.1974 2.72414 12.2168 2.68066C13.0292 1.8732 13.8348 1.06265 14.6338 0.249023Z" fill="#873F2E"/>
<path fill-rule="evenodd" clip-rule="evenodd" d="M12.1143 2.79785C12.124 2.79785 12.1338 2.79785 12.1436 2.79785C13.0615 3.73535 13.9893 4.6631 14.9268 5.58106C14.9015 5.95922 14.8527 6.33032 14.7803 6.69434C13.6865 5.61035 12.5928 4.52637 11.499 3.44238C11.499 3.43263 11.499 3.42284 11.499 3.41309C11.7139 3.21776 11.9189 3.01269 12.1143 2.79785Z" fill="#D1C4C1"/>
<path fill-rule="evenodd" clip-rule="evenodd" d="M11.499 3.44238C12.5928 4.52637 13.6865 5.61035 14.7803 6.69434C14.0867 11.3918 11.3914 14.0871 6.69434 14.7803C5.63965 13.7158 4.58496 12.6514 3.53027 11.5869C3.91022 11.1581 4.3106 10.748 4.73145 10.3564C4.81875 10.4339 4.90664 10.512 4.99512 10.5908C5.20954 10.391 5.41951 10.186 5.625 9.97559C5.93751 10.2881 6.24999 10.6006 6.5625 10.9131C6.77376 10.7116 6.97395 10.5017 7.16309 10.2832C6.87138 9.96214 6.56862 9.64966 6.25488 9.3457C6.66056 8.93514 7.07071 8.52987 7.48535 8.12988C7.79256 8.42244 8.09528 8.72027 8.39355 9.02344C8.62726 8.85357 8.84209 8.65336 9.03809 8.42285C8.73536 8.11034 8.43261 7.79786 8.12988 7.48535C8.52987 7.07071 8.93514 6.66056 9.3457 6.25488C9.64966 6.56862 9.96214 6.87138 10.2832 7.16309C10.5017 6.97395 10.7116 6.77376 10.9131 6.5625C10.6006 6.24999 10.2881 5.93751 9.97559 5.625C10.186 5.41951 10.391 5.20954 10.5908 4.99512C10.4925 4.8871 10.3949 4.7797 10.2979 4.67285C10.6778 4.24406 11.0782 3.83391 11.499 3.44238Z" fill="#873F2E"/>
<path fill-rule="evenodd" clip-rule="evenodd" d="M10.2686 4.67285C8.44832 6.54683 6.62216 8.41693 4.79005 10.2832C4.76227 10.2974 4.73298 10.3022 4.70216 10.2979C4.60512 10.1813 4.49769 10.0738 4.37989 9.97559C4.57967 9.76116 4.78474 9.55119 4.99512 9.3457C4.69726 9.04784 4.39943 8.75001 4.10157 8.45215C4.08203 8.43261 4.08203 8.4131 4.10157 8.39355C4.29689 8.19823 4.49219 8.00294 4.68751 7.80762C4.98537 8.10548 5.2832 8.40331 5.58106 8.70117C5.6006 8.72071 5.62011 8.72071 5.63966 8.70117C6.04533 8.30036 6.44573 7.8951 6.84083 7.48535C6.54341 7.17325 6.24065 6.86563 5.93262 6.5625C6.1426 6.35253 6.35254 6.14259 6.56251 5.93262C6.86564 6.24064 7.17326 6.5434 7.48536 6.84082C7.9 6.44083 8.31015 6.03557 8.71583 5.625C8.4078 5.32187 8.10505 5.01425 7.80762 4.70215C8.00362 4.47164 8.21845 4.27143 8.45216 4.10156C8.75002 4.39942 9.04785 4.69726 9.34571 4.99512C9.53614 4.80469 9.72657 4.61426 9.917 4.42383C9.9463 4.40429 9.97559 4.40429 10.0049 4.42383C10.0889 4.51283 10.1768 4.59583 10.2686 4.67285Z" fill="#FEF3F2"/>
<path fill-rule="evenodd" clip-rule="evenodd" d="M10.2686 4.67285C10.2783 4.67285 10.2881 4.67285 10.2979 4.67285C10.3949 4.7797 10.4925 4.8871 10.5908 4.99512C10.391 5.20954 10.186 5.41951 9.97559 5.625C10.2881 5.93751 10.6006 6.24999 10.9131 6.5625C10.7116 6.77376 10.5017 6.97395 10.2832 7.16309C9.96214 6.87138 9.64966 6.56862 9.3457 6.25488C8.93514 6.66056 8.52987 7.07071 8.12988 7.48535C8.43261 7.79786 8.73536 8.11034 9.03809 8.42285C8.84209 8.65336 8.62726 8.85357 8.39355 9.02344C8.09528 8.72027 7.79256 8.42244 7.48535 8.12988C7.07071 8.52987 6.66056 8.93514 6.25488 9.3457C6.56862 9.64966 6.87138 9.96214 7.16309 10.2832C6.97395 10.5017 6.77376 10.7116 6.5625 10.9131C6.24999 10.6006 5.93751 10.2881 5.625 9.97559C5.41951 10.186 5.20954 10.391 4.99512 10.5908C4.90664 10.512 4.81875 10.4339 4.73145 10.3564C4.72169 10.3369 4.7119 10.3174 4.70215 10.2979C4.73297 10.3022 4.76227 10.2974 4.79004 10.2832C6.62215 8.41693 8.44831 6.54683 10.2686 4.67285Z" fill="#D2C4C1"/>
<path opacity="0.996" fill-rule="evenodd" clip-rule="evenodd" d="M0.161133 8.24707C1.28418 9.3506 2.39746 10.4639 3.50098 11.5869C3.30565 11.8017 3.10058 12.0068 2.88574 12.2021C1.94679 11.2339 0.98976 10.2866 0.0146484 9.36035C0.0507064 8.98688 0.0995347 8.61577 0.161133 8.24707Z" fill="#FEF4F4"/>
<path opacity="0.995" fill-rule="evenodd" clip-rule="evenodd" d="M0.0146484 9.36035C0.98976 10.2866 1.94679 11.2339 2.88574 12.2021C2.88574 12.2119 2.88574 12.2217 2.88574 12.2314C2.04584 13.0714 1.21576 13.921 0.395508 14.7803C0.287827 14.3298 0.204819 13.8709 0.146484 13.4033C0.0828 12.8725 0.0290891 12.3451 -0.0146484 11.8213C-0.0146484 11.1279 -0.0146484 10.4346 -0.0146484 9.74121C0.0142057 9.6201 0.0239713 9.49313 0.0146484 9.36035Z" fill="#C86E59"/>
<path fill-rule="evenodd" clip-rule="evenodd" d="M3.50098 11.5869C3.51073 11.5869 3.52052 11.5869 3.53027 11.5869C4.58496 12.6514 5.63965 13.7158 6.69434 14.7803C6.32692 14.8482 5.95585 14.897 5.58106 14.9268C4.69239 14.0186 3.79395 13.1201 2.88574 12.2314C2.88574 12.2217 2.88574 12.2119 2.88574 12.2021C3.10058 12.0068 3.30565 11.8017 3.50098 11.5869Z" fill="#D1C4C1"/>
<path fill-rule="evenodd" clip-rule="evenodd" d="M2.88574 12.2314C3.79395 13.1201 4.69239 14.0186 5.58106 14.9268C5.3514 14.9379 5.12681 14.9575 4.90723 14.9854C4.1748 14.9854 3.44238 14.9854 2.70996 14.9854C1.9407 14.9383 1.16922 14.87 0.395508 14.7803C1.21576 13.921 2.04584 13.0714 2.88574 12.2314Z" fill="#873F2E"/>
</g>
<defs>
<clipPath id="clip0_116_3917">
<rect width="15" height="15" fill="white"/>
</clipPath>
</defs>
</svg>
