<svg width="15" height="15" viewBox="0 0 15 15" fill="none" xmlns="http://www.w3.org/2000/svg">
<g clip-path="url(#clip0_116_3907)">
<path opacity="0.999" fill-rule="evenodd" clip-rule="evenodd" d="M6.81154 -0.0146484C7.26075 -0.0146484 7.70999 -0.0146484 8.1592 -0.0146484C8.24709 0.00488282 8.33498 0.0244141 8.42287 0.0439453C8.43887 1.84233 9.07364 3.37553 10.3272 4.64355C10.3272 4.65331 10.3272 4.6631 10.3272 4.67285C9.80231 5.1537 9.28962 5.65175 8.78908 6.16699C8.77549 6.18439 8.77059 6.20394 8.77443 6.22559C8.76468 6.22559 8.75489 6.22559 8.74513 6.22559C7.22697 4.65193 6.38712 2.76717 6.2256 0.571289C6.20964 0.396586 6.22915 0.23057 6.2842 0.0732422C6.46355 0.0437426 6.63933 0.0144456 6.81154 -0.0146484Z" fill="#F3F3F6"/>
<path opacity="0.997" fill-rule="evenodd" clip-rule="evenodd" d="M8.42285 0.0439453C10.1344 0.250353 11.5895 0.963243 12.7881 2.18262C11.958 2.99317 11.1377 3.81349 10.3271 4.64356C9.07362 3.37553 8.43885 1.84233 8.42285 0.0439453Z" fill="#B7DB38"/>
<path opacity="0.998" fill-rule="evenodd" clip-rule="evenodd" d="M6.19629 0.0732422C6.18686 0.244863 6.19661 0.41088 6.22559 0.571289C6.3871 2.76717 7.22695 4.65193 8.74512 6.22559C7.89551 7.05566 7.05566 7.89551 6.22559 8.74512C4.61247 7.18705 2.67888 6.3472 0.424805 6.22559C0.313523 6.19679 0.196336 6.187 0.0732422 6.19629C0.646362 3.4309 2.23816 1.51196 4.84863 0.439453C5.28911 0.280534 5.73832 0.158463 6.19629 0.0732422Z" fill="#B7DB38"/>
<path fill-rule="evenodd" clip-rule="evenodd" d="M6.19635 0.0732422C6.22565 0.0732422 6.25494 0.0732422 6.28424 0.0732422C6.22919 0.23057 6.20968 0.396586 6.22565 0.571289C6.19667 0.41088 6.18692 0.244863 6.19635 0.0732422Z" fill="#CEE481"/>
<path fill-rule="evenodd" clip-rule="evenodd" d="M12.7881 2.18262C14.0075 3.38124 14.7204 4.83633 14.9268 6.54785C13.1437 6.51709 11.6105 5.8921 10.3271 4.67285C10.3271 4.6631 10.3271 4.65331 10.3271 4.64356C11.1377 3.81349 11.958 2.99317 12.7881 2.18262Z" fill="#90CC1C"/>
<path fill-rule="evenodd" clip-rule="evenodd" d="M10.3272 4.67285C11.6105 5.8921 13.1437 6.51709 14.9268 6.54785C14.9463 6.63574 14.9659 6.72363 14.9854 6.81152C14.9854 7.26073 14.9854 7.70997 14.9854 8.15918C14.9563 8.33139 14.927 8.50717 14.8975 8.68652C14.7402 8.74157 14.5742 8.76108 14.3995 8.74512C12.2025 8.60329 10.3275 7.76344 8.77446 6.22559C8.77062 6.20394 8.77551 6.18439 8.78911 6.16699C9.28964 5.65175 9.80234 5.1537 10.3272 4.67285Z" fill="#E1E2EA"/>
<path fill-rule="evenodd" clip-rule="evenodd" d="M0.0732422 6.19629C0.196336 6.187 0.313523 6.19679 0.424805 6.22559C0.298025 6.21141 0.180838 6.23092 0.0732422 6.28418C0.0732422 6.25488 0.0732422 6.22559 0.0732422 6.19629Z" fill="#D8E89F"/>
<path opacity="0.999" fill-rule="evenodd" clip-rule="evenodd" d="M0.424805 6.22559C2.67888 6.3472 4.61247 7.18705 6.22559 8.74512C6.22559 8.75487 6.22559 8.76466 6.22559 8.77441C5.70073 9.25526 5.18804 9.75331 4.6875 10.2686C4.67391 10.286 4.66901 10.3055 4.67285 10.3271C4.6631 10.3271 4.65331 10.3271 4.64355 10.3271C3.37509 9.07336 1.84189 8.43861 0.0439453 8.42285C0.0244141 8.33496 0.00488282 8.24707 -0.0146484 8.15918C-0.0146484 7.70997 -0.0146484 7.26073 -0.0146484 6.81152C0.0144456 6.63932 0.0437426 6.46354 0.0732422 6.28418C0.180838 6.23092 0.298025 6.21141 0.424805 6.22559Z" fill="#F3F3F6"/>
<path fill-rule="evenodd" clip-rule="evenodd" d="M8.74512 6.22559C8.75487 6.22559 8.76466 6.22559 8.77441 6.22559C10.3274 7.76344 12.2024 8.60329 14.3994 8.74512C14.5598 8.77409 14.7258 8.78385 14.8975 8.77441C14.3243 11.5398 12.7325 13.4588 10.1221 14.5313C9.68159 14.6902 9.23238 14.8122 8.77441 14.8975C8.78385 14.7258 8.77409 14.5598 8.74512 14.3994C8.60326 12.2024 7.76344 10.3274 6.22559 8.77441C6.22559 8.76466 6.22559 8.75487 6.22559 8.74512C7.05565 7.89551 7.89551 7.05565 8.74512 6.22559Z" fill="#90CC1C"/>
<path opacity="0.997" fill-rule="evenodd" clip-rule="evenodd" d="M0.0439453 8.42285C1.84189 8.43861 3.37509 9.07336 4.64356 10.3271C3.81349 11.1377 2.99317 11.958 2.18262 12.7881C0.963243 11.5895 0.250353 10.1344 0.0439453 8.42285Z" fill="#B7DB38"/>
<path fill-rule="evenodd" clip-rule="evenodd" d="M14.8975 8.68652C14.8975 8.71582 14.8975 8.74512 14.8975 8.77441C14.7258 8.78385 14.5598 8.77409 14.3994 8.74512C14.5741 8.76108 14.7401 8.74157 14.8975 8.68652Z" fill="#D2E1B9"/>
<path fill-rule="evenodd" clip-rule="evenodd" d="M6.22563 8.77441C7.76348 10.3274 8.60331 12.2024 8.74516 14.3994C8.76113 14.5741 8.74162 14.7401 8.68657 14.8975C8.50721 14.927 8.33143 14.9563 8.15922 14.9854C7.71977 14.9854 7.28032 14.9854 6.84087 14.9854C6.74322 14.9658 6.64554 14.9463 6.5479 14.9268C6.51713 13.1437 5.89214 11.6105 4.6729 10.3271C4.66906 10.3055 4.67395 10.286 4.68754 10.2686C5.18808 9.75331 5.70078 9.25526 6.22563 8.77441Z" fill="#E1E2EA"/>
<path fill-rule="evenodd" clip-rule="evenodd" d="M4.64356 10.3271C4.65331 10.3271 4.6631 10.3271 4.67285 10.3271C5.8921 11.6105 6.51709 13.1437 6.54785 14.9268C4.83633 14.7204 3.38124 14.0075 2.18262 12.7881C2.99317 11.958 3.81349 11.1377 4.64356 10.3271Z" fill="#90CC1C"/>
<path fill-rule="evenodd" clip-rule="evenodd" d="M8.74512 14.3994C8.77409 14.5598 8.78385 14.7258 8.77441 14.8975C8.74512 14.8975 8.71582 14.8975 8.68652 14.8975C8.74157 14.7401 8.76108 14.5741 8.74512 14.3994Z" fill="#D2E0B8"/>
</g>
<defs>
<clipPath id="clip0_116_3907">
<rect width="15" height="15" fill="white"/>
</clipPath>
</defs>
</svg>
