<svg fill="none" xmlns="http://www.w3.org/2000/svg"
    xmlns:xlink="http://www.w3.org/1999/xlink">
    <defs>

        <symbol id="star" viewBox="0 0 10 10">
            <g clip-path="url(#clip0_1021_67836)">
                <path opacity="0.996" fill-rule="evenodd" clip-rule="evenodd"
                    d="M9.98828 3.83789C9.98828 3.93554 9.98828 4.0332 9.98828 4.13086C9.92008 4.28885 9.81592 4.42232 9.67578 4.53125C8.99617 5.11316 8.32234 5.70236 7.6543 6.29883C7.8625 7.28154 8.0741 8.26463 8.28906 9.24804C8.2709 9.58847 8.09187 9.77076 7.75195 9.79492C7.65268 9.79207 7.55828 9.76929 7.46875 9.72656C6.64764 9.22488 5.82082 8.73334 4.98828 8.25195C4.14273 8.73986 3.30289 9.23791 2.46875 9.74609C2.18971 9.8548 1.95859 9.79295 1.77539 9.56054C1.69403 9.42785 1.66798 9.28463 1.69727 9.13086C1.91832 8.18822 2.12666 7.2442 2.32227 6.29883C1.56726 5.64146 0.818564 4.9774 0.0761719 4.30664C0.0448277 4.25408 0.0155309 4.20199 -0.0117188 4.15039C-0.0117188 4.04623 -0.0117188 3.94205 -0.0117188 3.83789C0.0622391 3.62412 0.211979 3.49717 0.4375 3.45703C1.40791 3.36941 2.37797 3.27826 3.34766 3.18359C3.74406 2.27031 4.13793 1.3556 4.5293 0.439451C4.73398 0.19167 4.98463 0.136331 5.28125 0.273435C5.34961 0.315754 5.40494 0.371091 5.44727 0.439451C5.83863 1.3556 6.2325 2.27031 6.62891 3.18359C7.63223 3.27539 8.63484 3.37304 9.63672 3.47656C9.81139 3.54377 9.92857 3.66422 9.98828 3.83789Z"
                    />
            </g>
            <defs>
                <clipPath id="clip0_1021_67836">
                    <rect width="10" height="10" fill="white" />
                </clipPath>
            </defs>
        </symbol>

        <!-- Info -->
        <symbol id="info" viewBox="0 0 15 15">
            <path
                d="M7.5 13.75C10.9375 13.75 13.75 10.9375 13.75 7.5C13.75 4.0625 10.9375 1.25 7.5 1.25C4.0625 1.25 1.25 4.0625 1.25 7.5C1.25 10.9375 4.0625 13.75 7.5 13.75Z"
                stroke="#676F7F" stroke-width="0.9375" stroke-linecap="round"
                stroke-linejoin="round" />
            <path d="M7.5 5V8.125" stroke="#676F7F" stroke-width="0.9375" stroke-linecap="round"
                stroke-linejoin="round" />
            <path d="M7.49609 10H7.50171" stroke="#676F7F" stroke-width="1.25"
                stroke-linecap="round"
                stroke-linejoin="round" />
        </symbol>

        <!-- arrow Up -->
        <symbol id="arrow-up" viewBox="0 0 33 33">
            <path
                d="M24.667 13.2305L16.5003 5.06372L8.3335 13.2305" stroke="white"
                stroke-width="2.01815" stroke-miterlimit="10" stroke-linecap="round"
                stroke-linejoin="round" />
            <path d="M16.5 27.9361V5.29248" stroke="white"
                stroke-width="2.01815" stroke-miterlimit="10" stroke-linecap="round"
                stroke-linejoin="round" />
        </symbol>

        <!-- close -->
        <symbol id="close" viewBox="0 0 14 14">
            <path fill-rule="evenodd" clip-rule="evenodd"
                d="M2.36273 0.597974C2.01351 0.248755 1.44731 0.248755 1.0981 0.597974C0.748877 0.947193 0.748877 1.51339 1.0981 1.86261L5.23497 5.99948L1.41597 9.81849C1.06675 10.1677 1.06675 10.7339 1.41597 11.0831C1.76519 11.4323 2.33138 11.4323 2.6806 11.0831L6.4996 7.26412L10.6366 11.4011C10.9858 11.7503 11.552 11.7503 11.9012 11.4011C12.2504 11.0518 12.2504 10.4857 11.9012 10.1364L7.76424 5.99948L11.9011 1.86261C12.2503 1.51339 12.2503 0.947193 11.9011 0.597974C11.5519 0.248755 10.9857 0.248755 10.6365 0.597974L6.4996 4.73485L2.36273 0.597974Z"
            />
        </symbol>

        <symbol id="sun" viewBox="0 0 16 16">
            <path fill-rule="evenodd" clip-rule="evenodd"
                d="M8.74992 1.33331C8.74992 0.919099 8.41413 0.583313 7.99992 0.583313C7.58571 0.583313 7.24992 0.919099 7.24992 1.33331V1.38665C7.24992 1.80086 7.58571 2.13665 7.99992 2.13665C8.41413 2.13665 8.74992 1.80086 8.74992 1.38665V1.33331ZM3.77025 2.70965C3.47736 2.41676 3.00248 2.41676 2.70959 2.70965C2.4167 3.00254 2.4167 3.47742 2.70959 3.77031L2.79626 3.85698C3.08915 4.14987 3.56402 4.14987 3.85692 3.85698C4.14981 3.56408 4.14981 3.08921 3.85692 2.79632L3.77025 2.70965ZM13.2902 3.77031C13.5831 3.47742 13.5831 3.00254 13.2902 2.70965C12.9974 2.41676 12.5225 2.41676 12.2296 2.70965L12.1429 2.79632C11.85 3.08921 11.85 3.56408 12.1429 3.85698C12.4358 4.14987 12.9107 4.14987 13.2036 3.85698L13.2902 3.77031ZM1.33325 7.24998C0.919038 7.24998 0.583252 7.58577 0.583252 7.99998C0.583252 8.41419 0.919038 8.74998 1.33325 8.74998H1.38659C1.8008 8.74998 2.13659 8.41419 2.13659 7.99998C2.13659 7.58577 1.8008 7.24998 1.38659 7.24998H1.33325ZM14.6133 7.24998C14.199 7.24998 13.8633 7.58577 13.8633 7.99998C13.8633 8.41419 14.199 8.74998 14.6133 8.74998H14.6666C15.0808 8.74998 15.4166 8.41419 15.4166 7.99998C15.4166 7.58577 15.0808 7.24998 14.6666 7.24998H14.6133ZM13.2036 12.143C12.9107 11.8501 12.4358 11.8501 12.1429 12.143C11.85 12.4359 11.85 12.9108 12.1429 13.2036L12.2296 13.2903C12.5225 13.5832 12.9974 13.5832 13.2902 13.2903C13.5831 12.9974 13.5831 12.5225 13.2902 12.2296L13.2036 12.143ZM3.85691 13.2036C4.14981 12.9108 4.14981 12.4359 3.85692 12.143C3.56402 11.8501 3.08915 11.8501 2.79626 12.143L2.70959 12.2296C2.4167 12.5225 2.41669 12.9974 2.70959 13.2903C3.00248 13.5832 3.47735 13.5832 3.77025 13.2903L3.85691 13.2036ZM8.74992 14.6133C8.74992 14.1991 8.41413 13.8633 7.99992 13.8633C7.58571 13.8633 7.24992 14.1991 7.24992 14.6133V14.6666C7.24992 15.0809 7.58571 15.4166 7.99992 15.4166C8.41413 15.4166 8.74992 15.0809 8.74992 14.6666V14.6133ZM4.26659 7.99998C4.26659 5.93812 5.93806 4.26665 7.99992 4.26665C10.0618 4.26665 11.7333 5.93812 11.7333 7.99998C11.7333 10.0618 10.0618 11.7333 7.99992 11.7333C5.93806 11.7333 4.26659 10.0618 4.26659 7.99998ZM7.99992 3.06665C5.27531 3.06665 3.06659 5.27538 3.06659 7.99998C3.06659 10.7246 5.27531 12.9333 7.99992 12.9333C10.7245 12.9333 12.9333 10.7246 12.9333 7.99998C12.9333 5.27538 10.7245 3.06665 7.99992 3.06665Z"
                fill="#9599A1" />
        </symbol>

        <symbol id="moon" viewBox="0 0 16 16">
            <path
                d="M1.35331 8.28004C1.59331 11.7134 4.50664 14.5067 7.99331 14.66C10.4533 14.7667 12.6533 13.62 13.9733 11.8134C14.52 11.0734 14.2266 10.58 13.3133 10.7467C12.8666 10.8267 12.4066 10.86 11.9266 10.84C8.66664 10.7067 5.99998 7.98004 5.98664 4.76004C5.97998 3.89337 6.15998 3.07337 6.48664 2.3267C6.84664 1.50004 6.41331 1.1067 5.57998 1.46004C2.93998 2.57337 1.13331 5.23337 1.35331 8.28004Z"
                stroke="url(#paint0_linear_691_23668)" stroke-width="1.2" stroke-linecap="round"
                stroke-linejoin="round" />
            <defs>
                <linearGradient id="paint0_linear_691_23668" x1="3.77434" y1="-1.18903" x2="14.3701"
                    y2="1.1158" gradientUnits="userSpaceOnUse">
                    <stop stop-color="#C6A3FF" />
                    <stop offset="1" stop-color="#7E8BED" />
                </linearGradient>
            </defs>
        </symbol>

        <symbol id="settings" viewBox="0 0 20 20">
            <path fill-rule="evenodd" clip-rule="evenodd"
                d="M6.96131 2.86211C7.31016 2.65457 7.77992 2.77017 8.00297 3.14179L8.09119 3.29415L8.09188 3.29536C8.53355 4.06515 9.20331 4.58957 10.0011 4.58957C10.5004 4.58957 10.9505 4.3841 11.3267 4.04161L14.8506 4.99564C14.405 5.76472 14.2854 6.60755 14.6836 7.2985C15.0818 7.98958 15.8711 8.30832 16.7584 8.30832C17.282 8.30832 17.7167 8.73896 17.7167 9.26665V10.7333C17.7167 11.2569 17.2861 11.6916 16.7584 11.6916C15.8711 11.6916 15.0818 12.0104 14.6836 12.7015C14.2856 13.3921 14.4049 14.2344 14.8499 15.0031C15.1127 15.4648 14.9533 16.0474 14.4983 16.3073L14.498 16.3075L13.0563 17.1325L13.0563 17.1324L13.0472 17.1379C12.6983 17.3454 12.2286 17.2298 12.0055 16.8582L11.9173 16.7058L11.9166 16.7045C11.4749 15.9348 10.8052 15.4104 10.0074 15.4104C9.21011 15.4104 8.53841 15.9342 8.09268 16.7032L8.09252 16.7035L8.00297 16.8582C7.77992 17.2298 7.31016 17.3454 6.96131 17.1379L6.96135 17.1378L6.95217 17.1325L5.51051 16.3075L5.51017 16.3073C5.05413 16.0467 4.89707 15.4562 5.15772 15.0046C5.60341 14.2355 5.72317 13.3925 5.32493 12.7015C4.92668 12.0104 4.13741 11.6916 3.25008 11.6916C2.7224 11.6916 2.29175 11.2569 2.29175 10.7333V9.26665C2.29175 8.74302 2.7224 8.30832 3.25008 8.30832C4.13741 8.30832 4.92668 7.98958 5.32493 7.2985C5.72317 6.60745 5.60341 5.76448 5.15772 4.99532C4.89707 4.54377 5.05413 3.95323 5.51017 3.69264L5.51051 3.69244L6.95217 2.86744L6.95222 2.86752L6.96131 2.86211ZM5.15772 4.99532C5.15764 4.99518 5.15756 4.99504 5.15748 4.9949L4.61675 5.30832L5.15791 4.99564C5.15785 4.99553 5.15779 4.99542 5.15772 4.99532ZM11.3267 4.04158L8.00297 3.14179L11.3267 4.04161C11.3267 4.0416 11.3267 4.04159 11.3267 4.04158ZM11.3267 4.04158L14.8506 4.99556C15.1115 4.54398 14.9544 3.95327 14.4983 3.69264L14.498 3.69244L13.0563 2.86744L13.0471 2.86219L13.0472 2.86211C12.6983 2.65457 12.2286 2.77017 12.0055 3.1418L11.916 3.29647L11.9158 3.29674C11.7493 3.5841 11.5511 3.83723 11.3267 4.04158ZM9.07888 2.50543C8.51889 1.56417 7.29335 1.21378 6.32715 1.78491L4.88999 2.60733L4.88966 2.60752C3.8294 3.21363 3.4699 4.57269 4.07558 5.62099L4.07601 5.62174C4.38846 6.16079 4.33942 6.50514 4.2419 6.67438C4.14431 6.84372 3.87109 7.05832 3.25008 7.05832C2.02777 7.05832 1.04175 8.05694 1.04175 9.26665V10.7333C1.04175 11.943 2.02777 12.9416 3.25008 12.9416C3.87109 12.9416 4.14431 13.1562 4.2419 13.3256C4.33942 13.4948 4.38846 13.8392 4.07601 14.3782L4.07558 14.379C3.46983 15.4274 3.82947 16.7866 4.88999 17.3926L6.32722 18.2151C7.2934 18.7862 8.5189 18.4358 9.07888 17.4945L9.07891 17.4946L9.08264 17.4881L9.17415 17.3301C9.48675 16.7907 9.81088 16.6604 10.0074 16.6604C10.2029 16.6604 10.5245 16.7896 10.8329 17.3275L10.8342 17.3298L10.9259 17.4881L10.9258 17.4882L10.9296 17.4945C11.4896 18.4358 12.7151 18.7862 13.6813 18.2151L15.1185 17.3926C16.1798 16.7862 16.5371 15.4364 15.9344 14.3816L15.9344 14.3816L15.9325 14.3782C15.62 13.8392 15.6691 13.4948 15.7666 13.3256C15.8642 13.1562 16.1374 12.9416 16.7584 12.9416C17.9807 12.9416 18.9667 11.943 18.9667 10.7333V9.26665C18.9667 8.04433 17.9681 7.05832 16.7584 7.05832C16.1374 7.05832 15.8642 6.84372 15.7666 6.67438C15.6691 6.50514 15.62 6.16079 15.9325 5.62174L15.9329 5.62099C16.5386 4.57269 16.1791 3.21363 15.1188 2.60752L15.1185 2.60733L13.6813 1.78491C12.7152 1.21378 11.4896 1.56417 10.9296 2.50543L10.9296 2.5054L10.9259 2.51183L10.8343 2.6699L10.8343 2.67001L10.8342 2.67017C10.5216 3.20927 10.1976 3.33957 10.0011 3.33957C9.8056 3.33957 9.48398 3.21037 9.17565 2.67248L9.17431 2.67017L9.08264 2.51184L9.08268 2.51181L9.07888 2.50543ZM8.12508 9.99993C8.12508 8.9644 8.96455 8.12493 10.0001 8.12493C11.0356 8.12493 11.8751 8.9644 11.8751 9.99993C11.8751 11.0355 11.0356 11.8749 10.0001 11.8749C8.96455 11.8749 8.12508 11.0355 8.12508 9.99993ZM10.0001 6.87493C8.27419 6.87493 6.87508 8.27404 6.87508 9.99993C6.87508 11.7258 8.27419 13.1249 10.0001 13.1249C11.726 13.1249 13.1251 11.7258 13.1251 9.99993C13.1251 8.27404 11.726 6.87493 10.0001 6.87493Z"
            />
        </symbol>

        <symbol id="card" viewBox="0 0 20 20">
            <path fill-rule="evenodd" clip-rule="evenodd"
                d="M2.29218 6.46244C2.30268 5.0778 2.50213 4.43831 2.84681 4.0975C3.20349 3.74484 3.88258 3.54578 5.36675 3.54578H14.6251C16.1137 3.54578 16.795 3.74491 17.1527 4.09792C17.498 4.43864 17.6975 5.07777 17.708 6.46244H2.29218ZM1.04175 7.08744V6.57911C1.04175 5.1198 1.21174 3.95632 1.96794 3.20863C2.72168 2.46338 3.89258 2.29578 5.36675 2.29578H14.6251C16.1031 2.29578 17.276 2.46331 18.0308 3.20822C18.7885 3.95598 18.9584 5.11985 18.9584 6.57911V7.08744V13.4208C18.9584 14.8801 18.7884 16.0436 18.0322 16.7913C17.2785 17.5365 16.1076 17.7041 14.6334 17.7041H5.36748C3.89388 17.7082 2.72264 17.5433 1.96836 16.799C1.21163 16.0522 1.04175 14.8881 1.04175 13.4291V7.08744ZM17.7084 7.71244V13.4208C17.7084 14.8865 17.5076 15.5522 17.1534 15.9024C16.7967 16.255 16.1176 16.4541 14.6334 16.4541L5.36675 16.4541L5.36499 16.4541C3.88074 16.4583 3.20235 16.2605 2.84638 15.9093C2.4927 15.5602 2.29175 14.8951 2.29175 13.4291V7.71244H17.7084ZM5.00008 13.1291C4.6549 13.1291 4.37508 13.4089 4.37508 13.7541C4.37508 14.0993 4.6549 14.3791 5.00008 14.3791H6.66675C7.01193 14.3791 7.29175 14.0993 7.29175 13.7541C7.29175 13.4089 7.01193 13.1291 6.66675 13.1291H5.00008ZM8.12508 13.7541C8.12508 13.4089 8.4049 13.1291 8.75008 13.1291H12.0834C12.4286 13.1291 12.7084 13.4089 12.7084 13.7541C12.7084 14.0993 12.4286 14.3791 12.0834 14.3791H8.75008C8.4049 14.3791 8.12508 14.0993 8.12508 13.7541Z" />
        </symbol>

        <symbol id="card-send" viewBox="0 0 20 20">
            <path fill-rule="evenodd" clip-rule="evenodd"
                d="M16.0417 4.42559V7.91671C16.0417 8.26188 16.3216 8.54171 16.6667 8.54171C17.0119 8.54171 17.2917 8.26188 17.2917 7.91671V4.42559L17.8915 5.02531C18.1356 5.26939 18.5313 5.26939 18.7754 5.02531C19.0194 4.78124 19.0194 4.38551 18.7754 4.14143L17.1087 2.47476C16.9975 2.36353 16.8547 2.30299 16.7092 2.29314C16.6687 2.29037 16.6278 2.29154 16.5871 2.29677C16.4689 2.31188 16.3542 2.36075 16.2585 2.44339C16.2457 2.45447 16.2333 2.46604 16.2215 2.47808L14.5581 4.14143C14.3141 4.38551 14.3141 4.78124 14.5581 5.02531C14.8022 5.26939 15.1979 5.26939 15.442 5.02531L16.0417 4.42559ZM2.29218 6.45837C2.30268 5.07373 2.50213 4.43423 2.84681 4.09343C3.20349 3.74077 3.88258 3.54171 5.36675 3.54171H12.0834C12.4286 3.54171 12.7084 3.26188 12.7084 2.91671C12.7084 2.57153 12.4286 2.29171 12.0834 2.29171H5.36675C3.89258 2.29171 2.72168 2.45931 1.96794 3.20456C1.21174 3.95225 1.04175 5.11573 1.04175 6.57504V7.08337V13.425C1.04175 14.8844 1.21174 16.0478 1.96794 16.7955C2.72168 17.5408 3.89258 17.7084 5.36675 17.7084H14.6334C16.1076 17.7084 17.2785 17.5408 18.0322 16.7955C18.7884 16.0478 18.9584 14.8844 18.9584 13.425V11.6917C18.9584 11.3465 18.6786 11.0667 18.3334 11.0667C17.9882 11.0667 17.7084 11.3465 17.7084 11.6917V13.425C17.7084 14.8907 17.5076 15.5564 17.1534 15.9066C16.7967 16.2593 16.1176 16.4584 14.6334 16.4584H5.36675C3.88258 16.4584 3.20349 16.2593 2.84681 15.9066C2.49259 15.5564 2.29175 14.8907 2.29175 13.425V7.70837H12.0834C12.4286 7.70837 12.7084 7.42855 12.7084 7.08337C12.7084 6.73819 12.4286 6.45837 12.0834 6.45837H2.29218ZM5.00008 13.125C4.6549 13.125 4.37508 13.4049 4.37508 13.75C4.37508 14.0952 4.6549 14.375 5.00008 14.375H6.66675C7.01193 14.375 7.29175 14.0952 7.29175 13.75C7.29175 13.4049 7.01193 13.125 6.66675 13.125H5.00008ZM8.12508 13.75C8.12508 13.4049 8.4049 13.125 8.75008 13.125H12.0834C12.4286 13.125 12.7084 13.4049 12.7084 13.75C12.7084 14.0952 12.4286 14.375 12.0834 14.375H8.75008C8.4049 14.375 8.12508 14.0952 8.12508 13.75Z"
            />
        </symbol>

        <symbol id="logout" viewBox="0 0 20 20">
            <path fill-rule="evenodd" clip-rule="evenodd"
                d="M9.22906 3.54784C8.57038 4.0823 8.16033 4.94694 8.0392 6.35363C8.00959 6.69754 7.70679 6.95232 7.36288 6.92271C7.01898 6.89309 6.76419 6.5903 6.79381 6.24639C6.93101 4.65309 7.42096 3.40522 8.44145 2.57718C9.44469 1.76314 10.8468 1.45001 12.5915 1.45001H12.6998C14.6242 1.45001 16.134 1.8315 17.147 2.84453C18.16 3.85756 18.5415 5.36737 18.5415 7.29168V12.725C18.5415 14.6493 18.16 16.1591 17.147 17.1722C16.134 18.1852 14.6242 18.5667 12.6998 18.5667H12.5915C10.8594 18.5667 9.4658 18.2578 8.46461 17.4568C7.44536 16.6414 6.94893 15.4117 6.80254 13.8414C6.7705 13.4977 7.02314 13.1931 7.36683 13.161C7.71051 13.129 8.0151 13.3816 8.04714 13.7253C8.17575 15.105 8.58765 15.9545 9.24548 16.4807C9.92137 17.0214 10.9736 17.3167 12.5915 17.3167H12.6998C14.5005 17.3167 15.599 16.9523 16.2631 16.2883C16.9272 15.6242 17.2915 14.5257 17.2915 12.725V7.29168C17.2915 5.49099 16.9272 4.39247 16.2631 3.72841C15.599 3.06436 14.5005 2.70001 12.6998 2.70001H12.5915C10.9612 2.70001 9.90498 2.99938 9.22906 3.54784ZM3.5921 9.37502L5.31686 7.65026C5.56094 7.40619 5.56094 7.01046 5.31686 6.76638C5.07278 6.5223 4.67705 6.5223 4.43298 6.76638L1.64131 9.55805C1.39723 9.80213 1.39723 10.1979 1.64131 10.4419L4.43298 13.2336C4.67705 13.4777 5.07278 13.4777 5.31686 13.2336C5.56094 12.9895 5.56094 12.5938 5.31686 12.3497L3.59217 10.625H12.5C12.8452 10.625 13.125 10.3452 13.125 10C13.125 9.65484 12.8452 9.37502 12.5 9.37502H3.5921Z"
            />
        </symbol>

        <symbol id="chevron-down" viewBox="0 0 24 24">
            <path fill-rule="evenodd" clip-rule="evenodd"
                d="M18.5303 9.46967C18.8232 9.76256 18.8232 10.2374 18.5303 10.5303L12.5303 16.5303C12.2374 16.8232 11.7626 16.8232 11.4697 16.5303L5.46967 10.5303C5.17678 10.2374 5.17678 9.76256 5.46967 9.46967C5.76256 9.17678 6.23744 9.17678 6.53033 9.46967L12 14.9393L17.4697 9.46967C17.7626 9.17678 18.2374 9.17678 18.5303 9.46967Z"
            />

        </symbol>

        <symbol id="star" viewBox="0 0 16 16">
            <g clip-path="url(#clip0_1082_55185)">
                <path opacity="0.996" fill-rule="evenodd" clip-rule="evenodd"
                    d="M15.9824 6.14063C15.9824 6.29688 15.9824 6.45313 15.9824 6.60938C15.8733 6.86216 15.7066 7.07572 15.4824 7.25C14.395 8.18107 13.3169 9.12379 12.248 10.0781C12.5812 11.6505 12.9197 13.2234 13.2637 14.7969C13.2346 15.3416 12.9482 15.6332 12.4043 15.6719C12.2455 15.6673 12.0944 15.6309 11.9512 15.5625C10.6374 14.7598 9.31448 13.9733 7.98242 13.2031C6.62955 13.9838 5.2858 14.7807 3.95117 15.5938C3.5047 15.7677 3.13492 15.6687 2.8418 15.2969C2.71161 15.0846 2.66994 14.8554 2.7168 14.6094C3.07048 13.1012 3.40383 11.5907 3.7168 10.0781C2.50879 9.02635 1.31088 7.96385 0.123047 6.89063C0.0728962 6.80654 0.0260213 6.72319 -0.0175781 6.64063C-0.0175781 6.47397 -0.0175781 6.30729 -0.0175781 6.14063C0.100754 5.7986 0.340338 5.59547 0.701172 5.53125C2.25382 5.39107 3.80592 5.24522 5.35742 5.09375C5.99167 3.6325 6.62186 2.16896 7.24805 0.703129C7.57555 0.306679 7.97658 0.218137 8.45117 0.437504C8.56055 0.505213 8.64908 0.593754 8.7168 0.703129C9.34298 2.16896 9.97317 3.6325 10.6074 5.09375C12.2127 5.24063 13.8169 5.39688 15.4199 5.5625C15.6994 5.67004 15.8869 5.86275 15.9824 6.14063Z"
                />
            </g>
            <defs>
                <clipPath id="clip0_1082_55185">
                    <rect width="16" height="16" fill="white" />
                </clipPath>
            </defs>
        </symbol>

        <symbol id="user" viewBox="0 0 20 20">
            <g clip-path="url(#clip0_2740_75447)">
                <path fill-rule="evenodd" clip-rule="evenodd"
                    d="M10 10.8334C11.9967 10.8334 13.8125 11.4117 15.1483 12.2259C15.815 12.6342 16.385 13.1134 16.7967 13.6342C17.2017 14.1475 17.5 14.7609 17.5 15.4167C17.5 16.1209 17.1575 16.6759 16.6642 17.0717C16.1975 17.4467 15.5817 17.695 14.9275 17.8684C13.6125 18.2159 11.8575 18.3334 10 18.3334C8.1425 18.3334 6.3875 18.2167 5.0725 17.8684C4.41833 17.695 3.8025 17.4467 3.33583 17.0717C2.84167 16.675 2.5 16.1209 2.5 15.4167C2.5 14.7609 2.79833 14.1475 3.20333 13.6342C3.615 13.1134 4.18417 12.6342 4.85167 12.2259C6.1875 11.4117 8.00417 10.8334 10 10.8334ZM10 12.5C8.31417 12.5 6.7975 12.9917 5.72 13.6492C5.18083 13.9775 4.77417 14.3342 4.51167 14.6675C4.24167 15.0092 4.16667 15.2675 4.16667 15.4167C4.16667 15.5184 4.1975 15.6259 4.37917 15.7717C4.58667 15.9384 4.9475 16.1109 5.49917 16.2567C6.5975 16.5484 8.17583 16.6667 10 16.6667C11.825 16.6667 13.4025 16.5475 14.5 16.2567C15.0525 16.1109 15.4133 15.9384 15.6208 15.7717C15.8025 15.6259 15.8333 15.5184 15.8333 15.4167C15.8333 15.2667 15.7583 15.0092 15.4892 14.6675C15.2258 14.3342 14.8192 13.9775 14.28 13.6492C13.2025 12.9909 11.6858 12.5 10 12.5ZM10 1.66669C11.1051 1.66669 12.1649 2.10567 12.9463 2.88708C13.7277 3.66848 14.1667 4.72828 14.1667 5.83335C14.1667 6.93842 13.7277 7.99823 12.9463 8.77963C12.1649 9.56103 11.1051 10 10 10C8.89493 10 7.83512 9.56103 7.05372 8.77963C6.27232 7.99823 5.83333 6.93842 5.83333 5.83335C5.83333 4.72828 6.27232 3.66848 7.05372 2.88708C7.83512 2.10567 8.89493 1.66669 10 1.66669ZM10 3.33335C9.6717 3.33335 9.34661 3.39802 9.04329 3.52365C8.73998 3.64929 8.46438 3.83344 8.23223 4.06559C8.00009 4.29773 7.81594 4.57333 7.6903 4.87665C7.56466 5.17996 7.5 5.50505 7.5 5.83335C7.5 6.16166 7.56466 6.48675 7.6903 6.79006C7.81594 7.09338 8.00009 7.36897 8.23223 7.60112C8.46438 7.83327 8.73998 8.01742 9.04329 8.14305C9.34661 8.26869 9.6717 8.33335 10 8.33335C10.663 8.33335 11.2989 8.06996 11.7678 7.60112C12.2366 7.13228 12.5 6.49639 12.5 5.83335C12.5 5.17031 12.2366 4.53443 11.7678 4.06559C11.2989 3.59675 10.663 3.33335 10 3.33335Z"
                />
            </g>
            <defs>
                <clipPath id="clip0_2740_75447">
                    <rect width="20" height="20" />
                </clipPath>
            </defs>
        </symbol>

        <symbol id="edit" viewBox="0 0 16 16">
            <path
                d="M12.9924 1.85652L12.0936 0.953844C11.2696 0.126388 9.99617 0.126388 9.1722 0.953844L7.67408 2.53353L11.4943 6.36992L13.0673 4.79023C13.4419 4.41412 13.6666 3.88755 13.6666 3.36099C13.6666 2.83443 13.367 2.23264 12.9924 1.85652Z"
            />
            <path
                d="M9.84636 6.2947L6.85011 3.28577L0.932503 9.22841C0.557971 9.60453 0.333252 10.1311 0.333252 10.7329V13.0648C0.333252 13.3657 0.557971 13.6666 0.932503 13.6666H3.32951C3.85385 13.6666 4.3782 13.4409 4.82763 13.0648L10.7452 7.12216L9.84636 6.2947Z"
            />
        </symbol>

        <symbol id="statistics" viewBox="0 0 19 19">
            <g clip-path="url(#clip0_2744_76713)">
                <path opacity="0.988" fill-rule="evenodd" clip-rule="evenodd"
                    d="M8.31837 1.98633C9.43035 1.98633 10.5423 1.98633 11.6543 1.98633C11.8605 2.06958 11.9744 2.22453 11.9961 2.45117C12.0143 6.80793 12.0143 11.1647 11.9961 15.5215C11.9744 15.7481 11.8605 15.9031 11.6543 15.9863C10.5423 15.9863 9.43035 15.9863 8.31837 15.9863C8.11217 15.9031 7.99825 15.7481 7.97657 15.5215C7.95833 11.1647 7.95833 6.80793 7.97657 2.45117C7.9979 2.22554 8.11184 2.07059 8.31837 1.98633Z"
                />
                <path opacity="0.994" fill-rule="evenodd" clip-rule="evenodd"
                    d="M16.9863 6.33399C16.9863 9.44207 16.9863 12.5501 16.9863 15.6582C16.946 15.7203 16.905 15.784 16.8633 15.8496C16.7955 15.8992 16.7271 15.9448 16.6582 15.9863C15.5462 15.9863 14.4343 15.9863 13.3223 15.9863C13.1349 15.9128 13.021 15.776 12.9805 15.5762C12.9622 12.5137 12.9622 9.45118 12.9805 6.38868C13.0186 6.17737 13.1417 6.04519 13.3496 5.99219C14.4434 5.97396 15.5371 5.97396 16.6309 5.99219C16.8 6.05653 16.9185 6.17048 16.9863 6.33399Z"
                />
                <path opacity="0.994" fill-rule="evenodd" clip-rule="evenodd"
                    d="M6.65039 15.9863C5.53841 15.9863 4.42643 15.9863 3.31445 15.9863C3.25242 15.946 3.18862 15.905 3.12305 15.8633C3.07344 15.7955 3.02787 15.7271 2.98633 15.6582C2.98633 13.0514 2.98633 10.4447 2.98633 7.8379C3.0542 7.67438 3.17269 7.56044 3.3418 7.4961C4.44466 7.47786 5.54753 7.47786 6.65039 7.4961C6.799 7.54447 6.90381 7.64017 6.96484 7.78321C7.01015 10.3797 7.01926 12.9773 6.99219 15.5762C6.95166 15.776 6.83772 15.9128 6.65039 15.9863Z"
                />
            </g>
            <defs>
                <clipPath id="clip0_2744_76713">
                    <rect width="14" height="14" fill="white" transform="translate(3 2)" />
                </clipPath>
            </defs>
        </symbol>

        <symbol id="bookmark" viewBox="0 0 14 14">
            <path opacity="0.995" fill-rule="evenodd" clip-rule="evenodd"
                d="M4.88081 0.39637C6.6678 0.383784 8.45425 0.397456 10.2402 0.437386C11.0832 0.624127 11.5982 1.1391 11.7851 1.98231C11.8033 5.74664 11.8033 9.51094 11.7851 13.2753C11.7083 13.4663 11.5671 13.5575 11.3613 13.5487C11.2622 13.5557 11.1711 13.5329 11.0878 13.4804C9.72522 12.6304 8.35803 11.7873 6.98628 10.9511C5.58625 11.8178 4.18258 12.6791 2.77534 13.535C2.50572 13.6075 2.30976 13.5209 2.18745 13.2753C2.17413 9.56561 2.18325 5.85596 2.21479 2.14637C2.34996 1.21826 2.87405 0.648592 3.78706 0.437386C4.15636 0.432765 4.52096 0.419093 4.88081 0.39637Z"
            />
        </symbol>

        <symbol id="chevron-left" viewBox="0 0 24 24">
            <path fill-rule="evenodd" clip-rule="evenodd"
                d="M14.5303 18.5303C14.2374 18.8232 13.7626 18.8232 13.4697 18.5303L7.46967 12.5303C7.17678 12.2374 7.17678 11.7626 7.46967 11.4697L13.4697 5.46967C13.7626 5.17678 14.2374 5.17678 14.5303 5.46967C14.8232 5.76256 14.8232 6.23744 14.5303 6.53033L9.06066 12L14.5303 17.4697C14.8232 17.7626 14.8232 18.2374 14.5303 18.5303Z"
            />

        </symbol>

        <symbol id="trash" viewBox="0 0 15 15">
            <path
                d="M6.25 6.875V10.625M8.75 6.875V10.625M2.5 4.375H12.5M11.875 4.375L11.3331 11.9638C11.3107 12.2791 11.1696 12.5743 10.9382 12.7897C10.7068 13.0052 10.4024 13.125 10.0863 13.125H4.91375C4.59759 13.125 4.29317 13.0052 4.0618 12.7897C3.83044 12.5743 3.68932 12.2791 3.66688 11.9638L3.125 4.375H11.875ZM9.375 4.375V2.5C9.375 2.33424 9.30915 2.17527 9.19194 2.05806C9.07473 1.94085 8.91576 1.875 8.75 1.875H6.25C6.08424 1.875 5.92527 1.94085 5.80806 2.05806C5.69085 2.17527 5.625 2.33424 5.625 2.5V4.375H9.375Z"
                stroke-linecap="round" stroke-linejoin="round" />
        </symbol>

        <symbol id="menu" viewBox="0 0 21 21">
            <g clip-path="url(#clip0_571_20499)">
                <path opacity="0.992" fill-rule="evenodd" clip-rule="evenodd"
                    d="M7.60852 0.819947C5.89961 0.799439 4.19061 0.792602 2.48157 0.799439C1.59803 1.00619 1.04432 1.55306 0.820436 2.44006C0.79309 4.16272 0.79309 5.88538 0.820436 7.60803C1.06386 8.56238 1.67225 9.1161 2.64563 9.26917C4.23158 9.29652 5.81749 9.29652 7.40344 9.26917C8.463 9.0846 9.08508 8.46251 9.26965 7.40295C9.29701 5.817 9.29701 4.23109 9.26965 2.64514C9.11659 1.67176 8.56287 1.06337 7.60852 0.819947ZM18.4777 0.819947C16.7688 0.799439 15.0598 0.792602 13.3507 0.799439C12.4041 1.05589 11.8504 1.67112 11.6896 2.64514C11.6622 4.23109 11.6622 5.817 11.6896 7.40295C11.8742 8.46251 12.4962 9.0846 13.5558 9.26917C15.1417 9.29652 16.7277 9.29652 18.3136 9.26917C19.287 9.1161 19.8954 8.56238 20.1388 7.60803C20.1662 5.88538 20.1662 4.16272 20.1388 2.44006C19.9221 1.55345 19.3684 1.01341 18.4777 0.819947ZM2.64563 11.6686C4.23162 11.6617 5.81758 11.6686 7.40344 11.6891C8.46189 11.8725 9.08398 12.4946 9.26965 13.5553C9.29701 15.1412 9.29701 16.7272 9.26965 18.3131C9.11659 19.2865 8.56287 19.8949 7.60852 20.1383C5.89952 20.1657 4.19057 20.1657 2.48157 20.1383C1.59083 19.9448 1.03712 19.4048 0.820436 18.5182C0.79309 16.7955 0.79309 15.0729 0.820436 13.3502C1.07095 12.3954 1.67935 11.8349 2.64563 11.6686ZM18.3134 11.6891C16.7276 11.6686 15.1416 11.6617 13.5556 11.6686C12.6071 11.8308 11.9987 12.3776 11.7304 13.3092C11.6635 14.9758 11.6498 16.6438 11.6894 18.3131C11.8425 19.2865 12.3962 19.8949 13.3506 20.1383C15.0596 20.1657 16.7685 20.1657 18.4775 20.1383C19.3684 19.9447 19.9221 19.4047 20.1386 18.5182C20.166 16.7955 20.166 15.0729 20.1386 13.3502C19.8952 12.3959 19.2868 11.8422 18.3134 11.6891Z"
                />
            </g>
            <defs>
                <clipPath id="clip0_571_20499">
                    <rect width="21" height="21" fill="white" />
                </clipPath>
            </defs>

        </symbol>

        <symbol id="casino" viewBox="0 0 22 21">
            <g clip-path="url(#clip0_571_20502)">
                <path opacity="0.976" fill-rule="evenodd" clip-rule="evenodd"
                    d="M10.0361 -0.0214844C10.2686 -0.0214844 10.501 -0.0214844 10.7334 -0.0214844C10.7334 0.990236 10.7334 2.00195 10.7334 3.01367C8.85464 3.08526 7.22771 3.75519 5.85254 5.02344C5.12792 4.32617 4.41699 3.61524 3.71973 2.89062C4.9826 1.65709 6.47282 0.802593 8.19043 0.327148C8.80316 0.165907 9.4184 0.0496962 10.0361 -0.0214844Z"
                />
                <path opacity="0.977" fill-rule="evenodd" clip-rule="evenodd"
                    d="M11.2256 -0.0214844C11.458 -0.0214844 11.6904 -0.0214844 11.9229 -0.0214844C14.1661 0.21166 16.1485 1.05248 17.8701 2.50098C18.0007 2.62466 18.1237 2.75454 18.2393 2.89062C17.542 3.61524 16.8311 4.32617 16.1064 5.02344C14.7339 3.75669 13.1069 3.08677 11.2256 3.01367C11.2256 2.00195 11.2256 0.990236 11.2256 -0.0214844Z"
                />
                <path opacity="0.977" fill-rule="evenodd" clip-rule="evenodd"
                    d="M0.479492 10.2344C0.479492 10.0019 0.479492 9.76954 0.479492 9.53711C0.712637 7.29384 1.55346 5.31143 3.00195 3.58984C3.12564 3.4593 3.25552 3.33625 3.3916 3.2207C4.11621 3.91797 4.82715 4.62889 5.52441 5.35352C4.25617 6.72869 3.58624 8.35561 3.51465 10.2344C2.50293 10.2344 1.49121 10.2344 0.479492 10.2344Z"
                />
                <path opacity="0.977" fill-rule="evenodd" clip-rule="evenodd"
                    d="M21.4795 9.53711C21.4795 9.76954 21.4795 10.0019 21.4795 10.2344C20.4678 10.2344 19.4561 10.2344 18.4443 10.2344C18.3727 8.35561 17.7028 6.72869 16.4346 5.35352C17.1318 4.62889 17.8428 3.91797 18.5674 3.2207C19.8009 4.48357 20.6554 5.97379 21.1309 7.69141C21.2921 8.30414 21.4083 8.91937 21.4795 9.53711Z"
                />
                <path opacity="0.98" fill-rule="evenodd" clip-rule="evenodd"
                    d="M10.8154 6.62397C11.0495 6.59075 11.2546 6.65227 11.4307 6.80854C12.3535 7.73139 13.2764 8.65425 14.1992 9.5771C14.8281 10.4111 14.8281 11.2451 14.1992 12.079C13.491 12.7545 12.698 12.8775 11.8203 12.4482C11.879 12.9201 11.9543 13.3918 12.0459 13.8632C12.0364 14.0877 11.927 14.238 11.7178 14.3144C11.2256 14.3418 10.7334 14.3418 10.2412 14.3144C10.0319 14.238 9.92259 14.0877 9.91308 13.8632C9.98461 13.4236 10.0666 12.9861 10.1592 12.5507C10.1455 12.5302 10.1318 12.5097 10.1182 12.4892C9.24038 12.8828 8.45427 12.746 7.75976 12.079C7.13086 11.2451 7.13086 10.4111 7.75976 9.5771C8.69627 8.64059 9.63282 7.70404 10.5693 6.76753C10.6607 6.72893 10.7427 6.68107 10.8154 6.62397Z"
                />
                <path opacity="0.977" fill-rule="evenodd" clip-rule="evenodd"
                    d="M0.479492 10.7246C1.49121 10.7246 2.50293 10.7246 3.51465 10.7246C3.58624 12.6034 4.25617 14.2303 5.52441 15.6055C4.82715 16.3301 4.11621 17.041 3.3916 17.7383C2.15806 16.4754 1.30357 14.9852 0.828125 13.2676C0.666884 12.6548 0.550673 12.0396 0.479492 11.4219C0.479492 11.1894 0.479492 10.957 0.479492 10.7246Z"
                />
                <path opacity="0.977" fill-rule="evenodd" clip-rule="evenodd"
                    d="M21.4795 10.7246C21.4795 10.957 21.4795 11.1894 21.4795 11.4219C21.2464 13.6651 20.4055 15.6476 18.957 17.3691C18.8334 17.4997 18.7035 17.6227 18.5674 17.7383C17.8428 17.041 17.1318 16.3301 16.4346 15.6055C17.7028 14.2304 18.3727 12.6034 18.4443 10.7246C19.4561 10.7246 20.4678 10.7246 21.4795 10.7246Z"
                />
                <path opacity="0.977" fill-rule="evenodd" clip-rule="evenodd"
                    d="M10.7334 20.9805C10.501 20.9805 10.2686 20.9805 10.0361 20.9805C7.79287 20.7473 5.81046 19.9065 4.08887 18.458C3.95832 18.3343 3.83528 18.2044 3.71973 18.0684C4.41699 17.3437 5.12792 16.6328 5.85254 15.9355C7.22771 17.2038 8.85464 17.8737 10.7334 17.9453C10.7334 18.957 10.7334 19.9687 10.7334 20.9805Z"
                />
                <path opacity="0.977" fill-rule="evenodd" clip-rule="evenodd"
                    d="M11.9229 20.9805C11.6904 20.9805 11.458 20.9805 11.2256 20.9805C11.2256 19.9687 11.2256 18.957 11.2256 17.9453C13.1043 17.8737 14.7313 17.2038 16.1064 15.9355C16.8311 16.6328 17.542 17.3437 18.2393 18.0684C17.0225 19.2653 15.5869 20.1061 13.9326 20.5908C13.2666 20.7719 12.5967 20.9018 11.9229 20.9805Z"
                />
            </g>
            <defs>
                <clipPath id="clip0_571_20502">
                    <rect width="21" height="21" fill="white" transform="translate(0.5)" />
                </clipPath>
            </defs>

        </symbol>

        <symbol id="sports" viewBox="0 0 22 21">
            <g clip-path="url(#clip0_571_20505)">
                <path fill-rule="evenodd" clip-rule="evenodd"
                    d="M11.8817 -0.0205078H10.077C9.09922 0.087673 8.1422 0.306423 7.20594 0.635742C7.11349 1.85409 7.20922 3.05721 7.49305 4.24512C8.13314 4.0706 8.77569 3.8997 9.42078 3.73242C12.5562 2.99809 15.7007 2.95023 18.8544 3.58887C18.8963 3.56829 18.9031 3.54095 18.8749 3.50684C16.9951 1.4424 14.664 0.266625 11.8817 -0.0205078ZM9.1543 9.65983C7.03088 7.26157 5.94396 4.45884 5.89355 1.25163C4.39029 2.10518 3.15299 3.25362 2.18164 4.69694C2.14576 4.75325 2.12525 4.81478 2.12012 4.88151C2.21376 5.3723 2.32998 5.85768 2.46875 6.33757C3.55266 9.87512 5.42573 12.9103 8.08789 15.443C8.34994 15.1517 8.58237 14.8373 8.78516 14.4997C9.50055 13.3176 9.98589 12.0461 10.2412 10.6852C9.86034 10.366 9.49801 10.0241 9.1543 9.65983ZM21.4795 9.53651V11.0131C18.1733 8.94506 14.6664 8.52125 10.959 9.74159C9.58287 8.5687 8.56429 7.13997 7.90332 5.45546C7.91993 5.4167 7.94729 5.38934 7.98535 5.37342C11.9187 4.10678 15.8836 3.99741 19.8799 5.0453C19.9549 5.0565 20.0164 5.0907 20.0645 5.14784C20.8461 6.51509 21.3178 7.97796 21.4795 9.53651ZM0.479492 9.53613V11.4229C0.790571 14.301 2.04155 16.6799 4.23242 18.5596C5.39587 18.023 6.41445 17.2915 7.28809 16.3652C4.4152 13.6095 2.41227 10.3078 1.2793 6.45996C0.851477 7.44676 0.584875 8.47215 0.479492 9.53613ZM10.8154 20.9801H10.0361C8.33448 20.8093 6.76218 20.2624 5.31934 19.3394C8.64275 17.4421 10.6798 14.6052 11.4307 10.8287C13.158 10.2424 14.9217 10.0989 16.7217 10.398C15.7938 14.525 13.825 18.0523 10.8154 20.9801ZM21.2744 12.3258C20.2429 11.5708 19.1081 11.024 17.8701 10.6852C16.9945 14.5494 15.2308 17.9332 12.5791 20.8366C13.7965 20.6906 14.9449 20.3214 16.0244 19.7292C18.8236 18.1182 20.5804 15.7325 21.2949 12.5719C21.3281 12.4867 21.3212 12.4046 21.2744 12.3258Z"
                />
            </g>
            <defs>
                <clipPath id="clip0_571_20505">
                    <rect width="21" height="21" fill="white" transform="translate(0.5)" />
                </clipPath>
            </defs>

        </symbol>

        <symbol id="chat" viewBox="0 0 21 21">
            <path
                d="M10.4999 1.75C5.67851 1.75 1.74994 5.67857 1.74994 10.5C1.74994 11.8393 2.0178 13.1786 2.6428 14.3393V17.6429C2.6428 18 2.91065 18.3571 3.35708 18.3571H6.66065C7.82137 18.9821 9.16065 19.25 10.4999 19.25C15.3214 19.25 19.2499 15.3214 19.2499 10.5C19.2499 5.67857 15.3214 1.75 10.4999 1.75ZM7.82137 11.3929C7.37494 11.3929 6.92851 10.9464 6.92851 10.5C6.92851 10.0536 7.37494 9.60714 7.82137 9.60714C8.2678 9.60714 8.71423 10.0536 8.71423 10.5C8.71423 10.9464 8.2678 11.3929 7.82137 11.3929ZM10.4999 11.3929C10.0535 11.3929 9.60708 10.9464 9.60708 10.5C9.60708 10.0536 10.0535 9.60714 10.4999 9.60714C10.9464 9.60714 11.3928 10.0536 11.3928 10.5C11.3928 10.9464 10.9464 11.3929 10.4999 11.3929ZM13.1785 11.3929C12.7321 11.3929 12.2857 10.9464 12.2857 10.5C12.2857 10.0536 12.7321 9.60714 13.1785 9.60714C13.6249 9.60714 14.0714 10.0536 14.0714 10.5C14.0714 10.9464 13.6249 11.3929 13.1785 11.3929Z"
            />

        </symbol>

        <symbol id="betSlip" viewBox="0 0 21 21">
            <path
                d="M0.544689 20.9491C0.385685 20.8872 0.247738 20.7707 0.150094 20.616C0.0524502 20.4612 -2.11825e-05 20.2758 6.41482e-09 20.0858C6.41482e-09 15.9145 0.74106 12.5787 2.20349 10.1701C3.97033 7.25992 6.75738 5.693 10.5 5.49842V0.912913C10.5001 0.734138 10.5465 0.559302 10.6336 0.410093C10.7207 0.260884 10.8447 0.143869 10.9901 0.0735638C11.1355 0.00325843 11.296 -0.0172431 11.4516 0.0146023C11.6072 0.0464477 11.7512 0.129239 11.8655 0.252705L20.7502 9.83913C20.8291 9.92437 20.892 10.0268 20.9349 10.1403C20.9779 10.2538 21 10.3759 21 10.4993C21 10.6228 20.9779 10.7449 20.9349 10.8584C20.892 10.9718 20.8291 11.0743 20.7502 11.1595L11.8655 20.746C11.7512 20.8694 11.6072 20.9522 11.4516 20.9841C11.296 21.0159 11.1355 20.9954 10.9901 20.9251C10.8447 20.8548 10.7207 20.7378 10.6336 20.5886C10.5465 20.4394 10.5001 20.2645 10.5 20.0858V15.5339C8.22839 15.6115 6.51204 16.0275 5.14552 16.8258C3.66895 17.6886 2.59825 18.9776 1.44426 20.649C1.34074 20.7988 1.19841 20.9084 1.03714 20.9624C0.875878 21.0164 0.703719 21.0122 0.544689 20.9502V20.9491Z"
            />

        </symbol>

        <symbol id="bell" viewBox="0 0 24 24">
            <path fill-rule="evenodd" clip-rule="evenodd"
                d="M4.45936 7.47338C5.38513 4.15829 8.53385 2 12 2C15.4661 2 18.6149 4.15829 19.5406 7.47338C19.7632 8.27041 19.9705 9.07181 20.1262 9.78929C20.4897 11.4638 20.7927 13.6989 20.9801 15.2464C21.1565 16.7027 20.1399 18.0373 18.6471 18.271C16.8578 18.5511 14.0966 18.9231 12 18.9231C9.90339 18.9231 7.14215 18.5511 5.35286 18.271C3.86011 18.0373 2.84345 16.7027 3.01986 15.2464C3.20731 13.6989 3.51032 11.4638 3.87376 9.78929C4.02949 9.07181 4.23678 8.27041 4.45936 7.47338ZM12 3.53846C9.18994 3.53846 6.70482 5.28252 5.98001 7.87798C5.76175 8.65952 5.56284 9.43008 5.41567 10.1081C5.0683 11.7085 4.77207 13.8834 4.58509 15.427C4.50681 16.0733 4.95347 16.6503 5.60249 16.7519C7.38794 17.0315 10.0404 17.3846 12 17.3846C13.9596 17.3846 16.6121 17.0315 18.3975 16.7519C19.0465 16.6503 19.4932 16.0733 19.4149 15.427C19.2279 13.8834 18.9317 11.7085 18.5843 10.1081C18.4372 9.43008 18.2382 8.65952 18.02 7.87798C17.2952 5.28252 14.8101 3.53846 12 3.53846Z"
            />
            <path fill-rule="evenodd" clip-rule="evenodd"
                d="M9.89849 17.3846C10.3337 17.3846 10.6866 17.729 10.6866 18.1538V19.1795C10.6866 19.8875 11.2746 20.4615 12 20.4615C12.7254 20.4615 13.3134 19.8875 13.3134 19.1795V18.1538C13.3134 17.729 13.6663 17.3846 14.1015 17.3846C14.5367 17.3846 14.8896 17.729 14.8896 18.1538V19.1795C14.8896 20.7372 13.5959 22 12 22C10.4041 22 9.11042 20.7372 9.11042 19.1795V18.1538C9.11042 17.729 9.46325 17.3846 9.89849 17.3846Z"
            />
        </symbol>

        <symbol id="search" viewBox="0 0 20 20">
            <path
                fill-rule="evenodd"
                clip-rule="evenodd"
                d="M9.16667 1.87497C5.13959 1.87497 1.875 5.13956 1.875 9.16664C1.875 13.1937 5.13959 16.4583 9.16667 16.4583C10.8577 16.4583 12.4143 15.8827 13.6512 14.9166L17.4747 18.7402C17.7188 18.9843 18.1145 18.9843 18.3586 18.7403C18.6027 18.4962 18.6027 18.1004 18.3586 17.8564L14.5677 14.0654C15.7425 12.771 16.4583 11.0524 16.4583 9.16664C16.4583 5.13956 13.1937 1.87497 9.16667 1.87497ZM3.125 9.16664C3.125 5.82992 5.82995 3.12497 9.16667 3.12497C12.5034 3.12497 15.2083 5.82992 15.2083 9.16664C15.2083 12.5034 12.5034 15.2083 9.16667 15.2083C5.82995 15.2083 3.125 12.5034 3.125 9.16664Z"
            />
        </symbol>

        <symbol id="filter">
            <path
                d="M15.8332 1.66666H4.1665C3.50346 1.66666 2.86758 1.93005 2.39874 2.39889C1.9299 2.86773 1.6665 3.50362 1.6665 4.16666V5.14166C1.66638 5.48578 1.73731 5.82621 1.87484 6.14166V6.19166C1.99257 6.45913 2.15933 6.70221 2.3665 6.90832L7.49984 12.0083V17.5C7.49955 17.6416 7.53537 17.781 7.6039 17.9049C7.67243 18.0288 7.77141 18.1333 7.8915 18.2083C8.02412 18.2905 8.17715 18.3338 8.33317 18.3333C8.46362 18.3325 8.59207 18.3011 8.70817 18.2417L12.0415 16.575C12.1789 16.5057 12.2945 16.3998 12.3754 16.2689C12.4563 16.138 12.4994 15.9872 12.4998 15.8333V12.0083L17.5998 6.90832C17.807 6.70221 17.9738 6.45913 18.0915 6.19166V6.14166C18.2405 5.82868 18.3228 5.48814 18.3332 5.14166V4.16666C18.3332 3.50362 18.0698 2.86773 17.6009 2.39889C17.1321 1.93005 16.4962 1.66666 15.8332 1.66666ZM11.0748 11.075C10.9976 11.1529 10.9365 11.2452 10.895 11.3467C10.8536 11.4483 10.8325 11.557 10.8332 11.6667V15.3167L9.1665 16.15V11.6667C9.16714 11.557 9.14612 11.4483 9.10465 11.3467C9.06318 11.2452 9.00207 11.1529 8.92484 11.075L4.50817 6.66666H15.4915L11.0748 11.075ZM16.6665 4.99999H3.33317V4.16666C3.33317 3.94564 3.42097 3.73368 3.57725 3.5774C3.73353 3.42112 3.94549 3.33332 4.1665 3.33332H15.8332C16.0542 3.33332 16.2661 3.42112 16.4224 3.5774C16.5787 3.73368 16.6665 3.94564 16.6665 4.16666V4.99999Z"
            />
        </symbol>

        <symbol id="copy" viewBox="0 0 22 22">
            <path
                d="M14.207 12.0542H12.2179C10.5862 12.0542 9.25703 10.7342 9.25703 9.09334V7.10417C9.25703 6.72834 8.95453 6.41667 8.56953 6.41667H5.6637C3.5462 6.41667 1.83203 7.79167 1.83203 10.2483V16.335C1.83203 18.7917 3.5462 20.1667 5.6637 20.1667H11.0629C13.1804 20.1667 14.8945 18.7917 14.8945 16.335V12.7417C14.8945 12.3567 14.5829 12.0542 14.207 12.0542Z"
            />
            <path
                d="M16.3349 1.83333H14.5291H13.5299H10.9358C8.86411 1.83333 7.18661 3.15333 7.11328 5.50916C7.16828 5.50916 7.21411 5.49999 7.26911 5.49999H9.86328H10.8624H12.6683C14.7858 5.49999 16.4999 6.875 16.4999 9.33166V11.1375V13.6217V15.4275C16.4999 15.4825 16.4908 15.5283 16.4908 15.5742C18.5349 15.51 20.1666 14.1533 20.1666 11.7608V9.955V7.47083V5.66499C20.1666 3.20833 18.4524 1.83333 16.3349 1.83333Z"
            />
            <path
                d="M10.9809 6.55417C10.6968 6.27 10.2109 6.4625 10.2109 6.85667V9.25833C10.2109 10.2667 11.0634 11.0917 12.1084 11.0917C12.7593 11.1008 13.6668 11.1008 14.4459 11.1008C14.8401 11.1008 15.0418 10.6425 14.7668 10.3675C13.7676 9.36833 11.9893 7.58083 10.9809 6.55417Z"
            />
        </symbol>
    </defs>
</svg>